<?xml version="1.0" standalone="no"?>
 <!DOCTYPE svg PUBLIC "-//W3C//DTD SVG 1.1//EN" 
 "http://www.w3.org/Graphics/SVG/1.1/DTD/svg11.dtd"> 
<svg
  xmlns:svg="http://www.w3.org/2000/svg"
  xmlns="http://www.w3.org/2000/svg"
  xmlns:xlink="http://www.w3.org/1999/xlink"
  version="1.1"
  width="41.998900cm" height="29.700220cm" viewBox="0 0 165350 116930">
<title>SVG Picture created as DPCM-map-Edge_Cuts.svg date 2021/03/18 14:22:58 </title>
  <desc>Picture generated by PCBNEW </desc>
<g style="fill:#000000; fill-opacity:1;stroke:#000000; stroke-opacity:1;
stroke-linecap:round; stroke-linejoin:round;"
 transform="translate(0 0) scale(1 1)">
</g>
<g style="fill:#000000; fill-opacity:0.0; 
stroke:#000000; stroke-width:-0.000393701; stroke-opacity:1; 
stroke-linecap:round; stroke-linejoin:round;">
</g>
<g style="fill:#000000; fill-opacity:0.0; 
stroke:#000000; stroke-width:0.0610236; stroke-opacity:1; 
stroke-linecap:round; stroke-linejoin:round;">
<path d="M113578 84252
L113571 84535
" />
<path d="M113571 84535
L113550 84815
" />
<path d="M113550 84815
L113515 85091
" />
<path d="M113515 85091
L113466 85362
" />
<path d="M113466 85362
L113405 85629
" />
<path d="M113405 85629
L113330 85891
" />
<path d="M113330 85891
L113244 86147
" />
<path d="M113244 86147
L113145 86397
" />
<path d="M113145 86397
L113035 86641
" />
<path d="M113035 86641
L112913 86879
" />
<path d="M112913 86879
L112780 87110
" />
<path d="M112780 87110
L112637 87333
" />
<path d="M112637 87333
L112483 87549
" />
<path d="M112483 87549
L112320 87757
" />
<path d="M112320 87757
L112146 87957
" />
<path d="M112146 87957
L111964 88149
" />
<path d="M111964 88149
L111772 88331
" />
<path d="M111772 88331
L111572 88505
" />
<path d="M111572 88505
L111364 88668
" />
<path d="M111364 88668
L111148 88822
" />
<path d="M111148 88822
L110925 88965
" />
<path d="M110925 88965
L110694 89098
" />
<path d="M110694 89098
L110456 89220
" />
<path d="M110456 89220
L110212 89330
" />
<path d="M110212 89330
L109962 89429
" />
<path d="M109962 89429
L109706 89515
" />
<path d="M109706 89515
L109444 89590
" />
<path d="M109444 89590
L109177 89651
" />
<path d="M109177 89651
L108906 89700
" />
<path d="M108906 89700
L108630 89735
" />
<path d="M108630 89735
L108350 89756
" />
<path d="M108350 89756
L108066 89763
" />
<path d="M108066 19685
L108350 19692
" />
<path d="M108350 19692
L108630 19713
" />
<path d="M108630 19713
L108906 19748
" />
<path d="M108906 19748
L109177 19797
" />
<path d="M109177 19797
L109444 19858
" />
<path d="M109444 19858
L109706 19932
" />
<path d="M109706 19932
L109962 20019
" />
<path d="M109962 20019
L110212 20118
" />
<path d="M110212 20118
L110456 20228
" />
<path d="M110456 20228
L110694 20350
" />
<path d="M110694 20350
L110925 20483
" />
<path d="M110925 20483
L111148 20626
" />
<path d="M111148 20626
L111364 20780
" />
<path d="M111364 20780
L111572 20943
" />
<path d="M111572 20943
L111772 21116
" />
<path d="M111772 21116
L111964 21299
" />
<path d="M111964 21299
L112146 21490
" />
<path d="M112146 21490
L112320 21690
" />
<path d="M112320 21690
L112483 21899
" />
<path d="M112483 21899
L112637 22115
" />
<path d="M112637 22115
L112780 22338
" />
<path d="M112780 22338
L112913 22569
" />
<path d="M112913 22569
L113035 22807
" />
<path d="M113035 22807
L113145 23051
" />
<path d="M113145 23051
L113244 23301
" />
<path d="M113244 23301
L113330 23557
" />
<path d="M113330 23557
L113405 23819
" />
<path d="M113405 23819
L113466 24086
" />
<path d="M113466 24086
L113515 24357
" />
<path d="M113515 24357
L113550 24633
" />
<path d="M113550 24633
L113571 24913
" />
<path d="M113571 24913
L113578 25196
" />
<path d="M108066 89763
L49011 89763
" />
<path d="M49011 19685
L108066 19685
" />
<path d="M43499 84252
L43499 25196
" />
<path d="M43499 25196
L43507 24913
" />
<path d="M43507 24913
L43528 24633
" />
<path d="M43528 24633
L43563 24357
" />
<path d="M43563 24357
L43611 24086
" />
<path d="M43611 24086
L43673 23819
" />
<path d="M43673 23819
L43747 23557
" />
<path d="M43747 23557
L43834 23301
" />
<path d="M43834 23301
L43933 23051
" />
<path d="M43933 23051
L44043 22807
" />
<path d="M44043 22807
L44165 22569
" />
<path d="M44165 22569
L44297 22338
" />
<path d="M44297 22338
L44441 22115
" />
<path d="M44441 22115
L44594 21899
" />
<path d="M44594 21899
L44758 21690
" />
<path d="M44758 21690
L44931 21490
" />
<path d="M44931 21490
L45114 21299
" />
<path d="M45114 21299
L45305 21116
" />
<path d="M45305 21116
L45505 20943
" />
<path d="M45505 20943
L45714 20780
" />
<path d="M45714 20780
L45930 20626
" />
<path d="M45930 20626
L46153 20483
" />
<path d="M46153 20483
L46384 20350
" />
<path d="M46384 20350
L46622 20228
" />
<path d="M46622 20228
L46866 20118
" />
<path d="M46866 20118
L47116 20019
" />
<path d="M47116 20019
L47372 19932
" />
<path d="M47372 19932
L47634 19858
" />
<path d="M47634 19858
L47901 19797
" />
<path d="M47901 19797
L48172 19748
" />
<path d="M48172 19748
L48448 19713
" />
<path d="M48448 19713
L48728 19692
" />
<path d="M48728 19692
L49011 19685
" />
<path d="M49011 89763
L48728 89756
" />
<path d="M48728 89756
L48448 89735
" />
<path d="M48448 89735
L48172 89700
" />
<path d="M48172 89700
L47901 89651
" />
<path d="M47901 89651
L47634 89590
" />
<path d="M47634 89590
L47372 89515
" />
<path d="M47372 89515
L47116 89429
" />
<path d="M47116 89429
L46866 89330
" />
<path d="M46866 89330
L46622 89220
" />
<path d="M46622 89220
L46384 89098
" />
<path d="M46384 89098
L46153 88965
" />
<path d="M46153 88965
L45930 88822
" />
<path d="M45930 88822
L45714 88668
" />
<path d="M45714 88668
L45505 88505
" />
<path d="M45505 88505
L45305 88331
" />
<path d="M45305 88331
L45114 88149
" />
<path d="M45114 88149
L44931 87957
" />
<path d="M44931 87957
L44758 87757
" />
<path d="M44758 87757
L44594 87549
" />
<path d="M44594 87549
L44441 87333
" />
<path d="M44441 87333
L44297 87110
" />
<path d="M44297 87110
L44165 86879
" />
<path d="M44165 86879
L44043 86641
" />
<path d="M44043 86641
L43933 86397
" />
<path d="M43933 86397
L43834 86147
" />
<path d="M43834 86147
L43747 85891
" />
<path d="M43747 85891
L43673 85629
" />
<path d="M43673 85629
L43611 85362
" />
<path d="M43611 85362
L43563 85091
" />
<path d="M43563 85091
L43528 84815
" />
<path d="M43528 84815
L43507 84535
" />
<path d="M43507 84535
L43499 84252
" />
<path d="M113578 25196
L113578 84252
" />
</g>
<g style="fill:#000000; fill-opacity:0.0; 
stroke:#000000; stroke-width:0.0606299; stroke-opacity:1; 
stroke-linecap:round; stroke-linejoin:round;">
</g>
<g style="fill:#000000; fill-opacity:0.0; 
stroke:#000000; stroke-width:0.0629921; stroke-opacity:1; 
stroke-linecap:round; stroke-linejoin:round;">
<g >
</g>
<g >
</g>
<g >
</g>
<g >
</g>
<g >
</g>
<g >
</g>
<g >
</g>
<g >
</g>
<g >
</g>
<g >
</g>
<g >
</g>
<g >
</g>
<g >
</g>
<g >
</g>
<g >
</g>
<g >
</g>
<g >
</g>
<g >
</g>
<g >
</g>
<g >
</g>
<g >
</g>
<g >
</g>
<g >
</g>
<g >
</g>
<g >
</g>
<g >
</g>
<g >
</g>
<g >
</g>
<g >
</g>
<g >
</g>
<g >
</g>
<g >
</g>
<g >
</g>
<g >
</g>
<g >
</g>
<g >
</g>
<g >
</g>
<g >
</g>
<g >
</g>
<g >
</g>
<g >
</g>
<g >
</g>
<g >
</g>
<g >
</g>
<g >
</g>
<g >
</g>
<g >
</g>
<g >
</g>
<g >
</g>
<g >
</g>
<g >
</g>
<g >
</g>
<g >
</g>
<g >
</g>
<g >
</g>
<g >
</g>
<g >
</g>
<g >
</g>
<g >
</g>
<g >
</g>
<g >
</g>
<g >
</g>
<g >
</g>
<g >
</g>
<g >
</g>
<g >
</g>
<g >
</g>
<g >
</g>
<g >
</g>
<g >
</g>
<g >
</g>
<g >
</g>
<g >
</g>
<g >
</g>
<g >
</g>
<g >
</g>
<g >
</g>
<g >
</g>
<g >
</g>
<g >
</g>
<g >
</g>
<g >
</g>
<g >
</g>
<g >
</g>
<g >
</g>
<g >
</g>
<g >
</g>
<g >
</g>
<g >
</g>
<g >
</g>
<g >
</g>
<g >
</g>
<g >
</g>
<g >
</g>
<g >
</g>
<g >
</g>
<g >
</g>
<g >
</g>
<g >
</g>
<g >
</g>
<g >
</g>
<g >
</g>
<g >
</g>
<g >
</g>
<g >
</g>
<g >
</g>
<g >
</g>
<g >
</g>
<g >
</g>
</g> 
</svg>
