<?xml version="1.0" encoding="utf-8"?>
<!-- Generator: Adobe Illustrator 16.0.0, SVG Export Plug-In . SVG Version: 6.00 Build 0)  -->
<svg version="1.2" baseProfile="tiny" xmlns="http://www.w3.org/2000/svg" xmlns:xlink="http://www.w3.org/1999/xlink" x="0px"
	 y="0px" width="510.236px" height="510.236px" viewBox="0 0 510.236 510.236" xml:space="preserve">
<g id="Livello_3">
	<g id="Livello_1_1_">
		
			<path fill="none" stroke="#000000" stroke-width="2.4094" stroke-linecap="round" stroke-linejoin="round" stroke-miterlimit="10" d="
			M246.198,129.85c-3.397,4.993,2.147,21.496,2.8,25.422c1.252,7.52,9.5,13.083,15.731,16.247
			c5.089,2.584,13.81,15.97,20.251,13.508c3.989-1.524,7.075,11.62,7.873,13.412c5.785,12.99,6.489,27.417,16.438,38.267
			c3.076,3.356,9.39,10.706,13.586,12.161c3.443,1.191,1.57,3.521,4.219,4.946c3.916,2.122,7.584,3.285,10.634,6.724"/>
		
			<path fill="none" stroke="#000000" stroke-width="2.4094" stroke-linecap="round" stroke-linejoin="round" stroke-miterlimit="10" d="
			M243.353,178.052c-1.925,0.304-3.757,3.098-6.715,2.5c-14.833-3-8.446-14.643-11.66-17.137c-3.204-2.487-5.645-2.66-9.486-3.845
			c-3.71-1.146-6.055,5.006-9.331,5.528c-3.933,0.626-19.65-2.662-23.023-6.004c-4.62-4.577-18.25-15.375-21.667-6.453"/>
		
			<path fill="none" stroke="#000000" stroke-width="2.4094" stroke-linecap="round" stroke-linejoin="round" stroke-miterlimit="10" d="
			M331.039,279.608c7.815-0.681,2.717,8.186,8.539,9.722c4.353,1.146,1.063,4.58,3.781,6.895c2.358,2.005,5.957,0.284,8.432,2.518
			c4.203,3.793-0.951,8.315-4.396,9.384c-2.567,0.794,0.789,8.564,1.242,9.344c1.723,2.957,10.049,12.135,9.375,15.25
			c-0.282,1.309-1.763,11.097-3.196,11.661"/>
		
			<path fill="none" stroke="#000000" stroke-width="2.4094" stroke-linecap="round" stroke-linejoin="round" stroke-miterlimit="10" d="
			M126.936,108.449c-11.683-6.274-4.085,15.958,2.064,16.588c6.718,0.688,15.992,9.254,14.253,17.083"/>
		
			<path fill="none" stroke="#000000" stroke-width="2.4094" stroke-linecap="round" stroke-linejoin="round" stroke-miterlimit="10" d="
			M299.333,219.665c-3.271,0.591-7.353,5.804-10.407,4.215c-4.765-2.474-5.417,8.597-10.89,7.648
			c-14.311-2.476,0.063,17.637,0.243,20.088c-3.909,0.276-6.206-1.771-9.165,1.237c-0.912,0.929-0.979,7.334,0.965,6.152
			c5.402-3.31,9.721,7.097,12.438,9.421c4.748,4.054,11.304-1.531,15.622,3.387c4.694,5.348-1.339,16.934-5.987,20.426"/>
		
			<path fill="none" stroke="#000000" stroke-width="2.4094" stroke-linecap="round" stroke-linejoin="round" stroke-miterlimit="10" d="
			M346.646,414.108c1.234,0.738,2.449,1.511,3.646,2.312c0.109,1.083-4.963,8.537-5.658,9.437
			c-2.872,3.707-11.912,21.409-12.119,23.994c-0.488,6.112,2.881,4.188,3.749,8.243c-0.284,1.441,2.92,11.066,0.625,11.25
			c-3.188,0.253-4.976,5.151-3.927,8.472c0.636,2.013-0.122,9.126-3.18,4.671c-2.289-3.354-13.666-1.108-17.971-4.744
			c-3.49-2.946-3.626-7.946-7.918-10.629c-3.865-2.416-7.002-1.25-11.003-1.486c-4.168-0.24-27.953-20.146-34.73-20.138
			c-5.538,0.008-4.088,1.267-8.187-2.497c-1.984-1.825-3.26-3.418-5.156-5.329c-2.418-2.421,1.82-9.899,1.82-9.899
			s7.746-9.609,9.897-8.427c2.31,1.271,0.617,5.938,4.521,6.242c5.275,0.411,2.474-8.078,7.82-6.311
			c3.509,1.165,6.525-4.674,7.849,2.034c0.813,4.117,13.839,6.188,15.957,5.018c1.175-0.648,17.465-0.886,18.539-1.182
			c4.428-1.222,6.78-4.499,10.854-5.193c4.436-0.757,4.434-0.228,8.67,1.222c5.023,1.722,2.807-4.968,4.783-5.735
			c1.119-0.437,2.729,2.405,3.49,2.436c2.277,0.086,5.374-2.865,7.127-4.005"/>
		
			<path fill="none" stroke="#000000" stroke-width="2.4094" stroke-linecap="round" stroke-linejoin="round" stroke-miterlimit="10" d="
			M138.33,83.183c-3.062-3.83-0.074-8.891,2.502-12.118c1.989-2.487,5.767-5.138,5.507-8.799c-0.17-2.4-3.187-8.981,2.394-9.052
			c10.336-0.122,2.563,8.333,9.678,9.831c0.822,0.173,17.825-8.492,13.854,0.57"/>
		
			<path fill="none" stroke="#000000" stroke-width="2.4094" stroke-linecap="round" stroke-linejoin="round" stroke-miterlimit="10" d="
			M389.123,339.427c-2.176-3.097-6.166-3.581-9.111-0.854c-3.631,3.361-2.455,4.938-7.471,7.399
			c-6.848,3.362-8.215-8.314-15.989,1.006"/>
		
			<path fill="none" stroke="#000000" stroke-width="2.4094" stroke-linecap="round" stroke-linejoin="round" stroke-miterlimit="10" d="
			M143.384,138.915c1.189-0.27,2.744-0.63,3.873-1.085c3.927-5.553-5.256-13.542,5.194-18.475c2.106-0.929,4.16-0.881,6.162,0.143
			c3.836,1.36,4.559-3.35,7.4-2.031c10.5,4.875,20.567,9.962,25,9.86s22.791-2.123,23.509-1.44c1.475,1.403,6.528,3.391,8.566,3.154
			c2.683-1.113,5.365-2.225,8.049-3.335c3.931-0.515,8.375,2.614,12.204,1.047c3.986-1.629,3.673,17.464,9.793,5.11
			c4.008-8.088-3.413-8.453-5.35-15.823c-2.931-11.15,12.992-14.705,20.336-18.986"/>
		
			<path fill="none" stroke="#000000" stroke-width="2.4094" stroke-linecap="round" stroke-linejoin="round" stroke-miterlimit="10" d="
			M216.837,127.328c-4.098-4.608-5.989-7.268-11.131-8.65c0.041,0.011-9.814-4.576-10.653-6.585
			c-0.839-2.009-0.438-4.377,0.261-6.001c0.699-1.624-2.29-2.491-3.208-3.925c-1.437-3.453,2.614-7.982,4.185-10.687
			c1.18-1.189,1.836-2.578,1.967-4.167c-1.412-3.021-7.537,2.915-9.616,1.996c-4.686-2.067-3.561-13.724-3.628-17.768
			c-0.095-5.699,3.135-6.969,3.515-11.503c0.38-4.534-6.265-6.826-9.14-12.07c-8.182-5.583-7.596,8.062-7.619,11.933"/>
		
			<path fill="none" stroke="#000000" stroke-width="2.4094" stroke-linecap="round" stroke-linejoin="round" stroke-miterlimit="10" d="
			M127.927,72.037c-1.927,5.136-7.766,15.664-2.979,20.564c2.553,2.623,3.403,7.799,5.939,10.9c2.619,3.197-1.5,2.631-3.952,4.947"
			/>
		
			<path fill="none" stroke="#000000" stroke-width="2.4094" stroke-linecap="round" stroke-linejoin="round" stroke-miterlimit="10" d="
			M136.72,79.22c-4.184-1.426,0.159-3.317-1.661-5.66c-1.718-2.211-8.33-0.627-8.757-3.027c-0.569-3.215-4.836-3.883-3.964-7.201
			c0.781-2.961,1.002-8.853-3.678-8.22c-3.402,0.46-12.182,10.859-10.309,12.721c4.22,4.188-7.021,8.804-7.921,11.388"/>
		
			<path fill="none" stroke="#000000" stroke-width="2.4094" stroke-linecap="round" stroke-linejoin="round" stroke-miterlimit="10" d="
			M352.835,299.424c-0.077,0.011,15.295-3.266,13.129,1.258c-0.889,0.351-1.698,0.836-2.43,1.458
			c0.315,3.931,8.036,2.713,9.707,5.905c3.609,6.91,14.646,5.674,13.563,8.257c-1.75,4.666,6.521,11.492,7.896,13.093"/>
		
			<path fill="none" stroke="#000000" stroke-width="2.4094" stroke-linecap="round" stroke-linejoin="round" stroke-miterlimit="10" d="
			M326.332,254.095c-2.371,4.007-4.758,10.525-8.67,13.127"/>
		
			<path fill="none" stroke="#000000" stroke-width="2.4094" stroke-linecap="round" stroke-linejoin="round" stroke-miterlimit="10" d="
			M317.416,267.718c-0.404-3.322-4.073-7.749-8.01-5.689c-4.449,2.324-1.883,5.029-3.357,7.375c-0.48,0.764-6,2.342-6.963,2.772"/>
		
			<path fill="none" stroke="#000000" stroke-width="2.4094" stroke-linecap="round" stroke-linejoin="round" stroke-miterlimit="10" d="
			M241.896,188.387c-0.308,3.392-2.971,5.123-3.254,7.03c-0.489,3.306,5.803,2.936,6.629,4.708c1.802,3.859-7.711,5.213-9.588,6.424
			c-3.191,2.063-1.13,12.594-2.979,16.088"/>
		
			<path fill="none" stroke="#000000" stroke-width="2.4094" stroke-linecap="round" stroke-linejoin="round" stroke-miterlimit="10" d="
			M112.276,321.534c6.049,0,6.202,7.21,6.195,13.019c0,0.324-3.396,14.604,1.529,17.879c-3.529,6.35-1.544,17.386-3.589,24
			c-0.679,2.191,9.769,17.944,11.778,16.779c0.709-0.411,6.781,1.508,11.115-8.325s11.541-4.092,14.343-1.938
			c6.365,4.884,7.818-36.651,9.691-39.688c2.634-4.268-5.295-6.212-1.729-11.638c2.186-3.324,8.052-8.12,3.741-12.408
			c-4.942-4.92,2.418-12.566-5.72-15.827c4.113-5.607-12.904-17.395-17.304-13.583c-0.545,0.527-0.782,1.162-0.711,1.906
			c1.792,3.459-2.468,2.076-3.745,3.533c-4.333,4.949-9.102,7.271-13.385,11.638c-2.029,2.065-8.774,0.219-9.168-2.509
			c-0.984-6.831-7.167-0.063-4.938,1.162C115.391,308.303,99.41,321.534,112.276,321.534z"/>
		
			<path fill="none" stroke="#000000" stroke-width="2.4094" stroke-linecap="round" stroke-linejoin="round" stroke-miterlimit="10" d="
			M259.454,46.525c-0.156,0.147-3.791,8.754-4.016,8.193c0.92,2.283-12.195,6.532-8.622,12.612c4.056,6.879,0.305,5.448,1.04,13.449
			c0.784,8.54,14.939,5.022,17.031,6.469c2.091,1.447,4.11,5.974,5.217,9.309"/>
		
			<path fill="none" stroke="#000000" stroke-width="2.4094" stroke-linecap="round" stroke-linejoin="round" stroke-miterlimit="10" d="
			M196.787,91.853c1.214,1.122,1.769,4.01,6.935,2.479c5.166-1.531,6.942-15.574,15.996-14.104
			c3.633,0.59,15.371-6.815,14.903-11.882c-0.267-2.884-4.993-3.938-4.193-6.998c0.548-2.096,5.265-12.805,8.279-12.802
			c3.014,0.003,1.746,2.003,4.13,2.628c2.384,0.625,9.581-3.847,7.445-8.313c-1.642-3.435-5.73-6.208-7.125-8.884
			c-2.212-4.241,1.369-1.318,2.395-5.802c1.353-5.913-9.938-0.93-11.274-0.422c-3.898,1.48-18.046,2.713-18.159,2.648
			c-7.338-4.131-9.993,5.147-12.21,8.86c-3.386,5.668-9.274-6.054-13.775-3.089c-1.847,1.219-4.854-1.293-5.548,1.666
			c-0.343,1.458-5.21,11.019-4.015,11.901"/>
		
			<path fill="none" stroke="#000000" stroke-width="2.4094" stroke-linecap="round" stroke-linejoin="round" stroke-miterlimit="10" d="
			M268.125,97.055c3.047-0.209,4.83-3.502,6.931-5.202c1.586-1.284,4.307,2.655,5.644,3.026c2.61,0.725,5.063-3.065,7.356-2.079
			c2.03,0.873,1.688,4.76,3.377,5.424c3.624,1.431,10.761-0.18,6.92-4.893c-2.417-2.968-5.974-4.861-8.286-7.951
			c-2.959-3.954,3.801-6.338-3.365-8.387c1.328-2.002,5.809-4.194,5.313-7.128c-0.642-3.804-7.356-1.754-8.788-4.353
			c-1.244-2.261,9.77-7.188,9.914-11.558c0.141-4.167-37.492-8.402-41.364-8.917"/>
		
			<path fill="none" stroke="#000000" stroke-width="2.4094" stroke-linecap="round" stroke-linejoin="round" stroke-miterlimit="10" d="
			M273.574,226.6c2.446,0.598,4.573,1.729,6.189,3.718"/>
		
			<path fill="none" stroke="#000000" stroke-width="2.4094" stroke-linecap="round" stroke-linejoin="round" stroke-miterlimit="10" d="
			M172.264,169.628c1.897-4.94-5.943-10.403-5.943-10.403s-6.438-8.62-9.07-9.355c-8.787-2.456-17.339-14.554-25.282-6.592
			c-7.399,7.416-18.066-1.084-22.337,8.948c-0.491,1.155-4.618,6.993-6.243,10.118s-7.591,1.411-8.653,3.201"/>
		
			<path fill="none" stroke="#000000" stroke-width="2.4094" stroke-linecap="round" stroke-linejoin="round" stroke-miterlimit="10" d="
			M218.091,243.445c2.314-3.479,5.159-7.756,7.902-10.658c2.964-3.137-0.523-8.435,3.766-9.927c4.426-1.541,4.881,7.66,8.769,5.687
			c2.526-1.282,3.81-1.124,4.864,1.833c1.808,5.069,2.187,3.635,5.968,4.932c1.603,0.55,1.42,4.483,1.815,5.749
			c1.462,4.681,7.635-6.625,9.271-8.008c4.838-4.09,10.57-4.096,14.399-9.189c1.873-2.491-8.904-5.044-10.535-7.503
			c-4.834-7.291,1.315-19.428-10.505-20.043c-3.769-0.196-8.039-5.548-11.293-7.35c-3.605-1.996,2.809-14.372,5.012-15.676
			c2.322-1.374,3.113,2.618,8.488,0.552c2.875-1.438,4.021-1.748,4.433-3.47"/>
		
			<path fill="none" stroke="#000000" stroke-width="2.4094" stroke-linecap="round" stroke-linejoin="round" stroke-miterlimit="10" d="
			M299.085,281.441c1.05,2.438,7.49-1.785,14.678,3.027c5.764,3.078,9.283-4.383,13.302-3.537c4.161,0.893,4.31-3.92,4.433-6.77
			c0.111-2.617,2.444-0.205,3.699-1.021c2.793-1.815-0.822-12.949,3.523-12.803c5.563,0.185,42.281-4.642,34.904,8.521
			c-2.25,4.018-14.195,6.213-7.418,12.307c5.771,5.188,15.883,8.021,22.933,11.246c7.987,3.653,15.065,5.971,21.774,11.842
			c3.489,3.055,13.435,10.324,18.467,9.542c1.82-0.276,7.351,8.038,9.002,9.439c4.188,3.559,14.562,13.364,9.772,19.5
			c-5.185,6.634-2.08,15.324-13.134,8.646c-6.357-3.843-7.993-16.942-9.373-17.197c-3.105-0.573-6.299-0.918-9.455-0.708
			c-7.24,0.482-9.242-5.432-12.82-8.767c-7.084-6.604-16.123,22.917-18.569,26.104c-6.229,8.122,18.323,11.396,20.106,18.726
			c0.742,3.057-2.591,12.444,1.158,14.16c3.432,1.569-2.714,10.708-8.173,7.415c-7.885-4.765-12.271,8.704-11.604,13.579
			c1.289,9.427-5.278,7.432-9.377,13.408c-6.261,9.105-4.552,13.106-16.145,15.104c-7.178,1.232-10.363-10.719-7.602-15.539
			c2.391-4.171,8.992-4.867,8.703-11.771c-0.117-2.76-6.033-3.953-1.1-6.884c4.678-2.774,4.546-2.43,8.79-2.462
			c6.128-0.045-2.567-13.881-2.815-15.398c-0.619-3.773-6.138-17.242-7.42-21.062c-0.945-2.807-3.406-23.217-9.979-15.356
			c-4.642,5.562-7.481-2.166-8.907-3.53c-3.21-3.076-13.973-2.766-11.059-9.857c1.195-2.904,2.686-2.724,1.399-6.157
			c-0.184-0.486-4.54-9.296-5.401-7.417c-2.549,5.479-24.59,3.59-11.433-2.989c-3.508-4.204-2.526-3.868-7.401-2.483
			c-6.278,1.782-3.975-2.047-6.02-5.665c-1.102-1.958-8.031-17.065-11.322-13.624c-3.568,3.715-5.894-0.674-9.189-1.749
			c-4.332-1.413-5.146,1.751-8.641,2.674c-2.945,0.779-8.485-7.346-10.851-8.116c-4.18-1.362-5.577-2.403-8.395-6.061
			c-3.169-4.115-6.044-5.706-9.767-8.808c-1.201-1-1.016-4.492-2.273-5.914c-2.768-3.133-9.604-4.892-11.294-7.506
			c-4.2-6.492-5.365-12.076-13.465-14.979c-3.119-1.116-10.311,4.944-10.728-2.308c-0.409-7.104-10.715-20.577-16.715-20.577
			s-0.976-16.451-6.207-23.5c-5.231-7.049-3.082-27.432-14.368-27.249c-3.882,0.062-27.65-14.781-29.513-15.073
			c-5.034-0.788-14.131-1.882-15.656,5.616c-0.862,4.257-4.394,4.234-8.507,10.168c-4.113,5.934-14.197,11.874-19.506,11.933
			c-6.573,0.073-7.455-5.696-3.506-9.59c1.225-1.208,6.563-10.415,0.855-7.098c-5.684,3.296-16.709-1.431-19.628-6.584
			c-1.882-3.327-6.073-11.764-2.396-14.925c1.279-1.104,5.619-10.103,1.249-10.393c-5.798-0.381-8.376-8.585-10.609-13.147
			c-0.318-0.656,26.271-10.363,14.563-16.305c-1.513-0.77-8.487-11.708-8.906-13.896c-0.735-3.83,8.882-11.452,10.854-8.638
			c2.948,4.203,13.407-4.09,17.656-3.399c10.096,1.641,5.821,5.814,8.734,13.226c3.023,7.695-4.426,9.982-10.1,9.875
			c-5.896-0.111-9.493,2.324-15.999,4.046"/>
	</g>
</g>
<g id="Livello_5">
	
		<line fill="none" stroke="#000000" stroke-width="2.4094" stroke-miterlimit="10" x1="187.885" y1="219.666" x2="142.326" y2="289.804"/>
	
		<line fill="none" stroke="#000000" stroke-width="2.4094" stroke-miterlimit="10" x1="60.753" y1="121.243" x2="-0.602" y2="121.243"/>
	
		<line fill="none" stroke="#000000" stroke-width="2.4094" stroke-miterlimit="10" x1="71.802" y1="81.658" x2="71.802" y2="0.518"/>
	
		<line fill="none" stroke="#000000" stroke-width="2.4094" stroke-miterlimit="10" x1="449.354" y1="338.425" x2="509.638" y2="338.425"/>
	
		<line fill="none" stroke="#000000" stroke-width="2.4094" stroke-miterlimit="10" x1="402.77" y1="391.231" x2="402.77" y2="510.758"/>
	
		<line fill="none" stroke="#000000" stroke-width="2.4094" stroke-miterlimit="10" x1="320.764" y1="320.518" x2="320.764" y2="420.274"/>
	
		<line fill="none" stroke="#000000" stroke-width="2.4094" stroke-miterlimit="10" x1="153.647" y1="382.948" x2="244.158" y2="436.335"/>
	
		<line fill="none" stroke="#000000" stroke-width="2.4094" stroke-miterlimit="10" x1="128.189" y1="393.21" x2="128.189" y2="510.758"/>
	
		<line fill="none" stroke="#000000" stroke-width="2.4094" stroke-miterlimit="10" x1="116.595" y1="377.687" x2="-0.602" y2="377.687"/>
	
		<line fill="none" stroke="#000000" stroke-width="2.4094" stroke-miterlimit="10" x1="279.532" y1="49.12" x2="279.532" y2="0.518"/>
</g>
</svg>
