  0
SECTION
  2
HEADER
  9
$ACADVER
  1
AC1018
  9
$ACADMAINTVER
 70
     0
  9
$DWGCODEPAGE
  3
ANSI_1252
  9
$INSBASE
 10
0.0
 20
0.0
 30
0.0
  9
$EXTMIN
 10
1.000000000000000E+20
 20
1.000000000000000E+20
 30
1.000000000000000E+20
  9
$EXTMAX
 10
-1.000000000000000E+20
 20
-1.000000000000000E+20
 30
-1.000000000000000E+20
  9
$LIMMIN
 10
0.0
 20
0.0
  9
$LIMMAX
 10
12.0
 20
9.0
  9
$ORTHOMODE
 70
     0
  9
$REGENMODE
 70
     1
  9
$FILLMODE
 70
     1
  9
$QTEXTMODE
 70
     0
  9
$MIRRTEXT
 70
     1
  9
$LTSCALE
 40
1.0
  9
$ATTMODE
 70
     1
  9
$TEXTSIZE
 40
0.2
  9
$TRACEWID
 40
0.05
  9
$TEXTSTYLE
  7
Standard
  9
$CLAYER
  8
0
  9
$CELTYPE
  6
ByLayer
  9
$CECOLOR
 62
   256
  9
$CELTSCALE
 40
1.0
  9
$DISPSILH
 70
     0
  9
$DIMSCALE
 40
1.0
  9
$DIMASZ
 40
0.18
  9
$DIMEXO
 40
0.0625
  9
$DIMDLI
 40
0.38
  9
$DIMRND
 40
0.0
  9
$DIMDLE
 40
0.0
  9
$DIMEXE
 40
0.18
  9
$DIMTP
 40
0.0
  9
$DIMTM
 40
0.0
  9
$DIMTXT
 40
0.18
  9
$DIMCEN
 40
0.09
  9
$DIMTSZ
 40
0.0
  9
$DIMTOL
 70
     0
  9
$DIMLIM
 70
     0
  9
$DIMTIH
 70
     1
  9
$DIMTOH
 70
     1
  9
$DIMSE1
 70
     0
  9
$DIMSE2
 70
     0
  9
$DIMTAD
 70
     0
  9
$DIMZIN
 70
     0
  9
$DIMBLK
  1

  9
$DIMASO
 70
     1
  9
$DIMSHO
 70
     1
  9
$DIMPOST
  1

  9
$DIMAPOST
  1

  9
$DIMALT
 70
     0
  9
$DIMALTD
 70
     2
  9
$DIMALTF
 40
25.4
  9
$DIMLFAC
 40
1.0
  9
$DIMTOFL
 70
     0
  9
$DIMTVP
 40
0.0
  9
$DIMTIX
 70
     0
  9
$DIMSOXD
 70
     0
  9
$DIMSAH
 70
     0
  9
$DIMBLK1
  1

  9
$DIMBLK2
  1

  9
$DIMSTYLE
  2
Standard
  9
$DIMCLRD
 70
     0
  9
$DIMCLRE
 70
     0
  9
$DIMCLRT
 70
     0
  9
$DIMTFAC
 40
1.0
  9
$DIMGAP
 40
0.09
  9
$DIMJUST
 70
     0
  9
$DIMSD1
 70
     0
  9
$DIMSD2
 70
     0
  9
$DIMTOLJ
 70
     1
  9
$DIMTZIN
 70
     0
  9
$DIMALTZ
 70
     0
  9
$DIMALTTZ
 70
     0
  9
$DIMUPT
 70
     0
  9
$DIMDEC
 70
     4
  9
$DIMTDEC
 70
     4
  9
$DIMALTU
 70
     2
  9
$DIMALTTD
 70
     2
  9
$DIMTXSTY
  7
Standard
  9
$DIMAUNIT
 70
     0
  9
$DIMADEC
 70
     0
  9
$DIMALTRND
 40
0.0
  9
$DIMAZIN
 70
     0
  9
$DIMDSEP
 70
    46
  9
$DIMATFIT
 70
     3
  9
$DIMFRAC
 70
     0
  9
$DIMLDRBLK
  1

  9
$DIMLUNIT
 70
     2
  9
$DIMLWD
 70
    -2
  9
$DIMLWE
 70
    -2
  9
$DIMTMOVE
 70
     0
  9
$LUNITS
 70
     2
  9
$LUPREC
 70
     4
  9
$SKETCHINC
 40
0.1
  9
$FILLETRAD
 40
0.5
  9
$AUNITS
 70
     0
  9
$AUPREC
 70
     0
  9
$MENU
  1
.
  9
$ELEVATION
 40
0.0
  9
$PELEVATION
 40
0.0
  9
$THICKNESS
 40
0.0
  9
$LIMCHECK
 70
     0
  9
$CHAMFERA
 40
0.5
  9
$CHAMFERB
 40
0.5
  9
$CHAMFERC
 40
1.0
  9
$CHAMFERD
 40
0.0
  9
$SKPOLY
 70
     0
  9
$TDCREATE
 40
2459285.901869896
  9
$TDUCREATE
 40
2459285.860203229
  9
$TDUPDATE
 40
2459285.901869908
  9
$TDUUPDATE
 40
2459285.860203241
  9
$TDINDWG
 40
0.0000000116
  9
$TDUSRTIMER
 40
0.0000000116
  9
$USRTIMER
 70
     1
  9
$ANGBASE
 50
0.0
  9
$ANGDIR
 70
     0
  9
$PDMODE
 70
     0
  9
$PDSIZE
 40
0.0
  9
$PLINEWID
 40
0.0
  9
$SPLFRAME
 70
     0
  9
$SPLINETYPE
 70
     6
  9
$SPLINESEGS
 70
     8
  9
$HANDSEED
  5
8E
  9
$SURFTAB1
 70
     6
  9
$SURFTAB2
 70
     6
  9
$SURFTYPE
 70
     6
  9
$SURFU
 70
     6
  9
$SURFV
 70
     6
  9
$UCSBASE
  2

  9
$UCSNAME
  2

  9
$UCSORG
 10
0.0
 20
0.0
 30
0.0
  9
$UCSXDIR
 10
1.0
 20
0.0
 30
0.0
  9
$UCSYDIR
 10
0.0
 20
1.0
 30
0.0
  9
$UCSORTHOREF
  2

  9
$UCSORTHOVIEW
 70
     0
  9
$UCSORGTOP
 10
0.0
 20
0.0
 30
0.0
  9
$UCSORGBOTTOM
 10
0.0
 20
0.0
 30
0.0
  9
$UCSORGLEFT
 10
0.0
 20
0.0
 30
0.0
  9
$UCSORGRIGHT
 10
0.0
 20
0.0
 30
0.0
  9
$UCSORGFRONT
 10
0.0
 20
0.0
 30
0.0
  9
$UCSORGBACK
 10
0.0
 20
0.0
 30
0.0
  9
$PUCSBASE
  2

  9
$PUCSNAME
  2

  9
$PUCSORG
 10
0.0
 20
0.0
 30
0.0
  9
$PUCSXDIR
 10
1.0
 20
0.0
 30
0.0
  9
$PUCSYDIR
 10
0.0
 20
1.0
 30
0.0
  9
$PUCSORTHOREF
  2

  9
$PUCSORTHOVIEW
 70
     0
  9
$PUCSORGTOP
 10
0.0
 20
0.0
 30
0.0
  9
$PUCSORGBOTTOM
 10
0.0
 20
0.0
 30
0.0
  9
$PUCSORGLEFT
 10
0.0
 20
0.0
 30
0.0
  9
$PUCSORGRIGHT
 10
0.0
 20
0.0
 30
0.0
  9
$PUCSORGFRONT
 10
0.0
 20
0.0
 30
0.0
  9
$PUCSORGBACK
 10
0.0
 20
0.0
 30
0.0
  9
$USERI1
 70
     0
  9
$USERI2
 70
     0
  9
$USERI3
 70
     0
  9
$USERI4
 70
     0
  9
$USERI5
 70
     0
  9
$USERR1
 40
0.0
  9
$USERR2
 40
0.0
  9
$USERR3
 40
0.0
  9
$USERR4
 40
0.0
  9
$USERR5
 40
0.0
  9
$WORLDVIEW
 70
     1
  9
$SHADEDGE
 70
     3
  9
$SHADEDIF
 70
    70
  9
$TILEMODE
 70
     1
  9
$MAXACTVP
 70
    64
  9
$PINSBASE
 10
0.0
 20
0.0
 30
0.0
  9
$PLIMCHECK
 70
     0
  9
$PEXTMIN
 10
1.000000000000000E+20
 20
1.000000000000000E+20
 30
1.000000000000000E+20
  9
$PEXTMAX
 10
-1.000000000000000E+20
 20
-1.000000000000000E+20
 30
-1.000000000000000E+20
  9
$PLIMMIN
 10
0.0
 20
0.0
  9
$PLIMMAX
 10
12.0
 20
9.0
  9
$UNITMODE
 70
     0
  9
$VISRETAIN
 70
     1
  9
$PLINEGEN
 70
     0
  9
$PSLTSCALE
 70
     1
  9
$TREEDEPTH
 70
  3020
  9
$CMLSTYLE
  2
Standard
  9
$CMLJUST
 70
     0
  9
$CMLSCALE
 40
1.0
  9
$PROXYGRAPHICS
 70
     1
  9
$MEASUREMENT
 70
     0
  9
$CELWEIGHT
370
    -1
  9
$ENDCAPS
280
     0
  9
$JOINSTYLE
280
     0
  9
$LWDISPLAY
290
     1
  9
$INSUNITS
 70
     1
  9
$HYPERLINKBASE
  1

  9
$STYLESHEET
  1

  9
$XEDIT
290
     1
  9
$CEPSNTYPE
380
     0
  9
$PSTYLEMODE
290
     1
  9
$FINGERPRINTGUID
  2
{6514428C-1C6C-48A4-BC3F-23EEA29B9F72}
  9
$VERSIONGUID
  2
{FAEB1C32-E019-11D5-929B-00C0DF256EC4}
  9
$EXTNAMES
290
     1
  9
$PSVPSCALE
 40
0.0
  9
$OLESTARTUP
290
     0
  9
$SORTENTS
280
   127
  9
$INDEXCTL
280
     0
  9
$HIDETEXT
280
     1
  9
$XCLIPFRAME
290
     0
  9
$HALOGAP
280
     0
  9
$OBSCOLOR
 70
   257
  9
$OBSLTYPE
280
     0
  9
$INTERSECTIONDISPLAY
280
     0
  9
$INTERSECTIONCOLOR
 70
   257
  9
$DIMASSOC
280
     2
  9
$PROJECTNAME
  1

  0
ENDSEC
  0
SECTION
  2
CLASSES
  0
CLASS
  1
ACDBDICTIONARYWDFLT
  2
AcDbDictionaryWithDefault
  3
ObjectDBX Classes
 90
        0
 91
        3
280
     0
281
     0
  0
CLASS
  1
VISUALSTYLE
  2
AcDbVisualStyle
  3
ObjectDBX Classes
 90
     4095
 91
        3
280
     0
281
     0
  0
ENDSEC
  0
SECTION
  2
TABLES
  0
TABLE
  2
VPORT
  5
8
330
0
100
AcDbSymbolTable
 70
     1
  0
VPORT
  5
29
330
8
100
AcDbSymbolTableRecord
100
AcDbViewportTableRecord
  2
*Active
 70
     0
 10
0.0
 20
0.0
 11
1.0
 21
1.0
 12
0.0
 22
0.0
 13
0.0
 23
0.0
 14
0.5
 24
0.5
 15
0.5
 25
0.5
 16
0.0
 26
0.0
 36
1.0
 17
75.00050386037314
 27
15.00020412493919
 37
0.0
 40
179.9998656776563
 41
1.0
 42
50.0
 43
0.0
 44
0.0
 50
0.0
 51
0.0
 71
     0
 72
   100
 73
     1
 74
     3
 75
     0
 76
     0
 77
     0
 78
     0
281
     0
 65
     1
110
0.0
120
0.0
130
0.0
111
1.0
121
0.0
131
0.0
112
0.0
122
1.0
132
0.0
 79
     0
146
0.0
  0
ENDTAB
  0
TABLE
  2
LTYPE
  5
5
330
0
100
AcDbSymbolTable
 70
     1
  0
LTYPE
  5
14
330
5
100
AcDbSymbolTableRecord
100
AcDbLinetypeTableRecord
  2
ByBlock
 70
     0
  3

 72
    65
 73
     0
 40
0.0
  0
LTYPE
  5
15
330
5
100
AcDbSymbolTableRecord
100
AcDbLinetypeTableRecord
  2
ByLayer
 70
     0
  3

 72
    65
 73
     0
 40
0.0
  0
LTYPE
  5
16
330
5
100
AcDbSymbolTableRecord
100
AcDbLinetypeTableRecord
  2
Continuous
 70
     0
  3
Solid line
 72
    65
 73
     0
 40
0.0
  0
ENDTAB
  0
TABLE
  2
LAYER
  5
2
330
0
100
AcDbSymbolTable
 70
     3
  0
LAYER
  5
10
330
2
100
AcDbSymbolTableRecord
100
AcDbLayerTableRecord
  2
0
 70
     0
 62
     7
  6
Continuous
370
    -3
390
F
  0
LAYER
  5
3B
330
2
100
AcDbSymbolTableRecord
100
AcDbLayerTableRecord
  2
Livello 3
 70
     0
 62
     7
  6
Continuous
370
    -3
390
F
  0
LAYER
  5
3C
330
2
100
AcDbSymbolTableRecord
100
AcDbLayerTableRecord
  2
Livello 5
 70
     0
 62
     7
  6
Continuous
370
    -3
390
F
  0
ENDTAB
  0
TABLE
  2
STYLE
  5
3
330
0
100
AcDbSymbolTable
 70
     1
  0
STYLE
  5
11
330
3
100
AcDbSymbolTableRecord
100
AcDbTextStyleTableRecord
  2
Standard
 70
     0
 40
0.0
 41
1.0
 50
0.0
 71
     0
 42
0.2
  3
txt
  4

  0
ENDTAB
  0
TABLE
  2
VIEW
  5
6
330
0
100
AcDbSymbolTable
 70
     0
  0
ENDTAB
  0
TABLE
  2
UCS
  5
7
330
0
100
AcDbSymbolTable
 70
     0
  0
ENDTAB
  0
TABLE
  2
APPID
  5
9
330
0
100
AcDbSymbolTable
 70
     1
  0
APPID
  5
12
330
9
100
AcDbSymbolTableRecord
100
AcDbRegAppTableRecord
  2
ACAD
 70
     0
  0
ENDTAB
  0
TABLE
  2
DIMSTYLE
  5
A
330
0
100
AcDbSymbolTable
 70
     1
100
AcDbDimStyleTable
  0
DIMSTYLE
105
27
330
A
100
AcDbSymbolTableRecord
100
AcDbDimStyleTableRecord
  2
Standard
 70
     0
340
11
  0
ENDTAB
  0
TABLE
  2
BLOCK_RECORD
  5
1
330
0
100
AcDbSymbolTable
 70
     1
  0
BLOCK_RECORD
  5
1F
330
1
100
AcDbSymbolTableRecord
100
AcDbBlockTableRecord
  2
*Model_Space
340
22
  0
BLOCK_RECORD
  5
1B
330
1
100
AcDbSymbolTableRecord
100
AcDbBlockTableRecord
  2
*Paper_Space
340
1E
  0
BLOCK_RECORD
  5
23
330
1
100
AcDbSymbolTableRecord
100
AcDbBlockTableRecord
  2
*Paper_Space0
340
26
  0
ENDTAB
  0
ENDSEC
  0
SECTION
  2
BLOCKS
  0
BLOCK
  5
20
330
1F
100
AcDbEntity
  8
0
100
AcDbBlockBegin
  2
*Model_Space
 70
     0
 71
     0
 10
0.0
 20
0.0
 30
0.0
  3
*Model_Space
  1

  0
ENDBLK
  5
21
330
1F
100
AcDbEntity
  8
0
100
AcDbBlockEnd
  0
BLOCK
  5
1C
330
1B
100
AcDbEntity
 67
     1
  8
0
100
AcDbBlockBegin
  2
*Paper_Space
 70
     0
 71
     0
 10
0.0
 20
0.0
 30
0.0
  3
*Paper_Space
  1

  0
ENDBLK
  5
1D
330
1B
100
AcDbEntity
 67
     1
  8
0
100
AcDbBlockEnd
  0
BLOCK
  5
24
330
23
100
AcDbEntity
  8
0
100
AcDbBlockBegin
  2
*Paper_Space0
 70
     0
 71
     0
 10
0.0
 20
0.0
 30
0.0
  3
*Paper_Space0
  1

  0
ENDBLK
  5
25
330
23
100
AcDbEntity
  8
0
100
AcDbBlockEnd
  0
ENDSEC
  0
SECTION
  2
ENTITIES
  0
POLYLINE
  5
3D
330
1F
100
AcDbEntity
  8
Livello 5
370
     0
100
AcDb2dPolyline
 66
     1
 10
0.0
 20
0.0
 30
0.0
  0
VERTEX
  5
3E
330
3D
100
AcDbEntity
  8
Livello 5
370
     0
100
AcDbVertex
100
AcDb2dVertex
 10
35.56647677062227
 20
2.532145181658631
 30
0.0
  0
VERTEX
  5
3F
330
3D
100
AcDbEntity
  8
Livello 5
370
     0
100
AcDbVertex
100
AcDb2dVertex
 10
34.85368651472408
 20
2.995166014876208
 30
0.0
  0
VERTEX
  5
40
330
3D
100
AcDbEntity
  8
Livello 5
370
     0
100
AcDbVertex
100
AcDb2dVertex
 10
50.92574597251162
 20
27.73835855426333
 30
0.0
  0
VERTEX
  5
41
330
3D
100
AcDbEntity
  8
Livello 5
370
     0
100
AcDbVertex
100
AcDb2dVertex
 10
51.63853622840981
 20
27.27533772104575
 30
0.0
  0
VERTEX
  5
42
330
3D
100
AcDbEntity
  8
Livello 5
370
     0
100
AcDbVertex
100
AcDb2dVertex
 10
35.56647677062227
 20
2.532145181658631
 30
0.0
  0
SEQEND
  5
43
330
3D
100
AcDbEntity
  8
Livello 5
370
     0
  0
HATCH
  5
44
330
1F
100
AcDbEntity
  8
Livello 5
 62
     7
420
 16777215
100
AcDbHatch
 10
0.0
 20
0.0
 30
0.0
210
0.0
220
0.0
230
1.0
  2
SOLID
 70
     1
 71
     0
 91
        1
 92
        1
 93
        4
 72
     1
 10
35.56647677062227
 20
2.532145181658631
 11
34.85368651472408
 21
2.995166014876208
 72
     1
 10
34.85368651472408
 20
2.995166014876208
 11
50.92574597251162
 21
27.73835855426333
 72
     1
 10
50.92574597251162
 20
27.73835855426333
 11
51.63853622840981
 21
27.27533772104575
 72
     1
 10
51.63853622840981
 20
27.27533772104575
 11
35.56647677062227
 21
2.532145181658631
 97
        0
 75
     2
 76
     1
 98
        0
  0
POLYLINE
  5
45
330
1F
100
AcDbEntity
  8
Livello 5
370
     0
100
AcDb2dPolyline
 66
     1
 10
0.0
 20
0.0
 30
0.0
  0
VERTEX
  5
46
330
45
100
AcDbEntity
  8
Livello 5
370
     0
100
AcDbVertex
100
AcDb2dVertex
 10
6.433026799607021
 20
61.80329045763946
 30
0.0
  0
VERTEX
  5
47
330
45
100
AcDbEntity
  8
Livello 5
370
     0
100
AcDbVertex
100
AcDb2dVertex
 10
-15.21181911512066
 20
61.80329045763946
 30
0.0
  0
VERTEX
  5
48
330
45
100
AcDbEntity
  8
Livello 5
370
     0
100
AcDbVertex
100
AcDb2dVertex
 10
-15.21181911512066
 20
62.65319551385059
 30
0.0
  0
VERTEX
  5
49
330
45
100
AcDbEntity
  8
Livello 5
370
     0
100
AcDbVertex
100
AcDb2dVertex
 10
6.433026799607021
 20
62.65319551385059
 30
0.0
  0
VERTEX
  5
4A
330
45
100
AcDbEntity
  8
Livello 5
370
     0
100
AcDbVertex
100
AcDb2dVertex
 10
6.433026799607021
 20
61.80329045763946
 30
0.0
  0
SEQEND
  5
4B
330
45
100
AcDbEntity
  8
Livello 5
370
     0
  0
HATCH
  5
4C
330
1F
100
AcDbEntity
  8
Livello 5
 62
     7
420
 16777215
100
AcDbHatch
 10
0.0
 20
0.0
 30
0.0
210
0.0
220
0.0
230
1.0
  2
SOLID
 70
     1
 71
     0
 91
        1
 92
        1
 93
        4
 72
     1
 10
6.433026799607021
 20
61.80329045763946
 11
-15.21181911512066
 21
61.80329045763946
 72
     1
 10
-15.21181911512066
 20
61.80329045763946
 11
-15.21181911512066
 21
62.65319551385059
 72
     1
 10
-15.21181911512066
 20
62.65319551385059
 11
6.433026799607022
 21
62.65319551385059
 72
     1
 10
6.433026799607021
 20
62.65319551385059
 11
6.433026799607021
 21
61.80329045763946
 97
        0
 75
     2
 76
     1
 98
        0
  0
POLYLINE
  5
4D
330
1F
100
AcDbEntity
  8
Livello 5
370
     0
100
AcDb2dPolyline
 66
     1
 10
0.0
 20
0.0
 30
0.0
  0
VERTEX
  5
4E
330
4D
100
AcDbEntity
  8
Livello 5
370
     0
100
AcDbVertex
100
AcDb2dVertex
 10
10.75576035972425
 20
76.19293753520525
 30
0.0
  0
VERTEX
  5
4F
330
4D
100
AcDbEntity
  8
Livello 5
370
     0
100
AcDbVertex
100
AcDb2dVertex
 10
9.90585530351312
 20
76.19293753520525
 30
0.0
  0
VERTEX
  5
50
330
4D
100
AcDbEntity
  8
Livello 5
370
     0
100
AcDbVertex
100
AcDb2dVertex
 10
9.90585530351312
 20
104.8173746482748
 30
0.0
  0
VERTEX
  5
51
330
4D
100
AcDbEntity
  8
Livello 5
370
     0
100
AcDbVertex
100
AcDb2dVertex
 10
10.75576035972425
 20
104.8173746482748
 30
0.0
  0
VERTEX
  5
52
330
4D
100
AcDbEntity
  8
Livello 5
370
     0
100
AcDbVertex
100
AcDb2dVertex
 10
10.75576035972425
 20
76.19293753520525
 30
0.0
  0
SEQEND
  5
53
330
4D
100
AcDbEntity
  8
Livello 5
370
     0
  0
HATCH
  5
54
330
1F
100
AcDbEntity
  8
Livello 5
 62
     7
420
 16777215
100
AcDbHatch
 10
0.0
 20
0.0
 30
0.0
210
0.0
220
0.0
230
1.0
  2
SOLID
 70
     1
 71
     0
 91
        1
 92
        1
 93
        4
 72
     1
 10
10.75576035972425
 20
76.19293753520525
 11
9.90585530351312
 21
76.19293753520525
 72
     1
 10
9.90585530351312
 20
76.19293753520525
 11
9.90585530351312
 21
104.8173746482748
 72
     1
 10
9.90585530351312
 20
104.8173746482748
 11
10.75576035972425
 21
104.8173746482748
 72
     1
 10
10.75576035972425
 20
104.8173746482748
 11
10.75576035972425
 21
76.19293753520525
 97
        0
 75
     2
 76
     1
 98
        0
  0
POLYLINE
  5
55
330
1F
100
AcDbEntity
  8
Livello 5
370
     0
100
AcDb2dPolyline
 66
     1
 10
0.0
 20
0.0
 30
0.0
  0
VERTEX
  5
56
330
55
100
AcDbEntity
  8
Livello 5
370
     0
100
AcDbVertex
100
AcDb2dVertex
 10
164.789596855504
 20
-14.8139105865743
 30
0.0
  0
VERTEX
  5
57
330
55
100
AcDbEntity
  8
Livello 5
370
     0
100
AcDbVertex
100
AcDb2dVertex
 10
143.5226779155082
 20
-14.8139105865743
 30
0.0
  0
VERTEX
  5
58
330
55
100
AcDbEntity
  8
Livello 5
370
     0
100
AcDbVertex
100
AcDb2dVertex
 10
143.5226779155082
 20
-13.96366102081464
 30
0.0
  0
VERTEX
  5
59
330
55
100
AcDbEntity
  8
Livello 5
370
     0
100
AcDbVertex
100
AcDb2dVertex
 10
164.789596855504
 20
-13.96366102081464
 30
0.0
  0
VERTEX
  5
5A
330
55
100
AcDbEntity
  8
Livello 5
370
     0
100
AcDbVertex
100
AcDb2dVertex
 10
164.789596855504
 20
-14.8139105865743
 30
0.0
  0
SEQEND
  5
5B
330
55
100
AcDbEntity
  8
Livello 5
370
     0
  0
HATCH
  5
5C
330
1F
100
AcDbEntity
  8
Livello 5
 62
     7
420
 16777215
100
AcDbHatch
 10
0.0
 20
0.0
 30
0.0
210
0.0
220
0.0
230
1.0
  2
SOLID
 70
     1
 71
     0
 91
        1
 92
        1
 93
        4
 72
     1
 10
164.789596855504
 20
-14.8139105865743
 11
143.5226779155082
 21
-14.8139105865743
 72
     1
 10
143.5226779155082
 20
-14.8139105865743
 11
143.5226779155082
 21
-13.96366102081464
 72
     1
 10
143.5226779155082
 20
-13.96366102081464
 11
164.789596855504
 21
-13.96366102081464
 72
     1
 10
164.789596855504
 20
-13.96366102081464
 11
164.789596855504
 21
-14.8139105865743
 97
        0
 75
     2
 76
     1
 98
        0
  0
POLYLINE
  5
5D
330
1F
100
AcDbEntity
  8
Livello 5
370
     0
100
AcDb2dPolyline
 66
     1
 10
0.0
 20
0.0
 30
0.0
  0
VERTEX
  5
5E
330
5D
100
AcDbEntity
  8
Livello 5
370
     0
100
AcDbVertex
100
AcDb2dVertex
 10
127.5140082146493
 20
-75.18404132234983
 30
0.0
  0
VERTEX
  5
5F
330
5D
100
AcDbEntity
  8
Livello 5
370
     0
100
AcDbVertex
100
AcDb2dVertex
 10
126.6637586488896
 20
-75.18404132234983
 30
0.0
  0
VERTEX
  5
60
330
5D
100
AcDbEntity
  8
Livello 5
370
     0
100
AcDbVertex
100
AcDb2dVertex
 10
126.6637586488896
 20
-33.01745062108591
 30
0.0
  0
VERTEX
  5
61
330
5D
100
AcDbEntity
  8
Livello 5
370
     0
100
AcDbVertex
100
AcDb2dVertex
 10
127.5140082146493
 20
-33.01745062108591
 30
0.0
  0
VERTEX
  5
62
330
5D
100
AcDbEntity
  8
Livello 5
370
     0
100
AcDbVertex
100
AcDb2dVertex
 10
127.5140082146493
 20
-75.18404132234983
 30
0.0
  0
SEQEND
  5
63
330
5D
100
AcDbEntity
  8
Livello 5
370
     0
  0
HATCH
  5
64
330
1F
100
AcDbEntity
  8
Livello 5
 62
     7
420
 16777215
100
AcDbHatch
 10
0.0
 20
0.0
 30
0.0
210
0.0
220
0.0
230
1.0
  2
SOLID
 70
     1
 71
     0
 91
        1
 92
        1
 93
        4
 72
     1
 10
127.5140082146493
 20
-75.18404132234983
 11
126.6637586488896
 21
-75.18404132234983
 72
     1
 10
126.6637586488896
 20
-75.18404132234983
 11
126.6637586488896
 21
-33.01745062108591
 72
     1
 10
126.6637586488896
 20
-33.01745062108591
 11
127.5140082146493
 21
-33.01745062108591
 72
     1
 10
127.5140082146493
 20
-33.01745062108591
 11
127.5140082146493
 21
-75.18404132234983
 97
        0
 75
     2
 76
     1
 98
        0
  0
POLYLINE
  5
65
330
1F
100
AcDbEntity
  8
Livello 5
370
     0
100
AcDb2dPolyline
 66
     1
 10
0.0
 20
0.0
 30
0.0
  0
VERTEX
  5
66
330
65
100
AcDbEntity
  8
Livello 5
370
     0
100
AcDbVertex
100
AcDb2dVertex
 10
98.58416338681229
 20
-43.26316459421894
 30
0.0
  0
VERTEX
  5
67
330
65
100
AcDbEntity
  8
Livello 5
370
     0
100
AcDbVertex
100
AcDb2dVertex
 10
97.73391382105264
 20
-43.26316459421894
 30
0.0
  0
VERTEX
  5
68
330
65
100
AcDbEntity
  8
Livello 5
370
     0
100
AcDbVertex
100
AcDb2dVertex
 10
97.73391382105264
 20
-8.071514212391843
 30
0.0
  0
VERTEX
  5
69
330
65
100
AcDbEntity
  8
Livello 5
370
     0
100
AcDbVertex
100
AcDb2dVertex
 10
98.58416338681229
 20
-8.071514212391843
 30
0.0
  0
VERTEX
  5
6A
330
65
100
AcDbEntity
  8
Livello 5
370
     0
100
AcDbVertex
100
AcDb2dVertex
 10
98.58416338681229
 20
-43.26316459421894
 30
0.0
  0
SEQEND
  5
6B
330
65
100
AcDbEntity
  8
Livello 5
370
     0
  0
HATCH
  5
6C
330
1F
100
AcDbEntity
  8
Livello 5
 62
     7
420
 16777215
100
AcDbHatch
 10
0.0
 20
0.0
 30
0.0
210
0.0
220
0.0
230
1.0
  2
SOLID
 70
     1
 71
     0
 91
        1
 92
        1
 93
        4
 72
     1
 10
98.58416338681229
 20
-43.26316459421894
 11
97.73391382105264
 21
-43.26316459421894
 72
     1
 10
97.73391382105264
 20
-43.26316459421894
 11
97.73391382105264
 21
-8.071514212391847
 72
     1
 10
97.73391382105264
 20
-8.071514212391843
 11
98.58416338681229
 21
-8.071514212391843
 72
     1
 10
98.58416338681229
 20
-8.071514212391843
 11
98.58416338681229
 21
-43.26316459421894
 97
        0
 75
     2
 76
     1
 98
        0
  0
POLYLINE
  5
6D
330
1F
100
AcDbEntity
  8
Livello 5
370
     0
100
AcDb2dPolyline
 66
     1
 10
0.0
 20
0.0
 30
0.0
  0
VERTEX
  5
6E
330
6D
100
AcDbEntity
  8
Livello 5
370
     0
100
AcDbVertex
100
AcDb2dVertex
 10
70.91832409251347
 20
-49.2955267888914
 30
0.0
  0
VERTEX
  5
6F
330
6D
100
AcDbEntity
  8
Livello 5
370
     0
100
AcDbVertex
100
AcDb2dVertex
 10
38.98797335179815
 20
-30.46153428057906
 30
0.0
  0
VERTEX
  5
70
330
6D
100
AcDbEntity
  8
Livello 5
370
     0
100
AcDbVertex
100
AcDb2dVertex
 10
39.41964381609995
 20
-29.72910698041495
 30
0.0
  0
VERTEX
  5
71
330
6D
100
AcDbEntity
  8
Livello 5
370
     0
100
AcDbVertex
100
AcDb2dVertex
 10
71.34999455681528
 20
-48.56309948872728
 30
0.0
  0
VERTEX
  5
72
330
6D
100
AcDbEntity
  8
Livello 5
370
     0
100
AcDbVertex
100
AcDb2dVertex
 10
70.91832409251347
 20
-49.2955267888914
 30
0.0
  0
SEQEND
  5
73
330
6D
100
AcDbEntity
  8
Livello 5
370
     0
  0
HATCH
  5
74
330
1F
100
AcDbEntity
  8
Livello 5
 62
     7
420
 16777215
100
AcDbHatch
 10
0.0
 20
0.0
 30
0.0
210
0.0
220
0.0
230
1.0
  2
SOLID
 70
     1
 71
     0
 91
        1
 92
        1
 93
        4
 72
     1
 10
70.91832409251347
 20
-49.2955267888914
 11
38.98797335179815
 21
-30.46153428057906
 72
     1
 10
38.98797335179815
 20
-30.46153428057906
 11
39.41964381609995
 21
-29.72910698041495
 72
     1
 10
39.41964381609995
 20
-29.72910698041495
 11
71.34999455681528
 21
-48.56309948872728
 72
     1
 10
71.34999455681528
 20
-48.56309948872728
 11
70.91832409251347
 21
-49.2955267888914
 97
        0
 75
     2
 76
     1
 98
        0
  0
POLYLINE
  5
75
330
1F
100
AcDbEntity
  8
Livello 5
370
     0
100
AcDb2dPolyline
 66
     1
 10
0.0
 20
0.0
 30
0.0
  0
VERTEX
  5
76
330
75
100
AcDbEntity
  8
Livello 5
370
     0
100
AcDbVertex
100
AcDb2dVertex
 10
30.64774169155682
 20
-75.18404132234983
 30
0.0
  0
VERTEX
  5
77
330
75
100
AcDbEntity
  8
Livello 5
370
     0
100
AcDbVertex
100
AcDb2dVertex
 10
29.79783663534568
 20
-75.18404132234983
 30
0.0
  0
VERTEX
  5
78
330
75
100
AcDbEntity
  8
Livello 5
370
     0
100
AcDbVertex
100
AcDb2dVertex
 10
29.79783663534568
 20
-33.71577147594606
 30
0.0
  0
VERTEX
  5
79
330
75
100
AcDbEntity
  8
Livello 5
370
     0
100
AcDbVertex
100
AcDb2dVertex
 10
30.64774169155682
 20
-33.71577147594606
 30
0.0
  0
VERTEX
  5
7A
330
75
100
AcDbEntity
  8
Livello 5
370
     0
100
AcDbVertex
100
AcDb2dVertex
 10
30.64774169155682
 20
-75.18404132234983
 30
0.0
  0
SEQEND
  5
7B
330
75
100
AcDbEntity
  8
Livello 5
370
     0
  0
HATCH
  5
7C
330
1F
100
AcDbEntity
  8
Livello 5
 62
     7
420
 16777215
100
AcDbHatch
 10
0.0
 20
0.0
 30
0.0
210
0.0
220
0.0
230
1.0
  2
SOLID
 70
     1
 71
     0
 91
        1
 92
        1
 93
        4
 72
     1
 10
30.64774169155682
 20
-75.18404132234983
 11
29.79783663534568
 21
-75.18404132234983
 72
     1
 10
29.79783663534568
 20
-75.18404132234983
 11
29.79783663534568
 21
-33.71577147594606
 72
     1
 10
29.79783663534568
 20
-33.71577147594606
 11
30.64774169155682
 21
-33.71577147594606
 72
     1
 10
30.64774169155682
 20
-33.71577147594606
 11
30.64774169155682
 21
-75.18404132234983
 97
        0
 75
     2
 76
     1
 98
        0
  0
POLYLINE
  5
7D
330
1F
100
AcDbEntity
  8
Livello 5
370
     0
100
AcDb2dPolyline
 66
     1
 10
0.0
 20
0.0
 30
0.0
  0
VERTEX
  5
7E
330
7D
100
AcDbEntity
  8
Livello 5
370
     0
100
AcDbVertex
100
AcDb2dVertex
 10
26.13259954858838
 20
-28.66457247547275
 30
0.0
  0
VERTEX
  5
7F
330
7D
100
AcDbEntity
  8
Livello 5
370
     0
100
AcDbVertex
100
AcDb2dVertex
 10
-15.21181911512066
 20
-28.66457247547275
 30
0.0
  0
VERTEX
  5
80
330
7D
100
AcDbEntity
  8
Livello 5
370
     0
100
AcDbVertex
100
AcDb2dVertex
 10
-15.21181911512066
 20
-27.81432290971309
 30
0.0
  0
VERTEX
  5
81
330
7D
100
AcDbEntity
  8
Livello 5
370
     0
100
AcDbVertex
100
AcDb2dVertex
 10
26.13259954858838
 20
-27.81432290971309
 30
0.0
  0
VERTEX
  5
82
330
7D
100
AcDbEntity
  8
Livello 5
370
     0
100
AcDbVertex
100
AcDb2dVertex
 10
26.13259954858838
 20
-28.66457247547275
 30
0.0
  0
SEQEND
  5
83
330
7D
100
AcDbEntity
  8
Livello 5
370
     0
  0
HATCH
  5
84
330
1F
100
AcDbEntity
  8
Livello 5
 62
     7
420
 16777215
100
AcDbHatch
 10
0.0
 20
0.0
 30
0.0
210
0.0
220
0.0
230
1.0
  2
SOLID
 70
     1
 71
     0
 91
        1
 92
        1
 93
        4
 72
     1
 10
26.13259954858838
 20
-28.66457247547275
 11
-15.21181911512065
 21
-28.66457247547275
 72
     1
 10
-15.21181911512066
 20
-28.66457247547275
 11
-15.21181911512066
 21
-27.81432290971309
 72
     1
 10
-15.21181911512066
 20
-27.81432290971309
 11
26.13259954858838
 21
-27.81432290971309
 72
     1
 10
26.13259954858838
 20
-27.81432290971309
 11
26.13259954858838
 21
-28.66457247547275
 97
        0
 75
     2
 76
     1
 98
        0
  0
POLYLINE
  5
85
330
1F
100
AcDbEntity
  8
Livello 5
370
     0
100
AcDb2dPolyline
 66
     1
 10
0.0
 20
0.0
 30
0.0
  0
VERTEX
  5
86
330
85
100
AcDbEntity
  8
Livello 5
370
     0
100
AcDbVertex
100
AcDb2dVertex
 10
84.03828122899043
 20
87.67165118250918
 30
0.0
  0
VERTEX
  5
87
330
85
100
AcDbEntity
  8
Livello 5
370
     0
100
AcDbVertex
100
AcDb2dVertex
 10
83.18803166323077
 20
87.67165118250918
 30
0.0
  0
VERTEX
  5
88
330
85
100
AcDbEntity
  8
Livello 5
370
     0
100
AcDbVertex
100
AcDb2dVertex
 10
83.18803166323077
 20
104.8173746482748
 30
0.0
  0
VERTEX
  5
89
330
85
100
AcDbEntity
  8
Livello 5
370
     0
100
AcDbVertex
100
AcDb2dVertex
 10
84.03828122899043
 20
104.8173746482748
 30
0.0
  0
VERTEX
  5
8A
330
85
100
AcDbEntity
  8
Livello 5
370
     0
100
AcDbVertex
100
AcDb2dVertex
 10
84.03828122899043
 20
87.67165118250918
 30
0.0
  0
SEQEND
  5
8B
330
85
100
AcDbEntity
  8
Livello 5
370
     0
  0
HATCH
  5
8C
330
1F
100
AcDbEntity
  8
Livello 5
 62
     7
420
 16777215
100
AcDbHatch
 10
0.0
 20
0.0
 30
0.0
210
0.0
220
0.0
230
1.0
  2
SOLID
 70
     1
 71
     0
 91
        1
 92
        1
 93
        4
 72
     1
 10
84.03828122899043
 20
87.67165118250918
 11
83.18803166323077
 21
87.67165118250918
 72
     1
 10
83.18803166323077
 20
87.67165118250918
 11
83.18803166323077
 21
104.8173746482748
 72
     1
 10
83.18803166323077
 20
104.8173746482748
 11
84.03828122899043
 21
104.8173746482748
 72
     1
 10
84.03828122899043
 20
104.8173746482748
 11
84.03828122899043
 21
87.67165118250918
 97
        0
 75
     2
 76
     1
 98
        0
  0
ENDSEC
  0
SECTION
  2
OBJECTS
  0
DICTIONARY
  5
C
330
0
100
AcDbDictionary
281
     1
  3
ACAD_GROUP
350
D
  3
ACAD_LAYOUT
350
1A
  3
ACAD_MLINESTYLE
350
17
  3
ACAD_PLOTSETTINGS
350
19
  3
ACAD_PLOTSTYLENAME
350
E
  3
ACAD_TABLESTYLE
350
8D
  3
ACAD_VISUALSTYLE
350
2A
  0
DICTIONARY
  5
D
102
{ACAD_REACTORS
330
C
102
}
330
C
100
AcDbDictionary
281
     1
  0
DICTIONARY
  5
1A
102
{ACAD_REACTORS
330
C
102
}
330
C
100
AcDbDictionary
281
     1
  3
Layout1
350
1E
  3
Layout2
350
26
  3
Model
350
22
  0
DICTIONARY
  5
17
102
{ACAD_REACTORS
330
C
102
}
330
C
100
AcDbDictionary
281
     1
  3
Standard
350
18
  0
DICTIONARY
  5
19
102
{ACAD_REACTORS
330
C
102
}
330
C
100
AcDbDictionary
281
     1
  0
ACDBDICTIONARYWDFLT
  5
E
102
{ACAD_REACTORS
330
C
102
}
330
C
100
AcDbDictionary
281
     1
  3
Normal
350
F
100
AcDbDictionaryWithDefault
340
F
  0
DICTIONARY
  5
8D
102
{ACAD_REACTORS
330
C
102
}
330
C
100
AcDbDictionary
281
     1
  0
DICTIONARY
  5
2A
102
{ACAD_REACTORS
330
C
102
}
330
C
100
AcDbDictionary
281
     1
  3
2dWireframe
350
2F
  3
3D Hidden
350
31
  3
3dWireframe
350
30
  3
Basic
350
32
  3
Brighten
350
36
  3
ColorChange
350
3A
  3
Conceptual
350
34
  3
Dim
350
35
  3
Facepattern
350
39
  3
Flat
350
2B
  3
FlatWithEdges
350
2C
  3
Gouraud
350
2D
  3
GouraudWithEdges
350
2E
  3
Linepattern
350
38
  3
Realistic
350
33
  3
Thicken
350
37
  0
LAYOUT
  5
1E
102
{ACAD_REACTORS
330
1A
102
}
330
1A
100
AcDbPlotSettings
  1

  2
none_device
  4

  6

 40
0.0
 41
0.0
 42
0.0
 43
0.0
 44
0.0
 45
0.0
 46
0.0
 47
0.0
 48
0.0
 49
0.0
140
0.0
141
0.0
142
1.0
143
1.0
 70
   688
 72
     0
 73
     0
 74
     5
  7

 75
    16
 76
     0
 77
     2
 78
   300
147
1.0
148
0.0
149
0.0
100
AcDbLayout
  1
Layout1
 70
     1
 71
     1
 10
0.0
 20
0.0
 11
12.0
 21
9.0
 12
0.0
 22
0.0
 32
0.0
 14
1.000000000000000E+20
 24
1.000000000000000E+20
 34
1.000000000000000E+20
 15
-1.000000000000000E+20
 25
-1.000000000000000E+20
 35
-1.000000000000000E+20
146
0.0
 13
0.0
 23
0.0
 33
0.0
 16
1.0
 26
0.0
 36
0.0
 17
0.0
 27
1.0
 37
0.0
 76
     0
330
1B
  0
LAYOUT
  5
26
102
{ACAD_REACTORS
330
1A
102
}
330
1A
100
AcDbPlotSettings
  1

  2
none_device
  4

  6

 40
0.0
 41
0.0
 42
0.0
 43
0.0
 44
0.0
 45
0.0
 46
0.0
 47
0.0
 48
0.0
 49
0.0
140
0.0
141
0.0
142
1.0
143
1.0
 70
   688
 72
     0
 73
     0
 74
     5
  7

 75
    16
 76
     0
 77
     2
 78
   300
147
1.0
148
0.0
149
0.0
100
AcDbLayout
  1
Layout2
 70
     1
 71
     2
 10
0.0
 20
0.0
 11
0.0
 21
0.0
 12
0.0
 22
0.0
 32
0.0
 14
0.0
 24
0.0
 34
0.0
 15
0.0
 25
0.0
 35
0.0
146
0.0
 13
0.0
 23
0.0
 33
0.0
 16
1.0
 26
0.0
 36
0.0
 17
0.0
 27
1.0
 37
0.0
 76
     0
330
23
  0
LAYOUT
  5
22
102
{ACAD_REACTORS
330
1A
102
}
330
1A
100
AcDbPlotSettings
  1

  2
none_device
  4

  6

 40
0.0
 41
0.0
 42
0.0
 43
0.0
 44
0.0
 45
0.0
 46
0.0
 47
0.0
 48
0.0
 49
0.0
140
0.0
141
0.0
142
1.0
143
1.0
 70
  1712
 72
     0
 73
     0
 74
     0
  7

 75
     0
 76
     0
 77
     2
 78
   300
147
1.0
148
0.0
149
0.0
100
AcDbLayout
  1
Model
 70
     1
 71
     0
 10
0.0
 20
0.0
 11
12.0
 21
9.0
 12
0.0
 22
0.0
 32
0.0
 14
1.000000000000000E+20
 24
1.000000000000000E+20
 34
1.000000000000000E+20
 15
-1.000000000000000E+20
 25
-1.000000000000000E+20
 35
-1.000000000000000E+20
146
0.0
 13
0.0
 23
0.0
 33
0.0
 16
1.0
 26
0.0
 36
0.0
 17
0.0
 27
1.0
 37
0.0
 76
     0
330
1F
331
29
  0
MLINESTYLE
  5
18
102
{ACAD_REACTORS
330
17
102
}
330
17
100
AcDbMlineStyle
  2
Standard
 70
     0
  3

 62
   256
 51
90.0
 52
90.0
 71
     2
 49
0.5
 62
   256
  6
BYLAYER
 49
-0.5
 62
   256
  6
BYLAYER
  0
ACDBPLACEHOLDER
  5
F
102
{ACAD_REACTORS
330
E
102
}
330
E
  0
VISUALSTYLE
  5
2F
102
{ACAD_REACTORS
330
2A
102
}
330
2A
100
AcDbVisualStyle
  2
2dWireframe
 70
     4
 71
     0
 72
     2
 73
     0
 90
        0
 40
-0.6
 41
-30.0
 62
     5
 63
     7
421
 16777215
 74
     1
 91
        4
 64
     7
 65
   257
 75
     1
175
     1
 42
1.0
 92
        0
 66
   257
 43
1.0
 76
     1
 77
     6
 78
     2
 67
     7
 79
     5
170
     0
171
     0
290
     0
174
     0
 93
        1
 44
0.0
173
     0
291
     0
 45
0.0
1001
ACAD
1000
AcDbSavedByObjectVersion
1070
     0
  0
VISUALSTYLE
  5
31
102
{ACAD_REACTORS
330
2A
102
}
330
2A
100
AcDbVisualStyle
  2
3D Hidden
 70
     6
 71
     1
 72
     2
 73
     2
 90
        0
 40
-0.6
 41
-30.0
 62
     5
 63
     7
421
 16777215
 74
     2
 91
        2
 64
     7
 65
   257
 75
     2
175
     1
 42
40.0
 92
        0
 66
   257
 43
1.0
 76
     1
 77
     6
 78
     2
 67
     7
 79
     3
170
     0
171
     0
290
     0
174
     0
 93
        1
 44
0.0
173
     0
291
     0
 45
0.0
1001
ACAD
1000
AcDbSavedByObjectVersion
1070
     0
  0
VISUALSTYLE
  5
30
102
{ACAD_REACTORS
330
2A
102
}
330
2A
100
AcDbVisualStyle
  2
3dWireframe
 70
     5
 71
     0
 72
     2
 73
     0
 90
        0
 40
-0.6
 41
-30.0
 62
     5
 63
     7
421
 16777215
 74
     1
 91
        4
 64
     7
 65
   257
 75
     1
175
     1
 42
1.0
 92
        0
 66
   257
 43
1.0
 76
     1
 77
     6
 78
     2
 67
     7
 79
     5
170
     0
171
     0
290
     0
174
     0
 93
        1
 44
0.0
173
     0
291
     0
 45
0.0
1001
ACAD
1000
AcDbSavedByObjectVersion
1070
     0
  0
VISUALSTYLE
  5
32
102
{ACAD_REACTORS
330
2A
102
}
330
2A
100
AcDbVisualStyle
  2
Basic
 70
     7
 71
     1
 72
     0
 73
     1
 90
        0
 40
-0.6
 41
-30.0
 62
     5
 63
     7
421
 16777215
 74
     0
 91
        4
 64
     7
 65
   257
 75
     1
175
     1
 42
1.0
 92
        8
 66
     7
 43
1.0
 76
     1
 77
     6
 78
     2
 67
     7
 79
     5
170
     0
171
     0
290
     0
174
     0
 93
        1
 44
0.0
173
     0
291
     1
 45
0.0
1001
ACAD
1000
AcDbSavedByObjectVersion
1070
     0
  0
VISUALSTYLE
  5
36
102
{ACAD_REACTORS
330
2A
102
}
330
2A
100
AcDbVisualStyle
  2
Brighten
 70
    12
 71
     2
 72
     2
 73
     0
 90
        0
 40
-0.6
 41
-30.0
 62
     5
 63
     7
421
 16777215
 74
     1
 91
        4
 64
     7
 65
   257
 75
     1
175
     1
 42
1.0
 92
        8
 66
     7
 43
1.0
 76
     1
 77
     6
 78
     2
 67
     7
 79
     5
170
     0
171
     0
290
     0
174
     0
 93
        1
 44
50.0
173
     0
291
     1
 45
0.0
1001
ACAD
1000
AcDbSavedByObjectVersion
1070
     0
  0
VISUALSTYLE
  5
3A
102
{ACAD_REACTORS
330
2A
102
}
330
2A
100
AcDbVisualStyle
  2
ColorChange
 70
    16
 71
     2
 72
     2
 73
     3
 90
        0
 40
-0.6
 41
-30.0
 62
     5
 63
     8
421
  8421504
 74
     1
 91
        4
 64
     7
 65
   257
 75
     1
175
     1
 42
1.0
 92
        8
 66
     8
424
  8421504
 43
1.0
 76
     1
 77
     6
 78
     2
 67
     7
 79
     5
170
     0
171
     0
290
     0
174
     0
 93
        1
 44
0.0
173
     0
291
     1
 45
0.0
1001
ACAD
1000
AcDbSavedByObjectVersion
1070
     0
  0
VISUALSTYLE
  5
34
102
{ACAD_REACTORS
330
2A
102
}
330
2A
100
AcDbVisualStyle
  2
Conceptual
 70
     9
 71
     3
 72
     2
 73
     0
 90
        0
 40
-0.6
 41
-30.0
 62
     5
 63
     7
421
 16777215
 74
     2
 91
        2
 64
     7
 65
   257
 75
     1
175
     1
 42
40.0
 92
        8
 66
     7
 43
1.0
 76
     1
 77
     6
 78
     2
 67
     7
 79
     3
170
     0
171
     0
290
     0
174
     0
 93
        1
 44
0.0
173
     0
291
     0
 45
0.0
1001
ACAD
1000
AcDbSavedByObjectVersion
1070
     0
  0
VISUALSTYLE
  5
35
102
{ACAD_REACTORS
330
2A
102
}
330
2A
100
AcDbVisualStyle
  2
Dim
 70
    11
 71
     2
 72
     2
 73
     0
 90
        0
 40
-0.6
 41
-30.0
 62
     5
 63
     7
421
 16777215
 74
     1
 91
        4
 64
     7
 65
   257
 75
     1
175
     1
 42
1.0
 92
        8
 66
     7
 43
1.0
 76
     1
 77
     6
 78
     2
 67
     7
 79
     5
170
     0
171
     0
290
     0
174
     0
 93
        1
 44
-50.0
173
     0
291
     1
 45
0.0
1001
ACAD
1000
AcDbSavedByObjectVersion
1070
     0
  0
VISUALSTYLE
  5
39
102
{ACAD_REACTORS
330
2A
102
}
330
2A
100
AcDbVisualStyle
  2
Facepattern
 70
    15
 71
     2
 72
     2
 73
     0
 90
        0
 40
-0.6
 41
-30.0
 62
     5
 63
     7
421
 16777215
 74
     1
 91
        4
 64
     7
 65
   257
 75
     1
175
     1
 42
1.0
 92
        8
 66
     7
 43
1.0
 76
     1
 77
     6
 78
     2
 67
     7
 79
     5
170
     0
171
     0
290
     0
174
     0
 93
        1
 44
0.0
173
     0
291
     1
 45
0.0
1001
ACAD
1000
AcDbSavedByObjectVersion
1070
     0
  0
VISUALSTYLE
  5
2B
102
{ACAD_REACTORS
330
2A
102
}
330
2A
100
AcDbVisualStyle
  2
Flat
 70
     0
 71
     2
 72
     1
 73
     1
 90
        2
 40
-0.6
 41
30.0
 62
     5
 63
     7
421
 16777215
 74
     0
 91
        4
 64
     7
 65
   257
 75
     1
175
     1
 42
1.0
 92
        8
 66
     7
 43
1.0
 76
     1
 77
     6
 78
     2
 67
     7
 79
     5
170
     0
171
     0
290
     0
174
     0
 93
       13
 44
0.0
173
     0
291
     1
 45
0.0
1001
ACAD
1000
AcDbSavedByObjectVersion
1070
     0
  0
VISUALSTYLE
  5
2C
102
{ACAD_REACTORS
330
2A
102
}
330
2A
100
AcDbVisualStyle
  2
FlatWithEdges
 70
     1
 71
     2
 72
     1
 73
     1
 90
        2
 40
-0.6
 41
30.0
 62
     5
 63
     7
421
 16777215
 74
     1
 91
        4
 64
     7
 65
   257
 75
     1
175
     1
 42
1.0
 92
        0
 66
   257
 43
1.0
 76
     1
 77
     6
 78
     2
 67
     7
 79
     5
170
     0
171
     0
290
     0
174
     0
 93
       13
 44
0.0
173
     0
291
     1
 45
0.0
1001
ACAD
1000
AcDbSavedByObjectVersion
1070
     0
  0
VISUALSTYLE
  5
2D
102
{ACAD_REACTORS
330
2A
102
}
330
2A
100
AcDbVisualStyle
  2
Gouraud
 70
     2
 71
     2
 72
     2
 73
     1
 90
        2
 40
-0.6
 41
30.0
 62
     5
 63
     7
421
 16777215
 74
     0
 91
        4
 64
     7
 65
   257
 75
     1
175
     1
 42
1.0
 92
        0
 66
     7
 43
1.0
 76
     1
 77
     6
 78
     2
 67
     7
 79
     5
170
     0
171
     0
290
     0
174
     0
 93
       13
 44
0.0
173
     0
291
     1
 45
0.0
1001
ACAD
1000
AcDbSavedByObjectVersion
1070
     0
  0
VISUALSTYLE
  5
2E
102
{ACAD_REACTORS
330
2A
102
}
330
2A
100
AcDbVisualStyle
  2
GouraudWithEdges
 70
     3
 71
     2
 72
     2
 73
     1
 90
        2
 40
-0.6
 41
30.0
 62
     5
 63
     7
421
 16777215
 74
     1
 91
        4
 64
     7
 65
   257
 75
     1
175
     1
 42
1.0
 92
        0
 66
   257
 43
1.0
 76
     1
 77
     6
 78
     2
 67
     7
 79
     5
170
     0
171
     0
290
     0
174
     0
 93
       13
 44
0.0
173
     0
291
     1
 45
0.0
1001
ACAD
1000
AcDbSavedByObjectVersion
1070
     0
  0
VISUALSTYLE
  5
38
102
{ACAD_REACTORS
330
2A
102
}
330
2A
100
AcDbVisualStyle
  2
Linepattern
 70
    14
 71
     2
 72
     2
 73
     0
 90
        0
 40
-0.6
 41
-30.0
 62
     5
 63
     7
421
 16777215
 74
     1
 91
        4
 64
     7
 65
   257
 75
     7
175
     7
 42
1.0
 92
        8
 66
     7
 43
1.0
 76
     1
 77
     6
 78
     2
 67
     7
 79
     5
170
     0
171
     0
290
     0
174
     0
 93
        1
 44
0.0
173
     0
291
     1
 45
0.0
1001
ACAD
1000
AcDbSavedByObjectVersion
1070
     0
  0
VISUALSTYLE
  5
33
102
{ACAD_REACTORS
330
2A
102
}
330
2A
100
AcDbVisualStyle
  2
Realistic
 70
     8
 71
     2
 72
     2
 73
     0
 90
        0
 40
-0.6
 41
-30.0
 62
     5
 63
     7
421
 16777215
 74
     1
 91
        0
 64
     7
 65
   257
 75
     1
175
     1
 42
1.0
 92
        8
 66
     8
424
  7895160
 43
1.0
 76
     1
 77
     6
 78
     2
 67
     7
 79
     5
170
     0
171
     0
290
     0
174
     0
 93
       13
 44
0.0
173
     0
291
     0
 45
0.0
1001
ACAD
1000
AcDbSavedByObjectVersion
1070
     0
  0
VISUALSTYLE
  5
37
102
{ACAD_REACTORS
330
2A
102
}
330
2A
100
AcDbVisualStyle
  2
Thicken
 70
    13
 71
     2
 72
     2
 73
     0
 90
        0
 40
-0.6
 41
-30.0
 62
     5
 63
     7
421
 16777215
 74
     1
 91
        4
 64
     7
 65
   257
 75
     1
175
     1
 42
1.0
 92
       12
 66
     7
 43
1.0
 76
     1
 77
     6
 78
     2
 67
     7
 79
     5
170
     0
171
     0
290
     0
174
     0
 93
        1
 44
0.0
173
     0
291
     1
 45
0.0
1001
ACAD
1000
AcDbSavedByObjectVersion
1070
     0
  0
ENDSEC
  0
EOF
