<?xml version="1.0" encoding="utf-8"?>
<!-- Generator: Adobe Illustrator 16.0.0, SVG Export Plug-In . SVG Version: 6.00 Build 0)  -->
<!DOCTYPE svg PUBLIC "-//W3C//DTD SVG 1.1//EN" "http://www.w3.org/Graphics/SVG/1.1/DTD/svg11.dtd">
<svg version="1.1" id="Livello_1" xmlns="http://www.w3.org/2000/svg" xmlns:xlink="http://www.w3.org/1999/xlink" x="0px" y="0px"
	 width="510.24px" height="510.24px" viewBox="0 0 510.24 510.24" enable-background="new 0 0 510.24 510.24" xml:space="preserve">
<g>
	<path d="M351.036,415.213l-4.148-2.554c-0.466-0.287-1.056-0.28-1.516,0.019c-0.476,0.31-1.019,0.723-1.594,1.16
		c-1.288,0.98-3.196,2.433-4.469,2.601c-0.049-0.05-0.098-0.104-0.149-0.158c-0.424-0.445-1.134-1.19-2.22-1.19
		c-0.295,0-0.591,0.057-0.874,0.168c-1.146,0.445-1.719,1.48-2.224,2.394c-0.704,1.273-1.057,1.755-1.971,1.755
		c-0.402,0-0.893-0.099-1.459-0.293l-0.438-0.15c-2.024-0.694-2.948-1.011-4.083-1.011c-0.726,0-1.427,0.127-2.588,0.338
		c-0.417,0.076-0.899,0.164-1.469,0.261c-2.408,0.411-4.25,1.594-6.031,2.738c-1.567,1.008-3.048,1.959-4.911,2.474
		c-0.494,0.093-3.542,0.211-6.231,0.314c-9.479,0.367-11.846,0.555-12.653,0.999c-0.004,0.002-0.353,0.154-1.508,0.154
		c-4.774,0-11.985-2.172-12.386-4.199c-0.239-1.211-0.875-4.428-3.564-4.428c-0.891,0-1.728,0.378-2.537,0.742
		c-0.939,0.424-1.905,0.845-2.693,0.58c-0.756-0.25-1.411-0.371-2.004-0.371c-2.393,0-3.103,1.914-3.527,3.058
		c-0.488,1.317-0.698,1.733-1.843,1.733c-0.108,0-0.223-0.004-0.343-0.014c-1.832-0.143-2.154-0.548-2.739-1.283
		c-0.452-0.569-1.015-1.277-2.128-1.89c-0.347-0.19-0.737-0.287-1.16-0.287c-2.923,0-7.98,5.579-10.019,7.978
		c-0.058,0.068-0.109,0.142-0.153,0.219c-0.796,1.405-4.617,8.568-1.594,11.595c0.739,0.745,1.383,1.442,2.012,2.123
		c1.004,1.087,1.952,2.112,3.192,3.252l0.168,0.154c2.445,2.247,3.183,2.925,4.871,2.925c0.326,0,0.702-0.029,1.173-0.07
		c0.713-0.061,1.6-0.137,2.937-0.139c3.433,0,13.374,6.854,20.634,11.858c7.554,5.207,11.929,8.159,14.009,8.279
		c1.19,0.069,2.307,0.023,3.389-0.024c0.616-0.027,1.221-0.054,1.821-0.054c1.541,0,3.228,0.163,5.124,1.349
		c2.02,1.264,3,3.187,4.037,5.223c0.945,1.854,1.923,3.772,3.718,5.288c2.517,2.126,6.643,2.477,10.634,2.816
		c2.966,0.252,6.327,0.538,7.085,1.646c0.349,0.509,1.411,2.057,2.931,2.057c0.748,0,1.434-0.374,1.931-1.052
		c1.204-1.644,1.339-5.321,0.839-6.904c-0.512-1.619-0.165-3.859,0.823-5.327c0.376-0.558,1.004-1.236,1.866-1.305
		c0.613-0.05,1.157-0.353,1.529-0.852c1.072-1.437,0.563-4.329-0.334-8.579c-0.234-1.113-0.557-2.638-0.544-2.959
		c0.037-0.188,0.035-0.382-0.005-0.569c-0.466-2.182-1.598-3.104-2.424-3.776c-0.917-0.747-1.522-1.24-1.298-4.058
		c0.183-2.029,8.76-19.281,11.829-23.242c0.062-0.081,6.143-8.479,5.945-10.445C351.659,415.839,351.412,415.444,351.036,415.213z
		 M343.514,424.99c-2.67,3.445-12.157,21.565-12.412,24.75c-0.316,3.977,0.87,5.288,2.334,6.48c0.673,0.549,1.13,0.921,1.396,1.975
		c-0.027,0.733,0.192,1.822,0.593,3.719c0.347,1.64,1.035,4.902,0.869,6.083c-1.36,0.255-2.592,1.123-3.509,2.483
		c-1.477,2.193-1.949,5.313-1.175,7.764c0.287,0.909,0.132,3.046-0.225,4.004c-0.116-0.127-0.261-0.307-0.434-0.559
		c-1.515-2.219-5.068-2.521-9.184-2.871c-3.383-0.287-7.218-0.613-9.045-2.157c-1.358-1.146-2.166-2.731-3.021-4.409
		c-1.112-2.184-2.374-4.659-5.06-6.339c-2.509-1.568-4.758-1.78-6.627-1.78c-0.642,0-1.286,0.028-1.945,0.057
		c-0.99,0.043-2.009,0.09-3.101,0.026c-1.392-0.081-7.587-4.352-12.564-7.783c-10.497-7.236-18.237-12.358-22.248-12.358
		c-1.454,0.002-2.447,0.087-3.173,0.148c-0.375,0.032-0.672,0.061-0.932,0.061c-0.517,0-0.671-0.081-2.953-2.178l-0.168-0.155
		c-1.154-1.061-2.064-2.045-3.028-3.088c-0.65-0.704-1.316-1.425-2.084-2.199c-0.96-0.961,0.269-4.999,1.986-8.081
		c3.039-3.555,6.553-6.688,7.689-6.867c0.53,0.317,0.806,0.665,1.15,1.098c0.917,1.153,1.905,2.125,4.737,2.346
		c0.197,0.016,0.385,0.022,0.563,0.022c3.171,0,4.003-2.242,4.501-3.583c0.448-1.208,0.537-1.208,0.869-1.208
		c0.193,0,0.544,0.039,1.112,0.227c0.462,0.154,0.947,0.231,1.442,0.231c1.271,0,2.4-0.509,3.308-0.918
		c0.512-0.23,1.091-0.491,1.37-0.5c0.004,0.003,0.417,0.286,0.785,2.15c0.911,4.619,11.08,6.484,15.167,6.484
		c1.633,0,2.371-0.247,2.777-0.453c1.103-0.3,7.595-0.551,11.493-0.701c4.989-0.193,6.313-0.261,6.826-0.402
		c2.328-0.643,4.141-1.807,5.739-2.834c1.684-1.081,3.137-2.015,4.976-2.328c0.581-0.1,1.073-0.188,1.499-0.267
		c1.005-0.182,1.611-0.292,2.081-0.292c0.634,0,1.222,0.191,3.163,0.857l0.438,0.15c0.874,0.3,1.651,0.445,2.378,0.445
		c2.672,0,3.743-1.936,4.451-3.217c0.163-0.296,0.41-0.741,0.604-0.976c0.063,0.063,0.129,0.132,0.182,0.188
		c0.409,0.428,0.968,1.015,1.855,1.051c0.019,0.001,0.134,0.003,0.152,0.003c2.179,0,4.508-1.772,6.379-3.196
		c0.243-0.185,0.479-0.365,0.702-0.53l2.389,1.47C347.557,419.063,344.344,423.914,343.514,424.99z"/>
	<path d="M164.382,330.322c2.513-3.104,6.31-7.794,1.968-12.113c-1.726-1.718-1.542-3.895-1.329-6.415
		c0.257-3.046,0.572-6.769-3.51-9.075c0.314-1.118,0.272-2.594-0.668-4.45c-2.566-5.064-11.008-10.625-16.13-10.625
		c-1.364,0-2.48,0.367-3.371,1.142c-0.857,0.826-1.25,1.885-1.138,3.06c0.017,0.181,0.069,0.356,0.152,0.518
		c0.109,0.21,0.175,0.37,0.214,0.484c-0.234,0.065-0.569,0.126-0.817,0.171c-0.962,0.174-2.16,0.391-2.95,1.292
		c-2.293,2.619-4.786,4.528-7.196,6.375c-2.035,1.559-4.139,3.17-6.133,5.203c-0.283,0.288-0.946,0.461-1.773,0.461
		c-2.485,0-4.862-1.358-4.98-2.179c-0.549-3.812-2.666-4.224-3.551-4.224c-2.047,0-4.108,2.067-4.583,3.915
		c-0.32,1.246,0.105,2.363,1.106,2.913c0.869,0.48-0.564,3.241-1.611,5.256c-1.6,3.08-3.254,6.266-1.807,8.648
		c0.929,1.529,2.892,2.272,6,2.272c1.164,0,2.058,0.328,2.732,1.003c2.034,2.037,2.05,7.09,2.046,10.491
		c-0.013,0.069-0.033,0.169-0.058,0.296c-1.801,9.175-1.381,15.232,1.245,18.045c-1.711,3.823-1.904,8.723-2.091,13.474
		c-0.144,3.664-0.28,7.124-1.094,9.754c-0.877,2.83,6.157,12.423,6.458,12.83c4.308,5.846,5.794,5.846,6.429,5.846
		c0.247,0,0.488-0.046,0.71-0.133c0.092-0.005,0.204-0.004,0.334-0.005c2.09-0.022,7.643-0.083,11.614-9.093
		c1.401-3.179,3.131-4.724,5.29-4.724c2.559,0,5.298,2.109,6.77,3.243l0.124,0.095c0.598,0.459,1.229,0.692,1.876,0.692
		c4.204,0,5.941-9.069,8.243-29.397c0.556-4.912,1.187-10.479,1.64-11.362c1.726-2.796,0.136-5.005-1.025-6.617
		c-1.375-1.911-2.032-3-0.726-4.988C163.199,331.784,163.774,331.074,164.382,330.322z M160.425,330.844
		c-2.438,3.71-0.494,6.412,0.793,8.2c1.219,1.694,1.586,2.384,0.914,3.474c-0.7,1.134-1.116,4.337-2.044,12.531
		c-0.877,7.744-2.931,25.879-5.396,26.885c0,0-0.061-0.017-0.18-0.107l-0.121-0.094c-1.739-1.339-4.975-3.832-8.499-3.832
		c-3.355,0-6.007,2.159-7.884,6.416c-3.234,7.338-7.31,7.382-9.051,7.4c-0.381,0.005-0.709,0.008-1.016,0.083
		c-2.284-1.241-9.958-12.591-10.141-15.062c0.892-2.964,1.034-6.562,1.184-10.367c0.191-4.862,0.389-9.891,2.255-13.249
		c0.359-0.646,0.162-1.459-0.454-1.868c-2.293-1.525-2.669-7.494-1.006-15.967c0.092-0.467,0.111-0.563,0.111-0.73
		c0.006-5.12-0.209-9.937-2.875-12.605c-1.216-1.217-2.81-1.834-4.737-1.834c-2.73,0-3.412-0.637-3.578-0.911
		c-0.62-1.02,0.836-3.822,1.899-5.869c1.619-3.117,3.621-6.973,0.762-8.864c0.089-0.247,0.311-0.648,0.698-1.037
		c0.447-0.449,0.89-0.654,1.112-0.654c0.202,0,0.567,0.557,0.745,1.793c0.434,3.008,4.8,4.609,7.786,4.608
		c1.642,0,2.955-0.452,3.796-1.31c1.854-1.89,3.788-3.371,5.834-4.938c2.521-1.931,5.126-3.927,7.604-6.756
		c0.157-0.161,0.916-0.298,1.324-0.372c1.057-0.191,2.372-0.43,2.963-1.632c0.515-1.047,0.094-2.196-0.198-2.815
		c0.018-0.2,0.096-0.352,0.23-0.482c0.38-0.33,1.003-0.399,1.459-0.399c4.124,0,11.497,4.918,13.602,9.072
		c0.644,1.27,0.701,2.279,0.172,3.001c-0.259,0.353-0.341,0.807-0.22,1.228s0.429,0.763,0.835,0.926
		c3.395,1.36,3.396,3.285,3.095,6.852c-0.227,2.679-0.508,6.014,2.154,8.663c2.352,2.34,0.667,4.813-2.172,8.32
		C161.525,329.346,160.907,330.109,160.425,330.844z"/>
	<path d="M439.3,322.153c-0.454-0.386-1.514-1.724-2.538-3.018c-3.879-4.899-5.772-7.014-7.599-6.742
		c-4.098,0.636-13.294-5.685-17.316-9.208c-5.52-4.829-11.294-7.333-17.406-9.983c-1.536-0.666-3.105-1.347-4.711-2.081
		c-1.985-0.907-4.138-1.763-6.22-2.59c-5.429-2.156-11.042-4.386-15.027-7.968c-1.239-1.114-1.866-2.16-1.863-3.109
		c0.005-1.737,2.011-3.521,3.951-5.246c1.45-1.29,2.819-2.508,3.588-3.879c1.42-2.534,1.558-4.722,0.407-6.502
		c-3.342-5.173-16.698-4.461-30.084-3.291c-2.549,0.223-4.748,0.422-5.713,0.383c-0.214-0.002-0.394,0.027-0.58,0.05
		c-2.334-2.38-4.915-3.66-7.638-4.993c-0.908-0.444-1.836-0.898-2.783-1.411c-0.706-0.38-0.823-0.757-1.059-1.509
		c-0.33-1.055-0.828-2.649-3.367-3.528c-3.415-1.185-8.958-7.311-11.937-10.602c-0.388-0.429-0.746-0.825-1.069-1.178
		c-6.264-6.831-8.722-15.088-11.323-23.83c-1.383-4.645-2.813-9.447-4.864-14.054c-0.115-0.261-0.36-1.043-0.62-1.873
		c-1.687-5.389-3.572-10.766-6.441-12.157c-0.853-0.413-1.756-0.459-2.612-0.131c-3.358,1.277-8.372-3.715-12.402-7.73
		c-2.544-2.534-4.74-4.722-6.7-5.717c-5.075-2.577-13.771-7.981-14.975-15.216c-0.162-0.977-0.621-2.586-1.203-4.625
		c-1.378-4.83-4.063-14.257-2.888-18.169c0.933,1.412,2.009,2.549,3.572,2.549c0.001,0,0.002,0,0.004,0
		c2.092-0.002,3.621-2.229,4.631-3.983c2.859-5.77,0.669-8.119-1.449-10.392c-1.303-1.398-2.65-2.843-3.325-5.412
		c-1.805-6.866,4.21-10.048,12.905-13.792c2.174-0.936,4.222-1.825,5.943-2.801c0.594-0.079,1.146-0.233,1.656-0.46
		c0.104-0.01,0.207-0.017,0.31-0.05c0.285-0.095,0.52-0.273,0.687-0.498c1.15-0.75,2.109-1.776,2.994-2.739
		c0.563-0.614,1.098-1.195,1.624-1.637c0.484,0.137,1.534,1.079,2.055,1.546c0.866,0.776,1.613,1.446,2.409,1.667
		c1.875,0.522,3.541-0.47,4.878-1.269c0.888-0.532,1.806-1.085,2.297-0.874c0.469,0.202,0.791,1.197,1.076,2.075
		c0.427,1.315,0.911,2.806,2.341,3.368c1.028,0.406,2.254,0.614,3.489,0.614c2.315,0,4.662-0.733,5.79-2.275
		c0.653-0.894,1.426-2.79-0.739-5.447c-1.236-1.517-2.721-2.75-4.156-3.941c-1.533-1.273-2.981-2.475-4.094-3.964
		c-0.769-1.027-0.569-1.724-0.117-2.969c0.346-0.955,0.777-2.144,0.149-3.372c-0.361-0.708-1.009-1.284-2.021-1.779
		c0.166-0.146,0.337-0.294,0.506-0.441c1.852-1.605,4.157-3.604,3.694-6.341c-0.529-3.133-3.653-3.568-5.934-3.886
		c-1.052-0.146-2.326-0.324-2.835-0.72c0.474-0.7,2.188-2.045,3.362-2.966c3.024-2.373,6.453-5.062,6.553-8.056
		c0.089-2.642-3.14-5.4-43.094-10.073c-0.283-0.033-0.543-0.063-0.787-0.092c0.196-1.152,0.063-2.461-0.645-3.94
		c-1.016-2.128-2.333-3.241-3.496-4.223c-0.865-0.731-1.613-1.363-2.126-2.349c-0.24-0.461-0.375-0.772-0.451-0.976
		c0.852-0.4,2.354-1.161,2.97-3.856c0.462-2.019-0.249-3.131-0.926-3.708c-1.814-1.547-5.461-1.089-11.825,1.482l-0.407,0.163
		c-3.339,1.269-15.129,2.394-17.323,2.542c-1.997-1.037-3.893-1.288-5.64-0.747c-3.521,1.091-5.445,5-6.99,8.141
		c-0.403,0.819-0.783,1.592-1.129,2.171c-0.308,0.516-0.617,0.807-0.919,0.866c-0.878,0.168-2.582-1.119-3.948-2.156
		c-2.462-1.87-5.528-4.198-8.473-2.255c-0.313,0.208-0.989,0.118-1.645,0.03c-1.233-0.165-3.798-0.504-4.5,2.493
		c-0.079,0.325-0.686,1.713-1.174,2.829c-1.154,2.638-1.973,4.605-2.476,6.101c-2.465-1.339-4.325-0.942-5.474-0.316
		c-3.82,2.083-4.788,8.894-5.033,12.028c-2.397,0.048-5.642,1.322-9.048,2.78c-0.589,0.252-1.242,0.532-1.584,0.657
		c-1.821-0.469-1.984-1.453-2.162-3.516c-0.218-2.533-0.53-6.35-7.54-6.278c-1.715,0.022-3,0.565-3.821,1.613
		c-1.539,1.965-0.829,5.005-0.31,7.225c0.162,0.691,0.314,1.344,0.342,1.733c0.152,2.133-1.66,4.018-3.411,5.84
		c-0.648,0.674-1.26,1.311-1.79,1.974c-0.729,0.913-1.426,1.538-2.042,2.09c-0.377,0.338-0.748,0.673-1.083,1.041
		c-0.118-0.199-0.252-0.405-0.421-0.622c-1.206-1.551-3.565-1.771-5.647-1.965c-0.925-0.086-2.451-0.229-2.847-0.515
		c-0.356-1.854-1.598-3.018-2.598-3.955c-1.245-1.166-1.626-1.622-1.378-2.562c0.155-0.589,1.448-5.834-0.989-8.592
		c-0.708-0.803-2.019-1.696-4.25-1.394c-3.625,0.49-10.29,8.248-11.527,11.933c-0.581,1.73-0.098,2.694,0.41,3.199
		c0.559,0.555,0.533,0.923,0.522,1.062c-0.103,1.446-2.833,3.477-4.827,4.96c-1.439,1.071-2.652,1.976-3.375,2.891
		c-1.252-0.667-2.932-1.2-5.188-1.567c-2.133-0.347-5.031,0.917-8.1,2.254c-3.356,1.463-7.532,3.283-8.622,1.73
		c-0.552-0.788-1.93-1.919-4.959-0.637c-3.402,1.44-9.194,6.465-8.448,10.355c0.459,2.396,7.636,13.863,9.657,14.894
		c1.011,0.513,2.215,1.323,2.205,2.263c-0.037,3.312-10.55,8.359-14.005,10.018c-2.779,1.334-3.206,1.539-3.459,2.265
		c-0.125,0.358-0.102,0.777,0.065,1.118c0.35,0.715,0.708,1.521,1.087,2.373c2.1,4.722,4.977,11.188,10.701,11.565
		c0.391,0.026,0.431,0.138,0.487,0.292c0.65,1.809-1.78,6.87-2.566,7.612c-4.309,3.705-0.542,12.052,2.087,16.698
		c1.921,3.394,6.959,6.767,12.251,8.204c2.684,0.729,6.486,1.235,9.544-0.404c-0.796,1.529-2.198,3.598-2.785,4.176
		c-2.498,2.463-3.419,5.719-2.346,8.295c0.987,2.37,3.435,3.722,6.728,3.722c0.045,0,0.09,0,0.135,0
		c5.973-0.068,16.397-6.399,20.655-12.544c1.769-2.552,3.388-3.904,4.816-5.096c1.797-1.5,3.349-2.796,3.916-5.597
		c1.164-5.717,7.756-5.481,13.973-4.512c0.741,0.218,4.838,2.549,8.453,4.605c10.853,6.174,18.773,10.573,21.377,10.498
		c5.559-0.076,7.259,5.78,9.171,14.745c1,4.687,1.944,9.114,4.035,11.932c2.235,3.011,2.385,8.278,2.518,12.924
		c0.164,5.733,0.318,11.148,4.828,11.148c4.908,0,14.917,12.587,15.301,19.241c0.119,2.061,0.736,3.454,1.889,4.261
		c1.822,1.275,4.265,0.54,6.419-0.108c1.211-0.365,2.719-0.819,3.357-0.59c5.729,2.053,7.684,5.562,10.159,10.005
		c0.786,1.412,1.599,2.872,2.594,4.409c1.056,1.633,3.37,2.815,5.82,4.067c2.165,1.105,4.403,2.25,5.603,3.607
		c0.38,0.43,0.628,1.55,0.828,2.449c0.306,1.377,0.622,2.801,1.6,3.615c1.034,0.862,1.991,1.6,2.917,2.313
		c2.383,1.837,4.44,3.424,6.635,6.273c3.034,3.937,4.646,5.099,9.082,6.543c0.609,0.198,2.215,1.832,3.387,3.025
		c2.799,2.848,5.701,5.799,8.263,5.113c1.534-0.404,2.598-1.147,3.536-1.803c1.4-0.977,2.245-1.567,4.306-0.894
		c0.814,0.266,1.613,0.824,2.46,1.416c1.942,1.358,4.878,3.414,8.191-0.035c0.047-0.049,0.078-0.068,0.077-0.069
		c0.445-0.068,2.495,0.653,8.267,12.023c0.325,0.64,0.572,1.125,0.721,1.388c0.523,0.927,0.704,1.9,0.879,2.843
		c0.246,1.323,0.5,2.691,1.767,3.478c1.106,0.687,2.6,0.688,4.996,0.01c0.817-0.232,1.454-0.438,1.966-0.602
		c0.462-0.148,0.938-0.302,1.154-0.336c0.166,0.131,0.492,0.478,0.808,0.813c0.103,0.108,0.211,0.225,0.328,0.349
		c-1.913,1.505-2.703,3.055-2.349,4.62c0.466,2.062,2.932,3.526,6.597,3.918c3.357,0.36,7.231-0.333,9.025-2.59
		c1.02,1.099,2.626,3.628,2.941,4.302c0.434,1.155,0.805,1.859,1.075,2.374c0.492,0.934,0.658,1.248,0.56,3.917
		c-0.387,5.843,3.717,7.964,7.014,9.668c1.323,0.685,2.574,1.331,3.408,2.13c0.171,0.164,0.547,0.748,0.849,1.219
		c1.156,1.8,2.903,4.521,5.542,4.686c1.573,0.092,3.122-0.74,4.583-2.489c0.766-0.917,1.473-1.369,1.907-1.264
		c2.365,0.596,4.309,10.049,4.947,13.154c0.29,1.413,0.5,2.435,0.692,3.006c0.415,1.236,1.251,3.428,2.22,5.965
		c2.002,5.25,4.745,12.438,5.146,14.877c0.087,0.529,0.377,1.139,0.925,2.259c1.186,2.425,3.394,6.938,1.223,8.854
		c-1.709,1.511-2.997,2.375-4.032,3.069c-1.323,0.889-2.368,1.59-3.368,2.978c-1.12,1.557-0.771,3.027-0.491,4.208
		c0.272,1.153,0.509,2.149-0.206,3.659c-1.197,2.53-2.292,4.376-3.679,6.713c-0.601,1.013-1.249,2.105-1.975,3.37
		c-2.068,3.613-2.191,11.077,0.752,15.284c1.341,1.917,3.198,2.931,5.315,2.931c0.392,0,0.792-0.034,1.199-0.104
		c9.177-1.581,10.779-4.586,13.436-9.563c0.941-1.765,2.008-3.764,3.639-6.135c1.34-1.954,2.994-2.956,4.594-3.925
		c2.929-1.773,5.958-3.607,5.019-10.478c-0.391-2.854,1.41-10.019,4.901-12.313c1.396-0.919,2.891-0.873,4.566,0.141
		c2.125,1.279,4.568,1.221,6.876-0.172c2.619-1.578,4.566-4.651,4.434-6.995c-0.072-1.254-0.732-2.257-1.813-2.751
		c-1.493-0.683-0.943-4.953-0.579-7.779c0.284-2.202,0.529-4.105,0.208-5.427c-0.945-3.887-5.552-6.008-10.007-8.06
		c-6.113-2.814-9.751-4.803-8.729-8.663c0.062-0.233,0.143-0.551,0.24-0.94c5.825-23.046,11.706-26.012,14.894-25.525
		c0.744,0.741,1.437,1.617,2.165,2.538c2.376,3.004,5.33,6.743,11.436,6.338c1.954-0.128,3.529,0.269,5.363,0.73
		c0.776,0.195,1.576,0.396,2.451,0.569c0.327,0.491,0.916,1.761,1.401,2.806c1.863,4.02,4.68,10.094,9.219,12.837
		c4.057,2.452,6.473,3.177,8.338,2.493c1.95-0.71,2.645-2.749,3.381-4.906c0.621-1.821,1.324-3.885,2.831-5.813
		C454.769,336.564,444.13,326.258,439.3,322.153z M329.304,256.522c2.417,1.184,4.55,2.233,6.443,4.014
		c-0.774,1.365-0.714,3.314-0.645,5.216c0.05,1.375,0.134,3.677-0.444,4.052c-0.206,0.135-0.525,0.283-0.862,0.441
		c-1.355,0.633-3.625,1.693-3.746,4.565l-0.005,0.119c-0.065,1.51-0.163,3.792-1.036,4.468c-0.339,0.261-0.892,0.309-1.651,0.147
		c-2.274-0.478-4.201,0.848-6.065,2.129c-2.63,1.808-4.407,2.822-6.804,1.575c-5.255-3.489-9.741-2.831-12.711-2.396
		c-0.43,0.063-0.907,0.133-1.328,0.172c0.012-0.09,0.029-0.18,0.038-0.27c0.246-2.38-0.255-4.536-1.438-6.311
		c7.016-3.05,7.826-3.689,8.2-4.286c0.806-1.283,0.709-2.396,0.646-3.133c-0.069-0.793-0.101-1.155,1.842-2.17
		c3.222-1.687,6.147-1.53,8.461,0.439c0.009,0.008,0.021,0.009,0.03,0.017c0.124,0.101,0.262,0.174,0.408,0.227
		c0.03,0.012,0.06,0.025,0.091,0.034c0.127,0.036,0.258,0.061,0.391,0.061c0.021,0,0.044-0.009,0.065-0.01
		c0.047-0.002,0.091-0.013,0.137-0.02c0.118-0.017,0.232-0.049,0.346-0.097c0.048-0.021,0.094-0.039,0.14-0.065
		c0.032-0.018,0.066-0.024,0.097-0.045c3.22-2.142,4.61-4.835,6.082-7.687c0.377-0.731,0.777-1.486,1.207-2.25
		C327.909,255.832,328.618,256.186,329.304,256.522z M309.303,238.828c3.588,3.964,9.009,9.956,13.109,11.378
		c1.188,0.411,1.314,0.813,1.59,1.695c0.173,0.553,0.392,1.226,0.884,1.875c-0.521,0.909-0.984,1.787-1.421,2.633
		c-1.258,2.436-2.286,4.414-4.34,6.043c-3.073-2.082-6.828-2.135-10.702-0.108c-3.34,1.745-3.492,3.326-3.353,4.928
		c0.046,0.526,0.073,0.839-0.146,1.248c-0.502,0.361-2.325,1.307-7.893,3.71c-2.194-1.887-4.431-2.464-6.607-3.005
		c-2.055-0.512-3.996-0.994-5.943-2.657c-0.666-0.569-1.397-1.653-2.172-2.8c-2.011-2.979-4.771-7.056-9.543-6.195
		c-0.235,0-0.726-0.029-1.177-0.607c-0.433-0.556-0.523-1.208-0.493-1.449c0.742-0.76,1.28-1.374,1.715-1.872
		c1.209-1.381,1.533-1.752,3.87-2.444c0.639-0.189,1.06-0.798,1.011-1.462c-0.041-0.562-0.247-1.388-0.532-2.532
		c-1.674-6.714-2.579-13.154,1.984-14.948c3.441,0.368,5.084-2.585,6.297-4.759c1.582-2.839,1.941-2.823,2.828-2.362
		c2.583,1.346,5.281-0.486,7.661-2.101c1.058-0.718,2.143-1.45,3.058-1.798c2.06,5.827,4.741,11.501,9.257,16.426
		C308.565,238.012,308.92,238.404,309.303,238.828z M270.071,177.981c4.85,4.832,10.343,10.307,15.415,8.371
		c0.091-0.035,0.18-0.056,0.364,0.034c2.006,0.973,4.161,7.86,4.973,10.452c0.333,1.065,0.553,1.768,0.735,2.179
		c1.978,4.44,3.38,9.153,4.737,13.71c0.576,1.935,1.159,3.884,1.787,5.827c-1.267,0.462-2.521,1.308-3.744,2.137
		c-1.807,1.227-3.679,2.496-4.76,1.932c-3.618-1.876-5.421,1.357-6.613,3.497c-0.884,1.586-1.543,2.603-2.319,3.055
		c-1.253-1.477-3.442-3.501-5.701-4.684c0.005-0.006,0.01-0.012,0.015-0.018c0.466-0.619,0.627-1.352,0.454-2.062
		c-0.439-1.802-2.88-2.976-5.707-4.334c-1.586-0.763-3.759-1.808-4.216-2.497c-1.614-2.434-1.862-5.636-2.102-8.732
		c-0.418-5.388-0.891-11.494-9.51-11.943c-1.925-0.1-4.401-2.211-6.586-4.074c-1.436-1.224-2.791-2.379-4.094-3.102
		c-0.293-0.162-0.339-0.834-0.345-1.116c-0.083-3.752,4.137-11.331,5.393-12.101c0.251-0.148,0.295-0.175,1.193,0.3
		c1.343,0.71,3.371,1.783,7.083,0.356c0.042-0.017,0.084-0.035,0.125-0.056c0.396-0.198,0.759-0.375,1.092-0.536
		c1.883-0.916,3.208-1.56,3.852-3.137c0.845,0.481,1.684,0.931,2.498,1.344C265.649,173.575,267.797,175.716,270.071,177.981z
		 M243.777,200.393c-0.381-0.817-0.988-1.423-1.524-1.958c-0.926-0.924-1.538-1.535-1.316-3.033
		c0.082-0.552,0.379-1.132,0.756-1.866c0.381-0.743,0.817-1.6,1.148-2.665c0.809,0.584,1.69,1.329,2.613,2.115
		c2.651,2.26,5.393,4.597,8.278,4.748c5.86,0.305,6.373,3.409,6.832,9.331c0.255,3.296,0.545,7.033,2.564,10.08
		c0.889,1.34,3.057,2.382,5.352,3.485c1.332,0.64,3.485,1.675,4.073,2.324c-2.007,2.587-4.253,3.757-6.844,5.107
		c-1.988,1.036-4.045,2.108-6.178,3.911c-0.541,0.458-1.215,1.353-2.068,2.486c-0.905,1.201-2.939,3.902-3.943,4.401
		c-0.027-0.061-0.057-0.139-0.088-0.24c-0.325-1.043-1.188-3.815-3.611-4.647c-1.004-0.344-1.776-0.509-2.396-0.642
		c-1.445-0.309-1.596-0.341-2.697-3.427c-0.441-1.236-1.133-2.729-2.581-3.307c-1.433-0.57-2.956,0.026-4.26,0.686
		c-0.561,0.285-0.884,0.181-2.292-2.091c-0.417-0.674-0.912-1.467-1.519-2.166c0.825-1.802,0.909-4.562,0.988-7.488
		c0.08-2.965,0.19-7.025,1.387-7.799c0.35-0.226,1.187-0.491,1.995-0.748c2.06-0.653,4.623-1.467,5.484-3.431
		C244.224,202.893,244.435,201.802,243.777,200.393z M246.468,151.192c0.535,1.875,0.997,3.495,1.133,4.313
		c1.021,6.132,6.129,10.952,11.505,14.425c-0.013,0.039-0.03,0.074-0.04,0.114c-0.18,0.752-0.419,0.938-2.566,1.981
		c-0.323,0.157-0.675,0.328-1.057,0.519c-2.467,0.93-3.592,0.335-4.679-0.24c-0.971-0.513-2.301-1.216-3.962-0.233
		c-0.947,0.562-2.279,2.347-3.514,4.573c-0.052,0.002-0.103,0-0.155,0.008c-0.995,0.156-1.913-0.088-3.302-0.461
		c-0.743-0.199-1.584-0.425-2.598-0.629c-9.71-1.964-10.502-4.236-11.201-6.241c-0.363-1.042-0.774-2.221-2.044-3.207
		c-3.447-2.675-5.926-3.983-9.821-5.185c-2.883-0.892-4.485,0.397-5.772,1.433c-0.785,0.631-1.463,1.177-2.457,1.335
		c-3.652,0.58-18.891-2.726-21.802-5.611c-4.124-4.085-11.87-10.764-17.436-9.562c-1.298,0.279-3.008,1.128-4.182,3.469
		c-2.159-0.984-4.771-2.73-7.537-4.584c-3.188-2.137-6.695-4.486-10.175-6.065c0.048-0.436,0.07-0.876,0.064-1.322
		c1.039-0.252,2.059-0.533,2.917-0.878c0.252-0.102,0.47-0.274,0.627-0.496c1.919-2.713,1.299-5.817,0.752-8.556
		c-0.776-3.891-1.39-6.963,3.857-9.441c1.708-0.754,3.326-0.719,4.944,0.108c0.055,0.028,0.113,0.053,0.171,0.074
		c2.78,0.985,4.487-0.439,5.616-1.382c1.042-0.871,1.219-0.905,1.662-0.7c1.478,0.686,2.947,1.376,4.393,2.056
		c9.056,4.255,16.893,7.938,21.076,7.938c0.054,0,0.107-0.001,0.16-0.002c1.722-0.04,5.45-0.358,9.397-0.695
		c4.741-0.404,11.788-1.005,13.401-0.873c2.014,1.631,7.014,3.553,9.408,3.272c0.13-0.015,0.257-0.048,0.378-0.098l7.867-3.259
		c1.388-0.138,2.829,0.245,4.351,0.647c2.224,0.588,4.744,1.254,7.338,0.192c0.309-0.127,0.9,0.678,1.424,1.509
		C241.685,133.185,243.805,141.855,246.468,151.192z M286.259,59.825c-3.034,2.38-5.431,4.26-4.271,6.37
		c0.98,1.78,3.169,2.084,5.101,2.354c2.47,0.344,3.375,0.63,3.53,1.551c0.197,1.167-1.372,2.526-2.756,3.726
		c-0.921,0.798-1.79,1.551-2.341,2.382c-0.25,0.377-0.306,0.85-0.149,1.274c0.156,0.424,0.506,0.748,0.94,0.873
		c2.076,0.594,2.371,1.07,2.397,1.123c0.067,0.131-0.165,0.772-0.29,1.116c-0.481,1.328-1.21,3.334,0.512,5.634
		c1.313,1.757,2.961,3.125,4.554,4.447c1.393,1.156,2.707,2.247,3.769,3.551c0.505,0.619,1.027,1.466,0.649,1.983
		c-0.792,1.082-4.016,1.46-5.938,0.704c-0.224-0.153-0.521-1.067-0.697-1.612c-0.447-1.379-1.005-3.095-2.652-3.804
		c-1.823-0.783-3.513,0.231-4.873,1.045c-1.006,0.602-1.958,1.168-2.632,0.981c-0.239-0.1-0.882-0.676-1.307-1.057
		c-1.467-1.315-3.684-3.301-5.64-1.714c-0.718,0.582-1.38,1.301-2.02,1.998c-0.467,0.508-0.924,1.003-1.39,1.439
		c-1.01-2.606-2.832-6.562-5.062-8.106c-0.949-0.656-2.524-0.672-4.893-0.672c-0.072,0-0.145-0.001-0.218,0
		c-5.955,0-10.913-0.363-11.316-4.76c-0.289-3.141,0.514-4.167,1.291-5.16c1.331-1.701,2.082-3.23-0.396-7.432
		c-2.057-3.499,1.322-7.289,4.65-10.567c0.92-0.907,1.529-1.506,1.851-2.062c0.642-1.108,1.874-3.719,2.864-5.817
		c0.289-0.613,0.601-1.272,0.825-1.738c25.066,3.23,30.336,5.364,31.344,6.279C291.373,55.814,288.433,58.12,286.259,59.825z
		 M251.137,46.742c2.205,0.258,4.282,0.509,6.255,0.755c-0.124,0.262-0.265,0.56-0.427,0.904c-0.916,1.942-2.172,4.602-2.753,5.606
		c-0.137,0.232-0.831,0.915-1.388,1.463c-2.954,2.91-8.454,8.326-5.104,14.024c1.688,2.864,1.372,3.269,0.606,4.247
		c-0.905,1.157-2.273,2.905-1.882,7.167c0.674,7.339,9.128,7.327,14.167,7.335c1.309-0.005,3.09,0,3.47,0.169
		c1.253,0.868,2.868,3.673,4.183,7.188c-0.079,0.012-0.155,0.035-0.236,0.04c-0.013,0.001-0.023,0.005-0.035,0.006
		c-0.061,0.005-0.119,0.018-0.18,0.031c-0.031,0.007-0.063,0.013-0.095,0.022c-0.057,0.017-0.112,0.041-0.168,0.065
		c-0.03,0.014-0.062,0.026-0.091,0.042c-0.018,0.009-0.036,0.014-0.054,0.024c-1.62,0.944-3.691,1.836-5.884,2.781
		c-7.614,3.279-17.09,7.361-14.525,17.117c0.856,3.259,2.596,5.125,3.993,6.624c1.979,2.123,2.971,3.188,1.026,7.121
		c-1.42,2.458-2.13,2.487-2.137,2.487h0c-0.505,0-1.587-1.864-2.108-2.759c-1.23-2.117-2.914-5.017-5.658-3.894
		c-1.715,0.703-3.487,0.234-5.54-0.309c-1.782-0.471-3.624-0.959-5.619-0.697c-0.123,0.016-0.243,0.048-0.357,0.096l-7.841,3.248
		c-1.071,0.04-3.274-0.647-5.031-1.453c-0.351-0.396-0.693-0.784-1.015-1.15c-3.345-3.808-5.565-6.335-10.505-7.695
		c-0.004-0.002-0.009-0.004-0.014-0.007c-6.575-3.14-9.487-5.2-9.829-5.791c-0.673-1.611-0.31-3.585,0.255-4.896
		c0.887-2.058-0.965-3.39-2.072-4.186c-0.446-0.321-0.946-0.681-1.183-0.978c-0.683-1.814,0.219-3.343,1.77-5.614
		c0.37-0.542,0.752-1.102,1.092-1.672c0.112-0.125,0.21-0.274,0.312-0.416c0.952,1.239,2.193,2.403,4.565,2.403
		c0.851,0,1.846-0.149,3.025-0.499c2.581-0.764,4.253-3.6,6.023-6.603c2.917-4.95,5.14-8.145,9.342-7.46
		c3.105,0.504,6.862-2.731,7.937-3.734c1.257-1.173,5.327-5.331,4.935-9.572c-0.248-2.685-0.204-3.908,0.564-6.844
		c0.52-1.987,4.767-8.714,6.396-9.381c0.792-0.325,1.684-0.514,2.547-0.697c1.45-0.308,2.949-0.625,4.144-1.598
		c0.157-0.128,0.343-0.269,0.547-0.423c0.777-0.589,2.014-1.528,2.947-2.826C249.946,46.603,250.489,46.667,251.137,46.742z
		 M184.628,41.476c0.791-1.808,1.209-2.776,1.336-3.317c0.069-0.295,0.146-0.387,0.143-0.388c0.173-0.082,0.832,0.004,1.226,0.056
		c1.062,0.141,2.382,0.317,3.579-0.475c1.181-0.778,2.825,0.345,5.197,2.147c2.003,1.521,4.076,3.094,6.202,2.682
		c1.127-0.219,2.074-0.957,2.813-2.195c0.404-0.678,0.81-1.501,1.238-2.373c1.305-2.653,2.93-5.955,5.285-6.684
		c1.095-0.339,2.329-0.108,3.769,0.702c1.207,0.686,16.658-1.528,19.363-2.556c0.103-0.039,0.26-0.102,0.463-0.185
		c7.395-2.989,8.789-2.068,8.923-1.953c0.086,0.073,0.123,0.392,0.002,0.919c-0.323,1.414-0.854,1.662-1.47,1.95
		c-0.498,0.232-1.249,0.584-1.552,1.478c-0.324,0.958,0.066,2.031,0.752,3.347c0.771,1.48,1.808,2.356,2.811,3.204
		c1.036,0.875,2.014,1.702,2.768,3.28c1.301,2.721-0.421,4.327-2.629,6c-0.233,0.177-0.446,0.338-0.625,0.484
		c-0.663,0.54-1.719,0.764-2.942,1.023c-0.94,0.2-2.005,0.426-3.034,0.847c-2.814,1.153-7.461,8.986-8.063,11.287
		c-0.864,3.303-0.919,4.85-0.644,7.822c0.179,1.936-1.41,4.778-4.047,7.239c-2.343,2.187-4.558,3.171-5.549,3.009
		c-6.422-1.042-9.648,4.425-12.238,8.818c-1.479,2.509-2.875,4.878-4.387,5.325c-3.182,0.943-3.853,0.029-4.702-1.126
		c-0.23-0.313-0.475-0.631-0.764-0.921c0.362-1.227,0.553-2.443,0.617-3.222c0.02-0.246-0.024-0.493-0.128-0.716
		c-1.336-2.857-4.611-2.188-6.778-1.746c-0.862,0.176-2.166,0.442-2.561,0.267c-2.991-1.319-2.771-7.386-2.626-11.401
		c0.034-0.951,0.066-1.849,0.054-2.592c-0.047-2.785,0.793-4.347,1.682-6.001c0.804-1.495,1.634-3.041,1.829-5.359
		c0.277-3.309-2.262-5.566-4.717-7.75c-1.195-1.063-2.414-2.155-3.421-3.401C181.911,47.687,183.798,43.372,184.628,41.476z
		 M133.94,74.429c0.413,0.531,0.387,0.627,0.291,0.983c-0.34,1.265-0.192,2.341,1.559,3.772c0.004,0.003,0.007,0.007,0.012,0.01
		c0.01,0.009,0.018,0.017,0.028,0.025c0.034,0.028,0.077,0.035,0.112,0.059c0.107,0.071,0.215,0.136,0.339,0.176
		c0.072,0.024,0.145,0.029,0.22,0.041c0.073,0.012,0.142,0.04,0.218,0.04c0.044,0,0.089-0.005,0.134-0.009
		c0.01-0.001,0.021-0.001,0.031-0.002c0.012-0.001,0.024,0,0.036-0.002c0.157-0.022,0.301-0.075,0.435-0.143
		c0.018-0.009,0.035-0.015,0.052-0.024c0.153-0.085,0.285-0.197,0.396-0.328c0.006-0.007,0.015-0.01,0.021-0.018
		c0.003-0.004,0.003-0.009,0.007-0.013c0.109-0.138,0.192-0.296,0.244-0.468c0.003-0.009,0.008-0.018,0.01-0.027
		c0.044-0.159,0.058-0.328,0.043-0.5c-0.001-0.016,0-0.031-0.002-0.046c-0.001-0.011,0-0.022-0.001-0.034
		c-0.281-1.983,0.121-2.344,1.452-3.538c0.663-0.595,1.487-1.334,2.363-2.431c0.448-0.561,1.017-1.152,1.619-1.779
		c1.976-2.057,4.436-4.616,4.194-8.005c-0.043-0.614-0.212-1.339-0.409-2.178c-0.366-1.567-0.919-3.936-0.218-4.833
		c0.265-0.338,0.812-0.516,1.624-0.526c4.406-0.035,4.472,1.277,4.68,3.688c0.179,2.079,0.45,5.221,4.686,6.113
		c0.614,0.131,1.07-0.065,3-0.891c5.609-2.401,7.756-2.769,8.505-2.58c0.074,0.048,0.152,0.089,0.235,0.122
		c0.029,0.113,0.107,0.66-0.515,2.078c-0.314,0.717,0.013,1.553,0.729,1.867c0.719,0.314,1.553-0.012,1.867-0.729
		c0.387-0.884,1.566-3.574-0.06-5.214c-0.017-0.018-0.038-0.03-0.056-0.046c0.161-3.388,1.265-9.142,3.616-10.423
		c0.293-0.161,1.157-0.631,2.901,0.375c0.238,0.405,0.515,0.774,0.786,1.146c0.1,0.23,0.246,0.424,0.432,0.594
		c1.169,1.458,2.531,2.681,3.783,3.794c2.44,2.17,3.927,3.591,3.776,5.396c-0.145,1.731-0.773,2.9-1.5,4.254
		c-0.974,1.813-2.078,3.868-2.019,7.391c0.011,0.684-0.02,1.519-0.053,2.442c-0.172,4.779-0.433,12.002,4.314,14.096
		c1.222,0.541,2.704,0.237,4.273-0.083c1.942-0.397,2.998-0.514,3.464-0.08c-0.211,1.648-0.836,3.72-1.52,4.409
		c-0.085,0.086-0.159,0.182-0.22,0.287c-0.308,0.53-0.676,1.069-1.066,1.64c-1.523,2.231-3.419,5.007-1.993,8.436
		c0.032,0.076,0.07,0.149,0.115,0.219c0.492,0.769,1.28,1.336,1.977,1.837c0.34,0.245,0.884,0.636,1.077,0.874
		c-0.422,1.022-1.449,4.057-0.22,6.999c0.245,0.586,0.99,2.369,11.223,7.256l0.095,0.045c0.087,0.044,0.179,0.08,0.275,0.105
		c3.107,0.834,4.896,2.17,6.93,4.301c-2.09,0.062-5.679,0.33-12.066,0.875c-3.901,0.333-7.587,0.647-9.222,0.685
		c-3.507,0.071-11.486-3.683-19.965-7.667c-1.45-0.681-2.923-1.374-4.405-2.062c-2.161-1.002-3.672,0.26-4.672,1.096
		c-1.052,0.879-1.62,1.295-2.772,0.912c-2.365-1.178-4.815-1.221-7.319-0.115c-7.283,3.438-6.272,8.504-5.459,12.574
		c0.465,2.33,0.871,4.363-0.069,6.021c-0.563,0.197-1.213,0.375-1.83,0.529c-0.464-1.797-1.336-3.611-2.595-5.355
		c-3.169-4.393-8.412-7.771-12.749-8.215c-2.076-0.212-3.361-2.821-3.871-5.191c-0.805-3.741-0.118-8.492,2.423-9.967
		c0.094-0.054,0.177-0.12,0.252-0.19c0.003-0.003,0.007-0.003,0.009-0.006c0.272-0.257,0.544-0.503,0.807-0.742
		c2.086-1.892,4.682-4.247,1.509-8.12c-1.071-1.311-1.439-2.371-1.83-3.494c-0.466-1.341-0.948-2.729-2.483-4.307
		c-3.342-3.422-0.084-11.058,2.072-16.11c0.318-0.746,0.609-1.441,0.876-2.101c0.453,0.059,0.911,0.106,1.359,0.148
		C131.627,73.675,133.488,73.848,133.94,74.429z M75.354,102.286c-1.426-1.006-7.874-11.159-8.213-12.933
		c-0.201-1.045,1.44-3.572,4.202-5.667c1.902-1.442,3.367-1.919,3.918-1.919c0.081,0,0.142,0.01,0.182,0.029
		c2.419,3.449,7.549,1.213,12.076-0.759c2.439-1.063,5.204-2.27,6.513-2.055c6.521,1.061,6.482,2.778,6.378,7.369
		c-0.033,1.47-0.07,3.136,0.118,5.02c0.232,2.324-0.251,4.153-1.437,5.438c-2.12,2.299-6.111,2.573-8.294,2.533
		c-3.91-0.089-6.063,0.869-8.573,1.96c-1.439,0.626-3.06,1.332-5.297,1.953C76.473,102.909,75.949,102.587,75.354,102.286z
		 M91.22,164.202c-1.754,1.018-4.458,1.106-7.612,0.25c-4.473-1.215-8.999-4.166-10.527-6.865
		c-2.718-4.803-5.058-11.13-2.704-13.153c1.325-1.143,4.51-7.353,3.412-10.638c-0.444-1.328-1.536-2.146-2.995-2.242
		c-4.017-0.266-6.391-5.602-8.298-9.889c-0.2-0.45-0.395-0.888-0.586-1.307c0.451-0.224,1.008-0.492,1.53-0.742
		c7.526-3.613,15.561-7.86,15.612-12.542c0.005-0.495-0.074-0.97-0.237-1.423c1.848-0.58,3.261-1.195,4.54-1.751
		c2.386-1.038,4.117-1.792,7.389-1.726c3.25,0.059,7.704-0.488,10.431-3.445c1.758-1.906,2.489-4.477,2.173-7.641
		c-0.171-1.711-0.135-3.286-0.104-4.674c0.059-2.603,0.105-5.006-1.371-6.884c0.419-0.571,1.869-1.652,2.868-2.396
		c2.703-2.011,5.768-4.291,5.962-7.033c0.056-0.786-0.112-1.95-1.195-3.112c0.096-2.034,6.819-10.132,9.342-10.473
		c1.068-0.146,1.508,0.193,1.746,0.461c0.977,1.106,0.92,3.913,0.372,5.994c-0.698,2.655,0.966,4.214,2.182,5.353
		c0.851,0.797,1.586,1.486,1.758,2.457c0.154,0.865,0.621,1.44,1.267,1.833c-0.229,0.556-0.482,1.152-0.748,1.775
		c-2.452,5.746-6.157,14.429-1.494,19.201c1.094,1.125,1.421,2.066,1.835,3.258c0.433,1.246,0.923,2.658,2.313,4.358
		c1.417,1.729,0.997,2.215-1.22,4.225c-0.25,0.227-0.509,0.464-0.769,0.707c-3.679,2.311-4.602,8.19-3.59,12.894
		c0.932,4.331,3.307,7.103,6.353,7.415c3.535,0.362,8.051,3.329,10.739,7.054c1.632,2.263,2.459,4.61,2.435,6.766
		c-4.038-1.285-7.912-1.149-11.063,2.01c-3.006,3.013-6.596,3.04-10.396,3.068c-4.49,0.033-9.579,0.071-12.234,6.309
		c-0.177,0.349-1.239,1.582-2.092,2.573c-1.763,2.047-3.958,4.596-4.997,6.595c-0.53,1.019-2.018,1.236-4.061,1.431
		c-1.393,0.133-2.815,0.281-3.753,1.042C92.545,163.434,91.675,163.938,91.22,164.202z M167.269,167.497
		c-2.111,0-13.688-6.586-19.914-10.128c-6.712-3.818-8.511-4.796-9.342-4.927c-4.213-0.661-15.405-2.411-17.264,6.733
		c-0.37,1.826-1.343,2.639-2.955,3.985c-1.489,1.243-3.341,2.79-5.329,5.657c-3.998,5.771-13.731,11.272-18.356,11.325
		c-2.186-0.019-3.673-0.678-4.214-1.977c-0.617-1.481,0.074-3.565,1.719-5.187c0.052-0.051,4.095-4.809,4.153-7.689
		c0.488-0.101,1.171-0.167,1.687-0.217c2.121-0.202,5.025-0.479,6.307-2.945c0.888-1.707,3.051-4.218,4.63-6.053
		c1.525-1.771,2.271-2.651,2.544-3.295c1.935-4.544,5.173-4.569,9.655-4.602c4.009-0.03,8.554-0.064,12.382-3.9
		c4.906-4.917,13.153,0.609,20.43,5.487c2.955,1.98,5.747,3.852,8.172,4.918c2.508,1.527,7.805,8.695,7.7,12.993
		c-0.57-0.107-1.163-0.181-1.807-0.181C167.403,167.495,167.338,167.495,167.269,167.497z M210.674,241.76
		c-1.461,0.44-3.28,0.989-3.977,0.5c-0.378-0.265-0.621-1.011-0.684-2.101c-0.446-7.739-11.18-21.913-18.131-21.913
		c-1.629,0-1.854-3.479-1.994-8.394c-0.145-5.065-0.308-10.806-3.075-14.533c-1.723-2.322-2.605-6.457-3.539-10.833
		c-1.324-6.208-2.8-13.037-7.252-15.758c0.737-4.878-3.728-11.73-7.18-15.015c0.567-1.387,1.37-2.182,2.453-2.415
		c3.609-0.78,10.033,4.038,14.844,8.804c3.861,3.827,20.143,7.049,24.243,6.396c1.738-0.277,2.875-1.191,3.788-1.925
		c1.143-0.918,1.716-1.38,3.16-0.933c3.57,1.101,5.738,2.247,8.918,4.715c0.58,0.45,0.778,0.961,1.105,1.9
		c1.106,3.175,2.872,5.974,13.316,8.086c0.927,0.188,1.723,0.401,2.426,0.589c0.971,0.26,1.861,0.489,2.78,0.569
		c-1.094,2.504-1.887,5.147-1.858,7.121c0.012,0.844,0.171,1.503,0.404,2.026c-0.206,1.503-0.729,2.576-1.252,3.596
		c-0.456,0.889-0.887,1.729-1.037,2.744c-0.431,2.912,1.042,4.382,2.117,5.456c0.423,0.422,0.789,0.788,0.958,1.15
		c0.253,0.542,0.158,0.759,0.127,0.83c-0.346,0.789-2.392,1.438-3.746,1.868c-1.076,0.341-2.006,0.636-2.676,1.068
		c-2.453,1.586-2.564,5.724-2.683,10.104c-0.058,2.147-0.125,4.537-0.55,5.926c-0.697-0.186-1.484-0.18-2.389,0.135
		c-3.287,1.144-3.316,4.073-3.338,6.211c-0.016,1.575-0.031,3.063-0.992,4.08c-2.622,2.774-5.298,6.714-7.531,10.064
		c-0.516-0.231-1.05-0.456-1.628-0.663C214.285,240.671,212.449,241.225,210.674,241.76z M288.179,292.028
		c-1.551,1.614-2.32,1.212-4.521-0.327c-0.933-0.652-1.99-1.393-3.205-1.788c-3.403-1.108-5.212,0.15-6.807,1.265
		c-0.818,0.571-1.59,1.11-2.637,1.387c-0.999,0.254-4.16-2.979-5.518-4.36c-2.023-2.06-3.325-3.341-4.532-3.733
		c-3.878-1.263-5.031-2.097-7.713-5.577c-2.418-3.142-4.717-4.913-7.15-6.788c-0.905-0.697-1.84-1.419-2.83-2.244
		c-0.245-0.232-0.499-1.373-0.65-2.054c-0.298-1.345-0.607-2.734-1.471-3.712c-1.555-1.761-4.037-3.028-6.437-4.255
		c-2.009-1.026-4.087-2.088-4.729-3.082c-0.944-1.459-1.734-2.877-2.498-4.249c-2.019-3.625-3.834-6.871-7.546-9.28
		c2.143-3.211,4.678-6.922,7.086-9.469c1.724-1.825,1.748-4.139,1.766-5.999c0.023-2.324,0.14-3.113,1.435-3.563
		c0.999-0.347,1.616,0.314,2.961,2.485c1.157,1.868,2.906,4.691,5.983,3.127c1.298-0.658,1.764-0.646,1.927-0.581
		c0.104,0.042,0.482,0.282,0.961,1.626c1.439,4.037,2.264,4.711,4.774,5.247c0.574,0.123,1.226,0.262,2.068,0.551
		c1.064,0.365,1.636,2.204,1.825,2.81c0.516,1.648,1.479,2.143,2.196,2.267c2.148,0.369,4.175-2.073,6.805-5.567
		c0.627-0.832,1.337-1.774,1.635-2.027c1.892-1.6,3.807-2.597,5.658-3.562c1.996-1.04,4.042-2.112,5.953-3.894
		c1.433,0.584,3.133,1.875,4.493,3.226c-6.723,3.251-4.268,13.119-3.055,17.985c0.084,0.337,0.169,0.679,0.243,0.989
		c-2.018,0.732-2.724,1.467-3.975,2.896c-0.452,0.516-0.964,1.102-1.697,1.847c-0.992,1.01-0.843,2.759-0.255,4.045
		c0.823,1.798,2.472,2.845,4.296,2.727c0.06-0.003,0.118-0.011,0.177-0.022c2.795-0.531,4.563,1.727,6.761,4.979
		c0.885,1.312,1.722,2.55,2.68,3.369c2.456,2.098,4.924,2.711,7.101,3.253c2.391,0.594,4.455,1.107,6.478,3.411
		c1.172,1.336,1.66,3.044,1.449,5.077c-0.426,4.126-3.599,8.563-6.367,10.644c-0.046,0.034-0.069,0.084-0.109,0.122
		c-0.146-0.043-0.294-0.09-0.439-0.111C289.792,290.972,288.876,291.301,288.179,292.028z M353.033,341.627
		c-1.608-0.399-3.219,0.333-4.775,2.195c-0.585,0.701-1.478,1.52-2.23,1.478c-1.206-0.076-2.486-2.069-3.334-3.389
		c-0.48-0.748-0.859-1.338-1.273-1.734c-1.129-1.081-2.622-1.854-4.066-2.601c-3.086-1.595-5.751-2.973-5.485-7.003
		c0.119-3.183-0.133-3.964-0.882-5.385c-0.262-0.497-0.559-1.061-0.931-2.054c-0.024-0.064-3.279-6.475-5.805-6.559
		c-0.771-0.039-1.451,0.405-1.792,1.149c-0.656,1.411-3.547,2.218-6.722,1.88c-2.616-0.28-4.013-1.194-4.133-1.725
		c-0.071-0.313,0.363-1.257,2.515-2.58c0.371-0.228,0.617-0.614,0.666-1.048c0.049-0.433-0.104-0.864-0.415-1.17
		c-0.619-0.608-1.079-1.099-1.443-1.486c-1.8-1.915-2.349-2.056-4.896-1.235c-0.486,0.156-1.094,0.352-1.872,0.573
		c-2.109,0.599-2.642,0.362-2.728,0.309c-0.202-0.126-0.359-0.971-0.474-1.587c-0.197-1.061-0.441-2.382-1.197-3.718
		c-0.136-0.24-0.362-0.688-0.662-1.278c-2.443-4.814-4.988-9.395-7.444-11.806c2.434-2.055,4.908-5.401,6.124-8.972
		c0.735,0.016,1.539-0.098,2.412-0.226c2.705-0.396,6.41-0.939,10.786,1.989c0.039,0.026,0.079,0.051,0.121,0.072
		c4.12,2.201,7.404-0.06,9.803-1.709c1.496-1.029,2.781-1.927,3.87-1.692c1.61,0.347,2.948,0.117,3.974-0.677
		c0.16-0.124,0.29-0.271,0.427-0.414c2.194,1.076,2.65,2.53,3.147,4.197c0.574,1.927,1.289,4.324,4.899,5.276
		c1.415,0.373,1.426,0.751,1.465,2.155c0.036,1.275,0.085,3.023,1.76,4.451c1.503,1.277,3.291,1.396,4.87,1.499
		c1.407,0.093,2.623,0.172,3.53,0.99c1.208,1.091,1.179,1.982,1.052,2.559c-0.403,1.831-2.915,3.799-4.917,4.419
		c-0.772,0.239-1.37,0.811-1.683,1.609c-1.216,3.111,2.081,9.74,2.118,9.805c0.556,0.954,1.673,2.41,2.966,4.097
		c1.971,2.57,6.584,8.589,6.248,10.142c-0.047,0.219-0.127,0.667-0.233,1.266c-0.886,4.991-1.511,7.464-1.94,8.651
		C354.011,342.004,353.542,341.755,353.033,341.627z M389.224,337.448c-1.188-1.14-2.655-1.842-4.253-2.012
		c-2.116-0.22-4.22,0.52-5.922,2.097c-1.556,1.44-2.326,2.618-2.945,3.564c-0.899,1.373-1.493,2.28-4.188,3.603
		c-2.079,1.021-3.292,0.319-5.263-1.003c-2.326-1.562-5.456-3.659-10.165,1.229c-0.029-0.055-0.062-0.103-0.091-0.156
		c0.836-1.27,1.63-4.077,2.785-10.583c0.098-0.552,0.171-0.964,0.213-1.164c0.57-2.63-2.446-6.825-6.769-12.464
		c-1.184-1.543-2.301-3.001-2.765-3.797c-0.781-1.367-2.427-6.208-1.949-7.313c2.795-0.902,6.081-3.458,6.748-6.485
		c0.154-0.701,0.194-1.583-0.094-2.536c2.338-0.567,5.668-1.141,6.442-0.783c1.419,0.858,2.994,3.019,3.104,3.595
		c0.08,1.854,1.976,2.486,3.808,3.098c1.605,0.536,3.424,1.144,4.063,2.363c2.211,4.231,5.329,4.936,7.835,5.501
		c1.985,0.448,3.433,0.774,4.404,2.631c1.132,4.479,6.114,9.897,8.524,12.519c0.107,0.117,0.193,0.211,0.288,0.313
		C391.713,331.759,390.442,334.356,389.224,337.448z M385.045,350.844c-0.095,0.376-0.173,0.684-0.232,0.909
		c-1.706,6.443,4.663,9.376,10.283,11.964c3.843,1.77,7.816,3.599,8.438,6.153c0.196,0.812-0.038,2.634-0.266,4.396
		c-0.554,4.297-1.181,9.167,2.212,10.72c0.075,0.034,0.146,0.067,0.162,0.334c0.066,1.168-1.231,3.301-3.066,4.406
		c-1.404,0.848-2.732,0.904-3.947,0.173c-3.325-2.007-5.96-1.152-7.59-0.082c-4.675,3.073-6.64,11.501-6.152,15.066
		c0.688,5.024-0.956,6.02-3.678,7.669c-1.684,1.019-3.777,2.287-5.463,4.744c-1.72,2.5-2.875,4.665-3.803,6.405
		c-2.477,4.641-3.606,6.759-11.415,8.104c-1.526,0.258-2.747-0.278-3.712-1.658c-2.22-3.173-2.192-9.494-0.614-12.25
		c0.717-1.25,1.358-2.332,1.953-3.333c1.367-2.306,2.548-4.297,3.803-6.946c1.141-2.409,0.713-4.21,0.401-5.525
		c-0.264-1.11-0.295-1.442,0.034-1.898c0.702-0.974,1.434-1.466,2.646-2.279c1.105-0.742,2.479-1.665,4.33-3.299
		c3.789-3.348,0.964-9.122-0.554-12.225c-0.278-0.57-0.625-1.279-0.674-1.473c-0.446-2.722-3.135-9.767-5.295-15.428
		c-0.957-2.509-1.783-4.676-2.18-5.858c-0.138-0.408-0.354-1.458-0.604-2.673c-0.671-3.262-1.4-6.5-2.343-9.165
		c3.587-4.265,5.01-3.319,7.353-1.744c1.874,1.258,4.442,2.982,8.091,1.194c3.393-1.664,4.324-3.088,5.311-4.596
		c0.59-0.9,1.2-1.832,2.5-3.036c1.095-1.013,2.405-1.495,3.697-1.357c1.286,0.137,2.454,0.865,3.288,2.053
		c0.042,0.06,0.103,0.093,0.151,0.144C387.046,343.514,386.022,346.976,385.045,350.844z M447.038,341.86
		c-1.802,2.305-2.622,4.71-3.281,6.643c-0.532,1.563-0.992,2.912-1.668,3.158c-0.62,0.227-2.143,0.014-5.901-2.256
		c-3.797-2.296-6.395-7.897-8.113-11.604c-1.349-2.908-1.906-4.111-3.103-4.332c-0.927-0.171-1.793-0.39-2.63-0.6
		c-1.98-0.498-3.85-0.971-6.242-0.81c-4.619,0.3-6.658-2.277-9.024-5.269c-0.85-1.073-1.728-2.183-2.735-3.123
		c-0.178-0.165-0.395-0.282-0.63-0.34c-3.198-0.784-6.202,0.548-8.993,3.975c-2.157-2.347-6.914-7.567-7.773-11.284
		c-0.024-0.106-0.062-0.209-0.109-0.307c-1.57-3.188-4.131-3.767-6.391-4.276c-2.331-0.525-4.344-0.979-5.946-4.049
		c-1.17-2.233-3.669-3.068-5.678-3.738c-0.634-0.212-1.563-0.522-1.895-0.752c-0.258-1.76-2.619-4.572-4.447-5.678
		c-1.773-1.071-7.168-0.078-9.527,0.688c-0.073-0.071-0.131-0.144-0.21-0.215c-1.638-1.479-3.553-1.604-5.243-1.716
		c-1.305-0.085-2.432-0.159-3.219-0.829c-0.682-0.581-0.73-1.213-0.763-2.372c-0.044-1.554-0.109-3.903-3.576-4.815
		c-2.071-0.547-2.385-1.601-2.905-3.346c-0.546-1.834-1.286-4.289-4.568-5.918c0.304-1.221,0.364-2.537,0.412-3.646l0.005-0.119
		c0.044-1.045,0.678-1.448,2.114-2.119c0.41-0.191,0.835-0.39,1.207-0.632c1.925-1.25,1.827-3.935,1.732-6.531
		c-0.049-1.332-0.121-3.339,0.33-3.809c0.011-0.004,0.019-0.013,0.029-0.018c0.084-0.063,0.25-0.076,0.377-0.07
		c1.135,0.032,3.198-0.143,6.055-0.393c8.038-0.703,24.763-2.165,27.457,2.005c0.199,0.309,0.807,1.248-0.499,3.578
		c-0.536,0.956-1.732,2.02-2.999,3.146c-2.294,2.04-4.895,4.352-4.902,7.356c-0.005,1.815,0.912,3.524,2.804,5.225
		c4.362,3.922,10.215,6.247,15.875,8.495c2.144,0.852,4.168,1.655,6.087,2.533c1.624,0.742,3.21,1.43,4.763,2.104
		c6.16,2.671,11.481,4.979,16.667,9.516c0.124,0.108,12.487,10.738,19.427,9.903c1.033,0.495,3.79,3.977,5.134,5.674
		c1.399,1.768,2.29,2.879,2.925,3.418C444.228,330.061,450.295,337.689,447.038,341.86z"/>
</g>
<g id="Livello_5">
	
		<rect x="163.688" y="212.917" transform="matrix(0.8385 0.545 -0.545 0.8385 165.4928 -48.8263)" fill="#FF0000" width="2.835" height="83.636"/>
	<rect x="-0.602" y="119.825" fill="#FF0000" width="61.354" height="2.835"/>
	<rect x="70.385" y="0.518" fill="#FF0000" width="2.835" height="81.14"/>
	<rect x="449.354" y="337.008" fill="#FF0000" width="60.284" height="2.834"/>
	<rect x="401.353" y="391.231" fill="#FF0000" width="2.834" height="119.528"/>
	<rect x="319.347" y="320.518" fill="#FF0000" width="2.834" height="99.756"/>
	
		<rect x="146.361" y="408.225" transform="matrix(0.8613 0.5081 -0.5081 0.8613 235.7061 -44.246)" fill="#FF0000" width="105.084" height="2.835"/>
	<rect x="126.772" y="393.21" fill="#FF0000" width="2.835" height="117.55"/>
	<rect x="-0.602" y="376.27" fill="#FF0000" width="117.197" height="2.834"/>
	<rect x="278.115" y="0.518" fill="#FF0000" width="2.834" height="48.602"/>
	
		<rect x="350.073" y="415.977" transform="matrix(0.9032 0.4293 -0.4293 0.9032 213.3221 -110.8453)" fill="#FF0000" width="4.542" height="2.835"/>
</g>
<rect x="402.77" y="98.728" fill="none" stroke="#FF0000" stroke-width="2.8346" stroke-miterlimit="10" width="28.347" height="28.346"/>
</svg>
