<?xml version="1.0" encoding="utf-8"?>
<!-- Generator: Adobe Illustrator 16.0.0, SVG Export Plug-In . SVG Version: 6.00 Build 0)  -->
<!DOCTYPE svg PUBLIC "-//W3C//DTD SVG 1.1//EN" "http://www.w3.org/Graphics/SVG/1.1/DTD/svg11.dtd">
<svg version="1.1" xmlns="http://www.w3.org/2000/svg" xmlns:xlink="http://www.w3.org/1999/xlink" x="0px" y="0px"
	 width="510.24px" height="510.24px" viewBox="0 0 510.24 510.24" enable-background="new 0 0 510.24 510.24" xml:space="preserve">
<g id="Livello_2" display="none">
	
		<image display="inline" overflow="visible" width="977" height="1000" xlink:href="81314290.jpg"  transform="matrix(0.4948 0 0 0.4948 -0.5974 15.7288)">
	</image>
</g>
<g id="Livello_1">
	
		<path fill="none" stroke="#000000" stroke-width="2.2677" stroke-linecap="round" stroke-linejoin="round" stroke-miterlimit="10" d="
		M235.68,143.252c-3.397,4.993,2.147,21.496,2.8,25.422c1.252,7.52,9.501,13.083,15.731,16.247
		c5.089,2.584,13.81,15.97,20.251,13.508c3.989-1.524,7.075,11.62,7.873,13.412c5.785,12.99,6.489,27.417,16.437,38.267
		c3.077,3.356,9.39,10.705,13.586,12.16c3.444,1.192,1.57,3.521,4.219,4.947c3.916,2.122,7.584,3.285,10.634,6.723"/>
	
		<path fill="none" stroke="#000000" stroke-width="2.2677" stroke-linecap="round" stroke-linejoin="round" stroke-miterlimit="10" d="
		M232.835,191.454c-1.925,0.304-3.757,3.098-6.715,2.5c-14.833-3-8.446-14.643-11.66-17.137c-3.204-2.487-5.645-2.66-9.486-3.845
		c-3.71-1.146-6.055,5.006-9.331,5.528c-3.933,0.626-19.65-2.662-23.023-6.004c-4.62-4.577-18.25-15.375-21.667-6.453"/>
	
		<path fill="none" stroke="#000000" stroke-width="2.2677" stroke-linecap="round" stroke-linejoin="round" stroke-miterlimit="10" d="
		M320.521,293.01c7.815-0.681,2.716,8.185,8.539,9.721c4.352,1.146,1.063,4.581,3.781,6.895c2.358,2.005,5.957,0.284,8.431,2.518
		c4.204,3.793-0.95,8.315-4.395,9.383c-2.567,0.794,0.789,8.565,1.242,9.344c1.723,2.957,10.049,12.135,9.375,15.25
		c-0.282,1.309-1.762,11.097-3.196,11.661"/>
	
		<path fill="none" stroke="#000000" stroke-width="2.2677" stroke-linecap="round" stroke-linejoin="round" stroke-miterlimit="10" d="
		M116.418,121.851c-11.683-6.274-4.085,15.958,2.064,16.588c6.718,0.688,15.992,9.254,14.253,17.083"/>
	
		<path fill="none" stroke="#000000" stroke-width="2.2677" stroke-linecap="round" stroke-linejoin="round" stroke-miterlimit="10" d="
		M288.815,233.067c-3.271,0.591-7.352,5.804-10.407,4.215c-4.764-2.474-5.417,8.597-10.89,7.648
		c-14.31-2.476,0.063,17.638,0.244,20.089c-3.909,0.276-6.206-1.771-9.165,1.237c-0.912,0.928-0.979,7.334,0.965,6.152
		c5.402-3.31,9.72,7.097,12.437,9.421c4.748,4.054,11.304-1.531,15.622,3.387c4.694,5.347-1.339,16.933-5.987,20.426"/>
	
		<path fill="none" stroke="#000000" stroke-width="2.2677" stroke-linecap="round" stroke-linejoin="round" stroke-miterlimit="10" d="
		M336.128,427.51c1.234,0.738,2.449,1.51,3.646,2.311c0.11,1.083-4.962,8.537-5.658,9.437c-2.872,3.707-11.912,21.409-12.119,23.994
		c-0.488,6.112,2.881,4.188,3.749,8.243c-0.284,1.442,2.92,11.066,0.625,11.25c-3.188,0.253-4.975,5.151-3.926,8.472
		c0.635,2.012-0.123,9.126-3.18,4.671c-2.289-3.354-13.667-1.109-17.971-4.744c-3.49-2.947-3.626-7.947-7.918-10.629
		c-3.865-2.416-7.002-1.25-11.003-1.487c-4.168-0.24-27.953-20.145-34.73-20.137c-5.538,0.007-4.089,1.266-8.187-2.498
		c-1.984-1.825-3.26-3.417-5.156-5.329c-2.418-2.421,1.82-9.899,1.82-9.899s7.746-9.609,9.898-8.427
		c2.309,1.271,0.617,5.938,4.52,6.242c5.275,0.412,2.473-8.078,7.821-6.31c3.508,1.165,6.525-4.674,7.848,2.034
		c0.813,4.117,13.839,6.188,15.957,5.018c1.175-0.649,17.465-0.886,18.539-1.182c4.428-1.222,6.781-4.499,10.854-5.193
		c4.436-0.757,4.434-0.228,8.671,1.221c5.023,1.722,2.806-4.968,4.782-5.735c1.12-0.437,2.73,2.405,3.491,2.435
		c2.277,0.086,5.374-2.865,7.127-4.004"/>
	
		<path fill="none" stroke="#000000" stroke-width="2.2677" stroke-linecap="round" stroke-linejoin="round" stroke-miterlimit="10" d="
		M127.812,96.585c-3.062-3.83-0.074-8.891,2.502-12.118c1.989-2.487,5.767-5.138,5.507-8.799c-0.17-2.4-3.187-8.981,2.394-9.052
		c10.336-0.122,2.563,8.333,9.678,9.831c0.822,0.173,17.825-8.492,13.854,0.57"/>
	
		<path fill="none" stroke="#000000" stroke-width="2.2677" stroke-linecap="round" stroke-linejoin="round" stroke-miterlimit="10" d="
		M378.605,352.829c-2.177-3.097-6.166-3.581-9.112-0.853c-3.63,3.361-2.455,4.938-7.471,7.399
		c-6.847,3.362-8.214-8.314-15.989,1.006"/>
	
		<path fill="none" stroke="#000000" stroke-width="2.2677" stroke-linecap="round" stroke-linejoin="round" stroke-miterlimit="10" d="
		M132.866,152.317c1.189-0.27,2.744-0.63,3.873-1.085c3.927-5.553-5.256-13.542,5.194-18.475c2.106-0.929,4.16-0.881,6.162,0.143
		c3.836,1.36,4.559-3.35,7.4-2.031c10.5,4.875,20.567,9.962,25,9.86s22.791-2.123,23.509-1.44c1.475,1.403,6.528,3.391,8.566,3.154
		c2.683-1.113,5.365-2.225,8.049-3.335c3.931-0.515,8.375,2.614,12.204,1.047c3.986-1.629,3.673,17.464,9.793,5.11
		c4.008-8.088-3.413-8.453-5.35-15.823c-2.931-11.15,12.992-14.705,20.337-18.986"/>
	
		<path fill="none" stroke="#000000" stroke-width="2.2677" stroke-linecap="round" stroke-linejoin="round" stroke-miterlimit="10" d="
		M206.319,140.73c-4.098-4.608-5.989-7.268-11.131-8.65c0.041,0.011-9.814-4.576-10.653-6.585s-0.438-4.377,0.261-6.001
		s-2.29-2.491-3.208-3.925c-1.437-3.453,2.614-7.982,4.185-10.687c1.18-1.189,1.836-2.578,1.967-4.167
		c-1.412-3.021-7.537,2.915-9.616,1.996c-4.686-2.067-3.561-13.724-3.628-17.768c-0.095-5.699,3.135-6.969,3.515-11.503
		s-6.265-6.826-9.14-12.07c-8.182-5.583-7.596,8.062-7.619,11.933"/>
	
		<path fill="none" stroke="#000000" stroke-width="2.2677" stroke-linecap="round" stroke-linejoin="round" stroke-miterlimit="10" d="
		M117.409,85.439c-1.927,5.136-7.766,15.664-2.979,20.564c2.553,2.623,3.403,7.799,5.939,10.9c2.619,3.197-1.5,2.631-3.952,4.947"/>
	
		<path fill="none" stroke="#000000" stroke-width="2.2677" stroke-linecap="round" stroke-linejoin="round" stroke-miterlimit="10" d="
		M126.202,92.622c-4.184-1.426,0.159-3.317-1.661-5.66c-1.718-2.211-8.33-0.627-8.757-3.027c-0.569-3.215-4.836-3.883-3.964-7.201
		c0.781-2.961,1.002-8.853-3.678-8.22c-3.402,0.46-12.182,10.859-10.309,12.721c4.22,4.188-7.021,8.804-7.921,11.388"/>
	
		<path fill="none" stroke="#000000" stroke-width="2.2677" stroke-linecap="round" stroke-linejoin="round" stroke-miterlimit="10" d="
		M342.317,312.826c-0.077,0.011,15.295-3.265,13.129,1.258c-0.889,0.351-1.698,0.836-2.43,1.458
		c0.316,3.931,8.037,2.713,9.708,5.905c3.609,6.91,14.646,5.674,13.563,8.257c-1.75,4.666,6.521,11.492,7.895,13.093"/>
	
		<path fill="none" stroke="#000000" stroke-width="2.2677" stroke-linecap="round" stroke-linejoin="round" stroke-miterlimit="10" d="
		M315.814,267.497c-2.371,4.007-4.758,10.526-8.67,13.127"/>
	
		<path fill="none" stroke="#000000" stroke-width="2.2677" stroke-linecap="round" stroke-linejoin="round" stroke-miterlimit="10" d="
		M306.897,281.12c-0.404-3.322-4.073-7.749-8.01-5.689c-4.449,2.324-1.882,5.029-3.357,7.375c-0.48,0.763-6,2.341-6.963,2.772"/>
	
		<path fill="none" stroke="#000000" stroke-width="2.2677" stroke-linecap="round" stroke-linejoin="round" stroke-miterlimit="10" d="
		M231.378,201.789c-0.308,3.392-2.971,5.123-3.254,7.03c-0.489,3.306,5.803,2.936,6.629,4.708c1.802,3.859-7.711,5.213-9.588,6.424
		c-3.191,2.063-1.13,12.594-2.979,16.088"/>
	
		<path fill="none" stroke="#000000" stroke-width="2.2677" stroke-linecap="round" stroke-linejoin="round" stroke-miterlimit="10" d="
		M101.758,334.936c6.049,0,6.202,7.21,6.195,13.018c0,0.324-3.396,14.604,1.529,17.879c-3.529,6.35-1.544,17.386-3.589,24
		c-0.679,2.191,9.769,17.944,11.778,16.779c0.709-0.411,6.781,1.508,11.115-8.325s11.541-4.092,14.343-1.937
		c6.365,4.883,7.818-36.652,9.691-39.688c2.634-4.267-5.295-6.212-1.729-11.638c2.186-3.324,8.052-8.12,3.741-12.408
		c-4.942-4.92,2.418-12.566-5.72-15.827c4.113-5.607-12.904-17.394-17.304-13.583c-0.545,0.527-0.782,1.162-0.711,1.906
		c1.792,3.459-2.468,2.076-3.745,3.534c-4.333,4.949-9.102,7.27-13.385,11.637c-2.029,2.066-8.774,0.219-9.168-2.509
		c-0.984-6.831-7.167-0.063-4.938,1.163C104.873,321.705,88.892,334.936,101.758,334.936z"/>
	
		<path fill="none" stroke="#000000" stroke-width="2.2677" stroke-linecap="round" stroke-linejoin="round" stroke-miterlimit="10" d="
		M248.936,59.927c-0.156,0.147-3.791,8.754-4.016,8.193c0.92,2.283-12.195,6.532-8.622,12.612c4.056,6.879,0.305,5.448,1.04,13.449
		c0.784,8.54,14.94,5.022,17.031,6.469s4.111,5.974,5.217,9.309"/>
	
		<path fill="none" stroke="#000000" stroke-width="2.2677" stroke-linecap="round" stroke-linejoin="round" stroke-miterlimit="10" d="
		M186.269,105.255c1.214,1.122,1.769,4.01,6.935,2.479S200.146,92.16,209.2,93.63c3.633,0.59,15.371-6.815,14.903-11.882
		c-0.267-2.884-4.993-3.938-4.193-6.998c0.548-2.096,5.265-12.805,8.279-12.802s1.746,2.003,4.13,2.628s9.581-3.847,7.445-8.313
		c-1.642-3.435-5.73-6.208-7.125-8.884c-2.212-4.241,1.369-1.318,2.395-5.802c1.353-5.913-9.938-0.93-11.274-0.422
		c-3.898,1.48-18.046,2.713-18.159,2.648c-7.338-4.131-9.993,5.147-12.21,8.86c-3.386,5.668-9.274-6.054-13.775-3.089
		c-1.847,1.219-4.854-1.293-5.548,1.666c-0.343,1.458-5.21,11.019-4.015,11.901"/>
	
		<path fill="none" stroke="#000000" stroke-width="2.2677" stroke-linecap="round" stroke-linejoin="round" stroke-miterlimit="10" d="
		M257.606,110.457c3.047-0.209,4.83-3.502,6.931-5.202c1.586-1.284,4.307,2.655,5.644,3.026c2.61,0.725,5.063-3.065,7.356-2.079
		c2.03,0.873,1.689,4.76,3.377,5.424c3.624,1.431,10.761-0.18,6.92-4.893c-2.417-2.968-5.974-4.861-8.286-7.951
		c-2.959-3.954,3.801-6.338-3.365-8.387c1.328-2.002,5.808-4.194,5.313-7.128c-0.642-3.804-7.356-1.754-8.788-4.353
		c-1.244-2.261,9.77-7.188,9.914-11.558c0.141-4.167-37.492-8.402-41.364-8.917"/>
	
		<path fill="none" stroke="#000000" stroke-width="2.2677" stroke-linecap="round" stroke-linejoin="round" stroke-miterlimit="10" d="
		M263.055,240.002c2.447,0.598,4.574,1.729,6.19,3.718"/>
	
		<path fill="none" stroke="#000000" stroke-width="2.2677" stroke-linecap="round" stroke-linejoin="round" stroke-miterlimit="10" d="
		M161.746,183.03c1.897-4.94-5.943-10.403-5.943-10.403s-6.438-8.62-9.07-9.355c-8.787-2.456-17.339-14.554-25.282-6.592
		c-7.399,7.416-18.066-1.084-22.337,8.948c-0.491,1.155-4.618,6.993-6.243,10.118s-7.591,1.411-8.653,3.201"/>
	
		<path fill="none" stroke="#000000" stroke-width="2.2677" stroke-linecap="round" stroke-linejoin="round" stroke-miterlimit="10" d="
		M207.573,256.847c2.314-3.479,5.159-7.756,7.902-10.658c2.964-3.137-0.523-8.435,3.766-9.927c4.426-1.541,4.881,7.66,8.769,5.687
		c2.526-1.282,3.81-1.124,4.864,1.833c1.808,5.069,2.187,3.635,5.968,4.932c1.603,0.55,1.42,4.483,1.815,5.749
		c1.462,4.681,7.635-6.625,9.271-8.008c4.838-4.09,10.57-4.096,14.399-9.189c1.873-2.491-8.904-5.044-10.535-7.503
		c-4.834-7.291,1.316-19.428-10.505-20.043c-3.769-0.196-8.039-5.548-11.293-7.35c-3.605-1.996,2.809-14.372,5.012-15.676
		c2.322-1.374,3.113,2.618,8.488,0.552c2.875-1.438,4.021-1.748,4.433-3.47"/>
	
		<path fill="none" stroke="#000000" stroke-width="2.2677" stroke-linecap="round" stroke-linejoin="round" stroke-miterlimit="10" d="
		M288.567,294.843c1.05,2.438,7.49-1.785,14.678,3.027c5.764,3.078,9.284-4.383,13.302-3.537c4.161,0.892,4.31-3.92,4.432-6.769
		c0.112-2.617,2.445-0.206,3.699-1.021c2.794-1.815-0.821-12.949,3.524-12.803c5.563,0.185,42.281-4.641,34.905,8.521
		c-2.251,4.018-14.196,6.212-7.419,12.306c5.772,5.189,15.883,8.021,22.933,11.246c7.988,3.654,15.065,5.971,21.774,11.842
		c3.49,3.055,13.435,10.324,18.468,9.542c1.819-0.276,7.35,8.038,9.001,9.44c4.189,3.558,14.562,13.364,9.773,19.5
		c-5.185,6.634-2.08,15.324-13.134,8.646c-6.358-3.843-7.993-16.942-9.373-17.197c-3.106-0.573-6.299-0.918-9.455-0.708
		c-7.241,0.482-9.243-5.432-12.821-8.767c-7.083-6.603-16.122,22.917-18.569,26.105c-6.229,8.122,18.324,11.396,20.106,18.725
		c0.743,3.057-2.59,12.445,1.159,14.161c3.431,1.569-2.714,10.708-8.173,7.415c-7.885-4.765-12.271,8.704-11.604,13.579
		c1.288,9.426-5.279,7.431-9.378,13.408c-6.26,9.105-4.551,13.106-16.144,15.103c-7.178,1.233-10.363-10.718-7.602-15.539
		c2.391-4.171,8.992-4.867,8.703-11.77c-0.117-2.76-6.033-3.953-1.099-6.884c4.677-2.774,4.546-2.43,8.79-2.462
		c6.128-0.045-2.567-13.881-2.816-15.398c-0.619-3.774-6.137-17.242-7.42-21.062c-0.945-2.806-3.405-23.217-9.979-15.356
		c-4.642,5.561-7.482-2.166-8.907-3.531c-3.21-3.076-13.973-2.765-11.058-9.857c1.194-2.904,2.685-2.724,1.399-6.157
		c-0.184-0.487-4.54-9.296-5.402-7.417c-2.549,5.479-24.59,3.59-11.432-2.989c-3.508-4.205-2.527-3.869-7.402-2.484
		c-6.278,1.782-3.974-2.047-6.019-5.665c-1.102-1.958-8.031-17.065-11.323-13.624c-3.568,3.715-5.893-0.674-9.189-1.749
		c-4.332-1.413-5.146,1.751-8.64,2.674c-2.946,0.779-8.486-7.346-10.851-8.116c-4.18-1.363-5.577-2.404-8.395-6.061
		c-3.169-4.115-6.044-5.706-9.767-8.807c-1.201-1.001-1.016-4.492-2.273-5.914c-2.768-3.134-9.604-4.892-11.294-7.506
		c-4.2-6.492-5.365-12.076-13.465-14.98c-3.119-1.116-10.311,4.945-10.728-2.308c-0.409-7.104-10.715-20.577-16.715-20.577
		s-0.976-16.451-6.207-23.5s-3.082-27.432-14.368-27.249c-3.882,0.062-27.65-14.781-29.513-15.073
		c-5.034-0.788-14.131-1.882-15.656,5.616c-0.862,4.257-4.394,4.234-8.507,10.168s-14.197,11.874-19.506,11.933
		c-6.573,0.073-7.455-5.696-3.506-9.59c1.225-1.208,6.563-10.415,0.855-7.098c-5.684,3.296-16.709-1.431-19.628-6.584
		c-1.882-3.327-6.073-11.764-2.396-14.925c1.279-1.104,5.619-10.103,1.249-10.393c-5.798-0.381-8.376-8.585-10.609-13.147
		c-0.318-0.656,26.271-10.363,14.563-16.305c-1.513-0.77-8.487-11.708-8.906-13.896c-0.735-3.83,8.882-11.452,10.854-8.638
		c2.948,4.203,13.407-4.09,17.656-3.399c10.096,1.641,5.821,5.814,8.734,13.226c3.023,7.695-4.426,9.982-10.1,9.875
		c-5.896-0.111-9.493,2.324-15.999,4.046"/>
</g>
</svg>
