<?xml version="1.0" encoding="utf-8"?>
<!-- Generator: Adobe Illustrator 16.0.0, SVG Export Plug-In . SVG Version: 6.00 Build 0)  -->
<!DOCTYPE svg PUBLIC "-//W3C//DTD SVG 1.1//EN" "http://www.w3.org/Graphics/SVG/1.1/DTD/svg11.dtd">
<svg version="1.1" xmlns="http://www.w3.org/2000/svg" xmlns:xlink="http://www.w3.org/1999/xlink" x="0px" y="0px"
	 width="510.24px" height="510.24px" viewBox="0 0 510.24 510.24" enable-background="new 0 0 510.24 510.24" xml:space="preserve">
<g id="Livello_1">
	<g>
		<path d="M345.012,426.952c0.062-0.079,6.076-8.42,5.89-10.246c-0.034-0.336-0.217-0.639-0.497-0.827
			c-1.228-0.821-2.471-1.609-3.694-2.341c-0.109-0.065-0.225-0.11-0.342-0.136c-0.372-0.32-0.925-0.371-1.356-0.091
			c-0.468,0.304-1.008,0.715-1.579,1.149c-1.442,1.097-3.393,2.581-4.706,2.67c-0.174-0.147-0.464-0.455-0.667-0.672
			c-0.929-0.989-2.089-2.221-3.459-1.684c-1.36,0.528-1.577,2.104-1.769,3.495c-0.127,0.926-0.285,2.078-0.73,2.353
			c-0.257,0.159-0.807,0.111-1.507-0.129c-0.757-0.259-1.377-0.487-1.91-0.685c-2.684-0.992-3.544-1.224-7.317-0.581
			c-2.351,0.401-4.169,1.568-5.927,2.698c-1.517,0.974-3.085,1.981-5.011,2.513c-0.47,0.095-3.546,0.214-6.261,0.318
			c-9.327,0.359-11.791,0.55-12.553,0.971c-0.979,0.526-7.394,0.028-11.685-2.006c-1.521-0.722-2.474-1.537-2.612-2.238
			c-0.43-2.18-1.082-3.389-2.114-3.922c-1.216-0.629-2.479-0.062-3.59,0.44c-1.021,0.46-1.986,0.895-2.9,0.591
			c-3.809-1.261-4.811,1.713-5.412,3.489c-0.711,2.104-1.119,2.897-2.677,2.766c-1.316-0.102-1.581-0.741-2-2.543
			c-0.288-1.24-0.647-2.784-2.062-3.563c-2.467-1.348-7.521,3.988-11.327,8.709c-0.039,0.048-0.073,0.1-0.104,0.153
			c-0.779,1.374-4.518,8.374-1.639,11.257c0.743,0.749,1.39,1.448,2.022,2.133c0.999,1.08,1.942,2.101,3.172,3.232l0.169,0.156
			c2.955,2.714,3.262,2.998,5.828,2.779c0.68-0.058,1.612-0.137,2.957-0.139c0.002,0,0.002,0,0.004,0
			c3.521,0,13.1,6.603,20.796,11.907c7.512,5.177,11.858,8.112,13.862,8.228c1.198,0.071,2.299,0.023,3.364-0.022
			c2.487-0.109,4.64-0.202,7.105,1.34c2.086,1.303,3.083,3.26,4.139,5.332c0.933,1.83,1.896,3.722,3.648,5.201
			c2.446,2.065,6.525,2.413,10.47,2.749c3.03,0.258,6.465,0.551,7.298,1.771c1.025,1.495,1.951,1.94,2.69,1.94
			c0.321,0,0.607-0.085,0.851-0.203c2.078-1.013,2.174-5.745,1.654-7.392c-0.535-1.694-0.174-4.037,0.859-5.571
			c0.41-0.609,1.104-1.352,2.076-1.429c0.531-0.042,1.002-0.304,1.325-0.737c1-1.339,0.498-4.174-0.383-8.345
			c-0.257-1.216-0.576-2.729-0.546-3.079c0.03-0.15,0.028-0.306-0.004-0.456c-0.445-2.083-1.488-2.933-2.325-3.614
			c-0.951-0.775-1.639-1.335-1.402-4.301C333.308,448.077,342.194,430.589,345.012,426.952z M333.096,456.401
			c0.674,0.549,1.212,0.987,1.502,2.164c-0.037,0.695,0.181,1.772,0.587,3.695c0.373,1.768,1.128,5.344,0.835,6.383
			c-1.359,0.192-2.6,1.034-3.516,2.394c-1.432,2.126-1.891,5.148-1.141,7.521c0.354,1.123,0.088,3.829-0.406,4.563
			c-0.143-0.107-0.396-0.349-0.756-0.872c-1.438-2.106-4.932-2.404-8.977-2.749c-3.424-0.291-7.305-0.622-9.199-2.222
			c-1.402-1.185-2.223-2.794-3.091-4.498c-1.149-2.257-2.339-4.59-4.958-6.227c-2.331-1.457-4.463-1.736-6.507-1.736
			c-0.641,0-1.271,0.027-1.898,0.055c-1.008,0.043-2.048,0.09-3.133,0.024c-1.47-0.085-7.44-4.2-12.708-7.831
			c-10.455-7.206-18.159-12.308-22.084-12.308c-0.002,0-0.004,0-0.005,0c-1.441,0.002-2.427,0.086-3.147,0.146
			c-1.571,0.135-1.571,0.135-4.102-2.189l-0.169-0.156c-1.162-1.068-2.075-2.057-3.042-3.103c-0.649-0.702-1.313-1.42-2.08-2.193
			c-1.219-1.22,0.436-5.734,1.96-8.459c3.436-4.248,7.341-7.943,8.478-8.031c0.442,0.297,0.629,0.981,0.877,2.049
			c0.376,1.612,0.942,4.049,4.033,4.29c3.461,0.253,4.386-2.48,5.001-4.301c0.74-2.188,1.021-2.569,2.551-2.063
			c1.749,0.581,3.301-0.114,4.545-0.676c0.579-0.262,1.37-0.622,1.618-0.492c0.087,0.045,0.54,0.368,0.93,2.346
			c0.296,1.498,1.631,2.809,3.968,3.896c4.245,1.977,11.645,3.004,13.571,1.932c0.922-0.314,7.62-0.573,11.623-0.728
			c4.592-0.177,6.243-0.251,6.748-0.391c2.286-0.631,4.002-1.732,5.661-2.799c1.639-1.052,3.188-2.047,5.082-2.369
			c3.33-0.571,3.818-0.39,6.15,0.472c0.548,0.202,1.186,0.438,1.963,0.703c1.42,0.488,2.544,0.461,3.429-0.086
			c1.357-0.836,1.597-2.576,1.789-3.975c0.066-0.486,0.172-1.251,0.284-1.569c0.306,0.216,0.771,0.712,1.044,1.002
			c0.713,0.759,1.275,1.358,2.052,1.388c0.047,0.002,0.093,0.003,0.139,0.003c2.085,0,4.367-1.736,6.208-3.137
			c0.318-0.242,0.627-0.477,0.908-0.682c0.905,0.545,1.822,1.121,2.733,1.719c-0.888,1.898-4.343,7.116-5.229,8.261
			c-2.958,3.818-12.118,21.662-12.353,24.599C330.559,454.009,331.645,455.219,333.096,456.401z"/>
		<path d="M163.646,330.547c2.448-3.024,6.149-7.596,1.988-11.734c-1.819-1.811-1.621-4.157-1.411-6.642
			c0.254-3.007,0.566-6.694-3.567-8.914c0.365-1.083,0.383-2.558-0.58-4.459c-2.528-4.99-10.839-10.47-15.88-10.47
			c-1.293,0-2.346,0.344-3.174,1.063c-0.792,0.766-1.155,1.744-1.051,2.829c0.014,0.145,0.056,0.284,0.122,0.413
			c0.227,0.438,0.287,0.685,0.302,0.796c-0.223,0.109-0.766,0.208-1.105,0.27c-0.967,0.175-2.063,0.373-2.788,1.2
			c-2.312,2.64-4.814,4.557-7.235,6.411c-2.028,1.553-4.125,3.158-6.105,5.178c-0.34,0.347-1.06,0.546-1.975,0.546
			c-2.484,0-5.113-1.387-5.262-2.422c-0.499-3.463-2.263-3.98-3.27-3.98c-1.921,0-3.858,1.954-4.307,3.7
			c-0.291,1.133,0.072,2.104,0.969,2.598c1.027,0.567-0.021,2.788-1.499,5.632c-1.564,3.011-3.182,6.125-1.817,8.372
			c0.874,1.438,2.757,2.137,5.758,2.137c1.243,0,2.202,0.355,2.933,1.086c2.122,2.125,2.133,7.268,2.129,10.716
			c-0.013,0.069-0.035,0.18-0.063,0.325c-1.268,6.462-1.997,14.59,1.307,17.927c-1.764,3.799-1.958,8.749-2.147,13.547
			c-0.145,3.683-0.281,7.161-1.105,9.827c-0.836,2.697,6.347,12.487,6.42,12.586c4.218,5.724,5.655,5.724,6.196,5.724
			c0.23,0,0.448-0.044,0.649-0.131c0.102-0.008,0.234-0.006,0.392-0.008c2.041-0.022,7.46-0.082,11.357-8.925
			c1.451-3.292,3.266-4.893,5.548-4.893c2.654,0,5.444,2.148,6.942,3.302l0.125,0.097c0.547,0.42,1.121,0.633,1.704,0.633
			c3.987,0,5.679-8.991,7.962-29.146c0.565-4.985,1.205-10.637,1.681-11.479c1.625-2.634,0.162-4.667-1.014-6.301
			c-1.41-1.958-2.139-3.17-0.732-5.31C162.453,332.019,163.032,331.304,163.646,330.547z M160.146,331.401
			c-2.332,3.548-0.53,6.052,0.786,7.88c1.186,1.647,1.72,2.497,0.925,3.785c-0.701,1.137-1.145,4.832-2.004,12.415
			c-0.686,6.055-1.463,12.918-2.54,18.426c-1.682,8.608-3.154,8.708-3.169,8.708c-0.05,0-0.166-0.043-0.322-0.163l-0.124-0.096
			c-1.712-1.318-4.899-3.772-8.326-3.772c-3.232,0-5.796,2.102-7.623,6.246c-3.308,7.505-7.512,7.552-9.307,7.571
			c-0.421,0.005-0.754,0.009-1.055,0.104c-2.236-0.967-10.474-13.137-10.411-15.338c0.912-2.95,1.054-6.572,1.205-10.408
			c0.192-4.896,0.392-9.958,2.292-13.376c0.287-0.517,0.129-1.167-0.363-1.495c-2.427-1.614-2.838-7.538-1.128-16.255
			c0.077-0.395,0.105-0.634,0.105-0.679c0.006-5.056-0.203-9.809-2.792-12.401c-1.161-1.162-2.688-1.751-4.537-1.751
			c-2.053,0-3.41-0.372-3.82-1.047c-0.703-1.156,0.735-3.925,1.891-6.149c1.679-3.231,3.579-6.889,0.691-8.6
			c0.026-0.194,0.177-0.631,0.618-1.148c0.48-0.564,1.104-0.958,1.516-0.958c0.54,0,0.884,1.052,1.026,2.036
			c0.405,2.812,4.696,4.365,7.506,4.365c1.564,0,2.806-0.423,3.593-1.225c1.869-1.905,3.81-3.393,5.866-4.967
			c2.509-1.921,5.103-3.907,7.563-6.717c0.202-0.23,0.944-0.365,1.486-0.464c0.994-0.18,2.231-0.403,2.759-1.478
			c0.476-0.969,0.042-2.071-0.231-2.634c0.008-0.309,0.12-0.549,0.332-0.755c0.358-0.311,0.911-0.468,1.643-0.468
			c4.205,0,11.716,5.002,13.857,9.227c0.695,1.373,0.745,2.481,0.147,3.296c-0.208,0.283-0.272,0.646-0.176,0.982
			c0.097,0.337,0.343,0.61,0.668,0.741c3.747,1.501,3.547,3.866,3.271,7.139c-0.233,2.758-0.498,5.883,2.071,8.439
			c2.515,2.502,0.695,5.184-2.151,8.7C161.233,329.922,160.62,330.68,160.146,331.401z"/>
		<path d="M438.599,322.773c-0.477-0.404-1.545-1.754-2.578-3.06c-3.721-4.701-5.639-6.898-7.331-6.637
			c-4.406,0.677-13.898-6.081-17.547-9.275c-5.484-4.799-11.236-7.293-17.326-9.933c-1.54-0.668-3.113-1.351-4.724-2.087
			c-2.017-0.922-4.236-1.796-6.587-2.721c-5.656-2.226-12.067-4.749-16.06-8.337c-1.181-1.062-1.744-1.989-1.676-2.756
			c0.126-1.413,2.432-2.839,4.466-4.098c2.037-1.261,3.962-2.451,4.86-4.055c1.352-2.412,1.484-4.515,0.396-6.249
			c-3.397-5.413-17.909-4.997-31.24-4.184c-2.305,0.142-4.124,0.252-5.012,0.224c-0.242-0.014-0.471,0.006-0.691,0.045
			c-2.323-2.4-4.91-3.684-7.642-5.02c-0.912-0.446-1.844-0.902-2.792-1.416c-0.808-0.435-0.954-0.902-1.195-1.675
			c-0.331-1.061-0.785-2.513-3.19-3.346c-3.48-1.207-8.843-7.132-12.046-10.672c-0.391-0.431-0.751-0.829-1.075-1.183
			c-6.307-6.878-8.773-15.166-11.385-23.94c-1.38-4.636-2.807-9.43-4.852-14.021c-0.123-0.276-0.359-1.032-0.634-1.907
			c-1.595-5.095-3.527-10.642-6.294-11.982c-0.78-0.379-1.605-0.419-2.387-0.121c-3.522,1.347-8.615-3.722-12.703-7.794
			c-2.526-2.517-4.709-4.69-6.629-5.666c-5.124-2.602-13.902-8.065-15.126-15.422c-0.15-0.899-0.521-2.343-0.993-4.171
			c-1.211-4.705-3.243-12.617-2.839-17.424c0.756,1.992,1.634,3.587,3.188,3.688c1.557,0.102,2.956-1.338,4.676-4.811
			c2.783-5.616,0.478-8.239-1.75-10.776c-1.392-1.585-2.832-3.224-3.519-5.838c-2.037-7.75,6.408-11.514,13.859-14.835
			c2.116-0.943,4.111-1.837,5.757-2.777c0.59-0.073,1.138-0.228,1.645-0.455c0.106-0.003,0.214-0.017,0.319-0.052
			c0.229-0.076,0.401-0.23,0.536-0.411c1.164-0.736,2.134-1.777,3.027-2.75c0.603-0.657,1.173-1.277,1.741-1.743
			c0.461-0.049,1.767,1.125,2.334,1.635c0.839,0.752,1.563,1.402,2.295,1.605c1.767,0.49,3.301-0.43,4.655-1.24
			c1.17-0.7,1.977-1.137,2.558-0.89c0.586,0.252,0.916,1.267,1.234,2.248c0.407,1.254,0.869,2.676,2.174,3.189
			c0.974,0.384,2.155,0.582,3.352,0.582c2.241,0,4.531-0.693,5.594-2.145c0.605-0.828,1.315-2.591-0.73-5.1
			c-1.219-1.497-2.693-2.721-4.118-3.905c-1.546-1.284-3.007-2.496-4.139-4.009c-0.897-1.198-0.57-2.098-0.157-3.237
			c0.345-0.95,0.735-2.027,0.164-3.146c-0.376-0.736-1.101-1.325-2.281-1.831c0.26-0.237,0.542-0.482,0.831-0.732
			c1.798-1.559,4.036-3.499,3.601-6.079c-0.494-2.929-3.499-3.347-5.694-3.653c-1.327-0.185-2.698-0.376-3.15-0.955
			c0.28-0.676,2.23-2.206,3.541-3.233c2.977-2.334,6.35-4.98,6.444-7.843c0.079-2.342-2.988-5.23-40.632-9.865
			c-0.794-0.098-1.381-0.17-1.715-0.214c-0.055-0.007-0.104,0.01-0.158,0.011c-0.067-0.528-0.219-1.048-0.46-1.554
			c-0.97-2.03-2.697-3.819-4.22-5.396c-1.214-1.257-2.36-2.444-2.922-3.523c-0.355-0.682-0.494-1.061-0.547-1.256
			c0.055-0.027,0.113-0.054,0.164-0.078c0.852-0.398,2.276-1.063,2.877-3.691c0.43-1.881-0.217-2.904-0.835-3.431
			c-1.727-1.47-5.283-0.998-11.534,1.531l-0.414,0.165c-3.409,1.294-15.479,2.438-17.485,2.565c-1.955-1.032-3.804-1.29-5.495-0.764
			c-3.404,1.054-5.298,4.902-6.819,7.994c-0.406,0.824-0.789,1.603-1.141,2.192c-0.529,0.886-0.965,0.971-1.108,0.999
			c-1.006,0.196-2.689-1.081-4.173-2.208c-2.392-1.815-5.368-4.075-8.145-2.244c-0.402,0.265-1.098,0.173-1.838,0.075
			c-1.238-0.163-3.544-0.47-4.188,2.278c-0.08,0.339-0.67,1.688-1.19,2.876c-1.238,2.829-2.083,4.876-2.565,6.387
			c-2.159-1.39-4.028-1.698-5.554-0.888c-3.368,1.787-3.541,8.373-3.539,12.409c-2.679-0.083-6.555,1.32-10.413,2.848
			c-0.683,0.271-1.444,0.572-1.781,0.678c-2.091-0.504-2.28-1.607-2.468-3.79c-0.222-2.574-0.563-6.122-7.252-6.02
			c-1.625,0.021-2.836,0.526-3.602,1.503c-1.455,1.858-0.791,4.7-0.257,6.984c0.164,0.703,0.319,1.366,0.349,1.778
			c0.16,2.259-1.695,4.19-3.49,6.058c-0.643,0.669-1.251,1.302-1.772,1.954c-2.301,2.883-3.436,5.303-3.851,7.322
			c-0.098-0.075-0.129-0.12-0.13-0.12c-0.023-0.125,0.143-0.551,0.243-0.805c0.347-0.886,0.927-2.37-0.254-3.89
			c-1.13-1.454-3.326-1.659-5.45-1.857c-0.825-0.077-3.017-0.281-3.086-0.672c-0.32-1.806-1.543-2.952-2.526-3.873
			c-1.195-1.12-1.756-1.708-1.458-2.842c0.151-0.574,1.413-5.685-0.927-8.332c-0.663-0.75-1.891-1.584-3.999-1.3
			c-3.545,0.479-10.078,8.114-11.296,11.741c-0.429,1.278-0.314,2.256,0.341,2.908c0.583,0.579,0.625,1.009,0.606,1.283
			c-0.112,1.575-2.903,3.65-4.94,5.166c-1.539,1.145-2.807,2.096-3.472,3.048c-1.195-0.715-2.877-1.272-5.3-1.666
			c-2.05-0.334-4.912,0.914-7.941,2.234c-3.63,1.582-7.746,3.375-8.968,1.634c-0.502-0.718-1.774-1.743-4.616-0.54
			c-3.714,1.572-8.942,6.592-8.28,10.041c0.454,2.369,7.521,13.683,9.507,14.693c1.575,0.799,2.369,1.646,2.359,2.519
			c-0.039,3.488-10.301,8.415-14.165,10.27c-2.688,1.291-3.101,1.489-3.316,2.104c-0.1,0.286-0.081,0.627,0.052,0.899
			c0.352,0.718,0.711,1.528,1.092,2.383c2.071,4.656,4.907,11.032,10.46,11.397c0.493,0.033,0.641,0.201,0.743,0.5
			c0.679,2.002-1.834,7.179-2.656,7.901c-4.154,3.571-0.438,11.772,2.148,16.343c1.808,3.192,6.347,6.239,11.294,7.582
			c3.91,1.06,7.42,0.855,9.89-0.576c0.362-0.211,0.636-0.343,0.837-0.425c-0.341,1.489-2.251,4.939-3.058,5.735
			c-2.416,2.382-3.312,5.516-2.284,7.985c0.955,2.29,3.359,3.604,6.598,3.546c5.897-0.065,16.206-6.333,20.425-12.42
			c1.791-2.583,3.425-3.949,4.867-5.153c1.756-1.467,3.272-2.733,3.819-5.435c1.211-5.953,7.945-5.729,14.329-4.73
			c0.711,0.191,4.679,2.449,8.517,4.632c10.417,5.927,18.597,10.463,21.196,10.462c0.056,0.001,0.108,0,0.162-0.001
			c6.132,0,7.685,7.273,9.326,14.97c0.993,4.656,1.931,9.054,3.985,11.822c2.287,3.083,2.439,8.396,2.573,13.084
			c0.16,5.591,0.31,10.873,4.544,10.873c5.135,0,15.184,12.58,15.583,19.508c0.113,1.969,0.691,3.292,1.768,4.045
			c1.712,1.198,4.083,0.481,6.174-0.148c1.317-0.397,2.809-0.849,3.534-0.586c5.829,2.09,7.807,5.641,10.311,10.136
			c0.784,1.407,1.595,2.863,2.584,4.393c1.014,1.569,3.295,2.734,5.709,3.968c2.188,1.118,4.452,2.274,5.688,3.674
			c0.429,0.485,0.675,1.596,0.893,2.576c0.309,1.391,0.601,2.705,1.504,3.458c1.027,0.856,1.98,1.59,2.902,2.3
			c2.4,1.85,4.474,3.446,6.692,6.328c2.988,3.878,4.576,5.022,8.941,6.446c0.675,0.22,2.24,1.813,3.498,3.093
			c2.744,2.792,5.574,5.675,7.994,5.042c1.483-0.393,2.524-1.119,3.442-1.762c1.421-0.991,2.358-1.65,4.556-0.931
			c0.855,0.278,1.71,0.876,2.536,1.454c1.975,1.381,4.681,3.271,7.824,0.001c0.159-0.168,0.254-0.17,0.358-0.152
			c1.118,0.165,3.491,2.412,8.447,12.179c0.321,0.633,0.564,1.111,0.711,1.371c0.548,0.969,0.732,1.967,0.911,2.932
			c0.234,1.264,0.476,2.569,1.636,3.289c1.031,0.641,2.457,0.634,4.769-0.022c0.527-0.15,0.987-0.288,1.392-0.409
			c1.084-0.324,1.863-0.558,2.154-0.46c0.321,0.108,0.898,0.816,1.696,1.797c0.031,0.038,0.063,0.076,0.094,0.115
			c-1.916,1.093-3.813,2.596-3.505,4.453c0.262,1.582,2.015,2.639,5.07,3.057c3.814,0.521,9.941-0.1,12.163-2.907
			c1.202,1.44,3.413,5.61,3.801,6.552c0.682,1.822,0.483,2.122-0.174,3.115c-0.355,0.537-0.799,1.206-1.213,2.214
			c-0.707,1.722-0.767,3.256-0.176,4.561c1.107,2.443,4.112,3.474,7.019,4.469c1.77,0.606,3.598,1.233,4.479,2.077
			c0.195,0.188,0.549,0.737,0.89,1.27c1.193,1.857,2.828,4.402,5.324,4.558c1.486,0.099,2.948-0.709,4.348-2.387
			c0.6-0.719,1.467-1.54,2.194-1.355c2.538,0.639,4.439,9.888,5.155,13.369c0.289,1.405,0.498,2.421,0.685,2.977
			c0.412,1.226,1.244,3.405,2.207,5.929c2.011,5.269,4.764,12.484,5.169,14.955c0.081,0.49,0.429,1.199,1.279,2.898
			c1.252,2.501,4.576,9.146,3.525,10.86c-0.053,0.087-0.194,0.317-0.878,0.322c-0.462,0.004-0.873,0.002-1.244,0.002
			c-3.282-0.031-3.851,0.088-8.116,2.619c-0.997,0.592-2.341,1.538-2.501,2.919c-0.157,1.354,0.843,2.319,1.725,3.17
			c0.638,0.614,1.297,1.25,1.321,1.817c0.157,3.756-1.974,5.319-4.441,7.13c-1.53,1.123-3.113,2.284-4.112,4.028
			c-1.997,3.485-1.324,9.803,1.469,13.796c1.613,2.306,3.747,3.529,6.102,3.528c0.396,0,0.8-0.034,1.207-0.104
			c9.039-1.557,10.618-4.515,13.232-9.417c0.944-1.771,2.016-3.778,3.654-6.161c1.374-2.005,3.056-3.023,4.681-4.008
			c2.982-1.806,5.799-3.512,4.885-10.195c-0.398-2.916,1.45-10.237,5.027-12.589c1.496-0.986,3.09-0.941,4.868,0.134
			c2.033,1.227,4.368,1.164,6.581-0.17c2.537-1.529,4.425-4.488,4.297-6.737c-0.065-1.162-0.651-2.054-1.647-2.51
			c-1.683-0.77-1.14-4.991-0.742-8.074c0.28-2.175,0.521-4.054,0.213-5.323c-0.898-3.696-5.993-6.135-11.387-8.717
			c-4.254-2.036-9.074-4.344-9.642-6.715c-0.172-0.716,0.063-1.479,0.72-2.335c0.673-0.877,1.574-2.996,3.11-6.667
			c2.784-6.655,7.967-19.043,12.008-19.913c0.391-0.084,1.001-0.111,1.778,0.613c0.867,0.809,1.647,1.795,2.474,2.84
			c2.458,3.105,5.246,6.645,11.196,6.229c2.604-0.172,5.502,0.035,8.855,0.635c0.274,0.518,0.719,1.899,1.085,3.036
			c1.446,4.499,3.634,11.299,8.227,14.074c3.795,2.294,6.204,2.986,8.052,2.329c2.011-0.721,2.748-2.809,3.603-5.228
			c0.674-1.91,1.438-4.074,2.959-6.021C453.88,336.981,443.366,326.823,438.599,322.773z M328.91,256.67
			c2.534,1.24,4.759,2.336,6.736,4.275c-0.964,1.48-0.941,3.9-0.914,6.449c0.021,1.883,0.051,4.728-0.649,5.187
			c-0.141,0.037-0.64-0.096-0.906-0.171c-0.738-0.207-1.66-0.461-2.458,0.116c-0.813,0.59-0.858,1.644-0.873,1.989l-0.005,0.115
			c-0.071,1.678-0.191,4.485-1.336,5.372c-0.147,0.114-0.593,0.463-1.725,0.221c-2.147-0.451-4.027,0.837-5.844,2.086
			c-2.254,1.549-4.383,3.012-7.11,1.585c-4.58-3.043-8.872-2.688-11.719-2.456c-0.743,0.061-1.795,0.146-2.269,0.055
			c0.255-0.938,0.446-1.873,0.541-2.786c0.209-2.023-0.042-3.824-0.71-5.33c0.321-0.111,0.71-0.24,1.097-0.369
			c3.88-1.291,5.25-1.848,5.724-2.599c0.714-1.135,0.713-2.277,0.712-3.285c-0.002-1.524-0.003-2.532,2.211-3.688
			c1.02-0.535,2.067-0.528,3.109,0.021c1.782,0.937,3.052,3.177,3.249,4.801c0.075,0.621,0.64,1.054,1.263,0.989
			c0.478-0.059,0.844-0.407,0.956-0.847c3.005-2.128,5.089-6.195,6.926-9.808c0.568-1.117,1.109-2.174,1.642-3.109
			C327.357,255.902,328.146,256.295,328.91,256.67z M309.002,239.046c3.566,3.94,8.955,9.895,12.985,11.292
			c1.324,0.458,1.482,0.963,1.769,1.879c0.178,0.569,0.4,1.271,0.951,1.931c-0.599,1.034-1.19,2.19-1.813,3.415
			c-1.538,3.023-3.256,6.401-5.428,8.369c-0.776-1.887-2.225-3.61-3.89-4.485c-1.715-0.899-3.518-0.908-5.215-0.022
			c-3.432,1.793-3.43,4.052-3.428,5.7c0,0.792,0.001,1.427-0.31,1.984c-0.611,0.427-3.273,1.313-4.574,1.746
			c-0.756,0.251-1.276,0.426-1.629,0.559c-2.627-2.938-5.962-2.604-8.91-2.31c-2.502,0.253-4.869,0.49-6.775-1.137
			c-0.635-0.543-1.489-1.772-2.394-3.075c-2.54-3.655-6.349-9.129-11.021-6.652c-0.335-1.032-0.245-3.641,0.085-4.189
			c1.572-1.599,2.769-1.425,4.749-1.133c1.063,0.156,2.265,0.333,3.688,0.232c0.301-0.021,0.58-0.161,0.777-0.389
			c0.197-0.228,0.296-0.524,0.273-0.825c-0.056-0.757-0.632-1.879-1.929-4.346c-2.095-3.984-5.995-11.4-4.217-13.844
			c0.797-1.094,2.931-0.983,4.577-0.698c3.462,0.6,5.331-2.423,6.828-4.853c1.754-2.844,2.456-3.569,3.731-2.907
			c2.434,1.267,5.057-0.515,7.369-2.085c1.175-0.797,2.383-1.615,3.39-1.925c2.063,5.893,4.743,11.633,9.293,16.596
			C308.259,238.225,308.615,238.619,309.002,239.046z M269.754,178.182c4.788,4.771,10.224,10.172,15.113,8.306
			c0.145-0.055,0.316-0.088,0.589,0.043c2.115,1.025,4.22,7.749,5.118,10.619c0.319,1.02,0.55,1.756,0.726,2.152
			c1.985,4.457,3.391,9.179,4.75,13.746c0.602,2.02,1.21,4.056,1.871,6.083c-1.32,0.422-2.648,1.319-3.94,2.196
			c-1.876,1.274-3.812,2.594-5.05,1.949c-3.333-1.732-5.285,1.423-6.707,3.729c-0.769,1.245-1.439,2.27-2.143,2.948
			c-1.487-1.808-3.416-3.057-5.87-3.805c0.352-0.372,0.694-0.767,1.022-1.203c0.401-0.534,0.537-1.166,0.382-1.779
			c-0.433-1.712-3.07-2.922-6.123-4.324c-1.895-0.87-4.253-1.953-4.754-2.708c-1.654-2.495-1.905-5.734-2.147-8.867
			c-0.408-5.271-0.871-11.247-9.245-11.682c-2.02-0.105-4.534-2.249-6.753-4.14c-1.425-1.215-2.771-2.362-4.049-3.07
			c-0.394-0.218-0.485-0.879-0.493-1.396c-0.057-3.985,4.227-11.539,5.533-12.312c0.384-0.227,0.549-0.194,1.47,0.293
			c1.296,0.685,3.256,1.722,6.848,0.341c0.034-0.013,0.068-0.028,0.1-0.044c0.397-0.199,0.761-0.375,1.094-0.537
			c2.007-0.976,3.263-1.605,3.814-3.303c0.943,0.545,1.881,1.052,2.788,1.513C265.3,173.745,267.463,175.9,269.754,178.182z
			 M245.781,200.048c-0.543-1.165-1.987-1.606-3.516-2.073c-2.192-0.669-3.148-1.116-3.019-1.99
			c0.079-0.531,0.533-1.186,1.059-1.942c0.621-0.894,1.34-1.946,1.793-3.271c0.924,0.618,1.947,1.482,3.024,2.4
			c2.615,2.229,5.319,4.533,8.106,4.678c6.384,0.332,6.685,4.216,7.102,9.593c0.252,3.262,0.538,6.959,2.518,9.944
			c0.858,1.294,3.102,2.324,5.698,3.516c1.658,0.761,4.39,2.015,4.83,2.738c-2,2.625-4.619,3.796-7.392,5.034
			c-2.254,1.006-4.584,2.047-6.789,3.911c-0.53,0.448-1.205,1.393-2.351,3.023c-1.17,1.664-3.859,5.488-4.979,5.824
			c-0.033-0.059-0.078-0.157-0.126-0.311c-0.082-0.261-0.147-0.842-0.21-1.404c-0.223-1.984-0.5-4.454-2.32-5.078
			c-0.988-0.339-1.751-0.502-2.364-0.633c-1.517-0.324-1.75-0.374-2.903-3.607c-0.625-1.752-1.371-2.721-2.419-3.139
			c-1.329-0.53-2.781,0.044-4.025,0.676c-0.812,0.414-1.285,0.025-2.66-2.195c-0.455-0.734-0.973-1.57-1.606-2.271
			c0.872-1.738,0.953-4.554,1.033-7.54c0.086-3.196,0.193-7.173,1.517-8.028c0.382-0.247,1.495-0.598,2.57-0.938
			c2.908-0.919,6.527-2.063,7.507-4.294C246.221,201.842,246.195,200.935,245.781,200.048z M246.411,151.882
			c0.439,1.705,0.818,3.177,0.951,3.978c1.019,6.117,6.193,10.922,11.593,14.37c-0.05,0.09-0.104,0.177-0.13,0.283
			c-0.214,0.895-0.574,1.127-2.721,2.17c-0.326,0.158-0.68,0.331-1.066,0.523c-2.597,0.984-3.78,0.357-4.924-0.248
			c-0.962-0.509-2.16-1.141-3.685-0.24c-0.921,0.545-2.254,2.369-3.486,4.629c-0.095-0.01-0.187-0.028-0.285-0.013
			c-0.979,0.154-1.843,0.729-2.68,1.283c-1.164,0.772-2.266,1.502-3.633,1.225c-9.276-1.876-9.453-7.006-9.609-11.531
			c-0.079-2.295-0.147-4.277-1.581-5.39c-2.643-2.051-4.856-2.65-7.419-3.343c-0.753-0.204-1.554-0.42-2.428-0.69
			c-2.774-0.855-4.794,1.215-6.578,3.043c-1.094,1.122-2.225,2.283-3.266,2.448c-3.786,0.605-19.005-2.676-22.047-5.69
			c-4.069-4.03-13.313-11.325-19.172-10.057c-1.659,0.357-2.966,1.373-3.846,2.943c-1.249-1.203-2.45-2.142-3.362-2.396
			c-2.754-0.77-5.604-2.623-8.36-4.415c-1.52-0.988-3.095-2.01-4.7-2.864c0.073-0.559,0.112-1.124,0.092-1.699
			c1.102-0.262,2.192-0.555,3.094-0.918c0.202-0.082,0.376-0.219,0.502-0.397c1.848-2.613,1.268-5.522,0.706-8.336
			c-0.801-4.012-1.434-7.181,4.021-9.755c1.794-0.791,3.492-0.754,5.188,0.115c0.044,0.023,0.09,0.042,0.138,0.06
			c2.629,0.932,4.261-0.431,5.339-1.333c1.013-0.846,1.338-1.029,1.962-0.739c1.473,0.684,2.938,1.372,4.379,2.049
			c9.147,4.298,17.05,8.016,21.124,7.917c1.715-0.04,5.443-0.358,9.391-0.695c4.84-0.413,12.065-1.031,13.526-0.866
			c0.571,0.476,1.433,0.987,2.419,1.461c0.003,0.001,0.005,0.003,0.008,0.004c2.277,1.094,5.221,1.99,6.834,1.801
			c0.104-0.012,0.207-0.039,0.304-0.079l7.903-3.275c1.458-0.154,3.068,0.264,4.771,0.705c2.49,0.645,5.065,1.311,7.6,0.267
			c0.338,0.113,0.764,1.002,1.151,1.981C242.208,134.416,244.174,143.197,246.411,151.882z M291.48,54.43
			c-0.181,1.797-3.288,4.235-5.57,6.024c-2.928,2.296-5.24,4.11-4.196,6.008c0.912,1.655,2.936,1.937,4.893,2.209
			c2.415,0.337,3.574,0.623,3.771,1.784c0.224,1.324-1.409,2.74-2.85,3.989c-0.905,0.784-1.76,1.525-2.29,2.324
			c-0.199,0.301-0.243,0.68-0.118,1.019c0.125,0.339,0.404,0.599,0.752,0.698c2.035,0.582,2.477,1.079,2.572,1.266
			c0.123,0.241-0.071,0.775-0.276,1.341c-0.461,1.271-1.157,3.19,0.473,5.369c1.294,1.729,2.927,3.084,4.506,4.396
			c1.404,1.166,2.73,2.267,3.81,3.592c0.826,1.013,1.047,1.797,0.657,2.329c-0.867,1.187-4.213,1.609-6.283,0.792
			c-0.31-0.122-0.634-1.119-0.848-1.779c-0.431-1.325-0.966-2.973-2.496-3.631c-1.691-0.727-3.244,0.206-4.618,1.027
			c-1.057,0.633-2.053,1.234-2.877,1.003c-0.254-0.087-0.939-0.703-1.394-1.11c-1.478-1.325-3.504-3.138-5.272-1.707
			c-0.702,0.568-1.355,1.28-1.988,1.968c-0.573,0.624-1.134,1.227-1.716,1.731c-0.959-2.552-2.817-6.771-5.104-8.354
			c-0.855-0.591-2.259-0.623-4.864-0.623c-0.026,0-0.053,0-0.079,0c-5.875,0-11.179-0.388-11.604-5.018
			c-0.284-3.091,0.14-4.662,0.481-5.925c0.61-2.26,0.833-3.746-1.672-7.995c-1.601-2.724,1.246-5.044,5.134-7.793
			c1.95-1.379,3.563-2.52,3.693-3.814c0.53-0.819,1.334-2.546,2.956-6.179c0.304-0.679,0.613-1.375,0.765-1.696
			C286.85,51.282,290.918,53.669,291.48,54.43z M251.032,46.539c0.026,0.005,0.048,0.022,0.075,0.026
			c0.338,0.045,0.933,0.118,1.737,0.217c1.616,0.199,3.144,0.394,4.628,0.586c-0.129,0.284-0.281,0.625-0.484,1.08
			c-0.664,1.488-2.154,4.826-2.696,5.729c-0.378,0.251-0.571,0.709-0.485,1.157c-0.3,0.48-1.682,1.457-2.706,2.181
			c-3.41,2.411-8.564,6.056-5.779,10.794c2.144,3.636,1.908,4.511,1.437,6.254c-0.368,1.362-0.871,3.227-0.549,6.723
			c0.65,7.079,8.956,7.048,13.885,7.078c1.38-0.001,3.232,0,3.63,0.22c1.521,1.052,3.23,4.429,4.404,7.643
			c-0.195,0.051-0.395,0.085-0.601,0.099c-0.012,0.001-0.021,0.008-0.031,0.009c-0.08,0.007-0.155,0.039-0.232,0.064
			c-0.066,0.021-0.136,0.034-0.196,0.066c-0.012,0.006-0.024,0.006-0.036,0.013c-1.573,0.917-3.594,1.817-5.733,2.771
			c-7.866,3.506-17.655,7.87-15.129,17.483c0.823,3.132,2.515,5.059,4.008,6.759c2.201,2.506,3.53,4.019,1.422,8.273
			c-1.665,3.36-2.484,3.549-2.476,3.558c-0.564-0.213-1.389-2.618-1.833-3.91c-0.813-2.37-1.581-4.609-3.071-5.286
			c-0.581-0.264-1.211-0.27-1.828-0.018c-1.81,0.74-3.917,0.196-6.146-0.381c-1.89-0.489-3.845-0.995-5.775-0.74
			c-0.098,0.013-0.194,0.039-0.286,0.076l-7.887,3.268c-1.172,0.055-3.479-0.686-5.285-1.525c-0.356-0.402-0.703-0.796-1.029-1.168
			c-3.32-3.779-5.521-6.285-10.4-7.624c-0.011-0.006-0.023-0.012-0.035-0.018c-6.771-3.233-9.672-5.325-9.968-5.938
			c-0.707-1.692-0.331-3.752,0.256-5.116c0.796-1.85-0.874-3.051-1.979-3.846c-0.497-0.357-1.01-0.726-1.263-1.063
			c-0.799-2.17,1.329-5.316,2.889-7.623c0.171-0.253,0.334-0.497,0.495-0.739c0.022,0.03,0.042,0.056,0.064,0.086
			c0.741,1.009,1.865,2.54,4.564,2.54c0.817,0,1.779-0.14,2.917-0.478c2.473-0.733,4.118-3.522,5.859-6.475
			c2.424-4.109,4.939-8.355,9.633-7.596c2.93,0.472,8.898-2.85,12.416-6.132c1.866-1.741,4.039-4.364,3.798-6.974
			c-0.163-1.759-1.443-2.9-2.573-3.908c-1.33-1.186-1.888-1.799-1.652-2.699c0.741-2.833,5.33-11.955,7.181-11.955h0
			c1.016,0.001,1.121,0.178,1.435,0.704c0.354,0.593,0.888,1.488,2.408,1.887c1.973,0.516,5.609-1.247,7.636-3.7
			C250.321,48.181,250.773,47.362,251.032,46.539z M183.851,41.768c0.784-1.792,1.199-2.75,1.32-3.268
			c0.152-0.647,0.173-0.749,1.683-0.548c1.015,0.135,2.276,0.303,3.384-0.43c1.336-0.879,3.056,0.282,5.525,2.157
			c2.043,1.551,3.97,3.014,5.977,2.628c1.045-0.203,1.928-0.896,2.624-2.062c0.399-0.668,0.802-1.487,1.229-2.354
			c1.329-2.702,2.984-6.063,5.456-6.829c1.172-0.365,2.48-0.125,3.992,0.727c1.014,0.578,16.207-1.467,19.123-2.574
			c0.102-0.039,0.257-0.102,0.458-0.183c7.205-2.913,8.873-2.195,9.213-1.907c0.269,0.229,0.175,0.85,0.095,1.199
			c-0.354,1.548-0.972,1.836-1.626,2.142c-0.481,0.225-1.14,0.532-1.404,1.312c-0.292,0.863,0.083,1.874,0.735,3.125
			c0.713,1.369,1.971,2.671,3.301,4.05c1.472,1.524,2.995,3.101,3.806,4.799c0.559,1.169,0.282,2.439-0.822,3.776
			c-1.705,2.063-4.508,3.161-5.313,2.952c-0.624-0.164-0.761-0.395-1.036-0.855c-0.545-0.915-1.256-1.808-3.38-1.81
			c0,0-0.001,0-0.002,0c-4.251,0-9.098,12.589-9.375,13.649c-0.61,2.337,1.024,3.794,2.337,4.965c0.896,0.8,1.744,1.555,1.824,2.424
			c0.12,1.303-1.005,3.165-3.087,5.108c-3.567,3.33-8.752,5.835-10.505,5.551c-6.228-1.011-9.403,4.363-11.95,8.683
			c-1.508,2.557-2.933,4.973-4.55,5.453c-3.374,0.998-4.167-0.084-5.009-1.23c-0.164-0.222-0.337-0.444-0.523-0.657
			c0.877-1.171,1.399-2.49,1.52-3.95c0.016-0.197-0.019-0.395-0.103-0.573c-0.315-0.675-0.831-1.149-1.489-1.373
			c-1.575-0.532-3.503,0.47-5.543,1.533c-1.006,0.524-2.689,1.409-3.154,1.278c-3.269-1.442-3.081-9.839-2.98-14.35
			c0.021-0.942,0.039-1.763,0.028-2.399c-0.048-2.858,0.809-4.453,1.715-6.141c0.79-1.47,1.606-2.99,1.795-5.249
			c0.265-3.167-2.108-5.278-4.622-7.514c-1.233-1.097-2.491-2.223-3.524-3.523C181.003,48.275,182.986,43.743,183.851,41.768z
			 M133.646,74.658c0.359,0.461,0.272,0.806-0.067,1.672c-0.283,0.723-0.635,1.622-0.19,2.579c0.316,0.681,0.982,1.196,2.028,1.616
			c0.14,1.583,0.759,2.828,1.51,3.768c0.224,0.28,0.554,0.426,0.886,0.426c0.249,0,0.499-0.081,0.708-0.248
			c0.489-0.391,0.569-1.104,0.178-1.594c-2.498-3.125-0.018-7.545,2.501-10.702c0.457-0.571,1.03-1.167,1.636-1.798
			c2.038-2.121,4.348-4.525,4.116-7.789c-0.042-0.592-0.208-1.306-0.402-2.134c-0.401-1.717-0.951-4.068-0.166-5.07
			c0.32-0.409,0.941-0.623,1.843-0.634c4.649-0.055,4.751,1.452,4.966,3.947c0.182,2.115,0.432,5.011,4.465,5.86
			c0.487,0.103,0.878-0.043,2.877-0.835c5.064-2.005,8.358-2.918,9.836-2.73c0.19,0.243,0.469,0.404,0.796,0.429
			c0.108,0.309,0.042,0.994-0.461,2.142c-0.251,0.574,0.01,1.242,0.583,1.494c0.574,0.252,1.242-0.01,1.494-0.583
			c0.94-2.146,0.921-3.749-0.058-4.764c-0.104-0.107-0.222-0.198-0.342-0.286c-0.009-2.728-0.019-9.815,2.333-11.063
			c0.927-0.489,2.265,0.132,3.299,0.803c0.28,0.485,0.594,0.94,0.923,1.379c0.075,0.142,0.171,0.266,0.287,0.375
			c1.162,1.459,2.531,2.683,3.785,3.798c2.257,2.007,4.04,3.593,3.869,5.63c-0.15,1.791-0.791,2.984-1.533,4.365
			c-0.958,1.782-2.042,3.803-1.985,7.252c0.01,0.613-0.008,1.404-0.028,2.311c-0.129,5.743-0.323,14.422,4.331,16.476
			c1.375,0.609,3.11-0.295,5.118-1.342c1.237-0.645,3.11-1.619,3.768-1.396c0.004,0.001,0.008,0.003,0.013,0.005
			c-0.176,1.158-0.7,2.165-1.596,3.068c-0.068,0.068-0.127,0.146-0.175,0.229c-0.306,0.527-0.733,1.159-1.186,1.827
			c-1.873,2.77-4.438,6.563-3.065,9.864c0.025,0.061,0.056,0.12,0.092,0.176c0.462,0.722,1.194,1.248,1.902,1.757
			c0.41,0.295,1.173,0.844,1.22,1.108c-0.374,0.869-1.499,3.934-0.266,6.886c0.629,1.506,4.358,3.898,11.084,7.11l0.099,0.048
			c0.07,0.036,0.145,0.064,0.222,0.085c3.398,0.914,5.243,2.402,7.497,4.842c-1.915,0.022-5.526,0.283-12.671,0.893
			c-3.911,0.334-7.605,0.649-9.25,0.687c-3.569,0.081-11.59-3.699-20.108-7.701c-1.445-0.679-2.913-1.369-4.389-2.054
			c-1.997-0.927-3.369,0.219-4.371,1.055c-1.08,0.903-1.762,1.396-3.063,0.958c-2.289-1.147-4.665-1.192-7.089-0.122
			c-7.083,3.343-6.096,8.289-5.303,12.263c0.485,2.43,0.907,4.545-0.154,6.308c-0.684,0.247-1.502,0.462-2.242,0.642
			c-0.435-1.853-1.304-3.731-2.607-5.537c-3.126-4.331-8.285-7.661-12.546-8.097c-2.061-0.211-5.095-4.486-6.493-9.149
			c-1.007-3.361-0.732-5.458-0.012-6.045c0.612-0.498,1.992-0.231,3.789,0.733c0.017,0.009,0.036,0.008,0.053,0.016
			c0.068,0.033,0.139,0.046,0.212,0.064c0.075,0.019,0.146,0.042,0.222,0.045c0.017,0.001,0.033,0.01,0.05,0.01
			c0.059,0,0.116-0.023,0.175-0.033c0.065-0.01,0.129-0.015,0.191-0.036c0.067-0.023,0.126-0.064,0.189-0.1
			c0.064-0.037,0.129-0.068,0.186-0.118c0.011-0.01,0.026-0.013,0.037-0.023c0.714-0.674,1.665-1.083,2.502-1.443
			c1.131-0.486,2.3-0.988,2.587-2.165c0.272-1.115-0.462-2.179-1.038-2.882c-1.113-1.361-1.916-3.265-2.692-5.105
			c-0.902-2.139-1.835-4.35-3.314-5.87c-3.474-3.556-0.172-11.295,2.012-16.417c0.352-0.824,0.672-1.589,0.956-2.302
			c0.518,0.074,1.05,0.126,1.567,0.174C131.265,73.806,133.118,73.979,133.646,74.658z M74.683,102.925
			c-1.429-0.931-7.97-11.225-8.332-13.113c-0.358-1.864,3.532-6.084,6.937-7.525c0.623-0.264,1.128-0.374,1.46-0.374
			c0.215,0,0.358,0.046,0.415,0.126c2.286,3.261,7.305,1.073,11.731-0.856c2.596-1.131,5.283-2.3,6.671-2.075
			c6.002,0.976,6.156,2.573,6.493,6.072c0.168,1.751,0.378,3.93,1.368,6.449c0.854,2.174,0.819,3.95-0.104,5.277
			c-1.628,2.342-5.681,3.117-8.919,3.05c-4.105-0.081-7.075,0.99-10.536,2.224c-1.697,0.605-3.45,1.231-5.517,1.791
			C75.88,103.599,75.324,103.25,74.683,102.925z M90.395,164.294c-1.94,1.125-4.838,1.248-8.157,0.349
			c-4.333-1.176-8.411-3.853-9.916-6.51c-2.903-5.133-5.122-11.376-2.642-13.508c1.251-1.08,4.372-7.213,3.328-10.333
			c-0.412-1.231-1.387-1.959-2.746-2.049c-4.188-0.275-6.6-5.698-8.538-10.056c-0.24-0.539-0.472-1.061-0.699-1.553
			c0.477-0.242,1.135-0.558,1.78-0.867c7.449-3.577,15.401-7.771,15.451-12.29c0.006-0.558-0.105-1.09-0.332-1.594
			c1.75-0.512,3.303-1.066,4.704-1.566c3.385-1.208,6.057-2.169,9.731-2.092c1.861,0.041,8.132-0.15,10.824-4.022
			c1.382-1.988,1.501-4.478,0.353-7.401c-0.874-2.224-1.059-4.143-1.222-5.837c-0.189-1.97-0.435-3.594-1.372-4.894
			c0.012-0.026,0.031-0.047,0.041-0.075c0.19-0.545,1.854-1.784,3.07-2.688c2.654-1.975,5.663-4.213,5.849-6.825
			c0.077-1.081-0.326-2.083-1.196-2.978c-0.016-0.313,0.25-1.396,1.703-3.494c2.668-3.855,6.496-7.186,7.885-7.374
			c1.205-0.162,1.717,0.238,1.996,0.555c1.042,1.179,1.001,4.102,0.433,6.253c-0.655,2.492,0.873,3.923,2.101,5.074
			c0.852,0.797,1.655,1.551,1.844,2.614c0.15,0.847,0.662,1.38,1.353,1.74c-0.254,0.627-0.546,1.313-0.853,2.032
			c-2.421,5.676-6.08,14.253-1.55,18.89c1.179,1.212,1.99,3.133,2.848,5.167c0.839,1.989,1.707,4.046,3.027,5.661
			c0.416,0.507,0.535,0.781,0.57,0.893c-0.205,0.18-0.832,0.45-1.259,0.633c-0.768,0.33-1.683,0.736-2.534,1.366
			c-2.425-1.151-4.315-1.212-5.611-0.155c-2.279,1.86-1.433,6.095-0.726,8.454c1.483,4.946,4.942,10.396,8.434,10.753
			c3.665,0.375,8.163,3.323,10.938,7.168c1.719,2.383,2.566,4.864,2.485,7.136c-3.703-1.496-7.509-1.635-11.143,2.007
			c-3.088,3.095-6.904,3.124-10.595,3.151c-4.618,0.035-9.393,0.07-11.983,6.154c-0.179,0.421-1.192,1.978-2.172,3.483
			c-1.383,2.125-3.104,4.768-4.033,6.556c-0.64,1.23-2.548,1.401-4.393,1.566c-1.122,0.1-2.205,0.198-3.042,0.57
			c-0.043-0.087-0.078-0.181-0.137-0.257C93.196,162.666,91.087,163.892,90.395,164.294z M166.778,168.186
			c-2.159,0.061-13.367-6.351-20.073-10.166c-6.19-3.522-8.43-4.766-9.247-4.894c-4.139-0.649-15.137-2.37-16.943,6.511
			c-0.39,1.923-1.391,2.76-3.05,4.146c-1.476,1.232-3.312,2.766-5.277,5.602c-4.044,5.834-13.899,11.393-18.587,11.445
			c-2.31,0.028-3.891-0.738-4.479-2.151c-0.661-1.586,0.055-3.795,1.782-5.498c0.432-0.425,2.627-3.527,3.442-6.125
			c0.337-0.04,0.655-0.211,0.842-0.526c0.224-0.28,1.638-0.407,2.484-0.482c2.223-0.199,4.99-0.446,6.203-2.778
			c0.878-1.689,2.566-4.281,3.922-6.364c1.342-2.063,2.114-3.257,2.359-3.833c2.007-4.715,5.496-4.741,9.913-4.774
			c3.955-0.029,8.438-0.063,12.184-3.817c4.652-4.664,9.534-1.489,15.188,2.186c2.899,1.885,5.897,3.834,8.986,4.697
			c1.557,0.436,5.888,5.491,8.467,8.942c0.072,0.097,0.16,0.182,0.26,0.251c1.87,1.303,6.3,5.231,5.684,8.506
			c-1.107-0.563-2.388-0.879-3.885-0.879C166.896,168.184,166.837,168.185,166.778,168.186z M210.242,242.435
			c-1.599,0.482-3.41,1.028-4.221,0.462c-0.578-0.404-0.756-1.483-0.804-2.317c-0.429-7.454-11.17-21.646-17.847-21.646
			c-1.889,0-2.128-3.433-2.278-8.67c-0.143-5.022-0.306-10.715-3.018-14.371c-1.76-2.372-2.648-6.535-3.588-10.943
			c-1.156-5.419-2.419-11.332-5.698-14.484c0.004-0.01,0.013-0.018,0.017-0.028c2.053-5.346-5.017-10.77-6.2-11.63
			c-0.699-0.93-2.54-3.324-4.531-5.502c0.567-1.385,1.434-2.193,2.649-2.455c4.533-0.971,12.888,5.28,17.099,9.451
			c3.818,3.783,19.931,6.967,23.999,6.318c1.783-0.284,3.181-1.717,4.533-3.104c1.765-1.809,2.934-2.875,4.285-2.46
			c0.902,0.278,1.728,0.502,2.505,0.712c2.518,0.681,4.337,1.173,6.62,2.945c0.594,0.461,0.648,2.023,0.705,3.676
			c0.157,4.558,0.394,11.445,11.426,13.676c0.369,0.075,0.721,0.108,1.06,0.108c1.765,0,3.137-0.911,4.276-1.666
			c0.091-0.061,0.18-0.118,0.269-0.176c-1.015,2.385-1.744,4.857-1.717,6.683c0.012,0.846,0.18,1.488,0.419,1.991
			c-0.224,1.516-1,2.65-1.761,3.745c-0.66,0.95-1.283,1.847-1.439,2.904c-0.437,2.953,2.594,3.878,4.6,4.491
			c0.723,0.221,1.934,0.59,2.123,0.863c0.175,0.375,0.126,0.59,0.055,0.752c-0.567,1.291-4.039,2.388-6.114,3.044
			c-1.385,0.438-2.479,0.784-3.118,1.196c-2.327,1.504-2.437,5.569-2.553,9.872c-0.065,2.411-0.138,4.884-0.655,6.259
			c-0.708-0.246-1.522-0.271-2.472,0.062c-3.099,1.079-3.126,3.778-3.147,5.947c-0.017,1.632-0.032,3.174-1.07,4.272
			c-2.658,2.812-5.382,6.845-7.635,10.228c-0.572-0.265-1.17-0.52-1.822-0.753C213.765,241.372,212.054,241.889,210.242,242.435z
			 M287.868,292.626c-1.725,1.794-2.744,1.207-4.889-0.29c-0.962-0.673-1.956-1.368-3.132-1.752
			c-3.27-1.066-5.018,0.153-6.557,1.229c-0.839,0.585-1.63,1.138-2.725,1.428c-1.143,0.287-4.056-2.666-5.797-4.438
			c-1.99-2.026-3.269-3.287-4.412-3.66c-3.904-1.273-5.151-2.175-7.848-5.674c-2.398-3.114-4.685-4.876-7.105-6.74
			c-0.904-0.697-1.84-1.418-2.834-2.246c-0.309-0.258-0.56-1.385-0.742-2.208c-0.291-1.309-0.591-2.663-1.407-3.586
			c-1.521-1.721-3.978-2.977-6.355-4.191c-2.042-1.043-4.153-2.122-4.837-3.18c-0.949-1.467-1.742-2.889-2.508-4.265
			c-2.042-3.665-3.876-6.938-7.701-9.332c2.182-3.274,4.794-7.123,7.279-9.751c1.648-1.744,1.671-3.997,1.689-5.807
			c0.024-2.376,0.17-3.322,1.625-3.828c1.254-0.437,1.965,0.458,3.294,2.604c1.102,1.779,2.766,4.466,5.615,3.023
			c1.079-0.547,1.787-0.741,2.159-0.592c0.257,0.103,0.661,0.497,1.124,1.794c1.423,3.991,2.183,4.555,4.566,5.063
			c0.582,0.124,1.242,0.265,2.102,0.56c0.307,0.105,0.576,1.177,0.802,3.187c0.082,0.729,0.153,1.359,0.299,1.827
			c0.436,1.397,1.257,1.804,1.868,1.9c2.084,0.319,4.32-2.607,7.256-6.785c0.763-1.084,1.627-2.313,1.961-2.596
			c1.958-1.656,4.14-2.63,6.249-3.572c1.823-0.814,3.685-1.647,5.399-2.913c0.135,0.122,0.289,0.224,0.479,0.27
			c2.082,0.509,3.704,1.417,4.979,2.712c-0.019-0.003-0.036,0.001-0.055-0.002c-3.32-0.576-5.608-0.037-6.798,1.598
			c-2.408,3.311,0.538,9.568,4.044,16.233c0.399,0.76,0.827,1.574,1.15,2.23c-0.562-0.044-1.098-0.123-1.624-0.2
			c-2.122-0.311-4.314-0.631-6.695,1.787c-1.219,1.239-1.276,6.01-0.091,7.506c0.619,0.78,1.581,0.942,2.457,0.408
			c2.782-1.707,5.312,1.476,8.325,5.812c1.033,1.487,1.925,2.771,2.782,3.505c2.643,2.257,5.741,1.942,8.476,1.67
			c2.772-0.28,5.167-0.52,7.031,1.603c1.142,1.301,1.598,3.154,1.354,5.509c-0.52,5.03-4.196,11.027-7.172,13.263
			c-0.078,0.059-0.129,0.137-0.187,0.21c-0.191-0.067-0.382-0.118-0.57-0.146C289.313,291.669,288.509,291.956,287.868,292.626z
			 M352.448,342.31c-1.5-0.374-3.009,0.328-4.489,2.101c-0.912,1.094-1.757,1.631-2.466,1.578c-1.351-0.085-2.679-2.152-3.558-3.521
			c-0.469-0.73-0.84-1.308-1.229-1.681c-1.242-1.19-3.219-1.868-5.313-2.585c-2.451-0.84-4.985-1.708-5.688-3.26
			c-0.328-0.723-0.26-1.627,0.207-2.763c0.33-0.803,0.689-1.346,1.006-1.824c0.93-1.404,1.421-2.452,0.405-5.164
			c-0.031-0.083-3.674-8.329-6.071-8.413c-0.65-0.045-1.147,0.323-1.42,0.917c-0.938,2.016-6.302,2.949-10.288,2.401
			c-2.299-0.314-3.105-0.975-3.14-1.18c-0.002-0.009,0.013-0.959,3.531-2.718c0.311-0.155,0.532-0.443,0.604-0.783
			c0.07-0.339-0.018-0.691-0.239-0.958c-0.367-0.438-0.684-0.828-0.963-1.171c-2.396-2.942-2.864-3.097-6.26-2.077
			c-0.396,0.118-0.845,0.253-1.36,0.399c-2.106,0.598-2.768,0.393-2.953,0.277c-0.309-0.191-0.451-0.961-0.603-1.775
			c-0.192-1.04-0.433-2.336-1.165-3.632c-0.136-0.242-0.363-0.691-0.664-1.284c-2.519-4.961-5.138-9.678-7.618-11.972
			c2.351-1.949,4.914-5.649,6.422-9.59c0.893,0.24,2.002,0.161,3.157,0.064c2.691-0.218,6.38-0.524,10.32,2.114
			c0.031,0.021,0.063,0.04,0.097,0.058c3.968,2.119,7.042,0.006,9.511-1.692c1.551-1.067,2.884-1.99,4.088-1.736
			c1.429,0.308,2.635,0.089,3.583-0.646c0.25-0.193,0.47-0.417,0.665-0.662c0.021-0.001,0.041,0.009,0.063,0.007
			c3.228-0.278,3.464,1.14,3.911,3.717c0.394,2.266,0.884,5.085,4.24,5.971c1.619,0.426,1.634,0.969,1.675,2.42
			c0.034,1.223,0.082,2.897,1.661,4.242c1.432,1.217,3.171,1.331,4.705,1.432c1.46,0.096,2.721,0.179,3.7,1.063
			c0.989,0.893,1.362,1.818,1.14,2.83c-0.431,1.954-2.99,3.971-5.109,4.628c-0.699,0.216-1.22,0.716-1.503,1.443
			c-1.154,2.958,2.065,9.494,2.101,9.554c0.547,0.939,1.659,2.391,2.947,4.071c2.328,3.037,6.662,8.69,6.299,10.369
			c-0.047,0.22-0.128,0.669-0.234,1.271c-0.984,5.543-1.655,8.02-2.099,9.068C353.562,342.778,353.031,342.457,352.448,342.31z
			 M367.622,307.014c1.753,0.462,3.564,0.939,4.098,1.959c2.363,4.524,7.474,5.866,10.855,6.755
			c0.898,0.236,2.084,0.547,2.571,0.806c-1.453,4.534,4.068,9.943,7.058,12.871c0.263,0.257,0.503,0.493,0.703,0.694
			c-1.378,2.356-2.739,5.164-4.097,8.203c-1.178-1.255-2.679-2.034-4.332-2.209c-2.051-0.21-4.093,0.513-5.756,2.052
			c-1.529,1.416-2.258,2.529-2.9,3.511c-0.891,1.362-1.535,2.346-4.3,3.703c-2.322,1.139-3.744,0.187-5.544-1.021
			c-2.409-1.617-5.382-3.599-10.07,1.479c-0.116-0.231-0.236-0.45-0.358-0.663c0.833-1.13,1.637-3.852,2.835-10.604
			c0.101-0.563,0.175-0.983,0.219-1.188c0.543-2.51-2.441-6.651-6.716-12.228c-1.241-1.619-2.313-3.018-2.788-3.832
			c-0.867-1.49-2.676-6.954-1.886-7.69c2.346-0.727,5.961-3.164,6.653-6.307c0.157-0.713,0.183-1.624-0.166-2.606
			c4.559-0.892,10.041-1.245,10.797-0.438c-0.799,0.371-1.542,0.847-2.216,1.421c-0.278,0.235-0.425,0.591-0.396,0.954
			C362.122,305.563,365.172,306.367,367.622,307.014z M383.386,350.526c-1.084,1.413-1.463,2.841-1.127,4.244
			c0.82,3.422,5.701,5.759,10.868,8.232c4.462,2.136,9.519,4.556,10.163,7.206c0.209,0.861-0.029,2.711-0.259,4.499
			c-0.541,4.2-1.154,8.96,2.048,10.426c0.146,0.066,0.304,0.172,0.327,0.575c0.07,1.249-1.284,3.51-3.204,4.667
			c-1.032,0.621-2.604,1.156-4.238,0.171c-3.194-1.929-5.727-1.114-7.286-0.088c-4.582,3.013-6.507,11.289-6.027,14.791
			c0.711,5.209-1.089,6.299-3.813,7.949c-1.746,1.058-3.725,2.256-5.376,4.663c-1.71,2.487-2.86,4.645-3.785,6.378
			c-2.521,4.726-3.671,6.882-11.616,8.25c-2.448,0.417-4.108-1.122-5.065-2.489c-2.266-3.238-2.913-8.657-1.36-11.369
			c0.761-1.327,2.085-2.299,3.487-3.327c2.612-1.916,5.573-4.089,5.365-9.054c-0.063-1.474-1.144-2.517-2.013-3.354
			c-0.375-0.361-1.074-1.035-1.046-1.275c0.002-0.018,0.064-0.435,1.405-1.23c3.894-2.31,4.074-2.327,6.953-2.302
			c0.376,0.001,0.795,0.002,1.268-0.002c1.604-0.012,2.405-0.771,2.794-1.405c1.578-2.575-0.723-7.647-3.431-13.06
			c-0.471-0.941-1.005-2.008-1.069-2.251c-0.442-2.697-3.13-9.738-5.289-15.396c-0.954-2.5-1.777-4.66-2.176-5.844
			c-0.143-0.425-0.36-1.483-0.613-2.71c-0.684-3.324-1.428-6.619-2.389-9.295c0.007-0.008,0.017-0.01,0.023-0.018
			c3.815-4.572,5.406-3.503,7.81-1.89c1.919,1.289,4.307,2.895,7.809,1.175c3.322-1.631,4.233-3.022,5.197-4.496
			c0.6-0.915,1.219-1.861,2.544-3.089c1.176-1.089,2.585-1.604,3.976-1.461c1.352,0.144,2.572,0.901,3.438,2.134
			c0.034,0.048,0.084,0.075,0.124,0.117c-0.533,1.232-1.065,2.491-1.599,3.767C385.024,347.181,383.912,349.841,383.386,350.526z
			 M446.744,342.439c-1.748,2.237-2.614,4.69-3.311,6.661c-0.688,1.95-1.232,3.49-2.229,3.848c-1.08,0.387-3.133-0.334-6.114-2.136
			c-3.867-2.336-5.979-8.903-7.241-12.827c-0.979-3.046-1.385-4.306-2.513-4.515c-3.678-0.678-6.862-0.914-9.736-0.725
			c-4.755,0.332-6.952-2.446-9.267-5.373c-0.843-1.064-1.714-2.166-2.706-3.091c-1.434-1.337-2.859-1.375-3.803-1.172
			c-1.952,0.421-3.834,2.274-5.68,5.021c-0.111-0.109-0.228-0.224-0.354-0.348c-2.286-2.239-7.642-7.485-6.458-10.642
			c0.284-0.68,0.145-1.226-0.022-1.564c-0.539-1.094-1.979-1.472-4.159-2.044c-3.175-0.834-7.522-1.976-9.422-5.612
			c-0.998-1.906-3.302-2.514-5.529-3.102c-2.069-0.545-3.458-0.974-3.904-1.837c0.486-0.343,1.011-0.626,1.566-0.845
			c0.267-0.104,0.483-0.307,0.606-0.564c0.801-1.673-0.088-2.663-0.507-3.012c-2.306-1.914-10.959-0.619-13.588,0.089
			c-0.113-0.116-0.213-0.233-0.342-0.35c-1.564-1.412-3.427-1.534-5.071-1.643c-1.354-0.089-2.524-0.166-3.385-0.896
			c-0.771-0.656-0.83-1.407-0.863-2.578c-0.043-1.558-0.104-3.69-3.363-4.55c-1.855-0.489-2.19-1.901-2.584-4.165
			c-0.406-2.346-0.965-5.474-5.155-5.615c0.368-1.396,0.445-2.927,0.496-4.127l0.005-0.114c0.002-0.052,0.006-0.097,0.009-0.136
			c0.145,0.032,0.314,0.08,0.445,0.117c0.76,0.211,1.801,0.503,2.73-0.101c1.769-1.149,1.737-4.052,1.704-7.124
			c-0.022-2.069-0.05-4.645,0.666-5.344c0.082-0.081,0.206-0.154,0.498-0.153c0.997,0.039,2.769-0.075,5.227-0.226
			c7.846-0.477,26.215-1.6,29.181,3.125c0.623,0.992,0.475,2.279-0.453,3.936c-0.612,1.092-2.373,2.182-4.075,3.234
			c-2.607,1.613-5.304,3.282-5.531,5.824c-0.138,1.538,0.654,3.057,2.419,4.644c4.296,3.863,10.91,6.466,16.745,8.762
			c2.321,0.913,4.513,1.775,6.474,2.673c1.624,0.743,3.211,1.431,4.765,2.104c5.923,2.568,11.518,4.993,16.734,9.56
			c3.21,2.809,13.621,10.592,19.286,9.824c1.006,0.353,3.903,4.015,5.309,5.789c1.251,1.581,2.24,2.83,2.887,3.38
			C440.462,327.331,451.001,336.985,446.744,342.439z"/>
	</g>
</g>
<g id="Livello_2">
	<rect x="71.27" fill="#FF0000" width="2.268" height="80.199"/>
	<rect x="279" fill="#FF0000" width="2.268" height="48.574"/>
	<rect y="376.034" fill="#FF0000" width="116.977" height="2.268"/>
	<rect y="119.591" fill="#FF0000" width="58.562" height="2.268"/>
	<rect x="450.011" y="336.773" fill="#FF0000" width="60.229" height="2.268"/>
	
		<rect x="163.062" y="214.072" transform="matrix(0.827 0.5622 -0.5622 0.827 171.9436 -48.1448)" fill="#FF0000" width="2.268" height="82.45"/>
	
		<rect x="147.569" y="408.722" transform="matrix(0.8704 0.4924 -0.4924 0.8704 227.5332 -44.5032)" fill="#FF0000" width="101.428" height="2.268"/>
	<rect x="320.233" y="319.95" fill="#FF0000" width="2.268" height="99.278"/>
	<rect x="127.333" y="394.669" fill="#FF0000" width="2.268" height="115.571"/>
	<rect x="402.239" y="392.318" fill="#FF0000" width="2.268" height="117.922"/>
	<rect y="455.906" fill="#FF0000" width="61.333" height="54.334"/>
	<rect x="453.333" fill="#FF0000" width="56.907" height="56.573"/>
</g>
</svg>
