<?xml version="1.0" encoding="utf-8"?>
<!-- Generator: Adobe Illustrator 16.0.0, SVG Export Plug-In . SVG Version: 6.00 Build 0)  -->
<!DOCTYPE svg PUBLIC "-//W3C//DTD SVG 1.1//EN" "http://www.w3.org/Graphics/SVG/1.1/DTD/svg11.dtd">
<svg version="1.1" id="Livello_1" xmlns="http://www.w3.org/2000/svg" xmlns:xlink="http://www.w3.org/1999/xlink" x="0px" y="0px"
	 width="510.24px" height="510.24px" viewBox="0 0 510.24 510.24" enable-background="new 0 0 510.24 510.24" xml:space="preserve">
<path fill="none" stroke="#000000" stroke-width="2.2677" stroke-linecap="round" stroke-linejoin="round" stroke-miterlimit="10" d="
	M66.383,118.135c6.505-1.721,10.102-4.157,15.999-4.045c5.673,0.107,13.123-2.18,10.099-9.875
	c-2.913-7.412,1.362-11.585-8.734-13.226c-4.249-0.69-14.708,7.603-17.656,3.399c-1.972-2.814-11.589,4.808-10.854,8.638
	c0.419,2.188,7.394,13.126,8.906,13.896c11.708,5.941-14.882,15.648-14.563,16.304c2.233,4.563,4.811,12.767,10.609,13.148
	c4.37,0.29,0.03,9.289-1.249,10.392c-3.678,3.161,0.514,11.598,2.396,14.925c2.919,5.153,13.944,9.88,19.628,6.584
	c5.708-3.317,0.369,5.89-0.856,7.098c-3.949,3.893-3.067,9.663,3.506,9.59c5.309-0.059,14.391-3.834,17.619-7.777
	c2.292-2.801,1.899-5.9,3.853-8.516c2.013-2.694,5.678-1.551,6.541-5.808c1.525-7.498,10.622-6.404,15.656-5.616
	c1.862,0.292,11.843,3.926,12.102,4.429c1.828,3.551,13.529,10.706,17.411,10.644c11.286-0.184,10.016,11.753,11.554,19.1
	c1.268,6.059,7.759,11.509,8.089,17.526c0.048,0.89-3.604,19.788,3.394,13.139c4.489-4.26,4.004,6.947,5.94,7.422
	c9.173,2.265,7.903,7.035,8.312,14.138c0.417,7.253,7.608,1.192,10.727,2.308c8.1,2.904,9.265,8.488,13.465,14.98
	c1.691,2.615,8.526,4.372,11.294,7.506c1.258,1.422,1.072,4.913,2.273,5.914c3.723,3.101,6.598,4.692,9.767,8.807
	c2.817,3.656,4.215,4.697,8.395,6.06c2.364,0.771,3.35-0.286,5.552,1.791c1.241,1.171,2.352,7.105,5.298,6.326
	c3.493-0.923,4.308-4.087,8.64-2.674c3.297,1.075,5.621,5.464,9.189,1.749c3.292-3.442,10.222,11.666,11.324,13.624
	c2.044,3.618-0.26,7.447,6.018,5.665c4.875-1.385,3.894-1.721,7.402,2.484c-13.158,6.579,8.883,8.468,11.432,2.99
	c0.862-1.879,5.219,6.929,5.402,7.417c1.285,3.433-0.205,3.253-1.399,6.157c-2.915,7.093,7.847,6.781,11.057,9.857
	c1.425,1.365,4.266,9.092,8.908,3.531c6.574-7.86,9.034,12.551,9.979,15.357c1.283,3.819,4.449,6.042,5.874,9.67
	c1.427,3.634,0.927,7.617,1.546,11.391c0.249,1.518,8.944,15.354,2.816,15.399c-4.244,0.032-4.113-0.313-8.79,2.462
	c-4.934,2.93,0.982,4.124,1.099,6.884c0.289,6.902-6.313,7.598-8.703,11.769c-2.762,4.821,0.424,16.772,7.601,15.539
	c11.593-1.996,9.884-5.997,16.144-15.103c4.099-5.977,10.666-3.982,9.378-13.408c-0.667-4.875,3.72-18.343,11.604-13.579
	c5.459,3.293,11.604-5.845,8.173-7.415c-3.749-1.716-0.416-11.104-1.159-14.161c-1.782-7.328-26.336-10.602-20.106-18.724
	c2.447-3.189,11.486-32.708,18.569-26.106c3.578,3.335,5.58,9.249,12.821,8.767c3.156-0.21,6.349,0.134,9.455,0.708
	c1.38,0.255,0.785,2.782,1.277,3.1c4.854,3.092,1.738,10.254,8.096,14.097c11.054,6.679,7.95-2.012,13.134-8.646
	c4.788-6.135-5.584-15.942-9.773-19.5c-1.652-1.402-7.182-9.716-9.001-9.44c-5.033,0.782-14.978-6.487-18.468-9.542
	c-6.709-5.871-13.786-8.188-21.774-11.842c-7.05-3.224-17.161-6.056-22.933-11.246c-6.777-6.094,5.168-8.288,7.419-12.306
	c7.376-13.162-29.343-8.336-34.905-8.521c-4.346-0.147-0.731,10.987-3.525,12.803c-1.254,0.815-3.587-1.596-3.699,1.021
	c-0.122,2.849-0.271,7.66-4.432,6.769c-4.017-0.846-4.864,5.709-10.628,2.631c-3.432-1.833-14.372-9.122-13.383,0.264"/>
<path fill="none" stroke="#000000" stroke-width="2.2677" stroke-linecap="round" stroke-linejoin="round" stroke-miterlimit="10" d="
	M235.808,148.85c-2.989,3.489,2.019,15.898,2.672,19.824c1.252,7.519,9.501,13.083,15.732,16.247
	c5.089,2.584,13.809,15.969,20.251,13.507c3.989-1.524,7.075,11.621,7.873,13.413c5.785,12.99,6.489,27.417,16.436,38.266
	c3.077,3.357,9.39,10.705,13.586,12.16c3.444,1.193,1.57,3.521,4.219,4.948c3.916,2.122,7.584,3.285,10.633,6.722"/>
<path fill="none" stroke="#000000" stroke-width="2.2677" stroke-linecap="round" stroke-linejoin="round" stroke-miterlimit="10" d="
	M248.936,59.927c-1.345,1.273,0.143,2.86-0.157,4.269c-0.479,2.246-5.519-0.22-3.858,3.925c0.275,0.683-11.798,7.208-8.622,12.612
	c0.896,1.521,3.962,1.468,3.883,3.711c-0.083,2.317-5.278,9.382-1.199,11.014c3.163,1.27,2.503,5.31,7.013,5.779
	c2.505,0.261,6.956-0.717,9.627-0.938"/>
<path fill="none" stroke="#000000" stroke-width="2.2677" stroke-linecap="round" stroke-linejoin="round" stroke-miterlimit="10" d="
	M241.257,58.44c3.328,0.443,6.949,0.567,10.168,1.602c3.272,1.052,9.94,1.133,12.592,2.659c2.868,1.649,18.796-1.052,18.604,4.656
	c-0.145,4.37-11.158,9.297-9.914,11.558c1.431,2.598,8.146,0.549,8.788,4.352c0.413,2.449-4.088,5.282-5.313,7.128
	c5.172,1.479,4.033,2.422,2.778,6.951c-0.472,1.689,7.275,7.424,8.874,9.387c3.841,4.713-3.296,6.323-6.92,4.893
	c-0.616-0.242-2.827-6.298-3.249-7.358"/>
<path fill="none" stroke="#000000" stroke-width="2.2677" stroke-linecap="round" stroke-linejoin="round" stroke-miterlimit="10" d="
	M232.835,191.454c-1.028-0.443-1.857-0.199-2.487,0.732c-4.065,4.479-5.086-1.268-9.653-0.518c-7.615,1.248-3.66-9.79-3.244-12.109
	c0.354-1.968-10.396-5.945-12.478-6.588c-3.681-1.137-8.746,8.571-10.973,4.582c-1.774-3.181-3.799,2.115-6.946-0.031
	c-5.062-3.449-6.092,0.658-10.94-4.145c-4.372-4.331-10.348-3.357-14.551-8.424c-3.083-3.716-7.515-7.201-11.208-0.252"/>
<path fill="none" stroke="#000000" stroke-width="2.2677" stroke-linecap="round" stroke-linejoin="round" stroke-miterlimit="10" d="
	M142.921,164.207c5.111-8.931-5.479-7.104-10.527-7.912c-1.426-0.228-5.376-4.368-6.754-3.402
	c-5.092,3.558-6.308,8.782-14.168,6.828c-2.814-0.7-4.153,2.951-6.475,1.052c-4.134-3.388-5.617,6.098-7.42,7.627
	c-1.299,1.103-1.726,7.493-2.457,7.414c-1.334-0.152-10.456,2.378-10.903,3.132"/>
<path fill="none" stroke="#000000" stroke-width="2.2677" stroke-linecap="round" stroke-linejoin="round" stroke-miterlimit="10" d="
	M320.521,293.01c6.468-0.563,4.447,4.734,6.155,7.776c2.212,3.937,5.433-0.139,5.236,6.094c-0.134,5.578,5.975,2.207,9.36,5.263
	c4.268,3.851-1.077,8.355-4.395,9.383c-3.471,1.073,6.869,15.867,8.649,17.813c1.299,1.419,5.514,5.74,5.118,7.569
	c-0.282,1.309-4.911,10.309-6.346,10.873"/>
<path fill="none" stroke="#000000" stroke-width="2.2677" stroke-linecap="round" stroke-linejoin="round" stroke-miterlimit="10" d="
	M235.065,203.344c-0.271,1.735,6.065,6.436,7.816,7.144c1.69,0.684,3.986-1.813,5.453-0.197c1.615,1.779,2.701,6.618,3.498,8.933
	c1.904,5.523,0.794,9.953,5.318,14.799c-0.709-0.763,7.811,1.174,8.135,1.273c-4.604,7.162-11.123,7.854-16.627,14.386
	c0.051-0.06-6.422,6.561-6.164,6.555c-3.579,0.073-1.031-9.432-4.928-7.275c-4.958,2.742-3.346-13.241-10.426-6.481
	c-1.941,1.853-4.917-12.163-10.364-3.938c-0.868,1.357,3.703,5.47-1.775,8.142c-3.873,1.895-0.421,3.567-2.183,6.305
	c-1.036,1.61-3.797,1.681-5.245,3.857"/>
<path fill="none" stroke="#000000" stroke-width="2.2677" stroke-linecap="round" stroke-linejoin="round" stroke-miterlimit="10" d="
	M161.251,73.302c0.023-3.871,1.162-17.913,9.343-12.33c2.948,2.012,1.205,4.065,2.568,6.546c1.228,2.234,5.248,2.879,7.161,4.792
	c-4.76,3.577-2.748,3.371-2.653,9.071c0.067,4.044-5.893,9.74-2.818,13.242c2.058,2.352-1.415,6.021,3.271,8.089
	c2.079,0.919,8.204-5.017,9.616-1.996c-0.131,1.588-0.787,2.977-1.967,4.167"/>
<path fill="none" stroke="#000000" stroke-width="2.2677" stroke-linecap="round" stroke-linejoin="round" stroke-miterlimit="10" d="
	M116.418,121.851c-11.683-6.274-4.085,15.958,2.064,16.588c6.718,0.688,15.775,9.763,14.036,17.592"/>
<path fill="none" stroke="#000000" stroke-width="2.2677" stroke-linecap="round" stroke-linejoin="round" stroke-miterlimit="10" d="
	M288.815,233.067c-3.271,0.591-7.351,5.804-10.407,4.215c-4.764-2.474-5.417,8.597-10.89,7.648
	c-14.309-2.475,0.064,17.638,0.244,20.089c-3.909,0.277-6.206-1.77-9.165,1.238c-0.912,0.927-0.979,7.334,0.965,6.152
	c5.403-3.31,9.72,7.097,12.437,9.421c4.748,4.054,11.304-1.531,15.622,3.387c4.694,5.346-1.339,16.932-5.987,20.425"/>
<path fill="none" stroke="#000000" stroke-width="2.2677" stroke-linecap="round" stroke-linejoin="round" stroke-miterlimit="10" d="
	M336.127,427.51c1.235,0.739,2.45,1.51,3.646,2.311c0.11,1.083-4.962,8.537-5.658,9.436c-2.872,3.707-6.617,8.695-7.973,13.258
	c-0.812,2.731-3.939,8.151-4.146,10.736c-0.489,6.113,4.035,3.895,4.903,7.95c-0.284,1.442-0.725,2.832-1.322,4.17
	c0.974,0.772,1.974,1.509,3.002,2.208c0.412,0.765,2.403,5.171,0.108,5.355c-3.188,0.253-7.292,4.962-6.243,8.282
	c0.635,2.012-0.123,9.126-3.18,4.671c-2.289-3.353-13.667-1.109-17.971-4.744c-3.49-2.947-3.625-7.947-7.917-10.629
	c-3.866-2.416-7.002-1.25-11.003-1.487c-4.168-0.24-12.565-6.571-16.096-8.919c-5.357-3.549-11.857-11.226-18.635-11.218
	c-5.538,0.007-4.089,1.266-8.186-2.498c-1.985-1.825-3.26-3.417-5.157-5.329c-2.417-2.421,2.68-8.895,1.302-10.221
	c1.08,1.039,8.265-9.288,10.417-8.105c2.309,1.27,0.617,5.938,4.52,6.242c5.275,0.412,2.472-8.078,7.821-6.31
	c3.508,1.165,6.525-4.673,7.848,2.035c0.813,4.117,5.383-2.151,5.535,2.959c0.136,4.663,8.304,3.228,10.422,2.058
	c1.175-0.649,7.258-0.708,6.626-0.098c0.665-0.639,10.838-0.788,11.913-1.084c4.427-1.221,6.781-4.499,10.854-5.193
	c4.436-0.757,4.434-0.227,8.671,1.221c5.023,1.721,2.806-4.968,4.782-5.736c1.12-0.436,2.731,2.406,3.491,2.435
	c2.278,0.086,5.374-2.865,7.127-4.004"/>
<path fill="none" stroke="#000000" stroke-width="2.2677" stroke-linecap="round" stroke-linejoin="round" stroke-miterlimit="10" d="
	M149.114,316.789c4.113-5.608-12.904-17.394-17.304-13.583c-0.545,0.527-0.782,1.162-0.711,1.906
	c1.792,3.459-2.467,2.076-3.745,3.534c-4.333,4.949-9.101,7.27-13.385,11.637c-2.029,2.066-8.774,0.219-9.167-2.509
	c-0.985-6.831-7.167-0.063-4.938,1.163c5.009,2.768-8.7,16.181,4.166,16.181"/>
<path fill="none" stroke="#000000" stroke-width="2.2677" stroke-linecap="round" stroke-linejoin="round" stroke-miterlimit="10" d="
	M127.812,96.585c-3.061-3.83-0.074-8.891,2.502-12.118c1.989-2.488,5.767-5.138,5.507-8.799c-0.17-2.401-3.186-8.982,2.394-9.052
	c10.336-0.122,2.562,8.333,9.677,9.831c0.823,0.173,17.826-8.492,13.854,0.57"/>
<path fill="none" stroke="#000000" stroke-width="2.2677" stroke-linecap="round" stroke-linejoin="round" stroke-miterlimit="10" d="
	M378.605,352.829c-2.177-3.097-6.166-3.581-9.112-0.853c-3.63,3.362-2.455,4.938-7.471,7.4c-6.847,3.362-8.214-8.315-15.989,1.006"
	/>
<path fill="none" stroke="#000000" stroke-width="2.2677" stroke-linecap="round" stroke-linejoin="round" stroke-miterlimit="10" d="
	M147.875,317.036c8.137,3.261,2.016,10.66,6.959,15.58c4.31,4.288-1.556,9.084-3.741,12.408c-3.567,5.426,4.362,7.371,1.728,11.638
	c-1.873,3.036-3.326,44.571-9.691,39.688c-2.803-2.155-5.226-4.465-8.634-3.532c-0.048,0.014-6.585,0.872-4.394,2.92
	c6.896,6.447-11.721,10.463-12.43,10.874c-2.01,1.165-12.457-14.588-11.779-16.779c2.045-6.614,0.06-17.651,3.589-24"/>
<path fill="none" stroke="#000000" stroke-width="2.2677" stroke-linecap="round" stroke-linejoin="round" stroke-miterlimit="10" d="
	M133.261,152.317c1.19-0.269,2.349-0.63,3.478-1.085c0.057-0.08,0.199-6.396-0.252-6.609c-3.605-1.705,3.131-10.773,5.446-11.865
	c4.182-1.976,5.998,0.991,8.662,0.477c3.579-0.697,3.012-2.637,5.23-3.376c2.364-0.788,6.534,5.66,8.882,5.929
	c5.781,0.662,11.874,8.434,16.852,3.402c2.663-2.691,3.829,0.629,6.441,2.226c1.751,1.073,5.387-2.931,8.209-1.822
	c0.144,0.057,7.254-0.819,7.795-0.304c0.797,0.758,7.715,3.253,8.566,3.154c3.022-0.354,4.869-2.918,8.049-3.335
	c3.449-0.452,9.269,2.248,12.204,1.047c3.233-1.321,3.813,17.181,9.793,5.11c4.008-8.088-3.413-8.453-5.35-15.823
	c-2.93-11.15,12.993-14.705,20.337-18.986"/>
<path fill="none" stroke="#000000" stroke-width="2.2677" stroke-linecap="round" stroke-linejoin="round" stroke-miterlimit="10" d="
	M222.432,68.596c3.57-0.071,4.222-4.405,5.757-6.648c1.148-1.694,3.228,2.429,4.13,2.628c4.998,1.105,9.581-3.847,7.445-8.314
	c-1.641-3.434-5.73-6.208-7.125-8.883c-2.212-4.242,1.37-1.319,2.395-5.802c1.352-5.913-9.939-0.93-11.275-0.422
	c-3.898,1.48-5.056,3.091-9.289,1.793c-1.46-0.446-8.756,0.92-8.87,0.855c-7.338-4.13-9.993,5.148-12.21,8.861
	c-3.385,5.668-9.274-6.054-13.775-3.089c-1.847,1.219-4.854-1.293-5.548,1.666c-0.343,1.458-4.34,11.606-3.144,12.488
	c0.656-0.029,1.313-0.059,1.969-0.089"/>
<path fill="none" stroke="#000000" stroke-width="2.2677" stroke-linecap="round" stroke-linejoin="round" stroke-miterlimit="10" d="
	M221.689,68.596c2.174,2.465-1.212,3.986-1.779,6.154c-0.765,2.926,3.897,3.801,4.193,6.998c0.296,3.204-2.409,5.529-5.389,5.914
	c-4.525,0.591-1.798,1.927-2.65,5.093c-1.362,5.062-9.256-3.02-11.451,3.342c-0.981,2.843-2.97-0.01-3.69,1.99
	c-1.245,3.467-2.013,11.376-7.719,9.646"/>
<path fill="none" stroke="#000000" stroke-width="2.2677" stroke-linecap="round" stroke-linejoin="round" stroke-miterlimit="10" d="
	M185.773,105.255c-1.57,2.704-5.622,6.861-4.185,10.314c0.918,1.434,1.987,2.742,3.208,3.925c-0.468,1.136-0.956,2.265-1.462,3.385
	c-0.037-0.072,11.894,9.212,11.853,9.201c5.143,1.383,8.533,3.493,12.631,8.101"/>
<path fill="none" stroke="#000000" stroke-width="2.2677" stroke-linecap="round" stroke-linejoin="round" stroke-miterlimit="10" d="
	M117.409,85.439c-1.927,5.136-7.766,15.664-2.979,20.565c2.553,2.623,3.404,7.798,5.94,10.9c2.619,3.197-4.561,2.331-3.208,6.679"/>
<path fill="none" stroke="#000000" stroke-width="2.2677" stroke-linecap="round" stroke-linejoin="round" stroke-miterlimit="10" d="
	M126.202,92.622c-4.184-1.426,0.159-3.318-1.661-5.66c-1.718-2.211-8.33-0.627-8.757-3.028c-0.569-3.215-4.836-3.883-3.964-7.201
	c0.781-2.961,1.002-8.852-3.678-8.22c-3.402,0.46-12.181,10.86-10.308,12.721c4.219,4.188-7.021,8.804-7.921,11.388"/>
<path fill="none" stroke="#000000" stroke-width="2.2677" stroke-linecap="round" stroke-linejoin="round" stroke-miterlimit="10" d="
	M342.317,312.826c-0.077,0.011,15.295-3.265,13.129,1.258c-0.889,0.35-1.698,0.836-2.43,1.458c0.266,3.296,8.111,2.854,9.708,5.905
	c1.31,2.507,6.662,9.142,9.857,6.039c5.971-5.803,5.351,7.811,5.395,8.872c0.097,2.315,4.586,4.552,6.205,6.439"/>
<path fill="none" stroke="#000000" stroke-width="2.2677" stroke-linecap="round" stroke-linejoin="round" stroke-miterlimit="10" d="
	M315.814,267.497c-2.371,4.007-4.758,10.526-8.67,13.127"/>
<path fill="none" stroke="#000000" stroke-width="2.2677" stroke-linecap="round" stroke-linejoin="round" stroke-miterlimit="10" d="
	M265.284,104.76c3.656-0.056,2.179,2.765,4.896,3.521c2.524,0.701,5.717-1.972,7.737-3.025"/>
<path fill="none" stroke="#000000" stroke-width="2.2677" stroke-linecap="round" stroke-linejoin="round" stroke-miterlimit="10" d="
	M306.897,281.12c-0.404-3.322-4.073-7.749-8.01-5.69c-4.449,2.325-1.881,5.03-3.357,7.375c-0.48,0.763-6,2.341-6.963,2.773"/>
<path fill="none" stroke="#000000" stroke-width="2.2677" stroke-linecap="round" stroke-linejoin="round" stroke-miterlimit="10" d="
	M231.597,202.6c-0.307,3.392-3.19,4.312-3.473,6.219c-0.489,3.306,5.803,2.936,6.629,4.708c1.687,3.613-7.698,5.204-9.588,6.424
	c-1.919,1.24-0.723,11.825-2.98,16.088"/>
<path fill="none" stroke="#000000" stroke-width="2.2677" stroke-linecap="round" stroke-linejoin="round" stroke-miterlimit="10" d="
	M104.281,334.623c1.475,5.866,4.479,10.294,4.472,16.101c0,0.325-5.556,18.778,1.969,14.613"/>
<path fill="none" stroke="#000000" stroke-width="2.2677" stroke-linecap="round" stroke-linejoin="round" stroke-miterlimit="10" d="
	M255.871,99.806c0.07,3.614,2.61,6.819,3.716,10.154"/>
<path fill="none" stroke="#000000" stroke-width="2.2677" stroke-linecap="round" stroke-linejoin="round" stroke-miterlimit="10" d="
	M155.306,173.124c5.749,0.643,8.396,4.813,6.44,9.906"/>
<path fill="none" stroke="#000000" stroke-width="2.2677" stroke-linecap="round" stroke-linejoin="round" stroke-miterlimit="10" d="
	M149.857,166.188c1.865,0,5.678,4.553,5.945,6.439"/>
<path fill="none" stroke="#000000" stroke-width="2.2677" stroke-linecap="round" stroke-linejoin="round" stroke-miterlimit="10" d="
	M249.927,183.775c-0.411,1.722-2.944,2.481-0.991,4.458c-5.375,2.067-6.148-6.631-11.373-3.187c-2.057,1.36,0.929,2.927-1.393,4.301
	c-2.203,1.304-6.047,4.542-2.344,6.316"/>
<path fill="none" stroke="#000000" stroke-width="2.2677" stroke-linecap="round" stroke-linejoin="round" stroke-miterlimit="10" d="
	M186.269,105.255c1.214,1.122,6.231,6.505,6.688,0.991"/>
<path fill="none" stroke="#000000" stroke-width="2.2677" stroke-linecap="round" stroke-linejoin="round" stroke-miterlimit="10" d="
	M263.303,103.769c4.881,3.608-2.925,6.497-5.697,6.688"/>
<path fill="none" stroke="#000000" stroke-width="2.2677" stroke-linecap="round" stroke-linejoin="round" stroke-miterlimit="10" d="
	M263.055,240.002c2.448,0.597,4.575,1.729,6.191,3.717"/>
<path fill="none" stroke="#000000" stroke-width="2.2677" stroke-linecap="round" stroke-linejoin="round" stroke-miterlimit="10" d="
	M150.353,165.941c-0.982-3.774-3.302-2.828-6.441-2.478"/>
<path fill="none" stroke="#000000" stroke-width="2.2677" stroke-linecap="round" stroke-linejoin="round" stroke-miterlimit="10" d="
	M233.579,195.912c-7.533,5.382,1.929,8.523,2.725,5.945"/>
<path fill="none" stroke="#000000" stroke-width="2.2677" stroke-linecap="round" stroke-linejoin="round" stroke-miterlimit="10" d="
	M289.312,293.505c0.907,0.743,1.814,1.486,2.725,2.229"/>
<path fill="none" stroke="#000000" stroke-width="2.2677" stroke-linecap="round" stroke-linejoin="round" stroke-miterlimit="10" d="
	M162.49,77.018c0.66,0.825,1.321,1.65,1.981,2.477"/>
<path fill="none" stroke="#000000" stroke-width="2.2677" stroke-linecap="round" stroke-linejoin="round" stroke-miterlimit="10" d="
	M111.711,362.365c-0.361,1.651-0.465,3.303,0,4.954"/>
</svg>
