  0
SECTION
  2
HEADER
  9
$ACADVER
  1
AC1018
  9
$ACADMAINTVER
 70
     0
  9
$DWGCODEPAGE
  3
ANSI_1252
  9
$INSBASE
 10
0.0
 20
0.0
 30
0.0
  9
$EXTMIN
 10
1.000000000000000E+20
 20
1.000000000000000E+20
 30
1.000000000000000E+20
  9
$EXTMAX
 10
-1.000000000000000E+20
 20
-1.000000000000000E+20
 30
-1.000000000000000E+20
  9
$LIMMIN
 10
0.0
 20
0.0
  9
$LIMMAX
 10
12.0
 20
9.0
  9
$ORTHOMODE
 70
     0
  9
$REGENMODE
 70
     1
  9
$FILLMODE
 70
     1
  9
$QTEXTMODE
 70
     0
  9
$MIRRTEXT
 70
     1
  9
$LTSCALE
 40
1.0
  9
$ATTMODE
 70
     1
  9
$TEXTSIZE
 40
0.2
  9
$TRACEWID
 40
0.05
  9
$TEXTSTYLE
  7
Standard
  9
$CLAYER
  8
0
  9
$CELTYPE
  6
ByLayer
  9
$CECOLOR
 62
   256
  9
$CELTSCALE
 40
1.0
  9
$DISPSILH
 70
     0
  9
$DIMSCALE
 40
1.0
  9
$DIMASZ
 40
0.18
  9
$DIMEXO
 40
0.0625
  9
$DIMDLI
 40
0.38
  9
$DIMRND
 40
0.0
  9
$DIMDLE
 40
0.0
  9
$DIMEXE
 40
0.18
  9
$DIMTP
 40
0.0
  9
$DIMTM
 40
0.0
  9
$DIMTXT
 40
0.18
  9
$DIMCEN
 40
0.09
  9
$DIMTSZ
 40
0.0
  9
$DIMTOL
 70
     0
  9
$DIMLIM
 70
     0
  9
$DIMTIH
 70
     1
  9
$DIMTOH
 70
     1
  9
$DIMSE1
 70
     0
  9
$DIMSE2
 70
     0
  9
$DIMTAD
 70
     0
  9
$DIMZIN
 70
     0
  9
$DIMBLK
  1

  9
$DIMASO
 70
     1
  9
$DIMSHO
 70
     1
  9
$DIMPOST
  1

  9
$DIMAPOST
  1

  9
$DIMALT
 70
     0
  9
$DIMALTD
 70
     2
  9
$DIMALTF
 40
25.4
  9
$DIMLFAC
 40
1.0
  9
$DIMTOFL
 70
     0
  9
$DIMTVP
 40
0.0
  9
$DIMTIX
 70
     0
  9
$DIMSOXD
 70
     0
  9
$DIMSAH
 70
     0
  9
$DIMBLK1
  1

  9
$DIMBLK2
  1

  9
$DIMSTYLE
  2
Standard
  9
$DIMCLRD
 70
     0
  9
$DIMCLRE
 70
     0
  9
$DIMCLRT
 70
     0
  9
$DIMTFAC
 40
1.0
  9
$DIMGAP
 40
0.09
  9
$DIMJUST
 70
     0
  9
$DIMSD1
 70
     0
  9
$DIMSD2
 70
     0
  9
$DIMTOLJ
 70
     1
  9
$DIMTZIN
 70
     0
  9
$DIMALTZ
 70
     0
  9
$DIMALTTZ
 70
     0
  9
$DIMUPT
 70
     0
  9
$DIMDEC
 70
     4
  9
$DIMTDEC
 70
     4
  9
$DIMALTU
 70
     2
  9
$DIMALTTD
 70
     2
  9
$DIMTXSTY
  7
Standard
  9
$DIMAUNIT
 70
     0
  9
$DIMADEC
 70
     0
  9
$DIMALTRND
 40
0.0
  9
$DIMAZIN
 70
     0
  9
$DIMDSEP
 70
    46
  9
$DIMATFIT
 70
     3
  9
$DIMFRAC
 70
     0
  9
$DIMLDRBLK
  1

  9
$DIMLUNIT
 70
     2
  9
$DIMLWD
 70
    -2
  9
$DIMLWE
 70
    -2
  9
$DIMTMOVE
 70
     0
  9
$LUNITS
 70
     2
  9
$LUPREC
 70
     4
  9
$SKETCHINC
 40
0.1
  9
$FILLETRAD
 40
0.5
  9
$AUNITS
 70
     0
  9
$AUPREC
 70
     0
  9
$MENU
  1
.
  9
$ELEVATION
 40
0.0
  9
$PELEVATION
 40
0.0
  9
$THICKNESS
 40
0.0
  9
$LIMCHECK
 70
     0
  9
$CHAMFERA
 40
0.5
  9
$CHAMFERB
 40
0.5
  9
$CHAMFERC
 40
1.0
  9
$CHAMFERD
 40
0.0
  9
$SKPOLY
 70
     0
  9
$TDCREATE
 40
2459247.648491354
  9
$TDUCREATE
 40
2459247.606824688
  9
$TDUPDATE
 40
2459247.648491366
  9
$TDUUPDATE
 40
2459247.606824699
  9
$TDINDWG
 40
0.0000000116
  9
$TDUSRTIMER
 40
0.0000000116
  9
$USRTIMER
 70
     1
  9
$ANGBASE
 50
0.0
  9
$ANGDIR
 70
     0
  9
$PDMODE
 70
     0
  9
$PDSIZE
 40
0.0
  9
$PLINEWID
 40
0.0
  9
$SPLFRAME
 70
     0
  9
$SPLINETYPE
 70
     6
  9
$SPLINESEGS
 70
     8
  9
$HANDSEED
  5
B2
  9
$SURFTAB1
 70
     6
  9
$SURFTAB2
 70
     6
  9
$SURFTYPE
 70
     6
  9
$SURFU
 70
     6
  9
$SURFV
 70
     6
  9
$UCSBASE
  2

  9
$UCSNAME
  2

  9
$UCSORG
 10
0.0
 20
0.0
 30
0.0
  9
$UCSXDIR
 10
1.0
 20
0.0
 30
0.0
  9
$UCSYDIR
 10
0.0
 20
1.0
 30
0.0
  9
$UCSORTHOREF
  2

  9
$UCSORTHOVIEW
 70
     0
  9
$UCSORGTOP
 10
0.0
 20
0.0
 30
0.0
  9
$UCSORGBOTTOM
 10
0.0
 20
0.0
 30
0.0
  9
$UCSORGLEFT
 10
0.0
 20
0.0
 30
0.0
  9
$UCSORGRIGHT
 10
0.0
 20
0.0
 30
0.0
  9
$UCSORGFRONT
 10
0.0
 20
0.0
 30
0.0
  9
$UCSORGBACK
 10
0.0
 20
0.0
 30
0.0
  9
$PUCSBASE
  2

  9
$PUCSNAME
  2

  9
$PUCSORG
 10
0.0
 20
0.0
 30
0.0
  9
$PUCSXDIR
 10
1.0
 20
0.0
 30
0.0
  9
$PUCSYDIR
 10
0.0
 20
1.0
 30
0.0
  9
$PUCSORTHOREF
  2

  9
$PUCSORTHOVIEW
 70
     0
  9
$PUCSORGTOP
 10
0.0
 20
0.0
 30
0.0
  9
$PUCSORGBOTTOM
 10
0.0
 20
0.0
 30
0.0
  9
$PUCSORGLEFT
 10
0.0
 20
0.0
 30
0.0
  9
$PUCSORGRIGHT
 10
0.0
 20
0.0
 30
0.0
  9
$PUCSORGFRONT
 10
0.0
 20
0.0
 30
0.0
  9
$PUCSORGBACK
 10
0.0
 20
0.0
 30
0.0
  9
$USERI1
 70
     0
  9
$USERI2
 70
     0
  9
$USERI3
 70
     0
  9
$USERI4
 70
     0
  9
$USERI5
 70
     0
  9
$USERR1
 40
0.0
  9
$USERR2
 40
0.0
  9
$USERR3
 40
0.0
  9
$USERR4
 40
0.0
  9
$USERR5
 40
0.0
  9
$WORLDVIEW
 70
     1
  9
$SHADEDGE
 70
     3
  9
$SHADEDIF
 70
    70
  9
$TILEMODE
 70
     1
  9
$MAXACTVP
 70
    64
  9
$PINSBASE
 10
0.0
 20
0.0
 30
0.0
  9
$PLIMCHECK
 70
     0
  9
$PEXTMIN
 10
1.000000000000000E+20
 20
1.000000000000000E+20
 30
1.000000000000000E+20
  9
$PEXTMAX
 10
-1.000000000000000E+20
 20
-1.000000000000000E+20
 30
-1.000000000000000E+20
  9
$PLIMMIN
 10
0.0
 20
0.0
  9
$PLIMMAX
 10
12.0
 20
9.0
  9
$UNITMODE
 70
     0
  9
$VISRETAIN
 70
     1
  9
$PLINEGEN
 70
     0
  9
$PSLTSCALE
 70
     1
  9
$TREEDEPTH
 70
  3020
  9
$CMLSTYLE
  2
Standard
  9
$CMLJUST
 70
     0
  9
$CMLSCALE
 40
1.0
  9
$PROXYGRAPHICS
 70
     1
  9
$MEASUREMENT
 70
     0
  9
$CELWEIGHT
370
    -1
  9
$ENDCAPS
280
     0
  9
$JOINSTYLE
280
     0
  9
$LWDISPLAY
290
     1
  9
$INSUNITS
 70
     1
  9
$HYPERLINKBASE
  1

  9
$STYLESHEET
  1

  9
$XEDIT
290
     1
  9
$CEPSNTYPE
380
     0
  9
$PSTYLEMODE
290
     1
  9
$FINGERPRINTGUID
  2
{3B3B2D33-983B-4D27-B66A-DA6398C9D5AD}
  9
$VERSIONGUID
  2
{FAEB1C32-E019-11D5-929B-00C0DF256EC4}
  9
$EXTNAMES
290
     1
  9
$PSVPSCALE
 40
0.0
  9
$OLESTARTUP
290
     0
  9
$SORTENTS
280
   127
  9
$INDEXCTL
280
     0
  9
$HIDETEXT
280
     1
  9
$XCLIPFRAME
290
     0
  9
$HALOGAP
280
     0
  9
$OBSCOLOR
 70
   257
  9
$OBSLTYPE
280
     0
  9
$INTERSECTIONDISPLAY
280
     0
  9
$INTERSECTIONCOLOR
 70
   257
  9
$DIMASSOC
280
     2
  9
$PROJECTNAME
  1

  0
ENDSEC
  0
SECTION
  2
CLASSES
  0
CLASS
  1
ACDBDICTIONARYWDFLT
  2
AcDbDictionaryWithDefault
  3
ObjectDBX Classes
 90
        0
 91
        3
280
     0
281
     0
  0
CLASS
  1
VISUALSTYLE
  2
AcDbVisualStyle
  3
ObjectDBX Classes
 90
     4095
 91
        3
280
     0
281
     0
  0
ENDSEC
  0
SECTION
  2
TABLES
  0
TABLE
  2
VPORT
  5
8
330
0
100
AcDbSymbolTable
 70
     1
  0
VPORT
  5
29
330
8
100
AcDbSymbolTableRecord
100
AcDbViewportTableRecord
  2
*Active
 70
     0
 10
0.0
 20
0.0
 11
1.0
 21
1.0
 12
0.0
 22
0.0
 13
0.0
 23
0.0
 14
0.5
 24
0.5
 15
0.5
 25
0.5
 16
0.0
 26
0.0
 36
1.0
 17
90.13472219968854
 27
90.13472219968854
 37
0.0
 40
180.0014159706247
 41
1.0
 42
50.0
 43
0.0
 44
0.0
 50
0.0
 51
0.0
 71
     0
 72
   100
 73
     1
 74
     3
 75
     0
 76
     0
 77
     0
 78
     0
281
     0
 65
     1
110
0.0
120
0.0
130
0.0
111
1.0
121
0.0
131
0.0
112
0.0
122
1.0
132
0.0
 79
     0
146
0.0
  0
ENDTAB
  0
TABLE
  2
LTYPE
  5
5
330
0
100
AcDbSymbolTable
 70
     1
  0
LTYPE
  5
14
330
5
100
AcDbSymbolTableRecord
100
AcDbLinetypeTableRecord
  2
ByBlock
 70
     0
  3

 72
    65
 73
     0
 40
0.0
  0
LTYPE
  5
15
330
5
100
AcDbSymbolTableRecord
100
AcDbLinetypeTableRecord
  2
ByLayer
 70
     0
  3

 72
    65
 73
     0
 40
0.0
  0
LTYPE
  5
16
330
5
100
AcDbSymbolTableRecord
100
AcDbLinetypeTableRecord
  2
Continuous
 70
     0
  3
Solid line
 72
    65
 73
     0
 40
0.0
  0
ENDTAB
  0
TABLE
  2
LAYER
  5
2
330
0
100
AcDbSymbolTable
 70
     3
  0
LAYER
  5
10
330
2
100
AcDbSymbolTableRecord
100
AcDbLayerTableRecord
  2
0
 70
     0
 62
     7
  6
Continuous
370
    -3
390
F
  0
LAYER
  5
3B
330
2
100
AcDbSymbolTableRecord
100
AcDbLayerTableRecord
  2
Livello 1
 70
     0
 62
     7
  6
Continuous
370
    -3
390
F
  0
LAYER
  5
4C
330
2
100
AcDbSymbolTableRecord
100
AcDbLayerTableRecord
  2
Livello 2
 70
     0
 62
     7
  6
Continuous
370
    -3
390
F
  0
ENDTAB
  0
TABLE
  2
STYLE
  5
3
330
0
100
AcDbSymbolTable
 70
     1
  0
STYLE
  5
11
330
3
100
AcDbSymbolTableRecord
100
AcDbTextStyleTableRecord
  2
Standard
 70
     0
 40
0.0
 41
1.0
 50
0.0
 71
     0
 42
0.2
  3
txt
  4

  0
ENDTAB
  0
TABLE
  2
VIEW
  5
6
330
0
100
AcDbSymbolTable
 70
     0
  0
ENDTAB
  0
TABLE
  2
UCS
  5
7
330
0
100
AcDbSymbolTable
 70
     0
  0
ENDTAB
  0
TABLE
  2
APPID
  5
9
330
0
100
AcDbSymbolTable
 70
     1
  0
APPID
  5
12
330
9
100
AcDbSymbolTableRecord
100
AcDbRegAppTableRecord
  2
ACAD
 70
     0
  0
ENDTAB
  0
TABLE
  2
DIMSTYLE
  5
A
330
0
100
AcDbSymbolTable
 70
     1
100
AcDbDimStyleTable
  0
DIMSTYLE
105
27
330
A
100
AcDbSymbolTableRecord
100
AcDbDimStyleTableRecord
  2
Standard
 70
     0
340
11
  0
ENDTAB
  0
TABLE
  2
BLOCK_RECORD
  5
1
330
0
100
AcDbSymbolTable
 70
     2
  0
BLOCK_RECORD
  5
1F
330
1
100
AcDbSymbolTableRecord
100
AcDbBlockTableRecord
  2
*Model_Space
340
22
  0
BLOCK_RECORD
  5
1B
330
1
100
AcDbSymbolTableRecord
100
AcDbBlockTableRecord
  2
*Paper_Space
340
1E
  0
BLOCK_RECORD
  5
23
330
1
100
AcDbSymbolTableRecord
100
AcDbBlockTableRecord
  2
*Paper_Space0
340
26
  0
BLOCK_RECORD
  5
4D
330
1
100
AcDbSymbolTableRecord
100
AcDbBlockTableRecord
  2
block 2
340
0
102
{BLKREFS
331
4E
102
}
  0
ENDTAB
  0
ENDSEC
  0
SECTION
  2
BLOCKS
  0
BLOCK
  5
20
330
1F
100
AcDbEntity
  8
0
100
AcDbBlockBegin
  2
*Model_Space
 70
     0
 71
     0
 10
0.0
 20
0.0
 30
0.0
  3
*Model_Space
  1

  0
ENDBLK
  5
21
330
1F
100
AcDbEntity
  8
0
100
AcDbBlockEnd
  0
BLOCK
  5
1C
330
1B
100
AcDbEntity
 67
     1
  8
0
100
AcDbBlockBegin
  2
*Paper_Space
 70
     0
 71
     0
 10
0.0
 20
0.0
 30
0.0
  3
*Paper_Space
  1

  0
ENDBLK
  5
1D
330
1B
100
AcDbEntity
 67
     1
  8
0
100
AcDbBlockEnd
  0
BLOCK
  5
24
330
23
100
AcDbEntity
  8
0
100
AcDbBlockBegin
  2
*Paper_Space0
 70
     0
 71
     0
 10
0.0
 20
0.0
 30
0.0
  3
*Paper_Space0
  1

  0
ENDBLK
  5
25
330
23
100
AcDbEntity
  8
0
100
AcDbBlockEnd
  0
BLOCK
  5
4F
330
4D
100
AcDbEntity
  8
0
100
AcDbBlockBegin
  2
block 2
 70
     0
 71
     0
 10
0.0
 20
0.0
 30
0.0
  3
block 2
  1

  0
POLYLINE
  5
51
330
4D
100
AcDbEntity
  8
Livello 2
370
     0
100
AcDb2dPolyline
 66
     1
 10
0.0
 20
0.0
 30
0.0
  0
VERTEX
  5
52
330
51
100
AcDbEntity
  8
Livello 2
370
     0
100
AcDbVertex
100
AcDb2dVertex
 10
37.88433701309836
 20
155.9615396745513
 30
0.0
  0
VERTEX
  5
53
330
51
100
AcDbEntity
  8
Livello 2
370
     0
100
AcDbVertex
100
AcDb2dVertex
 10
37.65833874926597
 20
180.1316405799671
 30
0.0
  0
VERTEX
  5
54
330
51
100
AcDbEntity
  8
Livello 2
370
     0
100
AcDbVertex
100
AcDb2dVertex
 10
38.45828992094098
 20
180.1392197900346
 30
0.0
  0
VERTEX
  5
55
330
51
100
AcDbEntity
  8
Livello 2
370
     0
100
AcDbVertex
100
AcDb2dVertex
 10
38.68428818477337
 20
155.9691188846188
 30
0.0
  0
VERTEX
  5
56
330
51
100
AcDbEntity
  8
Livello 2
370
     0
100
AcDbVertex
100
AcDb2dVertex
 10
37.88433701309836
 20
155.9615396745513
 30
0.0
  0
SEQEND
  5
57
330
51
100
AcDbEntity
  8
Livello 2
370
     0
  0
HATCH
  5
58
330
4D
100
AcDbEntity
  8
Livello 2
 62
     7
420
 16777215
100
AcDbHatch
 10
0.0
 20
0.0
 30
0.0
210
0.0
220
0.0
230
1.0
  2
SOLID
 70
     1
 71
     0
 91
        1
 92
        1
 93
        4
 72
     1
 10
37.88433701309836
 20
155.9615396745513
 11
37.65833874926597
 21
180.1316405799671
 72
     1
 10
37.65833874926597
 20
180.1316405799671
 11
38.45828992094098
 21
180.1392197900346
 72
     1
 10
38.45828992094098
 20
180.1392197900346
 11
38.68428818477337
 21
155.9691188846188
 72
     1
 10
38.68428818477337
 20
155.9691188846188
 11
37.88433701309836
 21
155.9615396745513
 97
        0
 75
     2
 76
     1
 98
        0
  0
POLYLINE
  5
59
330
4D
100
AcDbEntity
  8
Livello 2
370
     0
100
AcDb2dPolyline
 66
     1
 10
0.0
 20
0.0
 30
0.0
  0
VERTEX
  5
5A
330
59
100
AcDbEntity
  8
Livello 2
370
     0
100
AcDbVertex
100
AcDb2dVertex
 10
0.1393541123783559
 20
143.1278699728986
 30
0.0
  0
VERTEX
  5
5B
330
59
100
AcDbEntity
  8
Livello 2
370
     0
100
AcDbVertex
100
AcDb2dVertex
 10
0.1286743163740814
 20
143.9278211445736
 30
0.0
  0
VERTEX
  5
5C
330
59
100
AcDbEntity
  8
Livello 2
370
     0
100
AcDbVertex
100
AcDb2dVertex
 10
19.61516790959273
 20
144.1899929110011
 30
0.0
  0
VERTEX
  5
5D
330
59
100
AcDbEntity
  8
Livello 2
370
     0
100
AcDbVertex
100
AcDb2dVertex
 10
19.62584770559701
 20
143.3900417393261
 30
0.0
  0
VERTEX
  5
5E
330
59
100
AcDbEntity
  8
Livello 2
370
     0
100
AcDbVertex
100
AcDb2dVertex
 10
0.1393541123783559
 20
143.1278699728986
 30
0.0
  0
SEQEND
  5
5F
330
59
100
AcDbEntity
  8
Livello 2
370
     0
  0
HATCH
  5
60
330
4D
100
AcDbEntity
  8
Livello 2
 62
     7
420
 16777215
100
AcDbHatch
 10
0.0
 20
0.0
 30
0.0
210
0.0
220
0.0
230
1.0
  2
SOLID
 70
     1
 71
     0
 91
        1
 92
        1
 93
        4
 72
     1
 10
0.1393541123783559
 20
143.1278699728986
 11
0.1286743163740814
 21
143.9278211445736
 72
     1
 10
0.1286743163740814
 20
143.9278211445736
 11
19.61516790959273
 21
144.1899929110011
 72
     1
 10
19.61516790959273
 20
144.1899929110011
 11
19.62584770559701
 21
143.3900417393261
 72
     1
 10
19.62584770559701
 20
143.3900417393261
 11
0.1393541123783564
 21
143.1278699728986
 97
        0
 75
     2
 76
     1
 98
        0
  0
POLYLINE
  5
61
330
4D
100
AcDbEntity
  8
Livello 2
370
     0
100
AcDb2dPolyline
 66
     1
 10
0.0
 20
0.0
 30
0.0
  0
VERTEX
  5
62
330
61
100
AcDbEntity
  8
Livello 2
370
     0
100
AcDbVertex
100
AcDb2dVertex
 10
27.57540553781101
 20
112.8067233333435
 30
0.0
  0
VERTEX
  5
63
330
61
100
AcDbEntity
  8
Livello 2
370
     0
100
AcDbVertex
100
AcDb2dVertex
 10
0.1340142143762187
 20
112.8067233333435
 30
0.0
  0
VERTEX
  5
64
330
61
100
AcDbEntity
  8
Livello 2
370
     0
100
AcDbVertex
100
AcDb2dVertex
 10
0.1340142143762187
 20
113.6066745050185
 30
0.0
  0
VERTEX
  5
65
330
61
100
AcDbEntity
  8
Livello 2
370
     0
100
AcDbVertex
100
AcDb2dVertex
 10
27.57540553781101
 20
113.6066745050185
 30
0.0
  0
VERTEX
  5
66
330
61
100
AcDbEntity
  8
Livello 2
370
     0
100
AcDbVertex
100
AcDb2dVertex
 10
27.57540553781101
 20
112.8067233333435
 30
0.0
  0
SEQEND
  5
67
330
61
100
AcDbEntity
  8
Livello 2
370
     0
  0
HATCH
  5
68
330
4D
100
AcDbEntity
  8
Livello 2
 62
     7
420
 16777215
100
AcDbHatch
 10
0.0
 20
0.0
 30
0.0
210
0.0
220
0.0
230
1.0
  2
SOLID
 70
     1
 71
     0
 91
        1
 92
        1
 93
        4
 72
     1
 10
27.57540553781101
 20
112.8067233333435
 11
0.1340142143762186
 21
112.8067233333435
 72
     1
 10
0.1340142143762187
 20
112.8067233333435
 11
0.1340142143762187
 21
113.6066745050185
 72
     1
 10
0.1340142143762187
 20
113.6066745050185
 11
27.57540553781101
 21
113.6066745050185
 72
     1
 10
27.57540553781101
 20
113.6066745050185
 11
27.57540553781101
 21
112.8067233333435
 97
        0
 75
     2
 76
     1
 98
        0
  0
POLYLINE
  5
69
330
4D
100
AcDbEntity
  8
Livello 2
370
     0
100
AcDb2dPolyline
 66
     1
 10
0.0
 20
0.0
 30
0.0
  0
VERTEX
  5
6A
330
69
100
AcDbEntity
  8
Livello 2
370
     0
100
AcDbVertex
100
AcDb2dVertex
 10
112.8082736263118
 20
0.0992187499751953
 30
0.0
  0
VERTEX
  5
6B
330
69
100
AcDbEntity
  8
Livello 2
370
     0
100
AcDbVertex
100
AcDb2dVertex
 10
112.3648898373602
 20
5.162475584646882
 30
0.0
  0
VERTEX
  5
6C
330
69
100
AcDbEntity
  8
Livello 2
370
     0
100
AcDbVertex
100
AcDb2dVertex
 10
113.162084932647
 20
5.232066513448928
 30
0.0
  0
VERTEX
  5
6D
330
69
100
AcDbEntity
  8
Livello 2
370
     0
100
AcDbVertex
100
AcDb2dVertex
 10
113.6054687215986
 20
0.168809678777242
 30
0.0
  0
VERTEX
  5
6E
330
69
100
AcDbEntity
  8
Livello 2
370
     0
100
AcDbVertex
100
AcDb2dVertex
 10
112.8082736263118
 20
0.0992187499751953
 30
0.0
  0
SEQEND
  5
6F
330
69
100
AcDbEntity
  8
Livello 2
370
     0
  0
HATCH
  5
70
330
4D
100
AcDbEntity
  8
Livello 2
 62
     7
420
 16777215
100
AcDbHatch
 10
0.0
 20
0.0
 30
0.0
210
0.0
220
0.0
230
1.0
  2
SOLID
 70
     1
 71
     0
 91
        1
 92
        1
 93
        4
 72
     1
 10
112.8082736263118
 20
0.0992187499751953
 11
112.3648898373602
 21
5.162475584646882
 72
     1
 10
112.3648898373602
 20
5.162475584646882
 11
113.162084932647
 21
5.232066513448928
 72
     1
 10
113.162084932647
 20
5.232066513448928
 11
113.6054687215986
 21
0.168809678777242
 72
     1
 10
113.6054687215986
 20
0.168809678777242
 11
112.8082736263118
 21
0.0992187499751953
 97
        0
 75
     2
 76
     1
 98
        0
  0
POLYLINE
  5
71
330
4D
100
AcDbEntity
  8
Livello 2
370
     0
100
AcDb2dPolyline
 66
     1
 10
0.0
 20
0.0
 30
0.0
  0
VERTEX
  5
72
330
71
100
AcDbEntity
  8
Livello 2
370
     0
100
AcDbVertex
100
AcDb2dVertex
 10
84.5073309793072
 20
0.127813042502769
 30
0.0
  0
VERTEX
  5
73
330
71
100
AcDbEntity
  8
Livello 2
370
     0
100
AcDbVertex
100
AcDb2dVertex
 10
84.2088134555103
 20
19.12406954817037
 30
0.0
  0
VERTEX
  5
74
330
71
100
AcDbEntity
  8
Livello 2
370
     0
100
AcDbVertex
100
AcDb2dVertex
 10
85.00876462718531
 20
19.13647189191727
 30
0.0
  0
VERTEX
  5
75
330
71
100
AcDbEntity
  8
Livello 2
370
     0
100
AcDbVertex
100
AcDb2dVertex
 10
85.30728215098222
 20
0.1402153862496684
 30
0.0
  0
VERTEX
  5
76
330
71
100
AcDbEntity
  8
Livello 2
370
     0
100
AcDbVertex
100
AcDb2dVertex
 10
84.5073309793072
 20
0.127813042502769
 30
0.0
  0
SEQEND
  5
77
330
71
100
AcDbEntity
  8
Livello 2
370
     0
  0
HATCH
  5
78
330
4D
100
AcDbEntity
  8
Livello 2
 62
     7
420
 16777215
100
AcDbHatch
 10
0.0
 20
0.0
 30
0.0
210
0.0
220
0.0
230
1.0
  2
SOLID
 70
     1
 71
     0
 91
        1
 92
        1
 93
        4
 72
     1
 10
84.5073309793072
 20
0.127813042502769
 11
84.2088134555103
 21
19.12406954817037
 72
     1
 10
84.2088134555103
 20
19.12406954817037
 11
85.00876462718531
 21
19.13647189191727
 72
     1
 10
85.00876462718531
 20
19.13647189191727
 11
85.30728215098222
 21
0.1402153862496682
 72
     1
 10
85.30728215098222
 20
0.1402153862496684
 11
84.5073309793072
 21
0.127813042502769
 97
        0
 75
     2
 76
     1
 98
        0
  0
POLYLINE
  5
79
330
4D
100
AcDbEntity
  8
Livello 2
370
     0
100
AcDb2dPolyline
 66
     1
 10
0.0
 20
0.0
 30
0.0
  0
VERTEX
  5
7A
330
79
100
AcDbEntity
  8
Livello 2
370
     0
100
AcDbVertex
100
AcDb2dVertex
 10
180.1354301850009
 20
55.61417641838813
 30
0.0
  0
VERTEX
  5
7B
330
79
100
AcDbEntity
  8
Livello 2
370
     0
100
AcDbVertex
100
AcDb2dVertex
 10
154.9590168883436
 20
55.61417641838813
 30
0.0
  0
VERTEX
  5
7C
330
79
100
AcDbEntity
  8
Livello 2
370
     0
100
AcDbVertex
100
AcDb2dVertex
 10
154.9590168883436
 20
56.41412759006314
 30
0.0
  0
VERTEX
  5
7D
330
79
100
AcDbEntity
  8
Livello 2
370
     0
100
AcDbVertex
100
AcDb2dVertex
 10
180.1354301850009
 20
56.41412759006314
 30
0.0
  0
VERTEX
  5
7E
330
79
100
AcDbEntity
  8
Livello 2
370
     0
100
AcDbVertex
100
AcDb2dVertex
 10
180.1354301850009
 20
55.61417641838813
 30
0.0
  0
SEQEND
  5
7F
330
79
100
AcDbEntity
  8
Livello 2
370
     0
  0
HATCH
  5
80
330
4D
100
AcDbEntity
  8
Livello 2
 62
     7
420
 16777215
100
AcDbHatch
 10
0.0
 20
0.0
 30
0.0
210
0.0
220
0.0
230
1.0
  2
SOLID
 70
     1
 71
     0
 91
        1
 92
        1
 93
        4
 72
     1
 10
180.1354301850009
 20
55.61417641838813
 11
154.9590168883436
 21
55.61417641838813
 72
     1
 10
154.9590168883436
 20
55.61417641838813
 11
154.9590168883436
 21
56.41412759006314
 72
     1
 10
154.9590168883436
 20
56.41412759006314
 11
180.1354301850009
 21
56.41412759006314
 72
     1
 10
180.1354301850009
 20
56.41412759006314
 11
180.1354301850009
 21
55.61417641838813
 97
        0
 75
     2
 76
     1
 98
        0
  0
POLYLINE
  5
81
330
4D
100
AcDbEntity
  8
Livello 2
370
     0
100
AcDb2dPolyline
 66
     1
 10
0.0
 20
0.0
 30
0.0
  0
VERTEX
  5
82
330
81
100
AcDbEntity
  8
Livello 2
370
     0
100
AcDbVertex
100
AcDb2dVertex
 10
140.0755153729672
 20
0.1340142143762187
 30
0.0
  0
VERTEX
  5
83
330
81
100
AcDbEntity
  8
Livello 2
370
     0
100
AcDbVertex
100
AcDb2dVertex
 10
139.2755642012922
 20
0.1340142143762187
 30
0.0
  0
VERTEX
  5
84
330
81
100
AcDbEntity
  8
Livello 2
370
     0
100
AcDbVertex
100
AcDb2dVertex
 10
139.2755642012922
 20
40.04647893964116
 30
0.0
  0
VERTEX
  5
85
330
81
100
AcDbEntity
  8
Livello 2
370
     0
100
AcDbVertex
100
AcDb2dVertex
 10
140.0755153729672
 20
40.04647893964116
 30
0.0
  0
VERTEX
  5
86
330
81
100
AcDbEntity
  8
Livello 2
370
     0
100
AcDbVertex
100
AcDb2dVertex
 10
140.0755153729672
 20
0.1340142143762187
 30
0.0
  0
SEQEND
  5
87
330
81
100
AcDbEntity
  8
Livello 2
370
     0
  0
HATCH
  5
88
330
4D
100
AcDbEntity
  8
Livello 2
 62
     7
420
 16777215
100
AcDbHatch
 10
0.0
 20
0.0
 30
0.0
210
0.0
220
0.0
230
1.0
  2
SOLID
 70
     1
 71
     0
 91
        1
 92
        1
 93
        4
 72
     1
 10
140.0755153729672
 20
0.1340142143762187
 11
139.2755642012922
 21
0.1340142143762187
 72
     1
 10
139.2755642012922
 20
0.1340142143762187
 11
139.2755642012922
 21
40.04647893964116
 72
     1
 10
139.2755642012922
 20
40.04647893964116
 11
140.0755153729672
 21
40.04647893964116
 72
     1
 10
140.0755153729672
 20
40.04647893964116
 11
140.0755153729672
 21
0.1340142143762222
 97
        0
 75
     2
 76
     1
 98
        0
  0
POLYLINE
  5
89
330
4D
100
AcDbEntity
  8
Livello 2
370
     0
100
AcDb2dPolyline
 66
     1
 10
0.0
 20
0.0
 30
0.0
  0
VERTEX
  5
8A
330
89
100
AcDbEntity
  8
Livello 2
370
     0
100
AcDbVertex
100
AcDb2dVertex
 10
46.86949054817846
 20
72.84792207380191
 30
0.0
  0
VERTEX
  5
8B
330
89
100
AcDbEntity
  8
Livello 2
370
     0
100
AcDbVertex
100
AcDb2dVertex
 10
46.39820148579629
 20
73.49422198683479
 30
0.0
  0
VERTEX
  5
8C
330
89
100
AcDbEntity
  8
Livello 2
370
     0
100
AcDbVertex
100
AcDb2dVertex
 10
68.84265406265045
 20
89.84843476486428
 30
0.0
  0
VERTEX
  5
8D
330
89
100
AcDbEntity
  8
Livello 2
370
     0
100
AcDbVertex
100
AcDb2dVertex
 10
69.31394312503262
 20
89.20213485183142
 30
0.0
  0
VERTEX
  5
8E
330
89
100
AcDbEntity
  8
Livello 2
370
     0
100
AcDbVertex
100
AcDb2dVertex
 10
46.86949054817846
 20
72.84792207380191
 30
0.0
  0
SEQEND
  5
8F
330
89
100
AcDbEntity
  8
Livello 2
370
     0
  0
HATCH
  5
90
330
4D
100
AcDbEntity
  8
Livello 2
 62
     7
420
 16777215
100
AcDbHatch
 10
0.0
 20
0.0
 30
0.0
210
0.0
220
0.0
230
1.0
  2
SOLID
 70
     1
 71
     0
 91
        1
 92
        1
 93
        4
 72
     1
 10
46.86949054817846
 20
72.84792207380191
 11
46.39820148579629
 21
73.49422198683479
 72
     1
 10
46.39820148579629
 20
73.49422198683479
 11
68.84265406265045
 21
89.84843476486428
 72
     1
 10
68.84265406265045
 20
89.84843476486428
 11
69.31394312503262
 21
89.20213485183142
 72
     1
 10
69.31394312503262
 20
89.20213485183142
 11
46.86949054817846
 21
72.84792207380191
 97
        0
 75
     2
 76
     1
 98
        0
  0
POLYLINE
  5
91
330
4D
100
AcDbEntity
  8
Livello 2
370
     0
100
AcDb2dPolyline
 66
     1
 10
0.0
 20
0.0
 30
0.0
  0
VERTEX
  5
92
330
91
100
AcDbEntity
  8
Livello 2
370
     0
100
AcDbVertex
100
AcDb2dVertex
 10
82.58393416989222
 20
20.66712781601377
 30
0.0
  0
VERTEX
  5
93
330
91
100
AcDbEntity
  8
Livello 2
370
     0
100
AcDbVertex
100
AcDb2dVertex
 10
50.42121173869678
 20
39.96861978167451
 30
0.0
  0
VERTEX
  5
94
330
91
100
AcDbEntity
  8
Livello 2
370
     0
100
AcDbVertex
100
AcDb2dVertex
 10
50.83290064918414
 20
40.65488280233628
 30
0.0
  0
VERTEX
  5
95
330
91
100
AcDbEntity
  8
Livello 2
370
     0
100
AcDbVertex
100
AcDb2dVertex
 10
82.99562308037957
 20
21.35339083667554
 30
0.0
  0
VERTEX
  5
96
330
91
100
AcDbEntity
  8
Livello 2
370
     0
100
AcDbVertex
100
AcDb2dVertex
 10
82.58393416989222
 20
20.66712781601377
 30
0.0
  0
SEQEND
  5
97
330
91
100
AcDbEntity
  8
Livello 2
370
     0
  0
HATCH
  5
98
330
4D
100
AcDbEntity
  8
Livello 2
 62
     7
420
 16777215
100
AcDbHatch
 10
0.0
 20
0.0
 30
0.0
210
0.0
220
0.0
230
1.0
  2
SOLID
 70
     1
 71
     0
 91
        1
 92
        1
 93
        4
 72
     1
 10
82.58393416989222
 20
20.66712781601377
 11
50.42121173869678
 21
39.96861978167451
 72
     1
 10
50.42121173869678
 20
39.96861978167451
 11
50.83290064918414
 21
40.65488280233628
 72
     1
 10
50.83290064918414
 20
40.65488280233628
 11
82.99562308037957
 21
21.35339083667554
 72
     1
 10
82.99562308037957
 20
21.35339083667554
 11
82.58393416989222
 21
20.66712781601377
 97
        0
 75
     2
 76
     1
 98
        0
  0
POLYLINE
  5
99
330
4D
100
AcDbEntity
  8
Livello 2
370
     0
100
AcDb2dPolyline
 66
     1
 10
0.0
 20
0.0
 30
0.0
  0
VERTEX
  5
9A
330
99
100
AcDbEntity
  8
Livello 2
370
     0
100
AcDbVertex
100
AcDb2dVertex
 10
102.0020426177287
 20
142.251437681451
 30
0.0
  0
VERTEX
  5
9B
330
99
100
AcDbEntity
  8
Livello 2
370
     0
100
AcDbVertex
100
AcDb2dVertex
 10
101.3488525137253
 20
142.7130804764745
 30
0.0
  0
VERTEX
  5
9C
330
99
100
AcDbEntity
  8
Livello 2
370
     0
100
AcDbVertex
100
AcDb2dVertex
 10
127.9536023985672
 20
180.3662515825126
 30
0.0
  0
VERTEX
  5
9D
330
99
100
AcDbEntity
  8
Livello 2
370
     0
100
AcDbVertex
100
AcDb2dVertex
 10
128.6067925025705
 20
179.9046087874891
 30
0.0
  0
VERTEX
  5
9E
330
99
100
AcDbEntity
  8
Livello 2
370
     0
100
AcDbVertex
100
AcDb2dVertex
 10
102.0020426177287
 20
142.251437681451
 30
0.0
  0
SEQEND
  5
9F
330
99
100
AcDbEntity
  8
Livello 2
370
     0
  0
HATCH
  5
A0
330
4D
100
AcDbEntity
  8
Livello 2
 62
     7
420
 16777215
100
AcDbHatch
 10
0.0
 20
0.0
 30
0.0
210
0.0
220
0.0
230
1.0
  2
SOLID
 70
     1
 71
     0
 91
        1
 92
        1
 93
        4
 72
     1
 10
102.0020426177287
 20
142.251437681451
 11
101.3488525137253
 21
142.7130804764745
 72
     1
 10
101.3488525137253
 20
142.7130804764745
 11
127.9536023985672
 21
180.3662515825126
 72
     1
 10
127.9536023985672
 20
180.3662515825126
 11
128.6067925025705
 21
179.9046087874891
 72
     1
 10
128.6067925025705
 20
179.9046087874891
 11
102.0020426177287
 21
142.251437681451
 97
        0
 75
     2
 76
     1
 98
        0
  0
POLYLINE
  5
A1
330
4D
100
AcDbEntity
  8
Livello 2
370
     0
100
AcDb2dPolyline
 66
     1
 10
0.0
 20
0.0
 30
0.0
  0
VERTEX
  5
A2
330
A1
100
AcDbEntity
  8
Livello 2
370
     0
100
AcDbVertex
100
AcDb2dVertex
 10
120.8542941321128
 20
27.69718966321459
 30
0.0
  0
VERTEX
  5
A3
330
A1
100
AcDbEntity
  8
Livello 2
370
     0
100
AcDbVertex
100
AcDb2dVertex
 10
119.8393690021582
 20
28.137128356681
 30
0.0
  0
VERTEX
  5
A4
330
A1
100
AcDbEntity
  8
Livello 2
370
     0
100
AcDbVertex
100
AcDb2dVertex
 10
120.1576958249953
 20
28.87093369503921
 30
0.0
  0
VERTEX
  5
A5
330
A1
100
AcDbEntity
  8
Livello 2
370
     0
100
AcDbVertex
100
AcDb2dVertex
 10
121.1726209549499
 20
28.43099500157281
 30
0.0
  0
VERTEX
  5
A6
330
A1
100
AcDbEntity
  8
Livello 2
370
     0
100
AcDbVertex
100
AcDb2dVertex
 10
120.8542941321128
 20
27.69718966321459
 30
0.0
  0
SEQEND
  5
A7
330
A1
100
AcDbEntity
  8
Livello 2
370
     0
  0
HATCH
  5
A8
330
4D
100
AcDbEntity
  8
Livello 2
 62
     7
420
 16777215
100
AcDbHatch
 10
0.0
 20
0.0
 30
0.0
210
0.0
220
0.0
230
1.0
  2
SOLID
 70
     1
 71
     0
 91
        1
 92
        1
 93
        4
 72
     1
 10
120.8542941321128
 20
27.69718966321459
 11
119.8393690021582
 21
28.137128356681
 72
     1
 10
119.8393690021582
 20
28.137128356681
 11
120.1576958249953
 21
28.87093369503921
 72
     1
 10
120.1576958249953
 20
28.87093369503921
 11
121.1726209549499
 21
28.43099500157281
 72
     1
 10
121.1726209549499
 20
28.43099500157281
 11
120.8542941321128
 21
27.69718966321459
 97
        0
 75
     2
 76
     1
 98
        0
  0
POLYLINE
  5
A9
330
4D
100
AcDbEntity
  8
Livello 2
370
     0
100
AcDb2dPolyline
 66
     1
 10
0.0
 20
0.0
 30
0.0
  0
VERTEX
  5
AA
330
A9
100
AcDbEntity
  8
Livello 2
370
     0
100
AcDbVertex
100
AcDb2dVertex
 10
115.1857340206827
 20
28.79204100842699
 30
0.0
  0
VERTEX
  5
AB
330
A9
100
AcDbEntity
  8
Livello 2
370
     0
100
AcDbVertex
100
AcDb2dVertex
 10
114.3954291163664
 20
28.91399738860483
 30
0.0
  0
VERTEX
  5
AC
330
A9
100
AcDbEntity
  8
Livello 2
370
     0
100
AcDbVertex
100
AcDb2dVertex
 10
118.1295681128287
 20
53.06170517336652
 30
0.0
  0
VERTEX
  5
AD
330
A9
100
AcDbEntity
  8
Livello 2
370
     0
100
AcDbVertex
100
AcDb2dVertex
 10
118.919873017145
 20
52.93974879318868
 30
0.0
  0
VERTEX
  5
AE
330
A9
100
AcDbEntity
  8
Livello 2
370
     0
100
AcDbVertex
100
AcDb2dVertex
 10
115.1857340206827
 20
28.79204100842699
 30
0.0
  0
SEQEND
  5
AF
330
A9
100
AcDbEntity
  8
Livello 2
370
     0
  0
HATCH
  5
B0
330
4D
100
AcDbEntity
  8
Livello 2
 62
     7
420
 16777215
100
AcDbHatch
 10
0.0
 20
0.0
 30
0.0
210
0.0
220
0.0
230
1.0
  2
SOLID
 70
     1
 71
     0
 91
        1
 92
        1
 93
        4
 72
     1
 10
115.1857340206827
 20
28.79204100842699
 11
114.3954291163664
 21
28.91399738860483
 72
     1
 10
114.3954291163664
 20
28.91399738860483
 11
118.1295681128287
 21
53.06170517336652
 72
     1
 10
118.1295681128287
 20
53.06170517336652
 11
118.919873017145
 21
52.93974879318868
 72
     1
 10
118.919873017145
 20
52.93974879318868
 11
115.1857340206827
 21
28.79204100842699
 97
        0
 75
     2
 76
     1
 98
        0
  0
ENDBLK
  5
50
330
4D
100
AcDbEntity
  8
0
100
AcDbBlockEnd
  0
ENDSEC
  0
SECTION
  2
ENTITIES
  0
POLYLINE
  5
3C
330
1F
100
AcDbEntity
  8
Livello 1
370
     0
100
AcDb2dPolyline
 66
     1
 10
0.0
 20
0.0
 30
0.0
  0
VERTEX
  5
3D
330
3C
100
AcDbEntity
  8
Livello 1
370
     0
100
AcDbVertex
100
AcDb2dVertex
 10
164.1591443817033
 20
162.8649942626692
 30
0.0
  0
VERTEX
  5
3E
330
3C
100
AcDbEntity
  8
Livello 1
370
     0
100
AcDbVertex
100
AcDb2dVertex
 10
180.1354301850009
 20
162.8649942626692
 30
0.0
  0
VERTEX
  5
3F
330
3C
100
AcDbEntity
  8
Livello 1
370
     0
100
AcDbVertex
100
AcDb2dVertex
 10
180.1354301850009
 20
180.1354301850009
 30
0.0
  0
VERTEX
  5
40
330
3C
100
AcDbEntity
  8
Livello 1
370
     0
100
AcDbVertex
100
AcDb2dVertex
 10
164.1591443817033
 20
180.1354301850009
 30
0.0
  0
VERTEX
  5
41
330
3C
100
AcDbEntity
  8
Livello 1
370
     0
100
AcDbVertex
100
AcDb2dVertex
 10
164.1591443817033
 20
162.8649942626692
 30
0.0
  0
SEQEND
  5
42
330
3C
100
AcDbEntity
  8
Livello 1
370
     0
  0
HATCH
  5
43
330
1F
100
AcDbEntity
  8
Livello 1
 62
     7
420
 16777215
100
AcDbHatch
 10
0.0
 20
0.0
 30
0.0
210
0.0
220
0.0
230
1.0
  2
SOLID
 70
     1
 71
     0
 91
        1
 92
        1
 93
        4
 72
     1
 10
164.1591443817033
 20
162.8649942626692
 11
180.1354301850009
 21
162.8649942626692
 72
     1
 10
180.1354301850009
 20
162.8649942626692
 11
180.1354301850009
 21
180.1354301850009
 72
     1
 10
180.1354301850009
 20
180.1354301850009
 11
164.1591443817033
 21
180.1354301850009
 72
     1
 10
164.1591443817033
 20
180.1354301850009
 11
164.1591443817033
 21
162.8649942626692
 97
        0
 75
     2
 76
     1
 98
        0
  0
POLYLINE
  5
44
330
1F
100
AcDbEntity
  8
Livello 1
370
     0
100
AcDb2dPolyline
 66
     1
 10
0.0
 20
0.0
 30
0.0
  0
VERTEX
  5
45
330
44
100
AcDbEntity
  8
Livello 1
370
     0
100
AcDbVertex
100
AcDb2dVertex
 10
18.34444443985834
 20
7.407644312384201
 30
0.0
  0
VERTEX
  5
46
330
44
100
AcDbEntity
  8
Livello 1
370
     0
100
AcDbVertex
100
AcDb2dVertex
 10
0.1340142143762187
 20
7.407644312384201
 30
0.0
  0
VERTEX
  5
47
330
44
100
AcDbEntity
  8
Livello 1
370
     0
100
AcDbVertex
100
AcDb2dVertex
 10
0.1340142143762187
 20
0.127813042502769
 30
0.0
  0
VERTEX
  5
48
330
44
100
AcDbEntity
  8
Livello 1
370
     0
100
AcDbVertex
100
AcDb2dVertex
 10
18.34444443985834
 20
0.127813042502769
 30
0.0
  0
VERTEX
  5
49
330
44
100
AcDbEntity
  8
Livello 1
370
     0
100
AcDbVertex
100
AcDb2dVertex
 10
18.34444443985834
 20
7.407644312384201
 30
0.0
  0
SEQEND
  5
4A
330
44
100
AcDbEntity
  8
Livello 1
370
     0
  0
HATCH
  5
4B
330
1F
100
AcDbEntity
  8
Livello 1
 62
     7
420
 16777215
100
AcDbHatch
 10
0.0
 20
0.0
 30
0.0
210
0.0
220
0.0
230
1.0
  2
SOLID
 70
     1
 71
     0
 91
        1
 92
        1
 93
        4
 72
     1
 10
18.34444443985834
 20
7.407644312384201
 11
0.1340142143762186
 21
7.407644312384201
 72
     1
 10
0.1340142143762187
 20
7.407644312384201
 11
0.1340142143762187
 21
0.127813042502769
 72
     1
 10
0.1340142143762187
 20
0.127813042502769
 11
18.34444443985834
 21
0.127813042502769
 72
     1
 10
18.34444443985834
 20
0.127813042502769
 11
18.34444443985834
 21
7.407644312384201
 97
        0
 75
     2
 76
     1
 98
        0
  0
INSERT
  5
4E
330
1F
100
AcDbEntity
  8
Livello 2
100
AcDbBlockReference
  2
block 2
 10
0.0
 20
0.0
 30
0.0
  0
ENDSEC
  0
SECTION
  2
OBJECTS
  0
DICTIONARY
  5
C
330
0
100
AcDbDictionary
281
     1
  3
ACAD_GROUP
350
D
  3
ACAD_LAYOUT
350
1A
  3
ACAD_MLINESTYLE
350
17
  3
ACAD_PLOTSETTINGS
350
19
  3
ACAD_PLOTSTYLENAME
350
E
  3
ACAD_TABLESTYLE
350
B1
  3
ACAD_VISUALSTYLE
350
2A
  0
DICTIONARY
  5
D
102
{ACAD_REACTORS
330
C
102
}
330
C
100
AcDbDictionary
281
     1
  0
DICTIONARY
  5
1A
102
{ACAD_REACTORS
330
C
102
}
330
C
100
AcDbDictionary
281
     1
  3
Layout1
350
1E
  3
Layout2
350
26
  3
Model
350
22
  0
DICTIONARY
  5
17
102
{ACAD_REACTORS
330
C
102
}
330
C
100
AcDbDictionary
281
     1
  3
Standard
350
18
  0
DICTIONARY
  5
19
102
{ACAD_REACTORS
330
C
102
}
330
C
100
AcDbDictionary
281
     1
  0
ACDBDICTIONARYWDFLT
  5
E
102
{ACAD_REACTORS
330
C
102
}
330
C
100
AcDbDictionary
281
     1
  3
Normal
350
F
100
AcDbDictionaryWithDefault
340
F
  0
DICTIONARY
  5
B1
102
{ACAD_REACTORS
330
C
102
}
330
C
100
AcDbDictionary
281
     1
  0
DICTIONARY
  5
2A
102
{ACAD_REACTORS
330
C
102
}
330
C
100
AcDbDictionary
281
     1
  3
2dWireframe
350
2F
  3
3D Hidden
350
31
  3
3dWireframe
350
30
  3
Basic
350
32
  3
Brighten
350
36
  3
ColorChange
350
3A
  3
Conceptual
350
34
  3
Dim
350
35
  3
Facepattern
350
39
  3
Flat
350
2B
  3
FlatWithEdges
350
2C
  3
Gouraud
350
2D
  3
GouraudWithEdges
350
2E
  3
Linepattern
350
38
  3
Realistic
350
33
  3
Thicken
350
37
  0
LAYOUT
  5
1E
102
{ACAD_REACTORS
330
1A
102
}
330
1A
100
AcDbPlotSettings
  1

  2
none_device
  4

  6

 40
0.0
 41
0.0
 42
0.0
 43
0.0
 44
0.0
 45
0.0
 46
0.0
 47
0.0
 48
0.0
 49
0.0
140
0.0
141
0.0
142
1.0
143
1.0
 70
   688
 72
     0
 73
     0
 74
     5
  7

 75
    16
 76
     0
 77
     2
 78
   300
147
1.0
148
0.0
149
0.0
100
AcDbLayout
  1
Layout1
 70
     1
 71
     1
 10
0.0
 20
0.0
 11
12.0
 21
9.0
 12
0.0
 22
0.0
 32
0.0
 14
1.000000000000000E+20
 24
1.000000000000000E+20
 34
1.000000000000000E+20
 15
-1.000000000000000E+20
 25
-1.000000000000000E+20
 35
-1.000000000000000E+20
146
0.0
 13
0.0
 23
0.0
 33
0.0
 16
1.0
 26
0.0
 36
0.0
 17
0.0
 27
1.0
 37
0.0
 76
     0
330
1B
  0
LAYOUT
  5
26
102
{ACAD_REACTORS
330
1A
102
}
330
1A
100
AcDbPlotSettings
  1

  2
none_device
  4

  6

 40
0.0
 41
0.0
 42
0.0
 43
0.0
 44
0.0
 45
0.0
 46
0.0
 47
0.0
 48
0.0
 49
0.0
140
0.0
141
0.0
142
1.0
143
1.0
 70
   688
 72
     0
 73
     0
 74
     5
  7

 75
    16
 76
     0
 77
     2
 78
   300
147
1.0
148
0.0
149
0.0
100
AcDbLayout
  1
Layout2
 70
     1
 71
     2
 10
0.0
 20
0.0
 11
0.0
 21
0.0
 12
0.0
 22
0.0
 32
0.0
 14
0.0
 24
0.0
 34
0.0
 15
0.0
 25
0.0
 35
0.0
146
0.0
 13
0.0
 23
0.0
 33
0.0
 16
1.0
 26
0.0
 36
0.0
 17
0.0
 27
1.0
 37
0.0
 76
     0
330
23
  0
LAYOUT
  5
22
102
{ACAD_REACTORS
330
1A
102
}
330
1A
100
AcDbPlotSettings
  1

  2
none_device
  4

  6

 40
0.0
 41
0.0
 42
0.0
 43
0.0
 44
0.0
 45
0.0
 46
0.0
 47
0.0
 48
0.0
 49
0.0
140
0.0
141
0.0
142
1.0
143
1.0
 70
  1712
 72
     0
 73
     0
 74
     0
  7

 75
     0
 76
     0
 77
     2
 78
   300
147
1.0
148
0.0
149
0.0
100
AcDbLayout
  1
Model
 70
     1
 71
     0
 10
0.0
 20
0.0
 11
12.0
 21
9.0
 12
0.0
 22
0.0
 32
0.0
 14
1.000000000000000E+20
 24
1.000000000000000E+20
 34
1.000000000000000E+20
 15
-1.000000000000000E+20
 25
-1.000000000000000E+20
 35
-1.000000000000000E+20
146
0.0
 13
0.0
 23
0.0
 33
0.0
 16
1.0
 26
0.0
 36
0.0
 17
0.0
 27
1.0
 37
0.0
 76
     0
330
1F
331
29
  0
MLINESTYLE
  5
18
102
{ACAD_REACTORS
330
17
102
}
330
17
100
AcDbMlineStyle
  2
Standard
 70
     0
  3

 62
   256
 51
90.0
 52
90.0
 71
     2
 49
0.5
 62
   256
  6
BYLAYER
 49
-0.5
 62
   256
  6
BYLAYER
  0
ACDBPLACEHOLDER
  5
F
102
{ACAD_REACTORS
330
E
102
}
330
E
  0
VISUALSTYLE
  5
2F
102
{ACAD_REACTORS
330
2A
102
}
330
2A
100
AcDbVisualStyle
  2
2dWireframe
 70
     4
 71
     0
 72
     2
 73
     0
 90
        0
 40
-0.6
 41
-30.0
 62
     5
 63
     7
421
 16777215
 74
     1
 91
        4
 64
     7
 65
   257
 75
     1
175
     1
 42
1.0
 92
        0
 66
   257
 43
1.0
 76
     1
 77
     6
 78
     2
 67
     7
 79
     5
170
     0
171
     0
290
     0
174
     0
 93
        1
 44
0.0
173
     0
291
     0
 45
0.0
1001
ACAD
1000
AcDbSavedByObjectVersion
1070
     0
  0
VISUALSTYLE
  5
31
102
{ACAD_REACTORS
330
2A
102
}
330
2A
100
AcDbVisualStyle
  2
3D Hidden
 70
     6
 71
     1
 72
     2
 73
     2
 90
        0
 40
-0.6
 41
-30.0
 62
     5
 63
     7
421
 16777215
 74
     2
 91
        2
 64
     7
 65
   257
 75
     2
175
     1
 42
40.0
 92
        0
 66
   257
 43
1.0
 76
     1
 77
     6
 78
     2
 67
     7
 79
     3
170
     0
171
     0
290
     0
174
     0
 93
        1
 44
0.0
173
     0
291
     0
 45
0.0
1001
ACAD
1000
AcDbSavedByObjectVersion
1070
     0
  0
VISUALSTYLE
  5
30
102
{ACAD_REACTORS
330
2A
102
}
330
2A
100
AcDbVisualStyle
  2
3dWireframe
 70
     5
 71
     0
 72
     2
 73
     0
 90
        0
 40
-0.6
 41
-30.0
 62
     5
 63
     7
421
 16777215
 74
     1
 91
        4
 64
     7
 65
   257
 75
     1
175
     1
 42
1.0
 92
        0
 66
   257
 43
1.0
 76
     1
 77
     6
 78
     2
 67
     7
 79
     5
170
     0
171
     0
290
     0
174
     0
 93
        1
 44
0.0
173
     0
291
     0
 45
0.0
1001
ACAD
1000
AcDbSavedByObjectVersion
1070
     0
  0
VISUALSTYLE
  5
32
102
{ACAD_REACTORS
330
2A
102
}
330
2A
100
AcDbVisualStyle
  2
Basic
 70
     7
 71
     1
 72
     0
 73
     1
 90
        0
 40
-0.6
 41
-30.0
 62
     5
 63
     7
421
 16777215
 74
     0
 91
        4
 64
     7
 65
   257
 75
     1
175
     1
 42
1.0
 92
        8
 66
     7
 43
1.0
 76
     1
 77
     6
 78
     2
 67
     7
 79
     5
170
     0
171
     0
290
     0
174
     0
 93
        1
 44
0.0
173
     0
291
     1
 45
0.0
1001
ACAD
1000
AcDbSavedByObjectVersion
1070
     0
  0
VISUALSTYLE
  5
36
102
{ACAD_REACTORS
330
2A
102
}
330
2A
100
AcDbVisualStyle
  2
Brighten
 70
    12
 71
     2
 72
     2
 73
     0
 90
        0
 40
-0.6
 41
-30.0
 62
     5
 63
     7
421
 16777215
 74
     1
 91
        4
 64
     7
 65
   257
 75
     1
175
     1
 42
1.0
 92
        8
 66
     7
 43
1.0
 76
     1
 77
     6
 78
     2
 67
     7
 79
     5
170
     0
171
     0
290
     0
174
     0
 93
        1
 44
50.0
173
     0
291
     1
 45
0.0
1001
ACAD
1000
AcDbSavedByObjectVersion
1070
     0
  0
VISUALSTYLE
  5
3A
102
{ACAD_REACTORS
330
2A
102
}
330
2A
100
AcDbVisualStyle
  2
ColorChange
 70
    16
 71
     2
 72
     2
 73
     3
 90
        0
 40
-0.6
 41
-30.0
 62
     5
 63
     8
421
  8421504
 74
     1
 91
        4
 64
     7
 65
   257
 75
     1
175
     1
 42
1.0
 92
        8
 66
     8
424
  8421504
 43
1.0
 76
     1
 77
     6
 78
     2
 67
     7
 79
     5
170
     0
171
     0
290
     0
174
     0
 93
        1
 44
0.0
173
     0
291
     1
 45
0.0
1001
ACAD
1000
AcDbSavedByObjectVersion
1070
     0
  0
VISUALSTYLE
  5
34
102
{ACAD_REACTORS
330
2A
102
}
330
2A
100
AcDbVisualStyle
  2
Conceptual
 70
     9
 71
     3
 72
     2
 73
     0
 90
        0
 40
-0.6
 41
-30.0
 62
     5
 63
     7
421
 16777215
 74
     2
 91
        2
 64
     7
 65
   257
 75
     1
175
     1
 42
40.0
 92
        8
 66
     7
 43
1.0
 76
     1
 77
     6
 78
     2
 67
     7
 79
     3
170
     0
171
     0
290
     0
174
     0
 93
        1
 44
0.0
173
     0
291
     0
 45
0.0
1001
ACAD
1000
AcDbSavedByObjectVersion
1070
     0
  0
VISUALSTYLE
  5
35
102
{ACAD_REACTORS
330
2A
102
}
330
2A
100
AcDbVisualStyle
  2
Dim
 70
    11
 71
     2
 72
     2
 73
     0
 90
        0
 40
-0.6
 41
-30.0
 62
     5
 63
     7
421
 16777215
 74
     1
 91
        4
 64
     7
 65
   257
 75
     1
175
     1
 42
1.0
 92
        8
 66
     7
 43
1.0
 76
     1
 77
     6
 78
     2
 67
     7
 79
     5
170
     0
171
     0
290
     0
174
     0
 93
        1
 44
-50.0
173
     0
291
     1
 45
0.0
1001
ACAD
1000
AcDbSavedByObjectVersion
1070
     0
  0
VISUALSTYLE
  5
39
102
{ACAD_REACTORS
330
2A
102
}
330
2A
100
AcDbVisualStyle
  2
Facepattern
 70
    15
 71
     2
 72
     2
 73
     0
 90
        0
 40
-0.6
 41
-30.0
 62
     5
 63
     7
421
 16777215
 74
     1
 91
        4
 64
     7
 65
   257
 75
     1
175
     1
 42
1.0
 92
        8
 66
     7
 43
1.0
 76
     1
 77
     6
 78
     2
 67
     7
 79
     5
170
     0
171
     0
290
     0
174
     0
 93
        1
 44
0.0
173
     0
291
     1
 45
0.0
1001
ACAD
1000
AcDbSavedByObjectVersion
1070
     0
  0
VISUALSTYLE
  5
2B
102
{ACAD_REACTORS
330
2A
102
}
330
2A
100
AcDbVisualStyle
  2
Flat
 70
     0
 71
     2
 72
     1
 73
     1
 90
        2
 40
-0.6
 41
30.0
 62
     5
 63
     7
421
 16777215
 74
     0
 91
        4
 64
     7
 65
   257
 75
     1
175
     1
 42
1.0
 92
        8
 66
     7
 43
1.0
 76
     1
 77
     6
 78
     2
 67
     7
 79
     5
170
     0
171
     0
290
     0
174
     0
 93
       13
 44
0.0
173
     0
291
     1
 45
0.0
1001
ACAD
1000
AcDbSavedByObjectVersion
1070
     0
  0
VISUALSTYLE
  5
2C
102
{ACAD_REACTORS
330
2A
102
}
330
2A
100
AcDbVisualStyle
  2
FlatWithEdges
 70
     1
 71
     2
 72
     1
 73
     1
 90
        2
 40
-0.6
 41
30.0
 62
     5
 63
     7
421
 16777215
 74
     1
 91
        4
 64
     7
 65
   257
 75
     1
175
     1
 42
1.0
 92
        0
 66
   257
 43
1.0
 76
     1
 77
     6
 78
     2
 67
     7
 79
     5
170
     0
171
     0
290
     0
174
     0
 93
       13
 44
0.0
173
     0
291
     1
 45
0.0
1001
ACAD
1000
AcDbSavedByObjectVersion
1070
     0
  0
VISUALSTYLE
  5
2D
102
{ACAD_REACTORS
330
2A
102
}
330
2A
100
AcDbVisualStyle
  2
Gouraud
 70
     2
 71
     2
 72
     2
 73
     1
 90
        2
 40
-0.6
 41
30.0
 62
     5
 63
     7
421
 16777215
 74
     0
 91
        4
 64
     7
 65
   257
 75
     1
175
     1
 42
1.0
 92
        0
 66
     7
 43
1.0
 76
     1
 77
     6
 78
     2
 67
     7
 79
     5
170
     0
171
     0
290
     0
174
     0
 93
       13
 44
0.0
173
     0
291
     1
 45
0.0
1001
ACAD
1000
AcDbSavedByObjectVersion
1070
     0
  0
VISUALSTYLE
  5
2E
102
{ACAD_REACTORS
330
2A
102
}
330
2A
100
AcDbVisualStyle
  2
GouraudWithEdges
 70
     3
 71
     2
 72
     2
 73
     1
 90
        2
 40
-0.6
 41
30.0
 62
     5
 63
     7
421
 16777215
 74
     1
 91
        4
 64
     7
 65
   257
 75
     1
175
     1
 42
1.0
 92
        0
 66
   257
 43
1.0
 76
     1
 77
     6
 78
     2
 67
     7
 79
     5
170
     0
171
     0
290
     0
174
     0
 93
       13
 44
0.0
173
     0
291
     1
 45
0.0
1001
ACAD
1000
AcDbSavedByObjectVersion
1070
     0
  0
VISUALSTYLE
  5
38
102
{ACAD_REACTORS
330
2A
102
}
330
2A
100
AcDbVisualStyle
  2
Linepattern
 70
    14
 71
     2
 72
     2
 73
     0
 90
        0
 40
-0.6
 41
-30.0
 62
     5
 63
     7
421
 16777215
 74
     1
 91
        4
 64
     7
 65
   257
 75
     7
175
     7
 42
1.0
 92
        8
 66
     7
 43
1.0
 76
     1
 77
     6
 78
     2
 67
     7
 79
     5
170
     0
171
     0
290
     0
174
     0
 93
        1
 44
0.0
173
     0
291
     1
 45
0.0
1001
ACAD
1000
AcDbSavedByObjectVersion
1070
     0
  0
VISUALSTYLE
  5
33
102
{ACAD_REACTORS
330
2A
102
}
330
2A
100
AcDbVisualStyle
  2
Realistic
 70
     8
 71
     2
 72
     2
 73
     0
 90
        0
 40
-0.6
 41
-30.0
 62
     5
 63
     7
421
 16777215
 74
     1
 91
        0
 64
     7
 65
   257
 75
     1
175
     1
 42
1.0
 92
        8
 66
     8
424
  7895160
 43
1.0
 76
     1
 77
     6
 78
     2
 67
     7
 79
     5
170
     0
171
     0
290
     0
174
     0
 93
       13
 44
0.0
173
     0
291
     0
 45
0.0
1001
ACAD
1000
AcDbSavedByObjectVersion
1070
     0
  0
VISUALSTYLE
  5
37
102
{ACAD_REACTORS
330
2A
102
}
330
2A
100
AcDbVisualStyle
  2
Thicken
 70
    13
 71
     2
 72
     2
 73
     0
 90
        0
 40
-0.6
 41
-30.0
 62
     5
 63
     7
421
 16777215
 74
     1
 91
        4
 64
     7
 65
   257
 75
     1
175
     1
 42
1.0
 92
       12
 66
     7
 43
1.0
 76
     1
 77
     6
 78
     2
 67
     7
 79
     5
170
     0
171
     0
290
     0
174
     0
 93
        1
 44
0.0
173
     0
291
     1
 45
0.0
1001
ACAD
1000
AcDbSavedByObjectVersion
1070
     0
  0
ENDSEC
  0
EOF
