<?xml version="1.0" encoding="utf-8"?>
<!-- Generator: Adobe Illustrator 16.0.0, SVG Export Plug-In . SVG Version: 6.00 Build 0)  -->
<!DOCTYPE svg PUBLIC "-//W3C//DTD SVG 1.1//EN" "http://www.w3.org/Graphics/SVG/1.1/DTD/svg11.dtd">
<svg version="1.1" id="Livello_1" xmlns="http://www.w3.org/2000/svg" xmlns:xlink="http://www.w3.org/1999/xlink" x="0px" y="0px"
	 width="510.24px" height="510.24px" viewBox="0 0 510.24 510.24" enable-background="new 0 0 510.24 510.24" xml:space="preserve">
<g id="Livello_2">
	<rect x="71.27" y="0" fill="none" stroke="#FF0000" stroke-miterlimit="10" width="2.268" height="80.199"/>
	<rect x="279" y="0" fill="none" stroke="#FF0000" stroke-miterlimit="10" width="2.269" height="48.574"/>
	<rect y="376.034" fill="none" stroke="#FF0000" stroke-miterlimit="10" width="116.977" height="2.269"/>
	<rect y="119.591" fill="none" stroke="#FF0000" stroke-miterlimit="10" width="58.562" height="2.269"/>
	<rect x="450.011" y="336.773" fill="none" stroke="#FF0000" stroke-miterlimit="10" width="60.229" height="2.268"/>
	
		<rect x="163.072" y="214.072" transform="matrix(-0.8269 -0.5623 0.5623 -0.8269 156.4296 558.7426)" fill="none" stroke="#FF0000" stroke-miterlimit="10" width="2.268" height="82.449"/>
	
		<rect x="147.59" y="408.737" transform="matrix(-0.8704 -0.4924 0.4924 -0.8704 169.0903 864.2549)" fill="none" stroke="#FF0000" stroke-miterlimit="10" width="101.431" height="2.268"/>
	<rect x="320.233" y="319.95" fill="none" stroke="#FF0000" stroke-miterlimit="10" width="2.268" height="99.278"/>
	<rect x="127.333" y="394.669" fill="none" stroke="#FF0000" stroke-miterlimit="10" width="2.268" height="115.571"/>
	<rect x="402.239" y="392.318" fill="none" stroke="#FF0000" stroke-miterlimit="10" width="2.268" height="117.922"/>
</g>
<g>
	<path fill="none" stroke="#000000" stroke-miterlimit="10" d="M345.756,426.723c0.062-0.08,6.146-8.467,5.946-10.446
		c-0.044-0.439-0.291-0.833-0.667-1.064l-4.148-2.556c-0.464-0.287-1.057-0.28-1.516,0.019c-0.476,0.31-1.019,0.723-1.594,1.16
		c-1.288,0.98-3.196,2.433-4.469,2.601c-0.049-0.05-0.097-0.104-0.148-0.158c-0.424-0.445-1.134-1.19-2.22-1.19
		c-0.295,0-0.591,0.057-0.874,0.168c-1.146,0.444-1.719,1.479-2.224,2.394c-0.704,1.273-1.057,1.754-1.972,1.754
		c-0.402,0-0.893-0.098-1.458-0.292l-0.438-0.15c-2.025-0.694-2.949-1.011-4.083-1.011c-0.727,0-1.427,0.127-2.588,0.339
		c-0.418,0.075-0.899,0.163-1.469,0.26c-2.408,0.411-4.25,1.594-6.032,2.738c-1.567,1.008-3.048,1.959-4.911,2.475
		c-0.494,0.092-3.54,0.209-6.227,0.313c-9.482,0.366-11.851,0.554-12.658,0.999c-0.004,0.002-0.353,0.154-1.508,0.154
		c-4.773,0-11.985-2.172-12.386-4.199c-0.239-1.211-0.874-4.428-3.564-4.428c-0.89,0-1.727,0.378-2.535,0.742
		c-0.941,0.424-1.906,0.845-2.694,0.58c-0.756-0.25-1.411-0.371-2.004-0.371c-2.393,0-3.103,1.914-3.527,3.058
		c-0.488,1.317-0.698,1.733-1.843,1.733c-0.108,0-0.223-0.004-0.343-0.014c-1.832-0.143-2.154-0.548-2.74-1.283
		c-0.452-0.569-1.016-1.277-2.127-1.89c-0.348-0.19-0.737-0.287-1.161-0.287c-2.922,0-7.98,5.579-10.019,7.978
		c-0.058,0.068-0.109,0.142-0.153,0.219c-0.796,1.405-4.617,8.569-1.594,11.596c0.741,0.747,1.386,1.445,2.016,2.127
		c1.002,1.085,1.95,2.109,3.188,3.248l0.168,0.154c2.445,2.247,3.183,2.925,4.872,2.925c0.326,0,0.702-0.03,1.173-0.07
		c0.713-0.061,1.601-0.137,2.937-0.139c3.435,0,13.376,6.854,20.636,11.858c7.553,5.207,11.927,8.158,14.007,8.278
		c1.189,0.067,2.309,0.022,3.39-0.023c0.616-0.027,1.219-0.054,1.818-0.054c1.542,0,3.229,0.163,5.127,1.35
		c2.019,1.262,2.999,3.186,4.037,5.222c0.944,1.854,1.922,3.772,3.718,5.288c2.516,2.125,6.642,2.477,10.632,2.815
		c2.966,0.253,6.328,0.539,7.085,1.647c0.35,0.509,1.412,2.057,2.931,2.057c0.748,0,1.434-0.374,1.931-1.052
		c1.204-1.644,1.339-5.321,0.839-6.904c-0.512-1.619-0.165-3.859,0.824-5.327c0.376-0.558,1.004-1.236,1.864-1.305
		c0.614-0.05,1.157-0.352,1.53-0.852c1.071-1.436,0.563-4.328-0.333-8.577c-0.235-1.114-0.558-2.639-0.545-2.961
		c0.037-0.188,0.035-0.382-0.005-0.569c-0.466-2.182-1.598-3.104-2.424-3.776c-0.917-0.747-1.522-1.24-1.298-4.058
		C334.11,447.936,342.688,430.683,345.756,426.723z M333.436,456.219c0.673,0.549,1.13,0.921,1.396,1.975
		c-0.027,0.733,0.192,1.822,0.594,3.72c0.346,1.64,1.034,4.901,0.868,6.082c-1.359,0.255-2.591,1.122-3.507,2.482
		c-1.478,2.193-1.951,5.313-1.177,7.765c0.287,0.909,0.132,3.046-0.225,4.004c-0.115-0.128-0.261-0.308-0.433-0.559
		c-1.515-2.219-5.069-2.521-9.185-2.871c-3.383-0.288-7.217-0.614-9.044-2.157c-1.358-1.146-2.166-2.731-3.021-4.409
		c-1.113-2.184-2.375-4.659-5.061-6.339c-2.509-1.568-4.759-1.78-6.629-1.78c-0.64,0-1.284,0.027-1.941,0.057
		c-0.991,0.042-2.011,0.089-3.103,0.025c-1.392-0.081-7.585-4.352-12.562-7.782c-10.498-7.236-18.238-12.358-22.251-12.358
		c-1.453,0.002-2.446,0.087-3.172,0.148c-0.375,0.032-0.673,0.06-0.932,0.06c-0.518,0-0.671-0.08-2.954-2.177l-0.168-0.154
		c-1.153-1.061-2.062-2.044-3.024-3.085c-0.652-0.705-1.319-1.427-2.089-2.203c-0.961-0.961,0.269-5,1.986-8.082
		c3.038-3.555,6.552-6.688,7.689-6.867c0.53,0.317,0.806,0.666,1.151,1.098c0.916,1.153,1.905,2.125,4.737,2.346
		c0.197,0.016,0.385,0.022,0.563,0.022c3.171,0,4.003-2.242,4.501-3.583c0.448-1.208,0.537-1.208,0.869-1.208
		c0.193,0,0.544,0.039,1.112,0.227c0.462,0.154,0.947,0.231,1.442,0.231c1.271,0,2.4-0.509,3.308-0.918
		c0.512-0.23,1.091-0.491,1.369-0.5c0.004,0.003,0.417,0.286,0.785,2.15c0.913,4.619,11.081,6.484,15.167,6.484
		c1.633,0,2.37-0.247,2.777-0.454c1.104-0.3,7.598-0.551,11.498-0.701c4.985-0.192,6.308-0.26,6.821-0.401
		c2.328-0.643,4.141-1.807,5.739-2.833c1.684-1.082,3.138-2.016,4.977-2.329c0.581-0.1,1.073-0.188,1.499-0.267
		c1.004-0.182,1.61-0.292,2.081-0.292c0.633,0,1.222,0.191,3.163,0.857l0.438,0.15c0.874,0.3,1.651,0.445,2.377,0.445
		c2.673,0,3.743-1.937,4.452-3.218c0.163-0.295,0.409-0.74,0.604-0.975c0.063,0.063,0.128,0.132,0.181,0.188
		c0.408,0.429,0.968,1.016,1.855,1.052c0.019,0.001,0.134,0.003,0.152,0.003c2.179,0,4.508-1.772,6.379-3.196
		c0.243-0.185,0.479-0.365,0.702-0.53l2.39,1.472c-1.027,2.033-4.243,6.882-5.072,7.956c-2.67,3.445-12.157,21.565-12.412,24.75
		C330.785,453.716,331.972,455.027,333.436,456.219z"/>
	<path fill="none" stroke="#000000" stroke-miterlimit="10" d="M164.381,330.323c2.513-3.104,6.311-7.795,1.969-12.114
		c-1.726-1.717-1.542-3.895-1.329-6.415c0.257-3.046,0.572-6.77-3.509-9.076c0.314-1.118,0.272-2.593-0.668-4.45
		c-2.566-5.064-11.008-10.625-16.131-10.625c-1.364,0-2.479,0.367-3.371,1.143c-0.856,0.826-1.25,1.885-1.137,3.06
		c0.017,0.181,0.069,0.356,0.152,0.518c0.109,0.21,0.175,0.369,0.214,0.484c-0.235,0.065-0.569,0.126-0.817,0.171
		c-0.962,0.174-2.16,0.391-2.95,1.292c-2.293,2.619-4.786,4.528-7.196,6.375c-2.035,1.559-4.14,3.17-6.134,5.203
		c-0.283,0.288-0.946,0.461-1.772,0.461c-2.486,0-4.863-1.358-4.981-2.179c-0.549-3.812-2.666-4.224-3.55-4.224
		c-2.048,0-4.108,2.067-4.583,3.915c-0.32,1.246,0.105,2.363,1.106,2.913c0.869,0.48-0.564,3.24-1.611,5.256
		c-1.6,3.08-3.253,6.266-1.806,8.648c0.929,1.529,2.892,2.272,6,2.272c1.164,0,2.058,0.328,2.732,1.004
		c2.034,2.036,2.05,7.088,2.046,10.49c-0.013,0.068-0.033,0.168-0.058,0.296c-1.8,9.175-1.38,15.232,1.246,18.044
		c-1.711,3.823-1.904,8.723-2.091,13.474c-0.145,3.664-0.28,7.125-1.093,9.754c-0.878,2.83,6.156,12.423,6.456,12.829
		c4.308,5.848,5.795,5.848,6.43,5.848c0.247,0,0.488-0.046,0.71-0.133c0.092-0.005,0.204-0.004,0.334-0.005
		c2.09-0.023,7.643-0.084,11.613-9.094c1.401-3.179,3.131-4.724,5.29-4.724c2.558,0,5.297,2.109,6.768,3.242l0.125,0.096
		c0.598,0.459,1.229,0.692,1.876,0.692c4.204,0,5.941-9.069,8.243-29.397c0.557-4.912,1.187-10.479,1.64-11.362
		c1.725-2.795,0.136-5.004-1.025-6.616c-1.375-1.911-2.032-3-0.726-4.988C163.199,331.784,163.773,331.074,164.381,330.323z
		 M160.424,330.844c-2.438,3.71-0.493,6.412,0.794,8.2c1.219,1.694,1.585,2.384,0.914,3.473c-0.7,1.134-1.116,4.337-2.044,12.531
		c-0.877,7.744-2.931,25.879-5.396,26.885c0,0-0.061-0.017-0.18-0.108l-0.123-0.094c-1.739-1.339-4.975-3.83-8.498-3.83
		c-3.355,0-6.007,2.158-7.883,6.415c-3.234,7.338-7.311,7.383-9.051,7.401c-0.381,0.005-0.71,0.008-1.016,0.083
		c-2.284-1.241-9.958-12.593-10.141-15.062c0.892-2.965,1.034-6.563,1.183-10.368c0.191-4.862,0.389-9.891,2.256-13.249
		c0.359-0.646,0.162-1.459-0.454-1.868c-2.292-1.525-2.669-7.494-1.007-15.966c0.092-0.467,0.111-0.564,0.111-0.731
		c0.006-5.119-0.209-9.936-2.875-12.604c-1.216-1.217-2.81-1.834-4.738-1.834c-2.73,0-3.411-0.637-3.578-0.91
		c-0.619-1.021,0.836-3.823,1.899-5.87c1.619-3.117,3.622-6.973,0.762-8.864c0.088-0.247,0.311-0.648,0.697-1.037
		c0.447-0.449,0.89-0.654,1.112-0.654c0.202,0,0.566,0.557,0.745,1.793c0.435,3.008,4.802,4.608,7.787,4.608
		c1.642,0,2.954-0.452,3.795-1.31c1.854-1.89,3.788-3.371,5.834-4.938c2.521-1.931,5.126-3.927,7.604-6.756
		c0.157-0.161,0.916-0.299,1.323-0.372c1.057-0.191,2.373-0.43,2.964-1.632c0.515-1.047,0.094-2.196-0.198-2.815
		c0.018-0.2,0.096-0.352,0.23-0.483c0.38-0.329,1.003-0.398,1.458-0.398c4.124,0,11.498,4.917,13.603,9.071
		c0.643,1.27,0.701,2.279,0.172,3.001c-0.259,0.353-0.34,0.806-0.22,1.228c0.121,0.421,0.429,0.763,0.835,0.926
		c3.395,1.36,3.396,3.285,3.095,6.852c-0.227,2.68-0.508,6.015,2.153,8.664c2.353,2.34,0.667,4.813-2.172,8.32
		C161.525,329.346,160.907,330.109,160.424,330.844z"/>
	<path fill="none" stroke="#000000" stroke-miterlimit="10" d="M439.299,322.154c-0.454-0.386-1.513-1.724-2.537-3.017
		c-3.879-4.899-5.756-7.016-7.6-6.743c-4.074,0.638-13.291-5.684-17.315-9.208c-5.52-4.829-11.293-7.332-17.406-9.983
		c-1.536-0.666-3.106-1.346-4.712-2.081c-1.984-0.907-4.138-1.763-6.22-2.59c-5.429-2.156-11.042-4.386-15.026-7.968
		c-1.239-1.115-1.867-2.161-1.864-3.11c0.005-1.737,2.011-3.521,3.951-5.246c1.45-1.29,2.819-2.508,3.588-3.879
		c1.42-2.534,1.558-4.722,0.407-6.502c-3.342-5.172-16.695-4.461-30.087-3.29c-2.548,0.223-4.752,0.422-5.71,0.383
		c-0.216-0.004-0.396,0.024-0.582,0.046c-2.334-2.378-4.914-3.657-7.636-4.989c-0.908-0.445-1.836-0.898-2.782-1.411
		c-0.706-0.38-0.824-0.757-1.059-1.509c-0.33-1.055-0.828-2.65-3.368-3.528c-3.414-1.184-8.956-7.31-11.934-10.6
		c-0.389-0.43-0.748-0.827-1.071-1.18c-6.265-6.831-8.723-15.088-11.324-23.831c-1.383-4.644-2.813-9.446-4.864-14.053
		c-0.115-0.261-0.36-1.043-0.62-1.873c-1.687-5.389-3.572-10.766-6.441-12.157c-0.854-0.413-1.756-0.459-2.612-0.131
		c-3.357,1.277-8.371-3.715-12.402-7.73c-2.544-2.534-4.74-4.722-6.7-5.717c-5.075-2.577-13.771-7.981-14.975-15.216
		c-0.162-0.976-0.621-2.585-1.202-4.623c-1.378-4.831-4.064-14.261-2.887-18.173c0.933,1.412,2.009,2.549,3.572,2.549
		c0.001,0,0.003,0,0.004,0c2.092-0.002,3.621-2.229,4.631-3.984c2.859-5.77,0.668-8.119-1.45-10.392
		c-1.303-1.397-2.649-2.842-3.325-5.411c-1.805-6.866,4.209-10.048,12.904-13.792c2.173-0.936,4.221-1.825,5.942-2.801
		c0.596-0.079,1.149-0.235,1.661-0.462c0.103-0.01,0.204-0.016,0.305-0.049c0.285-0.095,0.519-0.272,0.686-0.495
		c1.151-0.75,2.112-1.777,2.998-2.742c0.563-0.613,1.097-1.194,1.622-1.636c0.484,0.137,1.534,1.079,2.055,1.546
		c0.866,0.776,1.613,1.447,2.409,1.668c1.883,0.522,3.542-0.471,4.876-1.27c0.89-0.532,1.809-1.084,2.3-0.873
		c0.468,0.201,0.791,1.197,1.076,2.075c0.427,1.314,0.911,2.804,2.34,3.366c1.028,0.406,2.255,0.614,3.49,0.614
		c2.315,0,4.662-0.733,5.789-2.274c0.653-0.894,1.426-2.79-0.739-5.447c-1.236-1.518-2.721-2.75-4.157-3.943
		c-1.532-1.273-2.98-2.475-4.093-3.962c-0.77-1.027-0.569-1.725-0.117-2.97c0.346-0.955,0.777-2.143,0.149-3.372
		c-0.361-0.708-1.009-1.284-2.021-1.779c0.166-0.146,0.336-0.294,0.505-0.441c1.853-1.605,4.157-3.604,3.694-6.34
		c-0.528-3.133-3.652-3.568-5.934-3.886c-1.051-0.146-2.325-0.324-2.835-0.72c0.474-0.7,2.188-2.045,3.362-2.966
		c3.024-2.373,6.453-5.062,6.552-8.056c0.069-2.03,0.173-5.098-40.861-10.153c-0.779-0.096-1.356-0.167-1.697-0.212
		c-0.084-0.469-0.222-0.934-0.438-1.387c-0.991-2.072-2.734-3.878-4.273-5.472c-1.199-1.241-2.331-2.414-2.874-3.456
		c-0.24-0.46-0.375-0.772-0.451-0.976c0.852-0.4,2.354-1.161,2.971-3.855c0.462-2.019-0.249-3.131-0.927-3.709
		c-1.814-1.547-5.46-1.09-11.824,1.482l-0.409,0.163c-3.338,1.268-15.129,2.394-17.323,2.542c-1.997-1.037-3.892-1.29-5.64-0.747
		c-3.521,1.091-5.444,5-6.99,8.14c-0.403,0.819-0.784,1.592-1.129,2.171c-0.308,0.516-0.617,0.807-0.919,0.866
		c-0.882,0.172-2.583-1.119-3.948-2.156c-2.462-1.869-5.526-4.194-8.473-2.255c-0.313,0.208-0.989,0.118-1.645,0.031
		c-1.233-0.164-3.798-0.504-4.501,2.493c-0.079,0.325-0.687,1.713-1.174,2.829c-1.154,2.637-1.974,4.605-2.476,6.1
		c-2.467-1.341-4.327-0.943-5.476-0.317c-3.82,2.084-4.788,8.894-5.032,12.028c-2.398,0.049-5.645,1.323-9.051,2.782
		c-0.588,0.252-1.24,0.531-1.582,0.656c-1.82-0.469-1.984-1.453-2.162-3.516c-0.218-2.533-0.554-6.368-7.539-6.278
		c-1.715,0.021-3.001,0.564-3.821,1.613c-1.539,1.965-0.829,5.004-0.31,7.224c0.162,0.691,0.314,1.344,0.342,1.734
		c0.151,2.133-1.66,4.018-3.411,5.84c-0.648,0.674-1.26,1.312-1.79,1.974c-0.729,0.913-1.426,1.539-2.042,2.09
		c-0.377,0.338-0.748,0.673-1.084,1.041c-0.118-0.199-0.252-0.404-0.421-0.621c-1.206-1.551-3.565-1.771-5.647-1.965
		c-0.925-0.086-2.452-0.229-2.847-0.515c-0.355-1.854-1.597-3.018-2.597-3.955c-1.244-1.166-1.625-1.622-1.378-2.562
		c0.155-0.589,1.448-5.834-0.989-8.592c-0.708-0.803-2.024-1.694-4.25-1.394c-3.625,0.49-10.29,8.248-11.527,11.932
		c-0.581,1.73-0.098,2.694,0.41,3.199c0.559,0.555,0.533,0.923,0.523,1.062c-0.103,1.445-2.833,3.477-4.827,4.959
		c-1.446,1.076-2.664,1.984-3.385,2.903c-1.212-0.677-2.875-1.201-5.178-1.576c-2.135-0.348-5.031,0.917-8.1,2.254
		c-3.357,1.463-7.534,3.284-8.623,1.731c-0.552-0.788-1.931-1.919-4.958-0.637c-3.403,1.44-9.194,6.465-8.448,10.355
		c0.459,2.398,7.637,13.865,9.657,14.894c1.011,0.513,2.214,1.322,2.204,2.263c-0.037,3.313-10.549,8.359-14.004,10.018
		c-2.779,1.334-3.207,1.54-3.46,2.266c-0.125,0.357-0.101,0.777,0.065,1.117c0.35,0.715,0.708,1.522,1.087,2.374
		c2.1,4.721,4.977,11.188,10.701,11.564c0.391,0.026,0.431,0.137,0.486,0.292c0.65,1.808-1.779,6.87-2.565,7.612
		c-4.309,3.704-0.542,12.051,2.086,16.698c1.922,3.394,6.961,6.767,12.254,8.203c2.682,0.728,6.485,1.234,9.542-0.405
		c-0.795,1.529-2.198,3.598-2.785,4.176c-2.498,2.463-3.419,5.719-2.346,8.295c0.987,2.37,3.435,3.722,6.728,3.722
		c0.045,0,0.09,0,0.135-0.001c5.971-0.067,16.395-6.397,20.654-12.543c1.77-2.552,3.388-3.904,4.816-5.097
		c1.796-1.5,3.348-2.796,3.915-5.596c1.163-5.72,7.755-5.482,13.974-4.513c0.741,0.218,4.839,2.55,8.455,4.607
		c10.799,6.144,18.66,10.498,21.336,10.498c0.013,0,0.026,0,0.039,0c5.589-0.113,7.259,5.78,9.172,14.745
		c1,4.688,1.944,9.115,4.035,11.932c2.235,3.011,2.385,8.278,2.518,12.924c0.164,5.733,0.318,11.148,4.828,11.148
		c4.908,0,14.917,12.587,15.3,19.241c0.119,2.061,0.736,3.454,1.889,4.26c1.824,1.276,4.265,0.541,6.419-0.108
		c1.211-0.365,2.719-0.819,3.357-0.591c5.729,2.053,7.684,5.563,10.159,10.005c0.786,1.412,1.599,2.872,2.594,4.409
		c1.056,1.633,3.37,2.815,5.82,4.067c2.165,1.105,4.403,2.25,5.603,3.607c0.38,0.43,0.628,1.55,0.828,2.449
		c0.306,1.377,0.622,2.801,1.6,3.615c1.033,0.86,1.989,1.598,2.914,2.311c2.383,1.837,4.442,3.423,6.638,6.274
		c3.033,3.937,4.645,5.098,9.08,6.543c0.609,0.198,2.214,1.831,3.386,3.023c2.799,2.85,5.694,5.8,8.266,5.115
		c1.532-0.404,2.597-1.147,3.534-1.803c1.401-0.978,2.245-1.568,4.306-0.894c0.814,0.266,1.614,0.824,2.46,1.416
		c1.943,1.357,4.878,3.415,8.192-0.035c0.047-0.049,0.078-0.068,0.077-0.069c0.446-0.069,2.495,0.653,8.267,12.022
		c0.325,0.641,0.572,1.126,0.721,1.389c0.523,0.927,0.704,1.901,0.879,2.843c0.245,1.324,0.499,2.692,1.766,3.479
		c1.106,0.687,2.6,0.688,4.996,0.01c0.817-0.232,1.455-0.438,1.967-0.602c0.463-0.149,0.938-0.302,1.154-0.337
		c0.166,0.131,0.493,0.479,0.81,0.815c0.102,0.108,0.21,0.224,0.326,0.347c-1.914,1.505-2.703,3.055-2.349,4.621
		c0.466,2.061,2.932,3.525,6.596,3.917c3.362,0.365,7.232-0.332,9.026-2.589c1.02,1.099,2.626,3.628,2.941,4.302
		c0.434,1.155,0.805,1.859,1.075,2.374c0.492,0.934,0.658,1.248,0.56,3.917c-0.387,5.843,3.717,7.964,7.014,9.668
		c1.323,0.685,2.574,1.331,3.408,2.13c0.171,0.163,0.547,0.748,0.849,1.218c1.156,1.801,2.903,4.521,5.542,4.687
		c1.598,0.095,3.122-0.739,4.582-2.489c0.765-0.914,1.465-1.38,1.908-1.263c2.365,0.596,4.309,10.046,4.947,13.151
		c0.291,1.415,0.501,2.437,0.693,3.009c0.415,1.235,1.25,3.425,2.218,5.96c2.003,5.251,4.747,12.442,5.147,14.88
		c0.087,0.53,0.377,1.141,0.925,2.263c1.186,2.424,3.391,6.936,1.222,8.852c-1.709,1.511-2.997,2.375-4.032,3.07
		c-1.322,0.888-2.367,1.589-3.366,2.977c-1.122,1.557-0.773,3.026-0.493,4.208c0.273,1.152,0.509,2.148-0.206,3.658
		c-0.855,1.808-2.176,3.436-3.573,5.159c-1.328,1.638-2.702,3.331-3.885,5.396c-2.045,3.569-1.365,10.025,1.483,14.098
		c1.668,2.386,3.881,3.651,6.328,3.651c0.414,0,0.834-0.036,1.26-0.109c9.177-1.58,10.779-4.585,13.436-9.563
		c0.941-1.765,2.008-3.764,3.639-6.135c1.34-1.954,2.994-2.956,4.594-3.925c2.929-1.773,5.958-3.607,5.019-10.478
		c-0.391-2.855,1.41-10.019,4.9-12.313c1.397-0.92,2.892-0.872,4.566,0.141c2.125,1.279,4.566,1.22,6.876-0.171
		c2.619-1.579,4.566-4.651,4.433-6.996c-0.071-1.254-0.731-2.257-1.813-2.751c-1.493-0.683-0.943-4.954-0.579-7.779
		c0.284-2.203,0.529-4.105,0.208-5.427c-0.945-3.887-5.552-6.009-10.007-8.06c-6.113-2.815-9.751-4.803-8.729-8.662
		c0.063-0.235,0.144-0.556,0.242-0.947c5.826-23.044,11.706-26.011,14.893-25.52c0.743,0.741,1.437,1.617,2.165,2.538
		c2.377,3.004,5.337,6.749,11.436,6.337c1.951-0.129,3.529,0.27,5.363,0.73c0.776,0.195,1.576,0.396,2.451,0.569
		c0.327,0.49,0.916,1.761,1.4,2.806c1.864,4.02,4.681,10.094,9.22,12.837c4.056,2.45,6.468,3.175,8.338,2.494
		c1.95-0.711,2.646-2.749,3.382-4.907c0.62-1.821,1.324-3.885,2.831-5.813C454.771,336.563,444.13,326.258,439.299,322.154z
		 M329.304,256.522c2.417,1.184,4.55,2.233,6.444,4.014c-0.774,1.365-0.715,3.314-0.646,5.217c0.051,1.375,0.134,3.676-0.444,4.052
		c-0.206,0.134-0.523,0.282-0.86,0.439c-1.356,0.634-3.626,1.694-3.748,4.567l-0.005,0.119c-0.065,1.51-0.163,3.792-1.036,4.467
		c-0.338,0.261-0.892,0.309-1.651,0.147c-2.269-0.478-4.199,0.846-6.064,2.129c-2.632,1.81-4.41,2.822-6.805,1.575
		c-4.656-3.088-9.003-2.733-11.887-2.494c-0.615,0.05-1.391,0.112-1.888,0.09c0.217-0.846,0.38-1.687,0.465-2.51
		c0.201-1.947-0.009-3.7-0.604-5.191c0.251-0.085,0.519-0.174,0.791-0.265c4.29-1.427,5.39-1.936,5.883-2.721
		c0.798-1.27,0.711-2.478,0.647-3.359c-0.083-1.152-0.125-1.731,1.839-2.757c1.547-0.81,3.216-0.958,4.695-0.419
		c1.225,0.446,2.183,1.324,2.629,2.41c0.028,0.069,0.065,0.131,0.103,0.193c0.011,0.017,0.017,0.036,0.028,0.053c0,0,0,0,0,0.001
		c0.063,0.095,0.139,0.178,0.22,0.253c0.019,0.017,0.038,0.031,0.058,0.047c0.065,0.055,0.136,0.104,0.21,0.146
		c0.021,0.013,0.044,0.024,0.066,0.036c0.085,0.042,0.174,0.076,0.267,0.101c0.01,0.002,0.019,0.006,0.028,0.009
		c0.222,0.054,0.456,0.05,0.688-0.012c0.03-0.008,0.06-0.017,0.09-0.027c0.03-0.01,0.062-0.015,0.092-0.027
		c0.086-0.035,0.165-0.079,0.24-0.128c0.002-0.001,0.004-0.002,0.006-0.003c0.001,0,0.001-0.001,0.002-0.001
		c0.007-0.005,0.013-0.011,0.02-0.016c3.237-2.164,5.02-5.562,6.743-8.85c0.428-0.816,0.843-1.591,1.271-2.348
		C327.907,255.832,328.616,256.185,329.304,256.522z M309.306,238.83c3.586,3.964,9.007,9.955,13.107,11.376
		c1.188,0.411,1.314,0.813,1.59,1.695c0.173,0.553,0.392,1.225,0.883,1.874c-0.515,0.896-1.006,1.817-1.477,2.717
		c-1.375,2.623-2.693,5.115-4.654,6.893c-0.836-1.076-1.993-1.93-3.354-2.425c-2.24-0.818-4.719-0.612-6.979,0.57
		c-3.335,1.741-3.488,3.582-3.353,5.473c0.049,0.687,0.066,1.096-0.141,1.507c-0.697,0.429-3.31,1.298-4.457,1.68
		c-0.645,0.214-1.105,0.369-1.454,0.495c-2.698-2.892-6.052-2.563-9.016-2.265c-2.548,0.256-4.748,0.479-6.564-1.071
		c-0.626-0.535-1.442-1.563-2.307-2.651c-2.672-3.363-6.323-7.96-11.203-7.105c-0.021,0-0.03,0-0.033-0.001
		c-0.496-0.432-0.224-3.108,0.23-3.743c1.848-1.879,2.543-1.866,4.587-1.875c0.686,0,1.477,0.002,2.443-0.066
		c0.376-0.026,0.726-0.201,0.972-0.486c0.247-0.285,0.37-0.656,0.342-1.031c-0.044-0.606-0.313-1.511-0.823-3.192
		c-1.105-3.641-3.406-11.216-1.361-13.937c0.523-0.697,1.371-1.037,2.59-1.039c3.626,0.555,5.323-2.492,6.568-4.723
		c1.582-2.839,1.938-2.823,2.829-2.362c2.582,1.346,5.28-0.486,7.659-2.102c1.059-0.719,2.143-1.45,3.059-1.798
		c2.059,5.827,4.74,11.501,9.257,16.426C308.566,238.012,308.921,238.405,309.306,238.83z M270.07,177.981
		c4.85,4.832,10.344,10.31,15.415,8.37c0.09-0.034,0.179-0.055,0.364,0.034c2.006,0.973,4.161,7.859,4.973,10.452
		c0.333,1.065,0.553,1.768,0.735,2.179c1.978,4.439,3.38,9.152,4.737,13.71c0.576,1.935,1.159,3.884,1.787,5.827
		c-1.267,0.462-2.521,1.308-3.744,2.137c-1.807,1.227-3.678,2.497-4.759,1.932c-3.618-1.876-5.421,1.356-6.613,3.497
		c-0.886,1.59-1.537,2.609-2.316,3.059c-1.252-1.477-3.444-3.504-5.704-4.688c0.005-0.007,0.01-0.012,0.015-0.019
		c0.466-0.619,0.627-1.352,0.454-2.062c-0.439-1.802-2.88-2.976-5.707-4.334c-1.586-0.763-3.759-1.808-4.216-2.497
		c-1.614-2.434-1.862-5.636-2.102-8.732c-0.417-5.388-0.891-11.495-9.511-11.943c-1.924-0.1-4.4-2.21-6.585-4.073
		c-1.436-1.224-2.792-2.38-4.095-3.101c-0.293-0.163-0.339-0.836-0.346-1.118c-0.083-3.752,4.137-11.331,5.393-12.1
		c0.25-0.149,0.296-0.175,1.193,0.3c1.343,0.709,3.369,1.782,7.083,0.356c0.042-0.017,0.084-0.035,0.125-0.056
		c0.397-0.199,0.761-0.375,1.094-0.537c1.883-0.916,3.206-1.56,3.85-3.136c0.846,0.481,1.684,0.931,2.498,1.344
		C265.648,173.575,267.796,175.716,270.07,177.981z M243.778,200.394c-0.381-0.817-0.989-1.424-1.525-1.959
		c-0.926-0.924-1.538-1.535-1.316-3.033c0.082-0.552,0.379-1.132,0.756-1.866c0.381-0.743,0.817-1.6,1.148-2.664
		c0.81,0.583,1.691,1.329,2.614,2.115c2.651,2.26,5.392,4.596,8.276,4.747c5.861,0.305,6.373,3.409,6.832,9.331
		c0.255,3.296,0.545,7.032,2.565,10.08c0.888,1.34,3.056,2.382,5.351,3.485c1.332,0.64,3.485,1.675,4.073,2.324
		c-2.007,2.587-4.253,3.757-6.844,5.107c-1.989,1.036-4.046,2.107-6.178,3.91c-0.558,0.471-1.241,1.428-2.401,3.079
		c-1.057,1.502-3.411,4.85-4.602,5.592c0-0.001,0-0.001,0-0.002c-0.074-0.236-0.14-0.829-0.199-1.352
		c-0.231-2.064-0.52-4.634-2.509-5.316c-1.004-0.344-1.776-0.509-2.397-0.642c-1.444-0.308-1.595-0.34-2.696-3.426
		c-0.441-1.236-1.132-2.729-2.582-3.307c-1.433-0.57-2.958,0.026-4.259,0.687c-0.56,0.282-0.883,0.183-2.292-2.092
		c-0.417-0.674-0.912-1.466-1.518-2.165c0.825-1.802,0.908-4.562,0.987-7.488c0.08-2.964,0.19-7.025,1.387-7.799
		c0.35-0.226,1.187-0.491,1.995-0.748c2.06-0.653,4.624-1.467,5.485-3.431C244.225,202.894,244.436,201.802,243.778,200.394z
		 M246.468,151.195c0.535,1.874,0.996,3.492,1.132,4.311c1.021,6.132,6.129,10.952,11.505,14.425
		c-0.013,0.039-0.03,0.075-0.04,0.115c-0.179,0.752-0.419,0.937-2.565,1.981c-0.323,0.158-0.675,0.329-1.058,0.52
		c-2.466,0.93-3.591,0.335-4.679-0.24c-0.97-0.512-2.298-1.216-3.962-0.233c-0.947,0.561-2.279,2.347-3.514,4.572
		c-0.052,0.002-0.103,0-0.155,0.008l-0.486,0.078c-1.699,0.275-3.042,0.495-5.497-0.002c-9.401-1.901-10.015-4.964-10.557-7.666
		c-0.275-1.369-0.586-2.92-1.98-4.002c-3.204-2.486-5.729-4.077-9.888-5.359c-2.924-0.904-4.784,0.897-6.142,2.212
		c-0.904,0.875-1.685,1.632-2.644,1.785c-3.65,0.585-18.891-2.726-21.803-5.611c-4.124-4.085-11.875-10.765-17.435-9.561
		c-1.298,0.279-3.008,1.128-4.182,3.469c-2.159-0.984-4.772-2.73-7.538-4.584c-3.188-2.137-6.695-4.487-10.176-6.066
		c0.048-0.436,0.071-0.877,0.064-1.323c1.039-0.252,2.059-0.533,2.917-0.878c0.252-0.102,0.47-0.274,0.627-0.496
		c1.918-2.713,1.299-5.817,0.752-8.555c-0.777-3.891-1.39-6.964,3.857-9.441c1.709-0.753,3.326-0.718,4.944,0.108
		c0.055,0.029,0.113,0.053,0.171,0.074c2.781,0.986,4.488-0.439,5.616-1.382c1.041-0.869,1.219-0.905,1.661-0.699
		c1.475,0.685,2.942,1.374,4.385,2.052c9.176,4.312,17.12,8,21.244,7.939c1.723-0.04,5.454-0.358,9.403-0.695
		c4.739-0.405,11.784-1.005,13.396-0.873c2.013,1.631,7.015,3.553,9.408,3.273c0.13-0.015,0.258-0.048,0.379-0.099l7.866-3.259
		c1.388-0.138,2.829,0.245,4.351,0.647c2.224,0.588,4.744,1.254,7.338,0.192c0.3-0.126,0.895,0.679,1.422,1.511
		C241.685,133.188,243.805,141.857,246.468,151.195z M286.257,59.827c-3.034,2.38-5.431,4.26-4.271,6.37
		c0.98,1.78,3.17,2.084,5.102,2.354c2.47,0.344,3.374,0.63,3.529,1.551c0.197,1.167-1.372,2.526-2.756,3.727
		c-0.92,0.797-1.789,1.551-2.34,2.381c-0.25,0.377-0.306,0.85-0.149,1.274c0.156,0.424,0.506,0.748,0.94,0.873
		c2.076,0.594,2.371,1.07,2.397,1.123c0.067,0.131-0.165,0.771-0.29,1.116c-0.481,1.328-1.21,3.334,0.513,5.634
		c1.313,1.756,2.96,3.124,4.552,4.445c1.393,1.156,2.708,2.249,3.77,3.553c0.505,0.619,1.027,1.466,0.649,1.983
		c-0.793,1.082-4.017,1.459-5.938,0.703c-0.224-0.153-0.521-1.066-0.697-1.611c-0.447-1.379-1.005-3.095-2.653-3.804
		c-1.821-0.783-3.515,0.23-4.874,1.045c-1.004,0.6-1.953,1.167-2.631,0.981c-0.239-0.1-0.882-0.676-1.307-1.057
		c-1.467-1.315-3.683-3.299-5.64-1.714c-0.718,0.581-1.379,1.301-2.018,1.997c-0.467,0.508-0.925,1.004-1.392,1.44
		c-1.009-2.605-2.829-6.561-5.062-8.106c-0.949-0.656-2.525-0.672-4.894-0.672c-0.072,0-0.146-0.001-0.217,0
		c-5.954,0-10.912-0.363-11.316-4.76c-0.288-3.142,0.515-4.168,1.292-5.161c1.331-1.701,2.082-3.229-0.396-7.432
		c-2.056-3.498,1.322-7.288,4.65-10.566c0.921-0.907,1.53-1.507,1.851-2.062c0.644-1.11,1.878-3.726,2.87-5.828
		c0.356-0.755,0.746-1.58,0.963-2.021c25.69,3.437,30.379,5.743,31.204,6.546C291.404,55.789,288.443,58.112,286.257,59.827z
		 M250.404,48.75c0.615-0.744,1.055-1.514,1.334-2.29c0.355,0.046,0.896,0.113,1.611,0.201c1.457,0.18,2.839,0.355,4.188,0.529
		c-0.154,0.325-0.34,0.717-0.567,1.2c-0.918,1.946-2.176,4.61-2.759,5.617c-0.138,0.232-0.831,0.915-1.388,1.464
		c-2.954,2.91-8.452,8.325-5.104,14.023c1.688,2.864,1.372,3.269,0.606,4.247c-0.905,1.157-2.273,2.905-1.882,7.167
		c0.674,7.339,9.128,7.327,14.167,7.335c1.31-0.005,3.09-0.001,3.47,0.169c1.255,0.869,2.871,3.674,4.184,7.188
		c-0.079,0.012-0.156,0.035-0.236,0.04c-0.01,0-0.02,0.004-0.029,0.005c-0.068,0.006-0.135,0.019-0.202,0.035
		c-0.023,0.005-0.048,0.01-0.071,0.017c-0.064,0.019-0.127,0.045-0.189,0.073c-0.023,0.011-0.048,0.02-0.07,0.032
		c-0.02,0.01-0.04,0.016-0.06,0.027c-1.62,0.945-3.692,1.837-5.886,2.782c-7.613,3.279-17.088,7.361-14.523,17.117
		c0.856,3.258,2.595,5.124,3.993,6.623c1.979,2.122,2.971,3.188,1.026,7.12c-1.42,2.458-2.13,2.488-2.137,2.488
		c-0.505,0-1.587-1.863-2.108-2.759c-1.229-2.116-2.911-5.015-5.659-3.894c-1.714,0.702-3.488,0.234-5.541-0.309
		c-1.782-0.471-3.624-0.959-5.619-0.697c-0.123,0.016-0.243,0.048-0.358,0.096l-7.84,3.248c-1.098,0.009-3.294-0.671-5.044-1.467
		c-0.345-0.39-0.683-0.773-1.001-1.134c-3.346-3.809-5.566-6.337-10.506-7.698c-0.004-0.002-0.009-0.004-0.014-0.007
		c-6.575-3.14-9.488-5.2-9.829-5.791c-0.672-1.61-0.309-3.584,0.255-4.895c0.887-2.058-0.966-3.391-2.073-4.187
		c-0.445-0.321-0.945-0.68-1.182-0.977c-0.683-1.815,0.22-3.344,1.771-5.615c0.37-0.542,0.752-1.101,1.091-1.671
		c0.112-0.124,0.209-0.273,0.312-0.415c0.951,1.239,2.192,2.403,4.564,2.403c0.851,0,1.846-0.149,3.025-0.499
		c2.581-0.764,4.253-3.601,6.023-6.603c2.918-4.95,5.141-8.145,9.343-7.46c2.729,0.44,6.558-2.07,9.007-4.356
		c1.554-1.451,5.132-5.235,4.781-9.034c-0.088-0.948-0.233-1.736-0.362-2.431c-0.27-1.459-0.465-2.514,0.01-4.33
		c1.067-4.084,4.33-11.314,5.779-11.513c0.855,0,0.907,0.087,1.192,0.566c0.354,0.594,0.947,1.587,2.58,2.016
		C244.573,53.092,248.28,51.321,250.404,48.75z M184.629,41.478c0.791-1.808,1.209-2.776,1.337-3.317
		c0.069-0.295,0.146-0.387,0.144-0.388c0.169-0.085,0.83,0.003,1.226,0.056c1.062,0.141,2.382,0.315,3.579-0.475
		c1.179-0.779,2.825,0.345,5.197,2.146c2.003,1.521,4.075,3.093,6.202,2.681c1.127-0.218,2.074-0.957,2.813-2.195
		c0.405-0.678,0.81-1.501,1.239-2.374c1.305-2.653,2.93-5.954,5.285-6.684c1.094-0.34,2.328-0.109,3.766,0.701
		c1.208,0.689,16.657-1.526,19.365-2.554c0.103-0.039,0.261-0.103,0.464-0.185c7.394-2.988,8.789-2.066,8.923-1.953
		c0.085,0.073,0.123,0.392,0.002,0.919c-0.324,1.414-0.855,1.662-1.471,1.95c-0.498,0.232-1.249,0.583-1.552,1.478
		c-0.325,0.958,0.066,2.031,0.752,3.347c0.733,1.405,2.003,2.721,3.348,4.114c1.457,1.508,2.963,3.068,3.755,4.726
		c0.507,1.06,0.243,2.229-0.785,3.472c-1.705,2.064-4.391,3.026-5.022,2.858c-0.511-0.134-0.6-0.283-0.864-0.726
		c-0.587-0.985-1.351-1.946-3.624-1.949c-0.001,0-0.001,0-0.002,0c-4.747,0-8.486,13.495-8.521,13.631
		c-0.635,2.428-0.353,3.951-0.055,5.563c0.124,0.667,0.251,1.356,0.327,2.176c0.161,1.742-1.331,4.309-3.893,6.7
		c-2.688,2.509-5.475,3.816-6.619,3.631c-6.42-1.041-9.648,4.424-12.239,8.818c-1.479,2.508-2.876,4.877-4.387,5.325
		c-3.18,0.945-3.851,0.031-4.701-1.126c-0.23-0.313-0.475-0.632-0.765-0.921c0.361-1.227,0.553-2.443,0.617-3.221
		c0.02-0.246-0.024-0.493-0.128-0.716c-1.334-2.857-4.61-2.189-6.778-1.746c-0.862,0.176-2.165,0.444-2.561,0.267
		c-2.99-1.319-2.771-7.384-2.626-11.398c0.034-0.952,0.066-1.85,0.054-2.593c-0.046-2.785,0.793-4.348,1.682-6.002
		c0.803-1.495,1.634-3.041,1.828-5.359c0.278-3.309-2.261-5.566-4.716-7.75c-1.195-1.063-2.414-2.155-3.42-3.401
		C181.912,47.688,183.799,43.375,184.629,41.478z M133.94,74.43c0.413,0.531,0.387,0.626,0.291,0.983
		c-0.34,1.265-0.192,2.34,1.559,3.772c0.003,0.003,0.007,0.006,0.011,0.01c0.01,0.008,0.018,0.016,0.028,0.025
		c0.035,0.028,0.077,0.035,0.114,0.06c0.106,0.071,0.214,0.135,0.336,0.176c0.073,0.024,0.146,0.029,0.222,0.041
		c0.073,0.012,0.142,0.04,0.217,0.04c0.044,0,0.088-0.005,0.133-0.009c0.01-0.001,0.02-0.001,0.03-0.002
		c0.013-0.001,0.025,0,0.038-0.002c0.157-0.022,0.302-0.075,0.436-0.143c0.017-0.008,0.033-0.014,0.049-0.023
		c0.153-0.084,0.286-0.196,0.396-0.328c0.006-0.008,0.016-0.011,0.021-0.018c0.003-0.004,0.004-0.009,0.007-0.013
		c0.109-0.139,0.192-0.297,0.244-0.467c0.003-0.01,0.007-0.019,0.01-0.028c0.044-0.158,0.058-0.327,0.043-0.499
		c-0.001-0.016,0-0.032-0.002-0.048c-0.001-0.011,0-0.022-0.001-0.034c-0.281-1.983,0.121-2.344,1.452-3.538
		c0.663-0.595,1.488-1.334,2.363-2.431c0.449-0.561,1.017-1.153,1.62-1.78c1.976-2.056,4.435-4.615,4.194-8.004
		c-0.043-0.614-0.212-1.339-0.409-2.178c-0.366-1.567-0.919-3.936-0.218-4.832c0.265-0.338,0.812-0.515,1.624-0.526
		c4.381-0.036,4.473,1.277,4.681,3.688c0.179,2.079,0.45,5.221,4.688,6.113c0.611,0.128,1.07-0.066,2.995-0.891
		c5.609-2.402,7.756-2.771,8.506-2.582c0.074,0.048,0.153,0.089,0.236,0.123c0.029,0.112,0.108,0.658-0.515,2.078
		c-0.314,0.717,0.013,1.553,0.729,1.867c0.717,0.316,1.553-0.012,1.867-0.729c0.387-0.884,1.566-3.574-0.06-5.214
		c-0.017-0.017-0.038-0.029-0.055-0.046c0.161-3.387,1.264-9.142,3.616-10.424c0.293-0.16,1.156-0.632,2.901,0.375
		c0.239,0.406,0.516,0.776,0.788,1.149c0.099,0.23,0.246,0.424,0.432,0.594c1.168,1.458,2.531,2.68,3.782,3.793
		c2.439,2.17,3.927,3.591,3.776,5.396c-0.146,1.731-0.773,2.9-1.5,4.254c-0.974,1.813-2.078,3.867-2.019,7.39
		c0.011,0.685-0.02,1.521-0.053,2.444c-0.172,4.778-0.433,11.999,4.314,14.093c1.223,0.541,2.705,0.239,4.273-0.083
		c1.943-0.397,2.998-0.514,3.464-0.08c-0.211,1.648-0.835,3.72-1.519,4.409c-0.085,0.085-0.159,0.182-0.22,0.286
		c-0.308,0.53-0.676,1.069-1.065,1.64c-1.524,2.231-3.42,5.008-1.994,8.437c0.032,0.077,0.07,0.15,0.115,0.219
		c0.492,0.769,1.28,1.335,1.976,1.836c0.341,0.245,0.885,0.637,1.078,0.875c-0.422,1.021-1.449,4.058-0.22,6.999
		c0.245,0.586,0.989,2.37,11.223,7.256l0.095,0.045c0.087,0.044,0.179,0.08,0.275,0.105c3.104,0.834,4.893,2.169,6.924,4.296
		c-2.085,0.065-5.668,0.336-12.055,0.881c-3.904,0.333-7.592,0.648-9.227,0.686c-3.446,0.088-11.489-3.684-19.973-7.671
		c-1.447-0.68-2.918-1.371-4.397-2.058c-2.162-1.001-3.672,0.26-4.672,1.096c-1.053,0.879-1.622,1.293-2.773,0.913
		c-2.364-1.178-4.814-1.223-7.319-0.116c-7.283,3.438-6.272,8.504-5.459,12.574c0.465,2.33,0.871,4.363-0.069,6.021
		c-0.563,0.197-1.213,0.375-1.83,0.529c-0.464-1.797-1.336-3.611-2.595-5.355c-3.169-4.393-8.412-7.771-12.749-8.215
		c-2.451-0.251-4.829-5.113-4.8-9.817c0.007-1.151,0.227-4.926,2.768-5.155c0.125-0.011,0.243-0.043,0.355-0.084
		c0.022-0.008,0.042-0.018,0.064-0.027c0.149-0.063,0.285-0.148,0.402-0.255c0.007-0.006,0.017-0.008,0.024-0.015
		c0.273-0.258,0.544-0.504,0.808-0.743c2.085-1.891,4.681-4.245,1.508-8.12c-1.071-1.31-1.439-2.37-1.829-3.493
		c-0.466-1.342-0.948-2.729-2.483-4.307c-3.342-3.421-0.085-11.056,2.07-16.108c0.318-0.747,0.61-1.443,0.877-2.104
		c0.453,0.059,0.911,0.106,1.359,0.148C131.626,73.675,133.488,73.848,133.94,74.43z M75.353,102.288
		c-1.426-1.006-7.874-11.158-8.213-12.933c-0.201-1.045,1.439-3.571,4.199-5.665c1.903-1.443,3.369-1.921,3.92-1.921
		c0.081,0,0.142,0.01,0.182,0.029c2.418,3.449,7.549,1.213,12.076-0.76c2.439-1.063,5.208-2.264,6.512-2.055
		c5.787,0.941,5.924,2.369,6.256,5.82c0.17,1.768,0.382,3.969,1.386,6.525c0.817,2.08,0.793,3.766-0.072,5.011
		c-1.566,2.253-5.658,2.988-8.682,2.929c-4.149-0.091-7.149,0.997-10.636,2.24c-1.654,0.59-3.36,1.199-5.357,1.746
		C76.473,102.912,75.948,102.589,75.353,102.288z M91.22,164.204c-1.753,1.017-4.455,1.107-7.609,0.25
		c-4.474-1.214-9.001-4.165-10.53-6.864c-2.718-4.804-5.057-11.131-2.704-13.154c1.325-1.144,4.51-7.354,3.411-10.638
		c-0.444-1.328-1.535-2.145-2.995-2.242c-4.017-0.265-6.391-5.601-8.298-9.889c-0.2-0.45-0.395-0.888-0.586-1.307
		c0.451-0.224,1.008-0.492,1.531-0.742c7.526-3.613,15.56-7.86,15.611-12.542c0.005-0.492-0.073-0.963-0.234-1.415
		c1.634-0.489,3.093-1.009,4.417-1.482c3.359-1.198,6.006-2.136,9.631-2.076c1.895,0.042,8.29-0.158,11.062-4.145
		c0.99-1.423,1.859-3.909,0.384-7.666c-0.86-2.187-1.042-4.085-1.203-5.76c-0.187-1.942-0.449-3.563-1.321-4.872
		c0.256-0.52,1.872-1.724,2.953-2.528c2.703-2.011,5.767-4.29,5.962-7.032c0.056-0.787-0.112-1.951-1.195-3.112
		c0.096-2.034,6.82-10.132,9.343-10.473c1.069-0.146,1.509,0.194,1.746,0.461c0.977,1.106,0.92,3.913,0.372,5.994
		c-0.698,2.655,0.966,4.214,2.181,5.353c0.851,0.798,1.586,1.486,1.758,2.458c0.154,0.865,0.621,1.44,1.267,1.832
		c-0.229,0.557-0.482,1.154-0.749,1.777c-2.451,5.745-6.154,14.427-1.492,19.199c1.094,1.125,1.421,2.066,1.834,3.258
		c0.433,1.247,0.923,2.659,2.313,4.359c1.417,1.729,0.997,2.215-1.219,4.225c-0.168,0.152-0.342,0.315-0.515,0.474
		c-3.012,0.548-4.81,3.449-4.837,7.888c-0.035,5.744,2.909,12.2,7.346,12.654c3.535,0.362,8.051,3.329,10.739,7.054
		c1.633,2.263,2.46,4.61,2.435,6.767c-4.038-1.285-7.912-1.149-11.063,2.01c-3.006,3.013-6.596,3.04-10.396,3.068
		c-4.49,0.033-9.579,0.071-12.233,6.309c-0.177,0.349-1.24,1.583-2.093,2.574c-1.763,2.047-3.957,4.595-4.996,6.593
		c-0.53,1.019-2.018,1.236-4.062,1.431c-1.393,0.133-2.816,0.281-3.753,1.043C92.544,163.436,91.674,163.94,91.22,164.204z
		 M167.27,167.5c-2.111,0-13.686-6.585-19.911-10.127c-6.713-3.819-8.514-4.798-9.344-4.928c-4.214-0.661-15.404-2.412-17.264,6.734
		c-0.37,1.826-1.343,2.638-2.955,3.984c-1.488,1.243-3.341,2.791-5.329,5.658c-4,5.771-13.732,11.271-18.356,11.324
		c-2.196,0.018-3.674-0.678-4.214-1.977c-0.617-1.48,0.074-3.565,1.719-5.187c0.052-0.051,4.095-4.81,4.152-7.69
		c0.488-0.102,1.172-0.168,1.688-0.217c2.121-0.203,5.025-0.48,6.307-2.945c0.887-1.706,3.05-4.217,4.629-6.051
		c1.526-1.771,2.271-2.652,2.545-3.296c1.935-4.544,5.173-4.569,9.655-4.602c4.009-0.03,8.554-0.064,12.382-3.9
		c4.908-4.917,13.154,0.609,20.43,5.487c2.954,1.98,5.747,3.852,8.171,4.918c2.509,1.527,7.808,8.697,7.701,12.995
		c-0.57-0.107-1.163-0.181-1.807-0.181C167.402,167.498,167.338,167.501,167.27,167.5z M210.674,241.762
		c-1.461,0.44-3.281,0.988-3.977,0.5c-0.378-0.264-0.621-1.01-0.684-2.101c-0.446-7.739-11.179-21.913-18.13-21.913
		c-1.629,0-1.854-3.479-1.994-8.394c-0.145-5.065-0.309-10.806-3.075-14.533c-1.723-2.322-2.605-6.457-3.539-10.834
		c-1.324-6.208-2.799-13.037-7.251-15.758c0.739-4.878-3.727-11.73-7.179-15.016c0.568-1.388,1.37-2.183,2.454-2.416
		c3.604-0.776,10.031,4.038,14.842,8.804c3.862,3.826,20.136,7.048,24.244,6.396c1.843-0.294,3.08-1.491,4.171-2.548
		c1.46-1.413,2.125-1.912,3.333-1.54c3.766,1.161,5.98,2.558,8.986,4.89c0.534,0.415,0.697,1.116,0.938,2.32
		c0.805,4.011,2.387,7.786,12.775,9.887c1.269,0.256,2.325,0.349,3.255,0.349c0.707,0,1.338-0.056,1.938-0.132
		c-1.043,2.436-1.79,4.979-1.762,6.894c0.012,0.845,0.17,1.505,0.404,2.028c-0.206,1.503-0.729,2.576-1.252,3.596
		c-0.456,0.89-0.887,1.73-1.037,2.744c-0.431,2.912,1.042,4.381,2.117,5.455c0.424,0.423,0.79,0.788,0.959,1.151
		c0.253,0.542,0.158,0.759,0.127,0.83c-0.346,0.789-2.392,1.438-3.746,1.868c-1.077,0.341-2.006,0.636-2.676,1.069
		c-2.453,1.585-2.564,5.723-2.683,10.103c-0.058,2.147-0.125,4.536-0.55,5.925c-0.697-0.187-1.484-0.181-2.388,0.135
		c-3.287,1.144-3.316,4.073-3.338,6.211c-0.016,1.575-0.031,3.063-0.992,4.08c-2.625,2.778-5.301,6.717-7.532,10.066
		c-0.515-0.231-1.049-0.456-1.627-0.663C214.286,240.673,212.449,241.227,210.674,241.762z M288.179,292.029
		c-1.557,1.617-2.325,1.209-4.521-0.327c-0.934-0.652-1.991-1.392-3.206-1.788c-3.403-1.107-5.213,0.151-6.807,1.265
		c-0.817,0.571-1.59,1.11-2.637,1.387c-0.983,0.267-4.161-2.979-5.52-4.361c-2.022-2.059-3.323-3.34-4.529-3.732
		c-3.877-1.264-5.03-2.098-7.712-5.577c-2.419-3.143-4.719-4.914-7.153-6.79c-0.903-0.696-1.838-1.417-2.827-2.241
		c-0.245-0.232-0.498-1.372-0.649-2.054c-0.298-1.344-0.607-2.733-1.472-3.712c-1.555-1.761-4.037-3.028-6.437-4.255
		c-2.009-1.026-4.087-2.088-4.729-3.082c-0.944-1.459-1.734-2.877-2.498-4.249c-2.02-3.625-3.835-6.871-7.547-9.28
		c2.141-3.209,4.676-6.92,7.087-9.471c1.724-1.825,1.748-4.139,1.766-5.999c0.023-2.324,0.14-3.113,1.435-3.563
		c1-0.348,1.617,0.315,2.96,2.485c1.157,1.868,2.903,4.689,5.984,3.127c1.296-0.657,1.763-0.646,1.927-0.582
		c0.104,0.042,0.482,0.282,0.961,1.626c1.44,4.037,2.264,4.71,4.774,5.246c0.575,0.123,1.226,0.262,2,0.515
		c0.385,0.344,0.593,2.197,0.682,2.988c0.083,0.743,0.155,1.385,0.31,1.88c0.48,1.536,1.404,1.987,2.095,2.095
		c2.252,0.348,4.44-2.504,7.531-6.899c0.716-1.018,1.606-2.286,1.913-2.544c1.892-1.599,3.806-2.596,5.657-3.561
		c1.997-1.041,4.043-2.112,5.954-3.895c1.314,0.536,2.856,1.669,4.154,2.896c-1.296,0.302-2.346,0.967-3.108,1.981
		c-2.909,3.87-0.516,11.753,0.915,16.463c0.112,0.37,0.229,0.756,0.336,1.117c-0.19,0-0.374,0-0.554,0
		c-2.467-0.016-4.054,0.121-6.612,2.722c-1.132,1.152-1.779,4.781-0.867,6.776c0.557,1.215,1.621,1.87,2.933,1.782
		c0.06-0.003,0.118-0.011,0.177-0.022c3.242-0.622,6.199,3.085,8.565,6.064c0.993,1.249,1.851,2.329,2.686,3.043
		c2.734,2.335,5.899,2.018,8.688,1.736c3.114-0.312,5.106-0.407,6.788,1.508c1.089,1.24,1.521,3.021,1.286,5.295
		c-0.513,4.958-4.132,10.863-7.06,13.063c-0.046,0.035-0.07,0.085-0.11,0.124c-0.146-0.044-0.293-0.09-0.438-0.111
		C289.792,290.972,288.876,291.302,288.179,292.029z M353.032,341.63c-1.608-0.406-3.218,0.332-4.775,2.194
		c-0.585,0.7-1.457,1.504-2.23,1.478c-1.206-0.075-2.486-2.069-3.334-3.389c-0.48-0.748-0.859-1.338-1.273-1.734
		c-1.129-1.081-2.622-1.854-4.066-2.601c-3.086-1.595-5.751-2.973-5.485-7.003c0.119-3.183-0.133-3.964-0.882-5.385
		c-0.262-0.497-0.559-1.061-0.931-2.054c-0.024-0.064-3.279-6.475-5.805-6.559c-0.77-0.041-1.451,0.406-1.792,1.149
		c-0.656,1.41-3.546,2.216-6.722,1.879c-2.616-0.279-4.013-1.194-4.133-1.725c-0.071-0.313,0.363-1.257,2.515-2.58
		c0.371-0.229,0.617-0.614,0.666-1.048c0.049-0.433-0.104-0.864-0.415-1.17c-0.618-0.607-1.078-1.098-1.442-1.485
		c-1.802-1.917-2.353-2.056-4.897-1.235c-0.487,0.156-1.095,0.352-1.873,0.573c-2.108,0.598-2.643,0.362-2.727,0.309
		c-0.203-0.126-0.359-0.97-0.474-1.587c-0.197-1.061-0.441-2.382-1.197-3.719c-0.136-0.24-0.362-0.688-0.662-1.278
		c-2.445-4.819-4.993-9.402-7.451-11.813c2.268-1.98,4.691-5.51,6.179-9.277c0.904,0.181,1.967,0.095,3.01,0.009
		c2.648-0.219,6.28-0.518,10.141,2.066c0.039,0.026,0.079,0.051,0.121,0.072c4.117,2.197,7.404-0.06,9.803-1.709
		c1.499-1.03,2.792-1.919,3.87-1.692c1.611,0.347,2.947,0.117,3.974-0.678c0.244-0.188,0.457-0.401,0.646-0.633
		c2.729-0.177,2.947,0.998,3.382,3.498c0.386,2.222,0.914,5.264,4.446,6.195c1.414,0.373,1.425,0.75,1.464,2.154
		c0.036,1.276,0.085,3.023,1.761,4.451c1.503,1.277,3.291,1.396,4.87,1.499c1.407,0.093,2.623,0.172,3.53,0.99
		c1.207,1.091,1.179,1.982,1.052,2.559c-0.403,1.831-2.915,3.799-4.917,4.419c-0.773,0.239-1.371,0.812-1.683,1.61
		c-1.217,3.115,2.082,9.739,2.118,9.803c0.556,0.954,1.673,2.41,2.966,4.097c1.971,2.57,6.585,8.589,6.248,10.142
		c-0.047,0.22-0.127,0.667-0.233,1.267c-0.887,4.996-1.512,7.47-1.941,8.655C354.011,342.007,353.541,341.758,353.032,341.63z
		 M363.255,303.145c0.081,1.874,2.079,2.49,4.194,3.143c1.738,0.536,3.902,1.203,4.536,2.413c2.42,4.636,7.604,5.997,11.034,6.898
		c0.771,0.203,1.766,0.464,2.303,0.687c-1.245,4.646,4.221,10,7.203,12.921c0.178,0.175,0.341,0.335,0.493,0.486
		c-1.316,2.088-2.581,4.676-3.794,7.755c-1.188-1.14-2.655-1.842-4.253-2.012c-2.12-0.228-4.22,0.519-5.923,2.097
		c-1.556,1.44-2.326,2.618-2.946,3.564c-0.898,1.373-1.492,2.281-4.187,3.603c-2.071,1.02-3.29,0.321-5.262-1.003
		c-2.326-1.563-5.459-3.659-10.167,1.231c-0.029-0.056-0.062-0.104-0.091-0.157c0.836-1.269,1.631-4.074,2.787-10.585
		c0.098-0.553,0.17-0.965,0.213-1.165c0.57-2.63-2.446-6.825-6.769-12.464c-1.184-1.543-2.301-3.001-2.766-3.797
		c-0.781-1.367-2.426-6.206-1.948-7.312c2.795-0.902,6.081-3.459,6.748-6.486c0.149-0.678,0.198-1.524-0.06-2.441
		c3.081-0.558,7.108-1.02,7.949-0.649c0.68,0.411,0.72,1.413,0.701,2.582C363.249,302.714,363.246,302.948,363.255,303.145z
		 M385.045,350.84c-0.096,0.379-0.174,0.688-0.234,0.915c-1.706,6.442,4.663,9.375,10.283,11.963c3.843,1.77,7.816,3.6,8.438,6.154
		c0.196,0.811-0.038,2.633-0.266,4.396c-0.554,4.297-1.181,9.167,2.211,10.72c0.076,0.034,0.147,0.067,0.162,0.334
		c0.066,1.168-1.23,3.301-3.066,4.407c-1.402,0.846-2.732,0.903-3.946,0.172c-3.323-2.008-5.961-1.153-7.589-0.082
		c-4.675,3.073-6.64,11.501-6.152,15.066c0.688,5.024-0.956,6.02-3.679,7.668c-1.683,1.02-3.777,2.288-5.462,4.745
		c-1.72,2.5-2.875,4.665-3.803,6.405c-2.476,4.641-3.605,6.759-11.415,8.104c-1.847,0.313-3.461-0.48-4.785-2.373
		c-2.171-3.104-2.826-8.482-1.347-11.064c1.069-1.865,2.369-3.469,3.627-5.02c1.509-1.859,2.933-3.616,3.935-5.731
		c1.141-2.409,0.713-4.21,0.401-5.525c-0.263-1.109-0.294-1.44,0.035-1.897c0.701-0.974,1.434-1.466,2.646-2.279
		c1.104-0.742,2.479-1.664,4.329-3.299c3.787-3.347,0.965-9.12-0.552-12.222c-0.279-0.571-0.626-1.281-0.675-1.476
		c-0.446-2.722-3.136-9.77-5.296-15.433c-0.957-2.506-1.782-4.671-2.18-5.853c-0.138-0.409-0.354-1.46-0.604-2.677
		c-0.671-3.262-1.401-6.499-2.344-9.164c3.593-4.265,5.015-3.314,7.354-1.744c1.874,1.259,4.442,2.982,8.091,1.194
		c3.392-1.664,4.323-3.088,5.31-4.596c0.59-0.9,1.199-1.832,2.5-3.036c1.093-1.012,2.402-1.491,3.697-1.358
		c1.287,0.137,2.455,0.866,3.289,2.054c0.042,0.06,0.103,0.093,0.151,0.144C387.046,343.512,386.022,346.973,385.045,350.84z
		 M447.038,341.861c-1.802,2.305-2.622,4.71-3.281,6.643c-0.532,1.563-0.993,2.913-1.669,3.159c-0.616,0.227-2.142,0.015-5.9-2.257
		c-3.798-2.296-6.396-7.897-8.114-11.604c-1.349-2.907-1.906-4.11-3.103-4.331c-0.927-0.171-1.793-0.39-2.63-0.6
		c-1.979-0.498-3.853-0.97-6.242-0.81c-4.618,0.299-6.658-2.277-9.024-5.268c-0.85-1.073-1.728-2.183-2.735-3.123
		c-0.178-0.165-0.395-0.282-0.63-0.34c-3.214-0.781-6.228,0.566-9.027,4.021c-0.059-0.058-0.111-0.109-0.173-0.17
		c-2.055-2.012-7.513-7.357-6.398-10.331c0.255-0.606,0.244-1.246-0.029-1.8c-0.597-1.209-2.086-1.601-4.342-2.192
		c-3.123-0.821-7.401-1.944-9.242-5.471c-1.182-2.257-3.972-3.117-6.213-3.809c-0.729-0.226-1.792-0.553-2.2-0.807
		c0-0.086,0.002-0.177,0.003-0.273c0.021-1.315,0.061-3.765-2.068-5.053c-1.661-1.004-8.324-0.234-11.032,0.497
		c-0.085-0.084-0.153-0.168-0.246-0.252c-1.638-1.479-3.553-1.604-5.243-1.716c-1.305-0.085-2.432-0.159-3.219-0.829
		c-0.683-0.581-0.731-1.213-0.764-2.371c-0.044-1.555-0.109-3.903-3.575-4.815c-1.69-0.446-1.991-1.723-2.376-3.94
		c-0.389-2.234-0.955-5.477-4.993-5.826c0.208-1.072,0.266-2.185,0.307-3.142l0.005-0.118c0.045-1.046,0.679-1.45,2.115-2.121
		c0.41-0.191,0.834-0.39,1.206-0.631c1.925-1.251,1.827-3.936,1.732-6.532c-0.049-1.332-0.121-3.342,0.332-3.81
		c0.009-0.004,0.017-0.012,0.026-0.017c0.081-0.062,0.238-0.078,0.379-0.069c1.123,0.033,3.194-0.143,6.052-0.393
		c8.037-0.705,24.764-2.166,27.459,2.004c0.199,0.309,0.807,1.248-0.499,3.578c-0.535,0.956-1.732,2.02-2.999,3.146
		c-2.294,2.039-4.894,4.352-4.902,7.356c-0.005,1.815,0.913,3.524,2.805,5.226c4.361,3.922,10.215,6.247,15.875,8.495
		c2.144,0.852,4.167,1.655,6.086,2.533c1.624,0.742,3.211,1.431,4.764,2.104c6.161,2.671,11.481,4.978,16.667,9.515
		c0.124,0.108,12.495,10.763,19.427,9.902c1.033,0.496,3.789,3.978,5.134,5.675c1.398,1.768,2.289,2.879,2.924,3.418
		C444.229,330.061,450.295,337.688,447.038,341.861z"/>
</g>
</svg>
