999
"DXF R12 Output" (www.mydxf.blogspot.com)
 0 
SECTION
 2 
HEADER
 9 
$ACADVER
 1 
AC1009
 9 
$EXTMIN
 10 
 0 
 20 
 0 
 9 
$EXTMAX
 10 
 8.5 
 20 
 11 
 0 
ENDSEC
 0 
SECTION
 2 
ENTITIES
0
LINE
8
Layer 1
10
0.846666
20
317.647000
11
-0.846666
21
315.953000
0
LINE
8
Layer 1
10
0.000000
20
318.211000
11
0.000000
21
315.389000
0
LINE
8
Layer 1
10
2.257780
20
315.671000
11
1.128890
21
314.542110
0
LINE
8
Layer 1
10
1.693330
20
316.236000
11
0.564440
21
315.107110
0
LINE
8
Layer 1
10
1.128890
20
316.800000
11
0.000000
21
315.671110
0
LINE
8
Livello 2
10
125.679000
20
188.623000
11
124.531335
21
188.454416
0
LINE
8
Livello 2
10
124.531335
20
188.454416
11
123.468735
21
187.969621
0
LINE
8
Livello 2
10
123.468735
20
187.969621
11
122.512144
21
187.200050
0
LINE
8
Livello 2
10
122.512144
20
187.200050
11
121.682510
21
186.177140
0
LINE
8
Livello 2
10
121.682510
20
186.177140
11
121.000778
21
184.932325
0
LINE
8
Livello 2
10
121.000778
20
184.932325
11
120.487893
21
183.497042
0
LINE
8
Livello 2
10
120.487893
20
183.497042
11
120.164802
21
181.902725
0
LINE
8
Livello 2
10
120.164802
20
181.902725
11
120.052450
21
180.180810
0
LINE
8
Livello 2
10
120.052450
20
180.180810
11
120.164802
21
178.458887
0
LINE
8
Livello 2
10
120.164802
20
178.458887
11
120.487893
21
176.864547
0
LINE
8
Livello 2
10
120.487893
20
176.864547
11
121.000778
21
175.429232
0
LINE
8
Livello 2
10
121.000778
20
175.429232
11
121.682510
21
174.184380
0
LINE
8
Livello 2
10
121.682510
20
174.184380
11
122.512144
21
173.161433
0
LINE
8
Livello 2
10
122.512144
20
173.161433
11
123.468735
21
172.391830
0
LINE
8
Livello 2
10
123.468735
20
172.391830
11
124.531335
21
171.907013
0
LINE
8
Livello 2
10
124.531335
20
171.907013
11
125.679000
21
171.738420
0
LINE
8
Livello 2
10
125.679000
20
171.738420
11
126.826560
21
171.907013
0
LINE
8
Livello 2
10
126.826560
20
171.907013
11
127.889109
21
172.391830
0
LINE
8
Livello 2
10
127.889109
20
172.391830
11
128.845688
21
173.161433
0
LINE
8
Livello 2
10
128.845688
20
173.161433
11
129.675340
21
174.184380
0
LINE
8
Livello 2
10
129.675340
20
174.184380
11
130.357107
21
175.429232
0
LINE
8
Livello 2
10
130.357107
20
175.429232
11
130.870031
21
176.864547
0
LINE
8
Livello 2
10
130.870031
20
176.864547
11
131.193155
21
178.458887
0
LINE
8
Livello 2
10
131.193155
20
178.458887
11
131.305520
21
180.180810
0
LINE
8
Livello 2
10
131.305520
20
180.180810
11
131.193155
21
181.902725
0
LINE
8
Livello 2
10
131.193155
20
181.902725
11
130.870031
21
183.497042
0
LINE
8
Livello 2
10
130.870031
20
183.497042
11
130.357107
21
184.932325
0
LINE
8
Livello 2
10
130.357107
20
184.932325
11
129.675340
21
186.177140
0
LINE
8
Livello 2
10
129.675340
20
186.177140
11
128.845688
21
187.200050
0
LINE
8
Livello 2
10
128.845688
20
187.200050
11
127.889109
21
187.969621
0
LINE
8
Livello 2
10
127.889109
20
187.969621
11
126.826560
21
188.454416
0
LINE
8
Livello 2
10
126.826560
20
188.454416
11
125.679000
21
188.623000
0
LINE
8
Livello 2
10
125.679000
20
188.623000
11
125.679000
21
188.623000
0
LINE
8
Livello 2
10
125.679000
20
173.871000
11
124.984998
21
174.001830
0
LINE
8
Livello 2
10
124.984998
20
174.001830
11
124.333882
21
174.375898
0
LINE
8
Livello 2
10
124.333882
20
174.375898
11
123.740954
21
174.965568
0
LINE
8
Livello 2
10
123.740954
20
174.965568
11
123.221516
21
175.743206
0
LINE
8
Livello 2
10
123.221516
20
175.743206
11
122.464322
21
177.751849
0
LINE
8
Livello 2
10
122.464322
20
177.751849
11
122.184720
21
180.180750
0
LINE
8
Livello 2
10
122.184720
20
180.180750
11
122.464322
21
182.609593
0
LINE
8
Livello 2
10
122.464322
20
182.609593
11
123.221516
21
184.618304
0
LINE
8
Livello 2
10
123.221516
20
184.618304
11
123.740954
21
185.395996
0
LINE
8
Livello 2
10
123.740954
20
185.395996
11
124.333882
21
185.985718
0
LINE
8
Livello 2
10
124.333882
20
185.985718
11
124.984998
21
186.359824
0
LINE
8
Livello 2
10
124.984998
20
186.359824
11
125.679000
21
186.490670
0
LINE
8
Livello 2
10
125.679000
20
186.490670
11
126.372880
21
186.359824
0
LINE
8
Livello 2
10
126.372880
20
186.359824
11
127.023904
21
185.985718
0
LINE
8
Livello 2
10
127.023904
20
185.985718
11
127.616766
21
185.395996
0
LINE
8
Livello 2
10
127.616766
20
185.395996
11
128.136160
21
184.618304
0
LINE
8
Livello 2
10
128.136160
20
184.618304
11
128.893313
21
182.609593
0
LINE
8
Livello 2
10
128.893313
20
182.609593
11
129.172910
21
180.180750
0
LINE
8
Livello 2
10
129.172910
20
180.180750
11
128.893313
21
177.751849
0
LINE
8
Livello 2
10
128.893313
20
177.751849
11
128.136160
21
175.743206
0
LINE
8
Livello 2
10
128.136160
20
175.743206
11
127.616766
21
174.965568
0
LINE
8
Livello 2
10
127.616766
20
174.965568
11
127.023904
21
174.375898
0
LINE
8
Livello 2
10
127.023904
20
174.375898
11
126.372880
21
174.001830
0
LINE
8
Livello 2
10
126.372880
20
174.001830
11
125.679000
21
173.871000
0
LINE
8
Livello 2
10
125.679000
20
173.871000
11
125.679000
21
173.871000
0
LINE
8
Livello 2
10
125.679000
20
188.623000
11
124.531454
21
188.454438
0
LINE
8
Livello 2
10
124.531454
20
188.454438
11
123.468944
21
187.969700
0
LINE
8
Livello 2
10
123.468944
20
187.969700
11
122.512420
21
187.200202
0
LINE
8
Livello 2
10
122.512420
20
187.200202
11
121.682830
21
186.177364
0
LINE
8
Livello 2
10
121.682830
20
186.177364
11
121.001125
21
184.932604
0
LINE
8
Livello 2
10
121.001125
20
184.932604
11
120.488256
21
183.497341
0
LINE
8
Livello 2
10
120.488256
20
183.497341
11
120.165171
21
181.902994
0
LINE
8
Livello 2
10
120.165171
20
181.902994
11
120.052820
21
180.180980
0
LINE
8
Livello 2
10
120.052820
20
180.180980
11
120.165171
21
178.458966
0
LINE
8
Livello 2
10
120.165171
20
178.458966
11
120.488257
21
176.864619
0
LINE
8
Livello 2
10
120.488257
20
176.864619
11
121.001128
21
175.429356
0
LINE
8
Livello 2
10
121.001128
20
175.429356
11
121.682834
21
174.184596
0
LINE
8
Livello 2
10
121.682834
20
174.184596
11
122.512424
21
173.161758
0
LINE
8
Livello 2
10
122.512424
20
173.161758
11
123.468949
21
172.392260
0
LINE
8
Livello 2
10
123.468949
20
172.392260
11
124.531457
21
171.907522
0
LINE
8
Livello 2
10
124.531457
20
171.907522
11
125.679000
21
171.738960
0
LINE
8
Livello 2
10
125.679000
20
171.738960
11
126.826730
21
171.907522
0
LINE
8
Livello 2
10
126.826730
20
171.907522
11
127.889376
21
172.392260
0
LINE
8
Livello 2
10
127.889376
20
172.392260
11
128.845997
21
173.161758
0
LINE
8
Livello 2
10
128.845997
20
173.161758
11
129.675650
21
174.184596
0
LINE
8
Livello 2
10
129.675650
20
174.184596
11
130.357391
21
175.429356
0
LINE
8
Livello 2
10
130.357391
20
175.429356
11
130.870279
21
176.864619
0
LINE
8
Livello 2
10
130.870279
20
176.864619
11
131.193369
21
178.458966
0
LINE
8
Livello 2
10
131.193369
20
178.458966
11
131.305720
21
180.180980
0
LINE
8
Livello 2
10
131.305720
20
180.180980
11
131.193369
21
181.902994
0
LINE
8
Livello 2
10
131.193369
20
181.902994
11
130.870279
21
183.497341
0
LINE
8
Livello 2
10
130.870279
20
183.497341
11
130.357391
21
184.932604
0
LINE
8
Livello 2
10
130.357391
20
184.932604
11
129.675650
21
186.177364
0
LINE
8
Livello 2
10
129.675650
20
186.177364
11
128.845997
21
187.200202
0
LINE
8
Livello 2
10
128.845997
20
187.200202
11
127.889376
21
187.969700
0
LINE
8
Livello 2
10
127.889376
20
187.969700
11
126.826730
21
188.454438
0
LINE
8
Livello 2
10
126.826730
20
188.454438
11
125.679000
21
188.623000
0
LINE
8
Livello 2
10
125.679000
20
188.623000
11
125.679000
21
188.623000
0
LINE
8
Livello 2
10
125.679000
20
173.871000
11
124.985056
21
174.001830
0
LINE
8
Livello 2
10
124.985056
20
174.001830
11
124.333966
21
174.375898
0
LINE
8
Livello 2
10
124.333966
20
174.375898
11
123.741042
21
174.965568
0
LINE
8
Livello 2
10
123.741042
20
174.965568
11
123.221591
21
175.743206
0
LINE
8
Livello 2
10
123.221591
20
175.743206
11
122.464350
21
177.751849
0
LINE
8
Livello 2
10
122.464350
20
177.751849
11
122.184720
21
180.180750
0
LINE
8
Livello 2
10
122.184720
20
180.180750
11
122.464350
21
182.609566
0
LINE
8
Livello 2
10
122.464350
20
182.609566
11
123.221591
21
184.618219
0
LINE
8
Livello 2
10
123.221591
20
184.618219
11
123.741042
21
185.395879
0
LINE
8
Livello 2
10
123.741042
20
185.395879
11
124.333966
21
185.985574
0
LINE
8
Livello 2
10
124.333966
20
185.985574
11
124.985056
21
186.359662
0
LINE
8
Livello 2
10
124.985056
20
186.359662
11
125.679000
21
186.490500
0
LINE
8
Livello 2
10
125.679000
20
186.490500
11
126.372961
21
186.359662
0
LINE
8
Livello 2
10
126.372961
20
186.359662
11
127.024076
21
185.985574
0
LINE
8
Livello 2
10
127.024076
20
185.985574
11
127.617032
21
185.395879
0
LINE
8
Livello 2
10
127.617032
20
185.395879
11
128.136515
21
184.618219
0
LINE
8
Livello 2
10
128.136515
20
184.618219
11
128.893814
21
182.609566
0
LINE
8
Livello 2
10
128.893814
20
182.609566
11
129.173470
21
180.180750
0
LINE
8
Livello 2
10
129.173470
20
180.180750
11
128.893813
21
177.751849
0
LINE
8
Livello 2
10
128.893813
20
177.751849
11
128.136511
21
175.743206
0
LINE
8
Livello 2
10
128.136511
20
175.743206
11
127.617027
21
174.965568
0
LINE
8
Livello 2
10
127.617027
20
174.965568
11
127.024072
21
174.375898
0
LINE
8
Livello 2
10
127.024072
20
174.375898
11
126.372958
21
174.001830
0
LINE
8
Livello 2
10
126.372958
20
174.001830
11
125.679000
21
173.871000
0
LINE
8
Livello 2
10
125.679000
20
173.871000
11
125.679000
21
173.871000
0
LINE
8
Livello 2
10
125.679000
20
188.623000
11
125.679000
21
188.623000
0
LINE
8
Livello 2
10
122.524120
20
188.623000
11
122.524120
21
188.623000
0
LINE
8
Livello 2
10
185.634000
20
181.247000
11
180.055180
21
181.247000
0
LINE
8
Livello 2
10
180.055180
20
181.247000
11
180.055180
21
186.825960
0
LINE
8
Livello 2
10
180.055180
20
186.825960
11
179.971372
21
187.240958
0
LINE
8
Livello 2
10
179.971372
20
187.240958
11
179.742835
21
187.579846
0
LINE
8
Livello 2
10
179.742835
20
187.579846
11
179.403897
21
187.808328
0
LINE
8
Livello 2
10
179.403897
20
187.808328
11
178.988890
21
187.892110
0
LINE
8
Livello 2
10
178.988890
20
187.892110
11
178.573866
21
187.808328
0
LINE
8
Livello 2
10
178.573866
20
187.808328
11
178.234919
21
187.579846
0
LINE
8
Livello 2
10
178.234919
20
187.579846
11
178.006379
21
187.240958
0
LINE
8
Livello 2
10
178.006379
20
187.240958
11
177.922570
21
186.825960
0
LINE
8
Livello 2
10
177.922570
20
186.825960
11
177.922570
21
181.247000
0
LINE
8
Livello 2
10
177.922570
20
181.247000
11
172.343770
21
181.247000
0
LINE
8
Livello 2
10
172.343770
20
181.247000
11
171.928757
21
181.163218
0
LINE
8
Livello 2
10
171.928757
20
181.163218
11
171.589810
21
180.934736
0
LINE
8
Livello 2
10
171.589810
20
180.934736
11
171.361262
21
180.595848
0
LINE
8
Livello 2
10
171.361262
20
180.595848
11
171.277450
21
180.180850
0
LINE
8
Livello 2
10
171.277450
20
180.180850
11
171.361262
21
179.765797
0
LINE
8
Livello 2
10
171.361262
20
179.765797
11
171.589810
21
179.426927
0
LINE
8
Livello 2
10
171.589810
20
179.426927
11
171.928757
21
179.198487
0
LINE
8
Livello 2
10
171.928757
20
179.198487
11
172.343770
21
179.114730
0
LINE
8
Livello 2
10
172.343770
20
179.114730
11
177.922570
21
179.114730
0
LINE
8
Livello 2
10
177.922570
20
179.114730
11
177.922570
21
173.535570
0
LINE
8
Livello 2
10
177.922570
20
173.535570
11
178.006378
21
173.120558
0
LINE
8
Livello 2
10
178.006378
20
173.120558
11
178.234919
21
172.781610
0
LINE
8
Livello 2
10
178.234919
20
172.781610
11
178.573865
21
172.553063
0
LINE
8
Livello 2
10
178.573865
20
172.553063
11
178.988890
21
172.469250
0
LINE
8
Livello 2
10
178.988890
20
172.469250
11
179.403898
21
172.553063
0
LINE
8
Livello 2
10
179.403898
20
172.553063
11
179.742835
21
172.781610
0
LINE
8
Livello 2
10
179.742835
20
172.781610
11
179.971372
21
173.120558
0
LINE
8
Livello 2
10
179.971372
20
173.120558
11
180.055180
21
173.535570
0
LINE
8
Livello 2
10
180.055180
20
173.535570
11
180.055180
21
179.114730
0
LINE
8
Livello 2
10
180.055180
20
179.114730
11
185.634000
21
179.114730
0
LINE
8
Livello 2
10
185.634000
20
179.114730
11
186.049013
21
179.198488
0
LINE
8
Livello 2
10
186.049013
20
179.198488
11
186.387960
21
179.426927
0
LINE
8
Livello 2
10
186.387960
20
179.426927
11
186.616507
21
179.765798
0
LINE
8
Livello 2
10
186.616507
20
179.765798
11
186.700320
21
180.180850
0
LINE
8
Livello 2
10
186.700320
20
180.180850
11
186.616507
21
180.595848
0
LINE
8
Livello 2
10
186.616507
20
180.595848
11
186.387960
21
180.934736
0
LINE
8
Livello 2
10
186.387960
20
180.934736
11
186.049013
21
181.163218
0
LINE
8
Livello 2
10
186.049013
20
181.163218
11
185.634000
21
181.247000
0
LINE
8
Livello 2
10
185.634000
20
181.247000
11
185.634000
21
181.247000
0
LINE
8
Livello 2
10
185.635000
20
181.247000
11
180.056200
21
181.247000
0
LINE
8
Livello 2
10
180.056200
20
181.247000
11
180.056200
21
186.825800
0
LINE
8
Livello 2
10
180.056200
20
186.825800
11
179.972330
21
187.240560
0
LINE
8
Livello 2
10
179.972330
20
187.240560
11
179.743656
21
187.579474
0
LINE
8
Livello 2
10
179.743656
20
187.579474
11
179.404582
21
187.808089
0
LINE
8
Livello 2
10
179.404582
20
187.808089
11
178.989510
21
187.891950
0
LINE
8
Livello 2
10
178.989510
20
187.891950
11
178.574486
21
187.808089
0
LINE
8
Livello 2
10
178.574486
20
187.808089
11
178.235540
21
187.579474
0
LINE
8
Livello 2
10
178.235540
20
187.579474
11
178.006999
21
187.240559
0
LINE
8
Livello 2
10
178.006999
20
187.240559
11
177.923190
21
186.825800
0
LINE
8
Livello 2
10
177.923190
20
186.825800
11
177.923190
21
181.247000
0
LINE
8
Livello 2
10
177.923190
20
181.247000
11
172.344390
21
181.247000
0
LINE
8
Livello 2
10
172.344390
20
181.247000
11
171.929377
21
181.163143
0
LINE
8
Livello 2
10
171.929377
20
181.163143
11
171.590430
21
180.934538
0
LINE
8
Livello 2
10
171.590430
20
180.934538
11
171.361883
21
180.595634
0
LINE
8
Livello 2
10
171.361883
20
180.595634
11
171.278070
21
180.180880
0
LINE
8
Livello 2
10
171.278070
20
180.180880
11
171.361883
21
179.765630
0
LINE
8
Livello 2
10
171.361883
20
179.765630
11
171.590430
21
179.426709
0
LINE
8
Livello 2
10
171.590430
20
179.426709
11
171.929377
21
179.198293
0
LINE
8
Livello 2
10
171.929377
20
179.198293
11
172.344390
21
179.114560
0
LINE
8
Livello 2
10
172.344390
20
179.114560
11
177.923190
21
179.114560
0
LINE
8
Livello 2
10
177.923190
20
179.114560
11
177.923190
21
173.535760
0
LINE
8
Livello 2
10
177.923190
20
173.535760
11
178.006998
21
173.120479
0
LINE
8
Livello 2
10
178.006998
20
173.120479
11
178.235539
21
172.781297
0
LINE
8
Livello 2
10
178.235539
20
172.781297
11
178.574485
21
172.552585
0
LINE
8
Livello 2
10
178.574485
20
172.552585
11
178.989510
21
172.468710
0
LINE
8
Livello 2
10
178.989510
20
172.468710
11
179.404580
21
172.552586
0
LINE
8
Livello 2
10
179.404580
20
172.552586
11
179.743655
21
172.781299
0
LINE
8
Livello 2
10
179.743655
20
172.781299
11
179.972330
21
173.120480
0
LINE
8
Livello 2
10
179.972330
20
173.120480
11
180.056200
21
173.535760
0
LINE
8
Livello 2
10
180.056200
20
173.535760
11
180.056200
21
179.114560
0
LINE
8
Livello 2
10
180.056200
20
179.114560
11
185.635000
21
179.114560
0
LINE
8
Livello 2
10
185.635000
20
179.114560
11
186.050012
21
179.198293
0
LINE
8
Livello 2
10
186.050012
20
179.198293
11
186.388960
21
179.426708
0
LINE
8
Livello 2
10
186.388960
20
179.426708
11
186.617507
21
179.765629
0
LINE
8
Livello 2
10
186.617507
20
179.765629
11
186.701320
21
180.180880
0
LINE
8
Livello 2
10
186.701320
20
180.180880
11
186.617507
21
180.595635
0
LINE
8
Livello 2
10
186.617507
20
180.595635
11
186.388960
21
180.934539
0
LINE
8
Livello 2
10
186.388960
20
180.934539
11
186.050012
21
181.163143
0
LINE
8
Livello 2
10
186.050012
20
181.163143
11
185.635000
21
181.247000
0
LINE
8
Livello 2
10
185.635000
20
181.247000
11
185.635000
21
181.247000
0
LINE
8
Livello 2
10
185.635000
20
181.247000
11
185.635000
21
181.247000
0
LINE
8
Livello 2
10
79.013100
20
181.247000
11
65.722900
21
181.247000
0
LINE
8
Livello 2
10
65.722900
20
181.247000
11
65.307933
21
181.163218
0
LINE
8
Livello 2
10
65.307933
20
181.163218
11
64.969114
21
180.934736
0
LINE
8
Livello 2
10
64.969114
20
180.934736
11
64.740701
21
180.595848
0
LINE
8
Livello 2
10
64.740701
20
180.595848
11
64.656950
21
180.180850
0
LINE
8
Livello 2
10
64.656950
20
180.180850
11
64.740701
21
179.765797
0
LINE
8
Livello 2
10
64.740701
20
179.765797
11
64.969116
21
179.426927
0
LINE
8
Livello 2
10
64.969116
20
179.426927
11
65.307935
21
179.198487
0
LINE
8
Livello 2
10
65.307935
20
179.198487
11
65.722900
21
179.114730
0
LINE
8
Livello 2
10
65.722900
20
179.114730
11
79.013100
21
179.114730
0
LINE
8
Livello 2
10
79.013100
20
179.114730
11
79.428124
21
179.198488
0
LINE
8
Livello 2
10
79.428124
20
179.198488
11
79.767071
21
179.426927
0
LINE
8
Livello 2
10
79.767071
20
179.426927
11
79.995611
21
179.765798
0
LINE
8
Livello 2
10
79.995611
20
179.765798
11
80.079420
21
180.180850
0
LINE
8
Livello 2
10
80.079420
20
180.180850
11
79.995612
21
180.595848
0
LINE
8
Livello 2
10
79.995612
20
180.595848
11
79.767071
21
180.934736
0
LINE
8
Livello 2
10
79.767071
20
180.934736
11
79.428125
21
181.163218
0
LINE
8
Livello 2
10
79.428125
20
181.163218
11
79.013100
21
181.247000
0
LINE
8
Livello 2
10
79.013100
20
181.247000
11
79.013100
21
181.247000
0
LINE
8
Livello 2
10
79.013100
20
181.247000
11
65.723100
21
181.247000
0
LINE
8
Livello 2
10
65.723100
20
181.247000
11
65.308119
21
181.163143
0
LINE
8
Livello 2
10
65.308119
20
181.163143
11
64.969240
21
180.934538
0
LINE
8
Livello 2
10
64.969240
20
180.934538
11
64.740761
21
180.595634
0
LINE
8
Livello 2
10
64.740761
20
180.595634
11
64.656980
21
180.180880
0
LINE
8
Livello 2
10
64.656980
20
180.180880
11
64.740762
21
179.765630
0
LINE
8
Livello 2
10
64.740762
20
179.765630
11
64.969241
21
179.426709
0
LINE
8
Livello 2
10
64.969241
20
179.426709
11
65.308120
21
179.198293
0
LINE
8
Livello 2
10
65.308120
20
179.198293
11
65.723100
21
179.114560
0
LINE
8
Livello 2
10
65.723100
20
179.114560
11
79.013100
21
179.114560
0
LINE
8
Livello 2
10
79.013100
20
179.114560
11
79.428098
21
179.198293
0
LINE
8
Livello 2
10
79.428098
20
179.198293
11
79.766985
21
179.426708
0
LINE
8
Livello 2
10
79.766985
20
179.426708
11
79.995468
21
179.765629
0
LINE
8
Livello 2
10
79.995468
20
179.765629
11
80.079250
21
180.180880
0
LINE
8
Livello 2
10
80.079250
20
180.180880
11
79.995468
21
180.595635
0
LINE
8
Livello 2
10
79.995468
20
180.595635
11
79.766985
21
180.934539
0
LINE
8
Livello 2
10
79.766985
20
180.934539
11
79.428098
21
181.163143
0
LINE
8
Livello 2
10
79.428098
20
181.163143
11
79.013100
21
181.247000
0
LINE
8
Livello 2
10
79.013100
20
181.247000
11
79.013100
21
181.247000
0
LINE
8
Livello 2
10
79.013100
20
181.247000
11
79.013100
21
181.247000
0
LINE
8
Livello 2
10
99.023700
20
192.406000
11
98.608688
21
192.322218
0
LINE
8
Livello 2
10
98.608688
20
192.322218
11
98.269740
21
192.093736
0
LINE
8
Livello 2
10
98.269740
20
192.093736
11
98.041192
21
191.754848
0
LINE
8
Livello 2
10
98.041192
20
191.754848
11
97.957380
21
191.339850
0
LINE
8
Livello 2
10
97.957380
20
191.339850
11
97.957380
21
167.883650
0
LINE
8
Livello 2
10
97.957380
20
167.883650
11
98.041192
21
167.468637
0
LINE
8
Livello 2
10
98.041192
20
167.468637
11
98.269740
21
167.129690
0
LINE
8
Livello 2
10
98.269740
20
167.129690
11
98.608688
21
166.901143
0
LINE
8
Livello 2
10
98.608688
20
166.901143
11
99.023700
21
166.817330
0
LINE
8
Livello 2
10
99.023700
20
166.817330
11
99.438655
21
166.901143
0
LINE
8
Livello 2
10
99.438655
20
166.901143
11
99.777475
21
167.129690
0
LINE
8
Livello 2
10
99.777475
20
167.129690
11
100.005895
21
167.468637
0
LINE
8
Livello 2
10
100.005895
20
167.468637
11
100.089650
21
167.883650
0
LINE
8
Livello 2
10
100.089650
20
167.883650
11
100.089650
21
191.339850
0
LINE
8
Livello 2
10
100.089650
20
191.339850
11
100.005895
21
191.754848
0
LINE
8
Livello 2
10
100.005895
20
191.754848
11
99.777474
21
192.093736
0
LINE
8
Livello 2
10
99.777474
20
192.093736
11
99.438653
21
192.322218
0
LINE
8
Livello 2
10
99.438653
20
192.322218
11
99.023700
21
192.406000
0
LINE
8
Livello 2
10
99.023700
20
192.406000
11
99.023700
21
192.406000
0
LINE
8
Livello 2
10
99.023500
20
192.406000
11
98.608502
21
192.322140
0
LINE
8
Livello 2
10
98.608502
20
192.322140
11
98.269615
21
192.093513
0
LINE
8
Livello 2
10
98.269615
20
192.093513
11
98.041132
21
191.754550
0
LINE
8
Livello 2
10
98.041132
20
191.754550
11
97.957350
21
191.339680
0
LINE
8
Livello 2
10
97.957350
20
191.339680
11
97.957350
21
167.883480
0
LINE
8
Livello 2
10
97.957350
20
167.883480
11
98.041132
21
167.468622
0
LINE
8
Livello 2
10
98.041132
20
167.468622
11
98.269615
21
167.129658
0
LINE
8
Livello 2
10
98.269615
20
167.129658
11
98.608502
21
166.901024
0
LINE
8
Livello 2
10
98.608502
20
166.901024
11
99.023500
21
166.817160
0
LINE
8
Livello 2
10
99.023500
20
166.817160
11
99.438481
21
166.901024
0
LINE
8
Livello 2
10
99.438481
20
166.901024
11
99.777360
21
167.129658
0
LINE
8
Livello 2
10
99.777360
20
167.129658
11
100.005839
21
167.468622
0
LINE
8
Livello 2
10
100.005839
20
167.468622
11
100.089620
21
167.883480
0
LINE
8
Livello 2
10
100.089620
20
167.883480
11
100.089620
21
191.339680
0
LINE
8
Livello 2
10
100.089620
20
191.339680
11
100.005838
21
191.754549
0
LINE
8
Livello 2
10
100.005838
20
191.754549
11
99.777359
21
192.093513
0
LINE
8
Livello 2
10
99.777359
20
192.093513
11
99.438480
21
192.322140
0
LINE
8
Livello 2
10
99.438480
20
192.322140
11
99.023500
21
192.406000
0
LINE
8
Livello 2
10
99.023500
20
192.406000
11
99.023500
21
192.406000
0
LINE
8
Livello 2
10
99.023500
20
192.406000
11
99.023500
21
192.406000
0
LINE
8
Livello 2
10
152.334000
20
192.406000
11
151.918988
21
192.322218
0
LINE
8
Livello 2
10
151.918988
20
192.322218
11
151.580040
21
192.093736
0
LINE
8
Livello 2
10
151.580040
20
192.093736
11
151.351493
21
191.754848
0
LINE
8
Livello 2
10
151.351493
20
191.754848
11
151.267680
21
191.339850
0
LINE
8
Livello 2
10
151.267680
20
191.339850
11
151.267680
21
167.883650
0
LINE
8
Livello 2
10
151.267680
20
167.883650
11
151.351493
21
167.468637
0
LINE
8
Livello 2
10
151.351493
20
167.468637
11
151.580040
21
167.129690
0
LINE
8
Livello 2
10
151.580040
20
167.129690
11
151.918988
21
166.901143
0
LINE
8
Livello 2
10
151.918988
20
166.901143
11
152.334000
21
166.817330
0
LINE
8
Livello 2
10
152.334000
20
166.817330
11
152.749012
21
166.901143
0
LINE
8
Livello 2
10
152.749012
20
166.901143
11
153.087960
21
167.129690
0
LINE
8
Livello 2
10
153.087960
20
167.129690
11
153.316508
21
167.468637
0
LINE
8
Livello 2
10
153.316508
20
167.468637
11
153.400320
21
167.883650
0
LINE
8
Livello 2
10
153.400320
20
167.883650
11
153.400320
21
191.339850
0
LINE
8
Livello 2
10
153.400320
20
191.339850
11
153.316508
21
191.754848
0
LINE
8
Livello 2
10
153.316508
20
191.754848
11
153.087960
21
192.093736
0
LINE
8
Livello 2
10
153.087960
20
192.093736
11
152.749012
21
192.322218
0
LINE
8
Livello 2
10
152.749012
20
192.322218
11
152.334000
21
192.406000
0
LINE
8
Livello 2
10
152.334000
20
192.406000
11
152.334000
21
192.406000
0
LINE
8
Livello 2
10
152.334000
20
192.406000
11
151.918988
21
192.322140
0
LINE
8
Livello 2
10
151.918988
20
192.322140
11
151.580040
21
192.093513
0
LINE
8
Livello 2
10
151.580040
20
192.093513
11
151.351493
21
191.754550
0
LINE
8
Livello 2
10
151.351493
20
191.754550
11
151.267680
21
191.339680
0
LINE
8
Livello 2
10
151.267680
20
191.339680
11
151.267680
21
167.883480
0
LINE
8
Livello 2
10
151.267680
20
167.883480
11
151.351493
21
167.468622
0
LINE
8
Livello 2
10
151.351493
20
167.468622
11
151.580040
21
167.129658
0
LINE
8
Livello 2
10
151.580040
20
167.129658
11
151.918988
21
166.901024
0
LINE
8
Livello 2
10
151.918988
20
166.901024
11
152.334000
21
166.817160
0
LINE
8
Livello 2
10
152.334000
20
166.817160
11
152.749070
21
166.901024
0
LINE
8
Livello 2
10
152.749070
20
166.901024
11
153.088145
21
167.129658
0
LINE
8
Livello 2
10
153.088145
20
167.129658
11
153.316820
21
167.468622
0
LINE
8
Livello 2
10
153.316820
20
167.468622
11
153.400690
21
167.883480
0
LINE
8
Livello 2
10
153.400690
20
167.883480
11
153.400690
21
191.339680
0
LINE
8
Livello 2
10
153.400690
20
191.339680
11
153.316820
21
191.754549
0
LINE
8
Livello 2
10
153.316820
20
191.754549
11
153.088146
21
192.093513
0
LINE
8
Livello 2
10
153.088146
20
192.093513
11
152.749072
21
192.322140
0
LINE
8
Livello 2
10
152.749072
20
192.322140
11
152.334000
21
192.406000
0
LINE
8
Livello 2
10
152.334000
20
192.406000
11
152.334000
21
192.406000
0
LINE
8
Livello 2
10
152.334000
20
192.406000
11
152.334000
21
192.406000
 0 
ENDSEC
 0 
EOF