  0
SECTION
  2
HEADER
  9
$ACADVER
  1
AC1018
  9
$ACADMAINTVER
 70
     0
  9
$DWGCODEPAGE
  3
ANSI_1252
  9
$INSBASE
 10
0.0
 20
0.0
 30
0.0
  9
$EXTMIN
 10
1.000000000000000E+20
 20
1.000000000000000E+20
 30
1.000000000000000E+20
  9
$EXTMAX
 10
-1.000000000000000E+20
 20
-1.000000000000000E+20
 30
-1.000000000000000E+20
  9
$LIMMIN
 10
0.0
 20
0.0
  9
$LIMMAX
 10
12.0
 20
9.0
  9
$ORTHOMODE
 70
     0
  9
$REGENMODE
 70
     1
  9
$FILLMODE
 70
     1
  9
$QTEXTMODE
 70
     0
  9
$MIRRTEXT
 70
     1
  9
$LTSCALE
 40
1.0
  9
$ATTMODE
 70
     1
  9
$TEXTSIZE
 40
0.2
  9
$TRACEWID
 40
0.05
  9
$TEXTSTYLE
  7
Standard
  9
$CLAYER
  8
0
  9
$CELTYPE
  6
ByLayer
  9
$CECOLOR
 62
   256
  9
$CELTSCALE
 40
1.0
  9
$DISPSILH
 70
     0
  9
$DIMSCALE
 40
1.0
  9
$DIMASZ
 40
0.18
  9
$DIMEXO
 40
0.0625
  9
$DIMDLI
 40
0.38
  9
$DIMRND
 40
0.0
  9
$DIMDLE
 40
0.0
  9
$DIMEXE
 40
0.18
  9
$DIMTP
 40
0.0
  9
$DIMTM
 40
0.0
  9
$DIMTXT
 40
0.18
  9
$DIMCEN
 40
0.09
  9
$DIMTSZ
 40
0.0
  9
$DIMTOL
 70
     0
  9
$DIMLIM
 70
     0
  9
$DIMTIH
 70
     1
  9
$DIMTOH
 70
     1
  9
$DIMSE1
 70
     0
  9
$DIMSE2
 70
     0
  9
$DIMTAD
 70
     0
  9
$DIMZIN
 70
     0
  9
$DIMBLK
  1

  9
$DIMASO
 70
     1
  9
$DIMSHO
 70
     1
  9
$DIMPOST
  1

  9
$DIMAPOST
  1

  9
$DIMALT
 70
     0
  9
$DIMALTD
 70
     2
  9
$DIMALTF
 40
25.4
  9
$DIMLFAC
 40
1.0
  9
$DIMTOFL
 70
     0
  9
$DIMTVP
 40
0.0
  9
$DIMTIX
 70
     0
  9
$DIMSOXD
 70
     0
  9
$DIMSAH
 70
     0
  9
$DIMBLK1
  1

  9
$DIMBLK2
  1

  9
$DIMSTYLE
  2
Standard
  9
$DIMCLRD
 70
     0
  9
$DIMCLRE
 70
     0
  9
$DIMCLRT
 70
     0
  9
$DIMTFAC
 40
1.0
  9
$DIMGAP
 40
0.09
  9
$DIMJUST
 70
     0
  9
$DIMSD1
 70
     0
  9
$DIMSD2
 70
     0
  9
$DIMTOLJ
 70
     1
  9
$DIMTZIN
 70
     0
  9
$DIMALTZ
 70
     0
  9
$DIMALTTZ
 70
     0
  9
$DIMUPT
 70
     0
  9
$DIMDEC
 70
     4
  9
$DIMTDEC
 70
     4
  9
$DIMALTU
 70
     2
  9
$DIMALTTD
 70
     2
  9
$DIMTXSTY
  7
Standard
  9
$DIMAUNIT
 70
     0
  9
$DIMADEC
 70
     0
  9
$DIMALTRND
 40
0.0
  9
$DIMAZIN
 70
     0
  9
$DIMDSEP
 70
    46
  9
$DIMATFIT
 70
     3
  9
$DIMFRAC
 70
     0
  9
$DIMLDRBLK
  1

  9
$DIMLUNIT
 70
     2
  9
$DIMLWD
 70
    -2
  9
$DIMLWE
 70
    -2
  9
$DIMTMOVE
 70
     0
  9
$LUNITS
 70
     2
  9
$LUPREC
 70
     4
  9
$SKETCHINC
 40
0.1
  9
$FILLETRAD
 40
0.5
  9
$AUNITS
 70
     0
  9
$AUPREC
 70
     0
  9
$MENU
  1
.
  9
$ELEVATION
 40
0.0
  9
$PELEVATION
 40
0.0
  9
$THICKNESS
 40
0.0
  9
$LIMCHECK
 70
     0
  9
$CHAMFERA
 40
0.5
  9
$CHAMFERB
 40
0.5
  9
$CHAMFERC
 40
1.0
  9
$CHAMFERD
 40
0.0
  9
$SKPOLY
 70
     0
  9
$TDCREATE
 40
2459297.788637859
  9
$TDUCREATE
 40
2459297.746971192
  9
$TDUPDATE
 40
2459297.78863787
  9
$TDUUPDATE
 40
2459297.746971203
  9
$TDINDWG
 40
0.0000000116
  9
$TDUSRTIMER
 40
0.0000000116
  9
$USRTIMER
 70
     1
  9
$ANGBASE
 50
0.0
  9
$ANGDIR
 70
     0
  9
$PDMODE
 70
     0
  9
$PDSIZE
 40
0.0
  9
$PLINEWID
 40
0.0
  9
$SPLFRAME
 70
     0
  9
$SPLINETYPE
 70
     6
  9
$SPLINESEGS
 70
     8
  9
$HANDSEED
  5
4C
  9
$SURFTAB1
 70
     6
  9
$SURFTAB2
 70
     6
  9
$SURFTYPE
 70
     6
  9
$SURFU
 70
     6
  9
$SURFV
 70
     6
  9
$UCSBASE
  2

  9
$UCSNAME
  2

  9
$UCSORG
 10
0.0
 20
0.0
 30
0.0
  9
$UCSXDIR
 10
1.0
 20
0.0
 30
0.0
  9
$UCSYDIR
 10
0.0
 20
1.0
 30
0.0
  9
$UCSORTHOREF
  2

  9
$UCSORTHOVIEW
 70
     0
  9
$UCSORGTOP
 10
0.0
 20
0.0
 30
0.0
  9
$UCSORGBOTTOM
 10
0.0
 20
0.0
 30
0.0
  9
$UCSORGLEFT
 10
0.0
 20
0.0
 30
0.0
  9
$UCSORGRIGHT
 10
0.0
 20
0.0
 30
0.0
  9
$UCSORGFRONT
 10
0.0
 20
0.0
 30
0.0
  9
$UCSORGBACK
 10
0.0
 20
0.0
 30
0.0
  9
$PUCSBASE
  2

  9
$PUCSNAME
  2

  9
$PUCSORG
 10
0.0
 20
0.0
 30
0.0
  9
$PUCSXDIR
 10
1.0
 20
0.0
 30
0.0
  9
$PUCSYDIR
 10
0.0
 20
1.0
 30
0.0
  9
$PUCSORTHOREF
  2

  9
$PUCSORTHOVIEW
 70
     0
  9
$PUCSORGTOP
 10
0.0
 20
0.0
 30
0.0
  9
$PUCSORGBOTTOM
 10
0.0
 20
0.0
 30
0.0
  9
$PUCSORGLEFT
 10
0.0
 20
0.0
 30
0.0
  9
$PUCSORGRIGHT
 10
0.0
 20
0.0
 30
0.0
  9
$PUCSORGFRONT
 10
0.0
 20
0.0
 30
0.0
  9
$PUCSORGBACK
 10
0.0
 20
0.0
 30
0.0
  9
$USERI1
 70
     0
  9
$USERI2
 70
     0
  9
$USERI3
 70
     0
  9
$USERI4
 70
     0
  9
$USERI5
 70
     0
  9
$USERR1
 40
0.0
  9
$USERR2
 40
0.0
  9
$USERR3
 40
0.0
  9
$USERR4
 40
0.0
  9
$USERR5
 40
0.0
  9
$WORLDVIEW
 70
     1
  9
$SHADEDGE
 70
     3
  9
$SHADEDIF
 70
    70
  9
$TILEMODE
 70
     1
  9
$MAXACTVP
 70
    64
  9
$PINSBASE
 10
0.0
 20
0.0
 30
0.0
  9
$PLIMCHECK
 70
     0
  9
$PEXTMIN
 10
1.000000000000000E+20
 20
1.000000000000000E+20
 30
1.000000000000000E+20
  9
$PEXTMAX
 10
-1.000000000000000E+20
 20
-1.000000000000000E+20
 30
-1.000000000000000E+20
  9
$PLIMMIN
 10
0.0
 20
0.0
  9
$PLIMMAX
 10
12.0
 20
9.0
  9
$UNITMODE
 70
     0
  9
$VISRETAIN
 70
     1
  9
$PLINEGEN
 70
     0
  9
$PSLTSCALE
 70
     1
  9
$TREEDEPTH
 70
  3020
  9
$CMLSTYLE
  2
Standard
  9
$CMLJUST
 70
     0
  9
$CMLSCALE
 40
1.0
  9
$PROXYGRAPHICS
 70
     1
  9
$MEASUREMENT
 70
     0
  9
$CELWEIGHT
370
    -1
  9
$ENDCAPS
280
     0
  9
$JOINSTYLE
280
     0
  9
$LWDISPLAY
290
     1
  9
$INSUNITS
 70
     1
  9
$HYPERLINKBASE
  1

  9
$STYLESHEET
  1

  9
$XEDIT
290
     1
  9
$CEPSNTYPE
380
     0
  9
$PSTYLEMODE
290
     1
  9
$FINGERPRINTGUID
  2
{E9CDE7FD-23B8-4146-A598-4640D0E09116}
  9
$VERSIONGUID
  2
{FAEB1C32-E019-11D5-929B-00C0DF256EC4}
  9
$EXTNAMES
290
     1
  9
$PSVPSCALE
 40
0.0
  9
$OLESTARTUP
290
     0
  9
$SORTENTS
280
   127
  9
$INDEXCTL
280
     0
  9
$HIDETEXT
280
     1
  9
$XCLIPFRAME
290
     0
  9
$HALOGAP
280
     0
  9
$OBSCOLOR
 70
   257
  9
$OBSLTYPE
280
     0
  9
$INTERSECTIONDISPLAY
280
     0
  9
$INTERSECTIONCOLOR
 70
   257
  9
$DIMASSOC
280
     2
  9
$PROJECTNAME
  1

  0
ENDSEC
  0
SECTION
  2
CLASSES
  0
CLASS
  1
ACDBDICTIONARYWDFLT
  2
AcDbDictionaryWithDefault
  3
ObjectDBX Classes
 90
        0
 91
        3
280
     0
281
     0
  0
CLASS
  1
VISUALSTYLE
  2
AcDbVisualStyle
  3
ObjectDBX Classes
 90
     4095
 91
        3
280
     0
281
     0
  0
ENDSEC
  0
SECTION
  2
TABLES
  0
TABLE
  2
VPORT
  5
8
330
0
100
AcDbSymbolTable
 70
     1
  0
VPORT
  5
29
330
8
100
AcDbSymbolTableRecord
100
AcDbViewportTableRecord
  2
*Active
 70
     0
 10
0.0
 20
0.0
 11
1.0
 21
1.0
 12
0.0
 22
0.0
 13
0.0
 23
0.0
 14
0.5
 24
0.5
 15
0.5
 25
0.5
 16
0.0
 26
0.0
 36
1.0
 17
75.00058998776028
 27
-15.00011799755205
 37
0.0
 40
30.00023599510411
 41
5.0
 42
50.0
 43
0.0
 44
0.0
 50
0.0
 51
0.0
 71
     0
 72
   100
 73
     1
 74
     3
 75
     0
 76
     0
 77
     0
 78
     0
281
     0
 65
     1
110
0.0
120
0.0
130
0.0
111
1.0
121
0.0
131
0.0
112
0.0
122
1.0
132
0.0
 79
     0
146
0.0
  0
ENDTAB
  0
TABLE
  2
LTYPE
  5
5
330
0
100
AcDbSymbolTable
 70
     1
  0
LTYPE
  5
14
330
5
100
AcDbSymbolTableRecord
100
AcDbLinetypeTableRecord
  2
ByBlock
 70
     0
  3

 72
    65
 73
     0
 40
0.0
  0
LTYPE
  5
15
330
5
100
AcDbSymbolTableRecord
100
AcDbLinetypeTableRecord
  2
ByLayer
 70
     0
  3

 72
    65
 73
     0
 40
0.0
  0
LTYPE
  5
16
330
5
100
AcDbSymbolTableRecord
100
AcDbLinetypeTableRecord
  2
Continuous
 70
     0
  3
Solid line
 72
    65
 73
     0
 40
0.0
  0
ENDTAB
  0
TABLE
  2
LAYER
  5
2
330
0
100
AcDbSymbolTable
 70
     2
  0
LAYER
  5
10
330
2
100
AcDbSymbolTableRecord
100
AcDbLayerTableRecord
  2
0
 70
     0
 62
     7
  6
Continuous
370
    -3
390
F
  0
LAYER
  5
3B
330
2
100
AcDbSymbolTableRecord
100
AcDbLayerTableRecord
  2
Livello 1
 70
     0
 62
     7
  6
Continuous
370
    -3
390
F
  0
ENDTAB
  0
TABLE
  2
STYLE
  5
3
330
0
100
AcDbSymbolTable
 70
     1
  0
STYLE
  5
11
330
3
100
AcDbSymbolTableRecord
100
AcDbTextStyleTableRecord
  2
Standard
 70
     0
 40
0.0
 41
1.0
 50
0.0
 71
     0
 42
0.2
  3
txt
  4

  0
ENDTAB
  0
TABLE
  2
VIEW
  5
6
330
0
100
AcDbSymbolTable
 70
     0
  0
ENDTAB
  0
TABLE
  2
UCS
  5
7
330
0
100
AcDbSymbolTable
 70
     0
  0
ENDTAB
  0
TABLE
  2
APPID
  5
9
330
0
100
AcDbSymbolTable
 70
     1
  0
APPID
  5
12
330
9
100
AcDbSymbolTableRecord
100
AcDbRegAppTableRecord
  2
ACAD
 70
     0
  0
ENDTAB
  0
TABLE
  2
DIMSTYLE
  5
A
330
0
100
AcDbSymbolTable
 70
     1
100
AcDbDimStyleTable
  0
DIMSTYLE
105
27
330
A
100
AcDbSymbolTableRecord
100
AcDbDimStyleTableRecord
  2
Standard
 70
     0
340
11
  0
ENDTAB
  0
TABLE
  2
BLOCK_RECORD
  5
1
330
0
100
AcDbSymbolTable
 70
     1
  0
BLOCK_RECORD
  5
1F
330
1
100
AcDbSymbolTableRecord
100
AcDbBlockTableRecord
  2
*Model_Space
340
22
  0
BLOCK_RECORD
  5
1B
330
1
100
AcDbSymbolTableRecord
100
AcDbBlockTableRecord
  2
*Paper_Space
340
1E
  0
BLOCK_RECORD
  5
23
330
1
100
AcDbSymbolTableRecord
100
AcDbBlockTableRecord
  2
*Paper_Space0
340
26
  0
ENDTAB
  0
ENDSEC
  0
SECTION
  2
BLOCKS
  0
BLOCK
  5
20
330
1F
100
AcDbEntity
  8
0
100
AcDbBlockBegin
  2
*Model_Space
 70
     0
 71
     0
 10
0.0
 20
0.0
 30
0.0
  3
*Model_Space
  1

  0
ENDBLK
  5
21
330
1F
100
AcDbEntity
  8
0
100
AcDbBlockEnd
  0
BLOCK
  5
1C
330
1B
100
AcDbEntity
 67
     1
  8
0
100
AcDbBlockBegin
  2
*Paper_Space
 70
     0
 71
     0
 10
0.0
 20
0.0
 30
0.0
  3
*Paper_Space
  1

  0
ENDBLK
  5
1D
330
1B
100
AcDbEntity
 67
     1
  8
0
100
AcDbBlockEnd
  0
BLOCK
  5
24
330
23
100
AcDbEntity
  8
0
100
AcDbBlockBegin
  2
*Paper_Space0
 70
     0
 71
     0
 10
0.0
 20
0.0
 30
0.0
  3
*Paper_Space0
  1

  0
ENDBLK
  5
25
330
23
100
AcDbEntity
  8
0
100
AcDbBlockEnd
  0
ENDSEC
  0
SECTION
  2
ENTITIES
  0
SPLINE
  5
3C
330
1F
100
AcDbEntity
  8
Livello 1
370
     0
100
AcDbSpline
210
0.0
220
0.0
230
1.0
 70
    11
 71
     3
 72
    17
 73
    13
 74
     0
 42
0.0000000001
 43
0.0000000001
 40
0.0
 40
0.0
 40
0.0
 40
0.0
 40
1.0
 40
1.0
 40
1.0
 40
2.0
 40
2.0
 40
2.0
 40
3.0
 40
3.0
 40
3.0
 40
4.0
 40
4.0
 40
4.0
 40
4.0
 10
25.0000244078125
 20
-15.52945691886069
 30
0.0
 10
21.39989962572642
 20
-15.52945691886069
 30
0.0
 10
18.470879444167
 20
-12.60043673730128
 30
0.0
 10
18.470879444167
 20
-9.0003119552152
 30
0.0
 10
18.470879444167
 20
-5.40018717312912
 30
0.0
 10
21.39989962572642
 20
-2.471166991569708
 30
0.0
 10
25.0000244078125
 20
-2.471166991569708
 30
0.0
 10
28.60014918989857
 20
-2.471166991569708
 30
0.0
 10
31.52916937145799
 20
-5.40018717312912
 30
0.0
 10
31.52916937145799
 20
-9.0003119552152
 30
0.0
 10
31.52916937145799
 20
-12.60043673730128
 30
0.0
 10
28.60014918989857
 20
-15.52945691886069
 30
0.0
 10
25.0000244078125
 20
-15.52945691886069
 30
0.0
  0
SPLINE
  5
3D
330
1F
100
AcDbEntity
  8
Livello 1
370
     0
100
AcDbSpline
210
0.0
220
0.0
230
1.0
 70
    11
 71
     3
 72
    17
 73
    13
 74
     0
 42
0.0000000001
 43
0.0000000001
 40
0.0
 40
0.0
 40
0.0
 40
0.0
 40
1.0
 40
1.0
 40
1.0
 40
2.0
 40
2.0
 40
2.0
 40
3.0
 40
3.0
 40
3.0
 40
4.0
 40
4.0
 40
4.0
 40
4.0
 10
25.0000244078125
 20
-3.529500324638458
 30
0.0
 10
21.98332654615347
 20
-3.529500324638458
 30
0.0
 10
19.52921277723575
 20
-5.98361409355618
 30
0.0
 10
19.52921277723575
 20
-9.0003119552152
 30
0.0
 10
19.52921277723575
 20
-12.01700981687422
 30
0.0
 10
21.98332654615347
 20
-14.47112358579194
 30
0.0
 10
25.0000244078125
 20
-14.47112358579194
 30
0.0
 10
28.01672226947152
 20
-14.47112358579194
 30
0.0
 10
30.47083603838924
 20
-12.01700981687422
 30
0.0
 10
30.47083603838924
 20
-9.0003119552152
 30
0.0
 10
30.47083603838924
 20
-5.98361409355618
 30
0.0
 10
28.01672226947152
 20
-3.529500324638458
 30
0.0
 10
25.0000244078125
 20
-3.529500324638458
 30
0.0
  0
HATCH
  5
3E
330
1F
100
AcDbEntity
  8
Livello 1
 62
   250
420
  1907995
100
AcDbHatch
 10
0.0
 20
0.0
 30
0.0
210
0.0
220
0.0
230
1.0
  2
SOLID
 70
     1
 71
     0
 91
        2
 92
        1
 93
        1
 72
     4
 94
        3
 73
     0
 74
     1
 95
       17
 96
       13
 40
0.0
 40
0.0
 40
0.0
 40
0.0
 40
1.0
 40
1.0
 40
1.0
 40
2.0
 40
2.0
 40
2.0
 40
3.0
 40
3.0
 40
3.0
 40
4.0
 40
4.0
 40
4.0
 40
4.0
 10
25.0000244078125
 20
-15.52945691886069
 10
21.39989962572642
 20
-15.52945691886069
 10
18.470879444167
 20
-12.60043673730128
 10
18.470879444167
 20
-9.0003119552152
 10
18.470879444167
 20
-5.40018717312912
 10
21.39989962572642
 20
-2.471166991569708
 10
25.0000244078125
 20
-2.471166991569708
 10
28.60014918989857
 20
-2.471166991569708
 10
31.52916937145799
 20
-5.40018717312912
 10
31.52916937145799
 20
-9.0003119552152
 10
31.52916937145799
 20
-12.60043673730128
 10
28.60014918989857
 20
-15.52945691886069
 10
25.0000244078125
 20
-15.52945691886069
 97
        0
 92
        1
 93
        1
 72
     4
 94
        3
 73
     0
 74
     1
 95
       17
 96
       13
 40
0.0
 40
0.0
 40
0.0
 40
0.0
 40
1.0
 40
1.0
 40
1.0
 40
2.0
 40
2.0
 40
2.0
 40
3.0
 40
3.0
 40
3.0
 40
4.0
 40
4.0
 40
4.0
 40
4.0
 10
25.0000244078125
 20
-3.529500324638458
 10
21.98332654615347
 20
-3.529500324638458
 10
19.52921277723575
 20
-5.98361409355618
 10
19.52921277723575
 20
-9.0003119552152
 10
19.52921277723575
 20
-12.01700981687422
 10
21.98332654615347
 20
-14.47112358579194
 10
25.0000244078125
 20
-14.47112358579194
 10
28.01672226947152
 20
-14.47112358579194
 10
30.47083603838924
 20
-12.01700981687422
 10
30.47083603838924
 20
-9.0003119552152
 10
30.47083603838924
 20
-5.98361409355618
 10
28.01672226947152
 20
-3.529500324638458
 10
25.0000244078125
 20
-3.529500324638458
 97
        0
 75
     2
 76
     1
 98
        0
  0
SPLINE
  5
3F
330
1F
100
AcDbEntity
  8
Livello 1
370
     0
100
AcDbSpline
210
0.0
220
0.0
230
1.0
 70
    11
 71
     3
 72
    17
 73
    13
 74
     0
 42
0.0000000001
 43
0.0000000001
 40
0.0
 40
0.0
 40
0.0
 40
0.0
 40
1.0
 40
1.0
 40
1.0
 40
2.0
 40
2.0
 40
2.0
 40
3.0
 40
3.0
 40
3.0
 40
4.0
 40
4.0
 40
4.0
 40
4.0
 10
75.00076224253453
 20
-15.52945691886069
 30
0.0
 10
71.40063746044845
 20
-15.52945691886069
 30
0.0
 10
68.47161727888904
 20
-12.60043673730128
 30
0.0
 10
68.47161727888904
 20
-9.0003119552152
 30
0.0
 10
68.47161727888904
 20
-5.40018717312912
 30
0.0
 10
71.40063746044845
 20
-2.471166991569708
 30
0.0
 10
75.00076224253453
 20
-2.471166991569708
 30
0.0
 10
78.60088702462062
 20
-2.471166991569708
 30
0.0
 10
81.52990720618003
 20
-5.40018717312912
 30
0.0
 10
81.52990720618003
 20
-9.0003119552152
 30
0.0
 10
81.52990720618003
 20
-12.60043673730128
 30
0.0
 10
78.60088702462062
 20
-15.52945691886069
 30
0.0
 10
75.00076224253453
 20
-15.52945691886069
 30
0.0
  0
SPLINE
  5
40
330
1F
100
AcDbEntity
  8
Livello 1
370
     0
100
AcDbSpline
210
0.0
220
0.0
230
1.0
 70
    11
 71
     3
 72
    17
 73
    13
 74
     0
 42
0.0000000001
 43
0.0000000001
 40
0.0
 40
0.0
 40
0.0
 40
0.0
 40
1.0
 40
1.0
 40
1.0
 40
2.0
 40
2.0
 40
2.0
 40
3.0
 40
3.0
 40
3.0
 40
4.0
 40
4.0
 40
4.0
 40
4.0
 10
75.00076224253453
 20
-3.529500324638458
 30
0.0
 10
71.98406438087551
 20
-3.529500324638458
 30
0.0
 10
69.52995061195779
 20
-5.98361409355618
 30
0.0
 10
69.52995061195779
 20
-9.0003119552152
 30
0.0
 10
69.52995061195779
 20
-12.01700981687422
 30
0.0
 10
71.98406438087551
 20
-14.47112358579194
 30
0.0
 10
75.00076224253453
 20
-14.47112358579194
 30
0.0
 10
78.01728784941929
 20
-14.47112358579194
 30
0.0
 10
80.47157387311128
 20
-12.01700981687422
 30
0.0
 10
80.47157387311128
 20
-9.0003119552152
 30
0.0
 10
80.47157387311128
 20
-5.98361409355618
 30
0.0
 10
78.01728784941929
 20
-3.529500324638458
 30
0.0
 10
75.00076224253453
 20
-3.529500324638458
 30
0.0
  0
HATCH
  5
41
330
1F
100
AcDbEntity
  8
Livello 1
 62
   250
420
  1907995
100
AcDbHatch
 10
0.0
 20
0.0
 30
0.0
210
0.0
220
0.0
230
1.0
  2
SOLID
 70
     1
 71
     0
 91
        2
 92
        1
 93
        1
 72
     4
 94
        3
 73
     0
 74
     1
 95
       17
 96
       13
 40
0.0
 40
0.0
 40
0.0
 40
0.0
 40
1.0
 40
1.0
 40
1.0
 40
2.0
 40
2.0
 40
2.0
 40
3.0
 40
3.0
 40
3.0
 40
4.0
 40
4.0
 40
4.0
 40
4.0
 10
75.00076224253453
 20
-15.52945691886069
 10
71.40063746044845
 20
-15.52945691886069
 10
68.47161727888904
 20
-12.60043673730128
 10
68.47161727888904
 20
-9.0003119552152
 10
68.47161727888904
 20
-5.40018717312912
 10
71.40063746044845
 20
-2.471166991569708
 10
75.00076224253453
 20
-2.471166991569708
 10
78.60088702462062
 20
-2.471166991569708
 10
81.52990720618003
 20
-5.40018717312912
 10
81.52990720618003
 20
-9.0003119552152
 10
81.52990720618003
 20
-12.60043673730128
 10
78.60088702462062
 20
-15.52945691886069
 10
75.00076224253453
 20
-15.52945691886069
 97
        0
 92
        1
 93
        1
 72
     4
 94
        3
 73
     0
 74
     1
 95
       17
 96
       13
 40
0.0
 40
0.0
 40
0.0
 40
0.0
 40
1.0
 40
1.0
 40
1.0
 40
2.0
 40
2.0
 40
2.0
 40
3.0
 40
3.0
 40
3.0
 40
4.0
 40
4.0
 40
4.0
 40
4.0
 10
75.00076224253453
 20
-3.529500324638458
 10
71.98406438087551
 20
-3.529500324638458
 10
69.52995061195779
 20
-5.98361409355618
 10
69.52995061195779
 20
-9.0003119552152
 10
69.52995061195779
 20
-12.01700981687422
 10
71.98406438087551
 20
-14.47112358579194
 10
75.00076224253453
 20
-14.47112358579194
 10
78.01728784941929
 20
-14.47112358579194
 10
80.47157387311128
 20
-12.01700981687422
 10
80.47157387311128
 20
-9.0003119552152
 10
80.47157387311128
 20
-5.98361409355618
 10
78.01728784941929
 20
-3.529500324638458
 10
75.00076224253453
 20
-3.529500324638458
 97
        0
 75
     2
 76
     1
 98
        0
  0
SPLINE
  5
42
330
1F
100
AcDbEntity
  8
Livello 1
370
     0
100
AcDbSpline
210
0.0
220
0.0
230
1.0
 70
    11
 71
     3
 72
    17
 73
    13
 74
     0
 42
0.0000000001
 43
0.0000000001
 40
0.0
 40
0.0
 40
0.0
 40
0.0
 40
1.0
 40
1.0
 40
1.0
 40
2.0
 40
2.0
 40
2.0
 40
3.0
 40
3.0
 40
3.0
 40
4.0
 40
4.0
 40
4.0
 40
4.0
 10
125.0015000772566
 20
-15.52945691886069
 30
0.0
 10
121.4013752951705
 20
-15.52945691886069
 30
0.0
 10
118.4723551136111
 20
-12.60043673730128
 30
0.0
 10
118.4723551136111
 20
-9.0003119552152
 30
0.0
 10
118.4723551136111
 20
-5.40018717312912
 30
0.0
 10
121.4013752951705
 20
-2.471166991569708
 30
0.0
 10
125.0015000772566
 20
-2.471166991569708
 30
0.0
 10
128.6016248593426
 20
-2.471166991569708
 30
0.0
 10
131.5306450409021
 20
-5.40018717312912
 30
0.0
 10
131.5306450409021
 20
-9.0003119552152
 30
0.0
 10
131.5306450409021
 20
-12.60043673730128
 30
0.0
 10
128.6016248593426
 20
-15.52945691886069
 30
0.0
 10
125.0015000772566
 20
-15.52945691886069
 30
0.0
  0
SPLINE
  5
43
330
1F
100
AcDbEntity
  8
Livello 1
370
     0
100
AcDbSpline
210
0.0
220
0.0
230
1.0
 70
    11
 71
     3
 72
    17
 73
    13
 74
     0
 42
0.0000000001
 43
0.0000000001
 40
0.0
 40
0.0
 40
0.0
 40
0.0
 40
1.0
 40
1.0
 40
1.0
 40
2.0
 40
2.0
 40
2.0
 40
3.0
 40
3.0
 40
3.0
 40
4.0
 40
4.0
 40
4.0
 40
4.0
 10
125.0015000772566
 20
-3.529500324638458
 30
0.0
 10
121.9849744703718
 20
-3.529500324638458
 30
0.0
 10
119.5306884466798
 20
-5.98361409355618
 30
0.0
 10
119.5306884466798
 20
-9.0003119552152
 30
0.0
 10
119.5306884466798
 20
-12.01700981687422
 30
0.0
 10
121.9849744703718
 20
-14.47112358579194
 30
0.0
 10
125.0015000772566
 20
-14.47112358579194
 30
0.0
 10
128.0180256841413
 20
-14.47112358579194
 30
0.0
 10
130.4723117078333
 20
-12.01700981687422
 30
0.0
 10
130.4723117078333
 20
-9.0003119552152
 30
0.0
 10
130.4723117078333
 20
-5.98361409355618
 30
0.0
 10
128.0180256841413
 20
-3.529500324638458
 30
0.0
 10
125.0015000772566
 20
-3.529500324638458
 30
0.0
  0
HATCH
  5
44
330
1F
100
AcDbEntity
  8
Livello 1
 62
   250
420
  1907995
100
AcDbHatch
 10
0.0
 20
0.0
 30
0.0
210
0.0
220
0.0
230
1.0
  2
SOLID
 70
     1
 71
     0
 91
        2
 92
        1
 93
        1
 72
     4
 94
        3
 73
     0
 74
     1
 95
       17
 96
       13
 40
0.0
 40
0.0
 40
0.0
 40
0.0
 40
1.0
 40
1.0
 40
1.0
 40
2.0
 40
2.0
 40
2.0
 40
3.0
 40
3.0
 40
3.0
 40
4.0
 40
4.0
 40
4.0
 40
4.0
 10
125.0015000772566
 20
-15.52945691886069
 10
121.4013752951705
 20
-15.52945691886069
 10
118.4723551136111
 20
-12.60043673730128
 10
118.4723551136111
 20
-9.0003119552152
 10
118.4723551136111
 20
-5.40018717312912
 10
121.4013752951705
 20
-2.471166991569708
 10
125.0015000772566
 20
-2.471166991569708
 10
128.6016248593426
 20
-2.471166991569708
 10
131.5306450409021
 20
-5.40018717312912
 10
131.5306450409021
 20
-9.0003119552152
 10
131.5306450409021
 20
-12.60043673730128
 10
128.6016248593426
 20
-15.52945691886069
 10
125.0015000772566
 20
-15.52945691886069
 97
        0
 92
        1
 93
        1
 72
     4
 94
        3
 73
     0
 74
     1
 95
       17
 96
       13
 40
0.0
 40
0.0
 40
0.0
 40
0.0
 40
1.0
 40
1.0
 40
1.0
 40
2.0
 40
2.0
 40
2.0
 40
3.0
 40
3.0
 40
3.0
 40
4.0
 40
4.0
 40
4.0
 40
4.0
 10
125.0015000772566
 20
-3.529500324638458
 10
121.9849744703718
 20
-3.529500324638458
 10
119.5306884466798
 20
-5.98361409355618
 10
119.5306884466798
 20
-9.0003119552152
 10
119.5306884466798
 20
-12.01700981687422
 10
121.9849744703718
 20
-14.47112358579194
 10
125.0015000772566
 20
-14.47112358579194
 10
128.0180256841413
 20
-14.47112358579194
 10
130.4723117078333
 20
-12.01700981687422
 10
130.4723117078333
 20
-9.0003119552152
 10
130.4723117078333
 20
-5.98361409355618
 10
128.0180256841413
 20
-3.529500324638458
 10
125.0015000772566
 20
-3.529500324638458
 97
        0
 75
     2
 76
     1
 98
        0
  0
SPLINE
  5
45
330
1F
100
AcDbEntity
  8
Livello 1
370
     0
100
AcDbSpline
210
0.0
220
0.0
230
1.0
 70
    11
 71
     3
 72
    23
 73
    19
 74
     0
 42
0.0000000001
 43
0.0000000001
 40
0.0
 40
0.0
 40
0.0
 40
0.0
 40
1.0
 40
1.0
 40
1.0
 40
2.0
 40
2.0
 40
2.0
 40
3.0
 40
3.0
 40
3.0
 40
4.0
 40
4.0
 40
4.0
 40
5.0
 40
5.0
 40
5.0
 40
6.0
 40
6.0
 40
6.0
 40
6.0
 10
27.46946885163958
 20
-9.529478621749575
 30
0.0
 10
27.46946885163958
 20
-9.529478621749575
 30
0.0
 10
22.53057996398541
 20
-9.529478621749575
 30
0.0
 10
22.53057996398541
 20
-9.529478621749575
 30
0.0
 10
22.23826361206196
 20
-9.529478621749575
 30
0.0
 10
22.00141329745104
 20
-9.29262830713865
 30
0.0
 10
22.00141329745104
 20
-9.0003119552152
 30
0.0
 10
22.00141329745104
 20
-8.707995603291751
 30
0.0
 10
22.23826361206196
 20
-8.471145288680825
 30
0.0
 10
22.53057996398541
 20
-8.471145288680825
 30
0.0
 10
22.53057996398541
 20
-8.471145288680825
 30
0.0
 10
27.46946885163958
 20
-8.471145288680825
 30
0.0
 10
27.46946885163958
 20
-8.471145288680825
 30
0.0
 10
27.76178520356303
 20
-8.471145288680825
 30
0.0
 10
27.99863551817395
 20
-8.707995603291751
 30
0.0
 10
27.99863551817395
 20
-9.0003119552152
 30
0.0
 10
27.99863551817395
 20
-9.29262830713865
 30
0.0
 10
27.76178520356303
 20
-9.529478621749575
 30
0.0
 10
27.46946885163958
 20
-9.529478621749575
 30
0.0
  0
HATCH
  5
46
330
1F
100
AcDbEntity
  8
Livello 1
 62
   250
420
  1907995
100
AcDbHatch
 10
0.0
 20
0.0
 30
0.0
210
0.0
220
0.0
230
1.0
  2
SOLID
 70
     1
 71
     0
 91
        1
 92
        1
 93
        1
 72
     4
 94
        3
 73
     0
 74
     1
 95
       23
 96
       19
 40
0.0
 40
0.0
 40
0.0
 40
0.0
 40
1.0
 40
1.0
 40
1.0
 40
2.0
 40
2.0
 40
2.0
 40
3.0
 40
3.0
 40
3.0
 40
4.0
 40
4.0
 40
4.0
 40
5.0
 40
5.0
 40
5.0
 40
6.0
 40
6.0
 40
6.0
 40
6.0
 10
27.46946885163958
 20
-9.529478621749575
 10
27.46946885163958
 20
-9.529478621749575
 10
22.53057996398541
 20
-9.529478621749575
 10
22.53057996398541
 20
-9.529478621749575
 10
22.23826361206196
 20
-9.529478621749575
 10
22.00141329745104
 20
-9.29262830713865
 10
22.00141329745104
 20
-9.0003119552152
 10
22.00141329745104
 20
-8.707995603291751
 10
22.23826361206196
 20
-8.471145288680825
 10
22.53057996398541
 20
-8.471145288680825
 10
22.53057996398541
 20
-8.471145288680825
 10
27.46946885163958
 20
-8.471145288680825
 10
27.46946885163958
 20
-8.471145288680825
 10
27.76178520356303
 20
-8.471145288680825
 10
27.99863551817395
 20
-8.707995603291751
 10
27.99863551817395
 20
-9.0003119552152
 10
27.99863551817395
 20
-9.29262830713865
 10
27.76178520356303
 20
-9.529478621749575
 10
27.46946885163958
 20
-9.529478621749575
 97
        0
 75
     2
 76
     1
 98
        0
  0
SPLINE
  5
47
330
1F
100
AcDbEntity
  8
Livello 1
370
     0
100
AcDbSpline
210
0.0
220
0.0
230
1.0
 70
    11
 71
     3
 72
    17
 73
    13
 74
     0
 42
0.0000000001
 43
0.0000000001
 40
0.0
 40
0.0
 40
0.0
 40
0.0
 40
1.0
 40
1.0
 40
1.0
 40
2.0
 40
2.0
 40
2.0
 40
3.0
 40
3.0
 40
3.0
 40
4.0
 40
4.0
 40
4.0
 40
4.0
 10
76.50075681681231
 20
-9.0003119552152
 30
0.0
 10
76.50075681681231
 20
-9.828685164643524
 30
0.0
 10
75.82930770673713
 20
-10.50030652949298
 30
0.0
 10
75.00076224253453
 20
-10.50030652949298
 30
0.0
 10
74.17238903310621
 20
-10.50030652949298
 30
0.0
 10
73.50076766825676
 20
-9.828685164643524
 30
0.0
 10
73.50076766825676
 20
-9.0003119552152
 30
0.0
 10
73.50076766825676
 20
-8.171938745786877
 30
0.0
 10
74.17238903310621
 20
-7.500317380937421
 30
0.0
 10
75.00076224253453
 20
-7.500317380937421
 30
0.0
 10
75.82930770673713
 20
-7.500317380937421
 30
0.0
 10
76.50075681681231
 20
-8.171938745786877
 30
0.0
 10
76.50075681681231
 20
-9.0003119552152
 30
0.0
  0
HATCH
  5
48
330
1F
100
AcDbEntity
  8
Livello 1
 62
   250
420
  1907995
100
AcDbHatch
 10
0.0
 20
0.0
 30
0.0
210
0.0
220
0.0
230
1.0
  2
SOLID
 70
     1
 71
     0
 91
        1
 92
        1
 93
        1
 72
     4
 94
        3
 73
     0
 74
     1
 95
       17
 96
       13
 40
0.0
 40
0.0
 40
0.0
 40
0.0
 40
1.0
 40
1.0
 40
1.0
 40
2.0
 40
2.0
 40
2.0
 40
3.0
 40
3.0
 40
3.0
 40
4.0
 40
4.0
 40
4.0
 40
4.0
 10
76.50075681681231
 20
-9.0003119552152
 10
76.50075681681231
 20
-9.828685164643524
 10
75.82930770673713
 20
-10.50030652949298
 10
75.00076224253453
 20
-10.50030652949298
 10
74.17238903310621
 20
-10.50030652949298
 10
73.50076766825676
 20
-9.828685164643524
 10
73.50076766825676
 20
-9.0003119552152
 10
73.50076766825676
 20
-8.171938745786877
 10
74.17238903310621
 20
-7.500317380937421
 10
75.00076224253453
 20
-7.500317380937421
 10
75.82930770673713
 20
-7.500317380937421
 10
76.50075681681231
 20
-8.171938745786877
 10
76.50075681681231
 20
-9.0003119552152
 97
        0
 75
     2
 76
     1
 98
        0
  0
SPLINE
  5
49
330
1F
100
AcDbEntity
  8
Livello 1
370
     0
100
AcDbSpline
210
0.0
220
0.0
230
1.0
 70
    11
 71
     3
 72
    53
 73
    49
 74
     0
 42
0.0000000001
 43
0.0000000001
 40
0.0
 40
0.0
 40
0.0
 40
0.0
 40
1.0
 40
1.0
 40
1.0
 40
2.0
 40
2.0
 40
2.0
 40
3.0
 40
3.0
 40
3.0
 40
4.0
 40
4.0
 40
4.0
 40
5.0
 40
5.0
 40
5.0
 40
6.0
 40
6.0
 40
6.0
 40
7.0
 40
7.0
 40
7.0
 40
8.0
 40
8.0
 40
8.0
 40
9.0
 40
9.0
 40
9.0
 40
10.0
 40
10.0
 40
10.0
 40
11.0
 40
11.0
 40
11.0
 40
12.0
 40
12.0
 40
12.0
 40
13.0
 40
13.0
 40
13.0
 40
14.0
 40
14.0
 40
14.0
 40
15.0
 40
15.0
 40
15.0
 40
16.0
 40
16.0
 40
16.0
 40
16.0
 10
127.4709445210837
 20
-8.471145288680825
 30
0.0
 10
127.4709445210837
 20
-8.471145288680825
 30
0.0
 10
125.5306667437909
 20
-8.471145288680825
 30
0.0
 10
125.5306667437909
 20
-8.471145288680825
 30
0.0
 10
125.5306667437909
 20
-8.471145288680825
 30
0.0
 10
125.5306667437909
 20
-6.530867511388116
 30
0.0
 10
125.5306667437909
 20
-6.530867511388116
 30
0.0
 10
125.5306667437909
 20
-6.238551159464668
 30
0.0
 10
125.2936441744058
 20
-6.001700844853742
 30
0.0
 10
125.0015000772566
 20
-6.001700844853742
 30
0.0
 10
124.7093559801074
 20
-6.001700844853742
 30
0.0
 10
124.4723334107222
 20
-6.238551159464668
 30
0.0
 10
124.4723334107222
 20
-6.530867511388116
 30
0.0
 10
124.4723334107222
 20
-6.530867511388116
 30
0.0
 10
124.4723334107222
 20
-8.471145288680825
 30
0.0
 10
124.4723334107222
 20
-8.471145288680825
 30
0.0
 10
124.4723334107222
 20
-8.471145288680825
 30
0.0
 10
122.5320556334295
 20
-8.471145288680825
 30
0.0
 10
122.5320556334295
 20
-8.471145288680825
 30
0.0
 10
122.2399115362803
 20
-8.471145288680825
 30
0.0
 10
122.0028889668951
 20
-8.707995603291751
 30
0.0
 10
122.0028889668951
 20
-9.0003119552152
 30
0.0
 10
122.0028889668951
 20
-9.29262830713865
 30
0.0
 10
122.2399115362803
 20
-9.529478621749575
 30
0.0
 10
122.5320556334295
 20
-9.529478621749575
 30
0.0
 10
122.5320556334295
 20
-9.529478621749575
 30
0.0
 10
124.4723334107222
 20
-9.529478621749575
 30
0.0
 10
124.4723334107222
 20
-9.529478621749575
 30
0.0
 10
124.4723334107222
 20
-9.529478621749575
 30
0.0
 10
124.4723334107222
 20
-11.46975639904228
 30
0.0
 10
124.4723334107222
 20
-11.46975639904228
 30
0.0
 10
124.4723334107222
 20
-11.76207275096573
 30
0.0
 10
124.7093559801074
 20
-11.99892306557666
 30
0.0
 10
125.0015000772566
 20
-11.99892306557666
 30
0.0
 10
125.2936441744058
 20
-11.99892306557666
 30
0.0
 10
125.5306667437909
 20
-11.76207275096573
 30
0.0
 10
125.5306667437909
 20
-11.46975639904228
 30
0.0
 10
125.5306667437909
 20
-11.46975639904228
 30
0.0
 10
125.5306667437909
 20
-9.529478621749575
 30
0.0
 10
125.5306667437909
 20
-9.529478621749575
 30
0.0
 10
125.5306667437909
 20
-9.529478621749575
 30
0.0
 10
127.4709445210837
 20
-9.529478621749575
 30
0.0
 10
127.4709445210837
 20
-9.529478621749575
 30
0.0
 10
127.7630886182328
 20
-9.529478621749575
 30
0.0
 10
128.000111187618
 20
-9.29262830713865
 30
0.0
 10
128.000111187618
 20
-9.0003119552152
 30
0.0
 10
128.000111187618
 20
-8.707995603291751
 30
0.0
 10
127.7630886182328
 20
-8.471145288680825
 30
0.0
 10
127.4709445210837
 20
-8.471145288680825
 30
0.0
  0
HATCH
  5
4A
330
1F
100
AcDbEntity
  8
Livello 1
 62
   250
420
  1907995
100
AcDbHatch
 10
0.0
 20
0.0
 30
0.0
210
0.0
220
0.0
230
1.0
  2
SOLID
 70
     1
 71
     0
 91
        1
 92
        1
 93
        1
 72
     4
 94
        3
 73
     0
 74
     1
 95
       53
 96
       49
 40
0.0
 40
0.0
 40
0.0
 40
0.0
 40
1.0
 40
1.0
 40
1.0
 40
2.0
 40
2.0
 40
2.0
 40
3.0
 40
3.0
 40
3.0
 40
4.0
 40
4.0
 40
4.0
 40
5.0
 40
5.0
 40
5.0
 40
6.0
 40
6.0
 40
6.0
 40
7.0
 40
7.0
 40
7.0
 40
8.0
 40
8.0
 40
8.0
 40
9.0
 40
9.0
 40
9.0
 40
10.0
 40
10.0
 40
10.0
 40
11.0
 40
11.0
 40
11.0
 40
12.0
 40
12.0
 40
12.0
 40
13.0
 40
13.0
 40
13.0
 40
14.0
 40
14.0
 40
14.0
 40
15.0
 40
15.0
 40
15.0
 40
16.0
 40
16.0
 40
16.0
 40
16.0
 10
127.4709445210837
 20
-8.471145288680825
 10
127.4709445210837
 20
-8.471145288680825
 10
125.5306667437909
 20
-8.471145288680825
 10
125.5306667437909
 20
-8.471145288680825
 10
125.5306667437909
 20
-8.471145288680825
 10
125.5306667437909
 20
-6.530867511388116
 10
125.5306667437909
 20
-6.530867511388116
 10
125.5306667437909
 20
-6.238551159464668
 10
125.2936441744058
 20
-6.001700844853742
 10
125.0015000772566
 20
-6.001700844853742
 10
124.7093559801074
 20
-6.001700844853742
 10
124.4723334107222
 20
-6.238551159464668
 10
124.4723334107222
 20
-6.530867511388116
 10
124.4723334107222
 20
-6.530867511388116
 10
124.4723334107222
 20
-8.471145288680825
 10
124.4723334107222
 20
-8.471145288680825
 10
124.4723334107222
 20
-8.471145288680825
 10
122.5320556334295
 20
-8.471145288680825
 10
122.5320556334295
 20
-8.471145288680825
 10
122.2399115362803
 20
-8.471145288680825
 10
122.0028889668951
 20
-8.707995603291751
 10
122.0028889668951
 20
-9.0003119552152
 10
122.0028889668951
 20
-9.29262830713865
 10
122.2399115362803
 20
-9.529478621749575
 10
122.5320556334295
 20
-9.529478621749575
 10
122.5320556334295
 20
-9.529478621749575
 10
124.4723334107222
 20
-9.529478621749575
 10
124.4723334107222
 20
-9.529478621749575
 10
124.4723334107222
 20
-9.529478621749575
 10
124.4723334107222
 20
-11.46975639904228
 10
124.4723334107222
 20
-11.46975639904228
 10
124.4723334107222
 20
-11.76207275096573
 10
124.7093559801074
 20
-11.99892306557666
 10
125.0015000772566
 20
-11.99892306557666
 10
125.2936441744058
 20
-11.99892306557666
 10
125.5306667437909
 20
-11.76207275096573
 10
125.5306667437909
 20
-11.46975639904228
 10
125.5306667437909
 20
-11.46975639904228
 10
125.5306667437909
 20
-9.529478621749575
 10
125.5306667437909
 20
-9.529478621749575
 10
125.5306667437909
 20
-9.529478621749575
 10
127.4709445210837
 20
-9.529478621749575
 10
127.4709445210837
 20
-9.529478621749575
 10
127.7630886182328
 20
-9.529478621749575
 10
128.000111187618
 20
-9.29262830713865
 10
128.000111187618
 20
-9.0003119552152
 10
128.000111187618
 20
-8.707995603291751
 10
127.7630886182328
 20
-8.471145288680825
 10
127.4709445210837
 20
-8.471145288680825
 97
        0
 75
     2
 76
     1
 98
        0
  0
ENDSEC
  0
SECTION
  2
OBJECTS
  0
DICTIONARY
  5
C
330
0
100
AcDbDictionary
281
     1
  3
ACAD_GROUP
350
D
  3
ACAD_LAYOUT
350
1A
  3
ACAD_MLINESTYLE
350
17
  3
ACAD_PLOTSETTINGS
350
19
  3
ACAD_PLOTSTYLENAME
350
E
  3
ACAD_TABLESTYLE
350
4B
  3
ACAD_VISUALSTYLE
350
2A
  0
DICTIONARY
  5
D
102
{ACAD_REACTORS
330
C
102
}
330
C
100
AcDbDictionary
281
     1
  0
DICTIONARY
  5
1A
102
{ACAD_REACTORS
330
C
102
}
330
C
100
AcDbDictionary
281
     1
  3
Layout1
350
1E
  3
Layout2
350
26
  3
Model
350
22
  0
DICTIONARY
  5
17
102
{ACAD_REACTORS
330
C
102
}
330
C
100
AcDbDictionary
281
     1
  3
Standard
350
18
  0
DICTIONARY
  5
19
102
{ACAD_REACTORS
330
C
102
}
330
C
100
AcDbDictionary
281
     1
  0
ACDBDICTIONARYWDFLT
  5
E
102
{ACAD_REACTORS
330
C
102
}
330
C
100
AcDbDictionary
281
     1
  3
Normal
350
F
100
AcDbDictionaryWithDefault
340
F
  0
DICTIONARY
  5
4B
102
{ACAD_REACTORS
330
C
102
}
330
C
100
AcDbDictionary
281
     1
  0
DICTIONARY
  5
2A
102
{ACAD_REACTORS
330
C
102
}
330
C
100
AcDbDictionary
281
     1
  3
2dWireframe
350
2F
  3
3D Hidden
350
31
  3
3dWireframe
350
30
  3
Basic
350
32
  3
Brighten
350
36
  3
ColorChange
350
3A
  3
Conceptual
350
34
  3
Dim
350
35
  3
Facepattern
350
39
  3
Flat
350
2B
  3
FlatWithEdges
350
2C
  3
Gouraud
350
2D
  3
GouraudWithEdges
350
2E
  3
Linepattern
350
38
  3
Realistic
350
33
  3
Thicken
350
37
  0
LAYOUT
  5
1E
102
{ACAD_REACTORS
330
1A
102
}
330
1A
100
AcDbPlotSettings
  1

  2
none_device
  4

  6

 40
0.0
 41
0.0
 42
0.0
 43
0.0
 44
0.0
 45
0.0
 46
0.0
 47
0.0
 48
0.0
 49
0.0
140
0.0
141
0.0
142
1.0
143
1.0
 70
   688
 72
     0
 73
     0
 74
     5
  7

 75
    16
 76
     0
 77
     2
 78
   300
147
1.0
148
0.0
149
0.0
100
AcDbLayout
  1
Layout1
 70
     1
 71
     1
 10
0.0
 20
0.0
 11
12.0
 21
9.0
 12
0.0
 22
0.0
 32
0.0
 14
1.000000000000000E+20
 24
1.000000000000000E+20
 34
1.000000000000000E+20
 15
-1.000000000000000E+20
 25
-1.000000000000000E+20
 35
-1.000000000000000E+20
146
0.0
 13
0.0
 23
0.0
 33
0.0
 16
1.0
 26
0.0
 36
0.0
 17
0.0
 27
1.0
 37
0.0
 76
     0
330
1B
  0
LAYOUT
  5
26
102
{ACAD_REACTORS
330
1A
102
}
330
1A
100
AcDbPlotSettings
  1

  2
none_device
  4

  6

 40
0.0
 41
0.0
 42
0.0
 43
0.0
 44
0.0
 45
0.0
 46
0.0
 47
0.0
 48
0.0
 49
0.0
140
0.0
141
0.0
142
1.0
143
1.0
 70
   688
 72
     0
 73
     0
 74
     5
  7

 75
    16
 76
     0
 77
     2
 78
   300
147
1.0
148
0.0
149
0.0
100
AcDbLayout
  1
Layout2
 70
     1
 71
     2
 10
0.0
 20
0.0
 11
0.0
 21
0.0
 12
0.0
 22
0.0
 32
0.0
 14
0.0
 24
0.0
 34
0.0
 15
0.0
 25
0.0
 35
0.0
146
0.0
 13
0.0
 23
0.0
 33
0.0
 16
1.0
 26
0.0
 36
0.0
 17
0.0
 27
1.0
 37
0.0
 76
     0
330
23
  0
LAYOUT
  5
22
102
{ACAD_REACTORS
330
1A
102
}
330
1A
100
AcDbPlotSettings
  1

  2
none_device
  4

  6

 40
0.0
 41
0.0
 42
0.0
 43
0.0
 44
0.0
 45
0.0
 46
0.0
 47
0.0
 48
0.0
 49
0.0
140
0.0
141
0.0
142
1.0
143
1.0
 70
  1712
 72
     0
 73
     0
 74
     0
  7

 75
     0
 76
     0
 77
     2
 78
   300
147
1.0
148
0.0
149
0.0
100
AcDbLayout
  1
Model
 70
     1
 71
     0
 10
0.0
 20
0.0
 11
12.0
 21
9.0
 12
0.0
 22
0.0
 32
0.0
 14
1.000000000000000E+20
 24
1.000000000000000E+20
 34
1.000000000000000E+20
 15
-1.000000000000000E+20
 25
-1.000000000000000E+20
 35
-1.000000000000000E+20
146
0.0
 13
0.0
 23
0.0
 33
0.0
 16
1.0
 26
0.0
 36
0.0
 17
0.0
 27
1.0
 37
0.0
 76
     0
330
1F
331
29
  0
MLINESTYLE
  5
18
102
{ACAD_REACTORS
330
17
102
}
330
17
100
AcDbMlineStyle
  2
Standard
 70
     0
  3

 62
   256
 51
90.0
 52
90.0
 71
     2
 49
0.5
 62
   256
  6
BYLAYER
 49
-0.5
 62
   256
  6
BYLAYER
  0
ACDBPLACEHOLDER
  5
F
102
{ACAD_REACTORS
330
E
102
}
330
E
  0
VISUALSTYLE
  5
2F
102
{ACAD_REACTORS
330
2A
102
}
330
2A
100
AcDbVisualStyle
  2
2dWireframe
 70
     4
 71
     0
 72
     2
 73
     0
 90
        0
 40
-0.6
 41
-30.0
 62
     5
 63
     7
421
 16777215
 74
     1
 91
        4
 64
     7
 65
   257
 75
     1
175
     1
 42
1.0
 92
        0
 66
   257
 43
1.0
 76
     1
 77
     6
 78
     2
 67
     7
 79
     5
170
     0
171
     0
290
     0
174
     0
 93
        1
 44
0.0
173
     0
291
     0
 45
0.0
1001
ACAD
1000
AcDbSavedByObjectVersion
1070
     0
  0
VISUALSTYLE
  5
31
102
{ACAD_REACTORS
330
2A
102
}
330
2A
100
AcDbVisualStyle
  2
3D Hidden
 70
     6
 71
     1
 72
     2
 73
     2
 90
        0
 40
-0.6
 41
-30.0
 62
     5
 63
     7
421
 16777215
 74
     2
 91
        2
 64
     7
 65
   257
 75
     2
175
     1
 42
40.0
 92
        0
 66
   257
 43
1.0
 76
     1
 77
     6
 78
     2
 67
     7
 79
     3
170
     0
171
     0
290
     0
174
     0
 93
        1
 44
0.0
173
     0
291
     0
 45
0.0
1001
ACAD
1000
AcDbSavedByObjectVersion
1070
     0
  0
VISUALSTYLE
  5
30
102
{ACAD_REACTORS
330
2A
102
}
330
2A
100
AcDbVisualStyle
  2
3dWireframe
 70
     5
 71
     0
 72
     2
 73
     0
 90
        0
 40
-0.6
 41
-30.0
 62
     5
 63
     7
421
 16777215
 74
     1
 91
        4
 64
     7
 65
   257
 75
     1
175
     1
 42
1.0
 92
        0
 66
   257
 43
1.0
 76
     1
 77
     6
 78
     2
 67
     7
 79
     5
170
     0
171
     0
290
     0
174
     0
 93
        1
 44
0.0
173
     0
291
     0
 45
0.0
1001
ACAD
1000
AcDbSavedByObjectVersion
1070
     0
  0
VISUALSTYLE
  5
32
102
{ACAD_REACTORS
330
2A
102
}
330
2A
100
AcDbVisualStyle
  2
Basic
 70
     7
 71
     1
 72
     0
 73
     1
 90
        0
 40
-0.6
 41
-30.0
 62
     5
 63
     7
421
 16777215
 74
     0
 91
        4
 64
     7
 65
   257
 75
     1
175
     1
 42
1.0
 92
        8
 66
     7
 43
1.0
 76
     1
 77
     6
 78
     2
 67
     7
 79
     5
170
     0
171
     0
290
     0
174
     0
 93
        1
 44
0.0
173
     0
291
     1
 45
0.0
1001
ACAD
1000
AcDbSavedByObjectVersion
1070
     0
  0
VISUALSTYLE
  5
36
102
{ACAD_REACTORS
330
2A
102
}
330
2A
100
AcDbVisualStyle
  2
Brighten
 70
    12
 71
     2
 72
     2
 73
     0
 90
        0
 40
-0.6
 41
-30.0
 62
     5
 63
     7
421
 16777215
 74
     1
 91
        4
 64
     7
 65
   257
 75
     1
175
     1
 42
1.0
 92
        8
 66
     7
 43
1.0
 76
     1
 77
     6
 78
     2
 67
     7
 79
     5
170
     0
171
     0
290
     0
174
     0
 93
        1
 44
50.0
173
     0
291
     1
 45
0.0
1001
ACAD
1000
AcDbSavedByObjectVersion
1070
     0
  0
VISUALSTYLE
  5
3A
102
{ACAD_REACTORS
330
2A
102
}
330
2A
100
AcDbVisualStyle
  2
ColorChange
 70
    16
 71
     2
 72
     2
 73
     3
 90
        0
 40
-0.6
 41
-30.0
 62
     5
 63
     8
421
  8421504
 74
     1
 91
        4
 64
     7
 65
   257
 75
     1
175
     1
 42
1.0
 92
        8
 66
     8
424
  8421504
 43
1.0
 76
     1
 77
     6
 78
     2
 67
     7
 79
     5
170
     0
171
     0
290
     0
174
     0
 93
        1
 44
0.0
173
     0
291
     1
 45
0.0
1001
ACAD
1000
AcDbSavedByObjectVersion
1070
     0
  0
VISUALSTYLE
  5
34
102
{ACAD_REACTORS
330
2A
102
}
330
2A
100
AcDbVisualStyle
  2
Conceptual
 70
     9
 71
     3
 72
     2
 73
     0
 90
        0
 40
-0.6
 41
-30.0
 62
     5
 63
     7
421
 16777215
 74
     2
 91
        2
 64
     7
 65
   257
 75
     1
175
     1
 42
40.0
 92
        8
 66
     7
 43
1.0
 76
     1
 77
     6
 78
     2
 67
     7
 79
     3
170
     0
171
     0
290
     0
174
     0
 93
        1
 44
0.0
173
     0
291
     0
 45
0.0
1001
ACAD
1000
AcDbSavedByObjectVersion
1070
     0
  0
VISUALSTYLE
  5
35
102
{ACAD_REACTORS
330
2A
102
}
330
2A
100
AcDbVisualStyle
  2
Dim
 70
    11
 71
     2
 72
     2
 73
     0
 90
        0
 40
-0.6
 41
-30.0
 62
     5
 63
     7
421
 16777215
 74
     1
 91
        4
 64
     7
 65
   257
 75
     1
175
     1
 42
1.0
 92
        8
 66
     7
 43
1.0
 76
     1
 77
     6
 78
     2
 67
     7
 79
     5
170
     0
171
     0
290
     0
174
     0
 93
        1
 44
-50.0
173
     0
291
     1
 45
0.0
1001
ACAD
1000
AcDbSavedByObjectVersion
1070
     0
  0
VISUALSTYLE
  5
39
102
{ACAD_REACTORS
330
2A
102
}
330
2A
100
AcDbVisualStyle
  2
Facepattern
 70
    15
 71
     2
 72
     2
 73
     0
 90
        0
 40
-0.6
 41
-30.0
 62
     5
 63
     7
421
 16777215
 74
     1
 91
        4
 64
     7
 65
   257
 75
     1
175
     1
 42
1.0
 92
        8
 66
     7
 43
1.0
 76
     1
 77
     6
 78
     2
 67
     7
 79
     5
170
     0
171
     0
290
     0
174
     0
 93
        1
 44
0.0
173
     0
291
     1
 45
0.0
1001
ACAD
1000
AcDbSavedByObjectVersion
1070
     0
  0
VISUALSTYLE
  5
2B
102
{ACAD_REACTORS
330
2A
102
}
330
2A
100
AcDbVisualStyle
  2
Flat
 70
     0
 71
     2
 72
     1
 73
     1
 90
        2
 40
-0.6
 41
30.0
 62
     5
 63
     7
421
 16777215
 74
     0
 91
        4
 64
     7
 65
   257
 75
     1
175
     1
 42
1.0
 92
        8
 66
     7
 43
1.0
 76
     1
 77
     6
 78
     2
 67
     7
 79
     5
170
     0
171
     0
290
     0
174
     0
 93
       13
 44
0.0
173
     0
291
     1
 45
0.0
1001
ACAD
1000
AcDbSavedByObjectVersion
1070
     0
  0
VISUALSTYLE
  5
2C
102
{ACAD_REACTORS
330
2A
102
}
330
2A
100
AcDbVisualStyle
  2
FlatWithEdges
 70
     1
 71
     2
 72
     1
 73
     1
 90
        2
 40
-0.6
 41
30.0
 62
     5
 63
     7
421
 16777215
 74
     1
 91
        4
 64
     7
 65
   257
 75
     1
175
     1
 42
1.0
 92
        0
 66
   257
 43
1.0
 76
     1
 77
     6
 78
     2
 67
     7
 79
     5
170
     0
171
     0
290
     0
174
     0
 93
       13
 44
0.0
173
     0
291
     1
 45
0.0
1001
ACAD
1000
AcDbSavedByObjectVersion
1070
     0
  0
VISUALSTYLE
  5
2D
102
{ACAD_REACTORS
330
2A
102
}
330
2A
100
AcDbVisualStyle
  2
Gouraud
 70
     2
 71
     2
 72
     2
 73
     1
 90
        2
 40
-0.6
 41
30.0
 62
     5
 63
     7
421
 16777215
 74
     0
 91
        4
 64
     7
 65
   257
 75
     1
175
     1
 42
1.0
 92
        0
 66
     7
 43
1.0
 76
     1
 77
     6
 78
     2
 67
     7
 79
     5
170
     0
171
     0
290
     0
174
     0
 93
       13
 44
0.0
173
     0
291
     1
 45
0.0
1001
ACAD
1000
AcDbSavedByObjectVersion
1070
     0
  0
VISUALSTYLE
  5
2E
102
{ACAD_REACTORS
330
2A
102
}
330
2A
100
AcDbVisualStyle
  2
GouraudWithEdges
 70
     3
 71
     2
 72
     2
 73
     1
 90
        2
 40
-0.6
 41
30.0
 62
     5
 63
     7
421
 16777215
 74
     1
 91
        4
 64
     7
 65
   257
 75
     1
175
     1
 42
1.0
 92
        0
 66
   257
 43
1.0
 76
     1
 77
     6
 78
     2
 67
     7
 79
     5
170
     0
171
     0
290
     0
174
     0
 93
       13
 44
0.0
173
     0
291
     1
 45
0.0
1001
ACAD
1000
AcDbSavedByObjectVersion
1070
     0
  0
VISUALSTYLE
  5
38
102
{ACAD_REACTORS
330
2A
102
}
330
2A
100
AcDbVisualStyle
  2
Linepattern
 70
    14
 71
     2
 72
     2
 73
     0
 90
        0
 40
-0.6
 41
-30.0
 62
     5
 63
     7
421
 16777215
 74
     1
 91
        4
 64
     7
 65
   257
 75
     7
175
     7
 42
1.0
 92
        8
 66
     7
 43
1.0
 76
     1
 77
     6
 78
     2
 67
     7
 79
     5
170
     0
171
     0
290
     0
174
     0
 93
        1
 44
0.0
173
     0
291
     1
 45
0.0
1001
ACAD
1000
AcDbSavedByObjectVersion
1070
     0
  0
VISUALSTYLE
  5
33
102
{ACAD_REACTORS
330
2A
102
}
330
2A
100
AcDbVisualStyle
  2
Realistic
 70
     8
 71
     2
 72
     2
 73
     0
 90
        0
 40
-0.6
 41
-30.0
 62
     5
 63
     7
421
 16777215
 74
     1
 91
        0
 64
     7
 65
   257
 75
     1
175
     1
 42
1.0
 92
        8
 66
     8
424
  7895160
 43
1.0
 76
     1
 77
     6
 78
     2
 67
     7
 79
     5
170
     0
171
     0
290
     0
174
     0
 93
       13
 44
0.0
173
     0
291
     0
 45
0.0
1001
ACAD
1000
AcDbSavedByObjectVersion
1070
     0
  0
VISUALSTYLE
  5
37
102
{ACAD_REACTORS
330
2A
102
}
330
2A
100
AcDbVisualStyle
  2
Thicken
 70
    13
 71
     2
 72
     2
 73
     0
 90
        0
 40
-0.6
 41
-30.0
 62
     5
 63
     7
421
 16777215
 74
     1
 91
        4
 64
     7
 65
   257
 75
     1
175
     1
 42
1.0
 92
       12
 66
     7
 43
1.0
 76
     1
 77
     6
 78
     2
 67
     7
 79
     5
170
     0
171
     0
290
     0
174
     0
 93
        1
 44
0.0
173
     0
291
     1
 45
0.0
1001
ACAD
1000
AcDbSavedByObjectVersion
1070
     0
  0
ENDSEC
  0
EOF
