<?xml version="1.0" encoding="utf-8"?>
<!-- Generator: Adobe Illustrator 16.0.0, SVG Export Plug-In . SVG Version: 6.00 Build 0)  -->
<!DOCTYPE svg PUBLIC "-//W3C//DTD SVG 1.1//EN" "http://www.w3.org/Graphics/SVG/1.1/DTD/svg11.dtd">
<svg version="1.1" id="Livello_1" xmlns="http://www.w3.org/2000/svg" xmlns:xlink="http://www.w3.org/1999/xlink" x="0px" y="0px"
	 width="510.24px" height="510.24px" viewBox="0 0 510.24 510.24" enable-background="new 0 0 510.24 510.24" xml:space="preserve">
<g>
	<path d="M439.49,322.874c-0.477-0.405-1.546-1.756-2.58-3.062c-3.719-4.7-5.659-6.892-7.328-6.635
		c-4.423,0.678-13.899-6.082-17.547-9.275c-5.486-4.801-11.24-7.295-17.333-9.937c-1.538-0.667-3.109-1.348-4.717-2.083
		c-2.016-0.922-4.234-1.794-6.583-2.719c-5.658-2.226-12.071-4.749-16.063-8.339c-1.181-1.062-1.744-1.989-1.676-2.756
		c0.126-1.413,2.432-2.839,4.466-4.098c2.037-1.261,3.962-2.451,4.86-4.055c1.352-2.412,1.484-4.515,0.396-6.249
		c-3.396-5.413-17.905-4.998-31.235-4.183c-2.308,0.141-4.123,0.253-5.017,0.223c-0.237-0.012-0.465,0.009-0.686,0.048
		c-2.323-2.4-4.91-3.684-7.643-5.021c-0.911-0.446-1.844-0.902-2.792-1.416c-0.808-0.436-0.954-0.902-1.195-1.675
		c-0.331-1.061-0.785-2.513-3.19-3.346c-3.482-1.208-8.845-7.134-12.049-10.675c-0.389-0.43-0.749-0.827-1.072-1.18
		c-6.306-6.878-8.772-15.165-11.384-23.938c-1.38-4.636-2.807-9.431-4.852-14.022c-0.123-0.276-0.359-1.032-0.634-1.907
		c-1.595-5.095-3.527-10.643-6.294-11.983c-0.778-0.377-1.605-0.42-2.386-0.121c-3.525,1.345-8.616-3.72-12.705-7.793
		c-2.526-2.517-4.708-4.69-6.629-5.666c-5.124-2.603-13.902-8.066-15.126-15.422c-0.18-1.083-0.652-2.706-1.199-4.585
		c-1.327-4.561-3.547-12.195-1.731-14.315c0.078-0.09,0.123-0.195,0.167-0.298c0.565,0.711,1.232,1.169,2.078,1.214
		c1.597,0.077,3.054-1.375,4.719-4.735c2.782-5.616,0.478-8.239-1.75-10.776c-1.392-1.585-2.832-3.224-3.519-5.838
		c-2.037-7.75,6.409-11.514,13.859-14.834c2.103-0.938,4.085-1.826,5.724-2.759c2.207-0.241,7.108-1.771,7.941-4.625
		c0.086-0.293,0.129-0.634,0.106-1.004c0.711,0.106,0.899,0.444,1.225,1.077c0.412,0.8,0.976,1.896,2.657,2.363
		c0.394,0.109,0.791,0.159,1.19,0.159c2.056,0,4.147-1.304,5.883-2.385c0.17-0.106,0.329-0.203,0.492-0.303
		c2.023,5.212,2.441,5.596,3.057,5.837c0.974,0.384,2.155,0.582,3.352,0.582c2.241,0,4.532-0.693,5.594-2.145
		c0.605-0.828,1.315-2.59-0.73-5.1c-0.602-0.74-1.863-1.849-3.322-3.134c-1.747-1.537-4.964-4.367-5.303-5.362
		c0.15-0.533,0.298-1.015,0.431-1.453c0.554-1.811,0.953-3.119,0.298-4.324c-0.462-0.851-1.357-1.414-2.636-1.895
		c0.242-0.236,0.505-0.482,0.772-0.734c1.892-1.781,4.036-3.799,3.659-6.036c-0.494-2.928-3.5-3.347-5.694-3.652
		c-1.328-0.185-2.698-0.376-3.15-0.954c0.28-0.676,2.231-2.206,3.541-3.234c2.977-2.334,6.35-4.98,6.444-7.842
		c0.034-1.013-0.312-1.932-0.999-2.657c-2.175-2.293-7.537-2.399-12.268-2.493c-2.422-0.048-5.166-0.102-5.905-0.527
		c-1.733-0.997-4.742-1.411-7.651-1.812c-1.997-0.274-3.883-0.534-5.159-0.944c-2.465-0.792-5.106-1.069-7.662-1.337
		c-0.913-0.096-1.819-0.19-2.703-0.309c-0.039-0.005-0.074,0.009-0.112,0.008c-0.106-0.526-0.267-1.046-0.507-1.551
		c-0.97-2.03-2.697-3.819-4.221-5.397c-1.213-1.256-2.36-2.443-2.921-3.521c-0.356-0.682-0.494-1.061-0.547-1.256
		c0.055-0.027,0.114-0.054,0.165-0.078c0.852-0.397,2.276-1.063,2.877-3.69c0.43-1.881-0.217-2.903-0.835-3.43
		c-1.724-1.47-5.281-0.998-11.533,1.529l-0.416,0.166c-0.998,0.378-1.817,0.763-2.541,1.103c-2.087,0.979-3.236,1.52-6.014,0.667
		c-1.112-0.339-3.799-0.023-8.067,0.638c-0.377,0.058-0.688,0.107-0.901,0.138c-1.941-1.015-3.776-1.265-5.457-0.743
		c-3.404,1.055-5.297,4.902-6.819,7.994c-0.406,0.825-0.79,1.604-1.142,2.193c-0.529,0.886-0.965,0.971-1.108,0.999
		c-1.008,0.197-2.689-1.082-4.173-2.208c-2.391-1.815-5.367-4.074-8.145-2.244c-0.402,0.265-1.099,0.173-1.838,0.075
		c-1.238-0.164-3.544-0.47-4.188,2.278c-0.072,0.303-0.404,1.265-0.755,2.283c-0.901,2.608-1.553,4.609-1.985,6.161
		c-1.922-1.036-3.667-1.166-5.198-0.363c-3.828,2.006-4.67,9.386-4.855,12.706c-2.68-0.104-6.582,1.307-10.464,2.844
		c-0.684,0.271-1.446,0.573-1.783,0.679c-2.091-0.504-2.28-1.607-2.467-3.79c-0.222-2.574-0.534-6.091-7.252-6.02
		c-1.625,0.02-2.836,0.526-3.602,1.503c-1.456,1.858-0.791,4.701-0.257,6.985c0.164,0.703,0.319,1.366,0.348,1.777
		c0.16,2.258-1.695,4.189-3.489,6.056c-0.644,0.67-1.252,1.303-1.774,1.956c-2.301,2.883-3.436,5.303-3.851,7.321
		c-0.098-0.074-0.129-0.12-0.13-0.12c-0.023-0.125,0.143-0.551,0.243-0.806c0.347-0.886,0.927-2.369-0.253-3.889
		c-1.13-1.454-3.326-1.659-5.449-1.857c-0.825-0.077-3.018-0.282-3.087-0.673c-0.32-1.806-1.543-2.952-2.526-3.874
		c-1.194-1.119-1.755-1.708-1.458-2.841c0.151-0.574,1.412-5.686-0.927-8.332c-0.663-0.75-1.892-1.584-3.999-1.3
		c-3.545,0.479-10.078,8.115-11.295,11.743c-0.429,1.278-0.314,2.255,0.341,2.906c0.583,0.579,0.625,1.009,0.605,1.283
		c-0.112,1.575-2.903,3.651-4.94,5.167c-1.54,1.145-2.809,2.098-3.472,3.05c-1.195-0.716-2.877-1.272-5.301-1.666
		c-2.05-0.332-4.911,0.915-7.94,2.234c-3.632,1.583-7.748,3.376-8.969,1.634c-0.503-0.718-1.771-1.742-4.616-0.54
		c-3.714,1.572-8.943,6.592-8.281,10.041c0.454,2.37,7.521,13.684,9.507,14.693c1.575,0.799,2.369,1.646,2.359,2.519
		c-0.039,3.488-10.302,8.415-14.165,10.27c-2.688,1.29-3.1,1.488-3.315,2.104c-0.099,0.286-0.08,0.626,0.053,0.898
		c0.352,0.718,0.711,1.527,1.091,2.382c2.071,4.656,4.907,11.034,10.462,11.399c0.492,0.033,0.641,0.201,0.742,0.5
		c0.679,2.002-1.833,7.179-2.656,7.9c-4.155,3.571-0.438,11.772,2.149,16.344c1.809,3.192,6.348,6.239,11.296,7.582
		c3.908,1.06,7.419,0.856,9.888-0.576c0.363-0.211,0.636-0.343,0.837-0.425c-0.341,1.489-2.252,4.939-3.059,5.735
		c-2.416,2.381-3.312,5.515-2.283,7.984c0.954,2.291,3.337,3.561,6.598,3.547c5.349-0.06,14.929-3.852,18.484-8.193
		c1.353-1.653,1.874-3.409,2.333-4.958c0.385-1.297,0.748-2.522,1.55-3.597c0.637-0.852,1.508-1.218,2.517-1.642
		c1.603-0.673,3.597-1.511,4.228-4.618c1.21-5.954,7.943-5.727,14.369-4.722c1.699,0.266,10.015,3.317,11.407,4.075
		c2.381,3.995,13.941,11.012,18.238,11.012c0.021,0,0.042,0,0.062,0c7.54-0.121,8.731,5.244,9.721,13.445
		c0.204,1.689,0.396,3.285,0.704,4.753c0.629,3.004,2.413,5.803,4.138,8.508c1.938,3.039,3.768,5.91,3.928,8.79
		c-0.007,0.17-0.071,0.604-0.157,1.216c-1.062,7.629-1.271,12.966,1.16,14.215c1.787,0.919,3.682-0.883,4.304-1.475
		c0.638-0.605,0.975-0.669,1.035-0.65c0.601,0.178,1.238,2.84,1.51,3.977c0.54,2.255,0.967,4.036,2.343,4.374
		c7.114,1.756,7.197,4.811,7.348,10.354c0.023,0.874,0.049,1.79,0.104,2.748c0.113,1.969,0.692,3.292,1.769,4.045
		c1.712,1.197,4.083,0.482,6.175-0.148c1.316-0.397,2.808-0.846,3.533-0.587c5.829,2.09,7.807,5.641,10.311,10.136
		c0.784,1.407,1.595,2.863,2.584,4.393c1.015,1.569,3.295,2.735,5.71,3.969c2.188,1.118,4.451,2.274,5.687,3.673
		c0.429,0.485,0.675,1.596,0.893,2.576c0.309,1.391,0.6,2.705,1.504,3.458c1.027,0.855,1.979,1.589,2.9,2.299
		c2.401,1.85,4.475,3.447,6.694,6.329c2.987,3.877,4.575,5.022,8.94,6.445c0.999,0.325,1.799,0.371,2.442,0.408
		c0.986,0.057,1.582,0.091,2.684,1.13c0.23,0.217,0.647,1.151,0.952,1.833c0.985,2.208,2.467,5.539,5.414,4.765
		c1.483-0.393,2.524-1.12,3.442-1.762c1.421-0.991,2.357-1.65,4.556-0.931c0.855,0.278,1.71,0.876,2.536,1.454
		c1.975,1.38,4.681,3.273,7.824,0c0.16-0.167,0.253-0.169,0.358-0.151c1.117,0.165,3.489,2.411,8.445,12.174
		c0.322,0.635,0.567,1.116,0.714,1.376c0.547,0.968,0.731,1.966,0.911,2.932c0.233,1.263,0.476,2.569,1.636,3.289
		c1.031,0.64,2.456,0.635,4.768-0.022c0.527-0.15,0.987-0.288,1.393-0.409c1.081-0.323,1.866-0.56,2.152-0.46
		c0.322,0.108,0.898,0.816,1.696,1.796c0.031,0.038,0.063,0.077,0.095,0.116c-1.916,1.094-3.813,2.596-3.505,4.453
		c0.262,1.582,2.015,2.639,5.069,3.057c3.814,0.52,9.943-0.098,12.164-2.906c1.203,1.44,3.413,5.609,3.801,6.552
		c0.682,1.822,0.483,2.122-0.174,3.115c-0.355,0.537-0.799,1.206-1.213,2.214c-0.708,1.722-0.767,3.256-0.176,4.561
		c1.107,2.443,4.112,3.474,7.019,4.469c1.769,0.606,3.597,1.233,4.479,2.077c0.195,0.188,0.549,0.737,0.89,1.27
		c1.193,1.857,2.828,4.402,5.324,4.558c1.507,0.103,2.95-0.711,4.349-2.387c0.601-0.72,1.476-1.539,2.194-1.355
		c2.538,0.64,4.439,9.891,5.155,13.373c0.288,1.403,0.497,2.418,0.684,2.974c0.732,2.18,1.998,3.842,3.222,5.449
		c1.056,1.386,2.052,2.695,2.672,4.273c0.836,2.128,0.959,4.407,1.089,6.82c0.077,1.422,0.156,2.893,0.394,4.34
		c0.081,0.489,0.429,1.199,1.279,2.898c1.252,2.501,4.576,9.146,3.525,10.861c-0.054,0.087-0.194,0.317-0.878,0.322
		c-0.464,0.004-0.874,0.002-1.247,0.002c-3.252-0.042-3.848,0.088-8.113,2.619c-0.996,0.592-2.34,1.538-2.5,2.918
		c-0.158,1.354,0.842,2.319,1.725,3.17c0.637,0.615,1.296,1.251,1.32,1.818c0.157,3.756-1.974,5.319-4.441,7.129
		c-1.53,1.123-3.113,2.283-4.112,4.028c-1.997,3.485-1.324,9.803,1.469,13.796c1.613,2.306,3.746,3.529,6.101,3.528
		c0.396,0,0.8-0.034,1.207-0.104c9.039-1.557,10.618-4.515,13.232-9.417c0.944-1.771,2.016-3.778,3.654-6.161
		c1.374-2.005,3.055-3.022,4.681-4.007c2.981-1.807,5.799-3.513,4.885-10.196c-0.398-2.916,1.449-10.237,5.026-12.589
		c1.498-0.983,3.089-0.941,4.868,0.134c2.03,1.226,4.366,1.165,6.581-0.17c2.536-1.528,4.424-4.487,4.297-6.736
		c-0.065-1.163-0.65-2.055-1.647-2.511c-1.683-0.77-1.14-4.991-0.742-8.074c0.28-2.175,0.521-4.054,0.213-5.323
		c-0.898-3.696-5.993-6.135-11.388-8.717c-4.253-2.035-9.073-4.343-9.641-6.714c-0.172-0.716,0.063-1.479,0.72-2.335
		c0.673-0.877,1.574-2.996,3.11-6.667c2.784-6.655,7.967-19.043,12.008-19.914c0.388-0.08,0.999-0.112,1.778,0.613
		c0.867,0.809,1.647,1.795,2.474,2.84c2.457,3.104,5.228,6.62,11.196,6.229c2.67-0.181,5.647,0.044,9.104,0.679
		c0.101,0.213,0.146,0.774,0.168,1.057c0.058,0.724,0.117,1.473,0.775,1.896c1.867,1.189,2.327,3.192,2.86,5.513
		c0.679,2.95,1.447,6.295,5.259,8.599c3.796,2.294,6.203,2.986,8.052,2.329c2.011-0.721,2.749-2.81,3.603-5.229
		c0.675-1.91,1.439-4.074,2.959-6.021C454.773,337.082,444.26,326.924,439.49,322.874z M329.808,256.772
		c2.532,1.239,4.756,2.334,6.731,4.271c-0.965,1.479-0.942,3.9-0.916,6.451c0.021,1.883,0.051,4.728-0.649,5.187
		c-0.146,0.041-0.642-0.097-0.906-0.171c-0.739-0.207-1.658-0.465-2.458,0.116c-0.813,0.589-0.858,1.643-0.873,1.988l-0.005,0.115
		c-0.071,1.678-0.191,4.485-1.336,5.372c-0.147,0.114-0.593,0.462-1.725,0.221c-2.24-0.476-3.754,0.815-4.97,1.851
		c-1.572,1.337-2.706,2.304-5.357,0.89c-0.356-0.19-0.797-0.441-1.297-0.727c-4.584-2.616-9.293-5.016-12.059-3.212
		c-0.674,0.44-1.15,1.09-1.437,1.934l-1.427-1.168c0.063-0.363,0.114-0.725,0.151-1.083c0.209-2.022-0.043-3.823-0.71-5.329
		c0.322-0.111,0.714-0.242,1.104-0.372c3.875-1.29,5.244-1.847,5.716-2.596c0.715-1.135,0.714-2.277,0.713-3.286
		c-0.001-1.524-0.002-2.532,2.211-3.688c1.021-0.534,2.066-0.527,3.109,0.021c1.782,0.937,3.052,3.177,3.249,4.801
		c0.076,0.621,0.636,1.054,1.263,0.989c0.478-0.059,0.844-0.407,0.956-0.847c3.005-2.127,5.089-6.195,6.926-9.808
		c0.568-1.117,1.109-2.173,1.641-3.108C328.255,256.005,329.044,256.398,329.808,256.772z M309.896,239.144
		c3.566,3.942,8.957,9.898,12.988,11.296c1.324,0.459,1.482,0.964,1.769,1.88c0.178,0.569,0.399,1.271,0.951,1.931
		c-0.599,1.034-1.19,2.19-1.813,3.415c-1.538,3.024-3.256,6.401-5.428,8.369c-0.776-1.886-2.225-3.61-3.89-4.485
		c-1.716-0.903-3.52-0.91-5.215-0.023c-3.432,1.793-3.43,4.052-3.428,5.701c0.001,0.791,0.001,1.426-0.31,1.983
		c-0.61,0.426-3.27,1.312-4.567,1.744c-0.761,0.253-1.283,0.428-1.637,0.562c-2.625-2.937-5.961-2.603-8.909-2.309
		c-2.502,0.254-4.868,0.491-6.775-1.137c-0.635-0.543-1.489-1.772-2.394-3.075c-2.54-3.654-6.342-9.132-11.021-6.652
		c-0.335-1.032-0.245-3.641,0.085-4.189c1.572-1.599,2.768-1.424,4.748-1.134c1.063,0.155,2.268,0.332,3.688,0.231
		c0.301-0.021,0.58-0.161,0.777-0.389c0.197-0.228,0.296-0.525,0.273-0.825c-0.056-0.758-0.632-1.88-1.929-4.349
		c-2.095-3.983-5.994-11.399-4.216-13.842c0.794-1.093,2.926-0.984,4.576-0.698c3.465,0.604,5.331-2.423,6.828-4.853
		c1.753-2.845,2.457-3.57,3.731-2.907c2.438,1.266,5.057-0.515,7.371-2.085c1.174-0.797,2.382-1.615,3.389-1.925
		c2.062,5.893,4.742,11.633,9.292,16.596C309.155,238.325,309.51,238.719,309.896,239.144z M270.651,178.284
		c4.789,4.77,10.217,10.174,15.114,8.305c0.145-0.056,0.316-0.086,0.588,0.043c2.116,1.025,4.221,7.749,5.119,10.62
		c0.319,1.02,0.55,1.756,0.726,2.152c1.985,4.457,3.391,9.18,4.75,13.747c0.602,2.02,1.209,4.055,1.87,6.081
		c-1.319,0.422-2.647,1.319-3.938,2.195c-1.876,1.274-3.813,2.593-5.052,1.95c-3.335-1.733-5.285,1.423-6.707,3.729
		c-0.768,1.245-1.438,2.27-2.141,2.948c-1.574-1.914-3.645-3.197-6.304-3.926c0.861-0.906,1.689-1.92,2.46-3.118
		c0.191-0.299,0.232-0.669,0.11-1.003c-0.121-0.333-0.393-0.59-0.731-0.694c-0.234-0.072-2.28-0.539-4.209-0.918
		c-1.993-0.393-3.171-0.577-3.909-0.582c-2.349-2.767-2.803-5.398-3.322-8.415c-0.297-1.718-0.603-3.496-1.273-5.442
		c-0.188-0.547-0.394-1.24-0.618-1.999c-0.764-2.578-1.715-5.787-3.112-7.327c-1.336-1.472-3.081-0.842-4.233-0.425
		c-0.608,0.22-1.296,0.467-1.634,0.333c-1.668-0.675-6.626-4.556-7.08-5.904c0.568-0.294,0.978-0.749,1.161-1.34
		c0.185-0.598-0.143-1.248-0.741-1.432c-0.598-0.182-1.225,0.136-1.41,0.735c-0.109,0.114-0.781,0.272-1.723-0.026
		c-0.705-0.223-1.568-0.738-1.682-1.454c-0.132-0.834,0.745-1.993,2.406-3.18c0.092-0.065,0.155-0.152,0.221-0.237
		c0.161-0.109,0.299-0.256,0.389-0.444c0.271-0.564,0.032-1.242-0.533-1.512c-0.401-0.192-0.882-0.497-0.898-0.854
		c-0.036-0.802,1.458-2.356,3.33-3.464c1.935-1.145,1.503-2.727,1.296-3.487c-0.173-0.634-0.173-0.634,0.143-0.842
		c1.867-1.232,2.694-0.551,4.388,1.111c1.479,1.453,3.502,3.444,6.769,2.187c0.356-0.137,0.621-0.445,0.701-0.819
		c0.081-0.374-0.033-0.764-0.302-1.036c-0.555-0.562-0.555-0.562,0.141-1.403c0.354-0.429,0.771-0.955,1.018-1.619
		c0.946,0.547,1.887,1.056,2.797,1.518C266.197,173.847,268.361,176.003,270.651,178.284z M246.679,200.151
		c-0.543-1.165-1.987-1.606-3.516-2.073c-2.192-0.67-3.148-1.116-3.019-1.991c0.067-0.456,0.528-0.956,1.061-1.534
		c0.814-0.885,1.891-2.055,2.292-3.906c0.461,0.166,0.933,0.275,1.395,0.324c0.663,2.922,7.319,7.207,8.462,7.669
		c1.141,0.461,2.313,0.038,3.255-0.302c1.192-0.431,1.526-0.466,1.783-0.184c1.051,1.156,1.956,4.214,2.618,6.447
		c0.235,0.795,0.45,1.52,0.647,2.093c0.611,1.773,0.902,3.458,1.183,5.088c0.59,3.421,1.147,6.653,4.379,10.115
		c0.377,0.402,0.978,0.468,1.425,0.191c1.077,0.084,3.847,0.642,5.645,1.033c-2.181,2.833-4.745,4.492-7.44,6.235
		c-2.719,1.759-5.53,3.577-8.155,6.69c-0.355,0.338-1.126,1.135-3.064,3.155c-1.315,1.371-2.139,2.23-2.646,2.806
		c-0.388-0.453-0.586-1.634-0.777-2.998c-0.255-1.817-0.496-3.534-1.794-4.181c-0.718-0.359-1.557-0.278-2.496,0.242
		c-0.285,0.158-0.502,0.209-0.647,0.157c-0.631-0.233-1.294-2.008-1.778-3.304c-0.847-2.27-1.724-4.617-3.755-5.083
		c-1.238-0.283-2.58,0.23-4.097,1.568c-0.323-0.397-0.774-1.125-1.126-1.693c-0.673-1.087-1.432-2.308-2.336-3.249
		c1.178-2.399,1.441-6.218,1.667-9.607c0.143-2.131,0.358-5.351,0.835-5.854c0.395-0.255,1.507-0.629,2.582-0.99
		c2.917-0.98,6.547-2.201,7.489-4.401C247.088,201.826,247.063,200.973,246.679,200.151z M247.12,151.638
		c0.527,1.81,0.981,3.374,1.139,4.324c1.019,6.116,6.193,10.921,11.593,14.369c-0.05,0.09-0.104,0.177-0.13,0.283
		c-0.082,0.341-0.377,0.698-0.689,1.076c-0.5,0.604-1.308,1.582-1,2.827c-1.033-0.084-1.852-0.828-2.972-1.928
		c-1.581-1.554-3.748-3.682-7.226-1.386c-1.686,1.115-1.278,2.612-1.082,3.332c0.184,0.674,0.184,0.674-0.264,0.939
		c-0.521,0.309-1.615,1.008-2.587,1.944c-1.393-0.485-2.671-0.078-3.547,1.163c-1.682,1.833-2.265,1.462-3.8,0.481
		c-1.186-0.757-2.81-1.791-5.148-1.41c-1.239,0.202-2.115,0.032-2.606-0.505c-1.517-1.656-0.229-6.693,0.32-8.845
		c0.156-0.611,0.282-1.109,0.341-1.439c0.635-3.536-13.12-7.83-13.259-7.873c-2.313-0.713-4.631,1.363-6.673,3.196
		c-1.065,0.957-2.671,2.397-3.296,2.299c-0.092-0.015-0.223-0.159-0.348-0.383c-0.475-0.852-1.046-1.358-1.746-1.548
		c-1.06-0.292-1.997,0.261-2.823,0.747c-1.258,0.739-1.856,0.981-2.729,0.386c-2.616-1.783-4.399-1.77-5.827-1.763
		c-1.478,0.017-2.665,0.017-4.954-2.25c-2.225-2.204-4.787-3.127-7.264-4.021c-2.662-0.959-5.175-1.866-7.213-4.322
		c-2.787-3.358-5.307-4.875-7.701-4.626c-1.76,0.18-3.328,1.325-4.678,3.387c-1.351-1.307-3.236-1.07-4.977-0.823
		c0.479-1.526,0.438-2.798-0.135-3.841c-1.4-2.545-5.415-2.726-8.957-2.886c-0.782-0.035-1.528-0.072-2.213-0.128
		c0.079-0.646,0.1-1.304,0.059-1.974c1.133-0.272,2.253-0.619,3.33-1.053c0.199-0.081,0.372-0.216,0.497-0.391
		c0.539-0.75,0.126-6.999,0.043-7.319c-0.046-0.178-0.186-0.718-0.731-0.976c-0.147-0.069-0.392-0.186-0.392-0.809
		c0.001-2.709,4.275-8.27,5.837-9.006c2.1-0.993,3.365-0.525,4.828,0.015c1.083,0.4,2.203,0.815,3.566,0.549
		c2.462-0.479,3.338-1.526,4.041-2.367c0.421-0.503,0.7-0.836,1.331-1.046c0.674-0.216,2.803,1.829,3.832,2.814
		c1.683,1.611,3.136,3.002,4.563,3.165c1.875,0.215,3.936,1.348,5.928,2.443c3.789,2.084,8.083,4.445,11.858,0.63
		c1.028-1.04,1.285-0.915,2.84,0.582c0.623,0.6,1.328,1.279,2.203,1.813c1.353,0.83,2.961,0.034,4.516-0.736
		c1.33-0.658,2.836-1.405,3.869-0.999c0.291,0.114,0.291,0.114,1.814-0.03c1.243-0.118,4.934-0.47,5.842-0.331
		c1.571,1.063,8.088,3.42,9.253,3.283c1.744-0.204,3.091-1.007,4.394-1.784c1.185-0.706,2.304-1.374,3.67-1.552
		c1.349-0.177,3.296,0.236,5.183,0.636c2.567,0.543,5.22,1.105,7.156,0.393c0.475,0.455,1.166,2.333,1.589,3.484
		c0.39,1.06,0.772,2.097,1.205,2.994c-0.35-0.028-0.707,0.086-0.952,0.373C243.427,138.036,244.992,144.322,247.12,151.638z
		 M267.519,49.255c2.568,0.354,5.479,0.754,6.829,1.531c1.184,0.681,3.428,0.758,6.991,0.829c3.859,0.076,9.146,0.181,10.667,1.786
		c0.275,0.291,0.393,0.606,0.379,1.021c-0.061,1.806-3.249,4.307-5.578,6.134c-2.928,2.297-5.24,4.111-4.196,6.008
		c0.911,1.655,2.936,1.937,4.893,2.21c2.415,0.336,3.574,0.622,3.771,1.783c0.176,1.041-1.722,2.826-2.978,4.008
		c-0.866,0.815-1.685,1.585-2.161,2.305c-0.2,0.301-0.244,0.68-0.119,1.019c0.125,0.339,0.404,0.599,0.752,0.698
		c0.651,0.186,2.634,0.753,2.954,1.342c0.201,0.369-0.097,1.344-0.474,2.579c-0.149,0.489-0.315,1.032-0.482,1.635
		c-0.456,1.631,1.485,3.551,6.024,7.544c1.326,1.167,2.579,2.27,3.063,2.863c0.826,1.013,1.047,1.797,0.658,2.329
		c-0.838,1.145-3.98,1.579-6.062,0.874c-0.391-0.611-1.234-2.616-2.513-5.972c-0.143-0.373-0.254-0.664-0.32-0.832
		c-0.232-0.582-0.893-0.865-1.473-0.635c-0.582,0.231-0.866,0.891-0.635,1.473c0.001,0.001,0.001,0.004,0.002,0.005
		c-0.278,0.167-0.566,0.346-0.863,0.531c-1.695,1.057-3.805,2.369-5.267,1.967c-0.727-0.202-0.911-0.563-1.248-1.216
		c-0.489-0.95-1.207-2.377-3.97-2.346c-0.123,0.002-0.236,0.038-0.347,0.076c-0.261-0.279-0.559-0.56-0.942-0.844
		c-0.502-0.372-1.213-0.266-1.586,0.238c-0.372,0.503-0.266,1.213,0.238,1.585c0.583,0.431,1.244,1.063,1.081,1.62
		c-0.247,0.848-1.782,1.752-3.397,2.351c-0.378-0.941-0.833-1.864-1.276-2.764c-1.024-2.079-1.992-4.042-2.032-6.104
		c-0.012-0.619-0.518-1.112-1.134-1.112c-0.007,0-0.015,0-0.022,0c-0.402,0.008-0.735,0.236-0.93,0.557
		c-0.812,0.088-1.722,0.22-2.679,0.36c-2.166,0.316-4.62,0.678-6.128,0.519c-2.023-0.21-2.642-1.208-3.498-2.588
		c-0.707-1.14-1.509-2.433-3.211-3.116c-0.488-0.195-0.645-0.45-0.727-0.651c-0.503-1.227,0.623-3.807,1.446-5.69
		c0.648-1.483,1.16-2.655,1.193-3.58c0.073-2.061-1.595-2.885-2.698-3.431c-0.564-0.279-1.147-0.567-1.34-0.895
		c-1.864-3.171,3.867-7.522,6.622-9.613c1.795-1.363,2.467-1.873,2.076-2.847c-0.277-0.692-0.258-0.974-0.279-0.989
		c0.161-0.106,0.731-0.176,1.075-0.218c1.029-0.126,2.751-0.338,3.119-2.061c0.172-0.812-0.026-1.558-0.201-2.217
		c-0.258-0.969-0.255-1.192,0.022-1.458c0.463,0.11,0.925,0.223,1.368,0.366C263.439,48.694,265.421,48.966,267.519,49.255z
		 M252.246,46.694c0.83,0.106,1.672,0.199,2.524,0.288c1.166,0.122,2.35,0.25,3.513,0.424c-0.298,0.908-0.069,1.819,0.109,2.492
		c0.121,0.454,0.235,0.882,0.174,1.182c-0.135,0.135-0.812,0.218-1.176,0.262c-0.946,0.116-2.125,0.261-2.73,1.284
		c-0.445,0.753-0.345,1.624-0.128,2.357c-0.292,0.238-0.717,0.561-1.108,0.858c-3.275,2.486-10.09,7.66-7.205,12.569
		c0.536,0.911,1.468,1.372,2.29,1.778c1.129,0.558,1.455,0.799,1.437,1.317c-0.018,0.493-0.542,1.693-1.004,2.752
		c-1.094,2.505-2.333,5.344-1.466,7.459c0.359,0.875,1.026,1.513,1.982,1.895c1.011,0.406,1.503,1.2,2.127,2.206
		c0.918,1.48,2.061,3.323,5.191,3.648c0.334,0.035,0.693,0.05,1.071,0.05c1.646,0,3.66-0.295,5.62-0.582
		c0.84-0.123,1.644-0.24,2.357-0.324c0.369,1.903,1.23,3.666,2.076,5.382c0.4,0.811,0.78,1.59,1.103,2.363
		c-0.202,0.033-0.398,0.059-0.577,0.071c-0.012,0.001-0.021,0.008-0.032,0.009c-0.075,0.007-0.146,0.038-0.22,0.061
		c-0.071,0.022-0.146,0.036-0.209,0.071c-0.011,0.006-0.022,0.005-0.033,0.011c-1.573,0.917-3.594,1.818-5.733,2.771
		c-7.866,3.506-17.655,7.869-15.129,17.482c0.823,3.132,2.515,5.059,4.008,6.759c2.201,2.506,3.53,4.019,1.422,8.272
		c-1.691,3.414-2.55,3.478-2.565,3.478c-0.653-0.035-1.746-3.007-2.213-4.276c-0.876-2.381-1.567-4.262-2.881-4.841
		c-0.5-0.22-1.035-0.225-1.548-0.016c-1.303,0.531-3.678,0.03-5.975-0.456c-2.072-0.439-4.217-0.894-5.947-0.666
		c-1.831,0.24-3.269,1.097-4.538,1.853c-1.149,0.685-2.234,1.332-3.406,1.475c-0.483-0.029-2.006-0.511-3.581-1.079
		c0.014-0.285-0.078-0.576-0.283-0.806c-4.113-4.624-7.644-6.913-12.951-8.378c-6.3-5.057-9.36-7.489-10.963-8.563
		c0.375-0.849,0.739-1.702,1.092-2.559c0.177-0.43,0.074-0.923-0.259-1.247c-1.125-1.09-2.128-2.312-2.983-3.631
		c-0.784-2.087,1.17-4.868,2.745-7.108c0.293-0.417,0.571-0.818,0.831-1.208c1.653,1.572,3.479,3.095,5.146,3.095
		c0.303,0,0.601-0.05,0.892-0.16c0.411-0.155,0.756-0.409,1.035-0.762c0.508,0.126,1.004,0.206,1.475,0.206
		c0.834,0,1.608-0.196,2.315-0.588c2.558-1.417,3.53-5.006,4.312-7.889c0.219-0.811,0.427-1.576,0.638-2.163
		c0.002-0.007,0.005-0.013,0.007-0.02c0.094,0.01,0.214,0.03,0.304,0.045c0.758,0.127,2.539,0.42,3.384-2.03
		c0.751-2.178,2.075-2.082,5.136-1.318c2.154,0.538,5.41,1.352,6.338-2.099c0.363-1.35,0.192-2.412,0.066-3.187
		c-0.042-0.256-0.098-0.607-0.121-0.632c0.027-0.025,0.308-0.255,1.756-0.444c3.369-0.436,6.748-3.087,6.373-7.143
		c-0.182-1.963-1.578-3.2-2.701-4.193c-1.244-1.101-1.729-1.627-1.524-2.413c0.136-0.519,0.577-1.075,1.044-1.664
		c0.743-0.938,1.76-2.228,1.436-3.768c2.552-0.566,3.673-2.997,4.591-4.998c0.301-0.657,0.588-1.282,0.908-1.801
		c0.355,0.286,0.874,0.905,1.181,1.272c0.707,0.843,1.217,1.453,1.908,1.605c2.888,0.639,5.952-0.459,7.809-2.797
		C251.58,48.981,252.066,47.851,252.246,46.694z M185.248,41.108c0.475-1.373,0.726-2.107,0.82-2.505
		c0.152-0.648,0.172-0.748,1.683-0.548c1.015,0.135,2.276,0.303,3.385-0.43c1.336-0.881,3.056,0.283,5.525,2.157
		c2.043,1.552,3.981,3.021,5.976,2.628c1.045-0.203,1.928-0.896,2.624-2.063c0.399-0.668,0.802-1.487,1.229-2.354
		c1.329-2.701,2.983-6.063,5.456-6.829c1.172-0.365,2.479-0.125,3.995,0.729c0.372,0.209,0.401,0.205,2.039-0.049
		c4.1-0.635,6.476-0.874,7.057-0.71c3.609,1.106,5.389,0.273,7.64-0.782c0.688-0.322,1.466-0.688,2.383-1.036
		c0.102-0.039,0.258-0.102,0.461-0.184c7.203-2.912,8.872-2.196,9.212-1.905c0.269,0.229,0.175,0.849,0.095,1.199
		c-0.354,1.547-0.972,1.835-1.626,2.142c-0.481,0.225-1.14,0.532-1.404,1.312c-0.292,0.863,0.083,1.874,0.735,3.125
		c0.713,1.368,1.97,2.669,3.301,4.047c1.473,1.525,2.995,3.103,3.807,4.8c0.745,1.558,0.514,3.28-0.634,4.724
		c-1.294,1.63-3.409,2.413-5.42,2.02c-0.183-0.157-0.539-0.582-0.783-0.874c-0.937-1.119-1.876-2.269-3.154-2.212
		c-0.344,0.018-0.996,0.158-1.498,0.899c-0.475,0.695-0.862,1.538-1.236,2.354c-1.075,2.342-1.854,3.767-3.607,3.801
		c-0.126,0.002-0.242,0.039-0.354,0.079c-0.373-0.129-0.798-0.076-1.116,0.204c-0.47,0.414-0.515,1.131-0.101,1.601
		c0.727,0.824,0.555,1.205-0.565,2.618c-0.564,0.712-1.204,1.519-1.461,2.499c-0.578,2.212,0.971,3.583,2.215,4.685
		c0.95,0.84,1.847,1.635,1.946,2.704c0.244,2.642-2.087,4.385-4.407,4.685c-1.796,0.235-2.744,0.618-3.27,1.324
		c-0.57,0.765-0.433,1.614-0.312,2.364c0.108,0.667,0.219,1.355-0.017,2.235c-0.28,1.038-0.732,1.204-3.599,0.488
		c-2.518-0.629-6.326-1.58-7.829,2.778c-0.221,0.639-0.22,0.64-0.871,0.533c-0.648-0.108-2.166-0.359-2.815,1.444
		c-0.242,0.674-0.461,1.482-0.693,2.338c-0.669,2.471-1.502,5.546-3.222,6.499c-0.538,0.298-1.169,0.364-1.905,0.223
		c0.019-0.139,0.04-0.275,0.052-0.424c0.052-0.624-0.412-1.172-1.037-1.223c-0.615-0.063-1.172,0.412-1.223,1.037
		c-0.088,1.061-0.347,1.369-0.412,1.393c-0.19,0.068-1.043,0.087-3.978-2.745c-0.023-0.023-0.037-0.035-0.06-0.057
		c0.867-1.166,1.371-2.483,1.491-3.935c0.017-0.197-0.019-0.395-0.103-0.574c-0.316-0.675-0.831-1.149-1.489-1.372
		c-1.582-0.535-3.505,0.469-5.544,1.532c-1.006,0.524-2.685,1.408-3.153,1.278c-2.074-0.915-2.011-1.958-1.907-3.686
		c0.075-1.253,0.169-2.813-0.969-4.114c-1.263-1.438-0.359-3.566,1.163-6.65c0.968-1.96,1.968-3.987,1.937-5.863
		c-0.028-1.661-0.214-2.866-0.35-3.746c-0.311-2.014-0.344-2.225,2.55-4.4c0.263-0.197,0.427-0.499,0.45-0.826
		c0.023-0.328-0.097-0.649-0.329-0.882c-0.974-0.974-2.321-1.619-3.623-2.243c-1.392-0.667-2.831-1.356-3.346-2.293
		c-0.417-0.758-0.457-1.469-0.504-2.291c-0.004-0.067-0.009-0.139-0.014-0.208c0.245-0.219,0.403-0.53,0.387-0.883
		c-0.021-0.458-0.313-0.83-0.712-0.992c-0.201-0.583-0.546-1.176-1.122-1.757C183.656,45.717,184.737,42.587,185.248,41.108z
		 M134.543,74.759c0.358,0.461,0.271,0.805-0.067,1.671c-0.283,0.723-0.635,1.622-0.19,2.58c0.316,0.681,0.982,1.196,2.028,1.617
		c0.14,1.583,0.759,2.828,1.51,3.768c0.224,0.28,0.554,0.426,0.886,0.426c0.249,0,0.499-0.081,0.708-0.248
		c0.489-0.391,0.569-1.104,0.178-1.594c-2.498-3.125-0.018-7.545,2.502-10.702c0.457-0.571,1.03-1.168,1.637-1.8
		c2.038-2.121,4.347-4.524,4.115-7.787c-0.042-0.592-0.208-1.306-0.402-2.133c-0.401-1.717-0.951-4.069-0.166-5.071
		c0.321-0.409,0.941-0.623,1.844-0.634c4.646-0.054,4.751,1.452,4.965,3.946c0.182,2.115,0.431,5.011,4.465,5.86
		c0.488,0.104,0.879-0.043,2.88-0.835c5.061-2.004,8.354-2.917,9.833-2.729c0.191,0.243,0.469,0.405,0.796,0.429
		c0.108,0.309,0.042,0.994-0.46,2.142c-0.251,0.574,0.01,1.242,0.583,1.494c0.206,0.09,0.419,0.095,0.626,0.062l1.668,2.085
		c0.224,0.28,0.554,0.426,0.886,0.426c0.249,0,0.499-0.081,0.708-0.248c0.489-0.391,0.569-1.104,0.178-1.594l-1.982-2.477
		c-0.038-0.047-0.09-0.073-0.134-0.112c0.424-1.513,0.259-2.687-0.515-3.489c-0.098-0.102-0.21-0.186-0.323-0.27
		c0.149-4.16,1.188-10.065,3.673-11.368c0.935-0.489,2.149-0.261,3.605,0.667c-0.278,1.662-0.058,2.444,0.567,2.905
		c0.209,0.154,0.456,0.23,0.724,0.22l0.416-0.019c0.052,0.906,0.122,2.025,0.778,3.22c0.866,1.576,2.639,2.425,4.354,3.246
		c0.671,0.322,1.356,0.65,1.948,1.01c-2.495,2.058-2.65,3.101-2.257,5.643c0.133,0.86,0.298,1.931,0.323,3.437
		c0.022,1.327-0.855,3.104-1.703,4.821c-1.496,3.03-3.191,6.465-0.835,9.148c0.499,0.57,0.481,1.314,0.411,2.483
		c-0.11,1.834-0.261,4.345,3.255,5.896c1.375,0.607,3.109-0.295,5.118-1.342c1.237-0.645,3.109-1.619,3.768-1.396
		c0.004,0.001,0.008,0.003,0.013,0.004c-0.176,1.158-0.7,2.165-1.596,3.068c-0.229,0.23-0.333,0.534-0.322,0.835
		c-0.318,0.519-0.717,1.096-1.153,1.717c-1.916,2.727-4.301,6.12-2.95,9.369c0.025,0.061,0.056,0.12,0.092,0.176
		c0.822,1.283,1.77,2.484,2.825,3.578c-0.374,0.89-0.76,1.774-1.157,2.653c-0.22,0.486-0.071,1.059,0.356,1.376
		c0.021,0.016,0.041,0.03,0.063,0.044c0.64,0.471,11.021,8.532,11.722,9.102c0.128,0.112,0.282,0.195,0.451,0.241
		c3.803,1.023,6.539,2.44,9.332,4.964c-0.749-0.234-2.333-0.207-6.832,0.221c-0.444,0.042-0.798,0.077-1.007,0.093
		c-1.896-0.607-3.87,0.371-5.468,1.161c-0.662,0.327-2.042,1.008-2.326,0.833c-0.665-0.406-1.249-0.968-1.814-1.513
		c-1.339-1.288-3.361-3.235-6.025-0.542c-2.446,2.473-5.072,1.222-9.153-1.022c-2.185-1.202-4.444-2.444-6.763-2.709
		c-0.668-0.077-2.162-1.506-3.252-2.55c-2.139-2.047-4.161-3.979-6.117-3.328c-1.242,0.414-1.858,1.151-2.354,1.743
		c-0.594,0.71-1.063,1.271-2.733,1.596c-0.743,0.143-1.45-0.119-2.349-0.451c-1.613-0.595-3.623-1.337-6.582,0.062
		c-2.184,1.029-7.136,7.305-7.138,11.056c0,1.134,0.437,2.041,1.243,2.602c0.136,0.984,0.131,3.74,0.094,5.046
		c-0.707,0.258-1.432,0.47-2.163,0.652c-0.479-1.924-1.404-3.881-2.771-5.775c-3.15-4.366-8.02-7.582-12.117-8.001
		c-2.061-0.211-5.094-4.486-6.492-9.148c-1.008-3.361-0.733-5.459-0.013-6.046c0.609-0.497,1.985-0.232,3.775,0.727
		c0.025,0.333,0.093,0.691,0.213,1.077c0.151,0.486,0.599,0.797,1.082,0.797c0.112,0,0.225-0.017,0.337-0.052
		c0.598-0.186,0.932-0.821,0.746-1.419c-0.384-1.235,0.115-1.643,1.638-2.494c0.914-0.511,1.951-1.09,2.165-2.22
		c0.142-0.749-0.12-1.516-0.799-2.346c-1.113-1.361-1.916-3.265-2.693-5.105c-0.902-2.139-1.835-4.35-3.314-5.869
		c-3.474-3.558-0.172-11.298,2.013-16.419c0.351-0.824,0.671-1.589,0.955-2.301c0.519,0.074,1.05,0.126,1.567,0.174
		C132.163,73.907,134.016,74.08,134.543,74.759z M75.578,103.028c-1.429-0.931-7.97-11.225-8.332-13.113
		c-0.358-1.864,3.532-6.084,6.938-7.525c0.623-0.264,1.128-0.374,1.46-0.374c0.215,0,0.358,0.046,0.415,0.126
		c2.287,3.26,7.306,1.073,11.732-0.857c2.596-1.131,5.274-2.299,6.671-2.075c6.003,0.976,6.156,2.573,6.493,6.072
		c0.168,1.75,0.378,3.93,1.368,6.449c0.854,2.174,0.819,3.95-0.104,5.277c-1.629,2.343-5.672,3.117-8.918,3.05
		c-4.085-0.076-7.076,0.988-10.537,2.224c-1.697,0.605-3.45,1.231-5.518,1.791C76.775,103.701,76.219,103.352,75.578,103.028z
		 M91.292,164.396c-1.94,1.125-4.837,1.25-8.156,0.349c-4.333-1.176-8.411-3.853-9.917-6.511
		c-2.904-5.132-5.124-11.375-2.643-13.507c1.252-1.08,4.372-7.212,3.329-10.333c-0.412-1.231-1.387-1.959-2.746-2.049
		c-4.188-0.275-6.601-5.7-8.539-10.058c-0.24-0.539-0.472-1.06-0.698-1.553c0.476-0.241,1.134-0.557,1.778-0.866
		c7.45-3.577,15.401-7.771,15.451-12.29c0.006-0.558-0.105-1.09-0.332-1.594c1.75-0.513,3.304-1.067,4.705-1.567
		c3.386-1.208,6.079-2.152,9.732-2.092c1.858,0.032,8.131-0.152,10.823-4.022c1.382-1.988,1.501-4.478,0.352-7.401
		c-0.874-2.224-1.058-4.143-1.221-5.836c-0.189-1.972-0.435-3.597-1.374-4.897c0.012-0.027,0.034-0.045,0.044-0.074
		c0.19-0.545,1.854-1.783,3.07-2.687c2.654-1.975,5.663-4.213,5.849-6.825c0.077-1.081-0.326-2.083-1.196-2.979
		c-0.016-0.314,0.251-1.397,1.705-3.497c2.668-3.853,6.494-7.183,7.882-7.371c1.207-0.164,1.717,0.239,1.996,0.555
		c1.042,1.179,1,4.101,0.433,6.253c-0.655,2.491,0.873,3.923,2.101,5.073c0.851,0.798,1.655,1.551,1.844,2.615
		c0.151,0.847,0.662,1.38,1.353,1.74c-0.254,0.627-0.545,1.313-0.852,2.032c-2.421,5.676-6.081,14.253-1.55,18.892
		c1.18,1.212,1.99,3.133,2.849,5.167c0.839,1.989,1.707,4.045,3.027,5.661c0.237,0.29,0.301,0.451,0.327,0.463
		c-0.131,0.177-0.677,0.482-1.043,0.687c-0.681,0.38-1.67,0.938-2.305,1.842c-2.524-1.246-4.483-1.342-5.813-0.255
		c-2.279,1.86-1.433,6.096-0.726,8.455c1.483,4.946,4.943,10.395,8.434,10.752c3.437,0.352,7.758,3.26,10.509,7.072
		c1.938,2.686,2.868,5.464,2.698,7.957c-0.353-0.242-0.73-0.516-1.038-0.739c-1.989-1.449-4.048-2.948-5.546-1.893
		c-1.545,1.08-2.76,2.311-3.831,3.397c-2.575,2.611-4.436,4.499-9.415,3.26c-1.755-0.436-3.084,0.375-4.054,0.967
		c-1.184,0.722-1.423,0.76-1.975,0.308c-1.036-0.849-2.081-1.149-3.103-0.898c-2.146,0.529-3.338,3.343-4.39,5.825
		c-0.455,1.073-1.02,2.408-1.379,2.712c-0.936,0.794-1.366,2.593-1.914,5.246c-0.136,0.656-0.31,1.5-0.452,1.975
		c-2.078,0.311-7.462,1.577-9.971,2.748c-0.056-0.145-0.123-0.283-0.214-0.403C94.094,162.766,91.984,163.992,91.292,164.396z
		 M167.675,168.288c-0.014,0-0.027,0-0.042,0c-3.481,0-14.729-6.894-16.343-10.029c-0.694-1.348-12.309-4.933-12.935-5.031
		c-4.14-0.649-15.137-2.37-16.942,6.51c-0.392,1.933-1.383,2.349-2.883,2.979c-1.148,0.482-2.45,1.029-3.456,2.376
		c-1.044,1.399-1.483,2.878-1.908,4.309c-0.437,1.475-0.85,2.867-1.914,4.167c-2.881,3.519-11.494,7.303-16.754,7.362
		c-2.291,0.003-3.891-0.739-4.479-2.152c-0.661-1.586,0.055-3.795,1.782-5.497c0.432-0.426,2.63-3.53,3.445-6.128
		c0.265-0.032,0.521-0.138,0.707-0.343c1.116-0.705,8.791-2.838,9.943-2.768c1.366,0.14,1.639-1.221,2.152-3.702
		c0.239-1.154,0.735-3.555,1.16-3.975c0.77-0.653,1.313-1.935,2-3.557c0.717-1.693,1.801-4.25,2.845-4.508
		c0.291-0.074,0.67,0.079,1.124,0.451c1.876,1.534,3.511,0.534,4.594-0.127c0.923-0.564,1.53-0.9,2.325-0.702
		c6.231,1.548,8.829-1.082,11.576-3.869c1.03-1.044,2.094-2.123,3.43-3.071c0.587,0.052,2.146,1.188,2.998,1.808
		c1.356,0.987,2.227,1.599,3.013,1.725c1.079,0.172,2.337,0.229,3.671,0.289c2.8,0.126,6.285,0.284,7.072,1.714
		c0.448,0.814,0.096,2.276-1.02,4.226c-0.311,0.543-0.123,1.236,0.421,1.547c0.542,0.313,1.236,0.123,1.547-0.421
		c0.036-0.063,0.063-0.121,0.097-0.182c0.012-0.001,0.023,0.004,0.036,0.003c0.439-0.049,0.863-0.109,1.269-0.167
		c2.297-0.329,3.145-0.372,3.702,1.033c-0.171,0.198-0.285,0.449-0.285,0.731c0,0.626,0.508,1.134,1.134,1.134
		c1.031,0,3.985,3.244,4.679,4.986c-0.188,0.179-0.325,0.412-0.356,0.689c-0.069,0.622,0.378,1.183,1.001,1.253
		c2.49,0.278,4.391,1.302,5.351,2.881c0.783,1.288,0.928,2.877,0.438,4.634c-1.125-0.362-2.403-0.582-3.909-0.582
		C167.865,168.285,167.769,168.286,167.675,168.288z M211.139,242.536c-1.599,0.482-3.411,1.029-4.221,0.461
		c-0.578-0.404-0.756-1.483-0.805-2.317c-0.054-0.934-0.078-1.828-0.101-2.68c-0.156-5.733-0.28-10.27-8.916-12.455
		c-0.279-0.412-0.612-1.801-0.836-2.739c-0.597-2.494-1.215-5.072-3.071-5.623c-1.008-0.298-2.099,0.098-3.241,1.181
		c-1.22,1.159-1.702,1.102-1.706,1.102c-0.251-0.119-1.43-1.251,0.05-11.885c0.15-1.076,0.188-1.367,0.176-1.595
		c-0.194-3.532-2.271-6.791-4.281-9.942c-1.615-2.535-3.286-5.155-3.83-7.754c-0.288-1.373-0.475-2.921-0.672-4.561
		c-0.619-5.12-1.354-11.155-5.739-13.919c0.768-2.479,0.577-4.854-0.578-6.754c-1.125-1.85-3.086-3.131-5.594-3.704
		c-0.432-1.952-3.122-5.46-5.465-6.725c-0.025-0.091-0.053-0.175-0.08-0.262c0.007-0.012,0.019-0.018,0.025-0.03
		c1.121-2.109,2.335-3.244,3.609-3.375c1.565-0.161,3.49,1.125,5.725,3.819c2.432,2.932,5.359,3.986,8.189,5.007
		c2.349,0.847,4.567,1.646,6.437,3.499c2.957,2.929,4.788,2.914,6.563,2.907c1.291-0.012,2.505-0.015,4.536,1.369
		c2.144,1.461,4.028,0.356,5.154-0.304c0.339-0.199,0.919-0.524,1.077-0.515c0.001,0,0.143,0.068,0.364,0.466
		c0.605,1.084,1.398,1.422,1.956,1.515c1.699,0.286,3.391-1.238,5.184-2.849c1.515-1.36,3.405-3.056,4.488-2.716
		c3.5,1.081,10.761,4.167,11.662,5.479c-0.061,0.283-0.158,0.66-0.272,1.104c-0.8,3.133-2.14,8.377,0.205,10.938
		c1.043,1.139,2.609,1.547,4.646,1.212c1.486-0.245,2.492,0.401,3.561,1.083c0.871,0.557,1.853,1.184,3.021,1.184
		c1.068,0,2.292-0.524,3.727-2.106c0.037-0.04,0.07-0.083,0.1-0.127c0.01-0.015,0.019-0.021,0.028-0.035
		c-0.115,0.357-0.179,0.725-0.163,1.1c0.023,0.533,0.213,1.207,0.821,1.843c-2.513,2.133-2.647,3.949-2.26,5.144
		c0.17,0.524,0.463,0.979,0.831,1.371c-0.028,0.083-0.067,0.162-0.076,0.254c-0.143,1.585-0.962,2.475-1.83,3.417
		c-0.721,0.783-1.465,1.592-1.635,2.738c-0.437,2.953,2.594,3.879,4.6,4.491c0.723,0.221,1.934,0.591,2.123,0.863
		c0.139,0.298,0.102,0.471,0.042,0.613c-0.543,1.267-4.039,2.442-6.127,3.145c-1.372,0.461-2.456,0.825-3.09,1.235
		c-1.357,0.877-1.574,3.212-1.868,7.608c-0.201,3.017-0.437,6.389-1.293,8.426c-0.371-0.142-0.76-0.229-1.175-0.235
		c-1.573-0.032-2.98,0.996-4.394,3.131c-0.582,0.91-0.178,1.969,0.213,2.994c0.718,1.881,1.285,3.367-1.532,4.74
		c-2.783,1.361-2.729,2.922-2.413,4.536c0.159,0.811,0.274,1.397-0.226,2.174c-0.31,0.481-0.999,0.817-1.798,1.206
		c-0.952,0.464-2.102,1.029-3.008,2.077c-0.584-0.273-1.197-0.534-1.866-0.774C214.66,241.475,212.95,241.991,211.139,242.536z
		 M288.763,292.727c-1.726,1.794-2.744,1.207-4.889-0.29c-0.962-0.673-1.956-1.368-3.132-1.752
		c-3.271-1.066-5.018,0.152-6.557,1.229c-0.839,0.585-1.63,1.138-2.725,1.428c-0.992,0.256-1.874-1.504-2.764-3.496
		c-0.506-1.135-0.906-2.031-1.466-2.56c-1.703-1.605-2.927-1.676-4.11-1.743c-0.592-0.034-1.15-0.066-1.869-0.301
		c-3.904-1.272-5.151-2.174-7.847-5.673c-2.399-3.115-4.686-4.877-7.106-6.742c-0.904-0.696-1.839-1.417-2.833-2.244
		c-0.309-0.258-0.559-1.385-0.742-2.207c-0.291-1.31-0.591-2.663-1.408-3.587c-1.52-1.721-3.977-2.976-6.354-4.19
		c-2.042-1.043-4.154-2.122-4.838-3.181c-0.949-1.467-1.742-2.889-2.508-4.265c-2.021-3.63-3.84-6.875-7.589-9.263
		c0.551-0.487,1.223-0.825,1.929-1.169c1.012-0.493,2.059-1.003,2.712-2.018c0.994-1.544,0.733-2.869,0.543-3.837
		c-0.209-1.067-0.266-1.354,1.183-2.062c4.68-2.282,3.363-5.732,2.655-7.586c-0.13-0.34-0.319-0.835-0.352-1.067
		c0.876-1.29,1.694-1.999,2.379-1.982c1.2,0.019,2.533,2.17,3.506,3.742c1.014,1.637,1.747,2.82,2.866,2.963
		c0.496,0.064,0.985-0.104,1.371-0.471c1.021-0.975,1.894-1.468,2.406-1.351c0.842,0.193,1.561,2.119,2.138,3.666
		c0.776,2.08,1.51,4.044,3.116,4.638c0.792,0.292,1.643,0.191,2.531-0.3c0.202-0.112,0.33-0.153,0.397-0.168
		c0.257,0.355,0.439,1.648,0.55,2.438c0.305,2.175,0.723,5.147,3.381,5.147c0.026,0,0.056,0,0.077,0
		c0.441-0.01,0.818-0.271,0.997-0.644c0.736-0.907,5.482-5.785,5.923-6.225c0.03-0.028,0.059-0.059,0.085-0.09
		c2.408-2.857,5.077-4.584,7.657-6.253c1.65-1.068,3.328-2.162,4.931-3.54c0.152,0.232,0.384,0.413,0.675,0.484
		c2.082,0.507,3.705,1.416,4.981,2.712c-0.02-0.003-0.037,0.001-0.057-0.002c-3.32-0.575-5.607-0.037-6.797,1.598
		c-2.408,3.31,0.538,9.567,4.042,16.232c0.4,0.76,0.828,1.575,1.152,2.232c-0.563-0.044-1.099-0.123-1.626-0.2
		c-2.12-0.309-4.313-0.631-6.694,1.787c-1.219,1.239-1.276,6.008-0.091,7.506c0.619,0.78,1.584,0.941,2.456,0.408
		c2.788-1.707,5.313,1.476,8.326,5.812c1.033,1.487,1.925,2.771,2.782,3.505c2.643,2.257,5.742,1.944,8.476,1.67
		c2.771-0.28,5.167-0.52,7.031,1.603c1.142,1.301,1.598,3.153,1.354,5.508c-0.52,5.03-4.196,11.026-7.172,13.263
		c-0.078,0.059-0.129,0.138-0.188,0.211c-0.192-0.068-0.383-0.119-0.572-0.147C290.217,291.769,289.404,292.056,288.763,292.727z
		 M353.344,342.412c-1.496-0.377-3.009,0.328-4.489,2.101c-0.914,1.094-1.756,1.62-2.467,1.578
		c-1.351-0.085-2.679-2.152-3.558-3.521c-0.469-0.73-0.84-1.308-1.229-1.681c-1.242-1.19-3.219-1.868-5.313-2.585
		c-2.45-0.84-4.984-1.708-5.687-3.26c-0.328-0.723-0.26-1.627,0.207-2.763c0.33-0.803,0.689-1.346,1.006-1.824
		c0.93-1.404,1.421-2.453,0.406-5.164c-0.031-0.083-3.67-8.328-6.072-8.413c-0.617-0.039-1.147,0.322-1.42,0.917
		c-0.938,2.016-6.308,2.946-10.288,2.4c-2.299-0.314-3.105-0.975-3.14-1.18c-0.002-0.009,0.013-0.959,3.531-2.719
		c0.311-0.154,0.532-0.442,0.604-0.782c0.07-0.339-0.018-0.691-0.24-0.958c-0.366-0.439-0.684-0.829-0.964-1.173
		c-2.393-2.938-2.858-3.095-6.258-2.075c-0.396,0.118-0.845,0.253-1.36,0.399c-2.106,0.598-2.766,0.393-2.953,0.277
		c-0.309-0.191-0.451-0.961-0.602-1.775c-0.193-1.041-0.433-2.336-1.165-3.633c-0.137-0.242-0.365-0.693-0.667-1.288
		c-2.518-4.959-5.136-9.673-7.616-11.966c2.631-2.181,5.529-6.553,6.914-10.998l1.693,1.386c0.011,0.009,0.023,0.011,0.034,0.02
		c0.011,0.232,0.021,0.465,0.048,0.713c0.065,0.622,0.607,1.071,1.247,1.009c0.622-0.066,1.074-0.624,1.009-1.247
		c-0.124-1.171-0.106-2.674,0.675-3.185c1.836-1.201,7.343,1.94,9.694,3.283c0.521,0.297,0.979,0.559,1.352,0.757
		c4.008,2.141,6.255,0.231,7.896-1.163c1.202-1.022,1.94-1.589,3.029-1.359c1.429,0.308,2.635,0.089,3.583-0.646
		c0.25-0.193,0.47-0.416,0.664-0.661c0.024,0,0.045,0.01,0.069,0.008c3.452-0.308,3.674,1.107,4.071,3.664
		c0.187,1.199,0.38,2.438,0.997,3.538c1.204,2.144,2.78,2.446,3.822,2.646c0.983,0.188,1.351,0.26,1.269,2.865
		c-0.104,4.34,3.104,4.629,5.444,4.84c1.562,0.141,3.175,0.286,4.29,1.292c0.994,0.896,1.369,1.821,1.147,2.826
		c-0.424,1.927-3.038,3.987-5.117,4.632c-0.706,0.218-1.205,0.744-1.405,1.481c-1.122,4.135,8.852,17.413,9.554,18.181l0.408,0.441
		c4.013,4.319,4.502,5.692,4.438,6.123c-0.281,1.243-3.88,8.012-5.307,9.708C354.589,342.948,353.998,342.577,353.344,342.412z
		 M368.311,306.888c1.768,0.546,3.772,1.166,4.306,2.186c0.926,1.771,4.596,6.816,8.231,7.4c1.301,0.209,2.482-0.162,3.421-1.073
		c1.005-0.977,1.663-1.191,1.92-1.085c0.266,0.113,1.592,1.062,1.55,8.623c-0.002,0.273-0.002,0.469,0.002,0.567
		c0.085,2.037,2.182,3.644,4.209,5.197c0.692,0.53,1.354,1.038,1.848,1.501c-1.377,2.354-2.737,5.159-4.094,8.195
		c-1.177-1.253-2.677-2.031-4.328-2.206c-2.053-0.21-4.093,0.513-5.756,2.052c-1.529,1.417-2.258,2.529-2.9,3.511
		c-0.891,1.362-1.535,2.347-4.3,3.704c-2.322,1.14-3.745,0.186-5.544-1.022c-2.409-1.618-5.383-3.599-10.071,1.48
		c-0.111-0.221-0.226-0.428-0.342-0.632c2.304-2.376,5.973-10.034,6.189-11.037c0.404-1.871-1.61-4.504-4.993-8.145l-0.396-0.43
		c-2.469-2.698-9.645-13.895-9.061-15.993c2.351-0.762,5.888-3.178,6.571-6.281c0.156-0.711,0.182-1.621-0.17-2.604
		c4.557-0.891,10.036-1.244,10.791-0.438c-0.796,0.369-1.539,0.846-2.215,1.421c-0.278,0.235-0.425,0.591-0.396,0.954
		C362.986,305.242,365.815,306.116,368.311,306.888z M384.278,350.63c-1.084,1.413-1.463,2.841-1.126,4.244
		c0.819,3.422,5.699,5.758,10.867,8.231c4.462,2.136,9.519,4.556,10.163,7.206c0.209,0.861-0.029,2.711-0.259,4.499
		c-0.541,4.2-1.154,8.96,2.048,10.426c0.146,0.066,0.304,0.172,0.327,0.576c0.07,1.249-1.285,3.51-3.204,4.666
		c-1.032,0.623-2.605,1.156-4.238,0.171c-3.196-1.931-5.728-1.112-7.285-0.087c-4.582,3.013-6.507,11.288-6.027,14.79
		c0.711,5.209-1.089,6.299-3.813,7.949c-1.746,1.058-3.726,2.257-5.376,4.663c-1.71,2.487-2.86,4.645-3.785,6.378
		c-2.521,4.726-3.671,6.882-11.616,8.25c-2.449,0.417-4.107-1.121-5.064-2.489c-2.266-3.238-2.913-8.657-1.36-11.369
		c0.762-1.327,2.085-2.299,3.487-3.326c2.612-1.917,5.573-4.089,5.365-9.054c-0.063-1.474-1.144-2.517-2.012-3.354
		c-0.376-0.362-1.074-1.036-1.047-1.276c0.002-0.018,0.065-0.434,1.406-1.23c3.891-2.309,4.08-2.326,6.949-2.301
		c0.379,0,0.798,0.002,1.271-0.002c1.604-0.012,2.405-0.771,2.794-1.405c1.578-2.575-0.723-7.647-3.431-13.061
		c-0.471-0.941-1.005-2.008-1.069-2.251c-0.218-1.326-0.29-2.671-0.367-4.095c-0.135-2.486-0.273-5.058-1.242-7.526
		c-0.735-1.873-1.876-3.371-2.979-4.819c-1.164-1.528-2.263-2.973-2.877-4.798c-0.143-0.425-0.36-1.483-0.611-2.708
		c-0.684-3.325-1.428-6.621-2.39-9.297c0.008-0.009,0.019-0.011,0.025-0.02c3.814-4.574,5.404-3.505,7.811-1.89
		c1.918,1.289,4.308,2.895,7.808,1.175c3.322-1.631,4.233-3.023,5.197-4.497c0.6-0.915,1.219-1.861,2.544-3.089
		c1.175-1.089,2.588-1.603,3.976-1.461c1.352,0.144,2.572,0.901,3.438,2.134c0.033,0.047,0.082,0.073,0.12,0.113
		c-0.533,1.235-1.066,2.496-1.601,3.772C385.917,347.285,384.804,349.944,384.278,350.63z M447.636,342.54
		c-1.748,2.237-2.614,4.69-3.31,6.661c-0.689,1.95-1.233,3.491-2.229,3.849c-1.079,0.388-3.134-0.334-6.114-2.136
		c-2.989-1.807-3.588-4.409-4.221-7.166c-0.568-2.473-1.156-5.026-3.554-6.716c-0.013-0.113-0.023-0.251-0.033-0.365
		c-0.071-0.9-0.222-2.774-1.946-3.094c-3.674-0.679-6.861-0.914-9.736-0.725c-4.755,0.333-6.952-2.446-9.267-5.373
		c-0.843-1.064-1.714-2.166-2.706-3.091c-1.434-1.337-2.858-1.376-3.803-1.172c-1.959,0.422-3.847,2.287-5.698,5.049
		c-0.51-0.446-1.085-0.894-1.689-1.357c-1.386-1.062-3.282-2.516-3.323-3.491c-0.003-0.08-0.002-0.239,0-0.461
		c0.036-6.537-0.867-9.845-2.929-10.723c-1.292-0.548-2.769-0.029-4.389,1.545c-0.428,0.416-0.881,0.555-1.481,0.462
		c-2.391-0.385-5.555-4.249-6.581-6.213c-0.972-1.856-3.349-2.592-5.646-3.302c-1.488-0.46-3.141-0.971-3.722-1.682
		c0.469-0.323,0.971-0.591,1.5-0.8c0.267-0.104,0.483-0.307,0.607-0.564c0.801-1.673-0.088-2.663-0.507-3.012
		c-2.306-1.914-10.958-0.62-13.587,0.089c-0.113-0.116-0.213-0.233-0.342-0.35c-1.677-1.514-3.855-1.71-5.605-1.867
		c-2.609-0.235-3.432-0.41-3.382-2.518c0.12-3.81-0.999-4.751-3.107-5.155c-0.885-0.17-1.584-0.304-2.273-1.529
		c-0.416-0.742-0.57-1.73-0.732-2.776c-0.368-2.361-0.867-5.52-5.326-5.61c0.366-1.395,0.443-2.922,0.494-4.12l0.005-0.114
		c0.002-0.051,0.006-0.096,0.009-0.135c0.145,0.032,0.313,0.08,0.445,0.116c0.76,0.213,1.8,0.504,2.73-0.1
		c1.769-1.149,1.737-4.052,1.704-7.124c-0.021-2.069-0.049-4.645,0.667-5.344c0.083-0.081,0.22-0.15,0.498-0.153
		c0.999,0.037,2.771-0.075,5.23-0.226c7.845-0.479,26.212-1.6,29.177,3.125c0.623,0.992,0.475,2.279-0.453,3.935
		c-0.612,1.093-2.373,2.183-4.075,3.235c-2.607,1.613-5.304,3.282-5.531,5.824c-0.138,1.538,0.653,3.057,2.419,4.644
		c4.297,3.864,10.912,6.468,16.749,8.764c2.319,0.913,4.511,1.774,6.47,2.671c1.622,0.741,3.207,1.429,4.759,2.102
		c5.925,2.568,11.521,4.995,16.74,9.563c3.209,2.809,13.583,10.6,19.286,9.824c1.005,0.353,3.901,4.013,5.306,5.786
		c1.253,1.583,2.242,2.833,2.89,3.383C441.354,327.431,451.893,337.086,447.636,342.54z"/>
	<path d="M336.316,444.31c0.752-1.646,1.463-3.201,1.811-4.372c1.369-4.609,5.541-9.994,7.782-12.887
		c0.061-0.079,6.076-8.413,5.89-10.245c-0.034-0.336-0.217-0.639-0.497-0.827c-1.217-0.814-2.46-1.602-3.695-2.341
		c-0.107-0.064-0.222-0.109-0.338-0.135c-0.372-0.321-0.926-0.374-1.358-0.093c-0.468,0.304-1.008,0.715-1.579,1.149
		c-1.441,1.097-3.392,2.581-4.706,2.67c-0.174-0.147-0.464-0.455-0.666-0.671c-0.93-0.988-2.084-2.222-3.461-1.685
		c-1.359,0.528-1.576,2.104-1.768,3.495c-0.127,0.926-0.285,2.078-0.73,2.353c-0.257,0.161-0.805,0.113-1.507-0.128
		c-0.758-0.259-1.379-0.488-1.913-0.686c-2.681-0.99-3.536-1.223-7.314-0.58c-2.35,0.401-4.168,1.568-5.926,2.698
		c-1.517,0.974-3.085,1.981-5.03,2.518c-0.371,0.088-2.393,0.193-4.017,0.277c-4.457,0.232-6.435,0.392-7.428,0.63
		c-1.946-0.634-6.468-0.11-7.35,0.378c-1.463,0.807-5.871,1.578-7.821,0.464c-0.614-0.351-0.898-0.832-0.919-1.563
		c-0.027-0.898-0.173-2.172-1.128-2.84c-0.977-0.685-2.118-0.308-3.036-0.004c-0.354,0.117-1.021,0.341-1.179,0.279
		c-0.002-0.001-0.122-0.115-0.214-0.58c-0.43-2.18-1.082-3.389-2.114-3.922c-1.221-0.629-2.479-0.061-3.591,0.439
		c-1.02,0.461-1.985,0.894-2.898,0.591c-3.813-1.261-4.812,1.713-5.413,3.489c-0.711,2.104-1.123,2.896-2.677,2.766
		c-1.317-0.103-1.581-0.742-2-2.543c-0.288-1.241-0.647-2.784-2.062-3.563c-1.833-1.007-4.144,1.219-7.729,5.002
		c-1.043,1.102-2.437,2.573-3.059,2.978c-0.35-0.054-0.726,0.057-0.992,0.334c-0.398,0.414-0.42,1.052-0.073,1.489
		c0.022,0.471-0.506,1.804-0.861,2.7c-1.007,2.544-2.26,5.709-0.356,7.616c0.745,0.75,1.392,1.451,2.025,2.136
		c0.998,1.079,1.94,2.099,3.17,3.229l0.168,0.154c2.955,2.715,3.259,3,5.828,2.781c0.681-0.058,1.612-0.137,2.957-0.139
		c0.003,0,0.006,0,0.009,0c4.423,0,8.998,3.808,13.035,7.168c1.737,1.445,3.378,2.811,4.962,3.86
		c0.566,0.377,1.26,0.857,2.041,1.398c4.303,2.982,10.806,7.488,14.615,7.708c1.198,0.071,2.299,0.023,3.364-0.022
		c2.49-0.108,4.64-0.201,7.105,1.34c2.086,1.303,3.082,3.26,4.138,5.332c0.933,1.83,1.896,3.722,3.648,5.201
		c2.446,2.066,6.525,2.413,10.471,2.75c3.03,0.258,6.464,0.55,7.297,1.77c1.025,1.495,1.951,1.94,2.69,1.94
		c0.321,0,0.607-0.085,0.851-0.203c2.078-1.013,2.174-5.745,1.654-7.392c-0.314-0.997,0.026-2.344,0.937-3.695
		c1.144-1.697,2.958-3.007,4.316-3.115c0.805-0.064,1.446-0.465,1.806-1.126c1.078-1.982-0.921-5.738-1.007-5.897
		c-0.086-0.16-0.21-0.297-0.36-0.399c-0.761-0.517-1.518-1.063-2.258-1.631c0.458-1.16,0.812-2.363,1.053-3.591
		c0.03-0.15,0.028-0.306-0.004-0.456c-0.478-2.233-1.872-3.021-2.992-3.653c-1.271-0.718-2.111-1.191-1.89-3.97
		C334.133,449.092,335.293,446.552,336.316,444.31z M334.799,456.386c0.919,0.519,1.546,0.872,1.838,1.936
		c-0.268,1.27-0.67,2.509-1.196,3.687c-0.211,0.474-0.075,1.029,0.33,1.352c0.921,0.73,1.872,1.434,2.83,2.094
		c0.603,1.222,1.131,3.063,0.896,3.451c-2.053,0.162-4.471,1.813-6.016,4.107c-1.318,1.956-1.751,3.962-1.219,5.646
		c0.354,1.123,0.088,3.829-0.406,4.563c-0.143-0.107-0.396-0.349-0.756-0.872c-1.438-2.106-4.932-2.403-8.976-2.748
		c-3.424-0.292-7.306-0.622-9.2-2.223c-1.402-1.185-2.223-2.794-3.091-4.498c-1.149-2.257-2.338-4.59-4.957-6.227
		c-2.332-1.457-4.464-1.736-6.508-1.736c-0.64,0-1.271,0.027-1.897,0.055c-1.007,0.043-2.049,0.09-3.133,0.024
		c-3.175-0.184-9.611-4.644-13.456-7.309c-0.795-0.551-1.501-1.039-2.079-1.424c-1.482-0.982-3.077-2.309-4.765-3.714
		c-4.333-3.605-9.243-7.692-14.486-7.692c-0.003,0-0.007,0-0.011,0c-1.44,0.002-2.427,0.086-3.147,0.146
		c-1.576,0.136-1.573,0.133-4.101-2.19l-0.168-0.155c-1.162-1.067-2.074-2.055-3.04-3.1c-0.65-0.703-1.315-1.422-2.083-2.195
		c-0.855-0.856,0.135-3.356,0.857-5.182c0.509-1.285,0.976-2.465,1.013-3.438c0.835-0.535,1.878-1.616,3.509-3.338
		c1.448-1.527,4.112-4.34,5.077-4.52c0.429,0.303,0.614,0.983,0.858,2.034c0.375,1.612,0.941,4.049,4.033,4.291
		c3.467,0.257,4.386-2.48,5.001-4.301c0.741-2.188,1.023-2.57,2.551-2.063c1.751,0.581,3.301-0.114,4.544-0.676
		c0.579-0.26,1.37-0.623,1.619-0.491c0.087,0.045,0.54,0.368,0.93,2.346c0.199,1.008,0.633,1.712,1.288,2.095
		c1.012,0.592,2.138,0.22,3.041-0.08c0.307-0.101,0.798-0.264,1.021-0.268c0.049,0.104,0.145,0.385,0.163,1.025
		c0.045,1.522,0.758,2.722,2.063,3.466c2.996,1.709,8.396,0.461,10.038-0.447c0.672-0.337,4.048-0.473,5.252-0.318
		c0.004,0.005,0.009,0.009,0.013,0.013c0.384,0.398,0.985,0.453,1.433,0.166c0.814-0.262,4.74-0.467,7.105-0.59
		c2.872-0.149,4.004-0.219,4.493-0.354c2.286-0.63,4.002-1.732,5.661-2.799c1.639-1.053,3.187-2.047,5.081-2.369
		c3.331-0.57,3.816-0.39,6.147,0.471c0.549,0.203,1.188,0.438,1.966,0.704c1.422,0.488,2.546,0.459,3.429-0.087
		c1.357-0.836,1.597-2.576,1.789-3.975c0.066-0.486,0.172-1.251,0.283-1.569c0.307,0.217,0.771,0.712,1.045,1.003
		c0.713,0.759,1.276,1.358,2.052,1.387c2.143,0.102,4.465-1.701,6.347-3.134c0.318-0.242,0.626-0.476,0.906-0.68
		c0.913,0.549,1.829,1.125,2.734,1.718c-0.887,1.9-4.343,7.116-5.229,8.26c-3.229,4.167-6.788,9-8.163,13.629
		c-0.303,1.02-0.981,2.504-1.699,4.077c-1.155,2.529-2.351,5.145-2.489,6.892C331.427,454.482,333.376,455.583,334.799,456.386z"/>
	<path d="M164.543,330.647c2.448-3.024,6.148-7.595,1.988-11.733c-1.833-1.824-1.875-4.109-1.921-6.529
		c-0.053-2.869-0.125-6.06-3.409-8.252c1.485-2.57,0.142-6.055-3.764-9.655c-4.321-3.983-12.102-7.946-15.518-4.984
		c-0.792,0.766-1.155,1.744-1.051,2.829c0.014,0.145,0.056,0.284,0.122,0.413c0.227,0.438,0.287,0.685,0.302,0.797
		c-0.223,0.108-0.766,0.207-1.105,0.269c-0.967,0.175-2.063,0.373-2.788,1.2c-2.312,2.641-4.815,4.558-7.236,6.411
		c-2.027,1.553-4.124,3.159-6.105,5.178c-0.665,0.679-2.645,0.729-4.509,0.118c-1.681-0.551-2.644-1.42-2.727-1.994
		c-0.476-3.298-2.125-3.904-3.066-3.973c-2.064-0.145-4.006,1.978-4.477,3.568c-0.347,1.171,0.012,2.215,0.935,2.722
		c1.102,0.609,0.461,2.632-0.643,5.648c-1.119,3.06-2.277,6.225-0.7,8.481c0.976,1.396,2.812,2.104,5.581,2.178
		c0.507,1.712,1.11,3.308,1.703,4.855c1.203,3.145,2.34,6.116,2.361,9.516c-0.024,0.098-0.065,0.254-0.119,0.459
		c-2.332,8.931-2.451,13.841-0.374,15.453c0.193,0.15,0.401,0.262,0.618,0.353c-1.467,3.688-1.652,8.308-1.829,12.797
		c-0.145,3.684-0.282,7.162-1.106,9.828c-0.869,2.81,7.698,15.057,10.714,17.46c0.301,0.24,1.07,0.853,1.909,0.853
		c0.245,0,0.496-0.053,0.744-0.182c0.159-0.06,0.503-0.154,0.979-0.291c5.804-1.664,12.584-4.065,13.505-7.891
		c0.369-1.531-0.209-3.036-1.717-4.474c0.501-0.305,1.755-0.738,3.667-1.025c0.044-0.007,0.141-0.024,0.184-0.036
		c2.512-0.688,4.401,0.796,6.792,2.674c0.281,0.221,0.564,0.442,0.853,0.664c1.14,0.875,2.149,0.65,2.647,0.438
		c3.646-1.549,5.208-12.977,7.018-28.951c0.565-4.985,1.205-10.637,1.681-11.479c1.626-2.634,0.163-4.667-1.014-6.301
		c-1.409-1.958-2.138-3.17-0.731-5.31C163.35,332.12,163.929,331.405,164.543,330.647z M161.043,331.503
		c-2.333,3.548-0.53,6.052,0.786,7.88c1.186,1.647,1.72,2.497,0.924,3.785c-0.701,1.137-1.145,4.832-2.004,12.415
		c-0.955,8.429-2.942,25.968-5.651,27.119c-0.035,0.015-0.121,0.049-0.38-0.148c-0.281-0.217-0.558-0.435-0.833-0.65
		c-2.545-1.998-5.176-4.066-8.713-3.097c-5.076,0.763-5.525,2.21-5.673,2.686c-0.135,0.434-0.219,1.292,0.727,2.176
		c1.383,1.293,1.191,2.089,1.128,2.351c-0.484,2.011-4.496,4.111-11.925,6.241c-0.616,0.177-0.939,0.271-1.146,0.346
		c-2.241-0.979-10.47-13.136-10.408-15.336c0.912-2.95,1.054-6.573,1.205-10.409c0.186-4.718,0.393-9.575,2.106-12.98
		c0.048-0.018,0.095-0.034,0.144-0.054c0.054,0.303,0.104,0.606,0.188,0.902c0.141,0.5,0.596,0.826,1.091,0.826
		c0.102,0,0.205-0.014,0.308-0.042c0.603-0.17,0.954-0.796,0.784-1.399c-0.364-1.292-0.358-2.691,0.016-4.404
		c0.134-0.611-0.253-1.216-0.865-1.35c-0.614-0.141-1.217,0.253-1.35,0.865c-0.169,0.772-0.253,1.487-0.296,2.179
		c-0.045,0.018-0.092,0.02-0.135,0.043c-0.344,0.19-0.647,0.314-0.911,0.39c-0.056,0.012-0.109,0.024-0.163,0.045
		c-0.259,0.053-0.464,0.043-0.582-0.05c-0.311-0.241-1.716-2.008,1.178-13.089c0.174-0.667,0.192-0.737,0.192-0.916
		c0.004-3.867-1.217-7.061-2.511-10.441c-0.721-1.884-1.466-3.831-1.995-5.937c-0.153-0.608-0.771-0.978-1.376-0.823
		c-0.27,0.067-0.481,0.236-0.632,0.445c-1.39-0.061-2.931-0.338-3.539-1.209c-0.9-1.288,0.094-4.005,0.971-6.402
		c1.154-3.155,2.461-6.727-0.284-8.352c0.038-0.302,0.385-1.045,1.118-1.636c0.458-0.37,0.921-0.545,1.182-0.441
		c0.292,0.115,0.672,0.703,0.86,2.007c0.229,1.596,1.824,3.026,4.265,3.826c2.15,0.706,5.229,0.948,6.833-0.685
		c1.869-1.905,3.81-3.392,5.865-4.966c2.509-1.921,5.103-3.908,7.563-6.718c0.203-0.23,0.945-0.365,1.486-0.463
		c0.994-0.181,2.231-0.404,2.759-1.479c0.476-0.969,0.042-2.071-0.231-2.634c0.008-0.309,0.12-0.549,0.332-0.755
		c1.835-1.589,8.002,0.878,12.45,4.979c2.36,2.177,4.417,5.11,3.279,6.938c-0.578-0.224-1.228,0.059-1.459,0.634
		c-0.233,0.581,0.05,1.241,0.631,1.475c3.887,1.558,3.934,4.063,3.993,7.237c0.049,2.635,0.105,5.622,2.588,8.094
		c2.515,2.502,0.694,5.184-2.151,8.699C162.131,330.023,161.517,330.781,161.043,331.503z"/>
</g>
</svg>
