<?xml version="1.0" encoding="utf-8"?>
<!-- Generator: Adobe Illustrator 16.0.0, SVG Export Plug-In . SVG Version: 6.00 Build 0)  -->
<!DOCTYPE svg PUBLIC "-//W3C//DTD SVG 1.1//EN" "http://www.w3.org/Graphics/SVG/1.1/DTD/svg11.dtd">
<svg version="1.1" id="Livello_1" xmlns="http://www.w3.org/2000/svg" xmlns:xlink="http://www.w3.org/1999/xlink" x="0px" y="0px"
	 width="510.24px" height="510.24px" viewBox="0 0 510.24 510.24" enable-background="new 0 0 510.24 510.24" xml:space="preserve">
<g>
	<path d="M438.688,348.48l-0.377-0.75c-1.283-2.56-2.609-5.206-5.021-7.336c-0.741-0.654-1.422-1.369-2.143-2.126
		c-1.603-1.683-3.259-3.423-5.622-4.471c-0.173-0.077-0.441-0.351-0.522-0.502c-0.033-2.568-1.694-3.945-3.031-5.054
		c-0.662-0.549-1.287-1.067-1.691-1.67c-0.448-0.674-1.235-0.556-1.597-0.498c-1.632,0.253-2.854-0.596-4.272-1.578
		c-1.118-0.774-2.274-1.574-3.728-1.896c-3.612-0.798-6.461-3.1-9.547-5.801c-0.479-0.419-0.94-0.864-1.405-1.312
		c-0.837-0.807-1.702-1.64-2.713-2.381c-4.168-3.059-8.919-4.818-13.514-6.52l-0.891-0.33c-2.447-0.911-4.869-2.095-7.212-3.239
		c-1.124-0.549-2.247-1.099-3.38-1.623c-1.318-0.61-2.642-1.21-3.965-1.811c-2.927-1.328-5.953-2.701-8.863-4.16
		c-2.251-1.128-3.766-2.04-4.281-4.36c-0.236-1.066-0.018-1.22,0.462-1.557c1.195-0.841,2.466-1.641,3.695-2.414
		c0.819-0.516,1.638-1.031,2.445-1.563c2.213-1.459,3.473-3.68,3.456-6.094c-0.017-2.385-1.281-4.555-3.47-5.953
		c-0.9-0.575-1.896-1.156-3.042-1.777c-1.9-1.026-3.701-0.489-5.15-0.06c-0.74,0.22-1.438,0.428-2.096,0.44
		c-1.842,0.037-3.688,0.222-5.473,0.401l-0.809,0.081c-0.878,0.086-1.754,0.194-2.63,0.304c-1.242,0.154-2.527,0.313-3.78,0.399
		c-0.695,0.045-1.422-0.031-2.192-0.113c-0.372-0.039-0.743-0.079-1.114-0.105l-1.672-0.124c-1.735-0.132-3.529-0.268-5.309-0.326
		c-0.208-0.01-0.404,0.041-0.592,0.116c-1.479-1.665-3.053-3.331-5.522-4.122c-1.546-0.495-3.069-1.325-4.542-2.127l-0.465-0.253
		c-0.215-0.116-0.468-0.36-0.581-0.513c0.284-3.092-2.016-3.89-3.704-4.475l-0.102-0.035c-1.806-0.626-3.09-1.323-3.91-2.863
		c-1.32-2.477-2.683-4.066-4.165-4.859c-2.939-1.574-4.98-3.989-7.142-6.545c-0.771-0.913-1.569-1.856-2.407-2.753
		c-0.179-0.192-0.353-0.488-0.53-0.906c-0.279-0.652-0.563-1.302-0.847-1.953c-0.808-1.85-1.642-3.763-2.333-5.672
		c-0.285-0.788-0.596-1.576-0.906-2.367c-0.938-2.386-1.908-4.854-2.116-7.257c-0.24-2.759-1.25-5.123-2.227-7.409
		c-0.571-1.336-1.11-2.599-1.502-3.929c-0.42-1.42-1.034-2.78-1.628-4.095c-0.807-1.785-1.569-3.47-1.829-5.207
		c-0.553-3.698-2.675-5.667-4.802-7.367c-0.391-0.313-1.399-0.996-2.326-0.645c-1.715,0.657-2.997-0.191-4.757-1.56l-0.532-0.409
		c-2.223-1.676-4.344-3.607-6.395-5.475c-1.558-1.419-3.169-2.886-4.833-4.252c-1.228-1.007-2.66-1.698-4.044-2.365
		c-0.524-0.253-1.049-0.505-1.558-0.774c-0.348-0.184-0.711-0.313-1.032-0.426c-0.367-0.13-0.747-0.264-0.917-0.425
		c-1.113-1.051-2.215-2.166-3.281-3.244c-1.196-1.211-2.433-2.463-3.708-3.648c-1.899-1.765-2.98-3.768-3.402-6.303
		c-0.25-1.498-0.686-2.951-1.107-4.357c-0.287-0.956-0.583-1.944-0.808-2.912c-0.255-1.096-0.344-2.242-0.438-3.455l-0.046-0.586
		c-0.026-0.314-0.01-0.661,0.007-1.027c0.025-0.552,0.054-1.177-0.064-1.809c-0.113-0.605-0.316-1.166-0.513-1.708
		c-0.478-1.317-0.685-2.037-0.106-2.849c0.812,0.219,1.78,0.398,2.641,0.073c2.858-1.085,4.688-3.428,5.441-6.964
		c0.109-0.517,0.232-0.891,0.387-1.176c1.147-2.117,0.717-3.833-1.382-5.295c-1.539-1.071-3.282-2.284-3.923-3.7
		c-1.524-3.368-2.656-6.976-0.632-10.542c0.365-0.643,0.951-1.234,1.493-1.505c1.286-0.645,2.635-1.246,3.94-1.827
		c1.555-0.692,3.163-1.408,4.709-2.217c2.147-1.123,4.251-2.381,6.286-3.598c0.82-0.49,1.64-0.979,2.463-1.461
		c0.178-0.01,0.354-0.021,0.531-0.031c2.27-0.12,5.095-0.268,6.659-3.535c0.391-0.816,0.665-1.497,0.724-2.125
		c1.361-0.024,1.625,0.089,1.829,1.078c0.248,1.201,0.938,1.814,1.473,2.118c0.573,0.325,1.185,0.432,1.74,0.432
		c0.713,0,1.334-0.176,1.664-0.292c1.499-0.523,2.884-1.301,4.224-2.053c0.42-0.236,0.843-0.466,1.267-0.694
		c1.337,1.085,1.614,1.416,0.748,2.642c-0.171,0.241-0.336,0.659-0.151,1.281c0.183,0.615,0.913,1.917,1.848,2.286
		c1.576,0.621,3.229,0.998,4.781,1.092c0.088,0.005,0.174,0.008,0.258,0.008c2.145,0,3.067-1.68,3.687-2.807
		c0.165-0.301,0.328-0.601,0.513-0.869c1.254-1.819-0.022-3.077-0.636-3.682c-0.135-0.133-0.272-0.265-0.388-0.407
		c-0.371-0.456-0.706-0.951-1.062-1.476c-0.212-0.314-0.425-0.628-0.646-0.936c-0.125-0.174-0.241-0.362-0.358-0.55
		c-0.366-0.588-0.781-1.255-1.462-1.687c-0.874-0.557-1.788-1.046-2.671-1.52c-0.874-0.468-1.703-0.913-2.494-1.414
		c-0.031-0.202-0.035-0.546,0.011-0.729c0.036-0.061,0.188-0.207,0.287-0.304c0.315-0.305,0.708-0.684,0.873-1.262l0.09-0.313
		c0.348-1.203,0.74-2.566,0.297-3.79c-0.372-1.027-1.497-1.473-2.49-1.866c-0.245-0.096-0.485-0.191-0.698-0.291
		c-0.133-0.062-0.266-0.116-0.399-0.164c0.005-0.005,0.01-0.01,0.015-0.015c0.482-0.507,0.984-0.997,1.487-1.486
		c0.747-0.727,1.52-1.479,2.23-2.295c0.76-0.873,1.071-1.907,0.877-2.912c-0.182-0.943-0.812-1.753-1.729-2.222
		c-1.698-0.868-3.723-1.555-6.189-2.101c-0.455-0.101-0.715-0.2-0.858-0.269c0.058-0.096,0.155-0.235,0.319-0.428
		c1.783-2.083,3.467-4.051,6.26-4.081c0.833-0.008,1.541-0.595,1.999-1.035c1.457-1.393,1.404-3.118,1.362-4.503
		c-0.01-0.327-0.021-0.653-0.011-0.974c0.044-1.286-0.423-2.921-2.888-3.409c-0.638-0.126-1.291-0.345-1.983-0.576
		c-1.291-0.431-2.628-0.873-4.021-0.763c-0.627,0.055-1.3-0.165-2.005-0.394c-1.127-0.366-2.527-0.821-4.066-0.143
		c-1.402,0.616-2.661,0.499-4.21-0.392c-1.585-0.912-3.222-1.176-5.008-0.801c-2.072,0.437-4.094,0.314-4.802-0.292
		c-1.885-1.61-3.813-1.937-5.676-2.253l-0.221-0.038c-1.748-0.299-3.525-0.521-5.245-0.735c-0.722-0.09-1.444-0.18-2.164-0.276
		c-0.08-0.181-0.158-0.365-0.237-0.55c-0.498-1.175-1.062-2.506-2.2-3.16c-0.95-0.546-1.151-1.259-1.423-2.473
		c-0.133-0.595-0.271-1.21-0.556-1.827c-0.271-0.59-1.334-2.23-2.613-2.076c-0.575,0.074-0.639,0.014-1.02-0.883
		c-0.111-0.262-0.236-0.555-0.404-0.842c0.068-0.094,0.133-0.174,0.175-0.201c1.899-1.15,2.977-2.609,3.035-4.107
		c0.047-1.211-0.583-2.349-1.773-3.204c-0.879-0.629-2.449-0.801-3.504-0.379c-1.254,0.503-2.539,0.882-3.899,1.283
		c-2.538,0.748-5.162,1.522-7.546,3.154c-1.161,0.794-2.959,0.338-4.699-0.193c-2.825-0.864-6.095-1.452-9.088,0.727
		c-2.016-0.905-3.847-0.193-5.337,0.385c-0.666,0.258-1.294,0.502-1.889,0.602c-2.948,0.492-4.984,2.959-5.586,6.77
		c-0.312,1.975-0.7,2.145-1.257,2.178c-0.275,0.017-0.557,0.044-0.84,0.072c-1.779,0.174-2.66,0.193-3.314-1.28
		c-0.563-1.266-2.06-2.362-4.005-2.932c-0.858-0.251-3.016-0.731-4.493,0.242c-0.801,0.528-1.116,0.558-1.97,0.187
		c-0.887-0.384-1.781-0.391-2.516-0.022c-0.532,0.267-1.23,0.863-1.542,2.188c-0.533,2.266-1.232,4.551-1.908,6.762
		c-0.191,0.625-0.371,1.253-0.559,1.879c-0.754-0.37-1.552-0.57-2.325-0.583c-3.745,0.043-7.558,4.096-8.638,7.705
		c-0.526,1.758-0.136,3.208,0.209,4.488c0.06,0.224,0.117,0.443,0.17,0.661c-1.281-0.424-2.708-0.687-4.365,0.071
		c-0.632,0.29-1.392,0.425-2.195,0.569c-0.69,0.123-1.404,0.25-2.108,0.486c-0.642,0.215-1.043,0.704-1.366,1.096
		c-0.143,0.174-0.305,0.371-0.412,0.44l-0.202,0.133c-0.31,0.205-0.954,0.629-1.143,0.649c-0.277-0.059-0.816-0.511-1.346-1.368
		c-0.854-1.38-1.197-2.944-1.026-3.602c0.323-1.239,0.124-2.434-0.561-3.366c-0.67-0.913-1.722-1.448-2.959-1.508
		c-1.121-0.055-2.247-0.038-3.333-0.021l-0.698,0.01c-1.468,0.018-2.99,1.052-3.973,2.7c-0.971,1.627-1.148,3.366-0.475,4.649
		c1.179,2.249,1.258,3.996,0.249,5.5c-0.754,1.123-1.673,2.137-2.647,3.209c-0.645,0.71-1.311,1.445-1.929,2.219
		c-0.48,0.602-0.771,1.27-1.053,1.917c-0.109,0.25-0.217,0.5-0.337,0.741c-0.07,0.141-0.132,0.301-0.19,0.463
		c-0.017,0.045-0.032,0.092-0.048,0.136c-1.627,1.029-2.067,2.546-2.326,3.994c-0.126-0.105-0.18-0.189-0.199-0.238
		c-0.078-0.202,0.03-0.596,0.296-1.08c0.486-0.883,0.604-1.734,0.348-2.529c-0.396-1.23-1.54-1.916-2.606-2.424
		c-1.636-0.781-3.453-1.081-4.862-0.802c-0.687,0.136-1.236,0.032-1.474-0.131c-0.045-0.031-0.072-0.06-0.074-0.071
		c-0.408-2.301-1.875-3.558-3.169-4.667c-0.253-0.217-0.508-0.435-0.756-0.662c-0.303-0.278-0.342-0.313-0.06-1.386
		c0.52-1.971,0.545-4.334,0.071-6.655c-0.261-1.278-1.172-2.279-2.5-2.747c-1.809-0.638-4.021-0.184-5.637,1.156
		c-0.155,0.128-0.343,0.253-0.538,0.384c-0.817,0.552-2.602,1.757-1.911,3.846l-0.482,0.421c-0.852,0.746-1.703,1.492-2.575,2.212
		c-0.399,0.33-0.814,0.64-1.229,0.951c-0.67,0.501-1.362,1.021-2.003,1.621c-0.756,0.71-0.513,2.053-0.28,2.662
		c0.214,0.561,0.684,0.844,0.995,1.032c0.074,0.044,0.153,0.084,0.21,0.134c0.724,0.719,0.929,1.244,0.879,1.496
		c-0.05,0.256-0.435,0.556-1.027,0.802c-2.094,0.868-3.076,2.182-3.185,4.261c-0.019,0.35-0.115,0.577-0.203,0.646
		c-0.063,0.05-0.215,0.058-0.41,0.023c-2.521-0.454-3.559,1.26-4.028,2.399c-0.856-0.144-1.648-0.414-2.245-0.784
		c-2.292-1.422-6.716-1.673-8.986,0.134c-1.454,1.158-2.807,1.913-4.698,1.795c-1.15-0.063-2.223,0.488-3.17,0.98
		c-0.202,0.105-0.402,0.209-0.599,0.304c-1.304,0.63-1.697,0.569-2.346-0.357c-0.341-0.485-1.381-1.961-2.894-1.873
		c-1.524,0.089-2.388,1.691-2.672,2.218c-0.955,1.771-2.298,2.661-4.357,2.887c-0.644,0.071-1.229,0.458-1.74,1.149
		c-0.865,1.172-1.563,3.409-1.235,5.12c0.604,3.151,2.469,5.52,5.519,7.029c0.135,0.094,0.344,0.465,0.356,0.609
		c-0.211,3.396,0.976,5.704,3.632,7.054c0.458,0.232,0.917,0.711,1.361,1.174l0.07,0.073c0.553,0.575,0.494,0.654,0.21,1.034
		c-0.307,0.41-1.796,2.525-1.008,3.884c0.125,0.215,0.182,0.358,0.208,0.443c-0.13,0.078-0.357,0.175-0.519,0.245
		c-0.192,0.083-0.385,0.166-0.567,0.259c-0.241,0.124-0.501,0.219-0.759,0.316c-0.519,0.196-1.107,0.418-1.626,0.82l-0.209,0.164
		c-1.673,1.304-2.996,2.334-5.092,1.901c-2.488-0.517-4.286,1.079-5.732,2.357c-0.215,0.19-0.429,0.379-0.642,0.559
		c-0.583,0.492-1.189,1.687-0.761,2.561c0.23,0.469,0.417,0.978,0.615,1.516c0.519,1.408,1.106,3.003,2.636,4.143
		c0.441,0.329,0.743,0.774,0.765,0.948c0.57,4.469,3.106,6.883,7.531,7.174c0.189,0.037,0.692,0.557,0.939,1.375
		c0.183,0.607,0.105,1.011,0.022,1.093c-1.485,1.474-2.132,3.083-2.084,5.198c-0.14,0.182-0.497,0.487-0.679,0.643l-0.105,0.091
		c-2.382,2.047-2.762,4.169-1.233,6.88c0.086,0.153,0.195,0.317,0.306,0.483c0.065,0.098,0.162,0.242,0.224,0.349
		c-0.792,3.021,0.641,5.2,1.909,7.128c0.324,0.493,0.651,0.989,0.942,1.503c0.149,0.263,0.271,0.572,0.399,0.899
		c0.423,1.077,1.003,2.552,3.006,2.821c2.388,0.322,4.365,1.607,6.507,3c3.579,2.326,7.581,2.427,11.272,0.286l0.154-0.09
		c0.241-0.141,0.541-0.316,0.544-0.345c0.015,0.005,0.157,0.067,0.519,0.445c0.317,0.331,0.367,0.473,0.372,0.473
		c-0.009,0.089-0.146,0.365-0.246,0.566l-0.135,0.275c-0.623,1.29-1.655,2.279-2.748,3.326c-0.935,0.896-1.901,1.821-2.653,2.985
		c-0.776,1.201-1.493,2.462-0.993,3.519c0.177,0.374,0.314,0.835,0.46,1.324c0.451,1.513,1.069,3.585,3.522,3.985l0.44,0.073
		c2.025,0.341,4.319,0.728,6.617-0.849c0.318-0.218,0.95-0.275,1.561-0.331c0.666-0.06,1.421-0.128,2.121-0.415
		c0.621-0.254,1.251-0.497,1.883-0.74c3.311-1.276,6.734-2.597,9.158-5.557c1.849-2.259,3.567-4.799,3.62-8.051
		c0.031-0.229,0.417-0.76,0.58-0.846c3.604-0.917,5.827-2.963,6.427-5.918c0.363-1.788,1.624-2.577,3.083-3.491
		c0.725-0.454,1.475-0.923,2.145-1.539c1.65-1.518,3.637-1.64,6.44-0.395c1.004,0.445,2.065,0.606,3.091,0.763
		c0.695,0.105,1.352,0.205,1.956,0.386c0.322,0.097,0.784,0.514,1.099,0.992c0.865,1.318,2.544,2.375,4.083,2.571
		c1.023,0.134,1.905-0.111,2.553-0.699c0.385-0.348,0.584-0.397,0.584-0.41c0.179,0.098,0.478,0.678,0.605,0.926
		c0.667,1.297,1.445,2.188,3.266,2.626c0.742,0.178,1.498,0.758,2.299,1.372c0.264,0.203,0.527,0.404,0.79,0.592
		c0.915,0.654,1.816,1.327,2.718,2c1.542,1.151,3.138,2.341,4.785,3.423c1.356,0.891,2.772,1.274,4.581,1.246
		c1.685-0.033,3.779,0.126,5.113,1.568l0.607,0.65c1.684,1.793,3.273,3.488,3.774,5.785c0.064,0.293,0.133,0.59,0.202,0.889
		c0.329,1.419,0.669,2.886,0.462,4.106c-0.396,2.327,0.083,4.427,0.546,6.457c0.256,1.121,0.498,2.18,0.592,3.255
		c0.072,0.826,0.637,1.43,1.09,1.915c0.19,0.203,0.386,0.413,0.493,0.583c0.291,0.462,0.588,0.921,0.886,1.381
		c0.923,1.424,1.795,2.77,2.475,4.214c0.289,0.613,0.639,1.161,0.977,1.691c0.65,1.019,1.211,1.898,1.274,3.061l0.037,0.641
		c0.16,2.757,0.298,5.138-1.151,7.367c-1.291,1.986-0.897,4.578,0.938,6.164c1.754,1.515,3.703,1.418,5.484-0.272
		c0.496-0.471,0.72-0.44,1.843,0.249c0.274,0.168,0.546,0.333,0.815,0.466c0.034,0.017,0.063,0.032,0.087,0.046
		c-0.067,0.136-0.181,0.319-0.258,0.442c-0.146,0.232-0.296,0.473-0.405,0.737c-0.51,1.235-0.486,2.567,0.065,3.656
		c0.535,1.055,1.508,1.802,2.74,2.105c0.53,0.13,1.063,0.253,1.595,0.375c0.863,0.198,1.726,0.396,2.577,0.631
		c0.077,0.021,0.257,0.148,0.363,0.297c1.518,2.134,2.986,4.251,4.365,6.295c0.067,0.611-0.305,2.531-0.554,2.923
		c-1.471,1.621-0.778,3.553-0.406,4.592c0.621,1.734,2.501,2.746,4.09,2.979c1.568,0.236,2.905-0.227,3.664-1.255
		c0.885-1.2,1.709-0.979,3.089-0.479l0.146,0.053c5.496,1.969,8.762,4.94,10.278,9.351c0.559,1.624,1.415,3.317,2.616,5.177
		c0.592,0.916,2.033,1.813,3.225,1.709c1.292-0.121,2.289,0.252,3.329,1.251c0.528,0.507,1.068,1.003,1.607,1.499
		c1.157,1.063,2.25,2.066,3.236,3.183c0.787,0.89,1.213,1.863,1.157,2.253c-0.481,3.317,1.814,4.28,3.333,4.917
		c0.211,0.088,0.424,0.178,0.634,0.272l0.243,0.11c0.709,0.317,1.442,0.646,1.802,1.081c2.465,2.967,4.871,6.031,7.15,9.107
		c0.126,0.171,0.235,0.357,0.341,0.537c0.366,0.616,0.821,1.384,1.76,1.603c0.563,0.128,1.168,0.021,1.838-0.337
		c0.253,0.14,0.609,0.378,0.808,0.511l0.458,0.303c0.914,0.604,1.948,1.287,3.816,0.682c0.33-0.065,1.601,0.55,2.72,1.605
		c0.647,0.611,1.088,1.663,1.514,2.68l0.253,0.599c0.557,1.285,1.493,3.034,3.199,3.375c1.264,0.256,2.596-0.33,4.096-1.777
		c2.042-1.973,5.666-1.64,8.077,0.734c1.084,1.067,2.341,1.63,3.641,1.63c0.021,0,0.041-0.001,0.063-0.001
		c1.379-0.019,2.721-0.667,3.872-1.866c0.086-0.072,0.363-0.162,0.54-0.139c0.234,0.022,0.585,0.199,0.796,0.402
		c2.406,2.314,3.924,4.739,4.775,7.63c0.404,1.367,1.268,2.503,2.103,3.602c0.492,0.646,0.956,1.257,1.313,1.892
		c0.28,0.496,0.421,1.3,0.359,2.048c-0.091,1.113-0.089,2.713,0.977,3.759c0.745,0.732,1.818,1.018,3.271,0.868
		c1.762-0.177,3.954-0.546,5.288-1.838c0.275-0.267,0.448-0.375,0.532-0.417c0.124,0.102,0.327,0.34,0.468,0.506l0.17,0.198
		c0.229,0.264,0.439,0.573,0.663,0.9c0.177,0.261,0.354,0.521,0.546,0.77c0.12,0.157,0.244,0.312,0.37,0.465
		c-0.178,0.087-0.35,0.158-0.513,0.201c-1.855,0.488-3.236,3.119-2.787,5.313c0.641,3.118,2.865,3.027,3.794,2.845
		c0.497-0.1,0.907-0.339,1.237-0.531c0.149-0.088,0.298-0.179,0.457-0.242c0.366-0.146,0.726-0.334,1.085-0.524
		c1.166-0.615,1.636-0.792,2.356-0.341c0.622,0.395,1.931,0.475,2.478-0.301c0.327-0.459,0.85-0.511,1.964-0.52
		c1.043-0.009,2.524-0.021,3.555-1.174l0.048,0.056c0.906,1.045,1.763,2.032,2.456,3.12c0.502,0.785,0.844,1.714,1.205,2.696
		l0.2,0.541c0.095,0.253,0.202,0.505,0.31,0.757c0.626,1.468,0.758,1.925-0.334,2.7c-0.919,0.652-1.567,1.955-1.926,3.871
		c-0.201,1.069,0.166,2.707,1.109,3.486c0.268,0.223,0.54,0.458,0.816,0.697c1.446,1.251,3.086,2.669,4.959,2.872
		c0.937,0.102,1.692,0.503,2.493,0.927c0.516,0.273,1.049,0.556,1.651,0.775l0.227,0.078c0.128,0.043,0.358,0.121,0.508,0.195
		c-0.029,0.063-0.077,0.148-0.153,0.259c-0.257,0.374-0.292,0.835-0.105,1.371c0.256,0.731,1.242,2.315,2.361,2.657
		c1.945,0.598,4.013,0.75,5.96,0.824c0.787,0.022,1.713-0.506,2.621-1.595c0.839-1.002,1.61-1.525,2.08-1.515
		c0.536,0.025,1.109,0.7,1.495,1.262l0.324,0.469c1.22,1.753,2.273,3.267,2.021,5.666c-0.262,2.508,0.654,5.041,1.541,7.491
		c0.197,0.545,0.393,1.085,0.571,1.618c0.732,2.178,1.769,4.681,3.907,6.723c2.672,2.552,2.869,6.277,3.06,9.88l0.038,0.706
		c0.237,4.296,1.031,9.217,5.118,13.143c0.801,0.771,0.634,1.353-0.048,2.819c-0.22,0.472-0.446,0.959-0.591,1.473
		c-0.04,0.143-0.083,0.21-0.075,0.21c0,0,0,0,0.001,0c-0.233,0.08-1.05-0.194-1.488-0.345l-0.127-0.044
		c-1.009-0.349-2.155,0.085-3.044,0.5c-1.765,0.824-3.338,1.648-4.808,2.52c-1.517,0.899-2.419,2.277-2.414,3.686
		c0.005,1.249,0.723,2.384,1.972,3.113c1.3,0.759,1.14,1.163,0.541,2.668l-0.096,0.241c-0.17,0.433-0.335,0.869-0.499,1.306
		c-0.533,1.412-1.037,2.746-1.718,3.981c-0.398,0.724-1.178,1.436-1.854,1.694c-4.088,1.566-4.458,2.059-4.399,5.853l0.013,0.969
		c0.008,1.098,0.057,2.201,0.105,3.307c0.028,0.64,0.057,1.28,0.077,1.921c0.063,2.018,1.229,4.145,3.122,5.69
		c1.539,1.257,3.295,1.937,4.945,1.937c0.328,0,0.652-0.027,0.97-0.082c1.496-0.258,3.262-0.515,4.969-0.46
		c2.979,0.094,4.954-1.029,6.026-3.438c0.117-0.263,0.266-0.522,0.412-0.782c0.381-0.679,0.813-1.447,0.869-2.335
		c0.168-2.638,1.668-4.619,3.256-6.717c0.462-0.609,0.923-1.219,1.354-1.845c0.094-0.138,0.554-0.336,0.858-0.468
		c0.322-0.139,0.655-0.282,1.045-0.521c2.791-1.708,5.678-3.473,7.479-6.563c0.483-0.832,0.728-1.938,0.637-2.886
		c-0.154-1.612-0.379-3.232-0.596-4.799c-0.124-0.89-0.247-1.779-0.358-2.671c-0.106-0.852-0.263-3.758,2.189-5.421l0.338-0.229
		c2.044-1.392,3.975-2.706,6.261-3.217c0.568-0.129,1.289-0.076,1.607,0.115c1.932,1.167,4.126,1.397,6.019,0.639
		c1.876-0.753,3.286-2.421,3.869-4.575l0.027-0.102c0.058-0.216,0.154-0.577,0.236-0.672c0.724-0.828,1.017-1.775,0.825-2.669
		c-0.188-0.872-0.824-1.615-1.747-2.037c-1.337-0.611-1.493-1.173-0.881-3.165c0.403-1.313,0.728-2.795,0.079-3.84
		c-0.697-1.123-0.719-2.138-0.081-3.744c0.841-2.114,0.499-3.409-1.354-5.134c-1.394-1.296-2.997-2.246-4.549-3.165
		c-2.191-1.298-4.261-2.523-5.61-4.606c-1.306-2.016-3.264-1.647-4.558-1.407c-0.471,0.088-0.901,0.172-1.277,0.156l-0.213-0.009
		c-0.578-0.022-1.37-0.054-1.555-0.257c-0.075-0.082-0.146-0.334-0.112-0.859c0.033-0.265,0.11-0.884-0.401-1.334
		c-1.917-1.679-1.365-2.522,0.183-4.436c0.472-0.583,0.959-1.187,1.323-1.849c0.043-0.073,0.235-0.231,0.363-0.336l0.104-0.087
		c1.66-1.385,1.908-3.351,0.632-5.008c-0.81-1.052,0.058-1.989,0.24-2.167c1.893-1.844,3.005-4.083,4.081-6.249
		c0.817-1.646,1.589-3.201,2.668-4.549c1.514-1.895,3.304-3.758,5.319-5.538c0.167-0.147,0.691-0.129,1.203,0.135
		c0.49,0.253,0.772,0.626,0.751,0.825c-0.251,2.407,1.023,3.401,2.438,4.118c0.865,0.438,1.722,0.898,2.578,1.359
		c1.837,0.988,3.736,2.011,5.726,2.8c1.047,0.416,2.146,0.325,3.21,0.238c0.554-0.046,1.078-0.09,1.55-0.055
		c2.332,0.17,4.611,0.355,6.832,0.752c0.138,0.211,0.327,0.649,0.438,0.903c0.041,0.096,0.082,0.189,0.121,0.278
		c-0.004,0.062-0.015,0.125-0.022,0.187c-0.048,0.378-0.146,1.164,0.552,1.61c1.826,1.163,1.924,2.756,1.931,5.259
		c0.002,0.433,0.003,0.866,0.02,1.298c0.029,0.75,0.296,1.535,0.713,2.102c2.148,2.921,4.82,6.105,9.355,6.927
		c0.324,0.06,0.776,0.402,1.253,0.763c1.446,1.087,3.221,1.344,4.634,0.666c1.235-0.592,1.972-1.789,2.02-3.284
		c0.119-3.618,0.958-6.172,2.807-8.539C440.291,354.569,440.346,351.76,438.688,348.48z M321.43,270.758
		c1.98,0.634,3.307,2.1,4.692,3.664c-0.172,0.469-0.359,0.936-0.55,1.402c-1.052,2.578-2.236,5.482-0.391,8.655
		c-0.134,0.134-0.264,0.273-0.395,0.414c-0.834,0.9-0.972,0.999-1.712,0.528c-0.642-0.408-1.397-0.459-2.024-0.132
		c-0.726,0.378-1.168,1.187-1.212,2.22c-0.047,1.103-0.254,2.206-0.472,3.375c-0.074,0.397-0.148,0.794-0.217,1.191
		c-0.128,0.753-0.435,0.96-0.535,1.028c-0.373,0.252-1.01,0.29-1.839,0.113c-0.081-0.017-0.174-0.045-0.275-0.074
		c-0.612-0.177-1.633-0.472-2.522,0.104c-0.489,0.315-0.816,0.815-0.975,1.484c-0.099,0.082-0.192,0.168-0.269,0.254
		c-1.961,2.23-3.487,2.466-6.287,0.972c-0.656-0.351-1.287-0.757-1.956-1.187c-0.98-0.631-1.995-1.283-3.115-1.763
		c-2.442-1.044-4.437-1.609-6.274-1.779c-0.86-0.079-1.686,0.233-2.326,0.883c-0.468,0.475-0.825,1.13-1.067,1.889l-1.56-1.275
		c0.133-0.235,0.271-0.466,0.394-0.709c0.904-1.805,0.718-3.432-0.625-5.44c-0.067-0.101-0.128-0.198-0.191-0.299
		c0.297-0.148,0.592-0.303,0.888-0.459c1.073-0.568,2.086-1.104,3.082-1.248c1.258-0.179,2.445-0.349,2.902-1.365
		c0.437-0.975-0.165-2.021-0.818-3.007c-0.192-0.29-0.388-0.71-0.229-1.064c0.185-0.413,0.799-0.744,1.602-0.862
		c0.207-0.03,0.91-0.175,1.279-0.763c0.805-1.272,1.313-1.346,2.138-1.043c0.579,0.213,1.162,0.334,1.726,0.451
		c0.675,0.141,1.313,0.273,1.802,0.542c1.207,0.66,1.456,1.99,1.675,3.798c0.076,0.621,0.642,1.054,1.263,0.989
		c0.459-0.057,0.816-0.38,0.944-0.795c0.068-0.038,0.133-0.078,0.203-0.115c0.461-0.244,1.035-0.549,1.389-1.13
		c1.896-3.113,3.777-6.301,5.597-9.384l1.378-2.333C318.095,269.333,319.697,270.202,321.43,270.758z M291.648,242.222
		c0.281,0.646,0.563,1.291,0.839,1.938c0.287,0.672,0.592,1.168,0.959,1.562c0.8,0.856,1.579,1.778,2.332,2.67
		c2.204,2.606,4.482,5.302,7.804,7.081c1.074,0.575,2.132,1.859,3.233,3.927c1.234,2.315,3.214,3.262,5.169,3.939l0.102,0.035
		c1.908,0.661,2.338,0.949,2.175,2.258c-0.066,0.534,0.164,1.03,0.482,1.45l-1.529,2.589c-1.805,3.059-3.672,6.22-5.538,9.288
		c-0.335-1.313-0.99-2.668-2.49-3.488c-0.784-0.43-1.62-0.604-2.428-0.772c-0.506-0.105-0.983-0.205-1.406-0.36
		c-2.643-0.968-4.077,0.811-4.679,1.715c-1.537,0.264-2.695,1.045-3.192,2.157c-0.451,1.01-0.306,2.16,0.408,3.24
		c0.213,0.321,0.349,0.553,0.437,0.718c-0.323,0.069-0.746,0.13-0.95,0.159c-1.388,0.198-2.625,0.854-3.821,1.487
		c-0.387,0.205-0.774,0.399-1.163,0.585c-0.623-0.679-1.44-1.241-2.694-1.431c-0.425-0.067-1.065-0.169-1.641,0.159
		c-0.485,0.274-0.807,0.461-1.441-0.607c-0.367-0.619-0.906-1.346-1.816-1.473c-0.947-0.138-1.709,0.481-2.206,0.953
		c-1.345,1.278-1.903,1.307-3.507,0.188c-0.438-0.305-0.913-0.507-1.332-0.685c-0.4-0.17-0.777-0.331-1.017-0.535
		c-0.171-0.146-0.358-0.299-0.552-0.457c-0.496-0.406-1.529-1.251-1.625-1.548c0.107-1.922-0.861-2.685-1.64-3.298l-0.191-0.151
		c-0.576-0.462-1.104-1.038-1.586-1.587c-0.058-0.071-0.178-0.312-0.242-0.44c-0.224-0.446-0.638-1.283-1.57-1.102
		c-0.525,0.095-1.106-0.225-1.784-0.601c-1.064-0.589-2.497-1.383-4.217-0.54c-0.054-0.027-0.1-0.055-0.116-0.066
		c-0.408-0.608-0.265-3.547,0.191-4.125c1.822-1.852,1.822-1.853,4.29-0.886l0.215,0.084c0.959,0.375,2.001,0.198,2.922,0.041
		c0.341-0.058,0.683-0.118,1.01-0.142c0.301-0.021,0.58-0.161,0.777-0.389c0.196-0.228,0.295-0.524,0.273-0.824
		c-0.011-0.152,0.059-0.44,0.119-0.694c0.16-0.661,0.378-1.567-0.159-2.405c-0.393-0.611-1.079-1.007-2.101-1.207
		c-0.985-0.193-2.316-0.803-2.507-3.86c-0.092-1.464-0.387-2.997-1.92-4.29c-0.248-0.208-0.473-0.533-0.542-0.701
		c0.271-1.177,0.764-2.347,1.332-3.639c1.088-2.475,1.318-2.595,4.211-2.094c0.73,0.126,1.785,0.077,2.537-0.441
		c1.109-0.759,2.056-1.709,2.673-2.359c0.265-0.28,0.57-0.54,0.894-0.815c0.946-0.807,2.125-1.811,2.483-3.683
		c0.108-0.563,0.276-0.827,0.397-0.885c0.182-0.09,0.701-0.03,1.575,0.424c1.196,0.621,2.998,1.226,4.849-0.676
		c0.996-1.024,2.297-2.016,3.976-3.032c0.286-0.174,0.823-0.226,1.343-0.276c0.13-0.013,0.254-0.034,0.383-0.048
		c0.283,0.721,0.566,1.44,0.826,2.159C289.978,238.393,290.826,240.339,291.648,242.222z M252.512,185.35
		c1.323,0.638,2.572,1.24,3.59,2.075c1.619,1.329,3.208,2.776,4.744,4.176c2.09,1.903,4.25,3.87,6.557,5.609l0.505,0.389
		c1.613,1.254,3.807,2.957,6.725,1.972c0.094,0.046,0.224,0.124,0.335,0.213c2.275,1.818,3.582,3.302,3.976,5.931
		c0.307,2.048,1.17,3.958,2.005,5.806c0.588,1.302,1.144,2.532,1.519,3.802c0.43,1.458,1.021,2.841,1.592,4.178
		c0.948,2.22,1.844,4.316,2.053,6.714c0.175,2.008,0.779,3.957,1.483,5.857c-0.676,0.07-1.409,0.174-2.061,0.568
		c-1.846,1.117-3.294,2.227-4.426,3.391c-0.707,0.727-1.154,0.777-2.178,0.245c-1.476-0.766-2.657-0.916-3.609-0.453
		c-0.846,0.41-1.396,1.25-1.636,2.499c-0.209,1.09-0.88,1.661-1.728,2.384c-0.354,0.302-0.721,0.614-1.068,0.981
		c-0.365,0.385-0.703,0.714-1.03,1.013c-1.459-1.673-3.318-2.845-5.657-3.555c0.009-0.035,0.023-0.062,0.032-0.098
		c0.153-0.638,0.656-1.302,1.189-2.005c0.284-0.375,0.567-0.75,0.814-1.134c0.191-0.299,0.232-0.669,0.11-1.003
		c-0.121-0.333-0.393-0.59-0.731-0.694c-0.36-0.11-0.741-0.196-1.122-0.28c-0.678-0.15-1.318-0.292-1.688-0.58
		c-0.19-0.149-0.372-0.313-0.549-0.471c-0.655-0.588-1.47-1.319-2.559-1.162c-0.862,0.125-1.464,0.757-1.877,1.347
		c-0.006,0-0.012,0-0.018,0l-0.208-0.221c-0.827-0.875-1.684-1.781-2.12-2.747c-0.876-1.943-1.605-4.121-2.166-6.471
		c-0.133-0.557-0.122-1.211-0.111-1.903c0.016-0.941,0.032-1.915-0.297-2.87c-0.188-0.544-0.323-1.131-0.467-1.753
		c-0.382-1.655-0.811-3.513-2.377-4.896c-0.07-1.465-0.49-2.457-1.276-3.024c-1.315-0.95-3.034-0.359-4.696,0.212
		c-0.191,0.066-0.556,0.158-0.821,0.025c-0.25-0.125-0.401-0.456-0.485-0.713c-0.711-2.181-2.417-3.273-5.213-3.339
		c-0.66-0.015-1.132-0.135-1.293-0.329c-0.086-0.104-0.203-0.38-0.144-1.077c0.573-0.333,0.989-0.906,1.255-1.769
		c0.185-0.598-0.151-1.233-0.75-1.417c-0.597-0.184-1.232,0.15-1.417,0.75c-0.105,0.342-0.202,0.462-0.198,0.476
		c-0.149,0.017-0.552-0.139-0.796-0.229c-0.388-0.145-0.828-0.308-1.292-0.347c-1.396-0.118-1.418-0.453-1.445-0.877
		c-0.092-1.435,0.114-1.998,0.883-2.408c0.507-0.271,0.94-0.603,1.359-0.923c0.167-0.128,0.335-0.257,0.506-0.379
		c0.09-0.064,0.152-0.15,0.218-0.233c0.163-0.109,0.303-0.258,0.394-0.447c0.271-0.565,0.032-1.242-0.532-1.513
		c-0.945-0.453-1.162-0.672-1.196-0.702c0-0.002,0.032-0.221,0.512-0.702c0.351-0.352,0.675-0.731,0.999-1.112
		c0.332-0.39,0.646-0.759,0.982-1.083c0.18-0.173,0.5-0.355,0.811-0.532c0.753-0.428,1.69-0.961,1.973-2.056
		c0.174-0.673,0.053-1.4-0.369-2.212c0.056-0.106,0.126-0.214,0.161-0.248c0.27-0.181,0.546-0.108,1.347,0.229
		c0.787,0.33,1.935,0.811,3.166,0.267c0.004,0.063,0.008,0.129,0.011,0.184c0.02,0.379,0.047,0.899,0.351,1.405
		c0.642,1.073,1.44,2.409,2.652,2.409c0.001,0,0.003,0,0.004,0c1.007-0.003,1.932-0.433,2.747-0.812
		c0.292-0.136,0.584-0.272,0.877-0.385c0.357-0.137,0.621-0.445,0.702-0.819s-0.033-0.764-0.302-1.036
		c-0.576-0.583-0.568-0.642,0.213-1.578c0.322-0.386,0.674-0.814,0.903-1.33c0.006,0.003,0.014,0.006,0.02,0.009
		C251.413,184.82,251.962,185.085,252.512,185.35z M242.862,253.784c0.086,0.606-0.03,1.065-0.175,1.236
		c-0.029,0.034-0.068,0.08-0.218,0.083c-0.183,0.012-0.488-0.068-0.682-0.285c-0.163-0.183-0.221-0.45-0.174-0.795
		c0.104-0.762-0.161-1.388-0.373-1.891c-0.278-0.659-0.322-0.851-0.106-1.221c0.42-0.722,0.268-1.594-0.398-2.274
		c-0.852-0.87-2.477-1.359-3.721-0.667c-0.661,0.366-0.906,0.347-0.906,0.354c-0.039-0.029-0.225-0.213-0.492-1.18
		c-0.485-1.756-1.084-3.584-2.178-5.052c-0.886-1.188-1.896-2.304-3.274-2.42c-1.289-0.115-2.429,0.682-3.729,1.912
		c-0.1-0.101-0.227-0.235-0.39-0.414c-0.247-0.27-0.563-0.422-0.865-0.543c0.675-0.74,0.995-1.56,0.905-2.332
		c-0.08-0.688-0.48-1.281-1.127-1.671c-0.213-0.128-0.432-0.29-0.659-0.455c-0.177-0.128-0.381-0.276-0.605-0.423
		c0.087-0.131,0.172-0.26,0.265-0.396c0.799-1.175,1.625-2.389,1.382-3.692c-0.246-1.326,0.131-2.369,0.568-3.576l0.144-0.401
		c0.377-1.052,0.847-2.362-0.862-3.75c-0.458-0.37-0.864-1.237-0.972-2.03c0.242-0.196,0.714-0.479,0.992-0.646
		c0.203-0.122,0.399-0.239,0.57-0.35l0.119-0.077c0.923-0.598,1.533-0.992,2.751-1.03c1.889-0.059,3.542-1.364,5.142-2.626
		c0.469-0.37,0.933-0.737,1.395-1.061c0.885-0.622,0.969-2.261,0.595-3.062c-0.361-0.775-1.563-1.783-2.632-1.6
		c-1.102,0.187-1.679-0.353-2.691-1.407l-0.29-0.3c-0.201-0.206-0.462-0.472-0.662-0.694c0.296-0.156,0.671-0.33,0.855-0.416
		c1.138-0.526,2.283-1.341,2.146-3.386c-0.032-0.488,0.034-1.021,0.106-1.583c0.044,0.005,0.083,0.014,0.129,0.018
		c0.155,0.013,0.44,0.119,0.692,0.213c0.13,0.048,0.271,0.099,0.418,0.148c-0.038,0.81,0.077,1.725,0.682,2.449
		c0.615,0.736,1.59,1.109,2.98,1.142c2.241,0.052,2.819,0.884,3.109,1.774c0.395,1.21,1.104,1.777,1.629,2.039
		c0.755,0.376,1.643,0.407,2.569,0.09c0.849-0.292,2.271-0.779,2.633-0.518c0.037,0.027,0.359,0.301,0.345,1.726
		c-0.004,0.368,0.171,0.714,0.469,0.93c1.258,0.911,1.582,2.313,1.957,3.937c0.15,0.651,0.306,1.325,0.532,1.981
		c0.199,0.578,0.187,1.314,0.174,2.094c-0.014,0.803-0.027,1.633,0.172,2.468c0.594,2.489,1.369,4.803,2.305,6.878
		c0.594,1.313,1.583,2.359,2.54,3.371l0.37,0.393c0.548,0.588,1.503,0.562,1.887,0.523c0.622-0.063,1.062-0.297,1.307-0.696
		c0.253-0.411,0.426-0.576,0.504-0.636c0.177,0.089,0.503,0.382,0.727,0.583c0.215,0.192,0.437,0.39,0.669,0.571
		c0.586,0.458,1.283,0.691,1.958,0.859c-0.567,0.759-1.11,1.558-1.342,2.519c-0.419,1.741-1.431,2.233-3.401,2.624
		c-4.165,0.825-7.326,2.909-9.395,6.193c-0.188,0.297-0.479,0.596-0.788,0.911c-0.61,0.624-1.392,1.423-1.609,2.587
		c-0.063,0.003-0.113,0-0.139-0.007c-0.895-0.408-1.836-0.719-2.67-0.246c-0.84,0.475-1.058,1.445-1.17,2.43
		C242.828,253.281,242.829,253.539,242.862,253.784z M236.319,164.782c0.42,1.4,0.817,2.722,1.042,4.078
		c0.502,3.014,1.842,5.497,4.096,7.592c1.241,1.152,2.46,2.387,3.64,3.581c1.079,1.092,2.195,2.222,3.336,3.299
		c0.111,0.105,0.23,0.193,0.35,0.276c-0.096,0.226-0.341,0.525-0.568,0.798c-0.542,0.649-1.544,1.85-0.966,3.335
		c-0.489,0.224-0.952,0.418-1.354,0.468c-0.272-0.268-0.709-0.998-0.882-1.278c-0.019-0.061-0.029-0.25-0.036-0.375
		c-0.02-0.377-0.044-0.846-0.288-1.306c-0.381-0.718-1.305-0.993-1.486-1.041c-0.503-0.133-0.938-0.088-1.291,0.138
		c-0.338,0.215-0.639,0.146-1.5-0.216c-0.856-0.359-2.15-0.9-3.472-0.03c-0.7,0.461-1.655,1.972-1.055,2.956
		c0.369,0.604,0.318,0.821,0.316,0.83c-0.043,0.166-0.579,0.471-0.899,0.653c-0.411,0.234-0.877,0.499-1.261,0.868
		c-0.318,0.306-0.602,0.627-0.876,0.946c-1.881-0.883-3.164,0.524-3.657,1.069c-1.736,1.913-2.277,1.991-4.137,0.581
		c-1.209-0.916-2.73-1.81-4.773-1.46c-0.776-0.09-3.402-2.361-3.786-3.436c-0.622-1.738-0.737-2.9,0.43-4.064
		c0.896-0.894,1.153-2.333,1.324-3.286c0.221-1.229-0.148-2.397-1.012-3.204c-0.865-0.807-2.106-1.107-3.319-0.802
		c-0.157,0.039-0.3,0.102-0.429,0.175c-0.991-0.611-2.082-0.909-3.066-1.178c-0.924-0.252-1.796-0.491-2.412-0.937
		c-0.275-0.199-0.524-0.385-0.753-0.556c-2.055-1.532-3.159-2.195-5.77-0.516c-0.334,0.215-0.783,0.392-1.258,0.579
		c-1.372,0.541-3.396,1.339-3.596,3.952c-0.616,0.082-1.711-0.037-1.961-0.272c-0.923-1.653-2.019-1.983-2.748-1.958
		c-0.997,0.026-1.89,0.694-2.451,1.833c-0.331,0.673-0.559,0.8-0.554,0.806c-0.184-0.014-0.661-0.402-0.917-0.611
		c-0.216-0.176-0.426-0.346-0.628-0.483c-0.249-0.17-0.476-0.373-0.702-0.571c-0.81-0.712-1.919-1.686-3.702-1.271
		c-0.196,0.045-0.416,0.066-0.634,0.089c-0.682,0.073-1.53,0.164-2.113,0.776c-0.322,0.339-0.516,0.474-0.608,0.526
		c-0.109-0.086-0.324-0.312-0.737-0.893c-1.241-1.745-2.945-3.454-4.927-4.942c-0.2-0.15-0.4-0.332-0.606-0.516
		c-0.891-0.799-2.491-2.233-4.609-1.17c-0.024-0.017-0.048-0.033-0.072-0.048l-0.188-0.122c-0.361-0.228-0.713-0.48-1.064-0.733
		c-0.808-0.581-1.644-1.181-2.633-1.547c-2.246-0.833-3.341-2.665-4.541-4.973c-0.869-1.671-2.501-2.359-3.968-1.671
		c-0.548,0.256-1.133,0.472-1.752,0.7c-1.579,0.583-3.318,1.242-4.606,2.705c-0.917-1.091-2.243-1.294-4.335-0.828
		c-0.151,0.034-0.312,0.054-0.473,0.076c0.175-0.34,0.342-0.687,0.481-1.052c0.386-1.005-0.076-2.449-0.731-3.115
		c-0.456-0.463-1.006-0.747-1.492-0.998c-0.366-0.188-0.71-0.367-0.914-0.57c-1.54-1.543-2.897-1.076-4.038-0.314
		c-0.282-0.073-0.772-0.292-1.028-0.407c-0.179-0.08-0.482-0.309-0.726-0.493c-0.638-0.481-1.431-1.081-2.265-0.581
		c-0.285,0.171-0.548,0.288-0.802,0.38c0.076-0.336,0.155-0.671,0.219-1.009c0.057-0.298,0.08-0.557,0.114-0.828
		c0.051-0.018,0.103-0.033,0.154-0.051c0.522-0.182,1.016-0.354,1.47-0.402c1.072-0.114,1.742-0.521,1.993-1.208
		c0.162-0.443,0.192-1.141-0.583-1.949c-0.578-0.603-0.68-0.779,0.231-1.677c0.558-0.549,1.278-1.404,1.097-2.476
		c-0.129-0.762-0.676-1.377-1.625-1.827c-0.428-0.203-0.613-0.388-0.641-0.485c-0.027-0.094-0.026-0.415,0.573-1.357l0.192-0.301
		c1.141-1.792,2.321-3.644,2.852-5.728c0.248-0.972,0.72-1.204,1.767-1.638c0.233-0.097,0.469-0.195,0.641-0.281
		c0.055-0.014,0.115-0.018,0.173-0.025c0.327-0.041,0.935-0.116,1.305-0.665c0.349-0.517,0.695-0.544,1.645-0.545
		c0.399,0,0.853-0.001,1.322-0.08c1.075-0.186,1.185,0.028,1.84,1.266c0.487,0.916,1.667,0.688,2.172,0.588
		c0.327-0.063,0.653-0.185,0.941-0.292c0.118-0.043,0.274-0.102,0.396-0.14c0.682,0.441,1.598,0.869,2.481,0.516
		c1.038-0.414,1.264-1.528,1.446-2.424c0.032-0.159,0.065-0.32,0.102-0.478c0.033-0.141,0.069-0.265,0.104-0.37
		c0.011,0.01,0.02,0.019,0.026,0.026c0.071,0.105,0.136,0.213,0.2,0.318c0.341,0.562,1.088,1.803,2.705,1.339
		c0.172,0.167,0.357,0.382,0.403,0.492c0.814,2.739,2.866,3.339,4.962,3.58c0.994,0.114,2.155,0.58,3.186,1.278
		c1.563,1.059,3.284,1.733,5.415,2.124c0.382,0.07,0.807,0.164,1.089,0.352c4.14,2.759,4.746,2.707,8.126-0.71
		c0.363-0.367,0.735-0.743,0.98-0.952c0.217,0.241,0.54,0.665,0.854,1.08l0.19,0.25c0.586,0.77,1.45,1.221,2.212,1.62
		c0.266,0.139,0.531,0.276,0.778,0.427c1.586,0.971,2.678-0.087,3.146-0.538c0.112-0.108,0.281-0.272,0.348-0.304
		c0.308-0.118,0.612-0.246,0.917-0.375c1.424-0.603,2.549-1.079,3.976-0.519c1.238,0.487,2.642,0.352,3.88,0.233
		c0.344-0.033,0.686-0.066,1.019-0.084c0.546-0.031,1.112-0.174,1.659-0.313c0.325-0.083,0.792-0.201,1.039-0.22
		c1.14,0.967,2.527,1.055,3.757,1.132c1.599,0.1,2.458,0.208,2.983,1.409c0.116,0.265,0.376,0.61,0.961,0.746
		c0.852,0.199,3.108-0.016,4.081-0.841c2.392-2.024,5.062-2.786,8.931-2.557c2.288,0.137,4.502,0.49,6.968,1.111
		c0.47,0.119,1.378,0.269,2.178-0.058c0.397-0.163,0.721-0.211,0.872-0.125c0.166,0.094,0.384,0.474,0.501,1.257
		c0.145,0.972,0.116,1.99,0.086,3.068c-0.019,0.665-0.037,1.331-0.016,1.99c0,0.008,0.021,0.399,0.151,0.854
		c-1.517,1.896-0.852,3.776-0.352,5.157c0.173,0.479,0.337,0.93,0.417,1.354c0.07,0.373,0.049,0.817,0.028,1.287
		c-0.02,0.421-0.04,0.856-0.002,1.314l0.045,0.578c0.096,1.243,0.196,2.529,0.49,3.793
		C235.715,162.77,236.022,163.793,236.319,164.782z M260.04,63.137c1.248-0.263,2.3-0.093,3.411,0.547
		c2.159,1.241,4.204,1.406,6.255,0.501c0.711-0.313,1.395-0.12,2.451,0.225c0.846,0.274,1.813,0.584,2.889,0.498
		c0.938-0.08,1.996,0.278,3.119,0.654c0.729,0.243,1.483,0.495,2.263,0.649c0.992,0.196,1.082,0.474,1.062,1.108
		c-0.013,0.369-0.002,0.744,0.01,1.119c0.04,1.302,0.029,2.133-0.664,2.796c-0.341,0.328-0.501,0.401-0.464,0.405
		c-3.818,0.045-6.013,2.61-7.987,4.918c-0.298,0.347-1.202,1.405-0.807,2.59c0.378,1.132,1.674,1.541,2.616,1.75
		c2.276,0.504,4.124,1.128,5.647,1.906c0.209,0.107,0.471,0.303,0.534,0.633c0.06,0.305-0.069,0.657-0.36,0.992
		c-0.649,0.745-1.355,1.432-2.103,2.16c-0.523,0.51-1.047,1.02-1.55,1.549c-0.363,0.382-0.624,0.814-0.854,1.196
		c-0.088,0.146-0.176,0.292-0.269,0.432c-0.2,0.302-0.245,0.68-0.119,1.02c0.125,0.339,0.404,0.599,0.752,0.698
		c0.193,0.055,0.39,0.103,0.587,0.151c0.36,0.088,0.7,0.17,0.968,0.296c0.254,0.119,0.538,0.232,0.828,0.347
		c0.405,0.161,1.084,0.429,1.193,0.53c0.192,0.531-0.104,1.561-0.344,2.389l-0.071,0.268c-0.036,0.062-0.188,0.208-0.288,0.305
		c-0.318,0.307-0.715,0.69-0.874,1.27c-0.208,0.745-0.309,2.496,0.704,3.159c0.936,0.611,1.919,1.138,2.87,1.648
		c0.886,0.474,1.722,0.922,2.525,1.434c0.245,0.156,0.504,0.571,0.754,0.972c0.145,0.232,0.289,0.463,0.443,0.677
		c0.208,0.29,0.408,0.585,0.608,0.881c0.367,0.542,0.746,1.103,1.182,1.637c0.166,0.204,0.359,0.398,0.554,0.589
		c0.169,0.167,0.453,0.447,0.484,0.538c0,0-0.01,0.076-0.124,0.242c-0.228,0.329-0.431,0.695-0.633,1.064
		c-0.671,1.22-0.988,1.676-1.82,1.627c-1.316-0.08-2.729-0.404-4.021-0.907c-0.126-0.086-0.331-0.375-0.461-0.609
		c1.657-2.766-0.318-4.364-1.521-5.339c-0.199-0.162-0.4-0.323-0.59-0.492l-0.001-0.002c-0.031-0.107-0.063-0.214-0.103-0.313
		c-0.229-0.579-0.882-0.853-1.46-0.628c-0.578,0.224-0.864,0.879-0.648,1.459c-0.312,0.171-0.624,0.338-0.935,0.512
		c-1.312,0.736-2.551,1.432-3.861,1.89c-0.585,0.204-1.205,0.216-1.538,0.027c-0.119-0.067-0.287-0.204-0.37-0.603
		c-0.61-2.971-2.935-2.917-4.319-2.884l-0.324,0.007c-0.111,0.002-0.213,0.037-0.314,0.068c-0.262-0.268-0.58-0.544-0.976-0.837
		c-0.502-0.372-1.213-0.266-1.585,0.237c-0.373,0.503-0.267,1.213,0.237,1.586c1.172,0.867,1.172,0.867,0.463,2.347
		c-0.616,1.287-1.44,1.794-2.608,2.03c-0.106-0.323-0.212-0.646-0.326-0.965c-0.382-1.065-0.892-2.064-1.384-3.03
		c-0.891-1.747-1.732-3.397-1.769-5.279c-0.013-0.626-0.562-1.137-1.156-1.112c-0.416,0.008-0.759,0.25-0.95,0.587
		c-0.135,0.021-0.269,0.033-0.404,0.056c-0.561,0.094-1.141,0.192-1.494,0.084c-0.201-0.061-0.395-0.126-0.584-0.19
		c-1.284-0.434-2.883-0.976-4.782,0.635c-0.343,0.289-1.061,0.366-1.924,0.208c-1.459-0.271-3.021-1.176-3.481-2.018
		c-0.111-0.204-0.223-0.422-0.336-0.646c-0.596-1.169-1.272-2.495-2.489-2.982c-1.006-0.402-0.951-0.617-0.65-1.805
		c0.064-0.252,0.127-0.506,0.175-0.757c0.164-0.876,0.468-1.743,0.791-2.661l0.139-0.397c0.139-0.399,0.326-0.808,0.524-1.241
		c0.439-0.958,0.893-1.948,0.932-3.06c0.083-2.312-1.789-2.958-2.907-3.345c-0.31-0.107-0.606-0.209-0.845-0.326
		c-0.01-0.027-0.02-0.054-0.029-0.082c-0.075-0.202-0.156-0.403-0.257-0.574c-0.653-1.111-0.5-2.256,0.496-3.714
		c0.566-0.828,1.239-1.59,1.95-2.397c0.653-0.739,1.327-1.504,1.926-2.337c0.196-0.272,0.368-0.57,0.536-0.864
		c0.603-1.054,0.641-1.077,1.375-0.765c0.814,0.343,1.503-0.331,1.762-0.585c0.269-0.264,0.984-0.965,0.65-1.798
		c-0.187-0.466-0.238-0.847-0.135-1.018c0.109-0.182,0.501-0.427,1.747-0.563c0.93-0.101,1.574-0.408,1.967-0.938
		c0.537-0.722,0.384-1.54,0.283-2.081c-0.021-0.11-0.042-0.22-0.054-0.326c-0.031-0.275-0.088-0.549-0.147-0.822
		c-0.167-0.773-0.162-0.954,0.05-1.17c1.304,0.25,2.48,0.599,3.615,1.568C255.218,63.99,258.944,63.367,260.04,63.137z
		 M247.354,60.398c-0.208,0.751-0.055,1.48,0.063,2.031c0.043,0.2,0.088,0.401,0.111,0.604c0.019,0.157,0.047,0.319,0.078,0.482
		c0.016,0.087,0.037,0.2,0.05,0.295c-0.072,0.019-0.175,0.039-0.317,0.054c-0.786,0.085-2.626,0.286-3.445,1.65
		c-0.376,0.626-0.47,1.367-0.283,2.21c-2.008-0.427-2.893,1.12-3.394,1.998c-0.129,0.226-0.259,0.457-0.409,0.666
		c-0.533,0.741-1.141,1.431-1.785,2.161c-0.726,0.823-1.477,1.673-2.122,2.617c-1.495,2.188-1.689,4.255-0.579,6.143
		c0.035,0.063,0.058,0.139,0.085,0.212c0.125,0.336,0.313,0.844,0.825,1.151c0.461,0.275,0.956,0.446,1.435,0.612
		c1.283,0.443,1.4,0.598,1.381,1.121c-0.023,0.66-0.365,1.406-0.727,2.196c-0.211,0.462-0.431,0.94-0.604,1.44l-0.137,0.391
		c-0.336,0.958-0.685,1.949-0.88,2.996c-0.039,0.204-0.092,0.41-0.144,0.616c-0.295,1.163-0.845,3.328,2.004,4.468
		c0.426,0.17,0.959,1.215,1.312,1.907c0.125,0.244,0.246,0.482,0.368,0.704c0.929,1.697,3.272,2.827,5.056,3.159
		c0.427,0.079,0.838,0.119,1.228,0.119c1.043,0,1.934-0.281,2.576-0.825c0.922-0.781,1.41-0.616,2.59-0.218
		c0.21,0.071,0.426,0.144,0.65,0.212c0.865,0.263,1.75,0.113,2.53-0.018c0.021-0.003,0.042-0.005,0.063-0.009
		c0.346,1.66,1.091,3.124,1.819,4.55c0.481,0.944,0.937,1.836,1.271,2.766c0.051,0.142,0.096,0.286,0.145,0.429
		c-0.214,0.011-0.428,0.022-0.641,0.037c-0.012,0.001-0.021,0.008-0.033,0.009c-0.073,0.007-0.143,0.038-0.215,0.06
		c-0.073,0.022-0.148,0.037-0.214,0.073c-0.011,0.005-0.021,0.004-0.031,0.01c-0.908,0.53-1.811,1.07-2.714,1.61
		c-2.007,1.2-4.083,2.441-6.173,3.534c-1.484,0.776-3.059,1.477-4.581,2.155c-1.329,0.592-2.703,1.204-4.034,1.872
		c-0.944,0.473-1.859,1.375-2.449,2.413c-2.532,4.459-1.148,8.87,0.538,12.596c0.898,1.984,2.915,3.388,4.761,4.673
		c1.159,0.807,1.17,1.284,0.616,2.307c-0.343,0.634-0.513,1.324-0.611,1.786c-0.598,2.81-1.878,4.499-4.027,5.314
		c-0.27,0.103-0.864-0.035-1.354-0.171c-0.022-0.083-0.039-0.174-0.041-0.24c-0.02-0.617-0.001-1.238,0.016-1.858
		c0.032-1.129,0.064-2.297-0.11-3.467c-0.214-1.429-0.761-2.403-1.623-2.893c-0.793-0.451-1.751-0.453-2.851-0.003
		c-0.095,0.039-0.395,0.051-0.765-0.042c-2.607-0.657-4.954-1.03-7.387-1.176c-4.5-0.27-7.652,0.654-10.53,3.088
		c-0.245,0.192-1.191,0.366-1.772,0.381c-0.866-1.491-2.188-1.942-3.421-2.115c-0.129-0.159-0.258-0.318-0.383-0.486
		c-0.476-0.639-1.016-1.363-1.832-1.763c-0.228-0.111-0.453-0.215-0.674-0.316c-1.134-0.52-1.883-0.862-2.345-2.055
		c-0.531-1.37-1.879-2.288-3.069-3.098c-0.314-0.214-0.625-0.425-0.912-0.64c-0.654-0.488-2.092-0.868-2.986-0.273
		c-0.606,0.405-0.837,0.371-0.838,0.372c-0.164-0.063-0.474-0.671-0.641-0.998c-0.139-0.271-0.279-0.544-0.433-0.795
		c-0.105-0.172-0.207-0.351-0.311-0.53c-0.442-0.769-0.942-1.641-1.743-2.229c-1.179-0.867-2.463-1.565-3.705-2.242
		c-0.364-0.198-0.728-0.396-1.088-0.598l-0.384-0.218c-0.721-0.412-1.466-0.837-2.316-1.093c1.48-2.346,1.64-3.635-0.94-5.34
		c-1.045-0.691-1.845-2.912-1.559-3.468c0.944-1.832,2.025-3.651,3.071-5.411c0.256-0.432,0.51-0.864,0.765-1.296
		c0.082,0.081,0.167,0.16,0.249,0.241c0.746,0.742,1.516,1.51,2.435,2.125c0.861,0.577,1.604,0.756,2.197,0.756
		c0.509,0,0.906-0.132,1.169-0.259c0.358-0.172,0.667-0.428,0.927-0.746c0.495,0.125,0.992,0.202,1.481,0.202
		c0.925,0,1.822-0.222,2.623-0.658c1.216-0.663,2.097-1.765,2.48-3.104c0.604-2.11,1.317-4.305,2.177-6.708
		c0.004-0.003,0.008-0.006,0.013-0.009c0.721,0.368,1.367,0.447,1.959,0.245c1.079-0.37,1.465-1.489,1.775-2.388
		c0.059-0.172,0.112-0.344,0.165-0.513c0.294-0.956,0.383-1.244,1.346-1.362c0.457-0.056,0.866-0.166,1.227-0.262
		c0.982-0.262,1.216-0.326,1.786,0.418c1.343,1.752,3.275,0.948,4.43,0.467c0.183-0.076,0.366-0.152,0.547-0.221
		c2.439-0.927,2.129-2.828,1.932-4.038c-0.116-0.712-0.245-1.51-0.225-1.833c0.313-0.119,1.151-0.228,1.971-0.335
		c0.279-0.036,0.507-0.127,0.674-0.194c0.05-0.02,0.099-0.043,0.147-0.056c2.359-0.471,4.204-1.858,5.061-3.806
		c0.858-1.949,0.635-4.249-0.613-6.311c-0.316-0.521-0.852-0.768-1.229-0.941c-0.796-0.366-1.778-0.972-1.931-1.779
		c-0.164-0.866,0.612-1.891,1.291-2.599c1.267-1.318,1.457-2.523,1.229-3.496c2.447-0.542,3.471-2.741,3.938-3.749l0.201-0.435
		c0.416-0.903,0.811-1.761,1.3-2.537c0.115,0,0.235,0.01,0.266,0.017c0.174,0.117,0.375,0.445,0.57,0.763
		c0.135,0.221,0.271,0.441,0.419,0.644c1.15,1.577,2.671,1.863,4.283,0.806c0.439-0.288,1.064-0.496,1.716-0.568
		c2.804-0.314,5.169-2.144,5.885-4.553c0.029-0.099,0.048-0.199,0.062-0.298c0.406,0.052,0.812,0.104,1.218,0.155
		C244.668,60.015,246.018,60.194,247.354,60.398z M173.225,58.407c0.687-2.246,1.396-4.567,1.947-6.906
		c0.084-0.358,0.216-0.613,0.352-0.681c0.118-0.061,0.353-0.029,0.596,0.076c1.561,0.678,2.678,0.576,4.121-0.374
		c0.366-0.241,1.338-0.331,2.608,0.041c1.235,0.362,2.292,1.051,2.57,1.676c1.349,3.035,3.912,2.782,5.608,2.616
		c0.255-0.025,0.508-0.05,0.756-0.065c2.741-0.166,3.159-2.815,3.36-4.088c0.258-1.636,1.085-4.448,3.719-4.887
		c0.825-0.138,1.593-0.436,2.336-0.724c1.606-0.624,2.651-0.972,3.848-0.299c0.868,0.489,1.861-0.241,1.972-0.325
		c2.016-1.553,4.304-1.296,7.122-0.434c2.17,0.666,4.651,1.262,6.645-0.104c2.089-1.43,4.429-2.12,6.907-2.85
		c1.351-0.398,2.747-0.811,4.1-1.353c0.358-0.143,1.103-0.053,1.339,0.116c0.567,0.408,0.846,0.836,0.829,1.273
		c-0.027,0.691-0.753,1.535-1.944,2.256c-0.505,0.306-0.813,0.767-1.062,1.137c-0.078,0.117-0.155,0.235-0.24,0.341
		c-0.189,0.237-0.276,0.539-0.242,0.84c0.035,0.301,0.189,0.576,0.428,0.762c0.145,0.113,0.297,0.472,0.432,0.789
		c0.361,0.85,1.014,2.39,3.108,2.273c0.169,0.156,0.428,0.479,0.551,0.747c0.185,0.399,0.291,0.874,0.404,1.375
		c0.287,1.28,0.645,2.873,2.506,3.942c0.478,0.274,0.884,1.233,1.242,2.08c0.193,0.455,0.386,0.907,0.6,1.314
		c0.101,0.193,0.142,0.375,0.154,0.375c0,0,0,0,0,0c-0.46,1.548-2.053,2.731-3.964,2.945c-1.008,0.113-1.97,0.442-2.707,0.926
		c-0.598,0.391-0.768,0.357-1.206-0.246c-0.113-0.155-0.215-0.324-0.319-0.493c-0.307-0.501-0.655-1.069-1.239-1.461
		c-0.707-0.476-2.549-0.68-3.208,0.289c-0.688,1.007-1.193,2.104-1.682,3.165l-0.198,0.429c-0.864,1.864-1.64,2.534-2.963,2.56
		c-0.126,0.002-0.242,0.039-0.354,0.079c-0.373-0.129-0.798-0.076-1.115,0.204c-0.47,0.414-0.515,1.13-0.101,1.6
		c0.599,0.68,0.73,1.204-0.211,2.184c-1.526,1.589-2.16,3.134-1.884,4.592c0.268,1.411,1.349,2.561,3.234,3.427
		c0.077,0.036,0.195,0.09,0.264,0.13c0.828,1.416,0.98,2.881,0.427,4.138c-0.564,1.281-1.782,2.167-3.428,2.496
		c-0.186,0.037-0.367,0.102-0.546,0.173c-0.049,0.02-0.098,0.042-0.136,0.053c-1.867,0.244-2.895,0.378-3.515,1.21
		c-0.613,0.824-0.455,1.798-0.155,3.643c0.192,1.176,0.177,1.217-0.512,1.479c-0.203,0.077-0.408,0.162-0.612,0.248
		c-1.351,0.561-1.554,0.513-1.758,0.247c-1.49-1.946-3.104-1.514-4.171-1.229c-0.317,0.085-0.617,0.165-0.917,0.202
		c-2.421,0.297-2.912,1.892-3.237,2.946c-0.044,0.146-0.09,0.293-0.141,0.44c-0.092,0.268-0.252,0.732-0.382,0.942
		c-0.086-0.03-0.231-0.096-0.448-0.237c-0.24-0.157-0.652-0.304-1.241-0.107c-0.439,0.147-1.342,0.625-1.614,1.381
		c-0.901,2.507-1.646,4.795-2.276,6.997c-0.215,0.75-0.707,1.368-1.386,1.737c-0.636,0.347-1.388,0.444-2.16,0.314
		c0.02-0.135,0.041-0.27,0.052-0.412c0.052-0.624-0.412-1.172-1.036-1.224c-0.62-0.058-1.171,0.411-1.224,1.036
		c-0.075,0.896-0.35,1.333-0.563,1.436c-0.223,0.106-0.65-0.023-1.12-0.338c-0.736-0.493-1.397-1.151-2.097-1.849
		c-0.26-0.259-0.523-0.513-0.788-0.765l0.006-0.01c0.421-0.675,0.841-1.352,1.226-2.047c0.741-1.34,0.405-2.196,0.138-2.587
		c-0.308-0.454-0.949-0.957-2.257-0.786c-0.357,0.047-0.719,0.081-1.081,0.116c-1.825,0.175-3.894,0.373-5.584,2.118
		c-0.191,0.173-0.891,0.316-1.126,0.235c-2.14-0.944-3.215-3.335-2.615-5.815c0.138-0.568,0.26-1.392-0.262-1.984
		c-1.27-1.447-0.869-2.531,0.578-4.567c2.545-3.578,3.179-7.765,1.834-12.109c-0.198-0.641-0.47-1.519-0.408-1.717
		c0.024-0.047,0.177-0.234,1.114-0.686c0.627-0.302,1.154-0.74,1.619-1.125c0.186-0.155,0.372-0.31,0.563-0.454
		c0.263-0.197,0.427-0.499,0.45-0.826c0.023-0.328-0.097-0.649-0.329-0.882c-0.188-0.188-0.368-0.391-0.548-0.593
		c-0.463-0.519-0.988-1.106-1.671-1.52c-1.086-0.657-2.266-1.095-3.407-1.518l-0.233-0.086c-1.098-0.409-1.438-1.019-1.256-2.251
		c0.075-0.508,0.052-1.034-0.053-1.56c0.059-0.184,0.089-0.378,0.045-0.581c-0.063-0.291-0.238-0.525-0.465-0.682
		c-0.25-0.531-0.586-1.047-1.005-1.527c-0.033-0.037-0.069-0.069-0.102-0.105C172.692,60.192,172.953,59.298,173.225,58.407z
		 M122.333,86.787c0.315,0.15,1.275,0.608,1.424,1.072c0.057,0.177-0.002,0.426-0.175,0.74c-0.617,1.12-0.76,2.127-0.425,2.993
		c0.388,1.001,1.307,1.555,2.133,1.896c0.117,1.339,0.642,2.562,1.635,3.805c0.224,0.28,0.554,0.426,0.887,0.426
		c0.249,0,0.498-0.081,0.707-0.248c0.489-0.391,0.569-1.104,0.179-1.594c-1.014-1.27-1.333-2.381-1.1-3.835
		c0.266-1.661,0.454-2.556,1.512-3.171c0.538-0.313,0.736-0.856,0.867-1.216c0.028-0.078,0.054-0.156,0.087-0.224
		c0.138-0.276,0.263-0.562,0.388-0.849c0.233-0.535,0.453-1.041,0.746-1.408c0.573-0.717,1.215-1.425,1.836-2.109
		c0.985-1.086,2.004-2.209,2.85-3.47c1.481-2.207,1.44-4.837-0.123-7.817c-0.291-0.554-0.125-1.533,0.414-2.435
		c0.563-0.945,1.389-1.585,2.052-1.594l0.705-0.01c1.053-0.017,2.139-0.032,3.189,0.018c0.55,0.027,0.979,0.229,1.241,0.586
		c0.272,0.371,0.341,0.886,0.194,1.451c-0.416,1.595,0.35,3.845,1.292,5.369c0.585,0.945,1.547,2.127,2.808,2.393
		c1.048,0.221,2.051-0.443,2.859-0.976l0.189-0.125c0.4-0.26,0.68-0.601,0.927-0.901c0.116-0.141,0.29-0.353,0.335-0.386
		c0.546-0.183,1.147-0.291,1.785-0.404c0.908-0.162,1.847-0.33,2.742-0.74c1.154-0.528,2.06-0.237,3.614,0.344
		c0.914,0.341,1.144,0.507,1.172,0.511c0.027,0.188-0.166,0.754-0.573,1.682c-0.251,0.574,0.01,1.243,0.583,1.494
		c0.206,0.091,0.42,0.095,0.627,0.062l1.667,2.084c0.224,0.28,0.554,0.425,0.886,0.425c0.249,0,0.499-0.081,0.708-0.249
		c0.489-0.392,0.568-1.105,0.177-1.594l-1.981-2.477c-0.026-0.033-0.064-0.048-0.093-0.078c0.282-0.822,0.381-1.531,0.097-2.203
		c-0.205-0.484-0.561-0.829-1.014-1.111c-0.048-0.812-0.237-1.556-0.431-2.274c-0.304-1.131-0.567-2.107-0.226-3.248
		c0.817-2.732,3.896-6.057,6.491-6.087c0.537-0.012,1.104,0.198,1.637,0.54c0,0.002-0.001,0.004-0.002,0.006
		c-0.193,0.688-0.515,1.838,0.207,2.604c0.439,0.466,1.023,0.576,1.725,0.522c-0.002,0.076,0.011,0.157,0,0.23
		c-0.339,2.293,0.598,3.921,2.709,4.708l0.235,0.087c1.09,0.404,2.12,0.786,3.022,1.332c0.32,0.193,0.625,0.505,0.94,0.853
		c-0.284,0.229-0.559,0.431-0.833,0.563c-2.893,1.394-2.653,2.645-1.888,5.117c1.144,3.695,0.634,7.102-1.517,10.124
		c-1.126,1.584-2.991,4.207-0.633,7.141c-0.008,0.05-0.02,0.113-0.039,0.191c-0.862,3.565,0.743,7.029,3.903,8.423
		c1.068,0.472,2.851,0.117,3.668-0.729c1.112-1.148,2.532-1.285,4.175-1.442c0.335-0.032,0.67-0.064,1.002-0.105
		c-0.001,0.002-0.002,0.005-0.004,0.007c-0.366,0.662-0.766,1.304-1.166,1.946l-0.536,0.866c-0.118,0.193-0.15,0.406-0.145,0.617
		c-0.389,0.667-0.782,1.331-1.176,1.994c-1.063,1.789-2.163,3.638-3.138,5.531c-1.013,1.968,0.708,5.329,2.325,6.397
		c0.797,0.527,0.97,0.736,0.999,0.798c0.008,0.131-0.129,0.516-0.864,1.655c-0.452,0.701-0.809,1.254-0.546,1.961
		c0.263,0.708,0.903,0.897,1.714,1.136l0.229,0.068c0.604,0.18,1.21,0.526,1.851,0.892l0.401,0.228
		c0.369,0.207,0.74,0.409,1.112,0.611c1.23,0.669,2.392,1.302,3.446,2.077c0.415,0.306,0.773,0.929,1.12,1.532
		c0.114,0.198,0.227,0.394,0.342,0.583c0.124,0.203,0.236,0.424,0.348,0.644c0.424,0.831,0.952,1.864,2.087,2.16
		c0.771,0.202,1.604,0.002,2.553-0.604c0.146,0.003,0.396,0.067,0.486,0.127c0.313,0.234,0.652,0.465,0.994,0.698
		c0.961,0.654,1.955,1.331,2.231,2.042c0.505,1.306,1.275,2.046,2.097,2.564c-0.475,0.031-0.977,0.154-1.472,0.279
		c-0.442,0.112-0.9,0.229-1.228,0.247c-0.362,0.021-0.733,0.056-1.108,0.092c-1.032,0.099-2.102,0.203-2.835-0.086
		c-2.284-0.897-4.092-0.133-5.688,0.54c-0.281,0.119-0.563,0.238-0.846,0.347c-0.489,0.188-0.835,0.522-1.113,0.792
		c-0.092,0.089-0.222,0.215-0.306,0.276c-0.02-0.01-0.046-0.023-0.079-0.043c-0.29-0.177-0.6-0.34-0.912-0.503
		c-0.606-0.316-1.178-0.615-1.458-0.983l-0.189-0.249c-0.996-1.312-1.545-2.034-2.504-2.097c-0.967-0.063-1.594,0.58-2.777,1.775
		c-1.119,1.131-1.928,1.948-2.342,1.981c-0.439,0.042-1.466-0.647-2.92-1.617c-0.59-0.393-1.293-0.56-1.903-0.671
		c-1.811-0.332-3.257-0.895-4.551-1.771c-1.343-0.91-2.834-1.498-4.199-1.654c-1.976-0.227-2.659-0.669-3.046-1.973
		c-0.243-0.814-1.225-1.82-1.876-2.109c-0.502-0.223-0.903-0.101-1.102-0.007c-0.069,0.034-0.124,0.056-0.165,0.07
		c-0.063-0.089-0.141-0.219-0.199-0.314c-0.084-0.139-0.171-0.282-0.267-0.421c-0.472-0.69-1.73-1.449-2.714-1.125
		c-0.708,0.236-1.197,0.963-1.496,2.225c-0.042,0.18-0.08,0.365-0.117,0.548c-0.04,0.194-0.092,0.451-0.146,0.645
		c-0.121-0.06-0.291-0.158-0.52-0.319c-0.723-0.507-1.555-0.199-2.224,0.048c-0.202,0.075-0.405,0.157-0.587,0.192
		c-0.014,0.002-0.028,0.005-0.042,0.008c-0.641-1.132-1.569-2.271-3.915-1.873c-0.284,0.048-0.606,0.048-0.947,0.049
		c-0.972,0.001-2.278,0.002-3.292,1.235c-0.207,0.026-0.471,0.068-0.734,0.193c-0.201,0.094-0.404,0.178-0.604,0.261
		c-1.139,0.473-2.558,1.06-3.095,3.173c-0.441,1.731-1.522,3.428-2.567,5.069l-0.193,0.303c-0.599,0.943-1.167,2.061-0.838,3.203
		c0.229,0.792,0.851,1.433,1.849,1.906c0.147,0.07,0.244,0.13,0.304,0.174c-0.058,0.091-0.172,0.243-0.396,0.464
		c-0.574,0.566-2.221,2.189-0.768,4.267c-0.333,0.066-0.649,0.161-0.959,0.262c-0.386-1.724-1.615-2.853-3.734-4.22
		c-0.617-0.398-1.063-1.141-1.536-1.926c-0.554-0.92-1.169-1.944-2.196-2.677c-0.001-0.077-0.006-0.156-0.018-0.238
		c-0.012-0.085-0.019-0.176-0.026-0.267c-0.035-0.44-0.083-1.044-0.502-1.53c-0.678-0.788-1.594-1.796-2.663-2.607
		c-0.672-0.514-1.421-0.152-1.824,0.041c-0.086,0.041-0.219,0.105-0.299,0.134c-0.403-0.035-0.811-0.063-1.22-0.09
		c-1.468-0.098-2.855-0.191-4.059-0.64c-0.363-0.135-0.459-0.457-0.512-1.718c-0.017-0.413-0.035-0.839-0.104-1.262
		c-0.194-1.186-1.168-2.249-1.991-2.735c-0.743-0.439-0.952-0.838-0.932-1.776c0.033-1.569-0.112-3.868-1.746-5.72
		c-0.341-0.387-0.469-0.532,0.191-1.176c0.689-0.674,1.693-1.248,4.817,0.416c0.05,0.344,0.127,0.705,0.25,1.098
		c0.151,0.486,0.599,0.797,1.082,0.797c0.112,0,0.225-0.017,0.337-0.052c0.598-0.186,0.932-0.821,0.746-1.419
		c-0.237-0.761-0.271-1.309-0.101-1.628c0.183-0.345,0.713-0.651,1.576-0.912c1.04-0.315,2.177-0.739,2.499-1.796
		c0.3-0.985-0.289-1.892-0.97-2.723c-0.279-0.341-0.618-0.565-0.891-0.745c-0.094-0.062-0.188-0.123-0.276-0.191
		c-2.024-1.549-2.776-4.11-3.05-5.985c-0.236-1.61-0.617-2.85-1.789-4.053c-0.236-0.243-0.504-0.419-0.72-0.562
		c-0.111-0.073-0.279-0.184-0.3-0.198c-1.269-2.346-0.556-7.69,1.315-9.859c1.381-1.602,3.458-4.011,2.309-7.432
		c0.05-0.141,0.174-0.381,0.262-0.549c0.066-0.128,0.132-0.256,0.193-0.383c0.195-0.018,0.389-0.028,0.588-0.068
		C119.821,85.978,121.14,86.217,122.333,86.787z M64.655,115.91c-1.834-0.933-2.551-2.396-2.395-4.891
		c0.063-1.006-0.695-2.327-1.589-2.77c-2.472-1.224-3.845-2.952-4.321-5.438c-0.252-1.314,0.604-3.356,0.996-3.588
		c2.799-0.308,4.795-1.637,6.104-4.065c0.496-0.92,0.804-1.028,0.801-1.031c0.011,0.002,0.324,0.073,0.911,0.911
		c1.889,2.694,4.203,1.575,5.189,1.097c0.216-0.104,0.435-0.218,0.657-0.333c0.688-0.356,1.467-0.754,1.99-0.729
		c2.765,0.171,4.712-1.063,6.246-2.285c1.324-1.055,4.662-1.045,6.378,0.019c1.185,0.735,2.505,1.033,3.403,1.153
		c0.769,0.103,1.261,0.295,1.462,0.571c0.225,0.31,0.254,0.935,0.085,1.857c-0.305,1.671-0.597,3.603-0.189,5.382
		c0.182,0.795,0.476,1.497,0.76,2.175c0.436,1.039,0.847,2.02,0.799,3.253c-0.07,1.765-1.441,4.093-3.122,5.3
		c-0.689,0.495-1.73,1.021-2.763,0.716c-0.974-0.287-1.927-0.275-2.85-0.262c-1.47,0.019-2.409-0.008-3.234-0.781
		c-0.753-0.704-1.749-0.25-3.323,0.833c-0.402,0.276-0.744,0.596-1.075,0.905c-0.411,0.385-0.799,0.749-1.143,0.861
		c-1.947,0.636-3.99,1.154-5.966,1.655c-0.78,0.198-1.561,0.396-2.339,0.602C65.703,116.61,65.225,116.199,64.655,115.91z
		 M80.546,177.206l-0.148,0.086c-2.957,1.716-6.033,1.638-8.948-0.258c-2.21-1.438-4.497-2.924-7.391-3.313
		c-0.615-0.083-0.786-0.357-1.197-1.403c-0.145-0.368-0.309-0.786-0.536-1.187c-0.316-0.558-0.669-1.097-1.021-1.632
		c-1.228-1.867-2.198-3.342-1.562-5.479c0.236-0.794-0.237-1.5-0.583-2.015c-0.077-0.115-0.154-0.229-0.214-0.335
		c-0.994-1.762-0.822-2.708,0.736-4.047l0.101-0.086c0.675-0.577,1.515-1.295,1.477-2.29c-0.061-1.549,0.348-2.611,1.411-3.666
		c0.831-0.824,0.995-2.205,0.438-3.694c-0.435-1.164-1.44-2.555-2.842-2.647c-3.374-0.222-5-1.777-5.437-5.2
		c-0.129-1.01-0.941-1.942-1.659-2.478c-0.991-0.738-1.395-1.836-1.863-3.108c-0.176-0.478-0.357-0.97-0.578-1.457
		c0.022-0.046,0.046-0.089,0.058-0.103c0.227-0.191,0.453-0.392,0.682-0.593c1.491-1.318,2.486-2.099,3.772-1.836
		c3.121,0.645,5.153-0.938,6.944-2.333l0.207-0.161c0.249-0.193,0.631-0.337,1.036-0.49c0.338-0.128,0.677-0.258,0.993-0.42
		c0.136-0.07,0.282-0.131,0.426-0.193c0.634-0.272,1.501-0.645,1.813-1.585c0.211-0.638,0.097-1.352-0.35-2.175
		c0.053-0.29,0.351-0.967,0.778-1.538c0.757-1.013,0.767-1.891,0.522-2.584c0.472-0.122,0.944-0.241,1.417-0.361
		c2.012-0.51,4.092-1.038,6.112-1.698c0.822-0.269,1.442-0.849,1.989-1.361c0.281-0.264,0.547-0.513,0.809-0.692
		c0.409-0.281,0.756-0.492,1-0.625c1.401,1.009,2.93,0.991,4.302,0.972c0.79-0.008,1.534-0.02,2.18,0.17
		c1.492,0.438,3.17,0.066,4.725-1.05c2.259-1.622,3.969-4.588,4.065-7.054c0.068-1.736-0.485-3.056-0.973-4.219
		c-0.258-0.617-0.503-1.199-0.641-1.803c-0.312-1.36-0.055-3.02,0.209-4.469c0.184-1.007,0.334-2.476-0.482-3.598
		c-0.271-0.372-0.625-0.664-1.056-0.898c0.406-0.863,0.774-0.92,1.419-0.802c1.091,0.199,1.81-0.149,2.222-0.476
		c0.631-0.5,1.008-1.318,1.061-2.306c0.063-1.194,0.497-1.75,1.789-2.285c1.71-0.709,2.24-1.729,2.384-2.459
		c0.224-1.136-0.283-2.328-1.507-3.543c-0.213-0.212-0.449-0.354-0.638-0.467c-0.031-0.019-0.062-0.036-0.092-0.054
		c-0.017-0.079-0.029-0.162-0.035-0.231c0.495-0.44,1.035-0.845,1.604-1.271c0.442-0.332,0.886-0.665,1.312-1.016
		c0.89-0.734,1.758-1.495,2.626-2.256l1.116-0.974c0.417-0.362,0.513-0.972,0.227-1.445c-0.42-0.693-0.4-0.847,0.825-1.673
		c0.26-0.176,0.508-0.346,0.715-0.518c1.155-0.957,2.559-1.073,3.437-0.764c0.401,0.142,0.906,0.44,1.033,1.063
		c0.405,1.985,0.391,3.982-0.042,5.623c-0.295,1.124-0.631,2.397,0.721,3.635c0.266,0.244,0.54,0.479,0.813,0.712
		c1.151,0.986,2.145,1.837,2.411,3.34c0.111,0.629,0.466,1.164,1.026,1.547c0.083,0.057,0.184,0.092,0.273,0.14
		c-0.289,0.576-0.561,1.256-0.307,1.964c0.754,2.093-0.288,3.53-1.841,5.331c-2.482,2.877-3.301,9.261-1.593,12.419
		c0.272,0.503,0.702,0.786,1.048,1.014c0.137,0.09,0.278,0.183,0.343,0.25c0.677,0.695,0.961,1.375,1.169,2.799
		c0.481,3.286,1.835,5.865,3.915,7.457c0.13,0.1,0.269,0.192,0.408,0.284c0.151,0.1,0.323,0.213,0.384,0.288
		c0.227,0.277,0.359,0.469,0.436,0.596c-0.154,0.075-0.419,0.182-0.865,0.316c-0.921,0.278-2.204,0.784-2.865,1.93
		c-2.146-1.038-4.691-1.708-6.771,0.32c-1.915,1.871-1.014,3.496-0.307,4.298c0.856,0.97,1.22,2.257,1.179,4.172
		c-0.037,1.753,0.594,2.917,2.044,3.775c0.449,0.265,0.856,0.836,0.908,1.15c0.047,0.288,0.062,0.629,0.077,0.99
		c0.051,1.217,0.128,3.055,1.986,3.748c1.513,0.564,3.133,0.673,4.699,0.778c0.423,0.028,0.844,0.057,1.26,0.094
		c0.489,0.044,0.934-0.14,1.278-0.303c0.691,0.586,1.304,1.257,1.829,1.864c0.014,0.082,0.025,0.218,0.033,0.315
		c0.011,0.14,0.023,0.278,0.037,0.357c0,0.047-0.007,0.1-0.011,0.15c-0.027,0.296-0.1,1.082,0.636,1.463
		c0.833,0.431,1.349,1.29,1.896,2.199c0.585,0.973,1.19,1.979,2.25,2.663c2.792,1.802,3.167,2.516,2.677,5.09
		c-0.081,0.422-0.178,0.842-0.274,1.262c-0.56-0.281-1.15-0.71-1.851-1.243c-0.447-0.34-0.896-0.68-1.358-0.98
		c-0.848-0.549-2.419-1.369-3.424-0.666c-1.254,0.878-2.267,2.018-3.246,3.121l-0.194,0.218c-0.358,0.4-0.382,0.879-0.347,1.272
		c-0.381,0.208-0.775,0.408-1.185,0.615c-0.828,0.419-1.684,0.852-2.486,1.402c-1.612,1.104-3.262,0.677-5.171,0.185l-0.614-0.157
		c-0.87-0.216-3.181-0.794-4.644,1.222c-0.365,0.503-0.55,0.548-0.552,0.548c0.003,0-0.207,0.018-0.834-0.495
		c-0.857-0.702-1.836-0.997-2.826-0.841c-1.057,0.161-2.045,0.833-2.713,1.846c-0.774,1.175-1.313,2.467-1.834,3.717
		c-0.255,0.612-0.511,1.226-0.794,1.822c-0.196,0.413-0.434,0.866-0.704,1.096c-2.16,1.833-2.863,4.151-2.088,6.892
		c0.032,0.111,0.034,0.217,0.041,0.207c-0.004,0.009-0.01,0.021-0.018,0.033c-1.297,0.039-2.27,0.855-3.068,1.525
		c-1.213,1.018-1.577,1.201-2.375,0.661c-1.212-0.819-2.299-1.106-3.323-0.876c-0.875,0.196-1.537,0.741-2.037,1.335
		C82.644,176.161,81.696,176.534,80.546,177.206z M156.779,181.182c-1.347,0.034-2.333-0.239-3.299-0.874
		c-1.59-1.045-3.158-2.214-4.673-3.345c-0.914-0.682-1.828-1.364-2.755-2.027c-0.243-0.174-0.486-0.36-0.73-0.547
		c-0.909-0.696-1.939-1.486-3.148-1.777c-0.944-0.227-1.293-0.513-1.779-1.458c-0.388-0.754-0.974-1.894-2.199-2.116
		c-0.814-0.15-1.666,0.173-2.53,0.956c-0.189,0.171-0.547,0.155-0.744,0.13c-0.885-0.113-1.972-0.801-2.475-1.567
		c-0.233-0.355-1.093-1.544-2.342-1.919c-0.757-0.227-1.525-0.344-2.267-0.457c-0.918-0.14-1.785-0.271-2.511-0.593
		c-3.641-1.617-6.551-1.356-8.895,0.797c-0.516,0.474-1.146,0.869-1.813,1.287c-1.662,1.041-3.545,2.22-4.102,4.962
		c-0.42,2.071-2.022,3.474-4.764,4.171c-1.113,0.284-2.267,1.792-2.287,2.989c-0.044,2.705-1.628,4.861-3.108,6.67
		c-2.044,2.497-5.043,3.653-8.219,4.877c-0.646,0.25-1.291,0.498-1.926,0.758c-0.384,0.157-0.91,0.205-1.466,0.255
		c-0.859,0.077-1.833,0.165-2.64,0.719c-1.54,1.057-3.124,0.792-4.958,0.482l-0.453-0.075c-0.955-0.156-1.242-0.815-1.713-2.395
		c-0.149-0.5-0.303-1.015-0.518-1.503c0.042-0.177,0.21-0.576,0.782-1.461c0.608-0.941,1.439-1.737,2.318-2.579
		c1.19-1.14,2.42-2.319,3.222-3.978l0.123-0.251c0.328-0.659,0.571-1.294,0.427-2.009c0.418-0.649,0.813-1.034,1.172-1.115
		c0.376-0.084,0.901,0.098,1.558,0.542c2.296,1.553,3.985,0.134,5.104-0.803c0.781-0.655,1.299-1.052,1.823-0.989
		c0.951,0.103,1.643-0.86,1.876-1.386c0.31-0.698,0.151-1.452,0.069-1.744c-0.534-1.886-0.11-3.288,1.373-4.546
		c0.598-0.508,0.985-1.221,1.285-1.851c0.299-0.629,0.569-1.276,0.839-1.923c0.502-1.206,0.978-2.345,1.635-3.342
		c0.31-0.47,0.744-0.789,1.161-0.853c0.343-0.049,0.697,0.067,1.048,0.354c0.648,0.531,1.528,1.123,2.562,0.989
		c0.768-0.099,1.454-0.579,2.097-1.466c0.365-0.503,0.834-0.708,2.26-0.353l0.595,0.152c2.135,0.552,4.558,1.177,7.02-0.51
		c0.679-0.465,1.431-0.846,2.228-1.249c0.621-0.314,1.263-0.639,1.884-1.015c0.727-0.439,0.614-1.246,0.56-1.633
		c-0.001-0.008-0.002-0.016-0.003-0.024c0.813-0.916,1.653-1.854,2.581-2.555c0.252,0.075,0.698,0.273,1.117,0.545
		c0.416,0.27,0.818,0.577,1.22,0.883c1.759,1.337,3.927,2.986,6.977,1.449c0.08,0.059,0.163,0.121,0.231,0.173
		c0.352,0.266,0.751,0.566,1.199,0.767c0.949,0.424,2.13,0.953,3.011,0.324c0.835-0.596,0.893-0.537,1.343-0.086
		c0.454,0.454,0.998,0.735,1.479,0.983c0.368,0.19,0.715,0.369,0.915,0.572c0.12,0.13,0.251,0.578,0.231,0.714
		c-0.298,0.778-0.755,1.525-1.238,2.316c-0.207,0.338-0.413,0.676-0.608,1.018c-0.311,0.543-0.122,1.236,0.422,1.547
		c0.542,0.311,1.236,0.122,1.547-0.422c0.035-0.061,0.073-0.12,0.108-0.181c0.009-0.001,0.016,0.003,0.024,0.002
		c0.224-0.025,0.45-0.043,0.676-0.062c0.541-0.044,1.1-0.091,1.671-0.218c1.721-0.383,2.168-0.371,2.642,1.117
		c-0.185,0.202-0.304,0.465-0.304,0.76c0,0.626,0.508,1.134,1.134,1.134c0.105,0,0.226-0.009,0.349-0.021
		c1.229,1.704,2.534,3.302,4.411,4.436c0.006,0.103,0.009,0.217,0.012,0.308c0.002,0.058,0.005,0.115,0.007,0.172
		c-0.245,0.182-0.421,0.455-0.457,0.781c-0.069,0.622,0.379,1.183,1.002,1.252c0.274,0.03,0.593,0.029,0.912,0.03
		c0.172-0.001,0.435-0.002,0.607,0.011c1.19,1.651,2.736,3.388,5.157,4.288c0.03,0.3,0.033,0.723-0.023,0.975
		c-0.152,0.681-0.439,1.362-0.743,2.084c-0.021,0.049-0.04,0.1-0.061,0.149C159.557,181.235,158.001,181.161,156.779,181.182z
		 M205.053,254.831c-1.311-0.473-3.751-1.353-5.683,1.265c-0.285,0.386-0.968,0.438-1.509,0.358c-1.051-0.154-2.034-0.8-2.285-1.5
		c-0.419-1.169-0.525-1.779-0.049-2.303c0.708-0.78,1.618-4.434,0.835-5.595c-1.413-2.097-2.919-4.271-4.478-6.462
		c-0.395-0.555-1.009-1.001-1.604-1.167c-0.884-0.245-1.78-0.451-2.676-0.657c-0.52-0.119-1.041-0.239-1.56-0.367
		c-0.589-0.145-1.025-0.466-1.259-0.928c-0.256-0.505-0.253-1.132,0.008-1.765c0.052-0.125,0.143-0.257,0.231-0.399
		c0.337-0.539,0.847-1.353,0.583-2.286c-0.17-0.602-0.617-1.086-1.327-1.438c-0.21-0.104-0.421-0.235-0.635-0.367
		c-0.966-0.593-2.764-1.696-4.591,0.04c-1.061,1.007-1.721,0.822-2.44,0.201c-0.983-0.849-1.196-2.17-0.519-3.211
		c1.855-2.854,1.682-5.843,1.514-8.735l-0.036-0.633c-0.096-1.757-0.91-3.032-1.627-4.157c-0.314-0.492-0.61-0.956-0.837-1.438
		c-0.746-1.583-1.701-3.056-2.624-4.48c-0.292-0.451-0.584-0.901-0.869-1.354c-0.222-0.354-0.506-0.657-0.756-0.925
		c-0.18-0.192-0.452-0.483-0.488-0.564c-0.107-1.23-0.378-2.417-0.64-3.563c-0.434-1.897-0.842-3.689-0.522-5.571
		c0.284-1.67-0.108-3.363-0.488-5c-0.067-0.289-0.134-0.575-0.195-0.859c-0.634-2.909-2.516-4.915-4.336-6.854l-0.596-0.638
		c-0.186-0.201-0.386-0.369-0.586-0.536c0.059-0.141,0.114-0.283,0.173-0.423c0.329-0.782,0.669-1.59,0.866-2.468
		c0.006-0.029,0.538-2.989-1.006-3.463c-2.179-0.666-3.521-2.231-4.646-3.823c-0.361-0.511-0.925-0.673-1.496-0.725
		c-0.001-0.023-0.003-0.042-0.004-0.065c-0.022-0.708-0.049-1.588-0.826-2.017c-1.821-1.003-3.037-2.588-4.326-4.405
		c-0.109-0.154-0.237-0.264-0.373-0.346c0.872-1.612,2.436-2.191,4.248-2.859c0.636-0.234,1.293-0.477,1.928-0.774
		c0.474-0.223,0.854,0.389,0.996,0.663c1.063,2.046,2.52,4.849,5.764,6.053c0.703,0.261,1.381,0.748,2.099,1.263
		c0.389,0.28,0.779,0.559,1.18,0.811l0.153,0.099c0.549,0.361,1.304,0.853,2.054,0.344c0.827-0.564,1.209-0.362,2.356,0.666
		c0.257,0.23,0.508,0.454,0.758,0.641c1.798,1.35,3.333,2.886,4.441,4.443c0.669,0.941,1.358,1.792,2.42,1.868
		c1.014,0.068,1.826-0.632,2.358-1.205c0.116-0.062,0.524-0.105,0.769-0.131c0.312-0.034,0.625-0.07,0.906-0.135
		c0.596-0.139,0.919,0.086,1.693,0.766c0.283,0.249,0.576,0.506,0.921,0.741c0.152,0.104,0.31,0.234,0.473,0.367
		c0.688,0.561,1.633,1.328,2.817,1.071c0.85-0.186,1.544-0.847,2.122-2.022c0.206-0.418,0.423-0.564,0.475-0.567
		c0.016,0,0.34,0.135,0.709,0.796c0.83,1.488,3.55,1.638,4.775,1.3c1.348-0.37,1.427-1.321,1.419-1.603
		c-0.038-1.439,0.639-1.768,2.174-2.373c0.556-0.219,1.131-0.446,1.652-0.781c1.405-0.904,1.405-0.903,3.189,0.426
		c0.236,0.176,0.494,0.368,0.777,0.573c0.95,0.689,2.066,0.994,3.146,1.289c1.099,0.3,2.137,0.583,2.918,1.241
		c0.338,0.282,0.907,0.487,1.684-0.141c0.041-0.033,0.085-0.072,0.131-0.105c0.44-0.087,0.846,0.014,1.13,0.28
		c0.294,0.275,0.411,0.682,0.327,1.146c-0.113,0.633-0.303,1.691-0.693,2.081c-2.12,2.115-1.677,4.439-0.964,6.433
		c0.597,1.67,4.202,5.25,6.201,4.916c1.073-0.175,1.892,0.092,3.124,1.025c1.243,0.943,2.305,1.423,3.321,1.423
		c1.219,0,2.373-0.698,3.692-2.106c-0.143,0.392-0.197,0.779-0.131,1.165c0.11,0.642,0.495,1.126,0.955,1.504
		c-0.18,0.128-0.357,0.244-0.535,0.339c-2.291,1.223-2.146,3.473-2.077,4.553c0.064,1,0.47,1.746,1.189,2.251
		c-0.015,0.119-0.026,0.238-0.042,0.357c-0.087,0.672-0.177,1.367-0.128,2.099c0.04,0.595,0.014,0.784-0.835,1.177
		c-1.237,0.572-2.214,1.024-2.397,2.024c-0.179,0.977,0.502,1.674,1.535,2.729l0.275,0.285c1.034,1.076,2.316,2.405,4.55,2.096
		c0.124,0.066,0.304,0.214,0.34,0.264c0.024,0.085,0.019,0.277-0.006,0.407c-0.436,0.314-0.876,0.661-1.32,1.011
		c-1.311,1.034-2.666,2.104-3.807,2.14c-1.85,0.058-2.898,0.737-3.913,1.393L224.55,219c-0.152,0.098-0.325,0.202-0.505,0.31
		c-1.064,0.638-2.164,1.298-2.117,2.407c0.054,1.244,0.652,3.019,1.836,3.977c0.459,0.373,0.459,0.373,0.123,1.312l-0.11,0.305
		c-0.479,1.326-1.023,2.829-0.665,4.762c0.072,0.386-0.589,1.358-1.027,2.002c-0.193,0.284-0.384,0.575-0.567,0.868
		c-0.648-0.014-1.335,0.204-2.017,0.845c-0.162,0.152-0.31,0.305-0.45,0.451c-0.164,0.17-0.411,0.428-0.491,0.46
		c-0.004,0-0.1-0.001-0.332-0.124c-0.763-0.402-1.524,0.025-2.404,1.35c-0.193,0.298-0.234,0.699-0.114,1.033
		c0.151,0.419,0.786,1.158,1.436,1.361c0.19,0.06,0.313,0.114,0.388,0.154c-0.035,0.086-0.102,0.223-0.23,0.421
		c-0.471,0.726-0.627,1.843-0.372,2.657c0.14,0.447,0.193,0.614-0.764,1.167l-0.496,0.292c-0.385,0.229-0.77,0.459-1.179,0.66
		c-1.581,0.772-3.745,1.831-2.64,5.128c0.285,0.848,0.156,1.417-0.041,1.645c-0.196,0.229-0.546,0.222-0.804,0.178
		c-2.906-0.506-3.468,1.375-3.771,2.384c-0.062,0.207-0.125,0.418-0.21,0.619c-0.591-0.259-1.192-0.512-1.833-0.742L205.053,254.831
		z M277.867,305.624c-0.73,0.76-1.518,1.167-2.276,1.178c-0.011,0-0.021,0-0.031,0c-0.701,0-1.391-0.328-2.049-0.977
		c-3.28-3.232-8.326-3.567-11.243-0.752c-0.887,0.855-1.617,1.288-2.076,1.187c-0.276-0.055-0.846-0.395-1.563-2.052l-0.242-0.574
		c-0.493-1.177-1.053-2.512-2.05-3.452c-0.491-0.463-3.033-2.74-4.964-2.117c-0.841,0.271-1.102,0.1-1.878-0.414l-0.447-0.295
		c-0.992-0.664-2.018-1.348-2.912-0.761c-0.235,0.154-0.383,0.216-0.461,0.24c-0.098-0.115-0.242-0.357-0.342-0.528
		c-0.145-0.244-0.296-0.495-0.47-0.729c-2.304-3.11-4.736-6.208-7.227-9.206c-0.695-0.839-1.717-1.298-2.618-1.702l-0.235-0.105
		c-0.23-0.104-0.463-0.203-0.694-0.3c-1.631-0.684-2.184-0.996-1.965-2.5c0.248-1.72-1.24-3.558-1.702-4.08
		c-1.064-1.204-2.252-2.296-3.401-3.351c-0.527-0.484-1.055-0.969-1.57-1.464c-1.523-1.464-3.146-2.064-5.108-1.874
		c-0.254-0.002-0.891-0.341-1.112-0.682c-1.101-1.703-1.878-3.235-2.376-4.685c-1.333-3.875-3.906-6.84-7.794-9.003
		c0.012-0.025,0.027-0.046,0.039-0.072c0.127-0.291,0.222-0.598,0.313-0.9c0.287-0.96,0.287-0.96,1.21-0.8
		c1.167,0.202,2.229-0.138,2.912-0.935c0.804-0.936,0.975-2.337,0.47-3.843c-0.459-1.369-0.163-1.564,1.493-2.374
		c0.457-0.223,0.896-0.483,1.335-0.744l0.472-0.278c0.691-0.4,2.528-1.463,1.792-3.809c-0.056-0.177,0.004-0.581,0.109-0.742
		c0.223-0.342,0.9-1.381,0.519-2.445c-0.12-0.335-0.318-0.6-0.544-0.81c0.677-0.202,1.158-0.702,1.507-1.065
		c0.115-0.12,0.235-0.246,0.368-0.371c0.376-0.352,0.606-0.386,1.913,0.564c0.282,0.205,0.556,0.402,0.867,0.547
		c0,0.049-0.074,0.306-0.439,0.663c-0.257,0.251-1.039,1.017-0.833,1.993c0.195,0.93,1.08,1.263,1.608,1.461
		c0.097,0.037,0.192,0.067,0.271,0.105c0.705,0.767,1.234,1.267,1.96,1.292c0.7,0.022,1.134-0.395,1.522-0.765
		c0.367-0.351,1.491-1.407,2.054-1.368c0.365,0.031,0.919,0.541,1.646,1.516c0.87,1.167,1.384,2.756,1.811,4.3
		c0.31,1.122,0.741,2.221,1.787,2.661c1.056,0.444,2.158-0.046,2.895-0.455c0.219-0.121,0.643,0.015,0.879,0.169
		c-0.546,1.224-0.127,2.216,0.158,2.892c0.121,0.286,0.235,0.557,0.215,0.703c-0.136,1.002,0.122,1.929,0.729,2.609
		c0.599,0.672,1.502,1.026,2.421,1.044c0.765-0.016,1.422-0.32,1.899-0.881c0.611-0.719,0.863-1.821,0.693-3.017
		c-0.005-0.039-0.009-0.109,0.002-0.213c0.032-0.276,0.066-0.465,0.096-0.591c0.122,0.04,0.299,0.107,0.549,0.221
		c0.604,0.276,1.232,0.216,1.736,0.167c0.153-0.015,0.307-0.031,0.453-0.031c0.331,0,0.645-0.145,0.86-0.395
		c0.215-0.251,0.311-0.583,0.26-0.911c-0.104-0.681,0.208-1.079,1-1.888c0.378-0.387,0.769-0.786,1.085-1.288
		c1.724-2.737,4.388-4.479,7.918-5.178c1.568-0.312,3.094-0.829,4.128-2.133c1.882,0.521,3.386,1.377,4.574,2.586
		c-0.021-0.003-0.04-0.002-0.061-0.005c-3.906-0.675-5.154-0.037-6.673,3.416c-0.638,1.45-1.19,2.766-1.498,4.188
		c-0.246,1.124,0.757,2.321,1.321,2.797c0.741,0.625,1.034,1.331,1.119,2.697c0.266,4.265,2.504,5.587,4.334,5.944
		c0.433,0.085,0.62,0.182,0.61,0.179c0.015,0.128-0.068,0.47-0.118,0.678c-0.023,0.096-0.047,0.195-0.069,0.297
		c-0.096,0.016-0.192,0.031-0.288,0.048c-0.659,0.113-1.339,0.228-1.714,0.083l-0.214-0.084c-3.424-1.343-4.021-1.352-6.733,1.407
		c-1.22,1.238-1.57,5.854-0.241,7.25c0.424,0.448,1.67,1.238,2.606,0.663c0.693-0.423,1.152-0.24,2.293,0.392
		c0.699,0.388,1.534,0.852,2.51,0.9c0.131,0.254,0.28,0.521,0.478,0.748c0.554,0.632,1.164,1.296,1.877,1.867l0.206,0.164
		c0.663,0.521,0.82,0.646,0.779,1.389c-0.077,1.362,1.268,2.461,2.454,3.431c0.18,0.147,0.354,0.29,0.513,0.425
		c0.504,0.432,1.088,0.68,1.603,0.898c0.349,0.148,0.679,0.288,0.923,0.459c2.497,1.739,4.224,1.632,6.365-0.405
		c0.136-0.129,0.239-0.212,0.313-0.266c0.05,0.065,0.116,0.161,0.197,0.298c1.479,2.49,3.333,2.047,4.385,1.491
		c0.088,0.007,0.229,0.029,0.376,0.053c1.008,0.152,1.414,0.733,2.166,1.928c0.142,0.226,0.287,0.456,0.442,0.688
		c0.993,1.487,0.936,2.26,0.483,3.163c-0.375,0.745-0.824,1.456-1.301,2.209c-0.564,0.893-1.147,1.815-1.608,2.816
		c-0.82,1.776-1.079,3.269-0.768,4.436c0.363,1.365-0.104,1.721-1.64,2.64l-0.163,0.098c-0.55,0.33-1.036,0.715-1.507,1.088
		c-0.192,0.151-0.384,0.304-0.58,0.451c-0.065,0.05-0.105,0.117-0.157,0.177c-0.182-0.052-0.364-0.089-0.541-0.105
		C279.547,304.73,278.5,304.963,277.867,305.624z M341.886,355.085c-1.677-0.093-3.058,1.288-3.927,2.325
		c-0.439,0.526-0.791,0.76-0.797,0.783c-1.791-0.069-3.683-0.205-5.335-0.71c-0.221-0.117-0.631-0.659-0.831-1.031
		c0.345-0.657,0.424-1.276,0.233-1.847c-0.347-1.043-1.419-1.406-1.995-1.601l-0.177-0.062c-0.457-0.166-0.898-0.4-1.367-0.648
		c-0.909-0.481-1.94-1.028-3.31-1.177c-1.17-0.127-2.467-1.249-3.72-2.333c-0.289-0.25-0.574-0.497-0.854-0.729
		c-0.177-0.157-0.409-0.883-0.327-1.321c0.346-1.845,0.86-2.334,1.01-2.44c2.63-1.868,1.714-4.018,1.107-5.439
		c-0.095-0.221-0.189-0.441-0.272-0.664l-0.195-0.526c-0.387-1.054-0.788-2.143-1.421-3.134c-0.783-1.229-1.735-2.325-2.655-3.386
		l-0.398-0.462c-0.527-0.613-1.604-0.691-1.911-0.648c-0.383,0.053-0.747,0.31-0.91,0.659c-0.329,0.709-0.814,0.776-2.114,0.787
		c-1.035,0.008-2.411,0.02-3.431,1.042c-1.795-0.996-3.298-0.204-4.408,0.382c-0.288,0.152-0.575,0.307-0.868,0.424
		c-0.26,0.104-0.51,0.245-0.757,0.389c-0.203,0.118-0.413,0.241-0.536,0.266c-0.452,0.087-0.875,0.174-1.132-1.076
		c-0.241-1.182,0.629-2.529,1.143-2.664c0.624-0.164,1.169-0.472,1.649-0.743c0.186-0.104,0.37-0.209,0.558-0.304
		c0.311-0.154,0.532-0.442,0.604-0.782c0.07-0.339-0.018-0.691-0.239-0.958l-0.385-0.454c-0.279-0.329-0.559-0.656-0.821-0.999
		c-0.165-0.215-0.317-0.44-0.471-0.665c-0.25-0.367-0.509-0.747-0.824-1.11l-0.155-0.182c-0.484-0.569-1.087-1.277-2.067-1.325
		c-0.979-0.032-1.738,0.593-2.238,1.077c-0.938,0.909-3.195,1.136-3.938,1.211c-0.503,0.052-1.166,0.052-1.456-0.231
		c-0.277-0.272-0.386-0.966-0.305-1.954c0.1-1.205-0.141-2.456-0.644-3.347c-0.434-0.77-0.967-1.472-1.483-2.151
		c-0.744-0.979-1.447-1.902-1.732-2.87c-0.91-3.086-2.56-5.79-5.019-8.256c0.059-0.046,0.117-0.09,0.175-0.136
		c0.434-0.344,0.844-0.667,1.268-0.923l0.159-0.096c1.472-0.88,3.488-2.086,2.667-5.169c-0.164-0.615,0.067-1.672,0.636-2.901
		c0.356-0.775,0.815-1.518,1.3-2.286l2.352,1.924c0.013,0.011,0.028,0.014,0.041,0.022c0.007,0.233,0.019,0.468,0.044,0.705
		c0.066,0.622,0.609,1.072,1.247,1.009c0.622-0.066,1.074-0.624,1.009-1.247c-0.174-1.648,0.257-2.916,0.73-3.396
		c0.213-0.215,0.383-0.23,0.504-0.219c1.596,0.147,3.373,0.658,5.591,1.607c0.946,0.404,1.838,0.978,2.781,1.584
		c0.677,0.436,1.377,0.886,2.114,1.279c3.752,2.006,6.376,1.575,9.114-1.514c0.212-0.168,0.606-0.479,0.69-1.048
		c0.015-0.103,0.033-0.174,0.049-0.22c0.173,0.011,0.479,0.1,0.639,0.146s0.308,0.087,0.432,0.113
		c1.467,0.314,2.673,0.163,3.584-0.453c0.332-0.225,0.6-0.515,0.829-0.843c1.842-0.12,3.082,1.032,4.625,2.668
		c0.165,0.176,0.331,0.9,0.216,1.361c-0.246,0.979-0.447,2.233,0.182,3.259c0.621,1.015,1.771,1.39,2.701,1.604
		c1.059,0.243,2.059,0.474,2.213,0.675c0.163,0.214,0.146,1.282,0.128,2.418v0.335c0.001,0.13,0.002,0.261-0.002,0.395
		c-0.038,1.601,0.079,3.203,1.184,4.085c1.1,0.879,2.664,0.644,4.19,0.259c1.563-0.394,2.778,0.36,4.36,1.787
		c0.999,0.901,1.274,2.277,0.718,3.593c-0.23,0.545-0.606,1.075-1.004,1.637c-0.399,0.564-0.813,1.148-1.132,1.817
		c-0.17,0.355-0.186,0.385-0.984,0.318c-0.444-0.036-1.002-0.083-1.571,0.094c-0.574,0.179-0.983,0.567-1.313,0.88
		c-0.101,0.096-0.201,0.192-0.306,0.276c-0.253,0.202-0.407,0.503-0.424,0.826c-0.018,0.324,0.104,0.639,0.335,0.866
		c0.29,0.286,0.349,0.877,0.416,1.562c0.127,1.291,0.34,3.451,3.106,4.023c0.151,0.031,0.249,0.106,0.314,0.242
		c0.099,0.205,0.125,0.583-0.098,1.026c-1.077,2.142,0.272,3.564,1.079,4.414c0.223,0.235,0.435,0.458,0.567,0.652
		c0.861,1.256,1.938,2.326,2.979,3.361c0.507,0.503,1.014,1.007,1.494,1.531l0.227,0.242c0.22,0.233,0.628,0.666,0.67,0.837
		c0.212,2.078,1.639,2.722,2.681,3.193c0.857,0.386,1.271,1.214,1.303,1.864c0.02,0.415-0.091,0.986-0.727,1.349
		c-2.668,1.517-3.047,3.692-3.382,5.612c-0.072,0.411-0.144,0.824-0.24,1.232c-0.247,1.035-0.424,1.612-0.813,1.972
		C343.625,355.563,342.792,355.127,341.886,355.085z M376.768,353.2c-1.222,1.19-1.886,3.317-0.455,5.175
		c0.358,0.466,0.65,1.102-0.287,1.884l-0.092,0.075c-0.295,0.243-0.663,0.545-0.91,0.995c-0.268,0.486-0.672,0.987-1.101,1.517
		c-1.36,1.682-3.39,4.191-0.293,7.216c-0.043,1.018,0.189,1.792,0.71,2.364c0.823,0.906,2.056,0.954,3.143,0.997l0.206,0.009
		c0.624,0.028,1.216-0.085,1.792-0.192c1.406-0.265,1.814-0.242,2.236,0.41c1.639,2.53,4.038,3.951,6.358,5.325
		c1.515,0.897,2.945,1.744,4.159,2.874c1.344,1.25,1.216,1.571,0.792,2.637c-0.642,1.614-1.111,3.564,0.256,5.768
		c0.03,0.064,0.153,0.464-0.314,1.987c-0.464,1.511-1.328,4.323,2.105,5.894c0.258,0.117,0.438,0.29,0.474,0.451
		c0.037,0.173-0.078,0.428-0.313,0.697c-0.431,0.489-0.593,1.096-0.748,1.677c-0.4,1.482-1.297,2.569-2.524,3.063
		c-1.245,0.501-2.667,0.33-4.003-0.477c-1.002-0.604-2.391-0.585-3.274-0.386c-2.707,0.605-4.91,2.104-7.041,3.555l-0.335,0.228
		c-2.374,1.61-3.558,4.443-3.166,7.579c0.112,0.901,0.237,1.802,0.362,2.701c0.214,1.543,0.435,3.139,0.584,4.703
		c0.046,0.478-0.094,1.106-0.339,1.528c-1.514,2.595-4.034,4.137-6.769,5.81c-0.211,0.129-0.454,0.229-0.694,0.333
		c-0.641,0.276-1.366,0.59-1.83,1.266c-0.41,0.598-0.851,1.179-1.291,1.761c-1.721,2.272-3.5,4.622-3.712,7.941
		c-0.023,0.371-0.308,0.878-0.583,1.367c-0.181,0.322-0.36,0.645-0.506,0.971c-0.691,1.554-1.824,2.179-3.883,2.095
		c-1.919-0.051-3.817,0.215-5.426,0.492c-1.244,0.214-2.777-0.301-4.097-1.377c-1.37-1.119-2.248-2.653-2.289-4.004
		c-0.021-0.651-0.05-1.302-0.078-1.951c-0.048-1.077-0.096-2.152-0.104-3.224l-0.013-0.986c-0.02-1.248-0.032-2.073,0.193-2.372
		c0.27-0.359,1.219-0.741,2.748-1.327c1.179-0.45,2.368-1.517,3.03-2.718c0.759-1.378,1.315-2.851,1.853-4.275
		c0.161-0.427,0.322-0.854,0.489-1.277l0.092-0.232c0.589-1.482,1.48-3.722-1.505-5.465c-0.386-0.225-0.846-0.609-0.848-1.162
		c-0.002-0.587,0.498-1.249,1.303-1.727c1.405-0.834,2.914-1.624,4.61-2.416c1.008-0.47,1.321-0.414,1.348-0.41l0.126,0.043
		c0.987,0.341,2.218,0.763,3.274,0.212c0.59-0.31,0.997-0.85,1.21-1.606c0.095-0.338,0.273-0.723,0.463-1.131
		c0.639-1.374,1.604-3.449-0.438-5.41c-3.519-3.381-4.211-7.778-4.425-11.634l-0.037-0.7c-0.204-3.855-0.436-8.226-3.758-11.4
		c-1.776-1.696-2.647-3.792-3.323-5.805c-0.185-0.549-0.386-1.105-0.589-1.667c-0.8-2.21-1.626-4.494-1.418-6.483
		c0.176-1.677-0.136-3.046-0.653-4.238c0.145-0.165,0.286-0.331,0.433-0.495c0.625-0.7,1.271-1.424,1.787-2.269l0.159-0.265
		c0.194-0.325,0.557-0.932,0.706-1.008c0.001,0,0.039,0.005,0.124,0.049c1.547,0.799,3.154,1.29,5.194,1.586
		c0.142,0.134,0.335,0.434,0.359,0.529c-0.01,0.462-0.038,1.868,0.96,2.606c0.404,0.3,0.853,0.405,1.303,0.405
		c0.634,0,1.271-0.21,1.796-0.382l0.202-0.065c0.631-0.204,1.215-0.503,1.78-0.791c0.765-0.392,1.479-0.753,2.07-0.751
		c2.296-0.004,4.028-1.312,4.698-3.697l0.127-0.454c0.592-2.136,0.889-3.207,3.136-3.839c3.072-0.865,3.669-1.023,5.109,0.876
		C377.036,352.922,376.907,353.064,376.768,353.2z M380.399,347.567c-0.585,1.178-1.155,2.314-1.828,3.367
		c-2.154-2.474-3.822-2.144-7.129-1.214c-3.477,0.979-4.074,3.135-4.707,5.417l-0.124,0.444c-0.388,1.377-1.238,2.037-2.479,2.045
		c-1.133,0.018-2.16,0.5-3.139,0.999c-0.508,0.26-0.987,0.505-1.444,0.652l-0.213,0.069c-0.301,0.099-0.776,0.255-1.023,0.271
		c-0.03-0.106-0.068-0.319-0.061-0.702c0.02-1.066-1.048-2.646-2.165-2.799c-1.845-0.256-3.269-0.681-4.615-1.376
		c-2.089-1.084-3.256,0.872-3.817,1.81l-0.148,0.246c-0.389,0.638-0.909,1.229-1.461,1.847c-0.095-0.143-0.189-0.283-0.284-0.422
		c1.086-0.882,1.408-2.174,1.668-3.263c0.108-0.453,0.189-0.912,0.269-1.368c0.297-1.699,0.531-3.042,2.271-4.031
		c1.238-0.706,1.938-1.987,1.87-3.427c-0.078-1.637-1.112-3.139-2.636-3.824c-1.11-0.502-1.288-0.68-1.357-1.356
		c-0.093-0.907-0.749-1.604-1.277-2.162l-0.202-0.218c-0.504-0.55-1.036-1.08-1.568-1.608c-1.012-1.006-1.968-1.955-2.708-3.035
		c-0.234-0.343-0.519-0.642-0.793-0.931c-0.845-0.891-1.023-1.188-0.698-1.834c0.512-1.018,0.554-2.122,0.114-3.031
		c-0.369-0.766-1.061-1.304-1.896-1.478c-1.081-0.224-1.176-0.665-1.31-2.025c-0.06-0.601-0.128-1.297-0.404-1.946
		c0.046-0.038,0.086-0.065,0.111-0.076c0.148-0.044,0.435-0.021,0.712,0.002c0.826,0.067,2.36,0.195,3.218-1.604
		c0.235-0.493,0.575-0.974,0.936-1.482c0.45-0.636,0.915-1.293,1.241-2.063c0.517-1.22,0.576-2.503,0.247-3.671l0.326-0.048
		c1.254-0.185,2.508-0.369,3.764-0.521c0.126-0.016,0.376,0.016,0.578,0.039c0.593,0.07,1.404,0.165,2.001-0.397
		c1.35-1.27,1.927-0.854,3.543,0.663c-1.34,0.33-1.761,1.056-1.869,1.64c-0.172,0.926,0.43,1.925,1.533,2.545
		c2.053,1.155,4.29,2.104,6.649,2.822c0.854,0.259,1.143,0.515,1.627,1.439c0.912,1.745,2.309,3.172,3.659,4.552l0.188,0.192
		c0.552,0.564,1.202,0.931,1.83,1.285c0.361,0.204,0.702,0.396,0.993,0.61c1.805,1.334,3.39,1.233,4.982-0.313
		c0.377-0.367,1.026-0.49,1.737-0.331c0.851,0.189,1.58,0.735,1.816,1.36c0.018,0.047,0.038,0.097,0.062,0.148
		c-1.004,1.792-0.68,3.564-0.391,5.143c0.114,0.627,0.223,1.219,0.246,1.785c0.051,1.221,0.136,3.262,2.951,3.66
		c0.356,0.05,0.968,0.682,1.414,1.144c0.237,0.245,0.473,0.488,0.709,0.704c0.321,0.294,0.618,0.662,0.932,1.051
		c0.039,0.049,0.08,0.097,0.119,0.146C381.932,344.52,381.146,346.063,380.399,347.567z M436.738,355.436
		c-2.139,2.738-3.151,5.779-3.285,9.86c-0.015,0.446-0.153,1.035-0.733,1.313c-0.639,0.304-1.536,0.135-2.362-0.487
		c-0.571-0.433-1.283-0.972-2.14-1.127c-3.354-0.608-5.522-2.762-7.935-6.041c-0.149-0.202-0.262-0.55-0.273-0.843
		c-0.015-0.404-0.016-0.812-0.017-1.22c-0.007-2.208-0.016-4.925-2.475-6.81c0.03-0.314,0.033-0.69-0.136-1.06l-0.158-0.357
		c-0.407-0.94-0.868-2.007-1.893-2.194c-2.4-0.443-4.819-0.642-7.295-0.822c-0.648-0.048-1.284,0.005-1.898,0.057
		c-0.841,0.069-1.636,0.133-2.188-0.086c-1.867-0.741-3.708-1.731-5.488-2.689c-0.873-0.47-1.746-0.939-2.629-1.386
		c-1.047-0.53-1.314-0.821-1.206-1.859c0.126-1.207-0.629-2.387-1.969-3.077c-1.357-0.696-2.825-0.628-3.743,0.183
		c-1.65,1.459-3.153,2.974-4.495,4.518c-0.297-0.363-0.605-0.73-0.975-1.068c-0.202-0.186-0.404-0.396-0.609-0.607
		c-0.749-0.775-1.599-1.653-2.727-1.813c-0.884-0.125-0.949-0.224-1.003-1.508c-0.03-0.725-0.158-1.424-0.281-2.1
		c-0.311-1.695-0.461-2.791,0.317-3.911c0.437-0.629,0.13-1.283-0.035-1.635c-0.023-0.05-0.048-0.099-0.063-0.14
		c-0.51-1.35-1.829-2.412-3.443-2.771c-1.481-0.328-2.87,0.005-3.811,0.918c-0.792,0.771-1.14,0.791-2.057,0.114
		c-0.402-0.296-0.82-0.531-1.225-0.76c-0.513-0.289-0.997-0.563-1.323-0.896l-0.188-0.192c-1.235-1.263-2.513-2.567-3.27-4.017
		c-0.668-1.276-1.341-2.063-2.978-2.559c-2.201-0.669-4.286-1.554-6.197-2.629c-0.023-0.014-0.047-0.027-0.068-0.041
		c0.041-0.008,0.085-0.015,0.132-0.021c1.063-0.154,1.713-0.594,1.934-1.307c0.218-0.703-0.062-1.419-0.831-2.127l-0.371-0.347
		c-1.354-1.274-3.604-3.391-6.484-0.846c-0.109-0.008-0.256-0.024-0.364-0.037c-0.34-0.041-0.725-0.084-1.115-0.039
		c-1.276,0.155-2.55,0.343-3.822,0.53l-1.179,0.172c-0.114-0.125-0.223-0.255-0.351-0.37c-1.188-1.071-3.394-3.069-6.434-2.303
		c-1.67,0.421-2.109,0.258-2.222,0.169c-0.113-0.091-0.374-0.493-0.331-2.255c0.004-0.156,0.003-0.313,0.002-0.468v-0.288
		c0.064-4.008-0.28-4.456-4.102-5.336c-0.933-0.214-1.199-0.453-1.274-0.577c-0.097-0.157-0.16-0.549,0.084-1.522
		c0.258-1.032,0.043-2.611-0.765-3.468c-1.278-1.355-2.971-3.142-5.502-3.367c0.035-0.194,0.069-0.39,0.105-0.584
		c0.224-1.195,0.455-2.432,0.509-3.694c0.002-0.044,0.005-0.084,0.01-0.119c2.212,1.234,3.586-0.245,4.337-1.054
		c0.167-0.18,0.333-0.362,0.508-0.519c0.489-0.436,0.92-1.47,0.421-2.199c-1.612-2.366-0.729-4.53,0.292-7.036
		c0.218-0.535,0.436-1.07,0.629-1.605c0.02-0.049,0.078-0.13,0.135-0.195c1.644,0.062,3.316,0.188,4.937,0.311l1.682,0.125
		c0.344,0.024,0.689,0.062,1.035,0.099c0.835,0.09,1.702,0.187,2.589,0.12c1.315-0.09,2.632-0.253,3.904-0.411
		c0.857-0.106,1.714-0.213,2.573-0.298l0.813-0.081c1.74-0.175,3.54-0.355,5.291-0.39c0.964-0.02,1.845-0.281,2.696-0.534
		c1.459-0.434,2.404-0.67,3.427-0.119c1.098,0.594,2.046,1.147,2.899,1.692c1.528,0.978,2.412,2.457,2.423,4.059
		c0.012,1.632-0.877,3.156-2.437,4.185c-0.794,0.523-1.6,1.03-2.405,1.537c-1.253,0.788-2.549,1.604-3.791,2.478
		c-1.357,0.953-1.768,2.12-1.371,3.904c0.788,3.546,3.389,4.849,5.479,5.896c2.948,1.479,5.995,2.86,8.941,4.197
		c1.318,0.599,2.637,1.196,3.949,1.805c1.119,0.518,2.228,1.06,3.337,1.602c2.393,1.169,4.865,2.378,7.418,3.327l0.894,0.332
		c4.652,1.723,9.048,3.351,12.959,6.221c0.889,0.651,1.698,1.432,2.481,2.186c0.49,0.474,0.979,0.942,1.484,1.386
		c3.203,2.803,6.421,5.396,10.551,6.309c1.019,0.225,1.945,0.866,2.927,1.546c1.532,1.061,3.272,2.254,5.661,1.987
		c0.524,0.63,1.142,1.142,1.742,1.64c1.374,1.139,2.215,1.912,2.212,3.392c-0.005,1.13,1.112,2.154,1.869,2.491
		c1.953,0.866,3.385,2.37,4.901,3.962c0.722,0.759,1.469,1.542,2.282,2.262c2.082,1.839,3.254,4.178,4.495,6.653l0.381,0.757
		C437.908,351.965,437.933,353.905,436.738,355.436z"/>
	<path d="M338.604,427.713c-0.41-0.197-0.815-0.467-1.243-0.752c-0.21-0.14-0.419-0.279-0.632-0.413
		c-0.114-0.071-0.236-0.12-0.36-0.147c-0.372-0.318-0.926-0.369-1.356-0.089c-0.496,0.322-0.991,0.648-1.486,0.975
		c-1.143,0.752-2.284,1.504-3.448,2.22c-0.297,0.184-1.204,0.73-1.657,0.608c-0.235-0.067-0.498-0.372-0.741-0.856
		c-0.442-0.889-2-1.905-3.078-1.482c-1.338,0.521-1.689,1.662-1.047,3.391c0.239,0.646-0.15,1.153-1.369,2.257
		c-0.162,0.146-0.322,0.291-0.473,0.435c-0.026,0.024-0.046,0.04-0.053,0.049c-0.101-0.021-0.31-0.109-0.466-0.176
		c-0.188-0.08-0.386-0.163-0.596-0.235c-0.299-0.102-0.598-0.198-0.896-0.295c-1.268-0.408-2.464-0.794-3.432-1.589
		c-0.613-0.509-1.325-0.187-1.63-0.05c-0.052,0.023-0.104,0.049-0.146,0.063c-0.731,0.222-1.527,0.349-2.37,0.482
		c-2.499,0.398-5.319,0.848-6.856,3.99l-1.999,0.556c-2.557,0.712-5.199,1.449-7.807,2.117c-0.371,0.096-0.862,0.059-1.385,0.02
		c-0.167-0.013-0.333-0.025-0.496-0.033c-0.322-0.018-0.73-0.192-1.163-0.377c-0.956-0.408-2.341-0.999-3.788-0.067
		c-2.369-2.353-4.855-0.863-6.366,0.041c-0.22,0.132-0.435,0.261-0.645,0.377c-3.397,1.878-6.051,1.604-8.595-0.893
		c-0.073-0.073-0.139-0.194-0.146-0.207c-0.029-0.951-0.187-2.293-1.227-2.955c-1.052-0.667-2.35-0.25-3.363,0.187
		c-0.559,0.242-0.75,0.265-0.731,0.298c-0.001-0.001-0.129-0.136-0.235-0.673c-0.451-2.289-1.383-3.723-2.771-4.259
		c-1.39-0.537-3.047-0.104-4.923,1.287c-0.136,0.094-0.635,0.171-0.91,0.079c-1.543-0.511-2.962-0.357-3.996,0.431
		c-0.977,0.745-1.472,1.976-1.394,3.466c0.058,1.124-0.395,1.453-1.703,2.108c-0.789,0.396-1.344,0.328-1.98-0.236
		c-1.148-1.021-1.573-1.81-1.566-2.912c0.015-2.843-2.604-3.156-3.724-3.291c-0.737-0.085-1.34,0.066-1.785,0.46
		c-0.698,0.616-0.704,1.522-0.707,2.185c-0.001,0.174,0.001,0.346-0.019,0.506c-0.025,0.212-0.14,0.49-0.305,0.741
		c-0.599,0.905-1.594,1.316-2.747,1.793c-1.114,0.46-2.376,0.981-3.33,2.06c-1.07,1.212-1.287,2.138-0.646,2.755
		c0.035,0.034,0.063,0.063,0.085,0.088c-0.07,0.084-0.168,0.188-0.243,0.267c-0.21,0.221-0.448,0.471-0.623,0.791
		c-0.129,0.236-0.317,0.491-0.516,0.762c-0.668,0.906-1.853,2.513-0.351,4.284c-0.804,0.905-1.364,2.317,0.328,4.012
		c0.231,0.232,0.391,0.577,0.407,0.763c0.206,2.46,1.747,4.075,4.228,4.433c0.578,0.083,0.613,0.088,0.864,0.79
		c0.561,1.568,1.417,2.596,2.547,3.052c1.126,0.456,2.449,0.313,3.932-0.42c1.906-0.942,5.002-0.365,5.916,1.1
		c0.964,1.55,2.265,2.176,4.105,1.986c1.652-0.184,3.142,0.571,3.624,1.816c0.697,1.799,1.898,2.561,2.958,3.233l0.354,0.227
		c0.572,0.372,1.131,0.765,1.69,1.158c0.507,0.355,1.015,0.711,1.529,1.053c0.12,0.079,0.248,0.177,0.38,0.276
		c0.618,0.467,1.389,1.046,2.269,0.8c1.274-0.366,1.978,0.217,3.221,1.358l0.194,0.178c1.136,1.033,2.325,2.028,3.476,2.99
		c0.5,0.418,1,0.837,1.496,1.259c0.351,0.297,0.846,0.354,1.252,0.145c0.655-0.336,0.882-0.194,1.76,0.653
		c0.638,0.613,1.431,1.377,2.609,1.445c0.731,0.043,1.448,0.075,2.191-0.021c0.389-0.05,0.727-0.173,1.024-0.282
		c0.209-0.076,0.446-0.163,0.563-0.163c5.846,0.014,9.948,3.103,12.542,9.443c1.057,2.584,2.591,3.838,5.132,4.193
		c0.933,0.13,1.826,0.496,2.334,0.956c2.385,2.159,4.901,1.71,6.585,1.185c1.182-0.365,1.862-0.34,2.516,0.096
		c0.115,0.077,0.223,0.188,0.336,0.296c0.399,0.381,1,0.953,1.867,0.953c0.017,0,0.034,0,0.052,0
		c0.311-0.009,0.613-0.091,0.907-0.245c0.602,0.862,1.269,1.35,2.038,1.49c0.148,0.027,0.299,0.041,0.451,0.041
		c0.654-0.001,1.338-0.254,2.076-0.769c0.938-0.653,2.887-2.014,1.364-4.76c-0.888-1.603-0.948-2.413-0.908-2.552
		c0.247-0.475,0.478-0.972,0.709-1.474c1.058-2.29,1.971-4.267,4.691-4.483c1.216-0.098,2.082-1.87,2.09-1.888
		c0.287-0.642,0.062-1.092-0.103-1.307c-0.294-0.385-0.412-1.012-0.537-1.676c-0.257-1.364-0.646-3.427-3.242-4.043
		c-0.137-0.032-0.228-0.07-0.284-0.1c0.035-0.087,0.121-0.247,0.33-0.477c0.988-1.085,1.323-2.673,0.854-4.046
		c-0.398-1.166-1.326-1.982-2.481-2.186c-2.013-0.353-2.33-0.842-2.263-2.132c0.024-0.473,0.006-0.962-0.014-1.453
		c-0.062-1.547-0.054-2.454,0.821-3.109c1.544-1.154,1.843-2.733,2.083-4.002c0.07-0.371,0.139-0.74,0.242-1.098
		c0.179-0.618,0.328-1.24,0.476-1.86c0.431-1.804,0.837-3.507,2.013-4.976c0.928-1.156,1.591-2.476,2.231-3.75
		c0.524-1.043,1.02-2.027,1.64-2.908c0.533-0.759,1.128-1.515,1.704-2.246c1.914-2.432,3.894-4.946,4.397-8.34
		c0.021-0.044,0.128-0.184,0.387-0.386c1.209-0.936,1.874-1.451,1.776-2.382C340.803,428.771,340.052,428.409,338.604,427.713z
		 M337.667,430.342c-0.379,0.295-1.031,0.91-1.15,1.709c-0.435,2.878-2.146,5.052-3.958,7.354c-0.594,0.755-1.209,1.535-1.776,2.344
		c-0.717,1.018-1.273,2.124-1.812,3.194c-0.615,1.224-1.196,2.38-1.975,3.351c-1.494,1.866-1.979,3.9-2.448,5.867
		c-0.14,0.586-0.279,1.173-0.448,1.755c-0.123,0.425-0.209,0.865-0.292,1.307c-0.233,1.229-0.416,2.013-1.214,2.608
		c-1.873,1.402-1.793,3.406-1.729,5.017c0.017,0.421,0.035,0.84,0.014,1.245c-0.171,3.3,2.121,4.129,4.136,4.483
		c0.435,0.076,0.636,0.414,0.729,0.684c0.168,0.494,0.114,1.237-0.385,1.786c-1.039,1.139-1.037,2.093-0.853,2.692
		c0.144,0.465,0.588,1.292,1.958,1.618c1.118,0.265,1.279,0.883,1.538,2.256c0.119,0.637,0.251,1.336,0.567,1.985
		c-0.066,0.086-0.136,0.167-0.194,0.226c-3.871,0.414-5.24,3.38-6.345,5.771c-0.217,0.469-0.431,0.935-0.662,1.378
		c-0.536,1.029-0.221,2.61,0.938,4.698c0.457,0.824,0.448,1.015-0.679,1.8c-0.538,0.375-0.763,0.368-0.824,0.356
		c-0.054-0.01-0.259-0.081-0.601-0.58c-0.266-0.389-1.164-1.164-1.775-1.212c-0.03-0.003-0.06-0.004-0.089-0.004
		c-0.312,0-0.617,0.129-0.833,0.356c-0.042,0.045-0.078,0.079-0.107,0.104c-0.093-0.075-0.213-0.189-0.301-0.273
		c-0.186-0.176-0.395-0.376-0.644-0.541c-1.58-1.052-3.132-0.779-4.444-0.375c-1.911,0.598-3.185,0.392-4.391-0.699
		c-1.209-1.096-2.88-1.429-3.542-1.521c-1.745-0.244-2.589-0.952-3.347-2.806c-2.94-7.186-7.864-10.837-14.637-10.853
		c-0.001,0-0.003,0-0.004,0c-0.52,0-0.976,0.167-1.343,0.301c-0.205,0.075-0.398,0.146-0.535,0.163
		c-0.546,0.069-1.147,0.043-1.77,0.006c-0.343-0.021-0.744-0.406-1.169-0.815c-0.732-0.705-1.896-1.83-3.636-1.331
		c-0.329-0.278-0.66-0.555-0.99-0.831c-1.133-0.947-2.304-1.927-3.403-2.928l-0.188-0.172c-1.221-1.12-2.729-2.505-5.141-1.931
		c-0.147-0.088-0.369-0.256-0.515-0.366c-0.17-0.128-0.338-0.254-0.494-0.357c-0.499-0.33-0.989-0.675-1.479-1.019
		c-0.581-0.408-1.162-0.815-1.758-1.203l-0.375-0.239c-0.982-0.624-1.631-1.036-2.059-2.139c-0.853-2.198-3.305-3.536-5.979-3.253
		c-0.981,0.109-1.432-0.112-1.94-0.929c-1.666-2.671-6.199-3.243-8.846-1.935c-0.877,0.435-1.575,0.552-2.077,0.351
		c-0.503-0.203-0.927-0.779-1.261-1.714c-0.451-1.259-1.034-2.033-2.676-2.27c-1.444-0.208-2.172-0.964-2.291-2.379
		c-0.076-0.894-0.597-1.708-1.061-2.173c-0.559-0.561-0.519-0.604-0.209-0.938c0.138-0.148,0.83-1.055,0.787-1.762
		c-0.02-0.313-0.176-0.627-0.417-0.826c-0.765-0.636-0.722-0.733,0.083-1.825c0.235-0.319,0.479-0.65,0.681-1.021
		c0.035-0.062,0.179-0.213,0.275-0.313c0.384-0.404,1.445-1.52,0.636-2.877c0.076-0.109,0.155-0.216,0.223-0.293
		c0.606-0.685,1.524-1.064,2.497-1.466c1.308-0.54,2.791-1.152,3.774-2.64c0.362-0.55,0.598-1.162,0.664-1.721
		c0.029-0.237,0.033-0.499,0.035-0.763c0-0.118,0.001-0.271,0.009-0.399c1.53,0.189,1.675,0.433,1.672,1.021
		c-0.014,2.236,1.168,3.591,2.328,4.62c0.928,0.824,2.46,1.592,4.502,0.568c1.231-0.616,3.092-1.549,2.952-4.253
		c-0.026-0.51,0.04-1.19,0.504-1.545c0.414-0.316,1.109-0.347,1.907-0.082c0.811,0.27,2.127,0.219,2.974-0.409
		c1.178-0.874,2.157-1.228,2.756-0.994c0.597,0.23,1.082,1.147,1.364,2.581c0.222,1.125,0.67,1.851,1.371,2.22
		c1.021,0.535,2.127,0.057,2.72-0.2c0.916-0.396,1.222-0.354,1.226-0.37c0.024,0.034,0.173,0.277,0.197,1.124
		c0.021,0.718,0.438,1.378,0.824,1.757c3.241,3.181,7.036,3.606,11.281,1.26c0.231-0.128,0.469-0.27,0.712-0.416
		c1.84-1.102,2.698-1.424,3.802-0.165c0.351,0.401,0.975,0.631,1.409,0.648c0.479,0.018,0.802-0.204,0.939-0.339
		c0.533-0.512,0.847-0.449,1.948,0.022c0.566,0.242,1.209,0.517,1.934,0.555l0.447,0.03c0.648,0.051,1.388,0.105,2.116-0.083
		c2.631-0.675,5.285-1.414,7.853-2.13l2.083-0.579c0.308-0.085,0.947-0.263,1.221-0.895c0.952-2.22,2.635-2.593,5.301-3.018
		c0.88-0.14,1.79-0.285,2.667-0.55c0.055-0.017,0.113-0.037,0.173-0.061c1.173,0.813,2.446,1.225,3.684,1.623
		c0.285,0.093,0.571,0.185,0.857,0.282c0.156,0.054,0.303,0.117,0.442,0.177c0.681,0.29,1.818,0.774,2.966-0.314
		c0.14-0.132,0.286-0.265,0.435-0.399c1.111-1.006,2.789-2.525,1.974-4.727c-0.016-0.043-0.03-0.084-0.044-0.122
		c0.006,0.006,0.011,0.012,0.015,0.017c0.547,1.092,1.27,1.773,2.148,2.023c1.248,0.354,2.452-0.233,3.466-0.857
		c1.185-0.729,2.346-1.493,3.508-2.258l0.92-0.603c0.137,0.089,0.273,0.18,0.41,0.271c0.475,0.316,0.966,0.644,1.604,0.95
		c0.134,0.064,0.273,0.132,0.406,0.197C337.976,430.104,337.824,430.221,337.667,430.342z"/>
	<path d="M155.241,331.136c0.559-2.219-0.218-3.874-1.143-5.334c-0.105-0.165-0.222-0.336-0.342-0.51
		c-0.911-1.322-0.939-1.615-0.219-2.243c0.917-0.8,0.277-2.44-0.046-2.915c-0.767-1.127-1.48-2.125-2.444-2.933
		c-0.183-0.154-0.379-0.278-0.581-0.39c0.521-0.837,0.925-1.83,0.641-2.864c-0.238-0.863-0.914-1.564-2.013-2.087
		c-0.03-0.101-0.06-0.238-0.07-0.366c-0.307-3.805-1.546-4.506-5.009-5.538c-1.931-0.578-3.778-1.844-5.329-3.006
		c-1.816-1.361-5.687-2.275-7.618-0.602c-0.646,0.559-1.549,2.18-0.976,3.286c0.274,0.529,0.297,0.774,0.322,0.792
		c-0.139,0.108-0.576,0.226-1.301,0.349c-0.924,0.156-1.964,0.384-2.612,1.124c-0.812,0.927-1.576,1.902-2.316,2.845
		c-0.862,1.099-1.754,2.234-2.696,3.262c-1.131,1.231-2.077,1.922-2.813,2.053c-2.605,0.463-4.22,2.109-5.517,3.432
		c-0.746,0.76-1.317,0.825-2.441,0.268c-0.49-0.244-1.476-0.653-2.515-0.605c-2.047,0.07-2.046,0.073-2.279-1.538
		c-0.312-2.171-1.411-3.454-3.358-3.923c-2.212-0.526-3.106,1.146-3.535,1.954c-0.101,0.19-0.197,0.378-0.308,0.533
		c-0.595,0.831-0.339,2.137-0.282,2.39c0.151,0.667,0.446,1.125,0.875,1.361c0.283,0.156,0.351,0.262,0.354,0.262
		c0.016,0.125-0.155,0.516-0.257,0.75c-0.054,0.125-0.108,0.25-0.158,0.374c-0.412,1.021-0.863,2.025-1.313,3.03l-0.315,0.705
		c-0.566,0.527-0.408,1.118-0.341,1.298c0.159,0.422,0.36,0.825,0.555,1.216c0.32,0.64,0.65,1.302,0.603,1.712
		c-0.017,0.144-0.2,0.415-0.362,0.654c-0.478,0.705-1.199,1.771-0.64,3.359c0.36,1.024,1.071,3.046,3.462,3.046
		c0.262,0,0.544-0.024,0.848-0.077c0.432-0.075,0.929-0.055,1.456-0.031c0.071,0.003,0.142,0.003,0.213,0.006
		c0.098,0.385,0.25,0.772,0.55,1.102c1.728,1.896,2.091,3.27,1.34,5.064c-0.542,1.298,1.086,3.075,1.899,3.548
		c0.873,0.507,1.019,0.917,0.709,1.993c-0.265,0.923-0.302,1.882-0.303,2.78l0,0.232c-0.001,1.558-0.001,1.558-1.318,2.551
		c-1.84,1.39-1.489,3.152-1.256,4.319c0.034,0.172,0.069,0.344,0.098,0.517c0.069,0.413,0.124,0.83,0.179,1.246
		c0.248,1.868,0.528,3.986,2.056,5.756c0.135,0.156,0.355,0.408,0.648,0.654c-0.398,0.578-0.818,1.228-0.847,2.027
		c-0.046,1.301,0.13,2.58,0.301,3.818c0.049,0.354,0.098,0.709,0.141,1.063c0.204,1.667-0.063,2.873-0.95,4.299
		c-1.907,3.063-2.211,6.318-0.835,8.931c0.611,1.16,0.611,1.16-0.005,1.681c-0.907,0.767-1.543,2.646-0.993,3.747
		c0.948,1.896,2.074,3.569,3.346,4.972c2.123,2.341,3.926,4.53,4.494,7.631c0.289,1.576,1.801,3.111,3.096,3.685
		c0.272,0.12,0.582,0.179,0.906,0.179c0.549,0,1.14-0.169,1.658-0.493c0.527-0.33,0.928-0.792,1.172-1.338
		c1.167,0.752,3.584,2.305,6.081,0.127c0.453-0.395,0.976-0.765,1.529-1.157c1.283-0.91,2.61-1.851,3.277-3.266
		c0.122-0.259,0.34-0.579,0.57-0.919c0.833-1.226,2.355-3.463,0.215-5.769c0.044-0.183,0.128-0.438,0.237-0.696
		c0.039-0.002,0.079-0.004,0.119-0.006c0.245-0.015,0.492-0.033,0.7-0.073l0.603-0.111c0.638-0.116,1.298-0.235,1.956-0.415
		c0.369-0.101,0.722-0.279,1.034-0.438c0.104-0.053,0.24-0.121,0.351-0.172c2.416,1.335,4.417,2.53,6.261,3.947
		c0.877,0.675,1.836,1.27,2.906,1.063c0.782-0.15,1.444-0.701,2.024-1.682c0.178-0.301,0.375-0.592,0.571-0.882
		c0.889-1.318,1.987-2.945,1.24-5.289c0.114-0.159,0.304-0.384,0.441-0.547c0.502-0.595,1.071-1.268,1.245-2.063
		c0.174-0.792-0.106-1.552-0.354-2.221c-0.09-0.244-0.222-0.603-0.24-0.768c0.792-1.728,0.967-3.439,1.138-5.096
		c0.063-0.613,0.125-1.228,0.222-1.844c0.193-1.231,0.215-2.456,0.237-3.641c0.033-1.799,0.064-3.497,0.66-5.136
		c0.254-0.702,0.26-1.391,0.264-2.057c0.006-0.756,0.01-1.409,0.357-2.056c0.71-1.32,0.85-3.927,0.283-5.263
		c-0.452-1.061-0.285-1.483,0.351-2.514c1.23-1.993,0.896-3.999-0.94-5.647c-2.333-2.093-2.506-3.375-0.805-5.963
		c0.478-0.727,1.057-1.38,1.67-2.072c1.021-1.153,2.078-2.345,2.775-3.996c1.041-2.465,1.832-5.096-0.852-7.767
		C155.445,331.624,155.273,331.29,155.241,331.136z M154.397,338.697c-0.552,1.308-1.442,2.312-2.383,3.374
		c-0.64,0.722-1.301,1.468-1.868,2.33c-2.301,3.5-1.958,6.078,1.185,8.896c1.021,0.917,1.173,1.719,0.524,2.77
		c-0.797,1.293-1.385,2.53-0.507,4.592c0.3,0.707,0.19,2.589-0.193,3.302c-0.613,1.142-0.621,2.234-0.627,3.112
		c-0.003,0.518-0.007,0.965-0.128,1.299c-0.724,1.993-0.76,3.963-0.795,5.868c-0.021,1.159-0.042,2.254-0.21,3.332
		c-0.103,0.655-0.17,1.31-0.238,1.962c-0.161,1.562-0.312,3.036-0.97,4.441c-0.391,0.835-0.063,1.725,0.201,2.439
		c0.109,0.295,0.292,0.789,0.266,0.951c-0.054,0.246-0.48,0.75-0.762,1.084c-0.61,0.723-1.302,1.541-0.938,2.502
		c0.511,1.35,0.021,2.18-0.89,3.529c-0.221,0.327-0.442,0.656-0.643,0.996c-0.319,0.54-0.502,0.609-0.501,0.609
		c-0.051-0.008-0.283-0.011-1.096-0.636c-2.147-1.65-4.552-3.037-6.832-4.291c-0.772-0.421-1.557-0.026-2.188,0.292
		c-0.215,0.109-0.458,0.232-0.604,0.272c-0.564,0.153-1.147,0.259-1.766,0.372l-0.623,0.114c-0.121,0.023-0.266,0.028-0.409,0.037
		c-0.596,0.035-1.412,0.083-1.806,0.823c-0.402,0.751-1.233,2.594-0.268,3.495c1.065,0.996,0.798,1.618-0.237,3.141
		c-0.27,0.397-0.549,0.808-0.747,1.228c-0.413,0.876-1.444,1.608-2.537,2.383c-0.574,0.407-1.168,0.828-1.708,1.298
		c-0.941,0.822-1.698,0.75-3.366-0.326c-0.51-0.329-1.07-0.37-1.52-0.402c-0.129-0.009-0.259-0.017-0.381-0.036
		c-0.322-0.057-0.65,0.033-0.903,0.24c-0.252,0.206-0.404,0.512-0.416,0.837c-0.01,0.271-0.102,0.468-0.289,0.62
		c-0.239,0.193-0.518,0.222-0.535,0.228c-0.777-0.344-1.661-1.344-1.784-2.019c-0.674-3.685-2.771-6.239-5.044-8.746
		c-1.12-1.234-2.118-2.714-2.966-4.4c-0.015-0.271,0.217-0.901,0.397-1.063c2.009-1.696,1.199-3.233,0.548-4.469
		c-1.357-2.576-0.11-5.288,0.753-6.675c1.162-1.866,1.543-3.593,1.276-5.773c-0.045-0.366-0.095-0.731-0.146-1.098
		c-0.165-1.195-0.32-2.323-0.28-3.427c0.007-0.189,0.317-0.638,0.523-0.936c0.111-0.161,0.208-0.322,0.312-0.483
		c0.046-0.008,0.093-0.018,0.14-0.028c0.056,0.326,0.113,0.65,0.202,0.969c0.141,0.5,0.596,0.826,1.091,0.826
		c0.102,0,0.205-0.014,0.308-0.042c0.603-0.17,0.954-0.796,0.784-1.399c-0.364-1.293-0.359-2.692,0.016-4.404
		c0.134-0.611-0.253-1.216-0.865-1.35c-0.612-0.141-1.217,0.254-1.35,0.864c-0.169,0.772-0.253,1.487-0.296,2.18
		c-0.044,0.018-0.092,0.019-0.135,0.043c-0.309,0.168-0.448,0.249-1.08-0.484c-1.085-1.257-1.299-2.867-1.525-4.572
		c-0.058-0.441-0.117-0.882-0.189-1.32c-0.033-0.197-0.072-0.394-0.111-0.588c-0.232-1.165-0.274-1.559,0.398-2.065
		c2.054-1.55,2.218-2.079,2.22-4.359v-0.231c0.001-0.733,0.028-1.503,0.215-2.157c0.376-1.311,0.605-3.211-1.75-4.58
		c-0.289-0.168-0.694-0.682-0.842-0.974c1.218-3.228-0.344-5.54-1.844-7.185c-0.063-0.103-0.115-0.478-0.146-0.701
		c-0.038-0.268-0.077-0.534-0.139-0.779c-0.152-0.608-0.765-0.977-1.375-0.824c-0.268,0.067-0.478,0.233-0.628,0.44
		c-0.023-0.001-0.046-0.001-0.069-0.002c-0.622-0.026-1.268-0.053-1.939,0.063c-0.95,0.162-1.249,0.038-1.785-1.487
		c-0.171-0.485-0.036-0.723,0.379-1.336c0.292-0.432,0.656-0.969,0.737-1.663c0.126-1.08-0.38-2.094-0.827-2.987
		c-0.076-0.152-0.153-0.306-0.226-0.457l0.367-0.82c0.462-1.031,0.924-2.063,1.347-3.11l0.134-0.315
		c0.334-0.767,1.101-2.522-0.835-3.758c-0.047-0.197-0.067-0.512-0.037-0.666c0.146-0.217,0.28-0.463,0.414-0.714
		c0.497-0.936,0.575-0.918,1.002-0.813c1.033,0.248,1.463,0.782,1.644,2.04c0.45,3.125,1.729,3.593,4.606,3.481
		c0.394-0.002,0.927,0.124,1.425,0.372c1.263,0.625,3.162,1.231,5.067-0.712c1.407-1.435,2.539-2.475,4.295-2.787
		c1.669-0.297,3.131-1.713,4.085-2.752c1.001-1.092,1.92-2.263,2.809-3.395c0.722-0.92,1.467-1.87,2.237-2.75
		c0.069-0.074,0.329-0.222,1.285-0.383c1-0.17,2.371-0.402,2.941-1.548c0.509-1.021,0.025-2.168-0.243-2.707
		c0.051-0.217,0.238-0.584,0.362-0.693c0.799-0.694,3.431-0.306,4.774,0.701c1.711,1.282,3.768,2.685,6.04,3.364
		c3.009,0.897,3.2,1.096,3.397,3.548c0.033,0.4,0.214,1.742,1.181,2.152c0.552,0.234,0.917,0.503,0.976,0.72
		c0.034,0.122,0.028,0.506-0.626,1.434c-0.581-0.228-1.239,0.052-1.471,0.632c-0.233,0.581,0.049,1.241,0.63,1.475
		c0.28,0.112,0.575,0.207,0.871,0.302c0.508,0.162,0.988,0.315,1.265,0.548c0.742,0.621,1.357,1.486,2.024,2.466
		c0.031,0.052,0.067,0.157,0.093,0.26c-1.859,1.95-0.493,3.935,0.182,4.914c0.103,0.149,0.204,0.296,0.294,0.438
		c0.938,1.48,1.16,2.427,0.846,3.615c-0.275,1.038,0.451,2.236,1.006,2.788C155.595,334.973,155.408,336.304,154.397,338.697z"/>
</g>
</svg>
