<?xml version="1.0" encoding="utf-8"?>
<!-- Generator: Adobe Illustrator 16.0.0, SVG Export Plug-In . SVG Version: 6.00 Build 0)  -->
<!DOCTYPE svg PUBLIC "-//W3C//DTD SVG 1.1//EN" "http://www.w3.org/Graphics/SVG/1.1/DTD/svg11.dtd">
<svg version="1.1" id="Livello_1" xmlns="http://www.w3.org/2000/svg" xmlns:xlink="http://www.w3.org/1999/xlink" x="0px" y="0px"
	 width="510.24px" height="510.24px" viewBox="0 0 510.24 510.24" enable-background="new 0 0 510.24 510.24" xml:space="preserve">
<path fill-rule="evenodd" clip-rule="evenodd" fill="none" stroke="#000000" stroke-width="2.2677" stroke-linecap="round" stroke-linejoin="round" stroke-miterlimit="10" d="
	M66.383,118.135c2.808-0.743,5.648-1.385,8.403-2.285c0.941-0.307,1.637-1.312,2.507-1.909c0.603-0.415,1.72-1.115,1.907-0.939
	c1.923,1.8,4.383,0.668,6.538,1.303c3.365,0.99,7.204-3.645,7.338-7.06c0.092-2.348-1.151-3.822-1.586-5.725
	c-0.355-1.551-0.095-3.313,0.199-4.926c0.436-2.388-0.229-3.451-2.513-3.756c-1.017-0.136-2.092-0.457-2.956-0.992
	c-1.994-1.237-5.867-1.388-7.682,0.058c-1.631,1.3-3.255,2.171-5.472,2.04c-1.045-0.063-2.175,0.675-3.207,1.173
	c-1.475,0.713-2.622,0.908-3.769-0.728c-1.362-1.943-2.519-1.844-3.639,0.233c-1.161,2.153-2.854,3.215-5.23,3.476
	c-1.186,0.131-2.328,3.148-1.986,4.929c0.563,2.937,2.271,4.922,4.932,6.24c0.495,0.245,0.996,1.128,0.961,1.683
	c-0.164,2.625,0.512,4.701,3.013,5.973c0.659,0.334,1.211,0.926,1.736,1.472c0.699,0.727,1.091,1.442,0.301,2.499
	c-0.554,0.741-1.247,2.1-0.936,2.635c1.072,1.844-0.345,2.016-1.341,2.526c-0.722,0.371-1.583,0.54-2.207,1.023
	c-1.844,1.433-3.514,2.839-6.227,2.28c-2.242-0.462-3.83,1.335-5.415,2.673c-0.3,0.253-0.604,0.927-0.473,1.195
	c0.877,1.792,1.132,3.924,2.911,5.249c0.542,0.404,1.132,1.093,1.211,1.713c0.5,3.919,2.536,5.927,6.487,6.187
	c1.46,0.096,2.821,3.272,1.68,4.404c-1.341,1.331-1.816,2.708-1.745,4.515c0.019,0.479-0.702,1.057-1.184,1.472
	c-1.965,1.689-2.255,3.209-0.984,5.463c0.272,0.482,0.813,1.083,0.698,1.47c-0.998,3.352,1.251,5.462,2.683,7.992
	c0.716,1.264,0.749,2.911,2.569,3.155c2.661,0.358,4.77,1.74,6.974,3.173c3.188,2.072,6.739,2.197,10.085,0.256
	c1.126-0.654,1.492-0.955,2.605,0.207c1.07,1.116,0.693,1.555,0.193,2.592c-1.279,2.648-3.936,4.06-5.47,6.434
	c-0.474,0.733-1.179,1.872-0.92,2.419c0.804,1.7,0.755,4.287,3.14,4.675c2.032,0.331,4.163,0.829,6.234-0.591
	c1.013-0.695,2.675-0.361,3.894-0.859c3.778-1.545,7.914-2.694,10.593-5.966c1.686-2.059,3.315-4.38,3.365-7.37
	c0.011-0.668,0.812-1.75,1.434-1.909c2.817-0.716,5.027-2.247,5.595-5.044c0.665-3.271,3.645-3.869,5.571-5.639
	c2.286-2.1,4.911-1.82,7.667-0.596c1.502,0.667,3.307,0.618,4.913,1.1c0.667,0.2,1.318,0.845,1.72,1.456
	c1.057,1.609,3.703,2.764,4.928,1.654c1.718-1.555,2.442-0.166,2.959,0.838c0.597,1.162,1.189,1.721,2.522,2.042
	c1.262,0.303,2.368,1.346,3.484,2.144c2.499,1.787,4.902,3.714,7.465,5.398c1.113,0.731,2.303,1.086,3.94,1.06
	c1.799-0.029,4.302,0.135,5.964,1.932c1.934,2.09,4.024,4.061,4.656,6.963c0.389,1.786,0.967,3.703,0.674,5.427
	c-0.566,3.322,0.875,6.278,1.15,9.423c0.061,0.698,0.976,1.296,1.413,1.993c1.183,1.882,2.485,3.715,3.427,5.715
	c0.8,1.699,2.24,3.02,2.358,5.173c0.165,3.034,0.48,5.955-1.296,8.688c-1.01,1.553-0.641,3.504,0.728,4.687
	c1.373,1.185,2.688,0.974,3.962-0.236c1.493-1.417,2.734-0.078,3.942,0.521c1.576,0.78,0.296,1.881-0.031,2.674
	c-0.761,1.841,0.046,3.74,2.029,4.227c1.401,0.345,2.816,0.63,4.204,1.015c0.371,0.103,0.755,0.411,0.983,0.732
	c1.513,2.127,3.002,4.272,4.461,6.438c0.37,0.548-0.213,3.625-0.735,4.2c-0.998,1.1-0.545,2.424-0.178,3.447
	c0.75,2.093,4.517,3.137,5.774,1.433c1.485-2.011,3.228-1.286,4.53-0.82c4.988,1.788,9.121,4.676,10.968,10.049
	c0.595,1.73,1.5,3.39,2.497,4.931c0.407,0.63,1.469,1.261,2.166,1.195c1.743-0.164,3.037,0.425,4.221,1.563
	c1.643,1.578,3.405,3.048,4.907,4.748c0.75,0.848,1.571,2.186,1.429,3.167c-0.406,2.798,1.553,3.195,3.313,3.994
	c0.871,0.396,1.869,0.8,2.448,1.499c2.479,2.984,4.879,6.04,7.189,9.157c0.76,1.026,1.001,2.472,2.805,1.292
	c0.311-0.204,1.31,0.527,1.924,0.929c0.94,0.613,1.583,1.144,3.042,0.67c1.001-0.324,2.807,0.893,3.836,1.863
	c0.967,0.913,1.474,2.369,2.03,3.652c1.386,3.202,3.015,3.597,5.467,1.231c2.486-2.398,6.809-2.065,9.66,0.743
	c1.859,1.831,4.111,1.711,5.97-0.224c0.32-0.334,0.982-0.521,1.456-0.474c0.516,0.049,1.095,0.348,1.476,0.714
	c2.367,2.277,4.115,4.862,5.077,8.126c0.563,1.908,2.296,3.447,3.316,5.258c0.429,0.761,0.574,1.808,0.501,2.697
	c-0.203,2.485,0.593,3.65,3.005,3.406c1.602-0.161,3.556-0.501,4.612-1.524c1.478-1.432,2.015-0.565,2.815,0.358
	c0.463,0.533,0.819,1.159,1.252,1.723c0.393,0.512,0.821,0.994,1.234,1.489c-0.66,0.33-1.289,0.78-1.988,0.964
	c-1.215,0.319-2.304,2.333-1.965,3.988c0.268,1.303,0.93,2.264,2.462,1.961c0.524-0.104,0.98-0.509,1.494-0.714
	c1.427-0.571,2.728-1.864,4.469-0.771c0.236,0.149,0.838,0.156,0.948,0c1.486-2.088,4.767,0.238,6.012-2.438
	c0.027-0.059,0.75,0.037,0.932,0.249c1.034,1.2,2.11,2.389,2.959,3.719c0.668,1.046,1.069,2.273,1.511,3.449
	c0.611,1.63,1.777,3.213-0.43,4.78c-0.837,0.594-1.257,2.029-1.468,3.156c-0.142,0.753,0.165,1.946,0.718,2.403
	c1.598,1.322,3.338,3.116,5.176,3.315c1.805,0.196,2.944,1.23,4.411,1.764c0.7,0.256,2.258,0.589,1.126,2.24
	c-0.2,0.291,0.894,2.069,1.654,2.302c1.804,0.555,3.763,0.702,5.668,0.775c0.563,0.021,1.271-0.662,1.711-1.189
	c1.998-2.388,3.658-2.671,5.379-0.167c1.34,1.951,2.86,3.833,2.539,6.895c-0.291,2.782,1.112,5.81,2.06,8.63
	c0.768,2.284,1.729,4.462,3.615,6.264c3.184,3.041,3.224,7.352,3.446,11.344c0.262,4.728,1.236,8.991,4.771,12.388
	c1.942,1.866,0.147,3.714-0.332,5.416c-0.443,1.576-1.877,1.023-3.15,0.587c-0.613-0.211-1.521,0.141-2.195,0.455
	c-1.604,0.749-3.186,1.564-4.709,2.468c-2.199,1.305-2.567,3.606-0.449,4.844c2.254,1.315,1.563,2.69,0.93,4.303
	c-0.718,1.828-1.339,3.714-2.279,5.421c-0.507,0.919-1.473,1.835-2.441,2.205c-4.064,1.558-3.689,1.535-3.658,5.754
	c0.013,1.725,0.127,3.462,0.182,5.201c0.109,3.522,4.296,7.05,7.712,6.463c1.712-0.295,3.47-0.53,5.197-0.476
	c2.293,0.073,3.992-0.605,4.955-2.768c0.406-0.91,1.126-1.798,1.185-2.728c0.242-3.795,2.854-6.291,4.806-9.131
	c0.431-0.628,1.456-0.831,2.181-1.273c2.731-1.671,5.486-3.341,7.157-6.206c0.364-0.626,0.558-1.488,0.488-2.208
	c-0.237-2.486-0.641-4.956-0.95-7.437c-0.28-2.245,0.34-4.914,2.678-6.5c2.212-1.502,4.357-3.026,6.986-3.614
	c0.769-0.173,1.8-0.136,2.442,0.251c3.37,2.034,7.17,0.572,8.207-3.262c0.115-0.427,0.229-0.91,0.505-1.225
	c1.087-1.242,0.579-2.416-0.54-2.928c-2.302-1.053-2.084-2.606-1.493-4.529c0.285-0.929,0.62-2.231,0.199-2.909
	c-1.032-1.664-0.813-3.142-0.171-4.761c0.622-1.563,0.552-2.373-1.073-3.885c-3.23-3.005-7.833-4.118-10.339-7.985
	c-1.266-1.955-3.265-0.663-4.931-0.734c-1.583-0.067-3.096-0.023-2.972-2.255c0.009-0.164,0.072-0.413-0.009-0.484
	c-3.696-3.237-0.063-5.279,1.26-7.684c0.162-0.295,0.466-0.522,0.734-0.746c1.215-1.014,1.355-2.283,0.46-3.446
	c-1.102-1.431-0.43-2.914,0.348-3.671c3.131-3.05,4.029-7.413,6.654-10.693c1.635-2.045,3.492-3.946,5.454-5.68
	c1.208-1.067,4.002,0.308,3.833,1.928c-0.179,1.712,0.578,2.358,1.822,2.988c2.734,1.383,5.376,2.992,8.211,4.117
	c1.284,0.511,2.944,0,4.423,0.106c2.4,0.175,4.81,0.37,7.17,0.807c0.518,0.095,0.903,1.209,1.227,1.911
	c0.156,0.341-0.136,1.068,0.051,1.188c2.881,1.835,2.372,4.737,2.474,7.469c0.02,0.501,0.198,1.073,0.493,1.474
	c2.224,3.022,4.664,5.762,8.646,6.483c0.618,0.112,1.204,0.573,1.731,0.972c2.066,1.554,4.756,0.816,4.839-1.749
	c0.114-3.483,0.883-6.43,3.046-9.199c1.719-2.202,1.247-4.762,0.044-7.142c-1.406-2.778-2.667-5.566-5.137-7.748
	c-2.459-2.173-4.318-5.011-7.475-6.41c-0.528-0.235-1.197-0.955-1.195-1.45c0.007-3.221-3.114-4.067-4.532-6.183
	c-0.051-0.076-0.318-0.031-0.479-0.007c-3.511,0.546-5.396-2.818-8.419-3.487c-4.002-0.885-7.122-3.493-10.049-6.055
	c-1.337-1.17-2.538-2.529-4.042-3.632c-4.3-3.155-9.21-4.873-14.129-6.701c-3.658-1.361-7.12-3.251-10.673-4.896
	c-4.291-1.986-8.635-3.868-12.859-5.986c-2.154-1.079-4.23-2.206-4.88-5.128c-0.333-1.498,0.051-2.123,0.916-2.73
	c2.003-1.408,4.123-2.647,6.169-3.996c3.93-2.589,3.928-7.634,0-10.145c-0.966-0.617-1.963-1.189-2.971-1.734
	c-2.325-1.256-4.44,0.472-6.685,0.517c-2.067,0.041-4.132,0.273-6.192,0.477c-2.15,0.212-4.29,0.559-6.443,0.706
	c-1.146,0.079-2.311-0.136-3.466-0.219c-2.313-0.165-4.622-0.371-6.938-0.448c-0.318-0.011-0.82,0.555-0.963,0.953
	c-1.131,3.139-3.137,6.225-0.791,9.666c0.089,0.13-0.069,0.563-0.238,0.714c-1.048,0.938-1.794,2.545-3.739,1.309
	c-0.687-0.438-1.442-0.023-1.494,1.181c-0.067,1.576-0.436,3.142-0.703,4.708c-0.323,1.894-1.71,2.493-3.728,2.061
	c-0.714-0.151-2.219-0.906-2.479,0.909c-0.027,0.185-0.322,0.324-0.476,0.499c-2.304,2.618-4.373,2.985-7.673,1.223
	c-1.695-0.906-3.229-2.156-4.983-2.906c-1.884-0.806-3.913-1.507-5.933-1.693c-1.71-0.158-2.747,2.204-2.467,4.862"/>
<path fill-rule="evenodd" clip-rule="evenodd" fill="none" stroke="#000000" stroke-width="2.2677" stroke-linecap="round" stroke-linejoin="round" stroke-miterlimit="10" d="
	M235.808,148.85c-1.692,1.976-0.136,3.802,0.22,5.702c0.165,0.878-0.032,1.816,0.042,2.719c0.114,1.408,0.191,2.837,0.509,4.206
	c0.562,2.417,1.496,4.761,1.901,7.198c0.468,2.809,1.685,5.029,3.749,6.947c2.394,2.224,4.606,4.643,6.983,6.886
	c0.557,0.526,1.48,0.649,2.197,1.028c1.829,0.966,3.842,1.724,5.413,3.013c3.841,3.151,7.308,6.773,11.265,9.756
	c1.686,1.271,3.663,3.161,6.377,2.123c0.306-0.117,0.881,0.206,1.213,0.471c2.169,1.734,3.913,3.468,4.389,6.649
	c0.486,3.25,2.539,6.233,3.49,9.455c1.101,3.736,3.328,7.001,3.687,11.115c0.292,3.37,1.904,6.648,3.086,9.912
	c0.944,2.607,2.112,5.133,3.203,7.685c0.188,0.439,0.423,0.889,0.744,1.233c3.114,3.333,5.595,7.25,9.843,9.525
	c1.581,0.846,2.809,2.722,3.699,4.393c1.043,1.957,2.703,2.765,4.54,3.401c1.741,0.604,3.329,1.105,3.029,3.505
	c-0.055,0.438,0.662,1.159,1.19,1.444c1.686,0.914,3.386,1.881,5.199,2.462c2.396,0.768,3.883,2.511,5.433,4.259"/>
<path fill-rule="evenodd" clip-rule="evenodd" fill="none" stroke="#000000" stroke-width="2.2677" stroke-linecap="round" stroke-linejoin="round" stroke-miterlimit="10" d="
	M248.936,59.926c-0.968,0.917-0.4,1.94-0.281,2.977c0.1,0.861,0.628,1.89-1.192,2.088c-1.356,0.148-3.582,0.534-2.542,3.13
	c0.068,0.17-0.755,0.986-0.917,0.917c-2.114-0.898-2.428,0.832-3.275,2.011c-1.193,1.66-2.74,3.072-3.892,4.755
	c-0.996,1.458-1.582,3.153-0.538,4.929c0.187,0.318,0.247,0.805,0.514,0.964c1.28,0.764,3.441,0.694,3.368,2.747
	c-0.047,1.337-0.931,2.637-1.394,3.969c-0.369,1.06-0.768,2.125-0.973,3.222c-0.264,1.411-1.13,2.904,1.168,3.823
	c1.01,0.405,1.629,1.981,2.252,3.119c1.075,1.964,5.42,3.582,7.132,2.131c1.64-1.39,2.784-0.688,4.303-0.225
	c0.884,0.269,1.962-0.102,2.953-0.184"/>
<path fill-rule="evenodd" clip-rule="evenodd" fill="none" stroke="#000000" stroke-width="2.2677" stroke-linecap="round" stroke-linejoin="round" stroke-miterlimit="10" d="
	M241.257,58.44c2.478,0.33,4.966,0.592,7.427,1.013c1.887,0.322,3.637,0.57,5.352,2.035c1.227,1.048,3.907,0.931,5.771,0.539
	c1.664-0.349,2.988-0.029,4.209,0.674c1.749,1.006,3.4,1.254,5.232,0.447c1.984-0.874,3.678,0.794,5.706,0.63
	c1.847-0.149,3.771,0.94,5.692,1.321c1.339,0.265,2.021,0.89,1.975,2.258c-0.054,1.627,0.384,3.37-1.002,4.695
	c-0.338,0.324-0.811,0.717-1.227,0.721c-3.332,0.035-5.262,2.317-7.148,4.522c-1.196,1.397-0.634,2.09,1.193,2.496
	c2.028,0.449,4.08,1.064,5.919,2.004c1.279,0.654,1.588,2.143,0.512,3.379c-1.148,1.318-2.479,2.475-3.685,3.745
	c-0.403,0.425-0.672,0.979-1.001,1.475c0.578,0.165,1.188,0.259,1.726,0.511c0.935,0.439,2.341,0.788,2.604,1.517
	c0.352,0.969-0.097,2.295-0.411,3.409c-0.162,0.567-0.983,0.947-1.14,1.514c-0.165,0.592-0.128,1.669,0.232,1.905
	c1.727,1.128,3.643,1.966,5.384,3.074c0.651,0.414,1.026,1.273,1.509,1.943c0.589,0.818,1.114,1.686,1.749,2.465
	c0.662,0.813,1.875,1.414,0.969,2.729c-0.91,1.321-1.37,3.305-3.455,3.18c-1.5-0.091-3.034-0.464-4.434-1.016
	c-0.582-0.229-1.362-1.609-1.188-1.855c1.847-2.615-0.392-3.573-1.804-4.894c-0.148-0.138-0.175-0.404-0.257-0.61"/>
<path fill-rule="evenodd" clip-rule="evenodd" fill="none" stroke="#000000" stroke-width="2.2677" stroke-linecap="round" stroke-linejoin="round" stroke-miterlimit="10" d="
	M232.835,191.454c-1.078-0.596-1.772-0.057-2.488,0.732c-2.092,2.306-3.304,2.511-5.661,0.723c-1.237-0.938-2.398-1.502-3.992-1.24
	c-1.156,0.189-4.425-2.71-4.95-4.178c-0.667-1.865-0.958-3.597,0.697-5.249c0.62-0.618,0.841-1.746,1.009-2.683
	c0.324-1.804-1.185-3.146-2.94-2.706c-0.272,0.068-0.659,0.507-0.723,0.454c-1.803-1.517-4.436-1.351-6.124-2.576
	c-2.507-1.818-2.919-2.53-5.245-1.036c-1.624,1.043-4.429,1.023-4.347,4.137c0.023,0.84-3.454,0.826-4.071-0.28
	c-1.106-1.982-2.476-1.631-3.191-0.178c-1.337,2.717-2.669,0.888-3.756,0.147c-1.115-0.76-1.871-2.056-3.509-1.675
	c-0.741,0.172-1.746,0.084-2.181,0.542c-1.415,1.487-2.021,1.014-3.091-0.491c-1.268-1.783-2.927-3.374-4.684-4.692
	c-1.192-0.895-2.398-2.723-4.434-1.337c-0.149,0.101-0.653-0.27-0.964-0.465c-1.163-0.731-2.229-1.71-3.488-2.177
	c-2.693-1-3.962-3.224-5.152-5.513c-0.594-1.143-1.565-1.596-2.482-1.167c-2.385,1.114-5.289,1.474-6.714,4.155"/>
<path fill-rule="evenodd" clip-rule="evenodd" fill="none" stroke="#000000" stroke-width="2.2677" stroke-linecap="round" stroke-linejoin="round" stroke-miterlimit="10" d="
	M142.921,164.207c0.661-1.156,1.45-2.263,1.921-3.491c0.2-0.521-0.069-1.495-0.48-1.914c-0.654-0.664-1.74-0.901-2.4-1.562
	c-1.025-1.027-1.76-0.78-2.803-0.036c-0.359,0.257-1.312-0.177-1.924-0.451c-0.704-0.315-1.64-1.318-1.944-1.136
	c-3.289,1.973-5.212-0.554-7.495-2.036c-0.636-0.413-1.774-0.956-2.157-0.688c-1.225,0.857-2.238,2.035-3.246,3.167
	c-0.206,0.229,0.127,1.06-0.055,1.17c-1.357,0.82-2.866,1.406-4.167,2.298c-2.239,1.534-4.476,0.746-6.7,0.193
	c-1.35-0.336-2.59-0.401-3.452,0.787c-0.979,1.35-1.795,1.269-3.022,0.265c-1.446-1.184-3.022-0.541-3.874,0.751
	c-1.084,1.645-1.694,3.6-2.551,5.402c-0.253,0.532-0.558,1.103-0.995,1.474c-1.828,1.551-2.376,3.434-1.73,5.719
	c0.086,0.306,0.108,0.7-0.014,0.976c-0.133,0.299-0.496,0.743-0.713,0.719c-2.46-0.28-3.644,3.855-6.419,1.979
	c-2.113-1.428-3.373-0.717-4.484,1.153"/>
<path fill-rule="evenodd" clip-rule="evenodd" fill="none" stroke="#000000" stroke-width="2.2677" stroke-linecap="round" stroke-linejoin="round" stroke-miterlimit="10" d="
	M320.521,293.01c2.531-0.22,4.137,1.419,5.646,3.021c0.49,0.521,0.675,1.677,0.49,2.415c-0.525,2.092-0.102,2.99,2.037,3.48
	c3.276,0.754,3.276,0.754,3.221,4.212c-0.003,0.247,0.005,0.495-0.002,0.743c-0.08,3.342,0.754,4.025,3.964,3.217
	c2.273-0.572,3.955,0.744,5.396,2.045c1.35,1.218,1.749,3.111,1.002,4.876c-0.527,1.247-1.569,2.27-2.156,3.5
	c-0.779,1.636-2.168,0.675-3.241,1.007c-0.47,0.146-0.835,0.63-1.248,0.96c1.476,1.456-0.262,4.615,2.956,5.281
	c1.188,0.247,1.642,1.611,0.999,2.889c-0.952,1.893,0.815,2.817,1.569,3.916c1.207,1.761,2.915,3.173,4.374,4.768
	c0.476,0.52,1.126,1.116,1.188,1.729c0.139,1.357,0.896,1.768,2.019,2.274c2.189,0.986,2.759,4.043,0.671,5.232
	c-2.732,1.554-2.55,3.896-3.08,6.122c-0.321,1.348-0.618,2.531-2.026,3.085"/>
<path fill-rule="evenodd" clip-rule="evenodd" fill="none" stroke="#000000" stroke-width="2.2677" stroke-linecap="round" stroke-linejoin="round" stroke-miterlimit="10" d="
	M235.065,203.343c-0.33,2.111,0.264,3.105,2.478,3.157c2.03,0.047,3.547,0.673,4.161,2.557c0.514,1.578,1.708,1.767,2.752,1.408
	c2.44-0.838,4.518-1.5,4.48,2.291c2.196,1.59,2.132,4.249,2.896,6.467c0.492,1.428,0.018,3.165,0.377,4.667
	c0.543,2.277,1.274,4.543,2.235,6.674c0.588,1.301,1.706,2.387,2.706,3.458c0.23,0.247,1.263,0.228,1.398,0.006
	c1.407-2.291,2.309-0.761,3.563,0.218c0.827,0.646,2.101,0.72,3.174,1.05c-0.743,1.156-1.849,2.226-2.152,3.487
	c-0.581,2.413-2.194,3.056-4.283,3.471c-3.63,0.719-6.646,2.494-8.657,5.686c-0.807,1.278-2.539,2.049-2.247,3.952
	c-0.578,0-1.24,0.185-1.718-0.034c-1.57-0.715-2.042-0.495-2.243,1.273c-0.018,0.164-0.021,0.332,0.001,0.494
	c0.182,1.282-0.234,2.586-1.492,2.612c-0.999,0.021-2.224-0.746-2.003-2.366c0.156-1.148-1.201-2.045-0.335-3.53
	c0.488-0.838-1.42-2.027-2.59-1.379c-1.935,1.07-2.539,0.295-3.04-1.516c-0.449-1.627-1.007-3.351-1.994-4.676
	c-1.948-2.612-3.023-2.551-5.392-0.29c-0.664,0.634-0.767,0.727-1.929-0.544c-0.434-0.474-2.503-0.463-1.022-1.912
	c0.875-0.854,1.118-1.867,0.186-2.43c-1.207-0.729-2.625-2.363-4.096-0.981c-0.866,0.813-1.268,1.653-2.579,0.964
	c-0.123-0.065-0.671,0.583-0.924,0.965c-0.038,0.059,0.414,0.601,0.711,0.694c1.346,0.423,1.537,1.095,0.769,2.274
	c-0.288,0.443-0.399,1.198-0.241,1.701c0.418,1.334-0.322,1.935-1.278,2.488c-0.576,0.333-1.14,0.693-1.736,0.984
	c-1.57,0.768-2.861,1.394-2.071,3.753c0.7,2.088-0.294,3.616-2.113,3.3c-2.408-0.418-2.224,1.147-2.755,2.363
	c-0.118,0.27-0.324,0.498-0.489,0.746"/>
<path fill-rule="evenodd" clip-rule="evenodd" fill="none" stroke="#000000" stroke-width="2.2677" stroke-linecap="round" stroke-linejoin="round" stroke-miterlimit="10" d="
	M161.251,73.302c0.012-2.078-1.344-3.842-0.629-6.232c0.943-3.153,4.373-6.859,7.564-6.896c2.496-0.029,5.057,2.787,4.701,5.201
	c-0.25,1.696,0.321,2.861,1.982,3.479c1.178,0.438,2.384,0.868,3.449,1.512c0.776,0.47,1.344,1.284,2.004,1.944
	c-0.66,0.496-1.263,1.112-1.993,1.464c-2.117,1.02-2.015,1.442-1.297,3.76c1.199,3.874,0.747,7.711-1.675,11.117
	c-1.366,1.921-2.427,3.784-0.506,5.972c0.164,0.187,0.087,0.657,0.012,0.969c-0.708,2.929,0.55,5.924,3.259,7.12
	c0.63,0.278,1.914,0.018,2.395-0.48c1.706-1.761,3.914-1.627,6.001-1.902c1.364-0.179,1.564,0.641,0.979,1.7
	c-0.538,0.972-1.147,1.904-1.726,2.853"/>
<path fill-rule="evenodd" clip-rule="evenodd" fill="none" stroke="#000000" stroke-width="2.2677" stroke-linecap="round" stroke-linejoin="round" stroke-miterlimit="10" d="
	M116.418,121.851c-2.968-1.593-4.77-1.649-6.199-0.254c-0.886,0.865-1.162,1.702-0.249,2.737c1.244,1.41,1.5,3.176,1.462,4.946
	c-0.027,1.284,0.346,2.1,1.488,2.775c0.657,0.388,1.331,1.22,1.45,1.943c0.231,1.411-0.201,3.285,1.339,3.859
	c1.748,0.652,3.759,0.633,5.666,0.805c0.476,0.043,1.209-0.591,1.443-0.412c0.922,0.699,1.732,1.563,2.492,2.446
	c0.239,0.278,0.206,0.802,0.266,1.218c0.035,0.243-0.082,0.665,0.019,0.717c2.093,1.084,2.442,3.756,4.239,4.916
	c3.004,1.938,3.786,3.056,3.176,6.255c-0.143,0.747-0.327,1.486-0.492,2.229"/>
<path fill-rule="evenodd" clip-rule="evenodd" fill="none" stroke="#000000" stroke-width="2.2677" stroke-linecap="round" stroke-linejoin="round" stroke-miterlimit="10" d="
	M288.815,233.067c-0.908,0.164-1.958,0.097-2.694,0.543c-1.504,0.91-2.981,1.958-4.2,3.211c-1.171,1.204-2.213,1.137-3.513,0.461
	c-2.07-1.075-3.238-0.679-3.609,1.253c-0.389,2.028-1.948,2.731-3.087,3.932c-0.762,0.803-1.581,1.582-2.49,2.204
	c-0.431,0.296-1.157,0.354-1.704,0.259c-3.359-0.581-4.122-0.247-5.441,2.755c-0.567,1.291-1.133,2.609-1.429,3.974
	c-0.105,0.483,0.468,1.286,0.945,1.689c1.122,0.946,1.43,2.052,1.52,3.493c0.139,2.225,0.916,4.412,3.421,4.902
	c2.518,0.495,1.141,2.077,1.228,3.276c-1.155,0.082-2.466,0.557-3.438,0.176c-3.271-1.28-3.325-1.379-5.727,1.063
	c-0.856,0.87-1.063,4.796-0.226,5.676c0.278,0.294,0.965,0.614,1.191,0.476c2.326-1.425,3.846,1.497,5.981,1.089
	c0.162-0.03,0.432,0.813,0.743,1.171c0.537,0.613,1.1,1.222,1.733,1.729c0.819,0.657,1.489,1.049,1.408,2.501
	c-0.053,0.938,1.557,2.063,2.572,2.931c0.681,0.582,1.687,0.766,2.437,1.288c1.964,1.368,3.12,1.43,4.937-0.297
	c1.046-0.992,1.606-0.836,2.266,0.275c0.689,1.161,1.572,1.814,2.978,1.015c0.249-0.142,0.655-0.063,0.979-0.013
	c1.854,0.28,2.419,1.668,3.381,3.106c1.07,1.602,1.296,2.821,0.554,4.303c-0.863,1.716-2.092,3.253-2.893,4.991
	c-0.516,1.116-0.993,2.573-0.701,3.668c0.623,2.34-0.796,3.089-2.314,4.001c-0.703,0.423-1.329,0.978-1.989,1.474"/>
<path fill-rule="evenodd" clip-rule="evenodd" fill="none" stroke="#000000" stroke-width="2.2677" stroke-linecap="round" stroke-linejoin="round" stroke-miterlimit="10" d="
	M336.126,427.509c0.66,0.414,1.289,0.892,1.987,1.227c2.172,1.045,2.172,1.013,0.251,2.501c-0.314,0.245-0.673,0.623-0.727,0.983
	c-0.633,4.191-3.656,6.947-5.929,10.181c-1.46,2.074-2.256,4.641-3.828,6.602c-1.762,2.2-1.975,4.75-2.692,7.229
	c-0.449,1.547-0.322,3.315-1.915,4.507c-1.82,1.362-1.164,3.528-1.262,5.412c-0.116,2.242,1.107,2.94,3.199,3.308
	c1.843,0.323,2.334,2.87,0.985,4.351c-1.094,1.199-0.728,2.145,0.529,2.443c2.968,0.704,1.889,3.669,3.143,5.305
	c0.086,0.113-0.729,1.339-1.179,1.375c-4.067,0.323-4.897,3.842-6.315,6.563c-0.437,0.839,0.32,2.538,0.923,3.625
	c0.9,1.624,0.258,2.388-1.021,3.28c-1.288,0.897-2.162,0.721-3.01-0.515c-0.221-0.323-0.904-0.754-0.937-0.72
	c-1.157,1.224-1.782-0.064-2.504-0.546c-1.143-0.761-2.286-0.604-3.479-0.235c-1.983,0.617-3.79,0.595-5.489-0.942
	c-0.75-0.68-1.909-1.095-2.938-1.238c-2.221-0.311-3.363-1.356-4.239-3.499c-2.307-5.639-6.253-10.132-13.589-10.148
	c-0.578-0.001-1.147,0.379-1.736,0.455c-0.649,0.083-1.321,0.052-1.979,0.013c-1.867-0.108-2.545-3.213-4.954-1.976
	c-1.651-1.403-3.341-2.766-4.943-4.224c-1.287-1.175-2.449-2.369-4.488-1.788c-0.448,0.127-1.157-0.563-1.711-0.931
	c-1.088-0.721-2.136-1.505-3.229-2.216c-1.172-0.761-2.245-1.299-2.874-2.92c-0.66-1.704-2.624-2.766-4.801-2.534
	c-1.313,0.14-2.232-0.187-3.022-1.457c-1.268-2.034-5.04-2.675-7.381-1.518c-2.333,1.154-3.995,0.558-4.908-1.997
	c-0.353-0.983-0.67-1.372-1.771-1.53c-1.829-0.264-3.087-1.35-3.259-3.405c-0.043-0.513-0.363-1.096-0.733-1.468
	c-0.812-0.813-1.12-1.557-0.239-2.509c0.241-0.26,0.542-0.891,0.478-0.945c-2.063-1.712-0.258-2.881,0.493-4.263
	c0.392-0.719,1.796-1.325,0.57-2.504c-0.077-0.074,0.396-0.831,0.71-1.187c1.683-1.902,4.7-1.751,6.173-3.978
	c0.24-0.364,0.435-0.808,0.485-1.234c0.114-0.937-0.287-2.341,1.25-2.157c1.156,0.139,2.734,0.344,2.724,2.159
	c-0.01,1.62,0.747,2.699,1.947,3.766c1.115,0.99,2.2,0.925,3.241,0.402c1.23-0.616,2.428-1.242,2.327-3.181
	c-0.128-2.471,1.659-3.504,3.901-2.762c0.57,0.189,1.475,0.102,1.94-0.243c3.042-2.257,5.148-1.578,5.908,2.278
	c0.384,1.948,1.402,1.685,2.529,1.197c2.103-0.908,2.939-0.462,3.006,1.762c0.01,0.335,0.235,0.735,0.484,0.98
	c3.001,2.944,6.271,3.104,9.938,1.077c1.721-0.951,3.811-2.741,5.916-0.335c0.148,0.17,0.622,0.323,0.71,0.238
	c1.688-1.621,3.158,0.179,4.727,0.263c0.741,0.039,1.525,0.159,2.223-0.02c3.317-0.851,6.611-1.788,9.914-2.703
	c0.173-0.048,0.426-0.12,0.481-0.249c1.682-3.92,5.568-3.266,8.684-4.206c0.25-0.075,0.617-0.313,0.725-0.225
	c1.384,1.136,3.039,1.521,4.683,2.083c0.881,0.302,1.493,0.839,2.261,0.112c1.137-1.078,2.755-2.211,2.126-3.908
	c-0.383-1.029-0.386-1.637,0.395-1.94c0.39-0.152,1.405,0.436,1.652,0.932c1.07,2.137,2.501,1.634,4.007,0.708
	c1.677-1.031,3.309-2.137,4.959-3.21"/>
<path fill-rule="evenodd" clip-rule="evenodd" fill="none" stroke="#000000" stroke-width="2.2677" stroke-linecap="round" stroke-linejoin="round" stroke-miterlimit="10" d="
	M149.114,316.789c1.163-1.586,1.614-3.01-0.726-4.004c-0.288-0.122-0.46-0.777-0.494-1.2c-0.251-3.118-0.962-3.576-4.203-4.543
	c-2.038-0.609-3.953-1.888-5.685-3.185c-1.565-1.174-4.826-1.838-6.196-0.651c-0.468,0.405-0.929,1.487-0.711,1.906
	c1.117,2.154-0.138,2.5-1.797,2.781c-0.683,0.115-1.539,0.286-1.948,0.753c-1.739,1.987-3.247,4.183-5.03,6.126
	c-0.94,1.023-2.187,2.178-3.449,2.402c-2.18,0.388-3.545,1.722-4.906,3.109c-1.215,1.238-2.36,1.179-3.755,0.489
	c-0.597-0.296-1.316-0.513-1.97-0.488c-2.573,0.093-3.107-0.184-3.442-2.51c-0.228-1.585-0.894-2.595-2.501-2.981
	c-1.748-0.42-2.026,1.162-2.656,2.046c-0.324,0.452-0.158,1.89,0.22,2.098c1.515,0.837,0.837,1.82,0.442,2.802
	c-0.539,1.336-1.144,2.646-1.729,3.964c-0.044,0.1-0.247,0.2-0.23,0.246c0.438,1.162,1.35,2.369,1.223,3.458
	c-0.13,1.116-1.65,1.826-1.059,3.507c0.571,1.623,1.191,2.548,3.047,2.228c0.801-0.139,1.647-0.024,2.472-0.024"/>
<path fill-rule="evenodd" clip-rule="evenodd" fill="none" stroke="#000000" stroke-width="2.2677" stroke-linecap="round" stroke-linejoin="round" stroke-miterlimit="10" d="
	M127.812,96.585c-1.107-1.386-1.643-2.79-1.333-4.722c0.268-1.673,0.502-3.065,2.062-3.972c0.267-0.155,0.345-0.637,0.51-0.967
	c0.413-0.825,0.7-1.751,1.263-2.457c1.497-1.874,3.303-3.525,4.631-5.503c1.425-2.124,0.975-4.446-0.186-6.659
	c-1.061-2.023,1.175-5.661,3.457-5.689c1.321-0.016,2.644-0.054,3.962,0.01c1.881,0.091,2.954,1.631,2.478,3.455
	c-0.499,1.915,1.437,5.987,3.236,6.366c0.645,0.136,1.524-0.503,2.197-0.941c0.575-0.374,0.924-1.212,1.519-1.412
	c1.435-0.482,3.062-0.479,4.415-1.1c1.66-0.76,3.032-0.229,4.483,0.313c2.206,0.824,2.329,1.228,1.241,3.71"/>
<path fill-rule="evenodd" clip-rule="evenodd" fill="none" stroke="#000000" stroke-width="2.2677" stroke-linecap="round" stroke-linejoin="round" stroke-miterlimit="10" d="
	M378.605,352.829c-2.267-3.224-3.289-3.021-6.856-2.017c-3.055,0.859-3.368,2.677-4.046,5.076c-0.371,1.32-1.348,2.908-3.589,2.872
	c-1.395-0.021-2.777,1.132-4.218,1.597c-1.301,0.419-2.83,1.06-2.778-1.462c0.011-0.569-0.704-1.588-1.188-1.654
	c-1.759-0.244-3.367-0.659-4.979-1.492c-1.245-0.644-1.858,0.627-2.478,1.64c-0.664,1.089-1.615,2.004-2.44,2.994"/>
<path fill-rule="evenodd" clip-rule="evenodd" fill="none" stroke="#000000" stroke-width="2.2677" stroke-linecap="round" stroke-linejoin="round" stroke-miterlimit="10" d="
	M147.875,317.036c0.826,0.331,1.795,0.489,2.442,1.033c0.883,0.74,1.578,1.735,2.236,2.702c0.257,0.377,0.437,1.25,0.238,1.423
	c-1.828,1.594-0.403,3.029,0.349,4.215c0.927,1.462,1.442,2.781,0.985,4.513c-0.127,0.479,0.296,1.283,0.709,1.694
	c2.061,2.051,1.681,3.978,0.607,6.522c-1.026,2.429-3.014,3.855-4.348,5.886c-2,3.042-1.754,4.964,0.995,7.43
	c1.358,1.22,1.715,2.615,0.732,4.208c-0.701,1.137-1.098,1.983-0.429,3.554c0.438,1.032,0.299,3.282-0.238,4.281
	c-0.831,1.548-0.243,3.034-0.689,4.263c-1.078,2.966-0.485,6.011-0.951,8.988c-0.355,2.263-0.273,4.513-1.301,6.708
	c-0.368,0.785,0.76,2.181,0.547,3.152c-0.237,1.084-1.993,2.294-1.748,2.942c0.918,2.425-0.62,3.816-1.618,5.504
	c-0.976,1.65-1.877,1.361-3.264,0.296c-2.08-1.599-4.381-2.929-6.686-4.196c-0.402-0.221-1.27,0.479-1.948,0.664
	c-0.811,0.221-1.647,0.349-2.474,0.507c-0.493,0.094-1.283,0.011-1.427,0.281c-0.346,0.646-0.775,1.868-0.493,2.132
	c2.403,2.246-0.013,4.15-0.733,5.68c-0.794,1.687-2.979,2.705-4.525,4.052c-1.672,1.459-3.171,0.775-4.727-0.229
	c-0.387-0.25-0.975-0.19-1.47-0.272c-0.058,1.62-1.734,2.146-2.416,1.844c-1.057-0.468-2.238-1.747-2.44-2.852
	c-0.618-3.379-2.582-5.777-4.769-8.188c-1.266-1.395-2.33-3.032-3.172-4.717c-0.281-0.562,0.159-1.908,0.711-2.375
	c1.265-1.068,0.979-1.741,0.276-3.074c-1.384-2.627-0.608-5.551,0.794-7.803c1.077-1.729,1.336-3.217,1.113-5.036
	c-0.192-1.566-0.49-3.143-0.434-4.703c0.027-0.757,0.759-1.489,1.172-2.232"/>
<path fill-rule="evenodd" clip-rule="evenodd" fill="none" stroke="#000000" stroke-width="2.2677" stroke-linecap="round" stroke-linejoin="round" stroke-miterlimit="10" d="
	M133.261,152.317c0.826-0.248,1.638-0.621,2.48-0.71c0.98-0.104,1.443-0.481,0.711-1.245c-1.228-1.28-0.841-2.19,0.253-3.269
	c0.799-0.788,1.358-1.723-0.218-2.47c-1.813-0.858-1.463-2.022-0.54-3.476c1.145-1.801,2.387-3.681,2.902-5.701
	c0.48-1.886,1.817-2.091,3.084-2.688c0.302-0.143,0.818-0.064,0.96-0.275c0.98-1.452,2.383-0.884,3.718-1.109
	c1.919-0.325,2.379,0.622,3.03,1.852c0.073,0.137,0.636,0.07,0.954,0.008c0.667-0.13,1.577-0.682,1.942-0.425
	c2.208,1.551,2.207-0.139,2.539-1.541c0.124-0.524,0.378-1.286,0.75-1.41c0.372-0.124,1.147,0.289,1.42,0.688
	c0.527,0.773,0.759,1.677,2.061,1.047c0.208-0.1,1.222,0.827,1.397,1.418c0.617,2.077,2.066,2.554,4.004,2.776
	c1.279,0.146,2.614,0.735,3.692,1.466c1.546,1.047,3.192,1.619,4.983,1.947c0.508,0.093,1.059,0.22,1.478,0.5
	c3.73,2.485,3.723,2.497,6.698-0.511c2.002-2.023,1.919-1.96,3.762,0.46c0.611,0.803,1.761,1.204,2.68,1.766
	c1.251,0.766,1.67-0.617,2.496-0.933c1.797-0.689,3.494-1.762,5.713-0.89c1.287,0.506,2.939,0.155,4.421,0.072
	c1.162-0.065,2.849-0.875,3.374-0.375c2.033,1.931,5.722-0.247,7.167,3.061c0.125,0.285,2.516,0.131,3.271-0.508
	c2.887-2.443,5.969-3.048,9.731-2.823c2.49,0.149,4.815,0.548,7.178,1.144c0.466,0.118,1.047,0.166,1.472-0.008
	c2.049-0.837,2.708,0.581,2.923,2.016c0.253,1.696,0.028,3.46,0.082,5.192c0.012,0.417,0.224,1.108,0.487,1.186
	c0.783,0.23,1.748,0.513,2.443,0.249c2.779-1.055,4.136-3.328,4.734-6.139c0.107-0.508,0.254-1.029,0.499-1.482
	c0.856-1.58,0.629-2.667-0.965-3.777c-1.659-1.155-3.596-2.487-4.375-4.21c-1.654-3.654-2.823-7.628-0.585-11.569
	c0.445-0.783,1.178-1.562,1.971-1.959c2.838-1.424,5.82-2.565,8.633-4.036c3.046-1.593,5.961-3.436,8.934-5.169"/>
<path fill-rule="evenodd" clip-rule="evenodd" fill="none" stroke="#000000" stroke-width="2.2677" stroke-linecap="round" stroke-linejoin="round" stroke-miterlimit="10" d="
	M222.432,68.596c2.158-0.043,3.167-1.487,3.97-3.217c0.544-1.172,1.064-2.373,1.787-3.431c0.183-0.27,1.241-0.256,1.64,0.012
	c0.551,0.37,0.855,1.106,1.274,1.681c0.749,1.027,1.578,1.291,2.744,0.526c0.633-0.416,1.45-0.662,2.212-0.748
	c2.274-0.255,4.318-1.708,4.924-3.749c0.106-0.357-0.049-0.864-0.237-1.223c-0.704-1.341-1.153-3.202-2.282-3.851
	c-2.085-1.198-1.699-3.192-2.445-4.81c-0.274-0.597-1.014-1.478-1.439-1.424c-2.261,0.287-1.92-1.974-2.983-2.804
	c0.331-0.413,0.58-0.959,1.004-1.217c2.768-1.677,3.325-3.886,1.188-5.42c-0.584-0.419-1.737-0.521-2.421-0.248
	c-3.714,1.488-7.779,1.96-11.227,4.32c-1.571,1.076-3.645,0.576-5.672-0.045c-2.634-0.806-5.57-1.365-8.146,0.62
	c-0.195,0.15-0.571,0.321-0.724,0.235c-2.51-1.413-4.666,0.516-6.926,0.893c-2.886,0.481-4.225,3.118-4.653,5.829
	c-0.257,1.628-0.657,3.033-2.309,3.133c-1.886,0.114-4.079,0.775-5.259-1.879c-0.882-1.985-5.181-3.295-6.838-2.203
	c-1.1,0.725-1.824,0.811-3.045,0.28c-0.905-0.392-2.098-0.341-2.503,1.386c-0.866,3.681-2.119,7.271-3.141,10.918
	c-0.489,1.746-0.173,1.948,1.966,1.481"/>
<path fill-rule="evenodd" clip-rule="evenodd" fill="none" stroke="#000000" stroke-width="2.2677" stroke-linecap="round" stroke-linejoin="round" stroke-miterlimit="10" d="
	M221.689,68.596c1.165,1.322,0.898,2.53-0.244,3.719c-2.477,2.578-2.116,4.77,0.984,6.194c0.267,0.123,0.592,0.268,0.732,0.499
	c2.212,3.656,0.474,7.583-3.701,8.417c-0.254,0.05-0.49,0.204-0.746,0.237c-3.208,0.419-3.216,0.417-2.719,3.474
	c0.195,1.2,0.392,2.185-1.215,2.796c-1.319,0.502-2.723,1.365-3.674,0.125c-1.363-1.78-2.501-0.782-4.05-0.592
	c-1.953,0.24-2.032,1.437-2.444,2.631c-0.443,1.285-0.85,2.376-2.523,1.283c-0.176-0.115-1.041,0.358-1.167,0.708
	c-0.821,2.284-1.584,4.592-2.253,6.926c-0.642,2.242-2.998,3.468-5.466,2.72"/>
<path fill-rule="evenodd" clip-rule="evenodd" fill="none" stroke="#000000" stroke-width="2.2677" stroke-linecap="round" stroke-linejoin="round" stroke-miterlimit="10" d="
	M185.773,105.255c-1.486,2.559-3.065,5.071-4.418,7.7c-0.65,1.263,0.624,4.062,1.942,4.933c1.887,1.247,1.945,1.713,0.495,3.963
	c-0.744,1.155-0.722,1.08,0.735,1.514c0.871,0.26,1.677,0.766,2.481,1.217c1.582,0.886,3.225,1.697,4.676,2.764
	c0.769,0.566,1.233,1.579,1.757,2.437c0.81,1.324,1.185,3.323,3.508,1.773c0.362-0.241,1.267-0.069,1.678,0.238
	c1.309,0.979,3.08,1.888,3.603,3.239c0.738,1.905,2.109,2.259,3.576,2.979c0.826,0.405,1.351,1.425,2.012,2.168"/>
<path fill-rule="evenodd" clip-rule="evenodd" fill="none" stroke="#000000" stroke-width="2.2677" stroke-linecap="round" stroke-linejoin="round" stroke-miterlimit="10" d="
	M117.409,85.439c-0.248,0.661-0.864,1.454-0.682,1.959c0.987,2.74-0.461,4.615-2.049,6.456c-2.144,2.485-2.97,8.336-1.454,11.139
	c0.231,0.428,0.839,0.636,1.206,1.012c0.932,0.957,1.261,1.938,1.479,3.426c0.347,2.368,1.275,5.031,3.483,6.721
	c0.328,0.251,0.725,0.442,0.979,0.753c1.27,1.551,1.062,2.099-0.979,2.716c-2.29,0.692-2.906,1.787-2.229,3.963"/>
<path fill-rule="evenodd" clip-rule="evenodd" fill="none" stroke="#000000" stroke-width="2.2677" stroke-linecap="round" stroke-linejoin="round" stroke-miterlimit="10" d="
	M126.202,92.622c-1.745-0.595-2.72-1.491-1.626-3.476c1.041-1.888-0.549-2.809-1.754-3.383c-1.239-0.592-2.849-0.971-4.153-0.713
	c-1.444,0.286-2.716-0.167-2.885-1.117c-0.408-2.306-2.108-3.346-3.574-4.69c-0.807-0.739-0.69-1.37-0.39-2.511
	c0.509-1.93,0.461-4.157,0.056-6.139c-0.476-2.331-3.96-2.886-6.304-0.944c-0.985,0.815-3.061,1.549-1.787,3.652
	c-1.238,1.073-2.458,2.17-3.721,3.213c-1.044,0.861-2.194,1.602-3.177,2.523c-0.247,0.232-0.162,1,0.004,1.431
	c0.125,0.327,0.654,0.477,0.944,0.765c1.75,1.737,1.656,3.25-0.513,4.15c-1.605,0.666-2.396,1.548-2.486,3.273
	c-0.057,1.078-0.629,1.965-1.948,1.725c-1.838-0.334-2.483,0.831-2.974,2.24"/>
<path fill-rule="evenodd" clip-rule="evenodd" fill="none" stroke="#000000" stroke-width="2.2677" stroke-linecap="round" stroke-linejoin="round" stroke-miterlimit="10" d="
	M342.317,312.826c1.734-0.249,3.466-0.521,5.204-0.731c0.65-0.078,1.587,0.271,1.937-0.058c2.383-2.246,3.883-0.449,5.494,1.034
	c0.954,0.879,0.529,1.328-0.498,1.478c-2.209,0.322-1.474,1.601-0.456,2.173c2.019,1.136,4.204,2.051,6.423,2.726
	c1.218,0.369,1.712,0.87,2.303,1.999c0.875,1.675,2.304,3.097,3.652,4.477c0.732,0.749,1.82,1.139,2.686,1.776
	c1.263,0.932,2.247,1.021,3.52-0.214c1.523-1.48,4.664-0.517,5.403,1.44c0.093,0.244,0.316,0.6,0.228,0.728
	c-1.526,2.197-0.33,4.465-0.237,6.704c0.057,1.357,0.181,2.33,1.978,2.584c0.993,0.141,1.865,1.343,2.729,2.134
	c0.558,0.51,1.003,1.144,1.498,1.722"/>
<path fill-rule="evenodd" clip-rule="evenodd" fill="none" stroke="#000000" stroke-width="2.2677" stroke-linecap="round" stroke-linejoin="round" stroke-miterlimit="10" d="
	M315.814,267.497c-2.395,4.046-4.768,8.104-7.213,12.119c-0.28,0.461-0.962,0.679-1.457,1.008"/>
<path fill-rule="evenodd" clip-rule="evenodd" fill="none" stroke="#000000" stroke-width="2.2677" stroke-linecap="round" stroke-linejoin="round" stroke-miterlimit="10" d="
	M265.284,104.759c1.546-0.023,3.063-0.231,3.516,1.972c0.375,1.816,2.176,1.842,3.393,1.417c2-0.699,3.825-1.903,5.725-2.893"/>
<path fill-rule="evenodd" clip-rule="evenodd" fill="none" stroke="#000000" stroke-width="2.2677" stroke-linecap="round" stroke-linejoin="round" stroke-miterlimit="10" d="
	M306.897,281.12c-0.221-1.816-0.51-3.7-2.257-4.656c-1.093-0.599-2.482-0.622-3.68-1.063c-1.703-0.625-2.663,0.199-3.487,1.501
	c-0.084,0.134-0.312,0.222-0.485,0.247c-2.216,0.327-3.332,1.893-2.154,3.674c1.389,2.097,0.898,2.312-1.298,2.625
	c-1.724,0.247-3.317,1.388-4.969,2.13"/>
<path fill-rule="evenodd" clip-rule="evenodd" fill="none" stroke="#000000" stroke-width="2.2677" stroke-linecap="round" stroke-linejoin="round" stroke-miterlimit="10" d="
	M231.597,202.6c-0.082,0.908-0.279,1.824-0.22,2.723c0.081,1.21-0.361,1.759-1.491,2.282c-2.297,1.063-2.223,1.199-0.528,2.931
	c1.109,1.135,2.077,2.358,3.983,2.031c0.426-0.073,1.198,0.5,1.413,0.961c0.207,0.443,0.107,1.426-0.219,1.655
	c-1.912,1.339-3.901,3.418-5.919,3.481c-1.595,0.05-2.411,0.617-3.45,1.288c-0.787,0.509-2.128,1.169-2.105,1.715
	c0.047,1.092,0.593,2.479,1.418,3.146c1.115,0.905,0.856,1.511,0.476,2.574c-0.501,1.403-1.054,2.719-0.728,4.478
	c0.228,1.222-1.299,2.771-2.042,4.175"/>
<path fill-rule="evenodd" clip-rule="evenodd" fill="none" stroke="#000000" stroke-width="2.2677" stroke-linecap="round" stroke-linejoin="round" stroke-miterlimit="10" d="
	M104.281,334.623c0.166,0.66,0.127,1.506,0.531,1.948c1.675,1.839,2.625,3.691,1.548,6.266c-0.191,0.457,0.73,1.728,1.423,2.13
	c1.433,0.833,1.646,1.835,1.229,3.286c-0.225,0.785-0.258,1.645-0.259,2.47c-0.004,2.156,0.066,2.302-1.77,3.687
	c-1.477,1.115-0.946,2.408-0.723,3.745c0.372,2.237,0.361,4.578,1.975,6.447c0.698,0.81,1.408,1.331,2.486,0.735"/>
<path fill-rule="evenodd" clip-rule="evenodd" fill="none" stroke="#000000" stroke-width="2.2677" stroke-linecap="round" stroke-linejoin="round" stroke-miterlimit="10" d="
	M255.871,99.806c0.063,3.265,2.178,5.768,3.219,8.67c0.177,0.491,0.333,0.99,0.497,1.485"/>
<path fill-rule="evenodd" clip-rule="evenodd" fill="none" stroke="#000000" stroke-width="2.2677" stroke-linecap="round" stroke-linejoin="round" stroke-miterlimit="10" d="
	M155.306,173.124c0.743,0.083,1.877-0.111,2.163,0.294c1.367,1.935,2.876,3.531,5.241,4.253c0.283,0.087,0.386,1.44,0.231,2.13
	c-0.249,1.11-0.782,2.156-1.194,3.229"/>
<path fill-rule="evenodd" clip-rule="evenodd" fill="none" stroke="#000000" stroke-width="2.2677" stroke-linecap="round" stroke-linejoin="round" stroke-miterlimit="10" d="
	M149.857,166.188c0.331,0,0.851-0.136,0.962,0.021c1.308,1.843,2.649,3.611,4.704,4.742c0.308,0.17,0.197,1.099,0.279,1.677"/>
<path fill-rule="evenodd" clip-rule="evenodd" fill="none" stroke="#000000" stroke-width="2.2677" stroke-linecap="round" stroke-linejoin="round" stroke-miterlimit="10" d="
	M249.927,183.775c-0.353,1.481-2.964,2.46-0.991,4.458c-1.074,0.413-2.146,1.118-3.221,1.121c-0.576,0.001-1.253-1.145-1.697-1.886
	c-0.277-0.462-0.073-1.202-0.331-1.687c-0.159-0.3-0.947-0.618-1.166-0.479c-1.762,1.125-3.306-1.344-4.958-0.255
	c-0.4,0.264-0.864,1.168-0.711,1.419c1.53,2.508-0.948,2.723-2.026,3.759c-0.714,0.687-1.297,1.509-1.998,2.212
	c-1.728,1.733-0.496,2.511,0.998,3.227"/>
<path fill-rule="evenodd" clip-rule="evenodd" fill="none" stroke="#000000" stroke-width="2.2677" stroke-linecap="round" stroke-linejoin="round" stroke-miterlimit="10" d="
	M186.269,105.255c1.073,0.99,2.045,2.133,3.244,2.937c1.851,1.24,3.251,0.38,3.444-1.946"/>
<path fill-rule="evenodd" clip-rule="evenodd" fill="none" stroke="#000000" stroke-width="2.2677" stroke-linecap="round" stroke-linejoin="round" stroke-miterlimit="10" d="
	M263.303,103.769c1.842,1.362,1.683,1.929,0.812,3.749c-1.427,2.979-3.985,2.765-6.509,2.939"/>
<path fill-rule="evenodd" clip-rule="evenodd" fill="none" stroke="#000000" stroke-width="2.2677" stroke-linecap="round" stroke-linejoin="round" stroke-miterlimit="10" d="
	M263.055,240.002c2.449,0.596,4.576,1.729,6.192,3.716"/>
<path fill-rule="evenodd" clip-rule="evenodd" fill="none" stroke="#000000" stroke-width="2.2677" stroke-linecap="round" stroke-linejoin="round" stroke-miterlimit="10" d="
	M150.353,165.941c-0.731-2.809-1.559-3.329-4.214-2.737c-0.725,0.162-1.483,0.177-2.227,0.26"/>
<path fill-rule="evenodd" clip-rule="evenodd" fill="none" stroke="#000000" stroke-width="2.2677" stroke-linecap="round" stroke-linejoin="round" stroke-miterlimit="10" d="
	M233.579,195.912c-0.578,0.413-1.121,0.893-1.741,1.225c-1.456,0.777-1.57,2.072-1.48,3.481c0.101,1.573,1.361,1.84,2.481,1.934
	c1.167,0.098,2.751,1.618,3.464-0.695"/>
<path fill-rule="evenodd" clip-rule="evenodd" fill="none" stroke="#000000" stroke-width="2.2677" stroke-linecap="round" stroke-linejoin="round" stroke-miterlimit="10" d="
	M289.312,293.505c0.907,0.743,1.815,1.486,2.725,2.229"/>
<path fill-rule="evenodd" clip-rule="evenodd" fill="none" stroke="#000000" stroke-width="2.2677" stroke-linecap="round" stroke-linejoin="round" stroke-miterlimit="10" d="
	M162.49,77.018c0.66,0.825,1.321,1.651,1.981,2.477"/>
<path fill-rule="evenodd" clip-rule="evenodd" fill="none" stroke="#000000" stroke-width="2.2677" stroke-linecap="round" stroke-linejoin="round" stroke-miterlimit="10" d="
	M111.711,362.365c-0.362,1.651-0.465,3.303,0,4.954"/>
</svg>
