G04 #@! TF.GenerationSoftware,KiCad,Pcbnew,(5.1.9)-1*
G04 #@! TF.CreationDate,2021-02-28T22:53:05+01:00*
G04 #@! TF.ProjectId,DPCM-map,4450434d-2d6d-4617-902e-6b696361645f,rev?*
G04 #@! TF.SameCoordinates,Original*
G04 #@! TF.FileFunction,Soldermask,Bot*
G04 #@! TF.FilePolarity,Negative*
%FSLAX46Y46*%
G04 Gerber Fmt 4.6, Leading zero omitted, Abs format (unit mm)*
G04 Created by KiCad (PCBNEW (5.1.9)-1) date 2021-02-28 22:53:05*
%MOMM*%
%LPD*%
G01*
G04 APERTURE LIST*
%ADD10O,1.802000X1.802000*%
%ADD11C,1.002000*%
%ADD12C,8.102000*%
%ADD13C,2.202000*%
%ADD14C,1.852000*%
%ADD15O,2.202000X1.102000*%
%ADD16C,0.752000*%
%ADD17O,1.702000X1.102000*%
%ADD18C,0.100000*%
G04 APERTURE END LIST*
G36*
G01*
X185174000Y-187190000D02*
X185174000Y-186840000D01*
G75*
G02*
X185225000Y-186789000I51000J0D01*
G01*
X185725000Y-186789000D01*
G75*
G02*
X185776000Y-186840000I0J-51000D01*
G01*
X185776000Y-187190000D01*
G75*
G02*
X185725000Y-187241000I-51000J0D01*
G01*
X185225000Y-187241000D01*
G75*
G02*
X185174000Y-187190000I0J51000D01*
G01*
G37*
G36*
G01*
X185174000Y-187840000D02*
X185174000Y-187490000D01*
G75*
G02*
X185225000Y-187439000I51000J0D01*
G01*
X185725000Y-187439000D01*
G75*
G02*
X185776000Y-187490000I0J-51000D01*
G01*
X185776000Y-187840000D01*
G75*
G02*
X185725000Y-187891000I-51000J0D01*
G01*
X185225000Y-187891000D01*
G75*
G02*
X185174000Y-187840000I0J51000D01*
G01*
G37*
G36*
G01*
X185174000Y-188490000D02*
X185174000Y-188140000D01*
G75*
G02*
X185225000Y-188089000I51000J0D01*
G01*
X185725000Y-188089000D01*
G75*
G02*
X185776000Y-188140000I0J-51000D01*
G01*
X185776000Y-188490000D01*
G75*
G02*
X185725000Y-188541000I-51000J0D01*
G01*
X185225000Y-188541000D01*
G75*
G02*
X185174000Y-188490000I0J51000D01*
G01*
G37*
G36*
G01*
X185174000Y-189140000D02*
X185174000Y-188790000D01*
G75*
G02*
X185225000Y-188739000I51000J0D01*
G01*
X185725000Y-188739000D01*
G75*
G02*
X185776000Y-188790000I0J-51000D01*
G01*
X185776000Y-189140000D01*
G75*
G02*
X185725000Y-189191000I-51000J0D01*
G01*
X185225000Y-189191000D01*
G75*
G02*
X185174000Y-189140000I0J51000D01*
G01*
G37*
G36*
G01*
X187224000Y-189140000D02*
X187224000Y-188790000D01*
G75*
G02*
X187275000Y-188739000I51000J0D01*
G01*
X187775000Y-188739000D01*
G75*
G02*
X187826000Y-188790000I0J-51000D01*
G01*
X187826000Y-189140000D01*
G75*
G02*
X187775000Y-189191000I-51000J0D01*
G01*
X187275000Y-189191000D01*
G75*
G02*
X187224000Y-189140000I0J51000D01*
G01*
G37*
G36*
G01*
X187224000Y-188490000D02*
X187224000Y-188140000D01*
G75*
G02*
X187275000Y-188089000I51000J0D01*
G01*
X187775000Y-188089000D01*
G75*
G02*
X187826000Y-188140000I0J-51000D01*
G01*
X187826000Y-188490000D01*
G75*
G02*
X187775000Y-188541000I-51000J0D01*
G01*
X187275000Y-188541000D01*
G75*
G02*
X187224000Y-188490000I0J51000D01*
G01*
G37*
G36*
G01*
X187224000Y-187840000D02*
X187224000Y-187490000D01*
G75*
G02*
X187275000Y-187439000I51000J0D01*
G01*
X187775000Y-187439000D01*
G75*
G02*
X187826000Y-187490000I0J-51000D01*
G01*
X187826000Y-187840000D01*
G75*
G02*
X187775000Y-187891000I-51000J0D01*
G01*
X187275000Y-187891000D01*
G75*
G02*
X187224000Y-187840000I0J51000D01*
G01*
G37*
G36*
G01*
X187224000Y-187190000D02*
X187224000Y-186840000D01*
G75*
G02*
X187275000Y-186789000I51000J0D01*
G01*
X187775000Y-186789000D01*
G75*
G02*
X187826000Y-186840000I0J-51000D01*
G01*
X187826000Y-187190000D01*
G75*
G02*
X187775000Y-187241000I-51000J0D01*
G01*
X187275000Y-187241000D01*
G75*
G02*
X187224000Y-187190000I0J51000D01*
G01*
G37*
D10*
X137160000Y-55880000D03*
X134620000Y-55880000D03*
G36*
G01*
X132930000Y-56781000D02*
X131230000Y-56781000D01*
G75*
G02*
X131179000Y-56730000I0J51000D01*
G01*
X131179000Y-55030000D01*
G75*
G02*
X131230000Y-54979000I51000J0D01*
G01*
X132930000Y-54979000D01*
G75*
G02*
X132981000Y-55030000I0J-51000D01*
G01*
X132981000Y-56730000D01*
G75*
G02*
X132930000Y-56781000I-51000J0D01*
G01*
G37*
X185420000Y-55880000D03*
X182880000Y-55880000D03*
G36*
G01*
X181190000Y-56781000D02*
X179490000Y-56781000D01*
G75*
G02*
X179439000Y-56730000I0J51000D01*
G01*
X179439000Y-55030000D01*
G75*
G02*
X179490000Y-54979000I51000J0D01*
G01*
X181190000Y-54979000D01*
G75*
G02*
X181241000Y-55030000I0J-51000D01*
G01*
X181241000Y-56730000D01*
G75*
G02*
X181190000Y-56781000I-51000J0D01*
G01*
G37*
G36*
G01*
X237070000Y-56781000D02*
X235370000Y-56781000D01*
G75*
G02*
X235319000Y-56730000I0J51000D01*
G01*
X235319000Y-55030000D01*
G75*
G02*
X235370000Y-54979000I51000J0D01*
G01*
X237070000Y-54979000D01*
G75*
G02*
X237121000Y-55030000I0J-51000D01*
G01*
X237121000Y-56730000D01*
G75*
G02*
X237070000Y-56781000I-51000J0D01*
G01*
G37*
X238760000Y-55880000D03*
X241300000Y-55880000D03*
D11*
X280621320Y-215948680D03*
X278500000Y-215070000D03*
X276378680Y-215948680D03*
X275500000Y-218070000D03*
X276378680Y-220191320D03*
X278500000Y-221070000D03*
X280621320Y-220191320D03*
X281500000Y-218070000D03*
D12*
X278500000Y-218070000D03*
D11*
X280621320Y-57878680D03*
X278500000Y-57000000D03*
X276378680Y-57878680D03*
X275500000Y-60000000D03*
X276378680Y-62121320D03*
X278500000Y-63000000D03*
X280621320Y-62121320D03*
X281500000Y-60000000D03*
D12*
X278500000Y-60000000D03*
D11*
X122641320Y-215948680D03*
X120520000Y-215070000D03*
X118398680Y-215948680D03*
X117520000Y-218070000D03*
X118398680Y-220191320D03*
X120520000Y-221070000D03*
X122641320Y-220191320D03*
X123520000Y-218070000D03*
D12*
X120520000Y-218070000D03*
D11*
X122641320Y-57878680D03*
X120520000Y-57000000D03*
X118398680Y-57878680D03*
X117520000Y-60000000D03*
X118398680Y-62121320D03*
X120520000Y-63000000D03*
X122641320Y-62121320D03*
X123520000Y-60000000D03*
D12*
X120520000Y-60000000D03*
D10*
X176700000Y-199750000D03*
X174160000Y-199750000D03*
X171620000Y-199750000D03*
X169080000Y-199750000D03*
X166540000Y-199750000D03*
G36*
G01*
X164850000Y-200651000D02*
X163150000Y-200651000D01*
G75*
G02*
X163099000Y-200600000I0J51000D01*
G01*
X163099000Y-198900000D01*
G75*
G02*
X163150000Y-198849000I51000J0D01*
G01*
X164850000Y-198849000D01*
G75*
G02*
X164901000Y-198900000I0J-51000D01*
G01*
X164901000Y-200600000D01*
G75*
G02*
X164850000Y-200651000I-51000J0D01*
G01*
G37*
D13*
X142250000Y-58340000D03*
D14*
X143500000Y-55850000D03*
X148000000Y-55850000D03*
D13*
X149260000Y-58340000D03*
X195750000Y-58340000D03*
D14*
X197000000Y-55850000D03*
X201500000Y-55850000D03*
D13*
X202760000Y-58340000D03*
X249250000Y-58340000D03*
D14*
X250500000Y-55850000D03*
X255000000Y-55850000D03*
D13*
X256260000Y-58340000D03*
X117990000Y-179850000D03*
D14*
X115500000Y-178600000D03*
X115500000Y-174100000D03*
D13*
X117990000Y-172840000D03*
D10*
X173260000Y-142130000D03*
G36*
G01*
X174161000Y-143820000D02*
X174161000Y-145520000D01*
G75*
G02*
X174110000Y-145571000I-51000J0D01*
G01*
X172410000Y-145571000D01*
G75*
G02*
X172359000Y-145520000I0J51000D01*
G01*
X172359000Y-143820000D01*
G75*
G02*
X172410000Y-143769000I51000J0D01*
G01*
X174110000Y-143769000D01*
G75*
G02*
X174161000Y-143820000I0J-51000D01*
G01*
G37*
D15*
X116630000Y-201120000D03*
X116630000Y-192480000D03*
D16*
X116100000Y-193910000D03*
D17*
X112450000Y-192480000D03*
D16*
X116100000Y-199690000D03*
D17*
X112450000Y-201120000D03*
D10*
X146100000Y-186095000D03*
G36*
G01*
X144410000Y-186996000D02*
X142710000Y-186996000D01*
G75*
G02*
X142659000Y-186945000I0J51000D01*
G01*
X142659000Y-185245000D01*
G75*
G02*
X142710000Y-185194000I51000J0D01*
G01*
X144410000Y-185194000D01*
G75*
G02*
X144461000Y-185245000I0J-51000D01*
G01*
X144461000Y-186945000D01*
G75*
G02*
X144410000Y-186996000I-51000J0D01*
G01*
G37*
G36*
G01*
X131674000Y-54066002D02*
X131674000Y-51933998D01*
G75*
G02*
X131933998Y-51674000I259998J0D01*
G01*
X134066002Y-51674000D01*
G75*
G02*
X134326000Y-51933998I0J-259998D01*
G01*
X134326000Y-54066002D01*
G75*
G02*
X134066002Y-54326000I-259998J0D01*
G01*
X131933998Y-54326000D01*
G75*
G02*
X131674000Y-54066002I0J259998D01*
G01*
G37*
G36*
G01*
X179674000Y-54066002D02*
X179674000Y-51933998D01*
G75*
G02*
X179933998Y-51674000I259998J0D01*
G01*
X182066002Y-51674000D01*
G75*
G02*
X182326000Y-51933998I0J-259998D01*
G01*
X182326000Y-54066002D01*
G75*
G02*
X182066002Y-54326000I-259998J0D01*
G01*
X179933998Y-54326000D01*
G75*
G02*
X179674000Y-54066002I0J259998D01*
G01*
G37*
G36*
G01*
X234674000Y-54066002D02*
X234674000Y-51933998D01*
G75*
G02*
X234933998Y-51674000I259998J0D01*
G01*
X237066002Y-51674000D01*
G75*
G02*
X237326000Y-51933998I0J-259998D01*
G01*
X237326000Y-54066002D01*
G75*
G02*
X237066002Y-54326000I-259998J0D01*
G01*
X234933998Y-54326000D01*
G75*
G02*
X234674000Y-54066002I0J259998D01*
G01*
G37*
X125630000Y-192980000D03*
X128170000Y-192980000D03*
X130710000Y-192980000D03*
X133250000Y-192980000D03*
X135790000Y-192980000D03*
G36*
G01*
X137480000Y-192079000D02*
X139180000Y-192079000D01*
G75*
G02*
X139231000Y-192130000I0J-51000D01*
G01*
X139231000Y-193830000D01*
G75*
G02*
X139180000Y-193881000I-51000J0D01*
G01*
X137480000Y-193881000D01*
G75*
G02*
X137429000Y-193830000I0J51000D01*
G01*
X137429000Y-192130000D01*
G75*
G02*
X137480000Y-192079000I51000J0D01*
G01*
G37*
X135260000Y-186135000D03*
G36*
G01*
X133570000Y-187036000D02*
X131870000Y-187036000D01*
G75*
G02*
X131819000Y-186985000I0J51000D01*
G01*
X131819000Y-185285000D01*
G75*
G02*
X131870000Y-185234000I51000J0D01*
G01*
X133570000Y-185234000D01*
G75*
G02*
X133621000Y-185285000I0J-51000D01*
G01*
X133621000Y-186985000D01*
G75*
G02*
X133570000Y-187036000I-51000J0D01*
G01*
G37*
D18*
G36*
X187827732Y-188540000D02*
G01*
X187828000Y-188541000D01*
X187828000Y-188739000D01*
X187827000Y-188740732D01*
X187826000Y-188741000D01*
X187224000Y-188741000D01*
X187222268Y-188740000D01*
X187222000Y-188739000D01*
X187222000Y-188541000D01*
X187223000Y-188539268D01*
X187224000Y-188539000D01*
X187826000Y-188539000D01*
X187827732Y-188540000D01*
G37*
G36*
X185777732Y-188540000D02*
G01*
X185778000Y-188541000D01*
X185778000Y-188739000D01*
X185777000Y-188740732D01*
X185776000Y-188741000D01*
X185174000Y-188741000D01*
X185172268Y-188740000D01*
X185172000Y-188739000D01*
X185172000Y-188541000D01*
X185173000Y-188539268D01*
X185174000Y-188539000D01*
X185776000Y-188539000D01*
X185777732Y-188540000D01*
G37*
G36*
X185777732Y-187890000D02*
G01*
X185778000Y-187891000D01*
X185778000Y-188089000D01*
X185777000Y-188090732D01*
X185776000Y-188091000D01*
X185174000Y-188091000D01*
X185172268Y-188090000D01*
X185172000Y-188089000D01*
X185172000Y-187891000D01*
X185173000Y-187889268D01*
X185174000Y-187889000D01*
X185776000Y-187889000D01*
X185777732Y-187890000D01*
G37*
G36*
X187827732Y-187890000D02*
G01*
X187828000Y-187891000D01*
X187828000Y-188089000D01*
X187827000Y-188090732D01*
X187826000Y-188091000D01*
X187224000Y-188091000D01*
X187222268Y-188090000D01*
X187222000Y-188089000D01*
X187222000Y-187891000D01*
X187223000Y-187889268D01*
X187224000Y-187889000D01*
X187826000Y-187889000D01*
X187827732Y-187890000D01*
G37*
G36*
X185777732Y-187240000D02*
G01*
X185778000Y-187241000D01*
X185778000Y-187439000D01*
X185777000Y-187440732D01*
X185776000Y-187441000D01*
X185174000Y-187441000D01*
X185172268Y-187440000D01*
X185172000Y-187439000D01*
X185172000Y-187241000D01*
X185173000Y-187239268D01*
X185174000Y-187239000D01*
X185776000Y-187239000D01*
X185777732Y-187240000D01*
G37*
G36*
X187827732Y-187240000D02*
G01*
X187828000Y-187241000D01*
X187828000Y-187439000D01*
X187827000Y-187440732D01*
X187826000Y-187441000D01*
X187224000Y-187441000D01*
X187222268Y-187440000D01*
X187222000Y-187439000D01*
X187222000Y-187241000D01*
X187223000Y-187239268D01*
X187224000Y-187239000D01*
X187826000Y-187239000D01*
X187827732Y-187240000D01*
G37*
G36*
X179675990Y-54065806D02*
G01*
X179680966Y-54116330D01*
X179695648Y-54164730D01*
X179719489Y-54209333D01*
X179751573Y-54248427D01*
X179790667Y-54280511D01*
X179835270Y-54304352D01*
X179883670Y-54319034D01*
X179934194Y-54324010D01*
X179935820Y-54325175D01*
X179935624Y-54327165D01*
X179933998Y-54328000D01*
X179839650Y-54328000D01*
X179839454Y-54327990D01*
X179802314Y-54324332D01*
X179801929Y-54324256D01*
X179772117Y-54315213D01*
X179771755Y-54315063D01*
X179744282Y-54300378D01*
X179743956Y-54300160D01*
X179719877Y-54280400D01*
X179719600Y-54280123D01*
X179699840Y-54256044D01*
X179699622Y-54255718D01*
X179684937Y-54228245D01*
X179684787Y-54227883D01*
X179675744Y-54198071D01*
X179675668Y-54197686D01*
X179672010Y-54160546D01*
X179672000Y-54160350D01*
X179672000Y-54066002D01*
X179673000Y-54064270D01*
X179675000Y-54064270D01*
X179675990Y-54065806D01*
G37*
G36*
X134327165Y-54064376D02*
G01*
X134328000Y-54066002D01*
X134328000Y-54160350D01*
X134327990Y-54160546D01*
X134324332Y-54197686D01*
X134324256Y-54198071D01*
X134315213Y-54227883D01*
X134315063Y-54228245D01*
X134300378Y-54255718D01*
X134300160Y-54256044D01*
X134280400Y-54280123D01*
X134280123Y-54280400D01*
X134256044Y-54300160D01*
X134255718Y-54300378D01*
X134228245Y-54315063D01*
X134227883Y-54315213D01*
X134198071Y-54324256D01*
X134197686Y-54324332D01*
X134160546Y-54327990D01*
X134160350Y-54328000D01*
X134066002Y-54328000D01*
X134064270Y-54327000D01*
X134064270Y-54325000D01*
X134065806Y-54324010D01*
X134116330Y-54319034D01*
X134164730Y-54304352D01*
X134209333Y-54280511D01*
X134248427Y-54248427D01*
X134280511Y-54209333D01*
X134304352Y-54164730D01*
X134319034Y-54116330D01*
X134324010Y-54065806D01*
X134325175Y-54064180D01*
X134327165Y-54064376D01*
G37*
G36*
X131675990Y-54065806D02*
G01*
X131680966Y-54116330D01*
X131695648Y-54164730D01*
X131719489Y-54209333D01*
X131751573Y-54248427D01*
X131790667Y-54280511D01*
X131835270Y-54304352D01*
X131883670Y-54319034D01*
X131934194Y-54324010D01*
X131935820Y-54325175D01*
X131935624Y-54327165D01*
X131933998Y-54328000D01*
X131839650Y-54328000D01*
X131839454Y-54327990D01*
X131802314Y-54324332D01*
X131801929Y-54324256D01*
X131772117Y-54315213D01*
X131771755Y-54315063D01*
X131744282Y-54300378D01*
X131743956Y-54300160D01*
X131719877Y-54280400D01*
X131719600Y-54280123D01*
X131699840Y-54256044D01*
X131699622Y-54255718D01*
X131684937Y-54228245D01*
X131684787Y-54227883D01*
X131675744Y-54198071D01*
X131675668Y-54197686D01*
X131672010Y-54160546D01*
X131672000Y-54160350D01*
X131672000Y-54066002D01*
X131673000Y-54064270D01*
X131675000Y-54064270D01*
X131675990Y-54065806D01*
G37*
G36*
X237327165Y-54064376D02*
G01*
X237328000Y-54066002D01*
X237328000Y-54160350D01*
X237327990Y-54160546D01*
X237324332Y-54197686D01*
X237324256Y-54198071D01*
X237315213Y-54227883D01*
X237315063Y-54228245D01*
X237300378Y-54255718D01*
X237300160Y-54256044D01*
X237280400Y-54280123D01*
X237280123Y-54280400D01*
X237256044Y-54300160D01*
X237255718Y-54300378D01*
X237228245Y-54315063D01*
X237227883Y-54315213D01*
X237198071Y-54324256D01*
X237197686Y-54324332D01*
X237160546Y-54327990D01*
X237160350Y-54328000D01*
X237066002Y-54328000D01*
X237064270Y-54327000D01*
X237064270Y-54325000D01*
X237065806Y-54324010D01*
X237116330Y-54319034D01*
X237164730Y-54304352D01*
X237209333Y-54280511D01*
X237248427Y-54248427D01*
X237280511Y-54209333D01*
X237304352Y-54164730D01*
X237319034Y-54116330D01*
X237324010Y-54065806D01*
X237325175Y-54064180D01*
X237327165Y-54064376D01*
G37*
G36*
X234675990Y-54065806D02*
G01*
X234680966Y-54116330D01*
X234695648Y-54164730D01*
X234719489Y-54209333D01*
X234751573Y-54248427D01*
X234790667Y-54280511D01*
X234835270Y-54304352D01*
X234883670Y-54319034D01*
X234934194Y-54324010D01*
X234935820Y-54325175D01*
X234935624Y-54327165D01*
X234933998Y-54328000D01*
X234839650Y-54328000D01*
X234839454Y-54327990D01*
X234802314Y-54324332D01*
X234801929Y-54324256D01*
X234772117Y-54315213D01*
X234771755Y-54315063D01*
X234744282Y-54300378D01*
X234743956Y-54300160D01*
X234719877Y-54280400D01*
X234719600Y-54280123D01*
X234699840Y-54256044D01*
X234699622Y-54255718D01*
X234684937Y-54228245D01*
X234684787Y-54227883D01*
X234675744Y-54198071D01*
X234675668Y-54197686D01*
X234672010Y-54160546D01*
X234672000Y-54160350D01*
X234672000Y-54066002D01*
X234673000Y-54064270D01*
X234675000Y-54064270D01*
X234675990Y-54065806D01*
G37*
G36*
X182327165Y-54064376D02*
G01*
X182328000Y-54066002D01*
X182328000Y-54160350D01*
X182327990Y-54160546D01*
X182324332Y-54197686D01*
X182324256Y-54198071D01*
X182315213Y-54227883D01*
X182315063Y-54228245D01*
X182300378Y-54255718D01*
X182300160Y-54256044D01*
X182280400Y-54280123D01*
X182280123Y-54280400D01*
X182256044Y-54300160D01*
X182255718Y-54300378D01*
X182228245Y-54315063D01*
X182227883Y-54315213D01*
X182198071Y-54324256D01*
X182197686Y-54324332D01*
X182160546Y-54327990D01*
X182160350Y-54328000D01*
X182066002Y-54328000D01*
X182064270Y-54327000D01*
X182064270Y-54325000D01*
X182065806Y-54324010D01*
X182116330Y-54319034D01*
X182164730Y-54304352D01*
X182209333Y-54280511D01*
X182248427Y-54248427D01*
X182280511Y-54209333D01*
X182304352Y-54164730D01*
X182319034Y-54116330D01*
X182324010Y-54065806D01*
X182325175Y-54064180D01*
X182327165Y-54064376D01*
G37*
G36*
X131935730Y-51673000D02*
G01*
X131935730Y-51675000D01*
X131934194Y-51675990D01*
X131883670Y-51680966D01*
X131835270Y-51695648D01*
X131790667Y-51719489D01*
X131751573Y-51751573D01*
X131719489Y-51790667D01*
X131695648Y-51835270D01*
X131680966Y-51883670D01*
X131675990Y-51934194D01*
X131674825Y-51935820D01*
X131672835Y-51935624D01*
X131672000Y-51933998D01*
X131672000Y-51839650D01*
X131672010Y-51839454D01*
X131675668Y-51802314D01*
X131675744Y-51801929D01*
X131684787Y-51772117D01*
X131684937Y-51771755D01*
X131699622Y-51744282D01*
X131699840Y-51743956D01*
X131719600Y-51719877D01*
X131719877Y-51719600D01*
X131743956Y-51699840D01*
X131744282Y-51699622D01*
X131771755Y-51684937D01*
X131772117Y-51684787D01*
X131801929Y-51675744D01*
X131802314Y-51675668D01*
X131839454Y-51672010D01*
X131839650Y-51672000D01*
X131933998Y-51672000D01*
X131935730Y-51673000D01*
G37*
G36*
X179935730Y-51673000D02*
G01*
X179935730Y-51675000D01*
X179934194Y-51675990D01*
X179883670Y-51680966D01*
X179835270Y-51695648D01*
X179790667Y-51719489D01*
X179751573Y-51751573D01*
X179719489Y-51790667D01*
X179695648Y-51835270D01*
X179680966Y-51883670D01*
X179675990Y-51934194D01*
X179674825Y-51935820D01*
X179672835Y-51935624D01*
X179672000Y-51933998D01*
X179672000Y-51839650D01*
X179672010Y-51839454D01*
X179675668Y-51802314D01*
X179675744Y-51801929D01*
X179684787Y-51772117D01*
X179684937Y-51771755D01*
X179699622Y-51744282D01*
X179699840Y-51743956D01*
X179719600Y-51719877D01*
X179719877Y-51719600D01*
X179743956Y-51699840D01*
X179744282Y-51699622D01*
X179771755Y-51684937D01*
X179772117Y-51684787D01*
X179801929Y-51675744D01*
X179802314Y-51675668D01*
X179839454Y-51672010D01*
X179839650Y-51672000D01*
X179933998Y-51672000D01*
X179935730Y-51673000D01*
G37*
G36*
X234935730Y-51673000D02*
G01*
X234935730Y-51675000D01*
X234934194Y-51675990D01*
X234883670Y-51680966D01*
X234835270Y-51695648D01*
X234790667Y-51719489D01*
X234751573Y-51751573D01*
X234719489Y-51790667D01*
X234695648Y-51835270D01*
X234680966Y-51883670D01*
X234675990Y-51934194D01*
X234674825Y-51935820D01*
X234672835Y-51935624D01*
X234672000Y-51933998D01*
X234672000Y-51839650D01*
X234672010Y-51839454D01*
X234675668Y-51802314D01*
X234675744Y-51801929D01*
X234684787Y-51772117D01*
X234684937Y-51771755D01*
X234699622Y-51744282D01*
X234699840Y-51743956D01*
X234719600Y-51719877D01*
X234719877Y-51719600D01*
X234743956Y-51699840D01*
X234744282Y-51699622D01*
X234771755Y-51684937D01*
X234772117Y-51684787D01*
X234801929Y-51675744D01*
X234802314Y-51675668D01*
X234839454Y-51672010D01*
X234839650Y-51672000D01*
X234933998Y-51672000D01*
X234935730Y-51673000D01*
G37*
G36*
X134160546Y-51672010D02*
G01*
X134197686Y-51675668D01*
X134198071Y-51675744D01*
X134227883Y-51684787D01*
X134228245Y-51684937D01*
X134255718Y-51699622D01*
X134256044Y-51699840D01*
X134280123Y-51719600D01*
X134280400Y-51719877D01*
X134300160Y-51743956D01*
X134300378Y-51744282D01*
X134315063Y-51771755D01*
X134315213Y-51772117D01*
X134324256Y-51801929D01*
X134324332Y-51802314D01*
X134327990Y-51839454D01*
X134328000Y-51839650D01*
X134328000Y-51933998D01*
X134327000Y-51935730D01*
X134325000Y-51935730D01*
X134324010Y-51934194D01*
X134319034Y-51883670D01*
X134304352Y-51835270D01*
X134280511Y-51790667D01*
X134248427Y-51751573D01*
X134209333Y-51719489D01*
X134164730Y-51695648D01*
X134116330Y-51680966D01*
X134065806Y-51675990D01*
X134064180Y-51674825D01*
X134064376Y-51672835D01*
X134066002Y-51672000D01*
X134160350Y-51672000D01*
X134160546Y-51672010D01*
G37*
G36*
X182160546Y-51672010D02*
G01*
X182197686Y-51675668D01*
X182198071Y-51675744D01*
X182227883Y-51684787D01*
X182228245Y-51684937D01*
X182255718Y-51699622D01*
X182256044Y-51699840D01*
X182280123Y-51719600D01*
X182280400Y-51719877D01*
X182300160Y-51743956D01*
X182300378Y-51744282D01*
X182315063Y-51771755D01*
X182315213Y-51772117D01*
X182324256Y-51801929D01*
X182324332Y-51802314D01*
X182327990Y-51839454D01*
X182328000Y-51839650D01*
X182328000Y-51933998D01*
X182327000Y-51935730D01*
X182325000Y-51935730D01*
X182324010Y-51934194D01*
X182319034Y-51883670D01*
X182304352Y-51835270D01*
X182280511Y-51790667D01*
X182248427Y-51751573D01*
X182209333Y-51719489D01*
X182164730Y-51695648D01*
X182116330Y-51680966D01*
X182065806Y-51675990D01*
X182064180Y-51674825D01*
X182064376Y-51672835D01*
X182066002Y-51672000D01*
X182160350Y-51672000D01*
X182160546Y-51672010D01*
G37*
G36*
X237160546Y-51672010D02*
G01*
X237197686Y-51675668D01*
X237198071Y-51675744D01*
X237227883Y-51684787D01*
X237228245Y-51684937D01*
X237255718Y-51699622D01*
X237256044Y-51699840D01*
X237280123Y-51719600D01*
X237280400Y-51719877D01*
X237300160Y-51743956D01*
X237300378Y-51744282D01*
X237315063Y-51771755D01*
X237315213Y-51772117D01*
X237324256Y-51801929D01*
X237324332Y-51802314D01*
X237327990Y-51839454D01*
X237328000Y-51839650D01*
X237328000Y-51933998D01*
X237327000Y-51935730D01*
X237325000Y-51935730D01*
X237324010Y-51934194D01*
X237319034Y-51883670D01*
X237304352Y-51835270D01*
X237280511Y-51790667D01*
X237248427Y-51751573D01*
X237209333Y-51719489D01*
X237164730Y-51695648D01*
X237116330Y-51680966D01*
X237065806Y-51675990D01*
X237064180Y-51674825D01*
X237064376Y-51672835D01*
X237066002Y-51672000D01*
X237160350Y-51672000D01*
X237160546Y-51672010D01*
G37*
M02*
