G04 #@! TF.GenerationSoftware,KiCad,Pcbnew,(5.1.9)-1*
G04 #@! TF.CreationDate,2021-02-28T22:53:04+01:00*
G04 #@! TF.ProjectId,DPCM-map,4450434d-2d6d-4617-902e-6b696361645f,rev?*
G04 #@! TF.SameCoordinates,Original*
G04 #@! TF.FileFunction,Paste,Top*
G04 #@! TF.FilePolarity,Positive*
%FSLAX46Y46*%
G04 Gerber Fmt 4.6, Leading zero omitted, Abs format (unit mm)*
G04 Created by KiCad (PCBNEW (5.1.9)-1) date 2021-02-28 22:53:04*
%MOMM*%
%LPD*%
G01*
G04 APERTURE LIST*
%ADD10R,1.200000X0.600000*%
%ADD11C,0.100000*%
%ADD12R,1.200000X0.900000*%
%ADD13R,1.400000X1.200000*%
%ADD14R,0.900000X2.000000*%
%ADD15R,2.000000X0.900000*%
%ADD16R,5.000000X5.000000*%
%ADD17R,1.500000X2.000000*%
%ADD18R,3.800000X2.000000*%
%ADD19R,0.900000X0.800000*%
%ADD20R,1.450000X0.600000*%
%ADD21R,1.450000X0.300000*%
G04 APERTURE END LIST*
D10*
X215430000Y-207470000D03*
X215430000Y-206370000D03*
X215430000Y-205270000D03*
X218430000Y-205270000D03*
X218430000Y-206370000D03*
X218430000Y-207470000D03*
X245370000Y-180940000D03*
X245370000Y-182040000D03*
X245370000Y-183140000D03*
X242370000Y-183140000D03*
X242370000Y-182040000D03*
X242370000Y-180940000D03*
X241220000Y-162960000D03*
X241220000Y-164060000D03*
X241220000Y-165160000D03*
X238220000Y-165160000D03*
X238220000Y-164060000D03*
X238220000Y-162960000D03*
X258180000Y-161730000D03*
X258180000Y-162830000D03*
X258180000Y-163930000D03*
X255180000Y-163930000D03*
X255180000Y-162830000D03*
X255180000Y-161730000D03*
X236650000Y-148720000D03*
X236650000Y-149820000D03*
X236650000Y-150920000D03*
X233650000Y-150920000D03*
X233650000Y-149820000D03*
X233650000Y-148720000D03*
X225260000Y-155140000D03*
X225260000Y-156240000D03*
X225260000Y-157340000D03*
X222260000Y-157340000D03*
X222260000Y-156240000D03*
X222260000Y-155140000D03*
X222440000Y-145200000D03*
X222440000Y-146300000D03*
X222440000Y-147400000D03*
X219440000Y-147400000D03*
X219440000Y-146300000D03*
X219440000Y-145200000D03*
X215140000Y-135660000D03*
X215140000Y-136760000D03*
X215140000Y-137860000D03*
X212140000Y-137860000D03*
X212140000Y-136760000D03*
X212140000Y-135660000D03*
X160770000Y-166580000D03*
X160770000Y-167680000D03*
X160770000Y-168780000D03*
X157770000Y-168780000D03*
X157770000Y-167680000D03*
X157770000Y-166580000D03*
X199400000Y-140400000D03*
X199400000Y-141500000D03*
X199400000Y-142600000D03*
X196400000Y-142600000D03*
X196400000Y-141500000D03*
X196400000Y-140400000D03*
X199790000Y-125670000D03*
X199790000Y-126770000D03*
X199790000Y-127870000D03*
X196790000Y-127870000D03*
X196790000Y-126770000D03*
X196790000Y-125670000D03*
X208020000Y-119140000D03*
X208020000Y-120240000D03*
X208020000Y-121340000D03*
X205020000Y-121340000D03*
X205020000Y-120240000D03*
X205020000Y-119140000D03*
X184100000Y-98970000D03*
X184100000Y-100070000D03*
X184100000Y-101170000D03*
X181100000Y-101170000D03*
X181100000Y-100070000D03*
X181100000Y-98970000D03*
X191850000Y-83210000D03*
X191850000Y-84310000D03*
X191850000Y-85410000D03*
X188850000Y-85410000D03*
X188850000Y-84310000D03*
X188850000Y-83210000D03*
X205790000Y-72990000D03*
X205790000Y-74090000D03*
X205790000Y-75190000D03*
X202790000Y-75190000D03*
X202790000Y-74090000D03*
X202790000Y-72990000D03*
X181440000Y-73360000D03*
X181440000Y-72260000D03*
X181440000Y-71160000D03*
X184440000Y-71160000D03*
X184440000Y-72260000D03*
X184440000Y-73360000D03*
X164530000Y-83240000D03*
X164530000Y-82140000D03*
X164530000Y-81040000D03*
X167530000Y-81040000D03*
X167530000Y-82140000D03*
X167530000Y-83240000D03*
X138480000Y-82720000D03*
X138480000Y-81620000D03*
X138480000Y-80520000D03*
X141480000Y-80520000D03*
X141480000Y-81620000D03*
X141480000Y-82720000D03*
X144650000Y-94210000D03*
X144650000Y-93110000D03*
X144650000Y-92010000D03*
X147650000Y-92010000D03*
X147650000Y-93110000D03*
X147650000Y-94210000D03*
D11*
G36*
X163789423Y-103297180D02*
G01*
X164089423Y-102777564D01*
X165128653Y-103377564D01*
X164828653Y-103897180D01*
X163789423Y-103297180D01*
G37*
G36*
X163239423Y-104249808D02*
G01*
X163539423Y-103730192D01*
X164578653Y-104330192D01*
X164278653Y-104849808D01*
X163239423Y-104249808D01*
G37*
G36*
X162689423Y-105202436D02*
G01*
X162989423Y-104682820D01*
X164028653Y-105282820D01*
X163728653Y-105802436D01*
X162689423Y-105202436D01*
G37*
G36*
X160091347Y-103702436D02*
G01*
X160391347Y-103182820D01*
X161430577Y-103782820D01*
X161130577Y-104302436D01*
X160091347Y-103702436D01*
G37*
G36*
X160641347Y-102749808D02*
G01*
X160941347Y-102230192D01*
X161980577Y-102830192D01*
X161680577Y-103349808D01*
X160641347Y-102749808D01*
G37*
G36*
X161191347Y-101797180D02*
G01*
X161491347Y-101277564D01*
X162530577Y-101877564D01*
X162230577Y-102397180D01*
X161191347Y-101797180D01*
G37*
G36*
X149320711Y-104527918D02*
G01*
X148896447Y-104103654D01*
X149744975Y-103255126D01*
X150169239Y-103679390D01*
X149320711Y-104527918D01*
G37*
G36*
X150098528Y-105305736D02*
G01*
X149674264Y-104881472D01*
X150522792Y-104032944D01*
X150947056Y-104457208D01*
X150098528Y-105305736D01*
G37*
G36*
X150876346Y-106083553D02*
G01*
X150452082Y-105659289D01*
X151300610Y-104810761D01*
X151724874Y-105235025D01*
X150876346Y-106083553D01*
G37*
G36*
X148755025Y-108204874D02*
G01*
X148330761Y-107780610D01*
X149179289Y-106932082D01*
X149603553Y-107356346D01*
X148755025Y-108204874D01*
G37*
G36*
X147977208Y-107427056D02*
G01*
X147552944Y-107002792D01*
X148401472Y-106154264D01*
X148825736Y-106578528D01*
X147977208Y-107427056D01*
G37*
G36*
X147199390Y-106649239D02*
G01*
X146775126Y-106224975D01*
X147623654Y-105376447D01*
X148047918Y-105800711D01*
X147199390Y-106649239D01*
G37*
D10*
X180730000Y-119000000D03*
X180730000Y-117900000D03*
X180730000Y-116800000D03*
X183730000Y-116800000D03*
X183730000Y-117900000D03*
X183730000Y-119000000D03*
D12*
X187170000Y-122920000D03*
X187170000Y-119620000D03*
G36*
G01*
X242595000Y-178420000D02*
X242595000Y-177920000D01*
G75*
G02*
X242820000Y-177695000I225000J0D01*
G01*
X243270000Y-177695000D01*
G75*
G02*
X243495000Y-177920000I0J-225000D01*
G01*
X243495000Y-178420000D01*
G75*
G02*
X243270000Y-178645000I-225000J0D01*
G01*
X242820000Y-178645000D01*
G75*
G02*
X242595000Y-178420000I0J225000D01*
G01*
G37*
G36*
G01*
X241045000Y-178420000D02*
X241045000Y-177920000D01*
G75*
G02*
X241270000Y-177695000I225000J0D01*
G01*
X241720000Y-177695000D01*
G75*
G02*
X241945000Y-177920000I0J-225000D01*
G01*
X241945000Y-178420000D01*
G75*
G02*
X241720000Y-178645000I-225000J0D01*
G01*
X241270000Y-178645000D01*
G75*
G02*
X241045000Y-178420000I0J225000D01*
G01*
G37*
G36*
G01*
X255655000Y-159460000D02*
X255655000Y-158960000D01*
G75*
G02*
X255880000Y-158735000I225000J0D01*
G01*
X256330000Y-158735000D01*
G75*
G02*
X256555000Y-158960000I0J-225000D01*
G01*
X256555000Y-159460000D01*
G75*
G02*
X256330000Y-159685000I-225000J0D01*
G01*
X255880000Y-159685000D01*
G75*
G02*
X255655000Y-159460000I0J225000D01*
G01*
G37*
G36*
G01*
X254105000Y-159460000D02*
X254105000Y-158960000D01*
G75*
G02*
X254330000Y-158735000I225000J0D01*
G01*
X254780000Y-158735000D01*
G75*
G02*
X255005000Y-158960000I0J-225000D01*
G01*
X255005000Y-159460000D01*
G75*
G02*
X254780000Y-159685000I-225000J0D01*
G01*
X254330000Y-159685000D01*
G75*
G02*
X254105000Y-159460000I0J225000D01*
G01*
G37*
G36*
G01*
X238985000Y-160790000D02*
X238985000Y-160290000D01*
G75*
G02*
X239210000Y-160065000I225000J0D01*
G01*
X239660000Y-160065000D01*
G75*
G02*
X239885000Y-160290000I0J-225000D01*
G01*
X239885000Y-160790000D01*
G75*
G02*
X239660000Y-161015000I-225000J0D01*
G01*
X239210000Y-161015000D01*
G75*
G02*
X238985000Y-160790000I0J225000D01*
G01*
G37*
G36*
G01*
X237435000Y-160790000D02*
X237435000Y-160290000D01*
G75*
G02*
X237660000Y-160065000I225000J0D01*
G01*
X238110000Y-160065000D01*
G75*
G02*
X238335000Y-160290000I0J-225000D01*
G01*
X238335000Y-160790000D01*
G75*
G02*
X238110000Y-161015000I-225000J0D01*
G01*
X237660000Y-161015000D01*
G75*
G02*
X237435000Y-160790000I0J225000D01*
G01*
G37*
G36*
G01*
X223215000Y-152810000D02*
X223215000Y-152310000D01*
G75*
G02*
X223440000Y-152085000I225000J0D01*
G01*
X223890000Y-152085000D01*
G75*
G02*
X224115000Y-152310000I0J-225000D01*
G01*
X224115000Y-152810000D01*
G75*
G02*
X223890000Y-153035000I-225000J0D01*
G01*
X223440000Y-153035000D01*
G75*
G02*
X223215000Y-152810000I0J225000D01*
G01*
G37*
G36*
G01*
X221665000Y-152810000D02*
X221665000Y-152310000D01*
G75*
G02*
X221890000Y-152085000I225000J0D01*
G01*
X222340000Y-152085000D01*
G75*
G02*
X222565000Y-152310000I0J-225000D01*
G01*
X222565000Y-152810000D01*
G75*
G02*
X222340000Y-153035000I-225000J0D01*
G01*
X221890000Y-153035000D01*
G75*
G02*
X221665000Y-152810000I0J225000D01*
G01*
G37*
G36*
G01*
X234375000Y-146450000D02*
X234375000Y-145950000D01*
G75*
G02*
X234600000Y-145725000I225000J0D01*
G01*
X235050000Y-145725000D01*
G75*
G02*
X235275000Y-145950000I0J-225000D01*
G01*
X235275000Y-146450000D01*
G75*
G02*
X235050000Y-146675000I-225000J0D01*
G01*
X234600000Y-146675000D01*
G75*
G02*
X234375000Y-146450000I0J225000D01*
G01*
G37*
G36*
G01*
X232825000Y-146450000D02*
X232825000Y-145950000D01*
G75*
G02*
X233050000Y-145725000I225000J0D01*
G01*
X233500000Y-145725000D01*
G75*
G02*
X233725000Y-145950000I0J-225000D01*
G01*
X233725000Y-146450000D01*
G75*
G02*
X233500000Y-146675000I-225000J0D01*
G01*
X233050000Y-146675000D01*
G75*
G02*
X232825000Y-146450000I0J225000D01*
G01*
G37*
G36*
G01*
X219725000Y-143710000D02*
X219725000Y-143210000D01*
G75*
G02*
X219950000Y-142985000I225000J0D01*
G01*
X220400000Y-142985000D01*
G75*
G02*
X220625000Y-143210000I0J-225000D01*
G01*
X220625000Y-143710000D01*
G75*
G02*
X220400000Y-143935000I-225000J0D01*
G01*
X219950000Y-143935000D01*
G75*
G02*
X219725000Y-143710000I0J225000D01*
G01*
G37*
G36*
G01*
X218175000Y-143710000D02*
X218175000Y-143210000D01*
G75*
G02*
X218400000Y-142985000I225000J0D01*
G01*
X218850000Y-142985000D01*
G75*
G02*
X219075000Y-143210000I0J-225000D01*
G01*
X219075000Y-143710000D01*
G75*
G02*
X218850000Y-143935000I-225000J0D01*
G01*
X218400000Y-143935000D01*
G75*
G02*
X218175000Y-143710000I0J225000D01*
G01*
G37*
G36*
G01*
X213125000Y-133420000D02*
X213125000Y-132920000D01*
G75*
G02*
X213350000Y-132695000I225000J0D01*
G01*
X213800000Y-132695000D01*
G75*
G02*
X214025000Y-132920000I0J-225000D01*
G01*
X214025000Y-133420000D01*
G75*
G02*
X213800000Y-133645000I-225000J0D01*
G01*
X213350000Y-133645000D01*
G75*
G02*
X213125000Y-133420000I0J225000D01*
G01*
G37*
G36*
G01*
X211575000Y-133420000D02*
X211575000Y-132920000D01*
G75*
G02*
X211800000Y-132695000I225000J0D01*
G01*
X212250000Y-132695000D01*
G75*
G02*
X212475000Y-132920000I0J-225000D01*
G01*
X212475000Y-133420000D01*
G75*
G02*
X212250000Y-133645000I-225000J0D01*
G01*
X211800000Y-133645000D01*
G75*
G02*
X211575000Y-133420000I0J225000D01*
G01*
G37*
G36*
G01*
X158745000Y-164820000D02*
X158745000Y-164320000D01*
G75*
G02*
X158970000Y-164095000I225000J0D01*
G01*
X159420000Y-164095000D01*
G75*
G02*
X159645000Y-164320000I0J-225000D01*
G01*
X159645000Y-164820000D01*
G75*
G02*
X159420000Y-165045000I-225000J0D01*
G01*
X158970000Y-165045000D01*
G75*
G02*
X158745000Y-164820000I0J225000D01*
G01*
G37*
G36*
G01*
X157195000Y-164820000D02*
X157195000Y-164320000D01*
G75*
G02*
X157420000Y-164095000I225000J0D01*
G01*
X157870000Y-164095000D01*
G75*
G02*
X158095000Y-164320000I0J-225000D01*
G01*
X158095000Y-164820000D01*
G75*
G02*
X157870000Y-165045000I-225000J0D01*
G01*
X157420000Y-165045000D01*
G75*
G02*
X157195000Y-164820000I0J225000D01*
G01*
G37*
G36*
G01*
X197695000Y-123550000D02*
X197695000Y-123050000D01*
G75*
G02*
X197920000Y-122825000I225000J0D01*
G01*
X198370000Y-122825000D01*
G75*
G02*
X198595000Y-123050000I0J-225000D01*
G01*
X198595000Y-123550000D01*
G75*
G02*
X198370000Y-123775000I-225000J0D01*
G01*
X197920000Y-123775000D01*
G75*
G02*
X197695000Y-123550000I0J225000D01*
G01*
G37*
G36*
G01*
X196145000Y-123550000D02*
X196145000Y-123050000D01*
G75*
G02*
X196370000Y-122825000I225000J0D01*
G01*
X196820000Y-122825000D01*
G75*
G02*
X197045000Y-123050000I0J-225000D01*
G01*
X197045000Y-123550000D01*
G75*
G02*
X196820000Y-123775000I-225000J0D01*
G01*
X196370000Y-123775000D01*
G75*
G02*
X196145000Y-123550000I0J225000D01*
G01*
G37*
G36*
G01*
X196985000Y-138420000D02*
X196985000Y-137920000D01*
G75*
G02*
X197210000Y-137695000I225000J0D01*
G01*
X197660000Y-137695000D01*
G75*
G02*
X197885000Y-137920000I0J-225000D01*
G01*
X197885000Y-138420000D01*
G75*
G02*
X197660000Y-138645000I-225000J0D01*
G01*
X197210000Y-138645000D01*
G75*
G02*
X196985000Y-138420000I0J225000D01*
G01*
G37*
G36*
G01*
X195435000Y-138420000D02*
X195435000Y-137920000D01*
G75*
G02*
X195660000Y-137695000I225000J0D01*
G01*
X196110000Y-137695000D01*
G75*
G02*
X196335000Y-137920000I0J-225000D01*
G01*
X196335000Y-138420000D01*
G75*
G02*
X196110000Y-138645000I-225000J0D01*
G01*
X195660000Y-138645000D01*
G75*
G02*
X195435000Y-138420000I0J225000D01*
G01*
G37*
G36*
G01*
X217565000Y-209830000D02*
X217565000Y-210330000D01*
G75*
G02*
X217340000Y-210555000I-225000J0D01*
G01*
X216890000Y-210555000D01*
G75*
G02*
X216665000Y-210330000I0J225000D01*
G01*
X216665000Y-209830000D01*
G75*
G02*
X216890000Y-209605000I225000J0D01*
G01*
X217340000Y-209605000D01*
G75*
G02*
X217565000Y-209830000I0J-225000D01*
G01*
G37*
G36*
G01*
X219115000Y-209830000D02*
X219115000Y-210330000D01*
G75*
G02*
X218890000Y-210555000I-225000J0D01*
G01*
X218440000Y-210555000D01*
G75*
G02*
X218215000Y-210330000I0J225000D01*
G01*
X218215000Y-209830000D01*
G75*
G02*
X218440000Y-209605000I225000J0D01*
G01*
X218890000Y-209605000D01*
G75*
G02*
X219115000Y-209830000I0J-225000D01*
G01*
G37*
G36*
G01*
X205685000Y-116470000D02*
X205685000Y-115970000D01*
G75*
G02*
X205910000Y-115745000I225000J0D01*
G01*
X206360000Y-115745000D01*
G75*
G02*
X206585000Y-115970000I0J-225000D01*
G01*
X206585000Y-116470000D01*
G75*
G02*
X206360000Y-116695000I-225000J0D01*
G01*
X205910000Y-116695000D01*
G75*
G02*
X205685000Y-116470000I0J225000D01*
G01*
G37*
G36*
G01*
X204135000Y-116470000D02*
X204135000Y-115970000D01*
G75*
G02*
X204360000Y-115745000I225000J0D01*
G01*
X204810000Y-115745000D01*
G75*
G02*
X205035000Y-115970000I0J-225000D01*
G01*
X205035000Y-116470000D01*
G75*
G02*
X204810000Y-116695000I-225000J0D01*
G01*
X204360000Y-116695000D01*
G75*
G02*
X204135000Y-116470000I0J225000D01*
G01*
G37*
G36*
G01*
X181895000Y-96570000D02*
X181895000Y-96070000D01*
G75*
G02*
X182120000Y-95845000I225000J0D01*
G01*
X182570000Y-95845000D01*
G75*
G02*
X182795000Y-96070000I0J-225000D01*
G01*
X182795000Y-96570000D01*
G75*
G02*
X182570000Y-96795000I-225000J0D01*
G01*
X182120000Y-96795000D01*
G75*
G02*
X181895000Y-96570000I0J225000D01*
G01*
G37*
G36*
G01*
X180345000Y-96570000D02*
X180345000Y-96070000D01*
G75*
G02*
X180570000Y-95845000I225000J0D01*
G01*
X181020000Y-95845000D01*
G75*
G02*
X181245000Y-96070000I0J-225000D01*
G01*
X181245000Y-96570000D01*
G75*
G02*
X181020000Y-96795000I-225000J0D01*
G01*
X180570000Y-96795000D01*
G75*
G02*
X180345000Y-96570000I0J225000D01*
G01*
G37*
G36*
G01*
X189835000Y-81570000D02*
X189835000Y-81070000D01*
G75*
G02*
X190060000Y-80845000I225000J0D01*
G01*
X190510000Y-80845000D01*
G75*
G02*
X190735000Y-81070000I0J-225000D01*
G01*
X190735000Y-81570000D01*
G75*
G02*
X190510000Y-81795000I-225000J0D01*
G01*
X190060000Y-81795000D01*
G75*
G02*
X189835000Y-81570000I0J225000D01*
G01*
G37*
G36*
G01*
X188285000Y-81570000D02*
X188285000Y-81070000D01*
G75*
G02*
X188510000Y-80845000I225000J0D01*
G01*
X188960000Y-80845000D01*
G75*
G02*
X189185000Y-81070000I0J-225000D01*
G01*
X189185000Y-81570000D01*
G75*
G02*
X188960000Y-81795000I-225000J0D01*
G01*
X188510000Y-81795000D01*
G75*
G02*
X188285000Y-81570000I0J225000D01*
G01*
G37*
G36*
G01*
X203745000Y-71430000D02*
X203745000Y-70930000D01*
G75*
G02*
X203970000Y-70705000I225000J0D01*
G01*
X204420000Y-70705000D01*
G75*
G02*
X204645000Y-70930000I0J-225000D01*
G01*
X204645000Y-71430000D01*
G75*
G02*
X204420000Y-71655000I-225000J0D01*
G01*
X203970000Y-71655000D01*
G75*
G02*
X203745000Y-71430000I0J225000D01*
G01*
G37*
G36*
G01*
X202195000Y-71430000D02*
X202195000Y-70930000D01*
G75*
G02*
X202420000Y-70705000I225000J0D01*
G01*
X202870000Y-70705000D01*
G75*
G02*
X203095000Y-70930000I0J-225000D01*
G01*
X203095000Y-71430000D01*
G75*
G02*
X202870000Y-71655000I-225000J0D01*
G01*
X202420000Y-71655000D01*
G75*
G02*
X202195000Y-71430000I0J225000D01*
G01*
G37*
G36*
G01*
X183575000Y-74930000D02*
X183575000Y-75430000D01*
G75*
G02*
X183350000Y-75655000I-225000J0D01*
G01*
X182900000Y-75655000D01*
G75*
G02*
X182675000Y-75430000I0J225000D01*
G01*
X182675000Y-74930000D01*
G75*
G02*
X182900000Y-74705000I225000J0D01*
G01*
X183350000Y-74705000D01*
G75*
G02*
X183575000Y-74930000I0J-225000D01*
G01*
G37*
G36*
G01*
X185125000Y-74930000D02*
X185125000Y-75430000D01*
G75*
G02*
X184900000Y-75655000I-225000J0D01*
G01*
X184450000Y-75655000D01*
G75*
G02*
X184225000Y-75430000I0J225000D01*
G01*
X184225000Y-74930000D01*
G75*
G02*
X184450000Y-74705000I225000J0D01*
G01*
X184900000Y-74705000D01*
G75*
G02*
X185125000Y-74930000I0J-225000D01*
G01*
G37*
G36*
G01*
X166585000Y-85500000D02*
X166585000Y-86000000D01*
G75*
G02*
X166360000Y-86225000I-225000J0D01*
G01*
X165910000Y-86225000D01*
G75*
G02*
X165685000Y-86000000I0J225000D01*
G01*
X165685000Y-85500000D01*
G75*
G02*
X165910000Y-85275000I225000J0D01*
G01*
X166360000Y-85275000D01*
G75*
G02*
X166585000Y-85500000I0J-225000D01*
G01*
G37*
G36*
G01*
X168135000Y-85500000D02*
X168135000Y-86000000D01*
G75*
G02*
X167910000Y-86225000I-225000J0D01*
G01*
X167460000Y-86225000D01*
G75*
G02*
X167235000Y-86000000I0J225000D01*
G01*
X167235000Y-85500000D01*
G75*
G02*
X167460000Y-85275000I225000J0D01*
G01*
X167910000Y-85275000D01*
G75*
G02*
X168135000Y-85500000I0J-225000D01*
G01*
G37*
G36*
G01*
X142815000Y-75600000D02*
X142815000Y-75100000D01*
G75*
G02*
X143040000Y-74875000I225000J0D01*
G01*
X143490000Y-74875000D01*
G75*
G02*
X143715000Y-75100000I0J-225000D01*
G01*
X143715000Y-75600000D01*
G75*
G02*
X143490000Y-75825000I-225000J0D01*
G01*
X143040000Y-75825000D01*
G75*
G02*
X142815000Y-75600000I0J225000D01*
G01*
G37*
G36*
G01*
X141265000Y-75600000D02*
X141265000Y-75100000D01*
G75*
G02*
X141490000Y-74875000I225000J0D01*
G01*
X141940000Y-74875000D01*
G75*
G02*
X142165000Y-75100000I0J-225000D01*
G01*
X142165000Y-75600000D01*
G75*
G02*
X141940000Y-75825000I-225000J0D01*
G01*
X141490000Y-75825000D01*
G75*
G02*
X141265000Y-75600000I0J225000D01*
G01*
G37*
G36*
G01*
X146705000Y-96160000D02*
X146705000Y-96660000D01*
G75*
G02*
X146480000Y-96885000I-225000J0D01*
G01*
X146030000Y-96885000D01*
G75*
G02*
X145805000Y-96660000I0J225000D01*
G01*
X145805000Y-96160000D01*
G75*
G02*
X146030000Y-95935000I225000J0D01*
G01*
X146480000Y-95935000D01*
G75*
G02*
X146705000Y-96160000I0J-225000D01*
G01*
G37*
G36*
G01*
X148255000Y-96160000D02*
X148255000Y-96660000D01*
G75*
G02*
X148030000Y-96885000I-225000J0D01*
G01*
X147580000Y-96885000D01*
G75*
G02*
X147355000Y-96660000I0J225000D01*
G01*
X147355000Y-96160000D01*
G75*
G02*
X147580000Y-95935000I225000J0D01*
G01*
X148030000Y-95935000D01*
G75*
G02*
X148255000Y-96160000I0J-225000D01*
G01*
G37*
G36*
G01*
X164410000Y-99700000D02*
X164410000Y-99200000D01*
G75*
G02*
X164635000Y-98975000I225000J0D01*
G01*
X165085000Y-98975000D01*
G75*
G02*
X165310000Y-99200000I0J-225000D01*
G01*
X165310000Y-99700000D01*
G75*
G02*
X165085000Y-99925000I-225000J0D01*
G01*
X164635000Y-99925000D01*
G75*
G02*
X164410000Y-99700000I0J225000D01*
G01*
G37*
G36*
G01*
X162860000Y-99700000D02*
X162860000Y-99200000D01*
G75*
G02*
X163085000Y-98975000I225000J0D01*
G01*
X163535000Y-98975000D01*
G75*
G02*
X163760000Y-99200000I0J-225000D01*
G01*
X163760000Y-99700000D01*
G75*
G02*
X163535000Y-99925000I-225000J0D01*
G01*
X163085000Y-99925000D01*
G75*
G02*
X162860000Y-99700000I0J225000D01*
G01*
G37*
G36*
G01*
X143915000Y-104330000D02*
X143915000Y-104830000D01*
G75*
G02*
X143690000Y-105055000I-225000J0D01*
G01*
X143240000Y-105055000D01*
G75*
G02*
X143015000Y-104830000I0J225000D01*
G01*
X143015000Y-104330000D01*
G75*
G02*
X143240000Y-104105000I225000J0D01*
G01*
X143690000Y-104105000D01*
G75*
G02*
X143915000Y-104330000I0J-225000D01*
G01*
G37*
G36*
G01*
X145465000Y-104330000D02*
X145465000Y-104830000D01*
G75*
G02*
X145240000Y-105055000I-225000J0D01*
G01*
X144790000Y-105055000D01*
G75*
G02*
X144565000Y-104830000I0J225000D01*
G01*
X144565000Y-104330000D01*
G75*
G02*
X144790000Y-104105000I225000J0D01*
G01*
X145240000Y-104105000D01*
G75*
G02*
X145465000Y-104330000I0J-225000D01*
G01*
G37*
G36*
G01*
X136510000Y-151465000D02*
X137010000Y-151465000D01*
G75*
G02*
X137235000Y-151690000I0J-225000D01*
G01*
X137235000Y-152140000D01*
G75*
G02*
X137010000Y-152365000I-225000J0D01*
G01*
X136510000Y-152365000D01*
G75*
G02*
X136285000Y-152140000I0J225000D01*
G01*
X136285000Y-151690000D01*
G75*
G02*
X136510000Y-151465000I225000J0D01*
G01*
G37*
G36*
G01*
X136510000Y-149915000D02*
X137010000Y-149915000D01*
G75*
G02*
X137235000Y-150140000I0J-225000D01*
G01*
X137235000Y-150590000D01*
G75*
G02*
X137010000Y-150815000I-225000J0D01*
G01*
X136510000Y-150815000D01*
G75*
G02*
X136285000Y-150590000I0J225000D01*
G01*
X136285000Y-150140000D01*
G75*
G02*
X136510000Y-149915000I225000J0D01*
G01*
G37*
G36*
G01*
X136510000Y-148365000D02*
X137010000Y-148365000D01*
G75*
G02*
X137235000Y-148590000I0J-225000D01*
G01*
X137235000Y-149040000D01*
G75*
G02*
X137010000Y-149265000I-225000J0D01*
G01*
X136510000Y-149265000D01*
G75*
G02*
X136285000Y-149040000I0J225000D01*
G01*
X136285000Y-148590000D01*
G75*
G02*
X136510000Y-148365000I225000J0D01*
G01*
G37*
G36*
G01*
X136510000Y-146815000D02*
X137010000Y-146815000D01*
G75*
G02*
X137235000Y-147040000I0J-225000D01*
G01*
X137235000Y-147490000D01*
G75*
G02*
X137010000Y-147715000I-225000J0D01*
G01*
X136510000Y-147715000D01*
G75*
G02*
X136285000Y-147490000I0J225000D01*
G01*
X136285000Y-147040000D01*
G75*
G02*
X136510000Y-146815000I225000J0D01*
G01*
G37*
D13*
X134790000Y-205300000D03*
X136990000Y-205300000D03*
X136990000Y-207000000D03*
X134790000Y-207000000D03*
G36*
G01*
X145575000Y-197355000D02*
X145575000Y-197055000D01*
G75*
G02*
X145725000Y-196905000I150000J0D01*
G01*
X147375000Y-196905000D01*
G75*
G02*
X147525000Y-197055000I0J-150000D01*
G01*
X147525000Y-197355000D01*
G75*
G02*
X147375000Y-197505000I-150000J0D01*
G01*
X145725000Y-197505000D01*
G75*
G02*
X145575000Y-197355000I0J150000D01*
G01*
G37*
G36*
G01*
X145575000Y-198625000D02*
X145575000Y-198325000D01*
G75*
G02*
X145725000Y-198175000I150000J0D01*
G01*
X147375000Y-198175000D01*
G75*
G02*
X147525000Y-198325000I0J-150000D01*
G01*
X147525000Y-198625000D01*
G75*
G02*
X147375000Y-198775000I-150000J0D01*
G01*
X145725000Y-198775000D01*
G75*
G02*
X145575000Y-198625000I0J150000D01*
G01*
G37*
G36*
G01*
X145575000Y-199895000D02*
X145575000Y-199595000D01*
G75*
G02*
X145725000Y-199445000I150000J0D01*
G01*
X147375000Y-199445000D01*
G75*
G02*
X147525000Y-199595000I0J-150000D01*
G01*
X147525000Y-199895000D01*
G75*
G02*
X147375000Y-200045000I-150000J0D01*
G01*
X145725000Y-200045000D01*
G75*
G02*
X145575000Y-199895000I0J150000D01*
G01*
G37*
G36*
G01*
X145575000Y-201165000D02*
X145575000Y-200865000D01*
G75*
G02*
X145725000Y-200715000I150000J0D01*
G01*
X147375000Y-200715000D01*
G75*
G02*
X147525000Y-200865000I0J-150000D01*
G01*
X147525000Y-201165000D01*
G75*
G02*
X147375000Y-201315000I-150000J0D01*
G01*
X145725000Y-201315000D01*
G75*
G02*
X145575000Y-201165000I0J150000D01*
G01*
G37*
G36*
G01*
X145575000Y-202435000D02*
X145575000Y-202135000D01*
G75*
G02*
X145725000Y-201985000I150000J0D01*
G01*
X147375000Y-201985000D01*
G75*
G02*
X147525000Y-202135000I0J-150000D01*
G01*
X147525000Y-202435000D01*
G75*
G02*
X147375000Y-202585000I-150000J0D01*
G01*
X145725000Y-202585000D01*
G75*
G02*
X145575000Y-202435000I0J150000D01*
G01*
G37*
G36*
G01*
X145575000Y-203705000D02*
X145575000Y-203405000D01*
G75*
G02*
X145725000Y-203255000I150000J0D01*
G01*
X147375000Y-203255000D01*
G75*
G02*
X147525000Y-203405000I0J-150000D01*
G01*
X147525000Y-203705000D01*
G75*
G02*
X147375000Y-203855000I-150000J0D01*
G01*
X145725000Y-203855000D01*
G75*
G02*
X145575000Y-203705000I0J150000D01*
G01*
G37*
G36*
G01*
X145575000Y-204975000D02*
X145575000Y-204675000D01*
G75*
G02*
X145725000Y-204525000I150000J0D01*
G01*
X147375000Y-204525000D01*
G75*
G02*
X147525000Y-204675000I0J-150000D01*
G01*
X147525000Y-204975000D01*
G75*
G02*
X147375000Y-205125000I-150000J0D01*
G01*
X145725000Y-205125000D01*
G75*
G02*
X145575000Y-204975000I0J150000D01*
G01*
G37*
G36*
G01*
X145575000Y-206245000D02*
X145575000Y-205945000D01*
G75*
G02*
X145725000Y-205795000I150000J0D01*
G01*
X147375000Y-205795000D01*
G75*
G02*
X147525000Y-205945000I0J-150000D01*
G01*
X147525000Y-206245000D01*
G75*
G02*
X147375000Y-206395000I-150000J0D01*
G01*
X145725000Y-206395000D01*
G75*
G02*
X145575000Y-206245000I0J150000D01*
G01*
G37*
G36*
G01*
X140625000Y-206245000D02*
X140625000Y-205945000D01*
G75*
G02*
X140775000Y-205795000I150000J0D01*
G01*
X142425000Y-205795000D01*
G75*
G02*
X142575000Y-205945000I0J-150000D01*
G01*
X142575000Y-206245000D01*
G75*
G02*
X142425000Y-206395000I-150000J0D01*
G01*
X140775000Y-206395000D01*
G75*
G02*
X140625000Y-206245000I0J150000D01*
G01*
G37*
G36*
G01*
X140625000Y-204975000D02*
X140625000Y-204675000D01*
G75*
G02*
X140775000Y-204525000I150000J0D01*
G01*
X142425000Y-204525000D01*
G75*
G02*
X142575000Y-204675000I0J-150000D01*
G01*
X142575000Y-204975000D01*
G75*
G02*
X142425000Y-205125000I-150000J0D01*
G01*
X140775000Y-205125000D01*
G75*
G02*
X140625000Y-204975000I0J150000D01*
G01*
G37*
G36*
G01*
X140625000Y-203705000D02*
X140625000Y-203405000D01*
G75*
G02*
X140775000Y-203255000I150000J0D01*
G01*
X142425000Y-203255000D01*
G75*
G02*
X142575000Y-203405000I0J-150000D01*
G01*
X142575000Y-203705000D01*
G75*
G02*
X142425000Y-203855000I-150000J0D01*
G01*
X140775000Y-203855000D01*
G75*
G02*
X140625000Y-203705000I0J150000D01*
G01*
G37*
G36*
G01*
X140625000Y-202435000D02*
X140625000Y-202135000D01*
G75*
G02*
X140775000Y-201985000I150000J0D01*
G01*
X142425000Y-201985000D01*
G75*
G02*
X142575000Y-202135000I0J-150000D01*
G01*
X142575000Y-202435000D01*
G75*
G02*
X142425000Y-202585000I-150000J0D01*
G01*
X140775000Y-202585000D01*
G75*
G02*
X140625000Y-202435000I0J150000D01*
G01*
G37*
G36*
G01*
X140625000Y-201165000D02*
X140625000Y-200865000D01*
G75*
G02*
X140775000Y-200715000I150000J0D01*
G01*
X142425000Y-200715000D01*
G75*
G02*
X142575000Y-200865000I0J-150000D01*
G01*
X142575000Y-201165000D01*
G75*
G02*
X142425000Y-201315000I-150000J0D01*
G01*
X140775000Y-201315000D01*
G75*
G02*
X140625000Y-201165000I0J150000D01*
G01*
G37*
G36*
G01*
X140625000Y-199895000D02*
X140625000Y-199595000D01*
G75*
G02*
X140775000Y-199445000I150000J0D01*
G01*
X142425000Y-199445000D01*
G75*
G02*
X142575000Y-199595000I0J-150000D01*
G01*
X142575000Y-199895000D01*
G75*
G02*
X142425000Y-200045000I-150000J0D01*
G01*
X140775000Y-200045000D01*
G75*
G02*
X140625000Y-199895000I0J150000D01*
G01*
G37*
G36*
G01*
X140625000Y-198625000D02*
X140625000Y-198325000D01*
G75*
G02*
X140775000Y-198175000I150000J0D01*
G01*
X142425000Y-198175000D01*
G75*
G02*
X142575000Y-198325000I0J-150000D01*
G01*
X142575000Y-198625000D01*
G75*
G02*
X142425000Y-198775000I-150000J0D01*
G01*
X140775000Y-198775000D01*
G75*
G02*
X140625000Y-198625000I0J150000D01*
G01*
G37*
G36*
G01*
X140625000Y-197355000D02*
X140625000Y-197055000D01*
G75*
G02*
X140775000Y-196905000I150000J0D01*
G01*
X142425000Y-196905000D01*
G75*
G02*
X142575000Y-197055000I0J-150000D01*
G01*
X142575000Y-197355000D01*
G75*
G02*
X142425000Y-197505000I-150000J0D01*
G01*
X140775000Y-197505000D01*
G75*
G02*
X140625000Y-197355000I0J150000D01*
G01*
G37*
D14*
X122775000Y-128025000D03*
X124045000Y-128025000D03*
X125315000Y-128025000D03*
X126585000Y-128025000D03*
X127855000Y-128025000D03*
X129125000Y-128025000D03*
X130395000Y-128025000D03*
X131665000Y-128025000D03*
X132935000Y-128025000D03*
X134205000Y-128025000D03*
X135475000Y-128025000D03*
X136745000Y-128025000D03*
X138015000Y-128025000D03*
X139285000Y-128025000D03*
D15*
X140285000Y-130810000D03*
X140285000Y-132080000D03*
X140285000Y-133350000D03*
X140285000Y-134620000D03*
X140285000Y-135890000D03*
X140285000Y-137160000D03*
X140285000Y-138430000D03*
X140285000Y-139700000D03*
X140285000Y-140970000D03*
X140285000Y-142240000D03*
D14*
X139285000Y-145025000D03*
X138015000Y-145025000D03*
X136745000Y-145025000D03*
X135475000Y-145025000D03*
X134205000Y-145025000D03*
X132935000Y-145025000D03*
X131665000Y-145025000D03*
X130395000Y-145025000D03*
X129125000Y-145025000D03*
X127855000Y-145025000D03*
X126585000Y-145025000D03*
X125315000Y-145025000D03*
X124045000Y-145025000D03*
X122775000Y-145025000D03*
D16*
X130275000Y-137525000D03*
D17*
X131165000Y-175260000D03*
X135765000Y-175260000D03*
X133465000Y-175260000D03*
D18*
X133465000Y-168960000D03*
G36*
G01*
X150970000Y-201075000D02*
X150970000Y-200525000D01*
G75*
G02*
X151170000Y-200325000I200000J0D01*
G01*
X151570000Y-200325000D01*
G75*
G02*
X151770000Y-200525000I0J-200000D01*
G01*
X151770000Y-201075000D01*
G75*
G02*
X151570000Y-201275000I-200000J0D01*
G01*
X151170000Y-201275000D01*
G75*
G02*
X150970000Y-201075000I0J200000D01*
G01*
G37*
G36*
G01*
X149320000Y-201075000D02*
X149320000Y-200525000D01*
G75*
G02*
X149520000Y-200325000I200000J0D01*
G01*
X149920000Y-200325000D01*
G75*
G02*
X150120000Y-200525000I0J-200000D01*
G01*
X150120000Y-201075000D01*
G75*
G02*
X149920000Y-201275000I-200000J0D01*
G01*
X149520000Y-201275000D01*
G75*
G02*
X149320000Y-201075000I0J200000D01*
G01*
G37*
G36*
G01*
X150970000Y-202675000D02*
X150970000Y-202125000D01*
G75*
G02*
X151170000Y-201925000I200000J0D01*
G01*
X151570000Y-201925000D01*
G75*
G02*
X151770000Y-202125000I0J-200000D01*
G01*
X151770000Y-202675000D01*
G75*
G02*
X151570000Y-202875000I-200000J0D01*
G01*
X151170000Y-202875000D01*
G75*
G02*
X150970000Y-202675000I0J200000D01*
G01*
G37*
G36*
G01*
X149320000Y-202675000D02*
X149320000Y-202125000D01*
G75*
G02*
X149520000Y-201925000I200000J0D01*
G01*
X149920000Y-201925000D01*
G75*
G02*
X150120000Y-202125000I0J-200000D01*
G01*
X150120000Y-202675000D01*
G75*
G02*
X149920000Y-202875000I-200000J0D01*
G01*
X149520000Y-202875000D01*
G75*
G02*
X149320000Y-202675000I0J200000D01*
G01*
G37*
G36*
G01*
X143645000Y-189070000D02*
X143645000Y-188520000D01*
G75*
G02*
X143845000Y-188320000I200000J0D01*
G01*
X144245000Y-188320000D01*
G75*
G02*
X144445000Y-188520000I0J-200000D01*
G01*
X144445000Y-189070000D01*
G75*
G02*
X144245000Y-189270000I-200000J0D01*
G01*
X143845000Y-189270000D01*
G75*
G02*
X143645000Y-189070000I0J200000D01*
G01*
G37*
G36*
G01*
X141995000Y-189070000D02*
X141995000Y-188520000D01*
G75*
G02*
X142195000Y-188320000I200000J0D01*
G01*
X142595000Y-188320000D01*
G75*
G02*
X142795000Y-188520000I0J-200000D01*
G01*
X142795000Y-189070000D01*
G75*
G02*
X142595000Y-189270000I-200000J0D01*
G01*
X142195000Y-189270000D01*
G75*
G02*
X141995000Y-189070000I0J200000D01*
G01*
G37*
G36*
G01*
X133185000Y-147705000D02*
X132635000Y-147705000D01*
G75*
G02*
X132435000Y-147505000I0J200000D01*
G01*
X132435000Y-147105000D01*
G75*
G02*
X132635000Y-146905000I200000J0D01*
G01*
X133185000Y-146905000D01*
G75*
G02*
X133385000Y-147105000I0J-200000D01*
G01*
X133385000Y-147505000D01*
G75*
G02*
X133185000Y-147705000I-200000J0D01*
G01*
G37*
G36*
G01*
X133185000Y-149355000D02*
X132635000Y-149355000D01*
G75*
G02*
X132435000Y-149155000I0J200000D01*
G01*
X132435000Y-148755000D01*
G75*
G02*
X132635000Y-148555000I200000J0D01*
G01*
X133185000Y-148555000D01*
G75*
G02*
X133385000Y-148755000I0J-200000D01*
G01*
X133385000Y-149155000D01*
G75*
G02*
X133185000Y-149355000I-200000J0D01*
G01*
G37*
G36*
G01*
X135085000Y-188545000D02*
X135085000Y-189095000D01*
G75*
G02*
X134885000Y-189295000I-200000J0D01*
G01*
X134485000Y-189295000D01*
G75*
G02*
X134285000Y-189095000I0J200000D01*
G01*
X134285000Y-188545000D01*
G75*
G02*
X134485000Y-188345000I200000J0D01*
G01*
X134885000Y-188345000D01*
G75*
G02*
X135085000Y-188545000I0J-200000D01*
G01*
G37*
G36*
G01*
X136735000Y-188545000D02*
X136735000Y-189095000D01*
G75*
G02*
X136535000Y-189295000I-200000J0D01*
G01*
X136135000Y-189295000D01*
G75*
G02*
X135935000Y-189095000I0J200000D01*
G01*
X135935000Y-188545000D01*
G75*
G02*
X136135000Y-188345000I200000J0D01*
G01*
X136535000Y-188345000D01*
G75*
G02*
X136735000Y-188545000I0J-200000D01*
G01*
G37*
G36*
G01*
X186325000Y-190135000D02*
X186325000Y-190685000D01*
G75*
G02*
X186125000Y-190885000I-200000J0D01*
G01*
X185725000Y-190885000D01*
G75*
G02*
X185525000Y-190685000I0J200000D01*
G01*
X185525000Y-190135000D01*
G75*
G02*
X185725000Y-189935000I200000J0D01*
G01*
X186125000Y-189935000D01*
G75*
G02*
X186325000Y-190135000I0J-200000D01*
G01*
G37*
G36*
G01*
X187975000Y-190135000D02*
X187975000Y-190685000D01*
G75*
G02*
X187775000Y-190885000I-200000J0D01*
G01*
X187375000Y-190885000D01*
G75*
G02*
X187175000Y-190685000I0J200000D01*
G01*
X187175000Y-190135000D01*
G75*
G02*
X187375000Y-189935000I200000J0D01*
G01*
X187775000Y-189935000D01*
G75*
G02*
X187975000Y-190135000I0J-200000D01*
G01*
G37*
G36*
G01*
X186325000Y-191885000D02*
X186325000Y-192435000D01*
G75*
G02*
X186125000Y-192635000I-200000J0D01*
G01*
X185725000Y-192635000D01*
G75*
G02*
X185525000Y-192435000I0J200000D01*
G01*
X185525000Y-191885000D01*
G75*
G02*
X185725000Y-191685000I200000J0D01*
G01*
X186125000Y-191685000D01*
G75*
G02*
X186325000Y-191885000I0J-200000D01*
G01*
G37*
G36*
G01*
X187975000Y-191885000D02*
X187975000Y-192435000D01*
G75*
G02*
X187775000Y-192635000I-200000J0D01*
G01*
X187375000Y-192635000D01*
G75*
G02*
X187175000Y-192435000I0J200000D01*
G01*
X187175000Y-191885000D01*
G75*
G02*
X187375000Y-191685000I200000J0D01*
G01*
X187775000Y-191685000D01*
G75*
G02*
X187975000Y-191885000I0J-200000D01*
G01*
G37*
D19*
X151345000Y-205000000D03*
X149345000Y-205950000D03*
X149345000Y-204050000D03*
X149345000Y-198200000D03*
X151345000Y-197250000D03*
X151345000Y-199150000D03*
D20*
X117545000Y-200050000D03*
X117545000Y-199250000D03*
X117545000Y-194350000D03*
X117545000Y-193550000D03*
X117545000Y-193550000D03*
X117545000Y-194350000D03*
X117545000Y-199250000D03*
X117545000Y-200050000D03*
D21*
X117545000Y-195050000D03*
X117545000Y-195550000D03*
X117545000Y-196050000D03*
X117545000Y-197050000D03*
X117545000Y-197550000D03*
X117545000Y-198050000D03*
X117545000Y-198550000D03*
X117545000Y-196550000D03*
G36*
G01*
X182775000Y-120580000D02*
X182775000Y-121080000D01*
G75*
G02*
X182550000Y-121305000I-225000J0D01*
G01*
X182100000Y-121305000D01*
G75*
G02*
X181875000Y-121080000I0J225000D01*
G01*
X181875000Y-120580000D01*
G75*
G02*
X182100000Y-120355000I225000J0D01*
G01*
X182550000Y-120355000D01*
G75*
G02*
X182775000Y-120580000I0J-225000D01*
G01*
G37*
G36*
G01*
X184325000Y-120580000D02*
X184325000Y-121080000D01*
G75*
G02*
X184100000Y-121305000I-225000J0D01*
G01*
X183650000Y-121305000D01*
G75*
G02*
X183425000Y-121080000I0J225000D01*
G01*
X183425000Y-120580000D01*
G75*
G02*
X183650000Y-120355000I225000J0D01*
G01*
X184100000Y-120355000D01*
G75*
G02*
X184325000Y-120580000I0J-225000D01*
G01*
G37*
G36*
G01*
X142820000Y-193750000D02*
X142820000Y-194250000D01*
G75*
G02*
X142595000Y-194475000I-225000J0D01*
G01*
X142145000Y-194475000D01*
G75*
G02*
X141920000Y-194250000I0J225000D01*
G01*
X141920000Y-193750000D01*
G75*
G02*
X142145000Y-193525000I225000J0D01*
G01*
X142595000Y-193525000D01*
G75*
G02*
X142820000Y-193750000I0J-225000D01*
G01*
G37*
G36*
G01*
X144370000Y-193750000D02*
X144370000Y-194250000D01*
G75*
G02*
X144145000Y-194475000I-225000J0D01*
G01*
X143695000Y-194475000D01*
G75*
G02*
X143470000Y-194250000I0J225000D01*
G01*
X143470000Y-193750000D01*
G75*
G02*
X143695000Y-193525000I225000J0D01*
G01*
X144145000Y-193525000D01*
G75*
G02*
X144370000Y-193750000I0J-225000D01*
G01*
G37*
G36*
G01*
X146570000Y-195850000D02*
X146570000Y-195350000D01*
G75*
G02*
X146795000Y-195125000I225000J0D01*
G01*
X147245000Y-195125000D01*
G75*
G02*
X147470000Y-195350000I0J-225000D01*
G01*
X147470000Y-195850000D01*
G75*
G02*
X147245000Y-196075000I-225000J0D01*
G01*
X146795000Y-196075000D01*
G75*
G02*
X146570000Y-195850000I0J225000D01*
G01*
G37*
G36*
G01*
X145020000Y-195850000D02*
X145020000Y-195350000D01*
G75*
G02*
X145245000Y-195125000I225000J0D01*
G01*
X145695000Y-195125000D01*
G75*
G02*
X145920000Y-195350000I0J-225000D01*
G01*
X145920000Y-195850000D01*
G75*
G02*
X145695000Y-196075000I-225000J0D01*
G01*
X145245000Y-196075000D01*
G75*
G02*
X145020000Y-195850000I0J225000D01*
G01*
G37*
G36*
G01*
X142820000Y-195350000D02*
X142820000Y-195850000D01*
G75*
G02*
X142595000Y-196075000I-225000J0D01*
G01*
X142145000Y-196075000D01*
G75*
G02*
X141920000Y-195850000I0J225000D01*
G01*
X141920000Y-195350000D01*
G75*
G02*
X142145000Y-195125000I225000J0D01*
G01*
X142595000Y-195125000D01*
G75*
G02*
X142820000Y-195350000I0J-225000D01*
G01*
G37*
G36*
G01*
X144370000Y-195350000D02*
X144370000Y-195850000D01*
G75*
G02*
X144145000Y-196075000I-225000J0D01*
G01*
X143695000Y-196075000D01*
G75*
G02*
X143470000Y-195850000I0J225000D01*
G01*
X143470000Y-195350000D01*
G75*
G02*
X143695000Y-195125000I225000J0D01*
G01*
X144145000Y-195125000D01*
G75*
G02*
X144370000Y-195350000I0J-225000D01*
G01*
G37*
G36*
G01*
X146745000Y-189045000D02*
X146745000Y-188545000D01*
G75*
G02*
X146970000Y-188320000I225000J0D01*
G01*
X147420000Y-188320000D01*
G75*
G02*
X147645000Y-188545000I0J-225000D01*
G01*
X147645000Y-189045000D01*
G75*
G02*
X147420000Y-189270000I-225000J0D01*
G01*
X146970000Y-189270000D01*
G75*
G02*
X146745000Y-189045000I0J225000D01*
G01*
G37*
G36*
G01*
X145195000Y-189045000D02*
X145195000Y-188545000D01*
G75*
G02*
X145420000Y-188320000I225000J0D01*
G01*
X145870000Y-188320000D01*
G75*
G02*
X146095000Y-188545000I0J-225000D01*
G01*
X146095000Y-189045000D01*
G75*
G02*
X145870000Y-189270000I-225000J0D01*
G01*
X145420000Y-189270000D01*
G75*
G02*
X145195000Y-189045000I0J225000D01*
G01*
G37*
G36*
G01*
X132195000Y-206630000D02*
X133145000Y-206630000D01*
G75*
G02*
X133395000Y-206880000I0J-250000D01*
G01*
X133395000Y-207380000D01*
G75*
G02*
X133145000Y-207630000I-250000J0D01*
G01*
X132195000Y-207630000D01*
G75*
G02*
X131945000Y-207380000I0J250000D01*
G01*
X131945000Y-206880000D01*
G75*
G02*
X132195000Y-206630000I250000J0D01*
G01*
G37*
G36*
G01*
X132195000Y-204730000D02*
X133145000Y-204730000D01*
G75*
G02*
X133395000Y-204980000I0J-250000D01*
G01*
X133395000Y-205480000D01*
G75*
G02*
X133145000Y-205730000I-250000J0D01*
G01*
X132195000Y-205730000D01*
G75*
G02*
X131945000Y-205480000I0J250000D01*
G01*
X131945000Y-204980000D01*
G75*
G02*
X132195000Y-204730000I250000J0D01*
G01*
G37*
G36*
G01*
X139545000Y-205700000D02*
X138595000Y-205700000D01*
G75*
G02*
X138345000Y-205450000I0J250000D01*
G01*
X138345000Y-204950000D01*
G75*
G02*
X138595000Y-204700000I250000J0D01*
G01*
X139545000Y-204700000D01*
G75*
G02*
X139795000Y-204950000I0J-250000D01*
G01*
X139795000Y-205450000D01*
G75*
G02*
X139545000Y-205700000I-250000J0D01*
G01*
G37*
G36*
G01*
X139545000Y-207600000D02*
X138595000Y-207600000D01*
G75*
G02*
X138345000Y-207350000I0J250000D01*
G01*
X138345000Y-206850000D01*
G75*
G02*
X138595000Y-206600000I250000J0D01*
G01*
X139545000Y-206600000D01*
G75*
G02*
X139795000Y-206850000I0J-250000D01*
G01*
X139795000Y-207350000D01*
G75*
G02*
X139545000Y-207600000I-250000J0D01*
G01*
G37*
G36*
G01*
X122825000Y-146890000D02*
X122825000Y-147390000D01*
G75*
G02*
X122600000Y-147615000I-225000J0D01*
G01*
X122150000Y-147615000D01*
G75*
G02*
X121925000Y-147390000I0J225000D01*
G01*
X121925000Y-146890000D01*
G75*
G02*
X122150000Y-146665000I225000J0D01*
G01*
X122600000Y-146665000D01*
G75*
G02*
X122825000Y-146890000I0J-225000D01*
G01*
G37*
G36*
G01*
X124375000Y-146890000D02*
X124375000Y-147390000D01*
G75*
G02*
X124150000Y-147615000I-225000J0D01*
G01*
X123700000Y-147615000D01*
G75*
G02*
X123475000Y-147390000I0J225000D01*
G01*
X123475000Y-146890000D01*
G75*
G02*
X123700000Y-146665000I225000J0D01*
G01*
X124150000Y-146665000D01*
G75*
G02*
X124375000Y-146890000I0J-225000D01*
G01*
G37*
G36*
G01*
X173190000Y-193465000D02*
X173690000Y-193465000D01*
G75*
G02*
X173915000Y-193690000I0J-225000D01*
G01*
X173915000Y-194140000D01*
G75*
G02*
X173690000Y-194365000I-225000J0D01*
G01*
X173190000Y-194365000D01*
G75*
G02*
X172965000Y-194140000I0J225000D01*
G01*
X172965000Y-193690000D01*
G75*
G02*
X173190000Y-193465000I225000J0D01*
G01*
G37*
G36*
G01*
X173190000Y-191915000D02*
X173690000Y-191915000D01*
G75*
G02*
X173915000Y-192140000I0J-225000D01*
G01*
X173915000Y-192590000D01*
G75*
G02*
X173690000Y-192815000I-225000J0D01*
G01*
X173190000Y-192815000D01*
G75*
G02*
X172965000Y-192590000I0J225000D01*
G01*
X172965000Y-192140000D01*
G75*
G02*
X173190000Y-191915000I225000J0D01*
G01*
G37*
G36*
G01*
X129265000Y-168855000D02*
X128765000Y-168855000D01*
G75*
G02*
X128540000Y-168630000I0J225000D01*
G01*
X128540000Y-168180000D01*
G75*
G02*
X128765000Y-167955000I225000J0D01*
G01*
X129265000Y-167955000D01*
G75*
G02*
X129490000Y-168180000I0J-225000D01*
G01*
X129490000Y-168630000D01*
G75*
G02*
X129265000Y-168855000I-225000J0D01*
G01*
G37*
G36*
G01*
X129265000Y-170405000D02*
X128765000Y-170405000D01*
G75*
G02*
X128540000Y-170180000I0J225000D01*
G01*
X128540000Y-169730000D01*
G75*
G02*
X128765000Y-169505000I225000J0D01*
G01*
X129265000Y-169505000D01*
G75*
G02*
X129490000Y-169730000I0J-225000D01*
G01*
X129490000Y-170180000D01*
G75*
G02*
X129265000Y-170405000I-225000J0D01*
G01*
G37*
G36*
G01*
X122825000Y-148490000D02*
X122825000Y-148990000D01*
G75*
G02*
X122600000Y-149215000I-225000J0D01*
G01*
X122150000Y-149215000D01*
G75*
G02*
X121925000Y-148990000I0J225000D01*
G01*
X121925000Y-148490000D01*
G75*
G02*
X122150000Y-148265000I225000J0D01*
G01*
X122600000Y-148265000D01*
G75*
G02*
X122825000Y-148490000I0J-225000D01*
G01*
G37*
G36*
G01*
X124375000Y-148490000D02*
X124375000Y-148990000D01*
G75*
G02*
X124150000Y-149215000I-225000J0D01*
G01*
X123700000Y-149215000D01*
G75*
G02*
X123475000Y-148990000I0J225000D01*
G01*
X123475000Y-148490000D01*
G75*
G02*
X123700000Y-148265000I225000J0D01*
G01*
X124150000Y-148265000D01*
G75*
G02*
X124375000Y-148490000I0J-225000D01*
G01*
G37*
G36*
G01*
X122825000Y-151690000D02*
X122825000Y-152190000D01*
G75*
G02*
X122600000Y-152415000I-225000J0D01*
G01*
X122150000Y-152415000D01*
G75*
G02*
X121925000Y-152190000I0J225000D01*
G01*
X121925000Y-151690000D01*
G75*
G02*
X122150000Y-151465000I225000J0D01*
G01*
X122600000Y-151465000D01*
G75*
G02*
X122825000Y-151690000I0J-225000D01*
G01*
G37*
G36*
G01*
X124375000Y-151690000D02*
X124375000Y-152190000D01*
G75*
G02*
X124150000Y-152415000I-225000J0D01*
G01*
X123700000Y-152415000D01*
G75*
G02*
X123475000Y-152190000I0J225000D01*
G01*
X123475000Y-151690000D01*
G75*
G02*
X123700000Y-151465000I225000J0D01*
G01*
X124150000Y-151465000D01*
G75*
G02*
X124375000Y-151690000I0J-225000D01*
G01*
G37*
G36*
G01*
X122825000Y-150090000D02*
X122825000Y-150590000D01*
G75*
G02*
X122600000Y-150815000I-225000J0D01*
G01*
X122150000Y-150815000D01*
G75*
G02*
X121925000Y-150590000I0J225000D01*
G01*
X121925000Y-150090000D01*
G75*
G02*
X122150000Y-149865000I225000J0D01*
G01*
X122600000Y-149865000D01*
G75*
G02*
X122825000Y-150090000I0J-225000D01*
G01*
G37*
G36*
G01*
X124375000Y-150090000D02*
X124375000Y-150590000D01*
G75*
G02*
X124150000Y-150815000I-225000J0D01*
G01*
X123700000Y-150815000D01*
G75*
G02*
X123475000Y-150590000I0J225000D01*
G01*
X123475000Y-150090000D01*
G75*
G02*
X123700000Y-149865000I225000J0D01*
G01*
X124150000Y-149865000D01*
G75*
G02*
X124375000Y-150090000I0J-225000D01*
G01*
G37*
G36*
G01*
X158150000Y-179215000D02*
X158650000Y-179215000D01*
G75*
G02*
X158875000Y-179440000I0J-225000D01*
G01*
X158875000Y-179890000D01*
G75*
G02*
X158650000Y-180115000I-225000J0D01*
G01*
X158150000Y-180115000D01*
G75*
G02*
X157925000Y-179890000I0J225000D01*
G01*
X157925000Y-179440000D01*
G75*
G02*
X158150000Y-179215000I225000J0D01*
G01*
G37*
G36*
G01*
X158150000Y-177665000D02*
X158650000Y-177665000D01*
G75*
G02*
X158875000Y-177890000I0J-225000D01*
G01*
X158875000Y-178340000D01*
G75*
G02*
X158650000Y-178565000I-225000J0D01*
G01*
X158150000Y-178565000D01*
G75*
G02*
X157925000Y-178340000I0J225000D01*
G01*
X157925000Y-177890000D01*
G75*
G02*
X158150000Y-177665000I225000J0D01*
G01*
G37*
G36*
G01*
X132065000Y-188570000D02*
X132065000Y-189070000D01*
G75*
G02*
X131840000Y-189295000I-225000J0D01*
G01*
X131390000Y-189295000D01*
G75*
G02*
X131165000Y-189070000I0J225000D01*
G01*
X131165000Y-188570000D01*
G75*
G02*
X131390000Y-188345000I225000J0D01*
G01*
X131840000Y-188345000D01*
G75*
G02*
X132065000Y-188570000I0J-225000D01*
G01*
G37*
G36*
G01*
X133615000Y-188570000D02*
X133615000Y-189070000D01*
G75*
G02*
X133390000Y-189295000I-225000J0D01*
G01*
X132940000Y-189295000D01*
G75*
G02*
X132715000Y-189070000I0J225000D01*
G01*
X132715000Y-188570000D01*
G75*
G02*
X132940000Y-188345000I225000J0D01*
G01*
X133390000Y-188345000D01*
G75*
G02*
X133615000Y-188570000I0J-225000D01*
G01*
G37*
G36*
G01*
X163520000Y-193565000D02*
X164020000Y-193565000D01*
G75*
G02*
X164245000Y-193790000I0J-225000D01*
G01*
X164245000Y-194240000D01*
G75*
G02*
X164020000Y-194465000I-225000J0D01*
G01*
X163520000Y-194465000D01*
G75*
G02*
X163295000Y-194240000I0J225000D01*
G01*
X163295000Y-193790000D01*
G75*
G02*
X163520000Y-193565000I225000J0D01*
G01*
G37*
G36*
G01*
X163520000Y-192015000D02*
X164020000Y-192015000D01*
G75*
G02*
X164245000Y-192240000I0J-225000D01*
G01*
X164245000Y-192690000D01*
G75*
G02*
X164020000Y-192915000I-225000J0D01*
G01*
X163520000Y-192915000D01*
G75*
G02*
X163295000Y-192690000I0J225000D01*
G01*
X163295000Y-192240000D01*
G75*
G02*
X163520000Y-192015000I225000J0D01*
G01*
G37*
G36*
G01*
X137665000Y-169505000D02*
X138165000Y-169505000D01*
G75*
G02*
X138390000Y-169730000I0J-225000D01*
G01*
X138390000Y-170180000D01*
G75*
G02*
X138165000Y-170405000I-225000J0D01*
G01*
X137665000Y-170405000D01*
G75*
G02*
X137440000Y-170180000I0J225000D01*
G01*
X137440000Y-169730000D01*
G75*
G02*
X137665000Y-169505000I225000J0D01*
G01*
G37*
G36*
G01*
X137665000Y-167955000D02*
X138165000Y-167955000D01*
G75*
G02*
X138390000Y-168180000I0J-225000D01*
G01*
X138390000Y-168630000D01*
G75*
G02*
X138165000Y-168855000I-225000J0D01*
G01*
X137665000Y-168855000D01*
G75*
G02*
X137440000Y-168630000I0J225000D01*
G01*
X137440000Y-168180000D01*
G75*
G02*
X137665000Y-167955000I225000J0D01*
G01*
G37*
G36*
G01*
X187075000Y-185910000D02*
X187075000Y-185410000D01*
G75*
G02*
X187300000Y-185185000I225000J0D01*
G01*
X187750000Y-185185000D01*
G75*
G02*
X187975000Y-185410000I0J-225000D01*
G01*
X187975000Y-185910000D01*
G75*
G02*
X187750000Y-186135000I-225000J0D01*
G01*
X187300000Y-186135000D01*
G75*
G02*
X187075000Y-185910000I0J225000D01*
G01*
G37*
G36*
G01*
X185525000Y-185910000D02*
X185525000Y-185410000D01*
G75*
G02*
X185750000Y-185185000I225000J0D01*
G01*
X186200000Y-185185000D01*
G75*
G02*
X186425000Y-185410000I0J-225000D01*
G01*
X186425000Y-185910000D01*
G75*
G02*
X186200000Y-186135000I-225000J0D01*
G01*
X185750000Y-186135000D01*
G75*
G02*
X185525000Y-185910000I0J225000D01*
G01*
G37*
G36*
G01*
X171620000Y-193445000D02*
X172120000Y-193445000D01*
G75*
G02*
X172345000Y-193670000I0J-225000D01*
G01*
X172345000Y-194120000D01*
G75*
G02*
X172120000Y-194345000I-225000J0D01*
G01*
X171620000Y-194345000D01*
G75*
G02*
X171395000Y-194120000I0J225000D01*
G01*
X171395000Y-193670000D01*
G75*
G02*
X171620000Y-193445000I225000J0D01*
G01*
G37*
G36*
G01*
X171620000Y-191895000D02*
X172120000Y-191895000D01*
G75*
G02*
X172345000Y-192120000I0J-225000D01*
G01*
X172345000Y-192570000D01*
G75*
G02*
X172120000Y-192795000I-225000J0D01*
G01*
X171620000Y-192795000D01*
G75*
G02*
X171395000Y-192570000I0J225000D01*
G01*
X171395000Y-192120000D01*
G75*
G02*
X171620000Y-191895000I225000J0D01*
G01*
G37*
G36*
G01*
X187075000Y-184160000D02*
X187075000Y-183660000D01*
G75*
G02*
X187300000Y-183435000I225000J0D01*
G01*
X187750000Y-183435000D01*
G75*
G02*
X187975000Y-183660000I0J-225000D01*
G01*
X187975000Y-184160000D01*
G75*
G02*
X187750000Y-184385000I-225000J0D01*
G01*
X187300000Y-184385000D01*
G75*
G02*
X187075000Y-184160000I0J225000D01*
G01*
G37*
G36*
G01*
X185525000Y-184160000D02*
X185525000Y-183660000D01*
G75*
G02*
X185750000Y-183435000I225000J0D01*
G01*
X186200000Y-183435000D01*
G75*
G02*
X186425000Y-183660000I0J-225000D01*
G01*
X186425000Y-184160000D01*
G75*
G02*
X186200000Y-184385000I-225000J0D01*
G01*
X185750000Y-184385000D01*
G75*
G02*
X185525000Y-184160000I0J225000D01*
G01*
G37*
G36*
G01*
X138165000Y-174655000D02*
X137665000Y-174655000D01*
G75*
G02*
X137440000Y-174430000I0J225000D01*
G01*
X137440000Y-173980000D01*
G75*
G02*
X137665000Y-173755000I225000J0D01*
G01*
X138165000Y-173755000D01*
G75*
G02*
X138390000Y-173980000I0J-225000D01*
G01*
X138390000Y-174430000D01*
G75*
G02*
X138165000Y-174655000I-225000J0D01*
G01*
G37*
G36*
G01*
X138165000Y-176205000D02*
X137665000Y-176205000D01*
G75*
G02*
X137440000Y-175980000I0J225000D01*
G01*
X137440000Y-175530000D01*
G75*
G02*
X137665000Y-175305000I225000J0D01*
G01*
X138165000Y-175305000D01*
G75*
G02*
X138390000Y-175530000I0J-225000D01*
G01*
X138390000Y-175980000D01*
G75*
G02*
X138165000Y-176205000I-225000J0D01*
G01*
G37*
M02*
