M48
; DRILL file {KiCad (5.1.9)-1} date 02/28/21 22:53:17
; FORMAT={-:-/ absolute / inch / decimal}
; #@! TF.CreationDate,2021-02-28T22:53:17+01:00
; #@! TF.GenerationSoftware,Kicad,Pcbnew,(5.1.9)-1
FMAT,2
INCH
T1C0.0157
T2C0.0236
T3C0.0390
T4C0.0394
T5C0.0512
T6C0.0610
T7C0.1575
T8C0.0256
%
G90
G05
T1
X4.687Y-7.8417
X4.6886Y-7.6516
X4.7343Y-7.6512
X4.735Y-7.8417
X4.8043Y-5.4102
X4.8043Y-5.6102
X4.8315Y-5.1732
X4.8319Y-5.1236
X4.8563Y-5.3134
X4.8567Y-6.139
X4.8772Y-5.1559
X4.9031Y-5.3134
X4.9039Y-6.1394
X4.9331Y-5.1197
X4.9634Y-5.952
X4.9803Y-5.3543
X4.9803Y-5.4134
X4.9803Y-5.4724
X4.9803Y-5.5315
X5.0181Y-6.7539
X5.0189Y-5.9394
X5.0394Y-5.5512
X5.0717Y-5.7787
X5.0728Y-6.5591
X5.0748Y-6.1
X5.0839Y-5.1217
X5.0984Y-5.5512
X5.1173Y-7.4299
X5.1303Y-5.6224
X5.1429Y-8.0831
X5.1575Y-5.5512
X5.1642Y-6.9886
X5.1811Y-7.4941
X5.1815Y-5.7894
X5.1839Y-5.9354
X5.1866Y-6.0079
X5.1898Y-6.5083
X5.1969Y-2.0118
X5.2039Y-6.8161
X5.2165Y-5.5512
X5.2232Y-8.0146
X5.2327Y-6.0079
X5.2339Y-6.5106
X5.2362Y-2.0118
X5.2756Y-2.0118
X5.2756Y-5.3543
X5.2756Y-5.4134
X5.2756Y-5.4724
X5.2756Y-5.5315
X5.276Y-5.6126
X5.2835Y-4.963
X5.3063Y-8.0138
X5.315Y-2.0118
X5.3181Y-7.0331
X5.3256Y-7.2413
X5.3451Y-6.9782
X5.3543Y-2.0118
X5.3543Y-6.7217
X5.3614Y-6.8287
X5.3697Y-4.5992
X5.3913Y-5.6122
X5.3937Y-2.0118
X5.3984Y-8.2047
X5.425Y-7.3411
X5.425Y-7.4215
X5.4331Y-2.0118
X5.4504Y-3.0996
X5.4547Y-5.5953
X5.4724Y-2.0118
X5.4724Y-8.2055
X5.5083Y-6.6921
X5.5118Y-2.0118
X5.5429Y-5.6965
X5.5512Y-2.0118
X5.5587Y-7.3335
X5.5633Y-3.0752
X5.5906Y-2.0118
X5.6075Y-3.0311
X5.6087Y-5.6354
X5.6299Y-2.0118
X5.6661Y-7.764
X5.6661Y-7.861
X5.6693Y-2.0118
X5.6705Y-8.1114
X5.6713Y-8.0224
X5.672Y-7.9382
X5.687Y-3.7791
X5.7016Y-5.7295
X5.7087Y-2.0118
X5.7209Y-3.1713
X5.7417Y-2.8528
X5.748Y-2.0118
X5.7524Y-7.2295
X5.7563Y-4.078
X5.7581Y-3.7463
X5.7697Y-3.8539
X5.7756Y-4.2512
X5.7874Y-2.0118
X5.7878Y-7.6343
X5.8091Y-3.5614
X5.8256Y-4.1118
X5.8268Y-2.0118
X5.8394Y-7.3197
X5.8547Y-6.789
X5.8598Y-5.8764
X5.8661Y-2.0118
X5.9055Y-2.0118
X5.9358Y-7.7004
X5.9449Y-2.0118
X5.9843Y-2.0118
X6.0236Y-2.0118
X6.063Y-2.0118
X6.1024Y-2.0118
X6.1417Y-2.0118
X6.1811Y-2.0118
X6.2205Y-2.0118
X6.2598Y-2.0118
X6.2673Y-4.0531
X6.2675Y-6.5313
X6.2732Y-7.5772
X6.2992Y-2.0118
X6.3386Y-2.0118
X6.348Y-7.5756
X6.3697Y-7.6378
X6.378Y-2.0118
X6.413Y-3.2366
X6.4169Y-3.2831
X6.4173Y-2.0118
X6.4429Y-4.0055
X6.4476Y-7.7047
X6.4567Y-2.0118
X6.4961Y-2.0118
X6.5134Y-3.1323
X6.5159Y-3.9884
X6.5159Y-4.0361
X6.5313Y-3.2423
X6.5354Y-2.0118
X6.5407Y-3.3266
X6.7535Y-3.1335
X6.7547Y-7.4681
X6.7547Y-6.8264
X6.8165Y-6.6055
X6.9016Y-7.6327
X6.989Y-7.6319
X7.0992Y-7.6327
X7.1063Y-2.0118
X7.1094Y-6.4091
X7.1456Y-4.7245
X7.1457Y-2.0118
X7.1484Y-6.4398
X7.1789Y-3.8581
X7.185Y-2.0118
X7.1969Y-7.6354
X7.1981Y-3.9086
X7.2096Y-2.862
X7.2213Y-4.5276
X7.2244Y-2.0118
X7.2579Y-7.4449
X7.2618Y-7.3602
X7.2638Y-2.0118
X7.2724Y-3.8142
X7.3031Y-2.0118
X7.3224Y-3.9886
X7.3425Y-2.0118
X7.3819Y-2.0118
X7.3843Y-7.1728
X7.3949Y-3.422
X7.4213Y-2.0118
X7.4409Y-7.4016
X7.4449Y-7.3543
X7.4512Y-3.4205
X7.4606Y-2.0118
X7.4772Y-7.2409
X7.4799Y-7.3138
X7.4864Y-5.9352
X7.5Y-2.0118
X7.5019Y-3.2973
X7.5394Y-2.0118
X7.5441Y-5.9705
X7.5531Y-3.0441
X7.5787Y-2.0118
X7.5815Y-5.9992
X7.6157Y-3.2992
X7.6181Y-2.0118
X7.6575Y-2.0118
X7.6969Y-2.0118
X7.7323Y-5.6894
X7.7362Y-2.0118
X7.7591Y-5.0732
X7.773Y-5.4911
X7.7756Y-2.0118
X7.7886Y-3.0398
X7.7947Y-5.5526
X7.801Y-4.9033
X7.815Y-2.0118
X7.8543Y-2.0118
X7.8665Y-4.8988
X7.8937Y-2.0118
X7.9209Y-5.0327
X7.9209Y-5.5429
X7.9315Y-2.9724
X7.9331Y-2.0118
X7.9724Y-2.0118
X8.0118Y-2.0118
X8.0392Y-2.8726
X8.0481Y-4.4992
X8.0512Y-2.0118
X8.0717Y-4.8683
X8.0906Y-2.0118
X8.1156Y-4.625
X8.1299Y-2.0118
X8.1408Y-4.7036
X8.1693Y-2.0118
X8.1862Y-4.8319
X8.2087Y-2.0118
X8.248Y-2.0118
X8.2874Y-2.0118
X8.3268Y-2.0118
X8.3638Y-2.8988
X8.3661Y-2.0118
X8.3928Y-5.5007
X8.4055Y-2.0118
X8.4085Y-5.3033
X8.4449Y-2.0118
X8.4697Y-8.2114
X8.4843Y-2.0118
X8.5157Y-5.3346
X8.5236Y-2.0118
X8.5478Y-8.2246
X8.55Y-8.1746
X8.563Y-2.0118
X8.6024Y-2.0118
X8.6531Y-7.9992
X8.6866Y-6.176
X8.6974Y-5.7156
X8.8057Y-6.1071
X8.8083Y-6.187
X8.8126Y-5.8055
X8.8748Y-6.2508
X9.0528Y-6.1256
X9.252Y-2.0118
X9.2539Y-5.8728
X9.2843Y-6.0744
X9.2913Y-2.0118
X9.3307Y-2.0118
X9.3701Y-2.0118
X9.3736Y-5.8441
X9.4094Y-2.0118
X9.4266Y-6.397
X9.4425Y-6.572
X9.4449Y-6.4445
X9.4488Y-2.0118
X9.4535Y-7.2598
X9.4882Y-2.0118
X9.4953Y-6.572
X9.4969Y-6.25
X9.5276Y-2.0118
X9.5669Y-2.0118
X9.5969Y-7.1457
X9.6063Y-2.0118
X9.6457Y-2.0118
X9.6642Y-7.0756
X9.685Y-2.0118
X9.7244Y-2.0118
X9.7638Y-2.0118
X9.8031Y-2.0118
X9.8425Y-2.0118
X9.8819Y-2.0118
X9.9213Y-2.0118
X9.9382Y-2.8476
X9.9583Y-6.426
X9.9606Y-2.0118
X10.0Y-2.0118
X10.0394Y-2.0118
X10.0787Y-2.0118
X10.0829Y-6.3274
X10.1141Y-6.3788
X10.1181Y-2.0118
X10.1575Y-2.0118
X10.1724Y-6.5161
X10.1969Y-2.0118
X10.2362Y-2.0118
X10.2756Y-2.0118
X10.315Y-2.0118
X10.3543Y-2.0118
X10.3937Y-2.0118
X10.4331Y-2.0118
X10.4724Y-2.0118
X10.5118Y-2.0118
T2
X4.6268Y-2.3622
X4.6268Y-8.5854
X4.6614Y-2.2787
X4.6614Y-2.4457
X4.6614Y-8.5019
X4.6614Y-8.6689
X4.7449Y-2.2441
X4.7449Y-2.4803
X4.7449Y-8.4673
X4.7449Y-8.7035
X4.8284Y-2.2787
X4.8284Y-2.4457
X4.8284Y-8.5019
X4.8284Y-8.6689
X4.863Y-2.3622
X4.863Y-8.5854
X10.8465Y-2.3622
X10.8465Y-8.5854
X10.8811Y-2.2787
X10.8811Y-2.4457
X10.8811Y-8.5019
X10.8811Y-8.6689
X10.9646Y-2.2441
X10.9646Y-2.4803
X10.9646Y-8.4673
X10.9646Y-8.7035
X11.0481Y-2.2787
X11.0481Y-2.4457
X11.0481Y-8.5019
X11.0481Y-8.6689
X11.0827Y-2.3622
X11.0827Y-8.5854
T3
X4.5472Y-6.8543
X4.5472Y-7.0315
X5.6496Y-2.1988
X5.8268Y-2.1988
X7.7559Y-2.1988
X7.9331Y-2.1988
X9.8622Y-2.1988
X10.0394Y-2.1988
T4
X4.9461Y-7.5976
X5.0461Y-7.5976
X5.1461Y-7.5976
X5.2Y-2.2
X5.2252Y-7.3281
X5.2461Y-7.5976
X5.3Y-2.2
X5.3252Y-7.3281
X5.3461Y-7.5976
X5.4Y-2.2
X5.4461Y-7.5976
X5.652Y-7.3266
X5.752Y-7.3266
X6.4567Y-7.8642
X6.5567Y-7.8642
X6.6567Y-7.8642
X6.7567Y-7.8642
X6.8213Y-5.5957
X6.8213Y-5.6957
X6.8567Y-7.8642
X6.9567Y-7.8642
X7.1Y-2.2
X7.2Y-2.2
X7.3Y-2.2
X9.3Y-2.2
X9.4Y-2.2
X9.5Y-2.2
T5
X4.6453Y-6.8047
X4.6453Y-7.0807
X5.6004Y-2.2969
X5.8764Y-2.2969
X7.7067Y-2.2969
X7.9827Y-2.2969
X9.813Y-2.2969
X10.089Y-2.2969
T6
X5.2362Y-2.0866
X7.126Y-2.0866
X9.2913Y-2.0866
T7
X4.7449Y-2.3622
X4.7449Y-8.5854
X10.9646Y-2.3622
X10.9646Y-8.5854
T8
X4.5709Y-7.6343
X4.5709Y-7.8618
T2
G00X4.439Y-7.578
M15
G01X4.4154Y-7.578
M16
G05
G00X4.439Y-7.9181
M15
G01X4.4154Y-7.9181
M16
G05
G00X4.6134Y-7.578
M15
G01X4.5701Y-7.578
M16
G05
G00X4.6134Y-7.9181
M15
G01X4.5701Y-7.9181
M16
G05
T0
M30
